<svg xmlns="http://www.w3.org/2000/svg" width="323.266" height="197.262" viewBox="0 0 323.266 197.262"><path fill="#FBFCFC" stroke="#91A4AD" stroke-miterlimit="10" d="M322.766 89.75c0 8.696-7.05 15.746-15.746 15.746H16.771c-8.696 0-15.746-7.05-15.746-15.746V53.125c0-8.696 7.05-15.746 15.746-15.746h290.25c8.696 0 15.746 7.05 15.746 15.746V89.75h-.001zm0 87.045c0 11.027-7.755 19.967-17.32 19.967H17.821C8.255 196.762.5 187.822.5 176.795s7.755-19.967 17.321-19.967h287.625c9.565.001 17.32 8.941 17.32 19.967z"/><path fill="#ED1C5C" d="M312.173 133.391c0 8.406-6.815 15.221-15.221 15.221h-34.116c-8.407 0-15.221-6.815-15.221-15.221 0-8.406 6.814-15.221 15.221-15.221h34.116c8.406 0 15.221 6.815 15.221 15.221z"/><g fill="#FFF"><path d="M271.42 135.592v-4.834c0-.133.073-.191.205-.191h.69c.133 0 .191.059.191.191v4.834c0 1.132-.734 1.881-1.881 1.881h-5.128a3.063 3.063 0 0 1-2.249-.926 3.121 3.121 0 0 1-.925-2.263c0-1.352.822-2.425 1.763-2.909l.309-.147c.029-.015.059-.015.088-.015.104 0 .147.029.177.103l.309.617c.029.044.044.074.044.104 0 .059-.029.117-.117.161l-.309.147a2.166 2.166 0 0 0-1.19 1.939c0 .588.206 1.087.617 1.499.411.411.911.603 1.484.603h5.187c.514 0 .735-.265.735-.794zm-2.939 3.38v.793c0 .133-.059.191-.19.191h-.735c-.132 0-.19-.059-.19-.191v-.793c0-.133.059-.206.19-.206h.735c.131 0 .19.073.19.206zm7.29-1.499h-.705c-.133 0-.191-.059-.191-.191v-10.227c0-.133.059-.191.191-.191h.705c.117 0 .177.059.177.191v10.227c-.001.132-.06.191-.177.191zm7.45.177v-.177h-2.013c-.853 0-1.602-.309-2.204-.911s-.911-1.337-.911-2.189v-1.102c0-.853.309-1.587.911-2.189s1.352-.911 2.204-.911 1.587.309 2.189.911.911 1.337.911 2.189v3.13h2.219v1.072h-2.219v.177c0 .778-.294 1.454-.867 2.027s-1.249.853-2.027.853h-1.528c-.118 0-.191-.059-.191-.191v-.69c0-.132.073-.191.191-.191h1.528c.97-.002 1.807-.839 1.807-1.808zm-2.013-1.249h2.013v-3.13c0-1.103-.911-2.028-2.013-2.028a2.05 2.05 0 0 0-2.028 2.028v1.102c0 1.102.926 2.028 2.028 2.028z"/><path d="M293.641 134.975v-1.41c0-.647-.221-1.176-.677-1.632a2.243 2.243 0 0 0-1.646-.69c-1.043 0-1.822.367-2.351 1.103l-.206.279c-.044.059-.088.088-.146.088-.045 0-.074-.015-.118-.044l-.559-.397a.213.213 0 0 1-.088-.132v-.029c0-.044.015-.073.044-.117l.191-.279c.734-1.029 1.822-1.543 3.232-1.543.94 0 1.749.323 2.41.984s.999 1.47.999 2.41v2.233c0 .176.029.294.117.382.147.146.441.221.867.221h.69v1.072h-.499c-.838 0-1.411-.235-1.778-.734-.44.499-1.087.734-1.91.734h-6.201v-1.072h6.201c.986-.016 1.428-.443 1.428-1.427zm-2.572 3.997v.867c0 .132-.059.19-.19.19h-.735c-.132 0-.19-.059-.19-.19v-.867c0-.133.059-.206.19-.206h.735c.131 0 .19.073.19.206z"/><path d="M298.534 135.607v-8.537c0-.133.059-.206.191-.206h.69c.132 0 .191.073.191.206v8.537c0 1.146-.735 1.866-1.866 1.866h-1.705v-1.072h1.72c.544-.015.779-.265.779-.794zm4.335 1.866h-.705c-.132 0-.19-.059-.19-.191v-10.227c0-.133.059-.191.19-.191h.705c.118 0 .177.059.177.191v10.227c0 .132-.059.191-.177.191z"/></g><path fill="#ED1C5C" d="M312.173 15.221c0 8.406-6.815 15.221-15.221 15.221h-34.116c-8.407 0-15.221-6.815-15.221-15.221C247.614 6.815 254.429 0 262.835 0h34.116c8.407 0 15.222 6.815 15.222 15.221z"/><g fill="#FFF"><path d="M266.038 18.7V8.9c0-.133.073-.206.206-.206h.676c.132 0 .205.073.205.206v9.8c0 .882-.323 1.646-.94 2.263s-1.366.926-2.248.926-1.631-.309-2.248-.926-.926-1.381-.926-2.263v-3.453c0-.132.059-.206.191-.206h.69c.132 0 .19.074.19.206V18.7c0 1.161.956 2.116 2.102 2.116a2.113 2.113 0 0 0 2.102-2.116zm4.351.603h-.705c-.133 0-.191-.059-.191-.191V8.885c0-.133.059-.191.191-.191h.705c.117 0 .177.059.177.191v10.227c0 .132-.06.191-.177.191zm7.45.177v-.177h-2.014c-.852 0-1.602-.309-2.204-.911s-.911-1.337-.911-2.189v-1.102c0-.853.309-1.587.911-2.189s1.353-.912 2.205-.912c.853 0 1.587.309 2.189.911s.911 1.337.911 2.189v3.13h2.219v1.072h-2.219v.177c0 .778-.294 1.454-.866 2.027-.573.573-1.249.853-2.043.853h-1.514c-.132 0-.19-.059-.19-.191v-.69c0-.132.059-.191.19-.191h1.514c.984-.001 1.822-.838 1.822-1.807zm-2.013-1.249h2.014v-3.13c0-1.103-.911-2.028-2.014-2.028a2.05 2.05 0 0 0-2.027 2.028v1.102a2.05 2.05 0 0 0 2.027 2.028zm-.309-9.037v.852h1.514c.089 0 .133.045.133.133v.309c0 .088-.044.146-.133.146h-2.513c-.088 0-.132-.059-.132-.146v-.309c0-.088.044-.133.132-.133h.412v-.852c0-.603.499-1.117 1.102-1.117.485 0 .823.221 1.014.676l.059.147c.016.015.016.029.016.059 0 .059-.03.103-.074.117l-.294.118c-.029.015-.059.015-.073.015-.059 0-.073-.015-.103-.073l-.073-.147c-.089-.206-.25-.323-.471-.323a.531.531 0 0 0-.516.528z"/><path d="M292.931 18.231h.69v1.072h-.499c-.646 0-1.146-.206-1.543-.588-.015-.015-.044-.029-.044-.044a.562.562 0 0 1-.104.132c-.338.338-.778.5-1.352.5h-.749c-.721 0-1.249-.191-1.617-.544v-.015l-.013-.014a.34.34 0 0 0-.059.073c-.338.338-.793.5-1.366.5h-.735c-.734 0-1.264-.191-1.631-.559v-.014a.31.31 0 0 1-.059.073c-.338.338-.778.5-1.352.5h-1.866v-1.072h1.896c.529 0 .764-.265.764-.809v-4.938c0-.132.059-.205.191-.205h.69c.133 0 .191.073.191.205v5.144c0 .161.029.279.117.367.162.146.456.235.882.235h.94c.529 0 .778-.265.778-.809v-4.556c0-.132.06-.19.191-.19h.69c.133 0 .191.059.191.19v4.762c0 .161.029.279.117.367.147.146.456.235.882.235h.926c.544 0 .793-.265.793-.809v-4.938c0-.132.06-.205.191-.205h.69c.133 0 .191.073.191.205v4.938c.004.546.444.811.988.811z"/><path d="M295.754 17.437V8.9c0-.133.059-.206.19-.206h.691c.132 0 .19.073.19.206v8.537c0 1.146-.734 1.866-1.866 1.866h-1.704v-1.072h1.719c.545-.015.78-.265.78-.794zm4.335 1.866h-.705c-.133 0-.191-.059-.191-.191V8.885c0-.133.059-.191.191-.191h.705c.117 0 .177.059.177.191v10.227c0 .132-.06.191-.177.191z"/></g><path d="M35.921 180.296h-.732c-.095 0-.136-.041-.136-.122v-.868c0-.081.041-.136.136-.136h.732c.082 0 .136.055.136.136v.868c-.001.081-.055.122-.136.122zm4.003-.99h.665v.99h-.638c-1.058 0-1.723-.665-1.723-1.723v-7.882c0-.122.054-.189.176-.189h.638c.122 0 .176.067.176.189v7.882c0 .502.217.733.706.733z"/><path d="M43.018 178.559v-4.558c0-.122.067-.19.19-.19h.624c.122 0 .19.068.19.19v4.747c0 .149.027.258.109.34.135.136.407.217.8.217h.637v.99h-.461c-.665 0-1.167-.177-1.492-.502-.014-.014-.027-.014-.027-.027 0 .014-.027.055-.041.068-.312.312-.732.461-1.262.461H40.25v-.99h2.062c.489.001.706-.244.706-.746zm-.013-6.524v-.801c0-.122.054-.189.176-.189h.665c.122 0 .19.067.19.189v.801c0 .122-.068.176-.19.176h-.665c-.122 0-.176-.054-.176-.176z"/><path d="M47.538 178.573v-7.882c0-.122.054-.189.176-.189h.638c.122 0 .176.067.176.189v7.882c0 1.058-.678 1.723-1.723 1.723h-1.574v-.99h1.588c.502-.014.719-.245.719-.733zm14.315-.014v-7.868c0-.122.054-.189.176-.189h.624c.122 0 .19.067.19.189v8.058c0 .149.027.258.108.34.136.136.407.217.8.217h.706v.99h-.529c-.665 0-1.153-.177-1.492-.502 0-.014-.014-.014-.027-.027-.027.027-.041.055-.041.068-.312.312-.732.461-1.248.461h-4.571a2.798 2.798 0 0 1-2.062-.854c-.583-.583-.868-1.262-.868-2.075 0-.557.149-1.086.448-1.574s.692-.854 1.194-1.112l.285-.149c.027-.013.041-.013.068-.013.082 0 .136.04.163.095l.298.569c.013.041.027.068.027.095 0 .055-.041.109-.108.149l-.285.136a2.023 2.023 0 0 0-1.099 1.805c0 .528.19.99.57 1.37s.841.569 1.37.569h4.558c.5-.001.745-.232.745-.748zm-3.5-4.557v.786h1.397c.082 0 .122.055.122.136v.285c0 .081-.041.122-.122.122h-2.306c-.082 0-.122-.041-.122-.122v-.285c0-.081.041-.136.122-.136h.379v-.786c0-.557.461-1.018 1.018-1.018.448 0 .76.203.936.61l.041.149c.014.014.027.027.027.041 0 .013-.014.026-.027.04-.013.041-.027.068-.054.082l-.271.108c-.014.014-.041.014-.055.014a.117.117 0 0 1-.108-.082l-.068-.136c-.068-.189-.203-.284-.42-.284a.485.485 0 0 0-.489.476z"/><path d="M66.43 178.559v-7.868c0-.122.054-.189.176-.189h.638c.122 0 .176.067.176.189v8.058c0 .163.041.271.122.34.136.136.407.217.8.217h.692v.99h-.529c-.691 0-1.167-.189-1.505-.529a.316.316 0 0 1-.054.068c-.299.312-.719.461-1.248.461h-1.642v-.99h1.655c.488 0 .719-.245.719-.747z"/><path d="M75.751 174.395c.556.556.841 1.234.841 2.021v1.018c0 .787-.285 1.465-.841 2.021s-1.248.841-2.035.841H68.63v-.99h2.225v-2.89c0-.786.285-1.465.841-2.021.556-.557 1.234-.842 2.021-.842s1.478.286 2.034.842zm-.162 3.039v-1.018a1.893 1.893 0 0 0-1.872-1.872c-1.017 0-1.858.854-1.858 1.872v2.89h1.858a1.894 1.894 0 0 0 1.872-1.872zm11.075 3.025v-.163h-1.858a2.797 2.797 0 0 1-2.035-.841 2.767 2.767 0 0 1-.841-2.021v-1.018c0-.786.285-1.465.841-2.021.556-.557 1.248-.842 2.035-.842s1.465.285 2.021.842c.556.556.841 1.234.841 2.021v2.89h2.048v.99h-2.048v.163c0 .719-.271 1.343-.8 1.872-.529.528-1.153.786-1.872.786h-1.411c-.108 0-.176-.054-.176-.176v-.638c0-.122.068-.177.176-.177h1.411c.894.001 1.668-.773 1.668-1.667zm-1.859-1.153h1.858v-2.89c0-1.018-.841-1.872-1.858-1.872a1.893 1.893 0 0 0-1.872 1.872v1.018c0 1.017.855 1.872 1.872 1.872z"/><path d="M98.117 173.934c.583.584.868 1.275.868 2.103v1.289c0 .827-.285 1.52-.868 2.103a2.87 2.87 0 0 1-2.103.868h-6.769v-.99h2.591a2.111 2.111 0 0 1-.353-1.167v-1.112a2.25 2.25 0 0 1 1.804-2.197 2.976 2.976 0 0 1 2.727-1.777c.814-.002 1.52.296 2.103.88zm-4.477 5.372h1.316v-2.279c0-.678-.556-1.248-1.234-1.248s-1.234.57-1.234 1.248v1.112a1.163 1.163 0 0 0 1.152 1.167zm4.355-1.981v-1.289c0-1.071-.909-1.98-1.98-1.98-.678 0-1.221.285-1.614.842a2.23 2.23 0 0 1 1.546 2.129v2.279h.068c1.085 0 1.98-.896 1.98-1.981zm8.241 1.981h.665v.99h-.638c-1.058 0-1.723-.665-1.723-1.723v-7.882c0-.122.054-.189.176-.189h.638c.122 0 .176.067.176.189v7.882c0 .502.217.733.706.733z"/><path d="M109.331 178.559v-4.558c0-.122.067-.19.19-.19h.624c.122 0 .19.068.19.19v4.747c0 .149.027.258.109.34.135.136.407.217.8.217h.637v.99h-.461c-.665 0-1.167-.177-1.492-.502-.014-.014-.027-.014-.027-.027 0 .014-.027.055-.041.068-.312.312-.732.461-1.262.461h-2.035v-.99h2.062c.488.001.706-.244.706-.746zm-.014-6.524v-.801c0-.122.054-.189.176-.189h.665c.122 0 .19.067.19.189v.801c0 .122-.068.176-.19.176h-.665c-.122 0-.176-.054-.176-.176z"/><path d="M118.638 180.296h-7.095v-.99h2.13v-5.128c0-.122.068-.176.19-.176h.638c.108 0 .176.054.176.176v1.262c1.356-1.262 2.509-1.886 3.486-1.886 1.764 0 2.781 1.33 2.781 3.134v1.303c.001 1.437-.868 2.305-2.306 2.305zm1.303-2.306v-1.303a2.84 2.84 0 0 0-.271-1.262c-.298-.583-.8-.882-1.506-.882-.461 0-1.031.231-1.723.665a7.034 7.034 0 0 0-1.763 1.573v2.523h3.961c.894.002 1.302-.406 1.302-1.314zm-2.808-5.955v-.801c0-.122.054-.189.176-.189h.665c.122 0 .189.067.189.189v.801c0 .122-.067.176-.189.176h-.665c-.122 0-.176-.054-.176-.176zm6.652 8.776v-6.81c0-.122.068-.177.176-.177h.638c.122 0 .176.055.176.177v6.81c0 1.451-.868 2.306-2.306 2.306h-.678c-.123 0-.177-.054-.177-.176v-.638c0-.122.054-.177.177-.177h.678c.909.001 1.316-.405 1.316-1.315zm3.759-12.615v.786h1.384c.082 0 .122.041.122.122v.299c0 .081-.041.122-.122.122h-2.306c-.081 0-.122-.041-.122-.122v-.299c0-.081.041-.122.122-.122h.38v-.786c0-.557.461-1.018 1.018-1.018.448 0 .76.203.936.624l.054.122c.014.014.014.04.014.054a.137.137 0 0 1-.082.122l-.271.108c-.014.014-.027.014-.041.014-.054 0-.108-.04-.122-.081l-.054-.136c-.095-.189-.23-.285-.434-.285a.482.482 0 0 0-.476.476zm.733 2.495v9.415c0 .122-.054.189-.177.189h-.637c-.122 0-.19-.067-.19-.189v-9.415c0-.122.068-.189.19-.189h.637c.123 0 .177.067.177.189zm13.134 9.672v-.067h-1.858a2.797 2.797 0 0 1-2.035-.841 2.767 2.767 0 0 1-.841-2.021v-1.031c0-.786.285-1.465.841-2.021.556-.557 1.248-.842 2.035-.842s1.465.285 2.021.842c.556.556.841 1.234.841 2.021v3.961c0 .733-.271 1.357-.8 1.886s-1.153.801-1.872.801h-2.794a2.87 2.87 0 0 1-2.089-.868 2.826 2.826 0 0 1-.855-2.075v-2.116c0-.122.054-.19.176-.19h.638c.122 0 .176.068.176.19v2.116c0 1.071.882 1.939 1.954 1.939h2.794c.909-.001 1.668-.775 1.668-1.684zm-1.858-1.057h1.858v-2.903a1.87 1.87 0 0 0-1.858-1.858c-1.018 0-1.872.842-1.872 1.858v1.031c0 1.017.854 1.872 1.872 1.872zm-1.465-7.271v-.746c0-.122.055-.177.177-.177h.665c.122 0 .176.055.176.177v.746c0 .122-.054.176-.176.176h-.665c-.123 0-.177-.054-.177-.176zm1.804 0v-.746c0-.122.054-.177.177-.177h.665c.122 0 .19.055.19.177v.746c0 .122-.068.176-.19.176h-.665c-.123 0-.177-.054-.177-.176zm9.243 8.424v-.163h-1.858a2.797 2.797 0 0 1-2.035-.841 2.767 2.767 0 0 1-.841-2.021v-1.018c0-.786.285-1.465.841-2.021.556-.557 1.248-.842 2.035-.842s1.465.285 2.021.842c.556.556.841 1.234.841 2.021v2.89h2.048v.99h-2.048v.163c0 .719-.271 1.343-.8 1.872-.529.528-1.153.786-1.872.786h-1.411c-.108 0-.176-.054-.176-.176v-.638c0-.122.068-.177.176-.177h1.411c.895.001 1.668-.773 1.668-1.667zm-1.858-1.153h1.858v-2.89c0-1.018-.841-1.872-1.858-1.872a1.893 1.893 0 0 0-1.872 1.872v1.018c0 1.017.854 1.872 1.872 1.872z"/><path d="M159.192 180.296h-7.475v-.99h2.944a2.81 2.81 0 0 1-.692-1.872v-1.018c0-.786.285-1.479.841-2.034.556-.557 1.234-.842 2.021-.842s1.465.285 2.021.842c.556.556.841 1.248.841 2.034v3.378a.509.509 0 0 1-.501.502zm-2.361-.99h1.872v-2.89c0-1.03-.841-1.872-1.872-1.872a1.884 1.884 0 0 0-1.872 1.872v1.018c0 1.017.855 1.872 1.872 1.872zm-.678-7.271v-.801c0-.122.054-.189.176-.189h.665c.122 0 .19.067.19.189v.801c0 .122-.068.176-.19.176h-.665c-.122 0-.176-.054-.176-.176zm9.988 8.424v-.163h-1.858a2.767 2.767 0 0 1-2.021-.841 2.767 2.767 0 0 1-.841-2.021v-1.018c0-.786.285-1.465.841-2.021a2.764 2.764 0 0 1 2.021-.842c.787 0 1.465.285 2.021.842.557.556.841 1.234.841 2.021v4.043c0 .719-.258 1.343-.786 1.872a2.588 2.588 0 0 1-1.886.786h-1.411c-.122 0-.176-.054-.176-.176v-.638c0-.122.054-.177.176-.177h1.411c.895.001 1.668-.773 1.668-1.667zm-1.859-1.153h1.858v-2.89c0-1.018-.841-1.872-1.858-1.872s-1.872.842-1.872 1.872v1.018c0 1.017.856 1.872 1.872 1.872zm10.098 0h.665v.99h-.638c-1.058 0-1.723-.665-1.723-1.723v-7.882c0-.122.055-.189.177-.189h.638c.122 0 .176.067.176.189v7.882c0 .502.217.733.705.733z"/><path d="M177.475 178.559v-4.558c0-.122.067-.19.189-.19h.624c.122 0 .19.068.19.19v4.747c0 .149.027.258.108.34.136.136.407.217.801.217h.637v.99h-.461c-.664 0-1.166-.177-1.492-.502-.014-.014-.027-.014-.027-.027 0 .014-.026.055-.04.068-.313.312-.732.461-1.262.461h-2.035v-.99h2.063c.488.001.705-.244.705-.746zm-.014-6.524v-.801c0-.122.055-.189.177-.189h.664c.122 0 .19.067.19.189v.801c0 .122-.068.176-.19.176h-.664c-.122 0-.177-.054-.177-.176z"/><path d="M182.456 178.573v-4.571c0-.122.067-.19.189-.19h.624c.122 0 .189.068.189.19v4.571c0 1.058-.691 1.723-1.736 1.723h-2.034v-.99h2.062c.488-.014.706-.231.706-.733zm.135-7.122v.787h1.384c.082 0 .122.041.122.136v.285c0 .081-.04.122-.122.122h-2.306c-.081 0-.122-.041-.122-.122v-.285c0-.095.041-.136.122-.136h.38v-.787c0-.556.461-1.017 1.018-1.017.447 0 .759.203.936.623l.055.136a.101.101 0 0 1 .014.055c0 .041-.027.081-.082.108l-.258.122c-.027.014-.054.014-.067.014-.055 0-.082-.041-.108-.095l-.055-.136a.44.44 0 0 0-.434-.285.482.482 0 0 0-.477.475zm4.927 7.855h.665v.99h-.638c-1.058 0-1.723-.665-1.723-1.723v-7.882c0-.122.055-.189.177-.189h.638c.122 0 .176.067.176.189v7.882c0 .502.216.733.705.733z"/><path d="M196.473 179.306h1.018v.99h-.828c-.705 0-1.288-.285-1.628-.787a2.769 2.769 0 0 1-1.967.787h-5.223v-.99h2.36v-2.89c0-.786.285-1.479.842-2.034.556-.557 1.234-.842 2.021-.842s1.465.285 2.021.842c.556.556.841 1.248.841 2.034v1.018c0 .475-.108.909-.325 1.329.094.366.42.543.868.543zm-5.277-2.89v2.89h1.872a1.876 1.876 0 0 0 1.872-1.872v-1.018c0-1.03-.841-1.872-1.872-1.872s-1.872.854-1.872 1.872z"/><path d="M206.611 178.573v-4.585c0-.122.055-.177.177-.177h.638c.122 0 .176.055.176.177v4.585c0 1.058-.678 1.723-1.736 1.723h-.678c-.665 0-1.167-.189-1.506-.529 0 .014-.027.041-.055.068-.312.312-.732.461-1.248.461h-.679c-.665 0-1.167-.177-1.506-.516l-.014-.014c-.014.014-.027.041-.041.068-.312.312-.732.461-1.262.461h-1.723v-.99h1.75c.475-.014.706-.244.706-.732v-4.585c0-.122.067-.177.189-.177h.624c.122 0 .177.055.177.177v4.761c0 .149.04.258.122.34.135.136.393.217.8.217h.868c.488 0 .719-.244.719-.732v-4.219c0-.122.068-.177.177-.177h.638c.122 0 .176.055.176.177v4.395c0 .149.041.258.122.34.136.136.394.217.787.217h.854c.517-.001.748-.232.748-.734zm14.495-.014v-4.558c0-.122.068-.19.177-.19h.638c.122 0 .176.068.176.19v4.747c0 .149.027.258.108.34.136.136.407.217.814.217h.624v.99h-.462c-.678 0-1.166-.177-1.506-.516v-.014c-.284.353-.746.529-1.302.529h-4.748a2.827 2.827 0 0 1-2.075-.854c-.569-.583-.854-1.262-.854-2.075a3.04 3.04 0 0 1 1.642-2.687l.271-.149c.027-.013.055-.013.082-.013.067 0 .136.04.162.095l.285.569c.014.041.027.068.027.095 0 .055-.027.109-.095.149l-.285.136a2.066 2.066 0 0 0-1.099 1.805c0 .542.189.99.569 1.37s.842.569 1.37.569h4.734c.503.002.747-.243.747-.745zm-4.477-5.358v-.8c0-.122.068-.177.177-.177h.664c.122 0 .19.055.19.177v.8c0 .122-.068.177-.19.177h-.664c-.109 0-.177-.055-.177-.177zm1.805 0v-.8c0-.122.054-.177.176-.177h.679c.122 0 .176.055.176.177v.8c0 .122-.054.177-.176.177h-.679c-.122 0-.176-.055-.176-.177z"/><path d="M230.35 177.99v-1.303a2.03 2.03 0 0 0-.624-1.506c-.421-.42-.909-.638-1.506-.638-.977 0-1.709.34-2.185 1.018l-.176.258a.185.185 0 0 1-.149.081c-.041 0-.067-.013-.108-.04l-.516-.366c-.041-.027-.055-.068-.067-.122v-.027a.26.26 0 0 1 .026-.108l.177-.258c.691-.949 1.695-1.425 2.998-1.425.868 0 1.601.313 2.211.923s.922 1.343.922 2.211v2.062c0 .149.027.258.109.34.136.136.406.217.8.217h.638v.99h-.461c-.773 0-1.316-.217-1.642-.679-.407.462-.99.679-1.75.679h-5.738v-.99h5.738c.909-.001 1.303-.409 1.303-1.317z"/><path d="M235.631 178.573v-4.571c0-.122.067-.19.176-.19h.638c.108 0 .177.068.177.19v4.571c0 1.058-.679 1.723-1.723 1.723h-2.334v-.99h2.361c.487-.014.705-.245.705-.733zm-.923-6.538v-.801c0-.122.068-.189.19-.189h.65c.122 0 .19.067.19.189v.801c0 .122-.068.176-.19.176h-.65c-.121 0-.19-.054-.19-.176zm2.835-.801v.801c0 .122-.054.176-.176.176h-.665c-.122 0-.189-.054-.189-.176v-.801c0-.122.067-.189.189-.189h.665c.122 0 .176.067.176.189zm6.583 8.072h.665v.99h-.638c-1.058 0-1.723-.665-1.723-1.723v-7.882c0-.122.055-.189.177-.189h.638c.122 0 .176.067.176.189v7.882c0 .502.217.733.705.733z"/><path d="M251.575 174.395c.556.556.841 1.234.841 2.021v1.018c0 .787-.285 1.465-.841 2.021a2.799 2.799 0 0 1-2.035.841h-5.087v-.99h2.225v-2.89c0-.786.285-1.465.842-2.021a2.763 2.763 0 0 1 2.021-.842 2.801 2.801 0 0 1 2.034.842zm-.163 3.039v-1.018a1.893 1.893 0 0 0-1.872-1.872c-1.017 0-1.858.854-1.858 1.872v2.89h1.858a1.893 1.893 0 0 0 1.872-1.872zm9.028 4.259c.528 0 .99-.19 1.37-.57s.569-.854.569-1.384v-9.048c0-.122.055-.189.177-.189h.624c.122 0 .189.067.189.189v8.614h2.021v.99h-2.076a2.919 2.919 0 0 1-1.003 1.695 2.804 2.804 0 0 1-1.872.692c-.814 0-1.52-.299-2.09-.868a2.83 2.83 0 0 1-.854-2.076v-3.201c0-.122.055-.176.177-.176h.638c.122 0 .176.054.176.176v3.201c0 1.073.881 1.955 1.954 1.955z"/><path d="M270.048 171.017h1.126c.122 0 .176.054.176.176v.638c0 .122-.054.177-.176.177h-1.126c-1.411 0-2.197.746-2.347 2.211h2.536c.868 0 1.588.285 2.157.868s.841 1.315.841 2.197v1.289c0 1.058-.664 1.723-1.723 1.723h-6.66v-.99h6.646c.502 0 .746-.23.746-.732v-1.289c0-1.221-.8-2.075-2.008-2.075h-3.052a.498.498 0 0 1-.502-.488c.002-2.226 1.182-3.705 3.366-3.705zm13.164 8.722v-5.737c0-.122.055-.19.177-.19h.624c.122 0 .189.068.189.19v5.737c0 .814-.299 1.52-.868 2.09a2.797 2.797 0 0 1-2.062.854c-.814 0-1.52-.285-2.09-.854-.569-.57-.854-1.275-.854-2.09v-3.188c0-.122.055-.189.177-.189h.638c.122 0 .176.067.176.189v3.188c0 1.072.882 1.954 1.954 1.954 1.057 0 1.939-.882 1.939-1.954zm-2.645-6.538v-.732c0-.122.055-.176.177-.176h.678c.122 0 .177.054.177.176v.732c0 .122-.055.177-.177.177h-.678c-.123 0-.177-.055-.177-.177zm6.407 9.048v.787h1.384c.081 0 .122.041.122.122v.299c0 .081-.041.122-.122.122h-2.307c-.081 0-.122-.041-.122-.122v-.299c0-.081.041-.122.122-.122h.38v-.787c0-.556.462-1.018 1.018-1.018.448 0 .76.204.937.611l.054.148c0 .014.014.027.014.041 0 .067-.055.108-.081.122l-.271.108c-.014 0-.027.014-.041.014a.125.125 0 0 1-.122-.081l-.054-.136c-.096-.19-.231-.285-.435-.285a.482.482 0 0 0-.476.476zm-.258-2.143v-9.415c0-.122.067-.189.177-.189h.637c.109 0 .177.067.177.189v9.415c0 .122-.067.189-.177.189h-.637c-.11.001-.177-.067-.177-.189zM209.81 55.095v.868c0 .082-.04.122-.122.122h-.746c-.081 0-.122-.04-.122-.122v-.868c0-.081.041-.135.122-.135h.746c.082 0 .122.054.122.135zm0 5.264v.868c0 .081-.04.122-.122.122h-.746c-.081 0-.122-.041-.122-.122v-.868c0-.081.041-.136.122-.136h.746c.082 0 .122.055.122.136zm4.654 1.587h4.246v-5.087c0-.624.203-1.153.65-1.587.435-.447.977-.665 1.601-.665s1.14.218 1.588.665c.447.434.664.963.664 1.587v3.5h1.709v.99h-2.197a.51.51 0 0 1-.502-.502v-3.988c0-.691-.569-1.262-1.262-1.262-.691 0-1.261.57-1.261 1.262v5.589a.498.498 0 0 1-.502.488h-4.762c-.787 0-1.465-.285-2.049-.854a2.827 2.827 0 0 1-.854-2.075c0-1.248.76-2.238 1.628-2.687l.285-.148c.027-.014.055-.014.081-.014.082 0 .136.04.163.095l.285.569c.014.041.026.068.026.096 0 .067-.026.108-.095.148l-.284.149c-.584.299-1.1.963-1.1 1.791a1.96 1.96 0 0 0 1.942 1.94zm1.315 2.468v.801c0 .122-.054.176-.176.176h-.679c-.122 0-.177-.054-.177-.176v-.801c0-.122.055-.189.177-.189h.679c.123 0 .176.067.176.189zm1.805 0v.801c0 .122-.055.176-.177.176h-.665c-.122 0-.189-.054-.189-.176v-.801c0-.122.067-.189.189-.189h.665c.122 0 .177.067.177.189z"/><path d="M227.517 59.626v-4.571c0-.122.067-.19.176-.19h.638c.108 0 .177.068.177.19v4.571c0 1.058-.679 1.723-1.723 1.723h-2.334v-.99h2.361c.487-.014.705-.244.705-.733zm-.923-6.538v-.801c0-.122.068-.189.19-.189h.65c.122 0 .19.067.19.189v.801c0 .122-.068.176-.19.176h-.65c-.122 0-.19-.054-.19-.176zm2.835-.801v.801c0 .122-.054.176-.176.176h-.665c-.122 0-.189-.054-.189-.176v-.801c0-.122.067-.189.189-.189h.665c.122 0 .176.067.176.189zm1.9-2.97v.787h1.384c.081 0 .136.054.136.136v.284c0 .082-.055.122-.136.122h-2.306c-.082 0-.122-.04-.122-.122v-.284c0-.082.04-.136.122-.136h.379v-.787c0-.557.462-1.018 1.018-1.018.448 0 .76.204.937.61l.054.149c.014.014.014.027.014.041 0 .054-.04.095-.081.122l-.271.108c-.014.014-.041.014-.055.014-.054 0-.081-.055-.095-.082l-.067-.135a.43.43 0 0 0-.435-.285.482.482 0 0 0-.476.476zm1.465 11.042h.638v.99h-.638c-1.071 0-1.736-.691-1.736-1.736v-7.868c0-.122.068-.189.19-.189h.624c.122 0 .189.067.189.189v7.868c.001.515.218.746.733.746z"/><path d="M235.196 61.349h-2.103v-.99h2.116c.502-.014.719-.23.719-.732v-4.571c0-.122.055-.19.177-.19h.637c.122 0 .177.068.177.19v4.571c0 1.043-.679 1.722-1.723 1.722zm-.338 1.479v.787c0 .122-.068.189-.19.189h-.664c-.123 0-.177-.067-.177-.189v-.787c0-.122.054-.189.177-.189h.664c.121-.001.19.066.19.189zm1.803 0v.787c0 .122-.054.189-.177.189h-.678c-.122 0-.177-.067-.177-.189v-.787c0-.122.055-.189.177-.189h.678c.124-.001.177.066.177.189zm7.503-2.469h.665v.99h-.638c-1.059 0-1.723-.665-1.723-1.723v-7.882c0-.122.054-.189.176-.189h.638c.122 0 .177.067.177.189v7.882c0 .502.217.733.705.733zm6.459-7.529v.285c0 .081-.041.122-.122.122h-2.049c-.081 0-.122-.041-.122-.122v-.285c0-.081.041-.122.122-.122h2.049c.081 0 .122.041.122.122z"/><path d="M251.613 55.449c.556.556.841 1.234.841 2.021v1.018c0 .787-.285 1.465-.841 2.021a2.799 2.799 0 0 1-2.035.841h-5.087v-.99h2.225v-2.89c0-.786.285-1.465.842-2.021a2.763 2.763 0 0 1 2.021-.842c.785 0 1.477.285 2.034.842zm-.164 3.038v-1.018a1.893 1.893 0 0 0-1.872-1.872c-1.017 0-1.858.854-1.858 1.872v2.89h1.858a1.893 1.893 0 0 0 1.872-1.872zm8.401-8.817c0-.489.394-.896.882-.896s.882.406.882.896c0 .488-.394.881-.882.881s-.882-.392-.882-.881zm.528 0c0 .203.149.353.354.353a.343.343 0 0 0 .353-.353.363.363 0 0 0-.353-.367.363.363 0 0 0-.354.367zm.095 13.076c.529 0 .99-.19 1.37-.57s.57-.854.57-1.384v-9.048c0-.122.054-.189.176-.189h.624c.122 0 .19.067.19.189v8.614h2.021v.99h-2.075a2.92 2.92 0 0 1-1.004 1.695 2.804 2.804 0 0 1-1.872.692c-.813 0-1.52-.299-2.089-.868a2.83 2.83 0 0 1-.854-2.076V57.59c0-.122.054-.176.176-.176h.638c.122 0 .177.054.177.176v3.201a1.961 1.961 0 0 0 1.952 1.955zm9.389.068v.285c0 .081-.04.122-.122.122h-2.048c-.082 0-.122-.041-.122-.122v-.285c0-.082.04-.136.122-.136h2.048c.082 0 .122.054.122.136z"/><path d="M273.511 60.359h1.018v.99h-.827c-.706 0-1.289-.285-1.628-.787a2.77 2.77 0 0 1-1.967.787h-5.223v-.99h2.36v-2.89c0-.786.285-1.479.841-2.034a2.764 2.764 0 0 1 2.021-.842c.786 0 1.465.285 2.021.842.557.556.842 1.248.842 2.034v1.018c0 .475-.108.909-.326 1.329.095.366.421.543.868.543zm-5.276-2.89v2.89h1.872c1.03 0 1.872-.841 1.872-1.872v-1.018c0-1.03-.842-1.872-1.872-1.872a1.884 1.884 0 0 0-1.872 1.872zm9.783-7.704c0-.489.394-.896.882-.896s.882.406.882.896c0 .488-.394.881-.882.881s-.882-.393-.882-.881zm.528 0c0 .203.149.353.354.353a.343.343 0 0 0 .353-.353.363.363 0 0 0-.353-.367.363.363 0 0 0-.354.367z"/><path d="M279.387 52.071h1.126c.122 0 .176.054.176.176v.638c0 .122-.054.177-.176.177h-1.126c-1.411 0-2.197.746-2.347 2.211h2.536c.868 0 1.588.285 2.157.868s.841 1.315.841 2.197v1.289c0 1.058-.664 1.723-1.723 1.723h-6.66v-.99h6.646c.502 0 .746-.23.746-.732v-1.289c0-1.221-.8-2.075-2.008-2.075h-3.052a.498.498 0 0 1-.502-.488c.002-2.227 1.182-3.705 3.366-3.705zm7.45-5.7v.285c0 .081-.041.122-.122.122h-2.049c-.081 0-.122-.041-.122-.122v-.285c0-.081.041-.122.122-.122h2.049c.081 0 .122.041.122.122zm-1.493 2.878v.786h1.384c.082 0 .122.041.122.122v.299c0 .081-.04.122-.122.122h-2.306c-.081 0-.122-.041-.122-.122v-.299c0-.081.041-.122.122-.122h.38v-.786c0-.557.461-1.018 1.018-1.018.447 0 .76.203.936.624l.055.122c.014.014.014.04.014.054a.137.137 0 0 1-.082.122l-.271.108c-.014.014-.026.014-.04.014-.055 0-.108-.04-.122-.081l-.055-.136c-.095-.189-.23-.285-.434-.285a.484.484 0 0 0-.477.476zm.733 2.496v9.415c0 .122-.055.189-.177.189h-.638c-.122 0-.189-.067-.189-.189v-9.415c0-.122.067-.189.189-.189h.638c.123-.001.177.066.177.189zM40.874 92.556h-.732c-.095 0-.136-.041-.136-.122v-.868c0-.081.041-.136.136-.136h.732c.082 0 .136.055.136.136v.868c-.001.081-.055.122-.136.122zm4.002-.99h.665v.99h-.638c-1.058 0-1.723-.665-1.723-1.723v-7.882c0-.122.054-.189.176-.189h.638c.122 0 .176.067.176.189v7.882c.001.502.218.733.706.733zm4.464-10.12v.285c0 .081-.041.122-.122.122H47.17c-.082 0-.122-.041-.122-.122v-.285c0-.081.041-.122.122-.122h2.048c.082 0 .122.041.122.122z"/><path d="M47.97 90.82v-4.558c0-.122.067-.19.189-.19h.624c.122 0 .19.068.19.19v4.747c0 .149.027.258.109.34.135.136.407.217.8.217h.637v.99h-.461c-.665 0-1.167-.177-1.492-.502-.014-.014-.027-.014-.027-.027 0 .014-.027.055-.041.068-.312.312-.732.461-1.262.461h-2.035v-.99h2.062c.49 0 .707-.244.707-.746zm-.014-6.525v-.801c0-.122.054-.189.176-.189h.665c.122 0 .19.067.19.189v.801c0 .122-.068.176-.19.176h-.665c-.122 0-.176-.054-.176-.176zm6.16-3.446v.285c0 .081-.041.122-.122.122h-2.048c-.082 0-.122-.041-.122-.122v-.285c0-.081.041-.122.122-.122h2.048c.081 0 .122.041.122.122z"/><path d="M52.488 90.833v-7.882c0-.122.054-.189.176-.189h.638c.122 0 .176.067.176.189v7.882c0 1.058-.678 1.723-1.723 1.723h-1.574v-.99h1.588c.502-.014.719-.244.719-.733zm6.947 1.723h-.732c-.095 0-.136-.041-.136-.122v-.868c0-.081.041-.136.136-.136h.732c.082 0 .136.055.136.136v.868c0 .081-.055.122-.136.122zm2.714 0h-.732c-.095 0-.136-.041-.136-.122v-.868c0-.081.041-.136.136-.136h.732c.082 0 .136.055.136.136v.868c-.001.081-.055.122-.136.122zm2.713 0h-.732c-.095 0-.136-.041-.136-.122v-.868c0-.081.041-.136.136-.136h.732c.082 0 .136.055.136.136v.868c0 .081-.054.122-.136.122zm2.714 0h-.732c-.095 0-.136-.041-.136-.122v-.868c0-.081.041-.136.136-.136h.732c.082 0 .136.055.136.136v.868c0 .081-.055.122-.136.122zm2.713 0h-.732c-.095 0-.136-.041-.136-.122v-.868c0-.081.041-.136.136-.136h.732c.082 0 .136.055.136.136v.868c0 .081-.054.122-.136.122zm2.714 0h-.732c-.095 0-.136-.041-.136-.122v-.868c0-.081.041-.136.136-.136h.732c.082 0 .136.055.136.136v.868c0 .081-.054.122-.136.122zm2.713 0h-.732c-.095 0-.136-.041-.136-.122v-.868c0-.081.041-.136.136-.136h.732c.082 0 .136.055.136.136v.868c0 .081-.054.122-.136.122zm2.714 0h-.732c-.095 0-.136-.041-.136-.122v-.868c0-.081.041-.136.136-.136h.732c.082 0 .136.055.136.136v.868c0 .081-.054.122-.136.122zm2.714 0h-.732c-.095 0-.136-.041-.136-.122v-.868c0-.081.041-.136.136-.136h.732c.082 0 .136.055.136.136v.868c0 .081-.054.122-.136.122zm2.714 0h-.732c-.095 0-.136-.041-.136-.122v-.868c0-.081.041-.136.136-.136h.732c.082 0 .136.055.136.136v.868c-.001.081-.055.122-.136.122zm2.713 0h-.732c-.095 0-.136-.041-.136-.122v-.868c0-.081.041-.136.136-.136h.732c.082 0 .136.055.136.136v.868c0 .081-.054.122-.136.122zm2.714 0h-.732c-.095 0-.136-.041-.136-.122v-.868c0-.081.041-.136.136-.136h.732c.082 0 .136.055.136.136v.868c0 .081-.055.122-.136.122zm2.714 0h-.732c-.095 0-.136-.041-.136-.122v-.868c0-.081.041-.136.136-.136h.732c.082 0 .136.055.136.136v.868c-.001.081-.055.122-.136.122zm2.713 0h-.732c-.095 0-.136-.041-.136-.122v-.868c0-.081.041-.136.136-.136h.732c.082 0 .136.055.136.136v.868c0 .081-.054.122-.136.122zm2.714 0h-.732c-.095 0-.136-.041-.136-.122v-.868c0-.081.041-.136.136-.136h.732c.082 0 .136.055.136.136v.868c0 .081-.054.122-.136.122zm7.367-.99h.665v.99h-.638c-1.058 0-1.723-.665-1.723-1.723v-7.882c0-.122.054-.189.176-.189h.638c.122 0 .176.067.176.189v7.882c.001.502.218.733.706.733zm4.464-10.12v.285c0 .081-.041.122-.122.122h-2.048c-.082 0-.122-.041-.122-.122v-.285c0-.081.041-.122.122-.122h2.048c.081 0 .122.041.122.122z"/><path d="M107.887 90.82v-4.558c0-.122.067-.19.189-.19h.624c.122 0 .19.068.19.19v4.747c0 .149.027.258.109.34.135.136.407.217.8.217h.637v.99h-.461c-.665 0-1.167-.177-1.492-.502-.014-.014-.027-.014-.027-.027 0 .014-.027.055-.041.068-.312.312-.732.461-1.262.461h-2.035v-.99h2.062c.49 0 .707-.244.707-.746zm-.014-6.525v-.801c0-.122.054-.189.176-.189h.665c.122 0 .19.067.19.189v.801c0 .122-.068.176-.19.176h-.665c-.122 0-.176-.054-.176-.176z"/><path d="M117.194 92.556h-7.095v-.99h2.13v-5.128c0-.122.068-.176.19-.176h.637c.109 0 .177.054.177.176V87.7c1.356-1.262 2.509-1.886 3.486-1.886 1.764 0 2.781 1.33 2.781 3.134v1.303c0 1.437-.868 2.305-2.306 2.305zm1.302-2.306v-1.303a2.84 2.84 0 0 0-.271-1.262c-.298-.583-.8-.882-1.506-.882-.461 0-1.031.231-1.723.665a7.034 7.034 0 0 0-1.763 1.573v2.523h3.961c.895.002 1.302-.405 1.302-1.314zm-2.808-5.955v-.801c0-.122.054-.189.176-.189h.665c.123 0 .19.067.19.189v.801c0 .122-.067.176-.19.176h-.665c-.122 0-.176-.054-.176-.176zm6.364-.636c0-.489.394-.896.882-.896s.882.406.882.896c0 .488-.394.881-.882.881s-.882-.393-.882-.881zm.529 0c0 .203.149.353.353.353s.353-.149.353-.353-.163-.367-.353-.367-.353.162-.353.367zm-.244 9.413v-6.81c0-.122.068-.177.176-.177h.638c.122 0 .176.055.176.177v6.81c0 1.451-.868 2.306-2.306 2.306h-.678c-.123 0-.177-.054-.177-.176v-.638c0-.122.054-.177.177-.177h.678c.909 0 1.316-.406 1.316-1.315zm5.251-15.493v.285c0 .081-.041.122-.122.122h-2.048c-.082 0-.122-.041-.122-.122v-.285c0-.081.041-.122.122-.122h2.048c.082-.001.122.04.122.122zm-1.493 2.877v.786h1.384c.082 0 .122.041.122.122v.299c0 .081-.041.122-.122.122h-2.306c-.081 0-.122-.041-.122-.122v-.299c0-.081.041-.122.122-.122h.38v-.786c0-.557.461-1.018 1.018-1.018.448 0 .76.203.936.624l.054.122c.014.014.014.04.014.054a.137.137 0 0 1-.082.122l-.271.108c-.013.014-.027.014-.041.014-.054 0-.108-.04-.122-.081l-.054-.136c-.095-.189-.231-.285-.434-.285a.484.484 0 0 0-.476.476zm.733 2.496v9.415c0 .122-.055.189-.177.189h-.637c-.122 0-.19-.067-.19-.189v-9.415c0-.122.068-.189.19-.189h.637c.123-.001.177.066.177.189zm12.442-1.207v.285c0 .081-.041.122-.122.122H137.1c-.082 0-.122-.041-.122-.122v-.285c0-.081.041-.122.122-.122h2.048c.082-.001.122.04.122.122zm.691 10.878v-.067h-1.858a2.797 2.797 0 0 1-2.035-.841 2.767 2.767 0 0 1-.841-2.021v-1.031c0-.786.285-1.465.841-2.021.556-.557 1.248-.842 2.035-.842s1.465.285 2.021.842c.556.556.841 1.234.841 2.021v3.961c0 .733-.271 1.357-.8 1.886s-1.153.801-1.872.801h-2.794a2.87 2.87 0 0 1-2.089-.868 2.829 2.829 0 0 1-.854-2.075V90.25c0-.122.054-.19.176-.19h.638c.122 0 .176.068.176.19v2.116c0 1.071.882 1.939 1.954 1.939h2.794c.907.001 1.667-.772 1.667-1.682zm-1.859-1.057h1.858v-2.903a1.87 1.87 0 0 0-1.858-1.858c-1.018 0-1.872.842-1.872 1.858v1.031c0 1.017.855 1.872 1.872 1.872zm-1.465-7.271v-.746c0-.122.055-.177.177-.177h.665c.122 0 .176.055.176.177v.746c0 .122-.054.176-.176.176h-.665c-.122 0-.177-.054-.177-.176zm1.804 0v-.746c0-.122.054-.177.176-.177h.665c.122 0 .19.055.19.177v.746c0 .122-.068.176-.19.176h-.665c-.122 0-.176-.054-.176-.176zm6.379-.731c0-.489.394-.896.882-.896s.882.406.882.896c0 .488-.394.881-.882.881s-.882-.393-.882-.881zm.529 0c0 .203.149.353.353.353s.353-.149.353-.353-.163-.367-.353-.367-.353.163-.353.367zm2.333 9.155v-.163h-1.858a2.797 2.797 0 0 1-2.035-.841 2.767 2.767 0 0 1-.841-2.021v-1.018c0-.786.285-1.465.841-2.021.556-.557 1.248-.842 2.035-.842s1.465.285 2.021.842c.556.556.841 1.234.841 2.021v2.89h2.048v.99h-2.048v.163c0 .719-.271 1.343-.801 1.872-.529.528-1.153.786-1.872.786h-1.411c-.108 0-.176-.054-.176-.176v-.638c0-.122.068-.177.176-.177h1.411c.895.001 1.669-.772 1.669-1.667zm-1.859-1.153h1.858v-2.89c0-1.018-.841-1.872-1.858-1.872a1.893 1.893 0 0 0-1.872 1.872v1.018c0 1.017.855 1.872 1.872 1.872zm10.367-10.12v.285c0 .081-.041.122-.122.122h-2.048c-.082 0-.122-.041-.122-.122v-.285c0-.081.041-.122.122-.122h2.048c.081 0 .122.041.122.122z"/><path d="M157.736 92.556h-7.475v-.99h2.944a2.81 2.81 0 0 1-.692-1.872v-1.018c0-.786.285-1.479.841-2.034.556-.557 1.234-.842 2.021-.842s1.465.285 2.021.842c.556.556.841 1.248.841 2.034v3.378a.508.508 0 0 1-.501.502zm-2.361-.99h1.872v-2.89c0-1.03-.841-1.872-1.872-1.872a1.884 1.884 0 0 0-1.872 1.872v1.018c0 1.017.855 1.872 1.872 1.872zm-.678-7.271v-.801c0-.122.054-.189.176-.189h.665c.122 0 .19.067.19.189v.801c0 .122-.068.176-.19.176h-.665c-.122 0-.176-.054-.176-.176zm9.986 8.424v-.163h-1.858a2.766 2.766 0 0 1-2.021-.841 2.767 2.767 0 0 1-.841-2.021v-1.018c0-.786.285-1.465.841-2.021a2.763 2.763 0 0 1 2.021-.842c.786 0 1.465.285 2.021.842.556.556.841 1.234.841 2.021v4.043c0 .719-.258 1.343-.787 1.872a2.588 2.588 0 0 1-1.886.786h-1.411c-.122 0-.176-.054-.176-.176v-.638c0-.122.054-.177.176-.177h1.411c.895.001 1.669-.772 1.669-1.667zm-1.859-1.153h1.858v-2.89c0-1.018-.841-1.872-1.858-1.872s-1.873.842-1.873 1.872v1.018a1.896 1.896 0 0 0 1.873 1.872zm10.095 0h.665v.99h-.638c-1.059 0-1.723-.665-1.723-1.723v-7.882c0-.122.054-.189.176-.189h.638c.122 0 .177.067.177.189v7.882c0 .502.217.733.705.733zm4.464-10.12v.285c0 .081-.04.122-.122.122h-2.048c-.082 0-.122-.041-.122-.122v-.285c0-.081.04-.122.122-.122h2.048c.082 0 .122.041.122.122z"/><path d="M176.013 90.82v-4.558c0-.122.067-.19.189-.19h.624c.122 0 .19.068.19.19v4.747c0 .149.027.258.108.34.136.136.407.217.801.217h.637v.99h-.461c-.664 0-1.166-.177-1.492-.502-.014-.014-.027-.014-.027-.027 0 .014-.026.055-.04.068-.313.312-.732.461-1.262.461h-2.035v-.99h2.063c.488 0 .705-.244.705-.746zm-.014-6.525v-.801c0-.122.055-.189.177-.189h.664c.122 0 .19.067.19.189v.801c0 .122-.068.176-.19.176h-.664c-.122 0-.177-.054-.177-.176zm5.021 9.822v.285c0 .081-.041.122-.122.122h-2.049c-.081 0-.122-.041-.122-.122v-.285c0-.082.041-.136.122-.136h2.049c.081 0 .122.054.122.136z"/><path d="M180.992 90.833v-4.571c0-.122.067-.19.189-.19h.624c.122 0 .19.068.19.19v4.571c0 1.058-.691 1.723-1.736 1.723h-2.035v-.99h2.063c.489-.014.705-.231.705-.733zm.136-7.122v.787h1.384c.081 0 .122.041.122.136v.285c0 .081-.041.122-.122.122h-2.307c-.081 0-.122-.041-.122-.122v-.285c0-.095.041-.136.122-.136h.38v-.787c0-.556.462-1.017 1.018-1.017.447 0 .76.203.937.623l.054.136a.101.101 0 0 1 .014.055c0 .041-.027.081-.081.108l-.258.122c-.027.014-.055.014-.068.014-.054 0-.081-.041-.108-.095l-.054-.136a.442.442 0 0 0-.435-.285.482.482 0 0 0-.476.475zm4.925 7.855h.665v.99h-.638c-1.059 0-1.723-.665-1.723-1.723v-7.882c0-.122.054-.189.176-.189h.638c.122 0 .177.067.177.189v7.882c0 .502.217.733.705.733zm6.554-7.732v.285c0 .081-.04.122-.122.122h-2.048c-.082 0-.122-.041-.122-.122v-.285c0-.081.04-.122.122-.122h2.048c.082 0 .122.041.122.122z"/><path d="M195.007 91.566h1.018v.99h-.828c-.705 0-1.288-.285-1.628-.787a2.769 2.769 0 0 1-1.967.787h-5.223v-.99h2.36v-2.89c0-.786.285-1.479.842-2.034.556-.557 1.234-.842 2.021-.842s1.465.285 2.021.842c.556.556.841 1.248.841 2.034v1.018c0 .475-.108.909-.325 1.329.095.366.42.543.868.543zm-5.277-2.89v2.89h1.872a1.876 1.876 0 0 0 1.872-1.872v-1.018c0-1.03-.841-1.872-1.872-1.872s-1.872.855-1.872 1.872zm13.568-5.046v.285c0 .081-.04.122-.122.122h-2.048c-.082 0-.122-.041-.122-.122v-.285c0-.081.04-.122.122-.122h2.048c.082 0 .122.041.122.122z"/><path d="M205.142 90.833v-4.585c0-.122.055-.177.177-.177h.638c.122 0 .176.055.176.177v4.585c0 1.058-.678 1.723-1.736 1.723h-.678c-.665 0-1.167-.189-1.506-.529 0 .014-.027.041-.055.068-.312.312-.732.461-1.248.461h-.678c-.665 0-1.167-.177-1.506-.516l-.014-.014c-.014.014-.027.041-.041.068-.312.312-.732.461-1.262.461h-1.723v-.99h1.75c.475-.014.706-.244.706-.732v-4.585c0-.122.067-.177.189-.177h.624c.122 0 .177.055.177.177v4.761c0 .149.04.258.122.34.135.136.393.217.8.217h.868c.488 0 .719-.244.719-.732v-4.219c0-.122.068-.177.177-.177h.638c.122 0 .176.055.176.177v4.395c0 .149.041.258.122.34.136.136.394.217.787.217h.854c.516-.001.747-.232.747-.734zm12.498-8.193v.285c0 .081-.04.122-.122.122h-2.048c-.082 0-.122-.041-.122-.122v-.285c0-.081.04-.122.122-.122h2.048c.082 0 .122.041.122.122zm1.993 8.18v-4.558c0-.122.068-.19.177-.19h.638c.122 0 .176.068.176.19v4.747c0 .149.027.258.108.34.136.136.407.217.814.217h.624v.99h-.462c-.678 0-1.166-.177-1.506-.516v-.014c-.284.353-.746.529-1.302.529h-4.748a2.827 2.827 0 0 1-2.075-.854c-.569-.583-.854-1.262-.854-2.075a3.04 3.04 0 0 1 1.642-2.687l.271-.149c.027-.013.055-.013.082-.013.067 0 .136.04.162.095l.285.569c.014.041.027.068.027.095 0 .055-.027.109-.095.149l-.285.136a2.066 2.066 0 0 0-1.099 1.805c0 .542.189.99.569 1.37s.842.569 1.37.569h4.734c.503.001.747-.243.747-.745zm-4.477-5.359v-.8c0-.122.068-.177.177-.177h.664c.122 0 .19.055.19.177v.8c0 .122-.068.177-.19.177h-.664c-.108 0-.177-.055-.177-.177zm1.805 0v-.8c0-.122.054-.177.176-.177h.679c.122 0 .176.055.176.177v.8c0 .122-.054.177-.176.177h-.679c-.122 0-.176-.055-.176-.177zm8.888-2.007c0-.489.394-.896.882-.896s.882.406.882.896c0 .488-.394.881-.882.881s-.882-.392-.882-.881zm.529 0c0 .203.149.353.353.353s.353-.149.353-.353a.362.362 0 0 0-.353-.367.363.363 0 0 0-.353.367z"/><path d="M228.873 90.25v-1.303c0-.597-.203-1.085-.624-1.506-.421-.42-.909-.638-1.506-.638-.977 0-1.709.34-2.184 1.018l-.177.258a.184.184 0 0 1-.149.081c-.04 0-.067-.013-.108-.04l-.515-.366c-.041-.027-.055-.068-.068-.122v-.027a.26.26 0 0 1 .027-.108l.176-.258c.692-.949 1.696-1.425 2.998-1.425.868 0 1.601.313 2.211.923s.923 1.343.923 2.211v2.062c0 .149.027.258.108.34.136.136.407.217.801.217h.638v.99h-.462c-.773 0-1.315-.217-1.642-.679-.406.462-.99.679-1.749.679h-5.738v-.99h5.738c.909-.001 1.302-.408 1.302-1.317zm6.948-8.804v.285c0 .081-.04.122-.122.122h-2.048c-.082 0-.122-.041-.122-.122v-.285c0-.081.04-.122.122-.122h2.048c.082 0 .122.041.122.122z"/><path d="M234.153 90.833v-4.571c0-.122.068-.19.177-.19h.638c.108 0 .176.068.176.19v4.571c0 1.058-.678 1.723-1.723 1.723h-2.333v-.99h2.361c.487-.014.704-.244.704-.733zm-.922-6.538v-.801c0-.122.067-.189.189-.189h.651c.122 0 .189.067.189.189v.801c0 .122-.067.176-.189.176h-.651c-.122 0-.189-.054-.189-.176zm2.835-.8v.801c0 .122-.055.176-.177.176h-.665c-.122 0-.189-.054-.189-.176v-.801c0-.122.067-.189.189-.189h.665c.122-.001.177.066.177.189zm6.58 8.071h.665v.99h-.638c-1.058 0-1.723-.665-1.723-1.723v-7.882c0-.122.055-.189.177-.189h.638c.122 0 .176.067.176.189v7.882c0 .502.216.733.705.733zm6.459-7.529v.285c0 .081-.041.122-.122.122h-2.049c-.081 0-.122-.041-.122-.122v-.285c0-.081.041-.122.122-.122h2.049c.081 0 .122.041.122.122z"/><path d="M250.094 86.656c.556.556.841 1.234.841 2.021v1.018c0 .787-.285 1.465-.841 2.021a2.799 2.799 0 0 1-2.035.841h-5.087v-.99h2.225v-2.89c0-.786.285-1.465.842-2.021a2.763 2.763 0 0 1 2.021-.842c.786 0 1.477.285 2.034.842zm-.163 3.038v-1.018a1.893 1.893 0 0 0-1.872-1.872c-1.017 0-1.858.854-1.858 1.872v2.89h1.858a1.894 1.894 0 0 0 1.872-1.872zm10.204-10.772v-.8c0-.082.041-.122.122-.122h.285c.081 0 .108.04.108.122v.8a.856.856 0 0 1-1.438.624.883.883 0 0 1-.584.23.868.868 0 0 1-.854-.854v-.8c0-.082.041-.122.136-.122h.271c.095 0 .136.04.136.122v.8c0 .177.136.313.312.313.163 0 .326-.136.326-.313v-.8c0-.082.04-.122.122-.122h.271c.095 0 .135.04.135.122v.8c0 .177.149.313.326.313s.326-.15.326-.313zm.204 2.429v.285c0 .081-.041.122-.122.122h-2.049c-.081 0-.122-.041-.122-.122v-.285c0-.081.041-.122.122-.122h2.049c.081 0 .122.041.122.122zm-1.385 12.603c.529 0 .99-.19 1.37-.57s.57-.854.57-1.384v-9.048c0-.122.054-.189.176-.189h.624c.122 0 .19.067.19.189v8.614h2.021v.99h-2.075a2.92 2.92 0 0 1-1.004 1.695 2.804 2.804 0 0 1-1.872.692c-.813 0-1.52-.299-2.089-.868a2.83 2.83 0 0 1-.854-2.076v-3.201c0-.122.054-.176.176-.176h.638c.122 0 .177.054.177.176v3.201a1.962 1.962 0 0 0 1.952 1.955zm10.652-12.996c0 .475-.366.827-.8.882v.013h-1.736c-.082 0-.122-.04-.122-.122v-.284c0-.082.04-.122.122-.122h.841a.836.836 0 0 1-.081-.366c0-.476.406-.882.882-.882.487 0 .894.393.894.881zm-.895.367a.384.384 0 0 0 .366-.366.363.363 0 0 0-.366-.354.36.36 0 0 0-.354.354c.001.189.164.366.354.366z"/><path d="M268.561 83.278h1.126c.122 0 .176.054.176.176v.638c0 .122-.054.177-.176.177h-1.126c-1.411 0-2.197.746-2.347 2.211h2.536c.868 0 1.588.285 2.157.868s.841 1.315.841 2.197v1.289c0 1.058-.664 1.723-1.723 1.723h-6.66v-.99h6.646c.502 0 .746-.23.746-.732v-1.289c0-1.221-.8-2.075-2.008-2.075h-3.052a.498.498 0 0 1-.502-.488c.001-2.227 1.182-3.705 3.366-3.705zm11.913-2.958v-.8c0-.082.041-.122.122-.122h.285c.081 0 .108.04.108.122v.8a.856.856 0 0 1-1.438.624.883.883 0 0 1-.584.23.868.868 0 0 1-.854-.854v-.8c0-.082.041-.122.136-.122h.271c.095 0 .136.04.136.122v.8c0 .177.136.313.312.313.163 0 .326-.136.326-.313v-.8c0-.082.04-.122.122-.122h.271c.095 0 .135.04.135.122v.8c0 .177.149.313.326.313.176-.001.326-.15.326-.313zm.204 2.428v.285c0 .081-.041.122-.122.122h-2.049c-.081 0-.122-.041-.122-.122v-.285c0-.081.041-.122.122-.122h2.049c.081 0 .122.041.122.122zm1.044 9.251v-5.737c0-.122.055-.19.177-.19h.624c.122 0 .189.068.189.19v5.737c0 .814-.299 1.52-.868 2.09a2.797 2.797 0 0 1-2.062.854c-.814 0-1.52-.285-2.09-.854-.569-.57-.854-1.275-.854-2.09v-3.188c0-.122.055-.189.177-.189h.638c.122 0 .176.067.176.189v3.188c0 1.072.882 1.954 1.954 1.954 1.057.001 1.939-.881 1.939-1.954zm-2.646-6.538v-.732c0-.122.055-.176.177-.176h.678c.122 0 .177.054.177.176v.732c0 .122-.055.177-.177.177h-.678c-.122 0-.177-.055-.177-.177zm6.405 9.048v.787h1.384c.082 0 .122.041.122.122v.299c0 .081-.04.122-.122.122h-2.306c-.081 0-.122-.041-.122-.122v-.299c0-.081.041-.122.122-.122h.38v-.787c0-.556.461-1.018 1.018-1.018.447 0 .76.204.936.611l.055.148c0 .014.014.027.014.041 0 .067-.055.108-.082.122l-.271.108c-.014 0-.026.014-.04.014a.124.124 0 0 1-.122-.081l-.055-.136c-.095-.19-.23-.285-.434-.285a.483.483 0 0 0-.477.476zm-.257-2.142v-9.415c0-.122.067-.189.176-.189h.638c.108 0 .177.067.177.189v9.415c0 .122-.068.189-.177.189h-.638c-.109 0-.176-.067-.176-.189z"/></svg>