<svg xmlns="http://www.w3.org/2000/svg" width="323.266" height="197.262" viewBox="0 0 323.266 197.262"><path fill="#FBFCFC" stroke="#91A4AD" stroke-miterlimit="10" d="M322.876 89.827c0 8.696-7.05 15.746-15.746 15.746H16.881c-8.696 0-15.746-7.05-15.746-15.746V53.201c0-8.696 7.05-15.746 15.746-15.746h290.25c8.696 0 15.746 7.05 15.746 15.746v36.626h-.001zm0 87.045c0 11.027-7.755 19.967-17.32 19.967H17.93c-9.566 0-17.321-8.94-17.321-19.967s7.755-19.967 17.321-19.967h287.625c9.566 0 17.321 8.94 17.321 19.967z"/><path fill="#ED1C5C" d="M312.283 133.468c0 8.406-6.815 15.221-15.221 15.221h-34.116c-8.407 0-15.221-6.815-15.221-15.221 0-8.406 6.815-15.221 15.221-15.221h34.116c8.406 0 15.221 6.815 15.221 15.221zm0-118.17c0 8.406-6.815 15.221-15.221 15.221h-34.116c-8.407 0-15.221-6.815-15.221-15.221 0-8.406 6.815-15.221 15.221-15.221h34.116c8.406 0 15.221 6.815 15.221 15.221z"/><path d="M32.005 90.372h-.732c-.095 0-.136-.041-.136-.122v-.868c0-.081.041-.136.136-.136h.732c.082 0 .136.055.136.136v.868c0 .081-.054.122-.136.122zm2.714 0h-.732c-.095 0-.136-.041-.136-.122v-.868c0-.081.041-.136.136-.136h.732c.082 0 .136.055.136.136v.868c0 .081-.054.122-.136.122zm2.715 0h-.732c-.095 0-.136-.041-.136-.122v-.868c0-.081.041-.136.136-.136h.732c.082 0 .136.055.136.136v.868c0 .081-.055.122-.136.122zm2.714 0h-.732c-.095 0-.136-.041-.136-.122v-.868c0-.081.041-.136.136-.136h.732c.082 0 .136.055.136.136v.868c0 .081-.054.122-.136.122zm2.714 0h-.732c-.095 0-.136-.041-.136-.122v-.868c0-.081.041-.136.136-.136h.732c.082 0 .136.055.136.136v.868c0 .081-.054.122-.136.122zm2.715 0h-.732c-.095 0-.136-.041-.136-.122v-.868c0-.081.041-.136.136-.136h.732c.082 0 .136.055.136.136v.868c0 .081-.055.122-.136.122zm2.714 0h-.732c-.095 0-.136-.041-.136-.122v-.868c0-.081.041-.136.136-.136h.732c.082 0 .136.055.136.136v.868c0 .081-.054.122-.136.122zm2.715 0h-.732c-.095 0-.136-.041-.136-.122v-.868c0-.081.041-.136.136-.136h.732c.082 0 .136.055.136.136v.868c-.001.081-.055.122-.136.122zm2.714 0h-.732c-.095 0-.136-.041-.136-.122v-.868c0-.081.041-.136.136-.136h.732c.082 0 .136.055.136.136v.868c0 .081-.054.122-.136.122zm2.715 0h-.732c-.095 0-.136-.041-.136-.122v-.868c0-.081.041-.136.136-.136h.732c.082 0 .136.055.136.136v.868c0 .081-.055.122-.136.122zm2.714 0h-.732c-.095 0-.136-.041-.136-.122v-.868c0-.081.041-.136.136-.136h.732c.082 0 .136.055.136.136v.868c0 .081-.054.122-.136.122zm2.714 0h-.732c-.095 0-.136-.041-.136-.122v-.868c0-.081.041-.136.136-.136h.732c.082 0 .136.055.136.136v.868c0 .081-.054.122-.136.122zm2.715 0h-.732c-.095 0-.136-.041-.136-.122v-.868c0-.081.041-.136.136-.136h.732c.082 0 .136.055.136.136v.868c0 .081-.055.122-.136.122zm2.714 0h-.732c-.095 0-.136-.041-.136-.122v-.868c0-.081.041-.136.136-.136h.732c.082 0 .136.055.136.136v.868c0 .081-.054.122-.136.122zm2.715 0h-.732c-.095 0-.136-.041-.136-.122v-.868c0-.081.041-.136.136-.136h.732c.082 0 .136.055.136.136v.868c-.001.081-.055.122-.136.122zm2.714 0h-.732c-.095 0-.136-.041-.136-.122v-.868c0-.081.041-.136.136-.136h.732c.082 0 .136.055.136.136v.868c0 .081-.055.122-.136.122zm2.714 0h-.732c-.095 0-.136-.041-.136-.122v-.868c0-.081.041-.136.136-.136h.732c.082 0 .136.055.136.136v.868c0 .081-.054.122-.136.122zm2.715 0h-.732c-.095 0-.136-.041-.136-.122v-.868c0-.081.041-.136.136-.136h.732c.082 0 .136.055.136.136v.868c-.001.081-.055.122-.136.122zm2.714 0h-.732c-.095 0-.136-.041-.136-.122v-.868c0-.081.041-.136.136-.136h.732c.082 0 .136.055.136.136v.868c0 .081-.054.122-.136.122zm2.715 0h-.732c-.095 0-.136-.041-.136-.122v-.868c0-.081.041-.136.136-.136h.732c.082 0 .136.055.136.136v.868c0 .081-.055.122-.136.122zm2.714 0h-.732c-.095 0-.136-.041-.136-.122v-.868c0-.081.041-.136.136-.136h.732c.082 0 .136.055.136.136v.868c0 .081-.054.122-.136.122zm2.715 0h-.732c-.095 0-.136-.041-.136-.122v-.868c0-.081.041-.136.136-.136h.732c.082 0 .136.055.136.136v.868c-.001.081-.055.122-.136.122zm2.714 0h-.732c-.095 0-.136-.041-.136-.122v-.868c0-.081.041-.136.136-.136h.732c.082 0 .136.055.136.136v.868c0 .081-.055.122-.136.122zm2.714 0h-.732c-.095 0-.136-.041-.136-.122v-.868c0-.081.041-.136.136-.136h.732c.082 0 .136.055.136.136v.868c0 .081-.054.122-.136.122zm2.715 0h-.732c-.095 0-.136-.041-.136-.122v-.868c0-.081.041-.136.136-.136h.732c.082 0 .136.055.136.136v.868c-.001.081-.055.122-.136.122zm2.714 0h-.732c-.095 0-.136-.041-.136-.122v-.868c0-.081.041-.136.136-.136h.732c.082 0 .136.055.136.136v.868c0 .081-.055.122-.136.122zm2.714 0h-.732c-.095 0-.136-.041-.136-.122v-.868c0-.081.041-.136.136-.136h.732c.082 0 .136.055.136.136v.868c0 .081-.054.122-.136.122zm2.715 0h-.732c-.095 0-.136-.041-.136-.122v-.868c0-.081.041-.136.136-.136h.732c.082 0 .136.055.136.136v.868c-.001.081-.055.122-.136.122zm2.714 0h-.732c-.095 0-.136-.041-.136-.122v-.868c0-.081.041-.136.136-.136h.732c.082 0 .136.055.136.136v.868c0 .081-.054.122-.136.122zm2.715 0h-.732c-.095 0-.136-.041-.136-.122v-.868c0-.081.041-.136.136-.136h.732c.082 0 .136.055.136.136v.868c0 .081-.055.122-.136.122zm2.714 0h-.732c-.095 0-.136-.041-.136-.122v-.868c0-.081.041-.136.136-.136h.732c.082 0 .136.055.136.136v.868c0 .081-.054.122-.136.122zm2.715 0h-.732c-.095 0-.136-.041-.136-.122v-.868c0-.081.041-.136.136-.136h.732c.082 0 .136.055.136.136v.868c-.001.081-.055.122-.136.122zm2.714 0h-.732c-.095 0-.136-.041-.136-.122v-.868c0-.081.041-.136.136-.136h.732c.082 0 .136.055.136.136v.868c0 .081-.055.122-.136.122zm2.714 0h-.732c-.095 0-.136-.041-.136-.122v-.868c0-.081.041-.136.136-.136h.732c.082 0 .136.055.136.136v.868c0 .081-.054.122-.136.122zm2.715 0h-.732c-.095 0-.136-.041-.136-.122v-.868c0-.081.041-.136.136-.136h.732c.082 0 .136.055.136.136v.868c-.001.081-.055.122-.136.122zm2.714 0h-.732c-.095 0-.136-.041-.136-.122v-.868c0-.081.041-.136.136-.136h.732c.082 0 .136.055.136.136v.868c0 .081-.054.122-.136.122zm2.714 0h-.732c-.095 0-.136-.041-.136-.122v-.868c0-.081.041-.136.136-.136h.732c.082 0 .136.055.136.136v.868c0 .081-.054.122-.136.122zm2.715 0h-.732c-.095 0-.136-.041-.136-.122v-.868c0-.081.041-.136.136-.136h.732c.082 0 .136.055.136.136v.868c-.001.081-.055.122-.136.122zm2.714 0h-.732c-.095 0-.136-.041-.136-.122v-.868c0-.081.041-.136.136-.136h.732c.082 0 .136.055.136.136v.868c0 .081-.054.122-.136.122zm2.714 0h-.732c-.095 0-.136-.041-.136-.122v-.868c0-.081.041-.136.136-.136h.732c.082 0 .136.055.136.136v.868c0 .081-.054.122-.136.122zm2.715 0h-.732c-.095 0-.136-.041-.136-.122v-.868c0-.081.041-.136.136-.136h.732c.082 0 .136.055.136.136v.868c0 .081-.054.122-.136.122zm2.715 0h-.732c-.095 0-.136-.041-.136-.122v-.868c0-.081.041-.136.136-.136h.732c.082 0 .136.055.136.136v.868c-.001.081-.055.122-.136.122zm2.714 0h-.732c-.095 0-.136-.041-.136-.122v-.868c0-.081.041-.136.136-.136h.732c.082 0 .136.055.136.136v.868c0 .081-.054.122-.136.122zm2.714 0h-.732c-.095 0-.136-.041-.136-.122v-.868c0-.081.041-.136.136-.136h.732c.082 0 .136.055.136.136v.868c0 .081-.054.122-.136.122zm2.715 0h-.732c-.095 0-.136-.041-.136-.122v-.868c0-.081.041-.136.136-.136h.732c.082 0 .136.055.136.136v.868c-.001.081-.055.122-.136.122zm2.714 0h-.732c-.095 0-.136-.041-.136-.122v-.868c0-.081.041-.136.136-.136h.732c.082 0 .136.055.136.136v.868c0 .081-.054.122-.136.122zm2.714 0h-.732c-.095 0-.136-.041-.136-.122v-.868c0-.081.041-.136.136-.136h.732c.082 0 .136.055.136.136v.868c0 .081-.054.122-.136.122zm2.715 0h-.732c-.095 0-.136-.041-.136-.122v-.868c0-.081.041-.136.136-.136h.732c.082 0 .136.055.136.136v.868c-.001.081-.055.122-.136.122zm2.714 0h-.732c-.095 0-.136-.041-.136-.122v-.868c0-.081.041-.136.136-.136h.732c.082 0 .136.055.136.136v.868c0 .081-.054.122-.136.122zm2.715 0h-.732c-.095 0-.136-.041-.136-.122v-.868c0-.081.041-.136.136-.136h.732a.13.13 0 0 1 .136.136v.868c0 .081-.055.122-.136.122zm2.714 0h-.732c-.095 0-.136-.041-.136-.122v-.868c0-.081.041-.136.136-.136h.732c.082 0 .136.055.136.136v.868c0 .081-.054.122-.136.122zm2.715 0h-.732c-.095 0-.136-.041-.136-.122v-.868c0-.081.041-.136.136-.136h.732c.082 0 .136.055.136.136v.868c-.001.081-.054.122-.136.122zm2.714 0h-.732c-.095 0-.136-.041-.136-.122v-.868c0-.081.041-.136.136-.136h.732a.13.13 0 0 1 .136.136v.868c0 .081-.054.122-.136.122zm2.714 0h-.732c-.095 0-.136-.041-.136-.122v-.868c0-.081.041-.136.136-.136h.732c.082 0 .136.055.136.136v.868c0 .081-.054.122-.136.122zm2.715 0h-.732c-.095 0-.136-.041-.136-.122v-.868c0-.081.041-.136.136-.136h.732a.13.13 0 0 1 .136.136v.868c0 .081-.055.122-.136.122zm2.714 0h-.732c-.095 0-.136-.041-.136-.122v-.868c0-.081.041-.136.136-.136h.732c.082 0 .136.055.136.136v.868c0 .081-.054.122-.136.122zm2.715 0h-.732c-.095 0-.136-.041-.136-.122v-.868c0-.081.041-.136.136-.136h.732a.13.13 0 0 1 .136.136v.868c0 .081-.055.122-.136.122zm2.714 0h-.732c-.095 0-.136-.041-.136-.122v-.868c0-.081.041-.136.136-.136h.732c.082 0 .136.055.136.136v.868c0 .081-.054.122-.136.122zm2.715 0h-.732c-.095 0-.136-.041-.136-.122v-.868c0-.081.041-.136.136-.136h.732a.13.13 0 0 1 .136.136v.868c-.001.081-.055.122-.136.122zm2.713 0h-.732c-.095 0-.136-.041-.136-.122v-.868c0-.081.041-.136.136-.136h.732c.082 0 .136.055.136.136v.868c0 .081-.053.122-.136.122zm2.715 0h-.732c-.095 0-.136-.041-.136-.122v-.868c0-.081.041-.136.136-.136h.732a.13.13 0 0 1 .136.136v.868c0 .081-.055.122-.136.122zm2.715 0h-.732c-.095 0-.136-.041-.136-.122v-.868c0-.081.041-.136.136-.136h.732a.13.13 0 0 1 .136.136v.868c0 .081-.055.122-.136.122zm2.714 0h-.732c-.095 0-.136-.041-.136-.122v-.868c0-.081.041-.136.136-.136h.732c.082 0 .136.055.136.136v.868c0 .081-.054.122-.136.122zm2.715 0h-.732c-.095 0-.136-.041-.136-.122v-.868c0-.081.041-.136.136-.136h.732a.13.13 0 0 1 .136.136v.868c0 .081-.055.122-.136.122zm2.714 0h-.732c-.095 0-.136-.041-.136-.122v-.868c0-.081.041-.136.136-.136h.732c.082 0 .136.055.136.136v.868c0 .081-.054.122-.136.122zm2.715 0h-.732c-.095 0-.136-.041-.136-.122v-.868c0-.081.041-.136.136-.136h.732a.13.13 0 0 1 .136.136v.868c-.001.081-.055.122-.136.122zm2.713 0h-.732c-.095 0-.136-.041-.136-.122v-.868c0-.081.041-.136.136-.136h.732c.082 0 .136.055.136.136v.868c0 .081-.053.122-.136.122zm2.715 0h-.732c-.095 0-.136-.041-.136-.122v-.868c0-.081.041-.136.136-.136h.732a.13.13 0 0 1 .136.136v.868c0 .081-.055.122-.136.122zm2.714 0h-.732c-.095 0-.136-.041-.136-.122v-.868c0-.081.041-.136.136-.136h.732c.082 0 .136.055.136.136v.868c0 .081-.054.122-.136.122zm2.715 0h-.732c-.095 0-.136-.041-.136-.122v-.868c0-.081.041-.136.136-.136h.732a.13.13 0 0 1 .136.136v.868c0 .081-.055.122-.136.122zm2.714 0h-.732c-.095 0-.136-.041-.136-.122v-.868c0-.081.041-.136.136-.136h.732c.082 0 .136.055.136.136v.868c0 .081-.054.122-.136.122zm2.715 0h-.732c-.095 0-.136-.041-.136-.122v-.868c0-.081.041-.136.136-.136h.732a.13.13 0 0 1 .136.136v.868c-.001.081-.055.122-.136.122zm2.715 0h-.732c-.095 0-.136-.041-.136-.122v-.868c0-.081.041-.136.136-.136h.732a.13.13 0 0 1 .136.136v.868c-.001.081-.055.122-.136.122zm2.713 0h-.732c-.095 0-.136-.041-.136-.122v-.868c0-.081.041-.136.136-.136h.732c.082 0 .136.055.136.136v.868c0 .081-.054.122-.136.122zm2.715 0h-.732c-.095 0-.136-.041-.136-.122v-.868c0-.081.041-.136.136-.136h.732a.13.13 0 0 1 .136.136v.868c0 .081-.055.122-.136.122zm2.714 0h-.732c-.095 0-.136-.041-.136-.122v-.868c0-.081.041-.136.136-.136h.732c.082 0 .136.055.136.136v.868c0 .081-.054.122-.136.122zm2.715 0h-.732c-.095 0-.136-.041-.136-.122v-.868c0-.081.041-.136.136-.136h.732a.13.13 0 0 1 .136.136v.868c0 .081-.055.122-.136.122zm2.714 0h-.732c-.095 0-.136-.041-.136-.122v-.868c0-.081.041-.136.136-.136h.732c.082 0 .136.055.136.136v.868c0 .081-.054.122-.136.122zm2.715 0h-.732c-.095 0-.136-.041-.136-.122v-.868c0-.081.041-.136.136-.136h.732a.13.13 0 0 1 .136.136v.868c-.001.081-.055.122-.136.122zm2.714 0h-.732c-.095 0-.136-.041-.136-.122v-.868c0-.081.041-.136.136-.136h.732c.082 0 .136.055.136.136v.868c-.001.081-.054.122-.136.122zm2.714 0h-.732c-.095 0-.136-.041-.136-.122v-.868c0-.081.041-.136.136-.136h.732a.13.13 0 0 1 .136.136v.868c0 .081-.055.122-.136.122zm2.714 0h-.732c-.095 0-.136-.041-.136-.122v-.868c0-.081.041-.136.136-.136h.732c.082 0 .136.055.136.136v.868c0 .081-.054.122-.136.122zm2.715 0h-.732c-.095 0-.136-.041-.136-.122v-.868c0-.081.041-.136.136-.136h.732c.082 0 .136.055.136.136v.868c0 .081-.054.122-.136.122zm2.715 0h-.732c-.095 0-.136-.041-.136-.122v-.868c0-.081.041-.136.136-.136h.732a.13.13 0 0 1 .136.136v.868c0 .081-.055.122-.136.122zm2.714 0h-.732c-.095 0-.136-.041-.136-.122v-.868c0-.081.041-.136.136-.136h.732c.082 0 .136.055.136.136v.868c0 .081-.054.122-.136.122zm2.715 0h-.732c-.095 0-.136-.041-.136-.122v-.868c0-.081.041-.136.136-.136h.732a.13.13 0 0 1 .136.136v.868c-.001.081-.055.122-.136.122zm2.714 0h-.732c-.095 0-.136-.041-.136-.122v-.868c0-.081.041-.136.136-.136h.732c.082 0 .136.055.136.136v.868c-.001.081-.054.122-.136.122zm2.714 0h-.732c-.095 0-.136-.041-.136-.122v-.868c0-.081.041-.136.136-.136h.732a.13.13 0 0 1 .136.136v.868c0 .081-.055.122-.136.122zm2.714 0h-.732c-.095 0-.136-.041-.136-.122v-.868c0-.081.041-.136.136-.136h.732c.082 0 .136.055.136.136v.868c0 .081-.054.122-.136.122zm2.715 0h-.732c-.095 0-.136-.041-.136-.122v-.868c0-.081.041-.136.136-.136h.732a.13.13 0 0 1 .136.136v.868c0 .081-.055.122-.136.122zm2.714 0h-.732c-.095 0-.136-.041-.136-.122v-.868c0-.081.041-.136.136-.136h.732c.082 0 .136.055.136.136v.868c0 .081-.054.122-.136.122zm11.834-8.911c0 .475-.366.827-.8.882v.013h-1.736c-.082 0-.122-.04-.122-.122v-.284c0-.082.04-.122.122-.122h.841a.836.836 0 0 1-.081-.366c0-.476.406-.882.882-.882a.89.89 0 0 1 .894.881zm-.895.367a.384.384 0 0 0 .366-.366.363.363 0 0 0-.366-.354.36.36 0 0 0-.354.354c.001.189.164.366.354.366zm2.67 6.808v-4.463c0-.122.067-.177.189-.177h.638c.122 0 .177.055.177.177v4.463c0 1.045-.679 1.736-1.736 1.736h-4.734a2.826 2.826 0 0 1-2.075-.854 2.877 2.877 0 0 1-.855-2.089c0-1.248.76-2.238 1.628-2.687l.285-.136c.027-.013.055-.013.081-.013.096 0 .136.026.163.095l.285.569c.026.041.04.068.04.095 0 .055-.026.109-.108.149l-.284.136a2 2 0 0 0-1.1 1.791c0 .542.19 1.004.57 1.384s.841.556 1.37.556h4.788c.474.001.678-.244.678-.732zm-2.713 3.12v.732c0 .122-.055.177-.177.177h-.679c-.122 0-.176-.055-.176-.177v-.732c0-.122.054-.19.176-.19h.679c.123 0 .177.068.177.19zm10.953-3.689v-7.299c0-.122.055-.189.177-.189h.651c.108 0 .163.067.163.189v7.299c0 1.438-.868 2.306-2.307 2.306h-4.016c-.122 0-.176-.067-.176-.189v-.624c0-.122.054-.177.176-.177h4.016c.909-.001 1.316-.408 1.316-1.316zm-3.161-8.601v.787h1.384c.081 0 .122.04.122.136v.284c0 .082-.041.122-.122.122h-2.319c-.082 0-.109-.04-.109-.122v-.284c0-.096.027-.136.109-.136h.393v-.787c0-.557.448-1.018 1.004-1.018.448 0 .773.204.95.624l.04.122c.014.027.027.041.027.068 0 .04-.027.067-.081.095l-.271.122c-.027.014-.055.014-.068.014-.04 0-.067-.027-.095-.082l-.054-.136c-.082-.189-.23-.284-.448-.284a.47.47 0 0 0-.462.475zm.719 2.374v6.227c0 .122-.054.189-.176.189h-.638c-.122 0-.177-.067-.177-.189V81.84c0-.122.055-.177.177-.177h.638c.122 0 .176.055.176.177zm6.448 8.532h-.651c-.122 0-.177-.055-.177-.177v-9.44c0-.122.055-.177.177-.177h.651c.108 0 .162.055.162.177v9.44c.001.123-.053.177-.162.177zm-93.055 90h-.732c-.095 0-.136-.041-.136-.121v-.869c0-.08.041-.135.136-.135h.732c.081 0 .136.055.136.135v.869c0 .08-.055.121-.136.121zm6.729-5.9c.557.557.841 1.234.841 2.021v1.018c0 .787-.284 1.465-.841 2.021a2.769 2.769 0 0 1-2.021.84 2.77 2.77 0 0 1-2.021-.84 2.764 2.764 0 0 1-.842-2.021v-1.018c0-.787.285-1.465.842-2.021a2.763 2.763 0 0 1 2.021-.842c.787 0 1.466.285 2.021.842zm-.149 3.039v-1.018a1.894 1.894 0 0 0-1.872-1.873 1.894 1.894 0 0 0-1.872 1.873v1.018c0 1.018.855 1.871 1.872 1.871s1.872-.854 1.872-1.871zm5.661-2.891c-.57 0-1.004.096-1.289.299l-.258.189c-.027.027-.067.027-.108.027h-.014c-.054-.014-.095-.027-.122-.066l-.38-.516c-.027-.041-.027-.068-.027-.109v-.027c.014-.055.027-.094.068-.121l.271-.178c.447-.324 1.071-.502 1.858-.502.678 0 1.261.258 1.736.734.475.475.719 1.043.719 1.723v2.17c0 1.424-.854 2.129-2.319 2.129h-2.903c-.122 0-.177-.055-.177-.176v-.637c0-.123.055-.178.177-.178h2.903c.922 0 1.329-.244 1.329-1.139v-2.17a1.464 1.464 0 0 0-1.464-1.452zm9.675 3.447v-7.299c0-.123.055-.189.177-.189h.638c.122 0 .177.066.177.189v7.299c0 1.438-.868 2.305-2.307 2.305h-4.016c-.122 0-.176-.066-.176-.189v-.623c0-.123.054-.178.176-.178h4.016c.909 0 1.315-.407 1.315-1.315zm-3.432 0v-6.227c0-.123.055-.178.177-.178h.638c.122 0 .176.055.176.178v6.227c0 .121-.054.189-.176.189h-.638c-.122.001-.177-.068-.177-.189zm10.869 2.469v-.164h-1.858a2.77 2.77 0 0 1-2.021-.84 2.764 2.764 0 0 1-.842-2.021v-1.018c0-.787.285-1.465.842-2.021.556-.557 1.234-.842 2.021-.842s1.466.285 2.021.842c.557.557.841 1.234.841 2.021v4.043c0 .719-.258 1.342-.786 1.871a2.585 2.585 0 0 1-1.886.787h-1.411c-.122 0-.176-.055-.176-.176v-.639c0-.121.054-.176.176-.176h1.411c.896.001 1.668-.772 1.668-1.667zm-1.858-1.154h1.858v-2.889c0-1.018-.841-1.873-1.858-1.873s-1.872.842-1.872 1.873v1.018c0 1.017.855 1.871 1.872 1.871zm5.62-11.11v.787h1.384c.081 0 .122.041.122.121v.299c0 .082-.041.123-.122.123h-2.307c-.081 0-.122-.041-.122-.123v-.299c0-.08.041-.121.122-.121h.38v-.787c0-.557.462-1.018 1.018-1.018.448 0 .76.203.937.625l.054.121c.014.014.014.041.014.055a.136.136 0 0 1-.081.121l-.271.109c-.014.014-.027.014-.041.014-.054 0-.108-.041-.122-.082l-.054-.135c-.096-.189-.23-.285-.435-.285a.482.482 0 0 0-.476.475zm.732 2.496v9.414c0 .123-.054.189-.177.189h-.637c-.122 0-.19-.066-.19-.189v-9.414c0-.123.068-.189.19-.189h.637c.124 0 .177.066.177.189zm8.659 10.202h4.246v-5.088c0-.623.203-1.152.651-1.6.434-.447.977-.666 1.601-.666s1.14.219 1.587.666.665.977.665 1.6v3.5h1.709v.99h-2.197a.51.51 0 0 1-.502-.502v-3.988c0-.691-.57-1.262-1.262-1.262s-1.262.57-1.262 1.262v5.576a.51.51 0 0 1-.502.502h-4.762c-.786 0-1.465-.285-2.048-.855-.569-.568-.854-1.275-.854-2.088 0-1.248.76-2.225 1.628-2.674l.284-.148a.19.19 0 0 1 .082-.027c.081 0 .136.055.163.109l.284.557a.38.38 0 0 1 .027.107c0 .068-.027.096-.095.137l-.285.148a2.026 2.026 0 0 0-1.099 1.791c.001 1.07.883 1.953 1.941 1.953zm14.17-9.373v-.799c0-.082.04-.123.122-.123h.284c.082 0 .109.041.109.123v.799a.857.857 0 0 1-1.439.625.886.886 0 0 1-.583.23.868.868 0 0 1-.854-.855v-.799c0-.082.04-.123.136-.123h.271c.096 0 .136.041.136.123v.799c0 .178.136.313.313.313.163 0 .325-.135.325-.313v-.799c0-.082.041-.123.122-.123h.271c.095 0 .136.041.136.123v.799c0 .178.149.313.325.313.176-.001.326-.149.326-.313zm-.882 12.82v.285c0 .08-.041.121-.122.121h-2.049c-.081 0-.122-.041-.122-.121v-.285c0-.082.041-.137.122-.137h2.049c.081 0 .122.055.122.137z"/><path d="M264.365 178.649v-4.57c0-.123.067-.191.189-.191h.624c.122 0 .189.068.189.191v4.557c0 1.059-.678 1.736-1.736 1.736h-2.034v-.99h2.034c.517-.014.734-.217.734-.733zm.109 3.108v.799c0 .123-.068.178-.177.178h-.665c-.122 0-.189-.055-.189-.178v-.799c0-.123.067-.191.189-.191h.665c.108-.001.177.068.177.191zm3.719-.869v-6.795c0-.123.067-.191.189-.191h.624c.122 0 .19.068.19.191v5.289h2.062v.99h-2.062v.516c0 1.438-.882 2.307-2.319 2.307h-.679c-.122 0-.177-.055-.177-.176v-.639c0-.121.055-.176.177-.176h.679c.908 0 1.316-.406 1.316-1.316z"/><path d="M272.698 180.372h-2.103v-.99h2.116c.502-.014.719-.23.719-.732v-4.57c0-.123.055-.191.177-.191h.637c.122 0 .177.068.177.191v4.57c0 1.044-.679 1.722-1.723 1.722zm-.338 1.478v.787c0 .123-.068.189-.19.189h-.664c-.122 0-.177-.066-.177-.189v-.787c0-.121.055-.189.177-.189h.664c.121 0 .19.068.19.189zm1.803 0v.787c0 .123-.054.189-.176.189h-.679c-.122 0-.177-.066-.177-.189v-.787c0-.121.055-.189.177-.189h.679c.123 0 .176.068.176.189zm13.745-3.214v-4.463c0-.121.068-.176.19-.176h.638c.122 0 .176.055.176.176v4.463c0 1.045-.678 1.736-1.736 1.736h-4.734a2.827 2.827 0 0 1-2.075-.854 2.882 2.882 0 0 1-.854-2.09c0-1.248.76-2.238 1.628-2.686l.284-.137c.027-.012.055-.012.082-.012.095 0 .136.025.163.094l.284.57c.027.041.041.068.041.094 0 .055-.027.109-.108.15l-.285.135a2.003 2.003 0 0 0-1.099 1.791c0 .543.189 1.004.569 1.385.38.379.842.555 1.37.555h4.789c.474.001.677-.243.677-.731zm-2.713 3.121v.732c0 .121-.054.176-.177.176h-.678c-.122 0-.177-.055-.177-.176v-.732c0-.123.055-.191.177-.191h.678c.124-.001.177.068.177.191zm10.954-3.69v-7.299c0-.123.055-.189.177-.189h.65c.108 0 .163.066.163.189v7.299c0 1.438-.868 2.305-2.306 2.305h-4.016c-.122 0-.177-.066-.177-.189v-.623c0-.123.055-.178.177-.178h4.016c.908 0 1.316-.407 1.316-1.315zm-3.162-8.601v.787h1.384c.082 0 .122.041.122.137v.283c0 .082-.04.123-.122.123h-2.319c-.081 0-.108-.041-.108-.123v-.283c0-.096.027-.137.108-.137h.394v-.787c0-.557.447-1.018 1.004-1.018.447 0 .773.205.949.625l.041.121c.014.027.027.041.027.068 0 .041-.027.068-.082.096l-.271.121c-.026.014-.054.014-.067.014-.041 0-.068-.027-.095-.082l-.055-.135c-.081-.189-.23-.285-.447-.285a.47.47 0 0 0-.463.475zm.72 2.375v6.227c0 .121-.055.189-.177.189h-.638c-.122 0-.176-.068-.176-.189v-6.227c0-.123.054-.178.176-.178h.638c.123 0 .177.055.177.178zm6.447 8.531h-.651c-.122 0-.176-.055-.176-.176v-9.441c0-.121.054-.176.176-.176h.651c.108 0 .163.055.163.176v9.441c.001.121-.054.176-.163.176z"/><g fill="#FFF"><path d="M270.172 135.803v-4.834c0-.133.073-.191.206-.191h.69c.132 0 .191.059.191.191v4.834c0 1.132-.735 1.881-1.881 1.881h-5.128a3.064 3.064 0 0 1-2.249-.926 3.117 3.117 0 0 1-.925-2.263c0-1.352.823-2.425 1.763-2.909l.309-.147c.029-.015.059-.015.088-.015.103 0 .147.029.177.103l.308.617c.03.044.044.074.044.104 0 .059-.029.117-.118.161l-.309.147a2.166 2.166 0 0 0-1.19 1.939c0 .588.206 1.087.617 1.499a2.02 2.02 0 0 0 1.484.603h5.187c.515 0 .736-.265.736-.794zm-2.939 3.38v.793c0 .133-.059.191-.191.191h-.735c-.132 0-.191-.059-.191-.191v-.793c0-.133.059-.206.191-.206h.735c.132 0 .191.073.191.206zm7.29-1.499h-.706c-.132 0-.191-.059-.191-.191v-10.227c0-.133.059-.191.191-.191h.706c.117 0 .176.059.176.191v10.227c0 .132-.059.191-.176.191zm7.449.177v-.177h-2.013c-.852 0-1.602-.309-2.204-.911s-.911-1.337-.911-2.189v-1.102c0-.853.309-1.587.911-2.189s1.352-.911 2.204-.911c.853 0 1.587.309 2.189.911s.911 1.337.911 2.189v3.13h2.219v1.072h-2.219v.177c0 .778-.294 1.454-.867 2.027-.573.573-1.249.853-2.027.853h-1.528c-.118 0-.191-.059-.191-.191v-.69c0-.132.073-.191.191-.191h1.528c.97-.002 1.807-.839 1.807-1.808zm-2.013-1.249h2.013v-3.13c0-1.103-.911-2.028-2.013-2.028s-2.028.926-2.028 2.028v1.102c0 1.102.926 2.028 2.028 2.028z"/><path d="M292.392 135.186v-1.41a2.2 2.2 0 0 0-.676-1.632 2.244 2.244 0 0 0-1.646-.69c-1.043 0-1.822.367-2.351 1.103l-.206.279c-.044.059-.088.088-.147.088-.044 0-.074-.015-.118-.044l-.559-.397a.213.213 0 0 1-.088-.132v-.029c0-.044.015-.073.044-.117l.191-.279c.735-1.029 1.822-1.543 3.233-1.543.94 0 1.749.323 2.41.984s1 1.47 1 2.41v2.233c0 .176.029.294.117.382.147.146.441.221.867.221h.69v1.072h-.5c-.837 0-1.411-.235-1.778-.734-.441.499-1.087.734-1.91.734h-6.201v-1.072h6.201c.986-.016 1.427-.443 1.427-1.427zm-2.572 3.997v.867c0 .132-.059.19-.191.19h-.735c-.132 0-.191-.059-.191-.19v-.867c0-.133.059-.206.191-.206h.735c.132 0 .191.073.191.206z"/><path d="M297.286 135.818v-8.537c0-.133.059-.206.191-.206h.691c.132 0 .191.073.191.206v8.537c0 1.146-.735 1.866-1.866 1.866h-1.705v-1.072h1.72c.543-.015.778-.265.778-.794zm4.335 1.866h-.705c-.132 0-.191-.059-.191-.191v-10.227c0-.133.059-.191.191-.191h.705c.118 0 .177.059.177.191v10.227c0 .132-.059.191-.177.191z"/></g><g fill="#FFF"><path d="M266.961 18.911v-9.8c0-.133.074-.206.206-.206h.676c.132 0 .206.073.206.206v9.801c0 .882-.323 1.646-.94 2.263s-1.367.926-2.248.926a3.064 3.064 0 0 1-2.249-.926c-.617-.617-.925-1.381-.925-2.263v-3.453c0-.132.059-.206.191-.206h.69c.132 0 .191.074.191.206v3.453c0 1.161.956 2.116 2.102 2.116 1.16 0 2.1-.955 2.1-2.117zm4.351.603h-.706c-.132 0-.191-.059-.191-.191V9.096c0-.133.059-.191.191-.191h.706c.117 0 .176.059.176.191v10.227c0 .132-.059.191-.176.191zm7.45.177v-.177h-2.013c-.852 0-1.602-.309-2.204-.911s-.911-1.337-.911-2.189v-1.102c0-.853.309-1.587.911-2.189s1.352-.911 2.204-.911c.853 0 1.587.309 2.189.911s.911 1.337.911 2.189v3.13h2.219v1.072h-2.219v.177c0 .778-.294 1.454-.867 2.027-.573.573-1.249.853-2.043.853h-1.513c-.132 0-.191-.059-.191-.191v-.69c0-.132.059-.191.191-.191h1.513c.986-.002 1.823-.838 1.823-1.808zm-2.013-1.249h2.013v-3.13c0-1.103-.911-2.028-2.013-2.028s-2.028.926-2.028 2.028v1.102c0 1.102.926 2.028 2.028 2.028zm-.309-9.037v.852h1.514c.088 0 .132.045.132.133v.309c0 .088-.044.146-.132.146h-2.513c-.088 0-.132-.059-.132-.146v-.309c0-.088.044-.133.132-.133h.412v-.852c0-.603.5-1.117 1.102-1.117.485 0 .823.221 1.014.676l.059.147c.015.015.015.029.015.059 0 .059-.03.103-.074.117l-.294.118c-.029.015-.059.015-.073.015-.059 0-.074-.015-.103-.073l-.073-.147c-.088-.206-.25-.323-.47-.323a.532.532 0 0 0-.516.528z"/><path d="M293.854 18.442h.69v1.072h-.5c-.646 0-1.146-.206-1.543-.588-.015-.015-.044-.029-.044-.044a.55.55 0 0 1-.103.132c-.338.338-.779.5-1.352.5h-.749c-.72 0-1.249-.191-1.617-.544v-.015l-.015-.015a.34.34 0 0 0-.059.073c-.338.338-.793.5-1.367.5h-.735c-.734 0-1.264-.191-1.631-.559v-.015a.31.31 0 0 1-.059.073c-.338.338-.779.5-1.352.5h-1.866V18.44h1.896c.529 0 .764-.265.764-.809v-4.938c0-.132.059-.205.191-.205h.691c.132 0 .191.073.191.205v5.144c0 .161.029.279.118.367.162.146.456.235.881.235h.94c.529 0 .779-.265.779-.809v-4.556c0-.132.059-.19.191-.19h.691c.132 0 .191.059.191.19v4.762c0 .161.029.279.118.367.147.146.456.235.881.235h.926c.544 0 .793-.265.793-.809v-4.938c0-.132.059-.205.191-.205h.69c.132 0 .191.073.191.205v4.938c.003.548.444.813.988.813z"/><path d="M296.677 17.648V9.111c0-.133.059-.206.191-.206h.691c.132 0 .191.073.191.206v8.537c0 1.146-.735 1.866-1.866 1.866h-1.705v-1.072h1.72c.543-.015.778-.265.778-.794zm4.335 1.866h-.705c-.132 0-.191-.059-.191-.191V9.096c0-.133.059-.191.191-.191h.705c.118 0 .177.059.177.191v10.227c0 .132-.059.191-.177.191z"/></g><g fill="#231F20"><path d="M20.769 57.989v.868c0 .082-.041.122-.122.122h-.746c-.081 0-.122-.04-.122-.122v-.868c0-.081.041-.135.122-.135h.746c.081 0 .122.054.122.135zm0 5.264v.868c0 .081-.041.122-.122.122h-.746c-.081 0-.122-.041-.122-.122v-.868c0-.081.041-.136.122-.136h.746c.081 0 .122.055.122.136zm5.604-11.096v.298c0 .082-.04.108-.122.108h-2.048c-.082 0-.122-.026-.122-.108v-.298c0-.082.04-.122.122-.122h2.048c.082 0 .122.04.122.122zm0 .977v.285c0 .081-.04.135-.122.135h-2.048c-.082 0-.122-.054-.122-.135v-.285c0-.082.04-.122.122-.122h2.048c.082 0 .122.04.122.122zm3.975 11.109h-4.992a2.766 2.766 0 0 1-2.021-.841 2.767 2.767 0 0 1-.841-2.021v-1.018c0-.786.285-1.479.841-2.034a2.764 2.764 0 0 1 2.021-.842c.786 0 1.465.285 2.021.842.556.556.841 1.248.841 2.034v2.89h2.13v.99zm-4.993-.99h1.872v-2.89c0-1.03-.841-1.872-1.872-1.872s-1.872.854-1.872 1.872v1.018c0 1.017.855 1.872 1.872 1.872zm-1.614-7.271v-.801c0-.122.054-.189.176-.189h.679c.122 0 .177.067.177.189v.801c0 .122-.055.176-.177.176h-.679c-.122 0-.176-.054-.176-.176zm1.804 0v-.801c0-.122.068-.189.19-.189h.664c.122 0 .19.067.19.189v.801c0 .122-.068.176-.19.176h-.664c-.122 0-.19-.054-.19-.176zm8.264-2.387v-.8c0-.082.04-.122.122-.122h.284c.082 0 .109.04.109.122v.8a.856.856 0 0 1-1.439.624.88.88 0 0 1-.583.23.868.868 0 0 1-.854-.854v-.8c0-.082.04-.122.136-.122h.271c.096 0 .136.04.136.122v.8c0 .177.136.313.313.313.163 0 .325-.136.325-.313v-.8c0-.082.041-.122.122-.122h.271c.095 0 .136.04.136.122v.8c0 .177.149.313.325.313.176-.001.326-.15.326-.313zm.203 2.428v.285c0 .081-.04.122-.122.122h-2.048c-.082 0-.122-.041-.122-.122v-.285c0-.081.04-.122.122-.122h2.048c.082 0 .122.041.122.122z"/><path d="M32.438 62.507v-4.558c0-.122.067-.19.189-.19h.624c.122 0 .189.068.189.19v4.747c0 .149.027.258.109.34.135.136.406.217.8.217h.638v.99h-.461c-.665 0-1.167-.177-1.492-.502-.014-.014-.027-.014-.027-.027 0 .014-.027.055-.041.068-.312.312-.732.461-1.262.461H29.67v-.99h2.062c.489 0 .706-.244.706-.746zm-.515 3.215v.787c0 .122-.055.189-.177.189h-.678c-.122 0-.177-.067-.177-.189v-.787c0-.122.055-.189.177-.189h.678c.122-.001.177.067.177.189zm1.817 0v.787c0 .122-.067.189-.189.189h-.665c-.122 0-.19-.067-.19-.189v-.787c0-.122.068-.189.19-.189h.665c.122-.001.189.067.189.189zm3.908-.014v.285c0 .081-.041.122-.122.122h-2.049c-.081 0-.122-.041-.122-.122v-.285c0-.082.041-.136.122-.136h2.049c.081 0 .122.054.122.136z"/><path d="M37.024 62.507v-7.868c0-.122.054-.189.176-.189h.638c.122 0 .177.067.177.189v8.058c0 .163.04.271.122.34.136.136.406.217.8.217h.692v.99H39.1c-.691 0-1.167-.189-1.506-.529a.316.316 0 0 1-.054.068c-.299.312-.72.461-1.248.461H34.65v-.99h1.655c.489-.001.719-.245.719-.747zm6.119-7.365c0-.489.394-.896.882-.896s.882.406.882.896c0 .488-.394.881-.882.881s-.882-.393-.882-.881zm.53 0c0 .203.149.353.353.353a.342.342 0 0 0 .353-.353.362.362 0 0 0-.353-.367.361.361 0 0 0-.353.367z"/><path d="M48.515 64.243h-9.292v-.99h3.146l-1.329-2.835a.62.62 0 0 1-.04-.217v-.068c.095-.678.42-1.275.99-1.79.61-.57 1.288-.855 2.048-.855s1.451.271 2.049.801c.597.529.922 1.153.99 1.872v.054a.55.55 0 0 1-.041.204l-1.329 2.835h2.808v.989zm-5.792-5.236c-.366.326-.61.706-.706 1.126l1.452 3.12h1.152l1.452-3.134c-.068-.447-.299-.827-.706-1.14a2.043 2.043 0 0 0-1.329-.488c-.475 0-.909.177-1.315.516zm11.37 6.701v.285c0 .081-.04.122-.122.122h-2.048c-.082 0-.122-.041-.122-.122v-.285c0-.082.04-.136.122-.136h2.048c.082 0 .122.054.122.136z"/><path d="M55.585 64.243H48.11v-.99h2.943a2.808 2.808 0 0 1-.691-1.872v-1.018c0-.786.284-1.479.841-2.034a2.763 2.763 0 0 1 2.021-.842c.786 0 1.465.285 2.021.842.557.556.842 1.248.842 2.034v3.378a.51.51 0 0 1-.502.502zm-2.36-.99h1.872v-2.89c0-1.03-.842-1.872-1.872-1.872a1.884 1.884 0 0 0-1.872 1.872v1.018a1.893 1.893 0 0 0 1.872 1.872zm-.679-7.271v-.801c0-.122.055-.189.177-.189h.664c.122 0 .19.067.19.189v.801c0 .122-.068.176-.19.176h-.664c-.122 0-.177-.054-.177-.176zm12.511-3.825v.298c0 .082-.041.108-.122.108h-2.049c-.081 0-.122-.026-.122-.108v-.298c0-.082.041-.122.122-.122h2.049c.081 0 .122.04.122.122zm0 .977v.285c0 .081-.041.135-.122.135h-2.049c-.081 0-.122-.054-.122-.135v-.285c0-.082.041-.122.122-.122h2.049c.081 0 .122.04.122.122zm3.973 11.109h-4.992a2.767 2.767 0 0 1-2.021-.841 2.764 2.764 0 0 1-.842-2.021v-1.018c0-.786.285-1.479.842-2.034a2.763 2.763 0 0 1 2.021-.842c.787 0 1.466.285 2.021.842.557.556.841 1.248.841 2.034v2.89h2.13v.99zm-4.992-.99h1.872v-2.89c0-1.03-.841-1.872-1.872-1.872-1.03 0-1.872.854-1.872 1.872v1.018c0 1.017.855 1.872 1.872 1.872zm-1.614-7.271v-.801c0-.122.055-.189.177-.189h.678c.122 0 .177.067.177.189v.801c0 .122-.055.176-.177.176h-.678c-.123 0-.177-.054-.177-.176zm1.804 0v-.801c0-.122.067-.189.189-.189h.665c.122 0 .189.067.189.189v.801c0 .122-.067.176-.189.176h-.665c-.121 0-.189-.054-.189-.176zm8.06-3.446v.285c0 .081-.041.122-.122.122h-2.049c-.081 0-.122-.041-.122-.122v-.285c0-.081.041-.122.122-.122h2.049c.081 0 .122.041.122.122z"/><path d="M70.727 62.507v-7.868c0-.122.055-.189.177-.189h.638c.122 0 .176.067.176.189v8.058c0 .163.041.271.122.34.136.136.407.217.801.217h.691v.99h-.529c-.691 0-1.166-.189-1.505-.529a.289.289 0 0 1-.055.068c-.299.312-.719.461-1.248.461h-1.642v-.99h1.655c.489-.001.719-.245.719-.747zm6.418-7.46c0-.489.394-.896.882-.896s.882.406.882.896c0 .488-.394.881-.882.881s-.882-.393-.882-.881zm.53 0c0 .203.149.353.353.353a.342.342 0 0 0 .353-.353.362.362 0 0 0-.353-.367.363.363 0 0 0-.353.367z"/><path d="M81.554 63.253h1.018v.99h-.828c-.705 0-1.288-.285-1.628-.787a2.769 2.769 0 0 1-1.967.787h-5.223v-.99h2.36v-2.89c0-.786.285-1.479.842-2.034a2.763 2.763 0 0 1 2.021-.842c.787 0 1.465.285 2.021.842.556.556.841 1.248.841 2.034v1.018c0 .475-.108.909-.325 1.329.094.366.419.543.868.543zm-5.278-2.89v2.89h1.872a1.876 1.876 0 0 0 1.872-1.872v-1.018c0-1.03-.841-1.872-1.872-1.872-1.03 0-1.872.855-1.872 1.872zm12.389-5.235c0 .475-.366.827-.801.882v.013h-1.736c-.081 0-.122-.04-.122-.122v-.284c0-.082.041-.122.122-.122h.841a.85.85 0 0 1-.081-.366c0-.476.407-.882.882-.882a.89.89 0 0 1 .895.881zm-.896.366c.19 0 .366-.177.366-.366a.363.363 0 0 0-.366-.354.36.36 0 0 0-.353.354c.001.189.164.366.353.366z"/><path d="M89.274 61.937v-1.303c0-.597-.203-1.085-.624-1.506a2.071 2.071 0 0 0-1.52-.638c-.977 0-1.695.34-2.17 1.004l-.177.258c-.04.068-.081.095-.136.095-.04 0-.067-.013-.108-.04l-.516-.366c-.067-.041-.095-.082-.095-.136 0-.041.014-.082.041-.122l.176-.258c.57-.827 1.614-1.438 2.984-1.438.868 0 1.614.313 2.225.923a3.04 3.04 0 0 1 .923 2.225v1.303c0 1.438-.868 2.306-2.306 2.306h-5.738v-.99h5.738c.91-.001 1.303-.408 1.303-1.317zm-2.374 3.69v.8c0 .122-.054.177-.176.177h-.664c-.122 0-.189-.055-.189-.177v-.8c0-.122.067-.19.189-.19h.665c.122-.001.175.068.175.19zm12.701-11.679c0 .475-.366.827-.8.882v.013h-1.736c-.082 0-.122-.04-.122-.122v-.284c0-.082.04-.122.122-.122h.841a.836.836 0 0 1-.081-.366c0-.476.406-.882.882-.882a.89.89 0 0 1 .894.881zm-.895.366a.384.384 0 0 0 .366-.366.363.363 0 0 0-.366-.354.36.36 0 0 0-.354.354c0 .19.164.366.354.366zm1.532 9.372v-5.737c0-.122.054-.19.176-.19h.624c.122 0 .19.068.19.19v5.737c0 .814-.299 1.52-.868 2.09a2.799 2.799 0 0 1-2.063.854c-.813 0-1.52-.285-2.089-.854-.569-.57-.854-1.275-.854-2.09v-3.188c0-.122.054-.189.176-.189h.638c.122 0 .177.067.177.189v3.188c0 1.072.882 1.954 1.953 1.954 1.058.001 1.94-.881 1.94-1.954zm-2.645-6.538v-.732c0-.122.054-.176.176-.176h.679c.122 0 .177.054.177.176v.732c0 .122-.055.177-.177.177h-.679c-.123 0-.176-.055-.176-.177zm10.351 7.258v-.163h-1.858a2.793 2.793 0 0 1-2.034-.841 2.764 2.764 0 0 1-.842-2.021v-1.018c0-.786.285-1.465.842-2.021.556-.557 1.247-.842 2.034-.842s1.465.285 2.021.842c.556.556.841 1.234.841 2.021v2.89h2.049v.99h-2.049v.163c0 .719-.271 1.343-.8 1.872-.529.528-1.153.786-1.872.786h-1.411c-.108 0-.177-.054-.177-.176v-.638c0-.122.068-.177.177-.177h1.411c.895.001 1.668-.772 1.668-1.667zm-1.858-1.153h1.858v-2.89c0-1.018-.841-1.872-1.858-1.872s-1.872.854-1.872 1.872v1.018c0 1.017.854 1.872 1.872 1.872zm10.977-10.608c0 .475-.366.827-.801.882v.013h-1.736c-.081 0-.122-.04-.122-.122v-.284c0-.082.041-.122.122-.122h.841a.85.85 0 0 1-.081-.366c0-.476.407-.882.882-.882.488 0 .895.393.895.881zm-.895.367c.19 0 .366-.177.366-.366a.363.363 0 0 0-.366-.354.36.36 0 0 0-.353.354c0 .189.163.366.353.366z"/><path d="M115.719 54.965h1.126c.122 0 .177.067.177.176v.638c0 .122-.055.19-.177.19h-1.126c-1.41 0-2.197.732-2.347 2.197h2.523c.868 0 1.587.285 2.157.868.569.583.854 1.315.854 2.197v1.465c0 .163.04.271.122.34.136.136.394.217.8.217h.706v.99h-.543c-.665 0-1.153-.177-1.479-.502l-.027-.027c-.298.34-.732.529-1.302.529h-6.661v-.99h6.647c.502 0 .746-.23.746-.746v-1.275c0-1.221-.801-2.075-2.021-2.075h-3.038a.5.5 0 0 1-.502-.502c.001-2.225 1.195-3.69 3.365-3.69zm8.847.949v.285c0 .081-.04.122-.122.122h-2.048c-.082 0-.122-.041-.122-.122v-.285c0-.081.04-.122.122-.122h2.048c.082 0 .122.041.122.122z"/><path d="M122.232 64.243h-2.103v-.99h2.116c.502-.014.719-.23.719-.732V57.95c0-.122.055-.19.177-.19h.638c.122 0 .177.068.177.19v4.571c0 1.043-.679 1.722-1.724 1.722zm-.339 1.479v.787c0 .122-.067.189-.189.189h-.665c-.122 0-.177-.067-.177-.189v-.787c0-.122.055-.189.177-.189h.665c.122-.001.189.067.189.189zm1.805 0v.787c0 .122-.055.189-.177.189h-.679c-.122 0-.176-.067-.176-.189v-.787c0-.122.054-.189.176-.189h.679c.122-.001.177.067.177.189zm6.635-1.479h-.651c-.122 0-.176-.055-.176-.177v-9.44c0-.122.054-.177.176-.177h.651c.108 0 .163.055.163.177v9.44c0 .122-.055.177-.163.177zm4.763-9.413v.298c0 .082-.041.108-.122.108h-2.049c-.081 0-.122-.026-.122-.108v-.298c0-.082.041-.122.122-.122h2.049c.081 0 .122.04.122.122zm0 .977v.285c0 .081-.041.135-.122.135h-2.049c-.081 0-.122-.054-.122-.135v-.285c0-.082.041-.122.122-.122h2.049c.081-.001.122.04.122.122zm-1.765 8.952v-6.796c0-.122.068-.19.19-.19h.624c.122 0 .189.068.189.19v5.29h2.063v.99h-2.063v.516c0 1.438-.882 2.306-2.319 2.306h-.678c-.123 0-.177-.054-.177-.176v-.638c0-.122.054-.177.177-.177h.678c.91 0 1.316-.406 1.316-1.315zm6.635-8.94v.285c0 .081-.04.122-.122.122h-2.048c-.082 0-.122-.041-.122-.122v-.285c0-.081.04-.122.122-.122h2.048c.082 0 .122.041.122.122z"/><path d="M138.433 62.52v-4.571c0-.122.055-.19.177-.19h.638c.122 0 .176.068.176.19v4.747c0 .163.041.271.122.354.136.136.407.203.801.203h.624v.99h-.462c-.678 0-1.166-.189-1.506-.529-.325.326-.719.529-1.302.529h-1.967v-.99h1.98c.488-.014.719-.231.719-.733zm1.017 3.107v.8c0 .122-.068.177-.19.177h-.664c-.122 0-.177-.055-.177-.177v-.8c0-.122.055-.19.177-.19h.664c.122-.001.19.068.19.19zm7.11-12.494v.285c0 .081-.041.122-.122.122h-2.049c-.081 0-.122-.041-.122-.122v-.285c0-.081.041-.122.122-.122h2.049c.081 0 .122.041.122.122z"/><path d="M147.685 61.937v-1.303c0-.583-.217-1.085-.638-1.506-.42-.42-.909-.638-1.506-.638-.977 0-1.709.34-2.184 1.018l-.177.244a.194.194 0 0 1-.122.082h-.027c-.026 0-.054 0-.095-.027l-.516-.366a.202.202 0 0 1-.081-.122v-.027c0-.041 0-.081.027-.108l.176-.258c.679-.963 1.683-1.438 2.998-1.438.868 0 1.601.313 2.211.923a3.04 3.04 0 0 1 .923 2.225v1.303c0 1.438-.868 2.306-2.306 2.306h-5.738v-.99h5.738c.91-.002 1.317-.409 1.317-1.318zm-2.848-5.955v-.801c0-.122.055-.189.177-.189h.664c.122 0 .177.067.177.189v.801c0 .122-.055.176-.177.176h-.664c-.122 0-.177-.054-.177-.176zm11.845 8.858h4.246v-5.087c0-.624.203-1.153.651-1.601.434-.447.977-.665 1.601-.665s1.14.218 1.587.665.665.977.665 1.601v3.5h1.709v.99h-2.197a.51.51 0 0 1-.502-.502v-3.988a1.27 1.27 0 0 0-1.262-1.262c-.692 0-1.262.57-1.262 1.262v5.575a.51.51 0 0 1-.502.502h-4.762c-.786 0-1.465-.285-2.048-.854-.569-.569-.854-1.275-.854-2.089 0-1.248.76-2.225 1.628-2.673l.284-.148a.19.19 0 0 1 .082-.027c.081 0 .136.054.163.108l.284.557c.014.04.027.081.027.108 0 .067-.027.095-.095.136l-.285.148a2.027 2.027 0 0 0-1.099 1.791c.001 1.071.883 1.953 1.941 1.953zm13.582.868v.285c0 .081-.04.122-.122.122h-2.048c-.082 0-.122-.041-.122-.122v-.285c0-.082.04-.136.122-.136h2.048c.082 0 .122.054.122.136z"/><path d="M169.734 62.52v-4.571c0-.122.068-.19.177-.19h.638c.108 0 .176.068.176.19v4.571c0 1.058-.678 1.723-1.723 1.723h-2.333v-.99h2.361c.488-.014.704-.244.704-.733zm-.922-6.538v-.801c0-.122.067-.189.189-.189h.651c.122 0 .189.067.189.189v.801c0 .122-.067.176-.189.176h-.651c-.121 0-.189-.054-.189-.176zm2.835-.8v.801c0 .122-.055.176-.177.176h-.665c-.122 0-.189-.054-.189-.176v-.801c0-.122.067-.189.189-.189h.665c.123-.001.177.066.177.189zm1.399-6.201c0-.489.394-.896.882-.896s.882.406.882.896c0 .488-.394.881-.882.881s-.882-.392-.882-.881zm.528 0c0 .203.149.353.354.353a.343.343 0 0 0 .353-.353.363.363 0 0 0-.353-.367.363.363 0 0 0-.354.367zm-.026 3.23v.787h1.383c.082 0 .136.054.136.136v.284c0 .082-.054.122-.136.122h-2.306c-.081 0-.122-.04-.122-.122v-.284c0-.082.041-.136.122-.136h.38v-.787c0-.557.461-1.018 1.018-1.018.447 0 .76.204.936.61l.055.149c.014.014.014.027.014.041 0 .054-.041.095-.082.122l-.271.108c-.014.014-.041.014-.055.014-.055 0-.081-.055-.095-.082l-.068-.135c-.081-.19-.217-.285-.434-.285a.482.482 0 0 0-.475.476zm1.465 11.042h.638v.99h-.638c-1.072 0-1.736-.691-1.736-1.736v-7.868c0-.122.067-.189.189-.189h.624c.122 0 .19.067.19.189v7.868c0 .515.217.746.733.746zm4.735-7.339v.285c0 .081-.04.122-.122.122h-2.048c-.082 0-.122-.041-.122-.122v-.285c0-.081.04-.122.122-.122h2.048c.082 0 .122.041.122.122z"/><path d="M177.414 64.243h-2.103v-.99h2.116c.502-.014.719-.23.719-.732V57.95c0-.122.055-.19.177-.19h.638c.122 0 .177.068.177.19v4.571c0 1.043-.679 1.722-1.724 1.722zm-.339 1.479v.787c0 .122-.067.189-.189.189h-.665c-.122 0-.177-.067-.177-.189v-.787c0-.122.055-.189.177-.189h.665c.122-.001.189.067.189.189zm1.805 0v.787c0 .122-.055.189-.177.189h-.679c-.122 0-.176-.067-.176-.189v-.787c0-.122.054-.189.176-.189h.679c.122-.001.177.067.177.189zm7.503-2.469h.664v.99h-.638c-1.058 0-1.723-.665-1.723-1.723v-7.882c0-.122.055-.189.177-.189h.638c.122 0 .176.067.176.189v7.882c0 .502.216.733.706.733zm6.553-7.732v.285c0 .081-.041.122-.122.122h-2.049c-.081 0-.122-.041-.122-.122v-.285c0-.081.041-.122.122-.122h2.049c.081 0 .122.041.122.122z"/><path d="M195.336 63.253h1.018v.99h-.827c-.706 0-1.289-.285-1.628-.787a2.77 2.77 0 0 1-1.967.787h-5.223v-.99h2.36v-2.89c0-.786.285-1.479.841-2.034a2.764 2.764 0 0 1 2.021-.842c.786 0 1.465.285 2.021.842.557.556.842 1.248.842 2.034v1.018c0 .475-.108.909-.326 1.329.095.366.421.543.868.543zm-5.276-2.89v2.89h1.872c1.03 0 1.872-.841 1.872-1.872v-1.018c0-1.03-.842-1.872-1.872-1.872a1.884 1.884 0 0 0-1.872 1.872z"/><path d="M198.784 62.507v-4.558c0-.122.067-.19.189-.19h.624c.122 0 .189.068.189.19v4.747c0 .149.027.258.109.34.135.136.406.217.8.217h.638v.99h-.461c-.665 0-1.167-.177-1.492-.502-.014-.014-.027-.014-.027-.027 0 .014-.027.055-.041.068-.312.312-.732.461-1.262.461h-2.034v-.99h2.062c.488 0 .706-.244.706-.746zm-.516 3.215v.787c0 .122-.055.189-.177.189h-.678c-.122 0-.177-.067-.177-.189v-.787c0-.122.055-.189.177-.189h.678c.123-.001.177.067.177.189zm1.818 0v.787c0 .122-.067.189-.189.189h-.665c-.122 0-.19-.067-.19-.189v-.787c0-.122.068-.189.19-.189h.665c.121-.001.189.067.189.189zm6.892-.014v.285c0 .081-.04.122-.122.122h-2.048c-.082 0-.122-.041-.122-.122v-.285c0-.082.04-.136.122-.136h2.048c.082 0 .122.054.122.136z"/><path d="M208.471 64.243h-7.475v-.99h2.943a2.808 2.808 0 0 1-.691-1.872v-1.018c0-.786.284-1.479.841-2.034a2.763 2.763 0 0 1 2.021-.842c.786 0 1.465.285 2.021.842.557.556.842 1.248.842 2.034v3.378a.51.51 0 0 1-.502.502zm-2.361-.99h1.872v-2.89c0-1.03-.842-1.872-1.872-1.872a1.884 1.884 0 0 0-1.872 1.872v1.018c0 1.017.855 1.872 1.872 1.872zm-.678-7.271v-.801c0-.122.055-.189.177-.189h.664c.122 0 .19.067.19.189v.801c0 .122-.068.176-.19.176h-.664c-.123 0-.177-.054-.177-.176zm14.41 9.822v.285c0 .081-.041.122-.122.122h-2.049c-.081 0-.122-.041-.122-.122v-.285c0-.082.041-.136.122-.136h2.049c.081 0 .122.054.122.136zm4.054-2.551h.638v.99h-.447c-.584 0-1.072-.189-1.438-.543a2.844 2.844 0 0 1-.176-.189c-.407.488-.99.732-1.791.732h-6.443c-.122 0-.177-.067-.177-.189v-.624c0-.122.055-.177.177-.177h1.492v-8.627c0-.122.055-.19.177-.19h.637c.109 0 .177.068.177.19v4.761c1.356-1.262 2.51-1.886 3.486-1.886 1.764 0 2.78 1.33 2.78 3.134v1.872c-.001.502.406.746.908.746zm-1.912-1.316v-1.303c0-.475-.096-.909-.271-1.262-.285-.583-.801-.882-1.506-.882-.461 0-1.031.231-1.723.665a7.056 7.056 0 0 0-1.764 1.573v2.523h3.961c.91.002 1.303-.405 1.303-1.314zm8.442-8.6v.285c0 .081-.041.122-.122.122h-2.049c-.081 0-.122-.041-.122-.122v-.285c0-.081.041-.122.122-.122h2.049c.081 0 .122.041.122.122z"/><path d="M234.223 64.243h-10.024v-.99h2.943a2.753 2.753 0 0 1-.705-1.872v-1.018c0-.786.285-1.465.841-2.021a2.796 2.796 0 0 1 2.035-.842c.786 0 1.465.285 2.021.842.557.556.842 1.234.842 2.021v2.89h2.048v.99zm-6.783-3.88v1.018c0 1.018.854 1.872 1.872 1.872h1.858v-2.89c0-1.018-.842-1.872-1.858-1.872a1.894 1.894 0 0 0-1.872 1.872zm.407-4.381v-.801c0-.122.055-.189.177-.189h.665c.122 0 .189.067.189.189v.801c0 .122-.067.176-.189.176h-.665c-.123 0-.177-.054-.177-.176zm1.804 0v-.801c0-.122.067-.189.189-.189h.665c.122 0 .177.067.177.189v.801c0 .122-.055.176-.177.176h-.665c-.121 0-.189-.054-.189-.176zm8.087-6.377v-.8c0-.082.041-.122.122-.122h.285c.081 0 .108.04.108.122v.8a.856.856 0 0 1-1.438.624.883.883 0 0 1-.584.23.868.868 0 0 1-.854-.854v-.8c0-.082.041-.122.136-.122h.271c.095 0 .136.04.136.122v.8c0 .177.136.313.312.313.163 0 .326-.136.326-.313v-.8c0-.082.04-.122.122-.122h.271c.095 0 .135.04.135.122v.8c0 .177.149.313.326.313.177 0 .326-.15.326-.313zm.571 3.04c0 .475-.366.827-.801.882v.013h-1.736c-.081 0-.122-.04-.122-.122v-.284c0-.082.041-.122.122-.122h.841a.85.85 0 0 1-.081-.366c0-.476.407-.882.882-.882.487 0 .895.393.895.881zm-.896.367c.19 0 .366-.177.366-.366a.363.363 0 0 0-.366-.354.36.36 0 0 0-.353.354c0 .189.164.366.353.366z"/><path d="M236.531 62.507v-4.558c0-.122.067-.19.189-.19h.624c.122 0 .189.068.189.19v4.747c0 .149.027.258.109.34.135.136.406.217.8.217h.638v.99h-.461c-.665 0-1.167-.177-1.492-.502-.014-.014-.027-.014-.027-.027 0 .014-.027.055-.041.068-.312.312-.732.461-1.262.461h-2.034v-.99h2.062c.488 0 .706-.244.706-.746zm-.013-6.525v-.801c0-.122.054-.189.176-.189h.665c.122 0 .189.067.189.189v.801c0 .122-.067.176-.189.176h-.665c-.123 0-.176-.054-.176-.176z"/><path d="M241.049 62.52v-7.882c0-.122.055-.189.177-.189h.638c.122 0 .176.067.176.189v7.882c0 1.058-.678 1.723-1.723 1.723h-1.573v-.99h1.587c.501-.014.718-.244.718-.733zm4.003 1.723h-.652c-.122 0-.176-.055-.176-.177v-9.44c0-.122.054-.177.176-.177h.651c.108 0 .163.055.163.177v9.44c.001.122-.054.177-.162.177zm9.091-9.808v.285c0 .081-.041.122-.123.122h-2.048c-.081 0-.122-.041-.122-.122v-.285c0-.081.041-.122.122-.122h2.048c.082 0 .123.041.123.122zm1.042 9.251v-5.737c0-.122.055-.19.177-.19h.624c.122 0 .189.068.189.19v5.737a2.87 2.87 0 0 1-.868 2.09 2.797 2.797 0 0 1-2.062.854c-.814 0-1.52-.285-2.089-.854-.57-.57-.854-1.275-.854-2.09v-3.188c0-.122.054-.189.176-.189h.638c.122 0 .177.067.177.189v3.188c0 1.072.882 1.954 1.953 1.954 1.058.001 1.939-.881 1.939-1.954zm-2.644-6.538v-.732c0-.122.054-.176.176-.176h.679c.122 0 .176.054.176.176v.732c0 .122-.054.177-.176.177h-.679c-.122 0-.176-.055-.176-.177zm7.517 6.105h.665v.99h-.638c-1.058 0-1.723-.665-1.723-1.723v-7.882c0-.122.054-.189.177-.189h.637c.122 0 .177.067.177.189v7.882c-.001.502.216.733.705.733zm6.459-10.12v.285c0 .081-.041.122-.122.122h-2.049c-.081 0-.122-.041-.122-.122v-.285c0-.081.041-.122.122-.122h2.049c.081 0 .122.041.122.122z"/><path d="M265.579 54.965h1.126c.122 0 .177.067.177.176v.638c0 .122-.055.19-.177.19h-1.126c-1.41 0-2.197.732-2.347 2.197h2.523c.868 0 1.587.285 2.156.868.57.583.855 1.315.855 2.197v1.465c0 .163.04.271.122.34.135.136.393.217.8.217h.705v.99h-.542c-.665 0-1.153-.177-1.479-.502l-.027-.027c-.299.34-.732.529-1.303.529h-6.66v-.99h6.647c.501 0 .745-.23.745-.746v-1.275c0-1.221-.8-2.075-2.021-2.075h-3.039a.501.501 0 0 1-.502-.502c.003-2.225 1.197-3.69 3.367-3.69zm10.544.76v.285c0 .081-.041.122-.123.122h-2.048c-.081 0-.122-.041-.122-.122v-.285c0-.081.041-.122.122-.122H276c.082-.001.123.04.123.122z"/><path d="M277.112 58.343c.556.556.841 1.234.841 2.021v1.018c0 .787-.285 1.465-.841 2.021a2.799 2.799 0 0 1-2.035.841h-5.087v-.99h2.225v-2.89c0-.786.285-1.465.841-2.021.557-.557 1.234-.842 2.021-.842s1.479.285 2.035.842zm-.163 3.038v-1.018c0-1.018-.854-1.872-1.872-1.872s-1.858.854-1.858 1.872v2.89h1.858a1.893 1.893 0 0 0 1.872-1.872zm9.893-6.13c0-.489.394-.896.882-.896s.882.406.882.896c0 .488-.394.881-.882.881s-.882-.393-.882-.881zm.529 0c0 .203.149.353.353.353s.353-.149.353-.353a.363.363 0 0 0-.353-.367.362.362 0 0 0-.353.367zm-2.348 8.002H286l-1.33-2.835a.706.706 0 0 1-.04-.217v-.068c.095-.664.434-1.262.99-1.79.61-.557 1.288-.842 2.048-.842.773 0 1.452.258 2.049.787s.936 1.153.99 1.872v.054a.55.55 0 0 1-.041.204l-1.329 2.835h2.686v.99h-6.999c-.638 0-1.004.529-1.004 1.18 0 .651.542 1.194 1.193 1.194h1.167c.122 0 .189.054.189.176v.638c0 .122-.067.177-.189.177h-1.167a2.11 2.11 0 0 1-1.547-.638 2.099 2.099 0 0 1-.637-1.547c0-1.207.8-2.17 1.994-2.17zm.624-3.12l1.451 3.12h1.14l1.465-3.134c-.068-.447-.313-.813-.705-1.14-.407-.325-.842-.488-1.33-.488-.963 0-1.831.828-2.021 1.642z"/><path d="M294.521 63.253v.99h-2.767v-.99h2.767zm7.097-10.12v.285c0 .081-.041.122-.122.122h-2.049c-.081 0-.122-.041-.122-.122v-.285c0-.081.041-.122.122-.122h2.049c.081 0 .122.041.122.122z"/><path d="M301.399 64.243h-7.095v-.99h2.13v-5.128c0-.122.067-.176.189-.176h.638c.108 0 .177.054.177.176v1.262c1.356-1.262 2.51-1.886 3.486-1.886 1.763 0 2.78 1.33 2.78 3.134v1.303c.001 1.437-.867 2.305-2.305 2.305zm1.302-2.306v-1.303a2.84 2.84 0 0 0-.271-1.262c-.299-.583-.801-.882-1.506-.882-.462 0-1.031.231-1.723.665a7.056 7.056 0 0 0-1.764 1.573v2.523h3.961c.897.002 1.303-.405 1.303-1.314zm-2.808-5.955v-.801c0-.122.055-.189.177-.189h.664c.122 0 .19.067.19.189v.801c0 .122-.068.176-.19.176h-.664c-.122 0-.177-.054-.177-.176z"/></g></svg>