<svg xmlns="http://www.w3.org/2000/svg" width="323.266" height="197.262" viewBox="0 0 323.266 197.262"><path fill="#FBFCFC" stroke="#91A4AD" stroke-miterlimit="10" d="M322.672 90.001c0 8.696-7.05 15.746-15.746 15.746H16.676C7.98 105.747.93 98.697.93 90.001V53.375c0-8.696 7.05-15.746 15.746-15.746h290.25c8.696 0 15.746 7.05 15.746 15.746v36.626zm0 87.045c0 11.027-7.755 19.967-17.32 19.967H17.726c-9.566 0-17.321-8.94-17.321-19.967s7.755-19.967 17.321-19.967h287.625c9.566 0 17.321 8.94 17.321 19.967z"/><path fill="#ED1C5C" d="M312.078 133.641c0 8.406-6.815 15.221-15.221 15.221h-34.116c-8.407 0-15.221-6.815-15.221-15.221 0-8.406 6.815-15.221 15.221-15.221h34.116c8.407 0 15.221 6.815 15.221 15.221zm0-118.17c0 8.406-6.815 15.221-15.221 15.221h-34.116c-8.407 0-15.221-6.815-15.221-15.221 0-8.406 6.815-15.221 15.221-15.221h34.116c8.407 0 15.221 6.815 15.221 15.221z"/><path d="M92.909 180.546h-.732c-.095 0-.136-.041-.136-.122v-.868c0-.081.041-.136.136-.136h.732c.082 0 .136.055.136.136v.868c0 .081-.054.122-.136.122zm5.727 1.465v.285c0 .081-.041.122-.122.122h-2.048c-.082 0-.122-.041-.122-.122v-.285c0-.082.041-.136.122-.136h2.048c.082 0 .122.054.122.136zm1.138-7.365c.556.556.828 1.234.828 2.021v1.018c0 .787-.271 1.465-.828 2.021-.556.556-1.234.841-2.021.841s-1.465-.285-2.021-.841a2.767 2.767 0 0 1-.841-2.021v-1.018c0-.786.285-1.465.841-2.021.556-.557 1.234-.842 2.021-.842s1.465.285 2.021.842zm-.162 3.038v-1.018c0-1.018-.841-1.872-1.858-1.872s-1.872.842-1.872 1.872v1.018c0 1.018.854 1.872 1.872 1.872s1.858-.855 1.858-1.872zm-3.283-5.399v-.746c0-.122.054-.177.176-.177h.678c.122 0 .176.055.176.177v.746c0 .122-.054.176-.176.176h-.678c-.122 0-.176-.054-.176-.176zm1.804 0v-.746c0-.122.068-.177.19-.177h.665c.122 0 .176.055.176.177v.746c0 .122-.054.176-.176.176h-.665c-.122 0-.19-.054-.19-.176zm6.353 7.271h.665v.99h-.638c-1.058 0-1.723-.665-1.723-1.723v-7.882c0-.122.054-.189.176-.189h.638c.122 0 .176.067.176.189v7.882c0 .502.217.733.706.733zm4.668-7.23v.285c0 .081-.041.122-.122.122h-2.048c-.082 0-.122-.041-.122-.122v-.285c0-.081.041-.122.122-.122h2.048c.082 0 .122.041.122.122z"/><path d="M107.58 178.81v-4.558c0-.122.067-.19.19-.19h.624c.122 0 .19.068.19.19v4.747c0 .149.027.258.109.34.135.136.407.217.8.217h.637v.99h-.461c-.665 0-1.167-.177-1.492-.502-.014-.014-.027-.014-.027-.027 0 .014-.027.055-.041.068-.312.312-.732.461-1.262.461h-2.035v-.99h2.062c.489 0 .706-.244.706-.746zm-.516 3.215v.787c0 .122-.054.189-.176.189h-.678c-.122 0-.176-.067-.176-.189v-.787c0-.122.054-.189.176-.189h.678c.122-.001.176.067.176.189zm1.818 0v.787c0 .122-.068.189-.19.189h-.665c-.122 0-.19-.067-.19-.189v-.787c0-.122.068-.189.19-.189h.665c.122-.001.19.067.19.189zm6.936-10.106v.285c0 .081-.041.122-.122.122h-2.048c-.082 0-.122-.041-.122-.122v-.285c0-.081.041-.122.122-.122h2.048c.082 0 .122.041.122.122z"/><path d="M116.834 178.24v-1.303a2.03 2.03 0 0 0-.624-1.506c-.42-.42-.909-.638-1.506-.638-.977 0-1.709.34-2.184 1.018l-.176.258a.185.185 0 0 1-.149.081c-.041 0-.067-.013-.108-.04l-.515-.366c-.041-.027-.055-.068-.068-.122v-.027c0-.041.013-.081.027-.108l.176-.258c.692-.949 1.696-1.425 2.998-1.425.868 0 1.601.313 2.211.923.611.61.922 1.343.922 2.211V179c0 .149.027.258.109.34.136.136.407.217.8.217h.638v.99h-.461c-.773 0-1.316-.217-1.642-.679-.407.462-.99.679-1.75.679h-5.738v-.99h5.738c.908-.001 1.302-.408 1.302-1.317zm4.143-9.875c0-.489.394-.896.882-.896s.882.406.882.896c0 .488-.394.881-.882.881s-.882-.393-.882-.881zm.529 0c0 .203.149.353.353.353.203 0 .353-.149.353-.353s-.163-.367-.353-.367-.353.162-.353.367z"/><path d="M121.356 178.823v-7.882c0-.122.054-.189.176-.189h.638c.122 0 .176.067.176.189v7.882c0 1.058-.678 1.723-1.723 1.723h-1.574v-.99h1.588c.502-.014.719-.244.719-.733zm4.004 1.723h-.651c-.122 0-.176-.055-.176-.177v-9.44c0-.122.054-.177.176-.177h.651c.108 0 .163.055.163.177v9.44c-.001.122-.055.177-.163.177zm8.182.597h4.246v-5.087c0-.624.203-1.153.651-1.587.434-.447.977-.665 1.601-.665s1.14.218 1.587.665c.447.434.665.963.665 1.587v3.5h1.709v.99h-2.197a.51.51 0 0 1-.502-.502v-3.988c0-.691-.57-1.262-1.262-1.262s-1.261.57-1.261 1.262v5.589a.498.498 0 0 1-.502.488h-4.762c-.787 0-1.465-.285-2.048-.854a2.824 2.824 0 0 1-.855-2.075c0-1.248.76-2.238 1.628-2.687l.285-.148c.027-.014.055-.014.082-.014.082 0 .136.04.163.095l.285.569c.014.041.027.068.027.096 0 .067-.027.108-.095.148l-.285.149c-.583.299-1.099.963-1.099 1.791a1.956 1.956 0 0 0 1.939 1.94zm1.316 2.469v.801c0 .122-.054.176-.176.176h-.678c-.122 0-.177-.054-.177-.176v-.801c0-.122.055-.189.177-.189h.678c.122-.001.176.067.176.189zm1.804 0v.801c0 .122-.054.176-.176.176h-.665c-.122 0-.19-.054-.19-.176v-.801c0-.122.068-.189.19-.189h.665c.122-.001.176.067.176.189z"/><path d="M151.008 180.546h-7.475v-.99h2.944a2.81 2.81 0 0 1-.692-1.872v-1.018c0-.786.285-1.479.841-2.034.556-.557 1.234-.842 2.021-.842s1.465.285 2.021.842c.556.556.841 1.248.841 2.034v3.378a.508.508 0 0 1-.501.502zm-2.361-.99h1.872v-2.89c0-1.03-.841-1.872-1.872-1.872a1.884 1.884 0 0 0-1.872 1.872v1.018c0 1.017.855 1.872 1.872 1.872zm-.678-7.271v-.801c0-.122.054-.189.176-.189h.665c.122 0 .19.067.19.189v.801c0 .122-.068.176-.19.176h-.665c-.122 0-.176-.054-.176-.176zm11.727 13.201v.285c0 .081-.041.122-.122.122h-2.048c-.082 0-.122-.041-.122-.122v-.285c0-.082.041-.136.122-.136h2.048c.082 0 .122.054.122.136zm2.997-7.246v-1.303c0-.583-.203-1.085-.624-1.506a2.07 2.07 0 0 0-1.519-.638c-.963 0-1.696.34-2.17 1.018l-.19.258c-.027.041-.054.055-.109.068h-.027c-.041 0-.068 0-.108-.027l-.516-.366c-.068-.041-.095-.082-.095-.136 0-.027.014-.068.041-.108l.19-.271c.583-.814 1.655-1.425 2.984-1.425.868 0 1.601.299 2.211.909s.922 1.356.922 2.225v1.303c0 1.451-.868 2.306-2.306 2.306h-2.781c-.624 0-1.004.529-1.004 1.18 0 .638.543 1.194 1.18 1.194h.828c.122 0 .176.054.176.176v.638c0 .122-.054.177-.176.177h-.828c-.597 0-1.099-.217-1.533-.638a2.155 2.155 0 0 1-.638-1.547c0-1.207.8-2.17 1.994-2.17h2.781c.911-.001 1.317-.408 1.317-1.317zm4.875 1.316h.664v.99h-.638c-1.058 0-1.723-.665-1.723-1.723v-7.882c0-.122.055-.189.177-.189h.638c.122 0 .176.067.176.189v7.882c0 .502.217.733.706.733zm6.256-7.637v.285c0 .081-.04.122-.122.122h-2.048c-.082 0-.122-.041-.122-.122v-.285c0-.081.04-.122.122-.122h2.048c.082 0 .122.041.122.122z"/><path d="M174.935 178.24v-1.303a2.03 2.03 0 0 0-.624-1.506 2.075 2.075 0 0 0-1.52-.638c-.963 0-1.683.34-2.171 1.018l-.189.258c-.041.055-.081.081-.136.081-.041 0-.067-.013-.108-.04l-.516-.366a.198.198 0 0 1-.081-.122v-.027c0-.041.014-.068.04-.108l.177-.258c.678-.949 1.682-1.425 2.984-1.425.868 0 1.614.299 2.225.909s.922 1.356.922 2.225V179c0 .163.027.271.109.354.136.136.406.203.8.203h.638v.99h-.461c-.773 0-1.303-.217-1.642-.679-.407.462-1.004.679-1.764.679h-5.725v-.99h5.725c.91-.015 1.317-.408 1.317-1.317zm-2.374 3.69v.8c0 .122-.055.177-.177.177h-.678c-.122 0-.177-.055-.177-.177v-.8c0-.122.055-.19.177-.19h.678c.123 0 .177.068.177.19zm8.525-14.923v-.8c0-.082.04-.122.122-.122h.284c.082 0 .109.04.109.122v.8a.856.856 0 0 1-1.439.624.88.88 0 0 1-.583.23.868.868 0 0 1-.854-.854v-.8c0-.082.04-.122.136-.122h.271c.096 0 .136.04.136.122v.8c0 .177.136.313.313.313.163 0 .325-.136.325-.313v-.8c0-.082.041-.122.122-.122h.271c.095 0 .136.04.136.122v.8c0 .177.149.313.325.313.176 0 .326-.15.326-.313zm.203 2.429v.285c0 .081-.04.122-.122.122h-2.048c-.082 0-.122-.041-.122-.122v-.285c0-.081.04-.122.122-.122h2.048c.082 0 .122.041.122.122z"/><path d="M179.919 178.81v-4.558c0-.122.067-.19.189-.19h.624c.122 0 .189.068.189.19v4.747c0 .149.027.258.109.34.135.136.406.217.8.217h.638v.99h-.461c-.665 0-1.167-.177-1.492-.502-.014-.014-.027-.014-.027-.027 0 .014-.027.055-.041.068-.312.312-.732.461-1.262.461h-2.034v-.99h2.062c.488 0 .706-.244.706-.746zm-.014-6.525v-.801c0-.122.054-.189.176-.189h.665c.122 0 .189.067.189.189v.801c0 .122-.067.176-.189.176h-.665c-.122 0-.176-.054-.176-.176z"/><path d="M184.438 178.823v-7.882c0-.122.054-.189.176-.189h.638c.122 0 .177.067.177.189v7.882c0 1.058-.679 1.723-1.723 1.723h-1.574v-.99h1.588c.501-.014.718-.244.718-.733zm4.004 1.723h-.651c-.122 0-.177-.055-.177-.177v-9.44c0-.122.055-.177.177-.177h.651c.108 0 .162.055.162.177v9.44c0 .122-.053.177-.162.177zm10.87-9.114c0 .461-.38.827-.8.882v.013h-1.614a.232.232 0 0 1-.231-.162l-.339-.746c-.014-.027-.014-.055-.014-.068 0-.04.014-.067.068-.095l.271-.122c.013 0 .026-.014.04-.014.068 0 .122.027.122.082l.271.597h.516a1.153 1.153 0 0 1-.068-.366c0-.488.394-.882.882-.882s.896.393.896.881zm-.895.366c.19 0 .353-.177.353-.366a.342.342 0 0 0-.353-.354c-.189 0-.366.163-.366.354 0 .189.176.366.366.366zm1.368 6.442v-1.303c0-.583-.203-1.085-.624-1.506a2.07 2.07 0 0 0-1.519-.638c-.964 0-1.696.34-2.171 1.018l-.189.258c-.027.041-.055.055-.109.068h-.026c-.041 0-.068 0-.108-.027l-.516-.366c-.068-.041-.096-.082-.096-.136 0-.027.014-.068.041-.108l.19-.271c.583-.814 1.654-1.425 2.984-1.425.868 0 1.601.299 2.211.909s.922 1.356.922 2.225v1.303c0 1.451-.868 2.306-2.306 2.306h-2.781c-.624 0-1.004.529-1.004 1.18 0 .638.543 1.194 1.181 1.194h.827c.122 0 .177.054.177.176v.638c0 .122-.055.177-.177.177h-.827c-.597 0-1.099-.217-1.533-.638a2.155 2.155 0 0 1-.638-1.547c0-1.207.801-2.17 1.994-2.17h2.781c.91-.001 1.316-.408 1.316-1.317zm4.875 1.316h.664v.99h-.638c-1.058 0-1.723-.665-1.723-1.723v-7.882c0-.122.055-.189.177-.189h.638c.122 0 .176.067.176.189v7.882c0 .502.217.733.706.733zm5.062-9.916v.285c0 .081-.041.122-.122.122h-2.049c-.081 0-.122-.041-.122-.122v-.285c0-.081.041-.122.122-.122h2.049c.081 0 .122.041.122.122z"/><path d="M208.053 178.81v-4.558c0-.122.068-.19.177-.19h.638c.122 0 .176.068.176.19v4.747c0 .149.041.258.122.34.136.136.407.217.801.217h.638v.99h-.462c-.664 0-1.18-.177-1.506-.502 0-.014-.013-.014-.013-.027l-.055.068c-.313.312-.719.461-1.248.461h-2.333v-.99h2.36c.488 0 .705-.258.705-.746zm-.936-6.525v-.801c0-.122.067-.189.189-.189h.679c.122 0 .176.067.176.189v.801c0 .122-.054.176-.176.176h-.679c-.122 0-.189-.054-.189-.176zm1.817 0v-.801c0-.122.055-.189.177-.189h.664c.122 0 .19.067.19.189v.801c0 .122-.068.176-.19.176h-.664c-.122 0-.177-.054-.177-.176zm5.254-3.214c0-.489.394-.896.882-.896s.882.406.882.896c0 .488-.394.881-.882.881s-.882-.393-.882-.881zm.53 0c0 .203.149.353.353.353s.353-.149.353-.353-.162-.367-.353-.367a.361.361 0 0 0-.353.367z"/><path d="M220.291 180.546h-10.024v-.99h2.943a2.753 2.753 0 0 1-.705-1.872v-1.018c0-.786.285-1.465.841-2.021a2.796 2.796 0 0 1 2.035-.842c.786 0 1.465.285 2.021.842.557.556.842 1.234.842 2.021v2.89h2.048l-.001.99zm-6.782-3.88v1.018c0 1.018.854 1.872 1.872 1.872h1.858v-2.89c0-1.03-.842-1.872-1.858-1.872a1.893 1.893 0 0 0-1.872 1.872zm1.179-4.381v-.801c0-.122.068-.189.19-.189h.664c.122 0 .19.067.19.189v.801c0 .122-.068.176-.19.176h-.664c-.121 0-.19-.054-.19-.176zm10.032 9.726v.285c0 .081-.041.122-.122.122h-2.049c-.081 0-.122-.041-.122-.122v-.285c0-.082.041-.136.122-.136h2.049c.081 0 .122.054.122.136z"/><path d="M226.956 174.646c.557.556.842 1.234.842 2.021v1.018c0 .787-.285 1.465-.842 2.021a2.797 2.797 0 0 1-2.034.841h-5.087v-.99h2.225v-2.89c0-.786.285-1.465.841-2.021a2.764 2.764 0 0 1 2.021-.842c.786 0 1.478.285 2.034.842zm-.162 3.038v-1.018c0-1.018-.854-1.872-1.872-1.872s-1.858.854-1.858 1.872v2.89h1.858a1.894 1.894 0 0 0 1.872-1.872zm19.133 1.139v-7.882c0-.122.067-.189.189-.189h.624c.122 0 .177.067.177.189v7.882c0 1.044-.665 1.723-1.71 1.723h-1.573c-.664 0-1.153-.163-1.492-.502l-.014-.014-.014-.014c0 .014 0 .027-.013.041-.014.014-.027.014-.027.027-.313.312-.732.461-1.248.461h-5.087a2.766 2.766 0 0 1-2.021-.841 2.767 2.767 0 0 1-.841-2.021v-1.018c0-.786.285-1.479.841-2.034a2.764 2.764 0 0 1 2.021-.842c.786 0 1.479.285 2.034.842.557.556.842 1.248.842 2.034v2.89h2.225c.475-.014.705-.23.705-.732v-6.81c0-.122.067-.177.189-.177h.624c.122 0 .19.055.19.177v6.985c0 .462.366.557.896.557h1.776c.489-.013.707-.23.707-.732zm-10.188.733h1.872v-2.89a1.893 1.893 0 0 0-1.872-1.872 1.864 1.864 0 0 0-1.858 1.872v1.018c0 1.031.827 1.872 1.858 1.872zm6.837-8.709a.75.75 0 0 1-.529-.189.735.735 0 0 1-.516.189.799.799 0 0 1-.8-.786v-.733c0-.081.04-.122.135-.122h.285c.082 0 .122.041.122.122v.733c0 .135.122.257.258.257s.244-.122.244-.257v-.733c0-.081.041-.122.122-.122h.285c.095 0 .136.041.136.122v.733c0 .176.095.257.258.257.162 0 .244-.081.244-.257v-.733c0-.081.054-.122.136-.122h.284c.082 0 .122.041.122.122v.733a.787.787 0 0 1-.786.786zm-.801-2.238v-1.248c0-.081.041-.122.122-.122h.285c.095 0 .136.041.136.122v1.248c0 .082-.041.122-.136.122h-.285c-.081 0-.122-.04-.122-.122zm9.03 10.947h.664v.99h-.638c-1.058 0-1.723-.665-1.723-1.723v-7.882c0-.122.055-.189.177-.189h.638c.122 0 .176.067.176.189v7.882c-.001.502.216.733.706.733zm3.624 5.034v.285c0 .081-.041.122-.122.122h-2.049c-.081 0-.122-.041-.122-.122v-.285c0-.082.041-.136.122-.136h2.049c.081 0 .122.054.122.136z"/><path d="M253.899 178.823v-4.571c0-.122.067-.19.189-.19h.624c.122 0 .189.068.189.19v4.558c0 1.058-.678 1.736-1.736 1.736h-2.034v-.99h2.034c.516-.014.734-.217.734-.733zm.109 3.107v.8c0 .122-.068.177-.177.177h-.665c-.122 0-.189-.055-.189-.177v-.8c0-.122.067-.19.189-.19h.665c.108 0 .177.068.177.19zm10.3-12.873c0 .461-.38.827-.801.882v.013h-1.614a.232.232 0 0 1-.23-.162l-.339-.746c-.014-.027-.014-.055-.014-.068 0-.04.014-.067.067-.095l.271-.122c.014 0 .027-.014.041-.014.067 0 .122.027.122.082l.271.597h.515a1.18 1.18 0 0 1-.067-.366c0-.488.394-.882.882-.882s.896.393.896.881zm-.895.366c.189 0 .353-.177.353-.366a.343.343 0 0 0-.353-.354c-.19 0-.366.163-.366.354 0 .189.175.366.366.366zm4.421 11.123h-4.992a2.767 2.767 0 0 1-2.021-.841 2.764 2.764 0 0 1-.842-2.021v-1.018c0-.786.285-1.479.842-2.034.556-.557 1.234-.842 2.021-.842s1.466.285 2.021.842c.557.556.841 1.248.841 2.034v2.89h2.13v.99zm-4.992-.99h1.872v-2.89c0-1.03-.841-1.872-1.872-1.872-1.03 0-1.872.854-1.872 1.872v1.018c0 1.017.855 1.872 1.872 1.872zm-1.615-7.271v-.801c0-.122.055-.189.177-.189h.678c.122 0 .177.067.177.189v.801c0 .122-.055.176-.177.176h-.678c-.122 0-.177-.054-.177-.176zm1.805 0v-.801c0-.122.067-.189.189-.189h.665c.122 0 .189.067.189.189v.801c0 .122-.067.176-.189.176h-.665c-.122 0-.189-.054-.189-.176zm10.356-2.645v.285c0 .081-.041.122-.122.122h-2.049c-.081 0-.122-.041-.122-.122v-.285c0-.081.041-.122.122-.122h2.049c.081 0 .122.041.122.122z"/><path d="M277.184 180.546H267.16v-.99h2.943a2.753 2.753 0 0 1-.705-1.872v-1.018c0-.786.285-1.465.841-2.021a2.796 2.796 0 0 1 2.035-.842c.786 0 1.465.285 2.021.842.557.556.842 1.234.842 2.021v2.89h2.048v.99h-.001zm-6.782-3.88v1.018c0 1.018.854 1.872 1.872 1.872h1.858v-2.89c0-1.018-.842-1.872-1.858-1.872a1.894 1.894 0 0 0-1.872 1.872zm.406-4.381v-.801c0-.122.055-.189.177-.189h.665c.122 0 .189.067.189.189v.801c0 .122-.067.176-.189.176h-.665c-.122 0-.177-.054-.177-.176zm1.805 0v-.801c0-.122.067-.189.189-.189h.665c.122 0 .177.067.177.189v.801c0 .122-.055.176-.177.176h-.665c-.122 0-.189-.054-.189-.176zm8.198-4.98v-.8c0-.082.041-.122.122-.122h.285c.081 0 .108.04.108.122v.8a.856.856 0 0 1-1.438.624.883.883 0 0 1-.584.23.868.868 0 0 1-.854-.854v-.8c0-.082.041-.122.136-.122h.271c.095 0 .136.04.136.122v.8c0 .177.136.313.312.313.163 0 .326-.136.326-.313v-.8c0-.082.04-.122.122-.122h.271c.095 0 .135.04.135.122v.8c0 .177.149.313.326.313.177-.001.326-.15.326-.313zm0 14.706v.285c0 .081-.04.122-.122.122h-2.048c-.082 0-.122-.041-.122-.122v-.285c0-.082.04-.136.122-.136h2.048c.082 0 .122.054.122.136z"/><path d="M279.428 178.81v-4.558c0-.122.067-.19.189-.19h.624c.122 0 .189.068.189.19v4.747c0 .149.027.258.109.34.136.136.42.217.813.217h.624v.99h-.461c-.679 0-1.167-.177-1.506-.516l-.014-.014c-.014.027-.027.055-.041.068-.312.312-.732.461-1.262.461h-1.967v-.99h1.994c.491.001.709-.243.709-.745zm-.91-6.525v-.801c0-.122.054-.189.176-.189h.665c.122 0 .177.067.177.189v.801c0 .122-.055.176-.177.176h-.665c-.122 0-.176-.054-.176-.176zm.896-1.696v-.8c0-.122.054-.177.176-.177h.665c.122 0 .189.055.189.177v.8c0 .122-.067.177-.189.177h-.665c-.122 0-.176-.055-.176-.177zm1.085.706h.665c.122 0 .189.067.189.189v.801c0 .122-.067.176-.189.176h-.665c-.122 0-.19-.054-.19-.176v-.801c-.001-.121.068-.189.19-.189z"/><path d="M283.947 178.823v-7.882c0-.122.054-.189.176-.189h.638c.122 0 .177.067.177.189v7.882c0 1.058-.679 1.723-1.723 1.723h-1.574v-.99h1.588c.501-.014.718-.244.718-.733zm4.004 1.723h-.651c-.122 0-.176-.055-.176-.177v-9.44c0-.122.054-.177.176-.177h.651c.108 0 .163.055.163.177v9.44c0 .122-.055.177-.163.177z"/><g fill="#231F20"><path d="M110.754 55.921v.868c0 .082-.041.122-.122.122h-.746c-.081 0-.122-.04-.122-.122v-.868c0-.081.041-.135.122-.135h.746c.082 0 .122.054.122.135zm0 5.263v.868c0 .081-.041.122-.122.122h-.746c-.081 0-.122-.041-.122-.122v-.868c0-.081.041-.136.122-.136h.746c.082.001.122.055.122.136zm8.141-8.234v.285c0 .081-.041.122-.122.122h-2.048c-.082 0-.122-.041-.122-.122v-.285c0-.081.041-.122.122-.122h2.048c.082 0 .122.041.122.122zm1.804 7.502V52.57c0-.122.054-.189.176-.189h.638c.122 0 .19.067.19.189v7.882c0 1.044-.679 1.723-1.723 1.723h-4.571c-.8 0-1.492-.285-2.076-.854-.569-.57-.854-1.262-.854-2.089 0-1.248.746-2.238 1.628-2.687l.285-.136c.027-.013.068-.013.095-.013.082 0 .122.04.149.095l.285.569c.014.027.027.041.027.068a.171.171 0 0 1-.095.162l-.285.149a2.027 2.027 0 0 0-1.099 1.791c0 .542.19 1.004.57 1.384s.841.569 1.37.569h4.558c.514.001.732-.229.732-.731zm-3.487-4.571v.786h1.384c.081 0 .135.041.135.122v.299c0 .081-.054.122-.135.122h-2.292c-.082 0-.136-.041-.136-.122v-.299c0-.081.054-.122.136-.122h.366v-.786c0-.557.475-1.031 1.031-1.031.448 0 .746.203.922.624l.054.136c0 .014.014.041.014.055 0 .054-.054.108-.082.122l-.257.108c-.014.014-.027.014-.055.014-.054 0-.095-.041-.122-.082l-.054-.136c-.081-.189-.217-.298-.42-.298a.504.504 0 0 0-.489.488zm9.39 7.963v.285c0 .081-.041.122-.122.122h-2.048c-.082 0-.122-.041-.122-.122v-.285c0-.082.041-.136.122-.136h2.048c.081 0 .122.054.122.136zm3.201-2.66h.624v.99h-.461c-.597 0-1.058-.189-1.424-.543-.082-.095-.122-.136-.122-.136-.394.462-1.004.679-1.845.679h-2.917c-.122 0-.176-.055-.176-.177v-.637c0-.122.054-.177.176-.177h2.917c.922 0 1.316-.258 1.316-1.14v-2.17c0-.787-.678-1.452-1.465-1.452-.57 0-1.004.108-1.289.313l-.258.176c-.041.027-.068.027-.109.027h-.027c-.054 0-.082-.027-.108-.067l-.366-.516a.155.155 0 0 1-.041-.108v-.026a.196.196 0 0 1 .082-.122l.244-.177c.461-.325 1.085-.488 1.872-.488.665 0 1.261.244 1.736.72.475.475.719 1.044.719 1.723v2.563c0 .501.407.745.922.745zm2.417-10.593c0-.489.394-.896.882-.896s.882.406.882.896c0 .488-.394.881-.882.881s-.882-.393-.882-.881zm.529 0c0 .203.149.353.353.353a.343.343 0 0 0 .353-.353c0-.204-.163-.367-.353-.367s-.353.163-.353.367z"/><path d="M132.857 60.438V55.88c0-.122.067-.19.19-.19h.624c.122 0 .19.068.19.19v4.747c0 .149.027.258.109.34.135.136.407.217.8.217h.637v.99h-.461c-.665 0-1.167-.177-1.492-.502-.014-.014-.027-.014-.027-.027 0 .014-.027.055-.041.068-.312.312-.732.461-1.262.461h-2.035v-.99h2.062c.489 0 .706-.244.706-.746zm-.013-6.524v-.801c0-.122.054-.189.176-.189h.665c.122 0 .19.067.19.189v.801c0 .122-.068.176-.19.176h-.665c-.122 0-.176-.054-.176-.176zm8.1 9.821v.285c0 .081-.041.122-.122.122h-2.048c-.082 0-.122-.041-.122-.122v-.285c0-.082.041-.136.122-.136h2.048c.081 0 .122.054.122.136z"/><path d="M139.478 61.184h3.418c.122 0 .176.055.176.177v.637c0 .122-.054.177-.176.177h-7.827v-.99h2.672a2.63 2.63 0 0 1-.407-1.411v-1.479c0-.786.285-1.479.841-2.034a2.763 2.763 0 0 1 2.021-.842 2.77 2.77 0 0 1 1.655.529c.488.339.8.773.922 1.289l.054.312c0 .027.014.041.014.068 0 .081-.041.122-.136.149l-.624.148h-.068c-.082 0-.136-.054-.149-.148l-.068-.299c-.122-.583-.882-1.045-1.601-1.045a1.885 1.885 0 0 0-1.872 1.872v1.479c.002.733.463 1.411 1.155 1.411zm10.517-9.291c0-.489.394-.896.882-.896s.882.406.882.896c0 .488-.394.881-.882.881s-.882-.392-.882-.881zm.528 0c0 .203.149.353.353.353a.343.343 0 0 0 .353-.353c0-.204-.163-.367-.353-.367s-.353.163-.353.367zm2.523 9.725v-5.737c0-.122.054-.19.176-.19h.624c.122 0 .19.068.19.19v5.304h2.048v.99h-2.103a2.848 2.848 0 0 1-1.003 1.695 2.838 2.838 0 0 1-1.886.692c-.814 0-1.506-.299-2.076-.868a2.83 2.83 0 0 1-.854-2.076v-3.201c0-.122.054-.176.176-.176h.638c.122 0 .176.054.176.176v3.201c0 1.072.882 1.954 1.94 1.954s1.954-.895 1.954-1.954zm-2.645-6.538v-.8c0-.122.054-.177.176-.177h.665c.122 0 .19.055.19.177v.8c0 .122-.068.177-.19.177h-.665c-.122 0-.176-.055-.176-.177z"/><path d="M162.679 56.274c.556.556.841 1.234.841 2.021v1.018c0 .787-.285 1.465-.841 2.021a2.797 2.797 0 0 1-2.035.841h-5.087v-.99h2.225v-2.89c0-.786.285-1.465.841-2.021.556-.557 1.234-.842 2.021-.842s1.479.286 2.035.842zm-.163 3.038v-1.018a1.893 1.893 0 0 0-1.872-1.872c-1.017 0-1.858.854-1.858 1.872v2.89h1.858a1.893 1.893 0 0 0 1.872-1.872zm9.961 6.608v.285c0 .081-.041.122-.122.122h-2.048c-.082 0-.122-.041-.122-.122v-.285c0-.082.041-.136.122-.136h2.048c.081 0 .122.054.122.136zm0 .976v.285c0 .081-.041.122-.122.122h-2.048c-.082 0-.122-.041-.122-.122v-.285c0-.081.041-.122.122-.122h2.048c.081 0 .122.041.122.122zm-.937-3.324c.529 0 .99-.19 1.37-.57s.57-.854.57-1.384V52.57c0-.122.054-.189.176-.189h.624c.122 0 .19.067.19.189v8.614h2.021v.99h-2.076a2.919 2.919 0 0 1-1.003 1.695 2.804 2.804 0 0 1-1.872.692 2.87 2.87 0 0 1-2.089-.868 2.83 2.83 0 0 1-.854-2.076v-3.201c0-.122.054-.176.176-.176h.638c.122 0 .176.054.176.176v3.201a1.962 1.962 0 0 0 1.953 1.955zm10.638-10.119v.285c0 .081-.041.122-.122.122h-2.048c-.082 0-.122-.041-.122-.122v-.285c0-.081.041-.122.122-.122h2.048c.081 0 .122.041.122.122z"/><path d="M184.578 61.184h1.018v.99h-.828c-.706 0-1.289-.285-1.628-.787a2.769 2.769 0 0 1-1.967.787h-5.223v-.99h2.36v-2.89c0-.786.285-1.479.841-2.034.556-.557 1.234-.842 2.021-.842s1.465.285 2.021.842c.556.556.841 1.248.841 2.034v1.018c0 .475-.108.909-.326 1.329.097.367.422.543.87.543zm-5.277-2.889v2.89h1.872a1.876 1.876 0 0 0 1.872-1.872v-1.018c0-1.03-.841-1.872-1.872-1.872s-1.872.854-1.872 1.872zm12.388-5.236c0 .475-.366.827-.8.882v.013h-1.736c-.082 0-.122-.04-.122-.122v-.284c0-.082.041-.122.122-.122h.841a.85.85 0 0 1-.081-.366c0-.476.407-.882.882-.882.487 0 .894.393.894.881zm-.895.367c.19 0 .366-.177.366-.366a.36.36 0 0 0-.719 0c0 .189.163.366.353.366z"/><path d="M192.299 59.869v-1.303a2.03 2.03 0 0 0-.624-1.506 2.071 2.071 0 0 0-1.52-.638c-.977 0-1.695.34-2.17 1.004l-.176.258c-.041.068-.082.095-.136.095-.041 0-.068-.013-.108-.04l-.516-.366c-.068-.041-.095-.082-.095-.136 0-.041.014-.082.041-.122l.176-.258c.57-.827 1.614-1.438 2.984-1.438.868 0 1.614.313 2.225.923.611.61.922 1.356.922 2.225v1.303c0 1.438-.868 2.306-2.306 2.306h-5.738v-.99h5.738c.909-.002 1.303-.409 1.303-1.317zm-2.374 3.689v.8c0 .122-.054.177-.176.177h-.665c-.122 0-.189-.055-.189-.177v-.8c0-.122.067-.19.189-.19h.665c.122 0 .176.068.176.19zm11.384-.787h4.246v-5.087c0-.624.203-1.153.651-1.587.434-.447.977-.665 1.601-.665s1.14.218 1.587.665c.447.434.665.963.665 1.587v3.5h1.709v.99h-2.197a.51.51 0 0 1-.502-.502v-3.988c0-.691-.57-1.262-1.262-1.262s-1.261.57-1.261 1.262v5.589a.498.498 0 0 1-.502.488h-4.762c-.787 0-1.465-.285-2.048-.854a2.827 2.827 0 0 1-.854-2.075c0-1.248.76-2.238 1.628-2.687l.285-.148c.027-.014.055-.014.082-.014.082 0 .136.04.163.095l.285.569c.014.041.027.068.027.096 0 .067-.027.108-.095.148l-.285.149c-.583.299-1.099.963-1.099 1.791a1.953 1.953 0 0 0 1.938 1.94zm1.315 2.469v.801c0 .122-.054.176-.176.176h-.678c-.122 0-.177-.054-.177-.176v-.801c0-.122.055-.189.177-.189h.678c.122 0 .176.067.176.189zm1.805 0v.801c0 .122-.054.176-.176.176h-.665c-.122 0-.19-.054-.19-.176v-.801c0-.122.068-.189.19-.189h.665c.121 0 .176.067.176.189z"/><path d="M218.77 62.175h-7.475v-.99h2.944a2.81 2.81 0 0 1-.692-1.872v-1.018c0-.786.285-1.479.841-2.034a2.763 2.763 0 0 1 2.021-.842c.787 0 1.465.285 2.021.842.556.556.841 1.248.841 2.034v3.378a.509.509 0 0 1-.501.502zm-2.36-.991h1.872v-2.89c0-1.03-.841-1.872-1.872-1.872a1.884 1.884 0 0 0-1.872 1.872v1.018c0 1.018.854 1.872 1.872 1.872zm-.679-7.27v-.801c0-.122.054-.189.176-.189h.665c.122 0 .19.067.19.189v.801c0 .122-.068.176-.19.176h-.665c-.121 0-.176-.054-.176-.176zm11.56 8.857h4.246v-5.087c0-.624.203-1.153.651-1.587.434-.447.977-.665 1.601-.665s1.14.218 1.587.665c.447.434.665.963.665 1.587v3.5h1.709v.99h-2.197a.51.51 0 0 1-.502-.502v-3.988c0-.691-.57-1.262-1.262-1.262s-1.261.57-1.261 1.262v5.589a.498.498 0 0 1-.502.488h-4.762c-.787 0-1.465-.285-2.048-.854a2.824 2.824 0 0 1-.855-2.075c0-1.248.76-2.238 1.628-2.687l.285-.148c.027-.014.055-.014.082-.014.082 0 .136.04.163.095l.285.569c.014.041.027.068.027.096 0 .067-.027.108-.095.148l-.285.149c-.583.299-1.099.963-1.099 1.791 0 1.059.881 1.94 1.939 1.94zm1.316 2.469v.801c0 .122-.054.176-.176.176h-.678c-.122 0-.177-.054-.177-.176v-.801c0-.122.055-.189.177-.189h.678c.122 0 .176.067.176.189zm1.805 0v.801c0 .122-.054.176-.176.176h-.665c-.122 0-.19-.054-.19-.176v-.801c0-.122.068-.189.19-.189h.665c.121 0 .176.067.176.189z"/><path d="M240.345 60.452v-4.571c0-.122.068-.19.176-.19h.638c.108 0 .176.068.176.19v4.571c0 1.058-.678 1.723-1.723 1.723h-2.333v-.99h2.361c.487-.014.705-.245.705-.733zm-.923-6.538v-.801c0-.122.068-.189.19-.189h.651c.122 0 .19.067.19.189v.801c0 .122-.068.176-.19.176h-.651c-.122 0-.19-.054-.19-.176zm2.835-.801v.801c0 .122-.054.176-.176.176h-.665c-.122 0-.189-.054-.189-.176v-.801c0-.122.067-.189.189-.189h.665c.122 0 .176.067.176.189zm1.901-2.971v.787h1.383c.082 0 .136.054.136.136v.284c0 .082-.054.122-.136.122h-2.306c-.082 0-.122-.04-.122-.122v-.284c0-.082.041-.136.122-.136h.379v-.787c0-.557.461-1.018 1.018-1.018.448 0 .76.204.936.61l.054.149c.014.014.014.027.014.041 0 .054-.041.095-.082.122l-.271.108c-.014.014-.041.014-.055.014-.054 0-.081-.055-.095-.082l-.068-.135a.43.43 0 0 0-.434-.285.482.482 0 0 0-.473.476zm1.465 11.042h.638v.99h-.638c-1.072 0-1.736-.691-1.736-1.736V52.57c0-.122.068-.189.19-.189h.624c.122 0 .19.067.19.189v7.868c-.001.516.216.746.732.746z"/><path d="M248.024 62.175h-2.103v-.99h2.116c.502-.014.719-.23.719-.732v-4.571c0-.122.055-.19.177-.19h.637c.122 0 .176.068.176.19v4.571c.001 1.043-.678 1.722-1.722 1.722zm-.339 1.478v.787c0 .122-.068.189-.19.189h-.665c-.122 0-.177-.067-.177-.189v-.787c0-.122.055-.189.177-.189h.665c.122 0 .19.067.19.189zm1.804 0v.787c0 .122-.054.189-.176.189h-.679c-.122 0-.176-.067-.176-.189v-.787c0-.122.054-.189.176-.189h.679c.122 0 .176.067.176.189zm7.504-2.469h.665v.99h-.638c-1.058 0-1.723-.665-1.723-1.723V52.57c0-.122.054-.189.176-.189h.638c.122 0 .176.067.176.189v7.882c0 .502.217.732.706.732zm6.458-7.528v.285c0 .081-.041.122-.122.122h-2.048c-.082 0-.122-.041-.122-.122v-.285c0-.081.041-.122.122-.122h2.048c.081 0 .122.041.122.122z"/><path d="M264.44 56.274c.556.556.841 1.234.841 2.021v1.018c0 .787-.285 1.465-.841 2.021a2.797 2.797 0 0 1-2.035.841h-5.087v-.99h2.225v-2.89c0-.786.285-1.465.841-2.021.556-.557 1.234-.842 2.021-.842s1.479.286 2.035.842zm-.163 3.038v-1.018a1.893 1.893 0 0 0-1.872-1.872c-1.017 0-1.858.854-1.858 1.872v2.89h1.858a1.893 1.893 0 0 0 1.872-1.872zm9.893-6.13c0-.489.394-.896.882-.896s.882.406.882.896c0 .488-.394.881-.882.881s-.882-.392-.882-.881zm.529 0c0 .203.149.353.353.353a.343.343 0 0 0 .353-.353c0-.204-.163-.367-.353-.367s-.353.163-.353.367zm-2.347 8.002h.977L272 58.349a.681.681 0 0 1-.041-.217v-.068c.095-.664.434-1.262.991-1.79.61-.557 1.289-.842 2.048-.842.773 0 1.452.258 2.048.787.597.529.936 1.153.99 1.872v.054a.53.53 0 0 1-.041.204l-1.329 2.835h2.686v.99h-7c-.638 0-1.004.529-1.004 1.18 0 .651.543 1.194 1.194 1.194h1.167c.122 0 .19.054.19.176v.638c0 .122-.068.177-.19.177h-1.167c-.61 0-1.126-.217-1.546-.638a2.1 2.1 0 0 1-.638-1.547c-.001-1.207.8-2.17 1.994-2.17zm.624-3.12l1.452 3.12h1.139l1.465-3.134c-.068-.447-.312-.813-.706-1.14-.407-.325-.841-.488-1.33-.488-.962.001-1.831.829-2.02 1.642zm13.351-7v.285c0 .081-.041.122-.122.122h-2.048c-.082 0-.122-.041-.122-.122v-.285c0-.081.041-.122.122-.122h2.048c.082 0 .122.041.122.122z"/><path d="M286.109 62.175h-7.095v-.99h2.13v-5.128c0-.122.068-.176.19-.176h.637c.109 0 .177.054.177.176v1.262c1.356-1.262 2.509-1.886 3.486-1.886 1.764 0 2.781 1.33 2.781 3.134v1.303c0 1.437-.868 2.305-2.306 2.305zm1.302-2.306v-1.303a2.84 2.84 0 0 0-.271-1.262c-.298-.583-.8-.882-1.506-.882-.461 0-1.031.231-1.723.665a7.034 7.034 0 0 0-1.763 1.573v2.523h3.961c.895.001 1.302-.406 1.302-1.314zm-2.808-5.955v-.801c0-.122.054-.189.176-.189h.665c.123 0 .19.067.19.189v.801c0 .122-.067.176-.19.176h-.665c-.122 0-.176-.054-.176-.176zM35.409 93.382h-.732c-.095 0-.136-.041-.136-.122v-.868c0-.081.041-.136.136-.136h.732c.082 0 .136.055.136.136v.868c-.001.081-.055.122-.136.122zm2.714 0h-.733c-.095 0-.136-.041-.136-.122v-.868c0-.081.041-.136.136-.136h.732c.082 0 .136.055.136.136v.868c0 .081-.054.122-.135.122zm2.713 0h-.732c-.095 0-.136-.041-.136-.122v-.868c0-.081.041-.136.136-.136h.732c.082 0 .136.055.136.136v.868c0 .081-.055.122-.136.122zm2.714 0h-.732c-.095 0-.136-.041-.136-.122v-.868c0-.081.041-.136.136-.136h.732c.082 0 .136.055.136.136v.868c0 .081-.055.122-.136.122zm2.713 0h-.732c-.095 0-.136-.041-.136-.122v-.868c0-.081.041-.136.136-.136h.732c.082 0 .136.055.136.136v.868c0 .081-.054.122-.136.122zm2.714 0h-.732c-.095 0-.136-.041-.136-.122v-.868c0-.081.041-.136.136-.136h.732c.082 0 .136.055.136.136v.868c0 .081-.054.122-.136.122zm2.714 0h-.732c-.095 0-.136-.041-.136-.122v-.868c0-.081.041-.136.136-.136h.732c.082 0 .136.055.136.136v.868c0 .081-.055.122-.136.122zm2.713 0h-.732c-.095 0-.136-.041-.136-.122v-.868c0-.081.041-.136.136-.136h.732c.082 0 .136.055.136.136v.868c0 .081-.054.122-.136.122zm2.714 0h-.732c-.095 0-.136-.041-.136-.122v-.868c0-.081.041-.136.136-.136h.732c.082 0 .136.055.136.136v.868c0 .081-.054.122-.136.122zm2.714 0H59.1c-.095 0-.136-.041-.136-.122v-.868c0-.081.041-.136.136-.136h.732c.082 0 .136.055.136.136v.868c-.001.081-.055.122-.136.122zm2.713 0h-.732c-.095 0-.136-.041-.136-.122v-.868c0-.081.041-.136.136-.136h.732c.082 0 .136.055.136.136v.868c0 .081-.054.122-.136.122zm2.714 0h-.732c-.095 0-.136-.041-.136-.122v-.868c0-.081.041-.136.136-.136h.732c.082 0 .136.055.136.136v.868c-.001.081-.055.122-.136.122zm2.714 0h-.733c-.095 0-.136-.041-.136-.122v-.868c0-.081.041-.136.136-.136h.732c.082 0 .136.055.136.136v.868c0 .081-.054.122-.135.122zm2.713 0h-.732c-.095 0-.136-.041-.136-.122v-.868c0-.081.041-.136.136-.136h.732c.082 0 .136.055.136.136v.868c0 .081-.054.122-.136.122zm2.714 0h-.732c-.095 0-.136-.041-.136-.122v-.868c0-.081.041-.136.136-.136h.732c.082 0 .136.055.136.136v.868c0 .081-.055.122-.136.122zm2.714 0h-.732c-.095 0-.136-.041-.136-.122v-.868c0-.081.041-.136.136-.136h.732c.082 0 .136.055.136.136v.868c-.001.081-.055.122-.136.122zm2.713 0h-.732c-.095 0-.136-.041-.136-.122v-.868c0-.081.041-.136.136-.136h.732c.082 0 .136.055.136.136v.868c0 .081-.054.122-.136.122zm2.714 0h-.732c-.095 0-.136-.041-.136-.122v-.868c0-.081.041-.136.136-.136h.732c.082 0 .136.055.136.136v.868c0 .081-.054.122-.136.122zm2.713 0h-.732c-.095 0-.136-.041-.136-.122v-.868c0-.081.041-.136.136-.136h.732c.082 0 .136.055.136.136v.868c0 .081-.054.122-.136.122zm2.714 0h-.732c-.095 0-.136-.041-.136-.122v-.868c0-.081.041-.136.136-.136h.732c.082 0 .136.055.136.136v.868c0 .081-.054.122-.136.122zm2.714 0h-.732c-.095 0-.136-.041-.136-.122v-.868c0-.081.041-.136.136-.136h.732c.082 0 .136.055.136.136v.868c-.001.081-.055.122-.136.122zm2.713 0h-.732c-.095 0-.136-.041-.136-.122v-.868c0-.081.041-.136.136-.136h.732c.082 0 .136.055.136.136v.868c0 .081-.054.122-.136.122zm2.714 0h-.732c-.095 0-.136-.041-.136-.122v-.868c0-.081.041-.136.136-.136h.732c.082 0 .136.055.136.136v.868c0 .081-.054.122-.136.122zm2.714 0h-.733c-.095 0-.136-.041-.136-.122v-.868c0-.081.041-.136.136-.136h.732c.082 0 .136.055.136.136v.868c0 .081-.054.122-.135.122zm2.714 0h-.732c-.095 0-.136-.041-.136-.122v-.868c0-.081.041-.136.136-.136h.732c.082 0 .136.055.136.136v.868c-.001.081-.055.122-.136.122zm2.713 0h-.732c-.095 0-.136-.041-.136-.122v-.868c0-.081.041-.136.136-.136h.732c.082 0 .136.055.136.136v.868c0 .081-.055.122-.136.122zm2.714 0h-.732c-.095 0-.136-.041-.136-.122v-.868c0-.081.041-.136.136-.136h.732c.082 0 .136.055.136.136v.868c0 .081-.055.122-.136.122zm2.713 0h-.732c-.095 0-.136-.041-.136-.122v-.868c0-.081.041-.136.136-.136h.732c.082 0 .136.055.136.136v.868c0 .081-.054.122-.136.122zm2.714 0h-.732c-.095 0-.136-.041-.136-.122v-.868c0-.081.041-.136.136-.136h.732c.082 0 .136.055.136.136v.868c0 .081-.054.122-.136.122zm2.713 0h-.732c-.095 0-.136-.041-.136-.122v-.868c0-.081.041-.136.136-.136h.732c.082 0 .136.055.136.136v.868c0 .081-.054.122-.136.122zm2.714 0h-.732c-.095 0-.136-.041-.136-.122v-.868c0-.081.041-.136.136-.136h.732c.082 0 .136.055.136.136v.868c0 .081-.054.122-.136.122zm2.714 0h-.732c-.095 0-.136-.041-.136-.122v-.868c0-.081.041-.136.136-.136h.732c.082 0 .136.055.136.136v.868c0 .081-.054.122-.136.122zm2.714 0h-.732c-.095 0-.136-.041-.136-.122v-.868c0-.081.041-.136.136-.136h.732c.082 0 .136.055.136.136v.868c-.001.081-.055.122-.136.122zm2.713 0h-.732c-.095 0-.136-.041-.136-.122v-.868c0-.081.041-.136.136-.136h.732c.082 0 .136.055.136.136v.868c0 .081-.054.122-.136.122zm2.714 0h-.732c-.095 0-.136-.041-.136-.122v-.868c0-.081.041-.136.136-.136h.732c.082 0 .136.055.136.136v.868c0 .081-.055.122-.136.122zm2.714 0h-.732c-.095 0-.136-.041-.136-.122v-.868c0-.081.041-.136.136-.136h.732c.082 0 .136.055.136.136v.868c-.001.081-.055.122-.136.122zm2.713 0h-.732c-.095 0-.136-.041-.136-.122v-.868c0-.081.041-.136.136-.136h.732c.082 0 .136.055.136.136v.868c0 .081-.054.122-.136.122zm2.714 0h-.732c-.095 0-.136-.041-.136-.122v-.868c0-.081.041-.136.136-.136h.732c.082 0 .136.055.136.136v.868c0 .081-.055.122-.136.122zm2.713 0h-.732c-.095 0-.136-.041-.136-.122v-.868c0-.081.041-.136.136-.136h.732c.082 0 .136.055.136.136v.868c0 .081-.054.122-.136.122zm2.714 0h-.732c-.095 0-.136-.041-.136-.122v-.868c0-.081.041-.136.136-.136h.732c.082 0 .136.055.136.136v.868c0 .081-.054.122-.136.122zm2.714 0h-.732c-.095 0-.136-.041-.136-.122v-.868c0-.081.041-.136.136-.136h.732c.082 0 .136.055.136.136v.868c0 .081-.054.122-.136.122zm2.713 0h-.732c-.095 0-.136-.041-.136-.122v-.868c0-.081.041-.136.136-.136h.732c.082 0 .136.055.136.136v.868c0 .081-.054.122-.136.122zm2.714 0h-.732c-.095 0-.136-.041-.136-.122v-.868c0-.081.041-.136.136-.136h.732c.082 0 .136.055.136.136v.868c0 .081-.054.122-.136.122zm2.714 0h-.732c-.095 0-.136-.041-.136-.122v-.868c0-.081.041-.136.136-.136h.732c.082 0 .136.055.136.136v.868c-.001.081-.055.122-.136.122zm2.714 0h-.732c-.095 0-.136-.041-.136-.122v-.868c0-.081.041-.136.136-.136h.732c.082 0 .136.055.136.136v.868c-.001.081-.055.122-.136.122zm2.713 0h-.732c-.095 0-.136-.041-.136-.122v-.868c0-.081.041-.136.136-.136h.732c.082 0 .136.055.136.136v.868c0 .081-.055.122-.136.122zm2.714 0h-.732c-.095 0-.136-.041-.136-.122v-.868c0-.081.041-.136.136-.136h.732c.082 0 .136.055.136.136v.868c0 .081-.055.122-.136.122zm2.714 0h-.732c-.095 0-.136-.041-.136-.122v-.868c0-.081.041-.136.136-.136h.732c.082 0 .136.055.136.136v.868c-.001.081-.055.122-.136.122zm2.713 0h-.732c-.095 0-.136-.041-.136-.122v-.868c0-.081.041-.136.136-.136h.732c.082 0 .136.055.136.136v.868c0 .081-.054.122-.136.122zm2.714 0h-.732c-.095 0-.136-.041-.136-.122v-.868c0-.081.041-.136.136-.136h.732c.082 0 .136.055.136.136v.868c0 .081-.055.122-.136.122zm2.713 0h-.732c-.095 0-.136-.041-.136-.122v-.868c0-.081.041-.136.136-.136h.732c.082 0 .136.055.136.136v.868c0 .081-.054.122-.136.122zm2.714 0h-.732c-.095 0-.136-.041-.136-.122v-.868c0-.081.041-.136.136-.136h.732c.082 0 .136.055.136.136v.868c0 .081-.054.122-.136.122zm2.714 0h-.732c-.095 0-.136-.041-.136-.122v-.868c0-.081.041-.136.136-.136h.732c.082 0 .136.055.136.136v.868c-.001.081-.055.122-.136.122zm2.713 0h-.732c-.095 0-.136-.041-.136-.122v-.868c0-.081.041-.136.136-.136h.732c.082 0 .136.055.136.136v.868c0 .081-.054.122-.136.122zm2.714 0h-.732c-.095 0-.136-.041-.136-.122v-.868c0-.081.041-.136.136-.136h.732c.082 0 .136.055.136.136v.868c0 .081-.054.122-.136.122zm2.714 0h-.732c-.095 0-.136-.041-.136-.122v-.868c0-.081.041-.136.136-.136h.732c.082 0 .136.055.136.136v.868c-.001.081-.055.122-.136.122zm2.713 0h-.732c-.095 0-.136-.041-.136-.122v-.868c0-.081.041-.136.136-.136h.732c.082 0 .136.055.136.136v.868c0 .081-.054.122-.136.122zm2.714 0h-.732c-.095 0-.136-.041-.136-.122v-.868c0-.081.041-.136.136-.136h.732c.082 0 .136.055.136.136v.868c0 .081-.055.122-.136.122zm2.714 0h-.732c-.095 0-.136-.041-.136-.122v-.868c0-.081.041-.136.136-.136h.732c.082 0 .136.055.136.136v.868c-.001.081-.055.122-.136.122zm2.713 0h-.732c-.095 0-.136-.041-.136-.122v-.868c0-.081.041-.136.136-.136h.732c.082 0 .136.055.136.136v.868c0 .081-.054.122-.136.122zm2.714 0h-.732c-.095 0-.136-.041-.136-.122v-.868c0-.081.041-.136.136-.136h.732c.082 0 .136.055.136.136v.868c0 .081-.054.122-.136.122zm2.713 0h-.732c-.095 0-.136-.041-.136-.122v-.868c0-.081.041-.136.136-.136h.732c.082 0 .136.055.136.136v.868c0 .081-.054.122-.136.122zm2.714 0h-.732c-.095 0-.136-.041-.136-.122v-.868c0-.081.041-.136.136-.136h.732c.082 0 .136.055.136.136v.868c0 .081-.054.122-.136.122zm2.714 0h-.732c-.095 0-.136-.041-.136-.122v-.868c0-.081.041-.136.136-.136h.732c.082 0 .136.055.136.136v.868c0 .081-.054.122-.136.122zm2.713 0h-.732c-.095 0-.136-.041-.136-.122v-.868c0-.081.041-.136.136-.136h.732c.082 0 .136.055.136.136v.868c0 .081-.054.122-.136.122zm2.714 0h-.732c-.095 0-.136-.041-.136-.122v-.868c0-.081.041-.136.136-.136h.732c.082 0 .136.055.136.136v.868c0 .081-.054.122-.136.122zm2.714 0h-.732c-.095 0-.136-.041-.136-.122v-.868c0-.081.041-.136.136-.136h.732c.082 0 .136.055.136.136v.868c-.001.081-.055.122-.136.122zm2.714 0h-.732c-.095 0-.136-.041-.136-.122v-.868c0-.081.041-.136.136-.136h.732c.082 0 .136.055.136.136v.868c-.001.081-.055.122-.136.122zm2.713 0h-.732c-.095 0-.136-.041-.136-.122v-.868c0-.081.041-.136.136-.136h.732c.082 0 .136.055.136.136v.868c0 .081-.054.122-.136.122zm2.714 0h-.732c-.095 0-.136-.041-.136-.122v-.868c0-.081.041-.136.136-.136h.732c.082 0 .136.055.136.136v.868c0 .081-.055.122-.136.122zm6.201-6.254v.868c0 .082-.041.122-.122.122h-.746c-.081 0-.122-.04-.122-.122v-.868c0-.081.041-.135.122-.135h.746c.081 0 .122.054.122.135zm0 5.263v.868c0 .081-.041.122-.122.122h-.746c-.081 0-.122-.041-.122-.122v-.868c0-.081.041-.136.122-.136h.746c.081.001.122.055.122.136zm14.772-.732v-7.882c0-.122.068-.189.19-.189h.624c.122 0 .176.067.176.189v7.882c0 1.044-.665 1.723-1.709 1.723h-1.573c-.665 0-1.153-.163-1.492-.502l-.014-.014-.014-.014c0 .014 0 .027-.013.041-.014.014-.027.014-.027.027-.312.312-.732.461-1.248.461h-5.087a2.766 2.766 0 0 1-2.021-.841 2.767 2.767 0 0 1-.841-2.021v-1.018c0-.786.285-1.479.841-2.034.556-.557 1.234-.842 2.021-.842s1.479.285 2.035.842c.556.556.841 1.248.841 2.034v2.89h2.225c.475-.014.705-.23.705-.732v-6.81c0-.122.068-.177.19-.177h.624c.122 0 .19.055.19.177v6.985c0 .462.366.557.896.557h1.777c.487-.013.704-.23.704-.732zm-10.187.732h1.872v-2.89a1.893 1.893 0 0 0-1.872-1.872 1.864 1.864 0 0 0-1.858 1.872v1.018c0 1.032.827 1.872 1.858 1.872zm6.837-8.709a.75.75 0 0 1-.529-.189.734.734 0 0 1-.515.189.799.799 0 0 1-.8-.786v-.733c0-.081.041-.122.135-.122h.285c.082 0 .122.041.122.122v.733c0 .135.122.257.258.257s.244-.122.244-.257v-.733c0-.081.041-.122.122-.122h.285c.095 0 .136.041.136.122v.733c0 .176.095.257.258.257s.244-.081.244-.257v-.733c0-.081.054-.122.136-.122h.285c.082 0 .122.041.122.122v.733a.788.788 0 0 1-.788.786zm-.8-2.238v-1.248c0-.081.041-.122.122-.122h.285c.095 0 .136.041.136.122v1.248c0 .082-.041.122-.136.122h-.285c-.082 0-.122-.04-.122-.122zm9.024 10.947h.665v.99h-.638c-1.058 0-1.723-.665-1.723-1.723v-7.882c0-.122.054-.189.176-.189h.638c.122 0 .176.067.176.189v7.882c.001.503.218.733.706.733z"/><path d="M251.592 91.659v-4.571c0-.122.067-.19.19-.19h.624c.122 0 .19.068.19.19v4.558c0 1.058-.678 1.736-1.736 1.736h-2.035v-.99h2.035c.514-.014.732-.217.732-.733zm.108 3.107v.8c0 .122-.068.177-.176.177h-.665c-.122 0-.19-.055-.19-.177v-.8c0-.122.068-.19.19-.19h.665c.108-.001.176.067.176.19zm10.217-12.874c0 .475-.366.827-.8.882v.013h-1.736c-.082 0-.122-.04-.122-.122v-.284c0-.082.041-.122.122-.122h.841a.85.85 0 0 1-.081-.366c0-.476.407-.882.882-.882.487 0 .894.393.894.881zm-.895.367a.384.384 0 0 0 .366-.366.36.36 0 0 0-.719 0c0 .189.163.366.353.366zm4.503 11.123h-4.992a2.766 2.766 0 0 1-2.021-.841 2.767 2.767 0 0 1-.841-2.021v-1.018c0-.786.285-1.479.841-2.034.556-.557 1.234-.842 2.021-.842s1.465.285 2.021.842c.556.556.841 1.248.841 2.034v2.89h2.13v.99zm-4.992-.991h1.872v-2.89c0-1.03-.841-1.872-1.872-1.872a1.884 1.884 0 0 0-1.872 1.872v1.018c0 1.018.855 1.872 1.872 1.872zm-1.615-7.27v-.801c0-.122.054-.189.176-.189h.678c.122 0 .177.067.177.189v.801c0 .122-.055.176-.177.176h-.678c-.121 0-.176-.054-.176-.176zm1.805 0v-.801c0-.122.068-.189.19-.189h.665c.122 0 .19.067.19.189v.801c0 .122-.068.176-.19.176h-.665c-.123 0-.19-.054-.19-.176z"/><path d="M267.683 92.391v.99h-2.767v-.99h2.767z"/><path d="M277.492 93.382h-10.025v-.99h2.944a2.754 2.754 0 0 1-.706-1.872v-1.018c0-.786.285-1.465.841-2.021a2.794 2.794 0 0 1 2.035-.842c.787 0 1.465.285 2.021.842.556.556.841 1.234.841 2.021v2.89h2.048v.99zm-6.783-3.88v1.018c0 1.018.854 1.872 1.872 1.872h1.858v-2.89c0-1.018-.841-1.872-1.858-1.872a1.893 1.893 0 0 0-1.872 1.872zm.407-4.381v-.801c0-.122.054-.189.177-.189h.665c.122 0 .19.067.19.189v.801c0 .122-.068.176-.19.176h-.665c-.123 0-.177-.054-.177-.176zm1.804 0v-.801c0-.122.068-.189.19-.189h.665c.123 0 .177.067.177.189v.801c0 .122-.054.176-.177.176h-.665c-.122 0-.19-.054-.19-.176zm8.196-4.98v-.8c0-.082.041-.122.122-.122h.285c.082 0 .109.04.109.122v.8a.856.856 0 0 1-1.438.624.88.88 0 0 1-.583.23.868.868 0 0 1-.854-.854v-.8c0-.082.041-.122.136-.122h.271c.095 0 .136.04.136.122v.8c0 .177.136.313.312.313.163 0 .326-.136.326-.313v-.8c0-.082.041-.122.122-.122h.271c.095 0 .135.04.135.122v.8c0 .177.149.313.326.313s.324-.149.324-.313zm0 14.706v.285c0 .081-.041.122-.122.122h-2.048c-.082 0-.122-.041-.122-.122v-.285c0-.082.041-.136.122-.136h2.048c.081 0 .122.054.122.136z"/><path d="M279.732 91.645v-4.558c0-.122.068-.19.19-.19h.624c.122 0 .189.068.189.19v4.747c0 .149.027.258.109.34.136.136.42.217.814.217h.624v.99h-.461c-.678 0-1.167-.177-1.506-.516l-.014-.014a.258.258 0 0 1-.041.068c-.312.312-.732.461-1.262.461h-1.967v-.99h1.994c.49.001.707-.243.707-.745zm-.909-6.524v-.801c0-.122.054-.189.176-.189h.665c.122 0 .176.067.176.189v.801c0 .122-.054.176-.176.176h-.665c-.122 0-.176-.054-.176-.176zm.895-1.696v-.8c0-.122.054-.177.176-.177h.665c.122 0 .19.055.19.177v.8c0 .122-.068.177-.19.177h-.665c-.122-.001-.176-.055-.176-.177zm1.085.706h.665c.122 0 .19.067.19.189v.801c0 .122-.068.176-.19.176h-.665c-.122 0-.19-.054-.19-.176v-.801c0-.122.068-.189.19-.189z"/><path d="M284.25 91.659v-7.882c0-.122.054-.189.176-.189h.638c.122 0 .176.067.176.189v7.882c0 1.058-.678 1.723-1.723 1.723h-1.574v-.99h1.588c.503-.014.719-.245.719-.733zm4.003 1.723h-.651c-.122 0-.176-.055-.176-.177v-9.44c0-.122.054-.177.176-.177h.651c.108 0 .163.055.163.177v9.44c0 .122-.054.177-.163.177z"/></g><g fill="#FFF"><path d="M268.704 135.473v-4.834c0-.133.073-.191.206-.191h.69c.132 0 .191.059.191.191v4.834c0 1.132-.735 1.881-1.881 1.881h-5.128a3.064 3.064 0 0 1-2.249-.926 3.117 3.117 0 0 1-.925-2.263c0-1.352.823-2.425 1.763-2.909l.309-.147c.029-.015.059-.015.088-.015.103 0 .147.029.177.103l.308.617c.03.044.044.074.044.104 0 .059-.029.117-.118.161l-.309.147a2.166 2.166 0 0 0-1.19 1.939c0 .588.206 1.087.617 1.499a2.02 2.02 0 0 0 1.484.603h5.187c.515 0 .736-.265.736-.794zm-2.939 3.38v.793c0 .133-.059.191-.191.191h-.735c-.132 0-.191-.059-.191-.191v-.793c0-.133.059-.206.191-.206h.735c.133-.001.191.073.191.206zm7.29-1.499h-.706c-.132 0-.191-.059-.191-.191v-10.227c0-.133.059-.191.191-.191h.706c.117 0 .176.059.176.191v10.227c0 .132-.059.191-.176.191zm7.45.176v-.177h-2.013c-.852 0-1.602-.309-2.204-.911s-.911-1.337-.911-2.189v-1.102c0-.853.309-1.587.911-2.189s1.352-.911 2.204-.911c.853 0 1.587.309 2.189.911s.911 1.337.911 2.189v3.13h2.219v1.072h-2.219v.177c0 .778-.294 1.454-.867 2.027-.573.573-1.249.853-2.027.853h-1.528c-.118 0-.191-.059-.191-.191v-.69c0-.132.073-.191.191-.191h1.528c.969-.001 1.807-.838 1.807-1.808zm-2.013-1.249h2.013v-3.13c0-1.103-.911-2.028-2.013-2.028s-2.028.926-2.028 2.028v1.102c0 1.102.926 2.028 2.028 2.028z"/><path d="M290.924 134.855v-1.41a2.2 2.2 0 0 0-.676-1.632 2.244 2.244 0 0 0-1.646-.69c-1.043 0-1.822.367-2.351 1.103l-.206.279c-.044.059-.088.088-.147.088-.044 0-.074-.015-.118-.044l-.559-.397a.213.213 0 0 1-.088-.132v-.029c0-.044.015-.073.044-.117l.191-.279c.735-1.029 1.822-1.543 3.233-1.543.94 0 1.749.323 2.41.984s1 1.47 1 2.41v2.233c0 .176.029.294.117.382.147.146.441.221.867.221h.69v1.072h-.5c-.837 0-1.411-.235-1.778-.734-.441.499-1.087.734-1.91.734h-6.201v-1.072h6.201c.986-.015 1.427-.442 1.427-1.427zm-2.571 3.998v.867c0 .132-.059.19-.191.19h-.735c-.132 0-.191-.059-.191-.19v-.867c0-.133.059-.206.191-.206h.735c.132-.001.191.073.191.206z"/><path d="M295.819 135.487v-8.537c0-.133.059-.206.191-.206h.691c.132 0 .191.073.191.206v8.537c0 1.146-.735 1.866-1.866 1.866h-1.705v-1.072h1.72c.542-.014.778-.264.778-.794zm4.335 1.867h-.705c-.132 0-.191-.059-.191-.191v-10.227c0-.133.059-.191.191-.191h.705c.118 0 .177.059.177.191v10.227c0 .132-.06.191-.177.191z"/></g><g fill="#FFF"><path d="M265.494 18.581V8.78c0-.133.074-.206.206-.206h.676c.132 0 .206.073.206.206v9.801c0 .882-.323 1.646-.94 2.263s-1.367.926-2.248.926a3.064 3.064 0 0 1-2.249-.926c-.617-.617-.925-1.381-.925-2.263v-3.453c0-.132.059-.206.191-.206h.69c.132 0 .191.074.191.206v3.453c0 1.161.956 2.116 2.102 2.116 1.159 0 2.1-.955 2.1-2.116zm4.35.603h-.706c-.132 0-.191-.059-.191-.191V8.766c0-.133.059-.191.191-.191h.706c.117 0 .176.059.176.191v10.227c0 .132-.059.191-.176.191zm7.45.176v-.177h-2.013c-.852 0-1.602-.309-2.204-.911s-.911-1.337-.911-2.189v-1.102c0-.853.309-1.587.911-2.189s1.352-.911 2.204-.911c.853 0 1.587.309 2.189.911s.911 1.337.911 2.189v3.13h2.219v1.072h-2.219v.177c0 .778-.294 1.454-.867 2.027-.573.573-1.249.853-2.043.853h-1.513c-.132 0-.191-.059-.191-.191v-.69c0-.132.059-.191.191-.191h1.513c.986-.001 1.823-.838 1.823-1.808zm-2.013-1.249h2.013v-3.13c0-1.103-.911-2.028-2.013-2.028s-2.028.926-2.028 2.028v1.102a2.05 2.05 0 0 0 2.028 2.028zm-.308-9.037v.852h1.514c.088 0 .132.045.132.133v.309c0 .088-.044.146-.132.146h-2.513c-.088 0-.132-.059-.132-.146v-.309c0-.088.044-.133.132-.133h.412v-.852c0-.603.5-1.117 1.102-1.117.485 0 .823.221 1.014.676l.059.147c.015.015.015.029.015.059 0 .059-.03.103-.074.117l-.294.118c-.029.015-.059.015-.073.015-.059 0-.074-.015-.103-.073l-.073-.147c-.088-.206-.25-.323-.47-.323a.532.532 0 0 0-.516.528z"/><path d="M292.387 18.111h.69v1.072h-.5c-.646 0-1.146-.206-1.543-.588-.015-.015-.044-.029-.044-.044a.55.55 0 0 1-.103.132c-.338.338-.779.5-1.352.5h-.749c-.72 0-1.249-.191-1.617-.544v-.015l-.015-.015a.34.34 0 0 0-.059.073c-.338.338-.793.5-1.367.5h-.735c-.734 0-1.264-.191-1.631-.559v-.013a.31.31 0 0 1-.059.073c-.338.338-.779.5-1.352.5h-1.866v-1.072h1.896c.529 0 .764-.265.764-.809v-4.938c0-.132.059-.205.191-.205h.691c.132 0 .191.073.191.205v5.144c0 .161.029.279.118.367.162.146.456.235.881.235h.94c.529 0 .779-.265.779-.809v-4.556c0-.132.059-.19.191-.19h.691c.132 0 .191.059.191.19v4.762c0 .161.029.279.118.367.147.146.456.235.881.235h.926c.544 0 .793-.265.793-.809v-4.938c0-.132.059-.205.191-.205h.69c.132 0 .191.073.191.205V17.3c.003.547.444.811.988.811z"/><path d="M295.209 17.317V8.78c0-.133.059-.206.191-.206h.691c.132 0 .191.073.191.206v8.537c0 1.146-.735 1.866-1.866 1.866h-1.705v-1.072h1.72c.543-.014.778-.264.778-.794zm4.335 1.867h-.705c-.132 0-.191-.059-.191-.191V8.766c0-.133.059-.191.191-.191h.705c.118 0 .177.059.177.191v10.227c0 .132-.059.191-.177.191z"/></g></svg>