<svg xmlns="http://www.w3.org/2000/svg" width="399.157" height="268.107" viewBox="0 0 399.157 268.107"><g stroke="#BDBEC1" stroke-width="3" stroke-miterlimit="10"><path fill="#FFF" d="M384.888 266.607H14.269c-7.023 0-12.769-5.746-12.769-12.769V14.269C1.5 7.246 7.246 1.5 14.269 1.5h370.618c7.023 0 12.769 5.746 12.769 12.769v239.569c.001 7.023-5.745 12.769-12.768 12.769z"/><path fill="#E7E8E9" d="M363.966 249.783H26.922c-4.704 0-8.554-3.849-8.554-8.554V24.732c0-4.704 3.849-8.554 8.554-8.554h337.044c4.704 0 8.554 3.849 8.554 8.554V241.23c0 4.704-3.85 8.553-8.554 8.553z"/><circle fill="none" cx="385.608" cy="130.572" r="7.503"/><circle fill="none" cx="9.53" cy="130.402" r="4.047"/></g></svg>