<svg xmlns="http://www.w3.org/2000/svg" width="343.078" height="111.195" viewBox="0 0 343.078 111.195"><g opacity=".4" fill="#FFE02C"><path d="M15.606 19.292c-.053 0-.053.082 0 .082s.054-.082 0-.082z"/><path d="M41.055 12.176c-.33-.598-.901-1.105-1.701-1.42-.36-.143-.651.103-.754.413-.043.024-.088.046-.126.086-.603.624-1.296 1.185-1.933 1.783-4.193-4.296-11.538-5.077-17.136-4.17-6.652 1.077-11.637 5.538-14.21 11.608-3.699 8.73-1.49 20.212 5.643 26.063-.439.461-1.126.857-1.18 1.54-.025.334-.003.868.246 1.12.277.276.846.34 1.216.392a1.58 1.58 0 0 0 1.056-.199c10.707 6.468 23.239 7.001 31.632-3.332 7.253-8.933 6.261-23.976-2.837-31.325a2.98 2.98 0 0 0 .3-.741c10.353 7.267 11.232 20.774 4.36 31.296-5.326 8.155-15.999 12.289-25.129 10.188a.424.424 0 0 0-.153-.033c-3.65-.87-7.048-2.74-9.748-5.761-.319-.357-.938.114-.664.513 2.557 3.739 6.023 5.869 9.849 6.771-.602 2.863-4.159 4.979-5.257 7.619-1.292 3.105 2.482 4.681 4.988 4.979 3.309.395 7.634-.188 9.581-3.224.788-1.229.645-2.983-.247-4.103-1.416-1.774-3.29-3.038-4.785-4.759 8.26.104 17.208-4.474 22.099-10.613 8.404-10.552 7.385-28.023-5.11-34.691zm-1.93.129a.584.584 0 0 0 .317.521c.21.121.41.249.614.374.002.022.012.039.012.061.01.562-.476 1.075-.847 1.436-.737.716-1.854 1.219-2.904 1.143.601-1.359 1.872-2.371 2.808-3.535zm-11.626-1.664c2.75.724 5.371 2.02 8.029 3.509-.437.583-.768 1.238-.887 2.038-.059.411.097.773.516.908 1.155.366 2.397.178 3.488-.344a.685.685 0 0 0 .096.652c2.864 3.907 4.267 8.396 4.202 12.924a.454.454 0 0 0-.613.105c-2.969 3.448-6.947 3.857-7.286 8.977-.042.646.042 1.189.086 1.71-4.31-1.304-8.414-3.742-12.058-6.299-.179-1.135-.816-2.129-1.528-3.2-1.086-1.63-2.36-3.902-3.987-5.134.315.093.622-.229.462-.581-.625-1.374 4.993-.704 5.347-.63 1.279.265 2.298-.022 3.461-.514.637-.27.976-.879 1.185-1.488.214-.624 2.622-2.638 3.362-2.522.312.049.581-.076.684-.389.465-1.398-.107-1.824-.042-3.095.013-.252-.122-.529-.225-.75-.695-1.485.813-1.711 2.088-1.835.391-.038.514-.6.096-.712-1.111-.3-4.03-.472-3.51 1.566.22.865.374 1.726.608 2.571.545 1.982.297 1.383-1.347 2.28-.683.373-1.973.971-2.417 1.682-.581.933-.382 1.394-1.838 1.998-1.067.442-3.474-.366-4.854-.332-1.367.035-5.38.623-3.35 2.54-.437-.229-.854.391-.515.75 1.29 1.374 2.36 2.958 3.427 4.506a41.471 41.471 0 0 1 1.449 2.255l-.062-.045c-2.891-2.118-5.206-4.513-6.949-7.221l.002-.001a.391.391 0 0 0 .184-.138c.543-.426.84-1.14.987-1.875.122-.604-.006-1.233-.058-1.839-.081-.973.076-1.772.394-2.688.077-.226-.231-.385-.39-.227-.625.632-.766 1.357-.783 2.229-.019.903.363 3.273-.867 3.671a23.822 23.822 0 0 1-2.116-4.778c1.22.267 2.523-.961 3.41-1.772.091-.083-.044-.215-.136-.136-1.639 1.415-4.324 1.43-2.099-.656.896-.841 1.979-1.649 2.979-2.367 3.366-2.42 7.693-3.188 11.285-5.225.039-.02.059-.052.09-.078zm5.689 36.88c-3.756 2.003-8.218 2.566-12.78 1.77a.507.507 0 0 0-.229-.148c-2.052-.62-3.949-1.376-5.672-2.338 1.319-.312 2.333-1.771 2.714-2.934.343-1.041.354-2.274.413-3.356.042-.784.02-1.57.002-2.355-.021-.927.058-.509 1.055-.368 1.16.164 3.799.475 4.269-1.163.037-.127.05-.245.076-.368 3.712 2.492 7.845 4.896 12.048 6.101-.099.439-.313.904-.74 1.437-.395.496-1.351.819-1.619 1.438-.411.946-.091 1.582.463 2.284zm-21.183-6.025c-.242-3.936-.201-9.343 1.813-13.015a21.679 21.679 0 0 0 4.667 4.592c1.164.835 2.402 1.72 3.694 2.604-.332 1.687-3.989 1.016-4.959.829-.333-.062-.666.146-.666.509-.002 1.449.008 2.897-.055 4.347-.068 1.586-.242 2.997-1.688 4.062-2.471 1.823-2.766-3.268-2.806-3.928zm23.596 2.552c.217-.474.404-.938.535-1.414.794.188 1.589.334 2.383.423a16.866 16.866 0 0 1-4.462 3.969c-1.072-1.842.944-1.658 1.544-2.978zm.721-2.6a4.052 4.052 0 0 0-.047-.754c-.832-5.278 3.802-6.104 6.629-9.249-.195 2.891-.992 5.779-2.398 8.524-.369.72-.781 1.384-1.212 2.021a21.999 21.999 0 0 1-2.972-.542zM18.907 10.53a16.77 16.77 0 0 1 6.84-.262c-4.51 2.474-9.36 3.851-13.336 7.311-.234.204-.683.62-1.034 1.094a28.283 28.283 0 0 1-.584-3.764c2.161-2.103 4.898-3.591 8.114-4.379zM7.02 39.07c-2.669-5.264-2.346-11.513-.591-16.979.742-2.312 1.849-4.324 3.273-6.017-.178 4.132 1.216 8.25 3.591 11.69-1.376 1.733-1.812 3.819-2.08 6.114-.329 2.84-.554 6.349-.107 9.188.088.556.199 1.133.376 1.667-1.776-1.488-3.279-3.332-4.462-5.663zm4.949 9.359c-.298.432-.773.241-1.158.023-.026-.23-.004-.453.129-.659.17-.261.364-.5.524-.768.286.213.578.418.878.612-.124.276-.223.575-.373.792zm35.145-18.106c.535 5.708-1.614 11.333-5.106 15.761-7.845 9.951-19.461 7.897-29.483 3.017.026-.029.057-.049.082-.081.162-.21.375-.548.52-.896 2.009 1.149 4.312 1.905 6.902 2.132.029.002.053-.007.081-.008 8.417 2.536 16.874-1.211 21.544-8.653 4.917-7.832 4.108-18.089-1.572-25.224a.673.673 0 0 0-.398-.252c.204-.156.395-.325.576-.501 3.621 4.478 6.301 8.801 6.854 14.705zM18.583 68.014c-1.642-.443-3.584-1.246-2.512-3.155.062-.109.142-.209.211-.315 3.479 2.374 8.057 1.452 11.852.015.001.028.009.057.01.086.073 3.835-7.104 4.032-9.561 3.369zm9.122-4.855c-3.441 1.247-7.517 2.382-10.905.657.589-.731 1.276-1.409 1.865-2.108 1.123-1.333 2.115-2.82 2.215-4.515.617.105 1.243.182 1.875.229.263 2.748 3.718 3.67 4.95 5.737z"/><path d="M37.942 18.51a.33.33 0 0 0-.548.319c.25 1.171.726 2.062.665 3.317-.06 1.247-.706 2.485-1.917 2.719-.283-1.627-.033-3.242.843-4.678.308-.504-.43-1.095-.826-.638-1.451 1.67-1.826 4.062-1.104 6.135.081.232.313.487.592.45 1.576-.212 2.568-1.233 3.033-2.728.423-1.36.412-3.866-.738-4.896z"/></g><g opacity=".4" fill="#FFE02C"><path d="M74.954 75.153c-1.45-2.9-2.627-5.684-3.41-8.839-.487-1.956-1.645-2.922-3.582-3.328-3.063-.644-6.339 1.221-9.097 2.262-2.089.788-4.394 1.083-6.555 1.631-1.07.271-8.085 1.652-6.657 4.09l.004.009c-.109.049-.185.151-.166.307.528 4.205 1.715 8.254 3.077 12.258 1.384 4.073 2.818 8.713 5.248 12.301 3.23 4.771 9.266 3.189 13.643 1.3 3.169-1.368 9.346-3.667 9.557-7.912.299.181.722.173.961-.209 2.581-4.127-1.172-10.162-3.023-13.87zm.122 2.827c.479.925.933 1.869 1.32 2.811-.478.752-.798 1.504-1.504 2.07-.23-.445-.459-.889-.684-1.33-.097-.192-.186-.391-.281-.585.021-.035.045-.067.057-.112a13.93 13.93 0 0 1 .523-1.526c.195-.456.434-.857.569-1.328zm-5.967-12.791c1.536 1.465 1.778 4.584 2.566 6.405.668 1.544 1.918 3.595 3.092 5.799a.45.45 0 0 0-.319.093c-.642.502-.934 1.356-1.132 2.188a61.45 61.45 0 0 1-.794-1.801c.381-.688.924-1.281 1.11-2.064.097-.415-.511-.711-.713-.303-.245.5-.521.99-.761 1.497-.264-.646-.521-1.294-.772-1.945.135-.64.381-1.248.756-1.795.29-.423-.313-.779-.655-.506a2.35 2.35 0 0 0-.639.86c-.194-.534-.391-1.068-.579-1.604.159-.455.254-.931.465-1.364.279-.574-.598-1.071-.85-.497a3.508 3.508 0 0 0-.129.354c-.106-.313-.219-.629-.324-.944.19-.686.533-1.291.768-1.978.17-.494-.489-.809-.833-.483a2.749 2.749 0 0 0-.519.673l-.342-1.063a.635.635 0 0 0-.227-.313c.317-.374.629-.769.831-1.209zm-1.924-.57a.39.39 0 0 0 .004-.236c.35.017.657.091.941.195-.411.562-.675 1.254-1.114 1.806-.444.061-.886.137-1.322.234.667-.53 1.256-1.253 1.491-1.999zm-2.614.126c.54-.14 1.093-.237 1.655-.306-.265.301-.468.657-.696.986-.301.438-.672.84-1.06 1.199a.291.291 0 0 0-.081.338c-.625.192-1.248.403-1.865.646.983-.676 1.903-1.631 2.05-2.812.004-.017-.002-.032-.003-.051zm-1.102.323c-.483.941-1.076 1.779-1.916 2.47-.167.138-.094.348.052.445-.6.253-1.197.516-1.792.782.684-.82 1.292-1.689 1.688-2.697a.27.27 0 0 0-.034-.275 47.301 47.301 0 0 1 2.002-.725zm-2.757 1.01c-.619.998-1.195 2.021-1.81 3.021a.213.213 0 0 0-.033.086 54.94 54.94 0 0 1-2.263.961c.746-1.078 1.571-2.192 2.063-3.381a27.678 27.678 0 0 0 2.043-.687zm-4.504 1.216l1.215-.23c.03-.004.057-.015.087-.021-.73 1.088-1.285 2.363-1.897 3.472-.498.174-.998.336-1.5.469.823-1.025 1.52-2.185 2.089-3.334a.389.389 0 0 0 .006-.356zm-4.964 1.093a65.286 65.286 0 0 1 4.155-.935c-.825 1.229-1.408 2.592-2.318 3.765-.581.112-1.167.195-1.76.223.835-.865 1.527-1.857 1.902-3.021.109-.34-.408-.558-.575-.242a23.577 23.577 0 0 1-2.076 3.284c-.387-.011-.779-.04-1.173-.095.332-.59.776-1.127 1.116-1.707.16-.274-.245-.61-.451-.348-.495.631-.999 1.227-1.354 1.932a10.687 10.687 0 0 1-.797-.201c-3.142-.945 2.313-2.385 3.331-2.655zm21.143 24.156c-3.434 2.271-7.791 4.446-11.929 4.81-5.962.521-7.791-7.333-9.445-11.556a68.778 68.778 0 0 1-.514-1.373c.492.238.983.482 1.367.881.591.613 1.561-.374.927-.929-.399-.349-.842-.585-1.303-.798.25-.154.499-.305.633-.577.113-.23.038-.604-.266-.651-.69-.107-1.25.48-1.826.8-.224-.629-.444-1.258-.658-1.892.664-.248 1.343-.474 1.98-.784.433-.212.115-.823-.312-.737-.69.142-1.302.479-1.895.845-.294-.887-.584-1.774-.866-2.666a.245.245 0 0 0 .215.119 4.014 4.014 0 0 0 2.208-.608c.268-.165.095-.64-.22-.523-.633.23-1.309.546-1.987.6a.269.269 0 0 0-.254.289c-.621-1.965-1.224-3.935-1.838-5.901 3.062 2.729 10.01-.28 12.745-1.562 1.938-.908 3.857-1.811 5.903-2.45 1.833-.572 2.737.446 3.291 1.87 0 .121.002.24.012.357a.469.469 0 0 0 .248.401c.311 1.057.498 2.209.749 3.068 1.172 4.01 2.782 7.675 4.615 11.41 1.622 3.305 1.707 5.381-1.58 7.557zm4.539-4.477c-.276-1.515-.9-2.945-1.593-4.336.61-.414 1.188-.975 1.549-1.636.036.109.065.218.099.325-.006.021-.016.038-.018.062-.067.795-.103 1.547-.636 2.188-.195.233.109.553.339.338.281-.263.528-.577.72-.922.245 1.456.164 2.819-.46 3.981z"/><path d="M66.929 74.943c-3.116-2.562-8.915 2.589-11.851 3.572-.803.27-.613 1.38.087 1.471.065 3.09.984 8.412 3.746 9.403 1.57.562 3.776-.405 5.24-.893 1.628-.539 3.772-1.187 4.994-2.464 2.591-2.705.237-9.072-2.216-11.089zm1.088 9.74c-.494 1.047-2.795 1.671-3.73 2.035-1.394.546-2.889 1.062-4.383 1.246-2.209.271-3.425-5.59-3.822-8.193 2.808-.919 5.255-2.837 8.081-3.75 3.568-1.154 4.933 6.374 3.854 8.662z"/><path d="M63.824 77.973c-1.176.033-2.454.903-3.545 1.315-.58.219-1.157.443-1.739.65-.23.082-.461.16-.694.233-.129.041-.223.238-.288.265-.229.09-.313.508 0 .553 1.006.146 2.022-.312 3.012-.646 1.075-.359 2.948-.771 3.584-1.795.151-.242-.044-.582-.33-.575zm.178 3.203c-2.092.57-4.008 1.459-6.169 1.842-.4.07-.309.765.095.712 2.126-.275 4.535-.664 6.41-1.752.432-.252.143-.933-.336-.802zm1.483 1.802c-2.002.441-3.938 1.413-5.908 2.017-.554.17-.324 1.023.24.87 1.981-.536 4.248-1.009 5.978-2.149.386-.255.141-.838-.31-.738zm-14.381-8.035c-.811.31-1.751.269-2.605.274-.246 0-.246.382 0 .383.892.006 1.926.09 2.743-.333.176-.091.05-.396-.138-.324z"/></g><g opacity=".4" fill="#FFE02C"><path d="M90.439 48.348c3.38-3.653 5.436-8.542 5.403-13.592-.058-8.413-10.719-17.003-18.833-14.258-.243-.525-.476-1.058-.641-1.614-.12-.402-.081-.887-.205-1.288.048 0 .104-.009.145-.004.604.082 1.211-.238 1.211-.922 0-.667-.837-1.271-1.44-.826-.403.298-.937.423-1.391.629-.527.239-1.049.489-1.579.722-.377.165-.191.811.21.776.423-.036.846-.083 1.269-.131-.017.478.21 1.008.386 1.428.21.5.492.943.805 1.37-9.051-.044-14.679 10.254-14.992 18.337-.244 6.299 3.463 11.292 8.57 13.788a10.071 10.071 0 0 0-1.957 3.818c-.112.432.205.763.613.806 1.136.115 2.091-.344 2.875-1.145.583-.596 1.175-1.464 1.507-2.335 2.167.587 4.474.762 6.769.448 3.333-.457 6.378-1.839 8.931-3.846.569 1.786 1.764 3.111 3.63 3.581.297.074.682-.093.742-.421.194-1.063.053-2.053-.352-3.053-.318-.795-.878-1.862-1.676-2.268zm-21.561 7.709c.317-1.019.722-1.998 1.283-2.916l.004-.011c.319.137.645.263.974.378-.604 1.063-1.111 2.252-2.261 2.549zm9.891-3.14a13.39 13.39 0 0 1-6.185-.27.56.56 0 0 0-.64-.199c-5.807-1.972-9.933-7.82-9.656-14.332.333-7.859 6.183-14.693 13.698-16.42.183.278.538.464.923.285 8.605-3.975 19.139 6.776 17.921 15.251-1.133 7.886-8.54 14.268-16.061 15.685zm9.892-2.735a.324.324 0 0 0-.055-.083c.373-.313.731-.644 1.081-.981.306.608.789 1.109 1.119 1.718.324.6.461 1.25.489 1.914-1.237-.396-2.101-1.297-2.634-2.568z"/><path d="M82.457 23.916c-.911-.087-.909 1.342 0 1.422 7.6.668 11.042 8.373 8.266 14.888-1.226 2.878-3.415 5.285-6.066 6.945-.043-.287-.192-.535-.312-.804-.153-.345-.282-.733-.318-1.109-.049-.493-.759-.51-.779 0-.018.412.053.82.143 1.221.087.385.187.876.5 1.143-1.866 1.035-3.922 1.713-6.015 1.942-7.543.821-12.729-5.32-12.665-12.438.038-4.138 2.09-8.074 5.505-10.362 3.124-2.097 6.969-2.204 10.562-2.616.414-.048.592-.707.107-.792-7.998-1.415-16.326 3.512-17.405 11.833-1.104 8.534 4.23 15.713 13.048 15.895 7.026.146 13.314-5.435 15.454-11.816 2.35-7.012-2.731-14.651-10.025-15.352z"/><path d="M74.975 46.493c-.366.6-.628 1.294-.585 2.007.026.427.728.58.792.106.087-.628.426-1.168.656-1.75.203-.513-.593-.804-.863-.363zm-6.419-4.231c-.341.352-.784.584-1.125.938-.375.384.18.915.58.58.379-.32.851-.51 1.232-.831.473-.4-.246-1.143-.687-.687zm-1.13-5.681l-1.179.034c-.501.015-.501.765 0 .779.393.012.787.022 1.179.035.547.015.547-.864 0-.848zm1.845-4.804a.396.396 0 0 0-.31-.194c-.088-.397-.753-.295-.732.117.018.374.303.81.608 1.022.219.151.626.064.671-.237.043-.276-.093-.48-.237-.708zm5.716-3.944c-.456-.312-.718-.898-.763-1.438-.034-.4-.613-.41-.629 0-.029.771.244 1.761 1.005 2.098.447.2.799-.377.387-.66zm9.689-1.054a1.424 1.424 0 0 0-.775.471c-.393.454.19 1.015.648.648-.136.106.052-.029.064-.037a.35.35 0 0 1 .2-.062c.749-.008.619-1.169-.137-1.02zm3.385 4.336c-.358.31-.561.772-1.104.59-.327-.108-.527.385-.231.549.717.401 1.883.226 2.02-.739.058-.404-.356-.684-.685-.4zm3.167 5.212c-.564-.326-1.56-.078-2.012.364-.353.344.129 1.007.538.697.433-.326 1.013-.027 1.475-.295a.448.448 0 0 0-.001-.766zm-3.762 4.395c-.447.005-.577.732-.108.805.23.035.419.154.611.281.235.154.361.375.677.35.238-.019.435-.185.437-.437.005-.656-1.069-1.006-1.617-.999zm-6.769-14.335c-.123-.145-.368-.162-.52-.068-3.051 1.87-2.144 6.852-1.97 9.802a.431.431 0 0 0 .075.215c-.033.034-.075.062-.107.098-.067.042-.11.104-.156.167-2.456.961-5.219 2.339-6.886 4.406-.252.312-.222.902.26.991 3.158.583 6.219-1.379 7.944-3.972.005-.005.011-.007.016-.013.032-.039.047-.088.073-.13.072-.111.145-.222.212-.336a.468.468 0 0 0 .064-.293l.013-.035a3.74 3.74 0 0 0 .131-.506.41.41 0 0 0 .083-.182c.375-1.968.828-3.915 1.078-5.904.16-1.262.576-3.196-.31-4.24zm-7.82 14.645c1.562-1.299 3.321-2.295 4.895-3.563.056.183.193.315.368.417-1.343 1.614-3.178 3.17-5.263 3.146zm7.194-9.804c-.244 1.546-.592 3.076-.894 4.61a.813.813 0 0 0-.129.033c.063-2.591-.52-6.433 1.278-8.503.36 1.005-.151 3.202-.255 3.86zM70.009 20.197c-1.286-1.896-2.992-3.704-5.42-3.818-1.881-.088-3.479 1.222-4.538 2.639-1.765 2.364-2.479 7.656 1.775 7.657a.528.528 0 0 0 .458-.273.308.308 0 0 0 .279.198c.896.065 2.209-1.459 2.847-1.984 1.461-1.2 2.852-2.48 4.382-3.595.25-.183.413-.533.217-.824zm-4.802 3.059c-.658.573-2.39 1.679-2.844 2.629a.441.441 0 0 0-.384-.338c-3.105-.442-2.291-3.783-1.014-5.731.76-1.161 1.985-2.126 3.403-2.227 1.833-.127 3.288 1.39 4.299 2.786-1.193.91-2.328 1.896-3.46 2.881z"/><path d="M63.415 19.554a1.716 1.716 0 0 0-.433.221c-.19-.623-1.218-.592-1.17.137.058.893-.161 1.76-.14 2.652.011.586.862.576.901 0 .005-.087.022-.171.031-.258.349.042.738-.163.77-.626.035-.503.349-.694.699-.995.515-.441-.03-1.338-.658-1.131zm29.81-4.838c-1.366-1.276-2.917-1.562-4.402-1.236a.725.725 0 0 0-.216-.604c-2.111-2.175-2.765-4.992-5.441-6.641-2.172-1.338-6.086-.498-8.409-.219-2.578.311-5.046.785-7.238 2.233-3.083 2.037-2.828 5.78-5.387 7.838-.369.298.101.844.488.635 1.71-.928 2.192-2.022 2.942-3.797 1.285-3.042 4.497-4.435 7.491-5.022 2.762-.543 5.844-.848 8.635-.412 2.79.435 3.976 4.605 5.789 6.455-1.244.592-2.375 1.567-3.216 2.692-.499.668.615 1.295 1.108.648 1.76-2.305 4.714-3.657 7.093-1.387 2.075 1.98 1.445 5.001-.053 7.095-1.353-1.321-2.741-2.595-4.25-3.742-.866-.659-2.79-2.106-3.817-.996-.196.212.05.535.307.397.868-.469 3.278 2.035 3.826 2.519 1.213 1.071 2.371 2.208 3.51 3.356.254.256.737.285.987 0 2.48-2.841 3.251-7.011.253-9.812z"/><path d="M90.043 18.296a2.694 2.694 0 0 0-.614-.937c-.248-.249-.545-.675-.895-.771a.839.839 0 0 0-.44.005c-.011-.071-.028-.145-.034-.219a.597.597 0 0 0-1.166-.158c-.203.548-.231 1.057-.181 1.633a.45.45 0 0 0 .408.433c.122.679 1.069.636 1.265-.015.294.274.603.521 1.002.685.359.146.802-.298.655-.656z"/></g><g opacity=".4" fill="#FFE02C"><path d="M337.212 21.722c-2.18-3.247-6.914-3.844-10.442-4.264l-.13-.014c2.29-3.681-2.249-5.552-5.628-6.003-3.972-.53-9.957-2.176-10.025 3.573-1.452-.487-2.896-1.022-4.383-1.513-6.459-2.124-11.276 7.771-12.25 12.785-.522 2.693.69 4.231 2.636 5.106-1.107 3.39-2.414 7.898 1.066 10.25 3.044 2.057 6.846 2.625 10.381 3.337 4.423.89 8.915 1.481 13.383 2.092 2.405.328 5.542.913 7.614-.424 2.526-.583 4.758-1.299 7.092.213a.662.662 0 0 0 .4.112c.161.519.979.603 1.135-.002 1.201-4.699 1.289-9.663 1.442-14.49.12-3.703-.179-7.604-2.291-10.758zm-22.32-9.882c1.564-.017 3.188.44 4.736.655 1.398.194 2.781.408 4.138.81 2.317.686 2.183 2.173 1.624 4.009-.332-.035-.665-.065-.999-.099.896-5.43-10.827-6.191-10.905-1.935-.009.499.682.55.833.113.548-1.572 3.373-1.568 4.675-1.498 2.041.109 4.059.986 3.938 3.178-2.207-.208-4.416-.404-6.615-.712-1.656-.233-3.218-.659-4.757-1.156.438-1.927 1.059-3.342 3.332-3.365zm15.344 27.489c-.012 1.879.077 4.354-1.23 5.862-1.088 1.257-3.707.782-5.139.655-6.402-.57-12.908-1.692-19.166-3.146-2.762-.641-6.438-1.425-7.406-4.5-.586-1.869.162-4.389.617-6.455 3.196 1.025 7.68.735 10.104.763.229.002.372-.171.409-.361.312.104.635.192.966.256-.972.536-1.771 1.325-2.072 2.44-.271.988.039 2.092.759 2.813.727.728 1.797.87 2.696.397 1.296-.681 1.812-2.404 2.07-3.727.114-.582.245-1.222.132-1.81-.006-.034-.021-.057-.032-.084.41-.059.812-.128 1.188-.215 2.512-.57 1.441-3.171.386-4.623-1.458-2.005-3.772-1.897-5.213.005-.736.975-1.497 2.271-1.479 3.533a.661.661 0 0 0-.039.472c-2.08-.377-4.144-.531-6.252-.713-3.744-.323-6.804-1.653-5.314-5.903 1.048-2.991 2.789-6.101 4.799-8.553 3.15-3.849 9.848.316 13.589 1.125 5.192 1.122 13.505.317 18.579 3.237a8.153 8.153 0 0 0-.777.62.656.656 0 0 0-.576.458c-.022.064-.041.127-.062.191-2.657 3.018-2.771 7.658-4.512 11.283-2.639 5.497-9.809-1.778-13.686-.542-.104.032-.162.182-.068.262 1.531 1.31 4.137 1.938 5.996 2.612 2.004.725 4.564 1.701 6.699.977 2.635-.895 3.454-3.636 4.137-6.58-.181 3.067-.082 6.164-.103 9.251zm-21.045-8.309c.999-1.737 1.896-4.551 4.033-2.741.566.479 1.673 1.608 1.554 2.455-.104.75-1.146.803-1.708.789-1.33-.033-2.59-.312-3.879-.503zm2.696 1.525c-.171.448-.185.977-.276 1.444a9.842 9.842 0 0 1-.314 1.197c-.183.545-.473 1.099-.814 1.455-.195.202-.175.185-.408.315a.338.338 0 0 0-.059.035.367.367 0 0 0-.062.021c-.035.012-.172.037-.205.048a2.033 2.033 0 0 1-.174.005l-.044-.004c-.032-.006-.065-.015-.099-.021a1.274 1.274 0 0 1-.129-.04l-.01-.003-.006-.003a1.984 1.984 0 0 1-.236-.137l-.012-.009a1.803 1.803 0 0 1-.08-.069c-.062-.055-.115-.116-.168-.177-.01-.018-.09-.124-.104-.146a2.134 2.134 0 0 1-.123-.231c-.003-.017-.06-.152-.065-.18a2.069 2.069 0 0 1-.074-.311 1.462 1.462 0 0 1-.014-.224 3.251 3.251 0 0 1 0-.342c.008-.14.053-.352.12-.564.072-.217.185-.417.308-.611.342-.542.867-1.007 1.383-1.377a.274.274 0 0 0 .076-.084c.523.043 1.057.046 1.589.013zM336.9 45.188c-1.629-1.366-3.966-1.005-5.977-.237.008-.018.019-.032.027-.05.936-1.963.793-4.534.811-6.633.043-5.163-.096-10.234 1.173-15.266a5.306 5.306 0 0 1 1.392-1.186c.064-.038.104-.087.15-.134 1.139.935 2.027 2.146 2.559 3.735.139.414.254.833.357 1.253a.38.38 0 0 0-.309.285c-1.188 4.938-1.127 10.113-1.707 15.142-.043.384.592.464.67.091.942-4.424 1.326-8.983 1.715-13.496.696 5.368-.708 11.156-.861 16.496z"/><path d="M333.902 27.27c-.904 5.382-.654 10.849-1.703 16.227-.07.363.434.503.555.152 1.776-5.158 1.67-10.894 1.847-16.285.012-.395-.633-.494-.699-.094z"/></g><g opacity=".4" fill="#FFE02C"><path d="M329.984 95.4c2.309-9.135 12.867-23.75 5.16-32.664-.012-.053-.021-.104-.035-.157-.084-.34-.376-.546-.699-.583a.276.276 0 0 0-.22.01c-.028.003-.056-.004-.085.004-8.844 2.018-15.219 10.958-21.352 17.185-.104-.243-.522-.18-.506.106.006.126.021.249.028.373l-.136.14c-.042.039-.064.085-.087.129-.027-.021-.041-.045-.074-.063-4.451-2.607-5.546 1.296-4.877 5.141 1.146 6.604 6.295 10.528 12.129 13.229 3.331 1.543 11.634 2.751 10.705-2.747.018-.038.04-.062.049-.103zm3.746-31.543c1.979 9.531-4.473 19.62-6.561 28.813-1.408-.314-3.051-.275-4.069-.496-5.165-1.116-8.552-6.934-10.002-11.758 7.36-4.924 11.957-13.645 20.632-16.559zm-8.072 34.444c-5.441.354-11.613-4.172-14.986-8.022-1.741-1.99-4.534-11.861.605-9.195.463.239.881-.057 1.002-.434a.53.53 0 0 0 .113.053c.583 3.979 2.672 7.418 5.703 10.135 1.345 1.203 2.979 1.994 4.648 2.638.756.291 1.728.289 2.514.354a7.872 7.872 0 0 1 1.892.296.67.67 0 0 0 .56.185c.033.013.067.021.103.032.674 2.829-.043 4.149-2.154 3.958zm10.015-30.802c.66 3.698.24 7.25-1.106 11.345-1.64 4.981-4.101 9.646-5.524 14.691a3.183 3.183 0 0 0-.76-.502c1.781-8.447 7.289-16.808 7.39-25.534z"/><path d="M328.251 76.244c-.928-2.217-3.565-3.661-5.689-2.422-3.062 1.205-2.792 9.395 2.631 8.568 2.989-.452 4.131-3.59 3.058-6.146zm-3.49 4.579c-1.736.379-2.571-1.571-2.713-2.955-.139-1.353.328-2.382 1.254-3.136 1.496-.303 2.66.229 3.498 1.844 1 1.93.011 3.8-2.039 4.247zm6.164-11.57c-.319-.134-.695-.156-1.041-.163-.524-.008-1.309-.008-1.729.313a.57.57 0 0 0-.225.601c-.398.548-.751 1.17-.744 1.82.007.682.604 1.047 1.234.994.646-.055 1.274-.328 1.818-.674.498-.316 1.061-.742 1.324-1.288.333-.682.051-1.319-.637-1.603zm-.802 1.444a3.78 3.78 0 0 1-.287.248l-.114.088a3.99 3.99 0 0 1-.22.146c-.24.154-.494.297-.754.413-.037.015-.104.04-.125.05-.061.02-.119.038-.18.055-.05.014-.1.023-.15.033a1.045 1.045 0 0 1-.08.004c0-.035-.002-.071.002-.107v-.006c.009-.038.018-.075.025-.111.023-.1.057-.196.09-.294.086-.246.205-.505.336-.765.199.004.399-.025.607-.042.255-.02.512-.023.768-.02.088.002.176.008.266.017l.061.012-.027.045c-.021.027-.043.057-.057.069a3.152 3.152 0 0 1-.161.165zm-4.293 14.224c-1.17-1.196-2.893.098-3.414 1.339-.092.126-.17.255-.229.365-.271.531-.414 1.137-.285 1.729.387 1.768 2.885.794 3.729.029.949-.86 1.117-2.524.199-3.462zm-1.168 2.497a2.404 2.404 0 0 1-1.293.646c-.332.043-.324-.01-.373-.228-.057-.241-.016-.479.065-.711a.557.557 0 0 0 .14-.086c.42-.365.721-.86 1.209-1.145.151-.086.211-.082.348-.076-.131-.006.062.027.08.033-.059-.021-.008.003.027.033.137.125.211.372.207.661-.003.293-.171.629-.41.873zm-5.235-5.455c-.266-1.167-1.655-1.328-2.592-.955-.242.099-.307.325-.226.501-.603.686-.843 1.604-.368 2.481.398.734 1.461 1.484 2.309 1.07.481-.234.617-.884.759-1.349.173-.563.25-1.168.118-1.748zm-1.265 1.133a5.365 5.365 0 0 1-.187.571c-.024.07-.056.141-.085.209-.039-.014-.08-.02-.121-.039a1.405 1.405 0 0 1-.514-.439c-.396-.562-.217-1.104.1-1.622.383.042.781.132.885.514.071.253-.015.562-.078.806z"/></g><path fill="#FFE02C" d="M133.049 11.25c-4.478-6.419-17.625-10.146-23.461-3.688-8.404 4.805-12.699 15.586-5.781 23.818 6.646 7.909 17 8.871 24.83 2.262 6.317-5.332 9.4-15.242 4.412-22.392zm-15.562-5.555c3.801-.218 7.929 1.151 11.065 3.396-3.989-.723-8.154.181-11.891 2.145-.757-1.653.027-3.734.826-5.541zm-7.862 3.05c.25.187.595.227.885-.071 1.577-1.618 3.577-2.51 5.735-2.847-1.283 2.105-1.695 4.262-.786 6.085a25.028 25.028 0 0 0-4.253 3.223c-.678-2.076-1.196-4.213-1.624-6.351l.043-.039zm-.787.701a31.345 31.345 0 0 0 1.467 6.58 25.115 25.115 0 0 0-2.06 2.441c-1.167-1.106-2.916-1.642-5.547-1.292 1.085-3.199 3.631-5.506 6.14-7.729zm-6.383 8.529c.052.025.11.043.18.04 2.375-.139 3.89.449 4.865 1.524-1.963 2.989-3.191 6.355-3.31 9.769-2.147-3.32-2.743-7.433-1.735-11.333zm2.536 12.456a.439.439 0 0 0 .214-.315c.536-2.975 1.707-5.981 3.351-8.733.458 1.318.603 2.938.64 4.703.06 2.83-.045 5.69.722 8.402a18.242 18.242 0 0 1-3.566-2.593c-.496-.46-.95-.951-1.361-1.464zm6.79 4.935c-1.521-4.223-.381-11.304-2.383-15.309a26.476 26.476 0 0 1 1.603-2.157c2.825 6.93 8.088 12.865 15.152 15.681-4.357 3.211-9.617 3.698-14.372 1.785zm16.31-3.434c-.3.302-.614.573-.925.844-4.483-2.646-8.546-5.087-11.79-9.347-1.519-1.993-2.645-4.193-3.532-6.495a23.386 23.386 0 0 1 4.474-3.806c.496.526 1.133 1.011 1.932 1.438 5.048 2.69 11.655 2.59 14.905 7.994a.449.449 0 0 0 .326.217c-.93 3.473-2.998 6.761-5.39 9.155zm-3.517-16.583c-2.178-.727-4.427-1.328-6.409-2.52a4.692 4.692 0 0 1-.608-.441c3.747-2.06 8.065-2.834 12.601-1.506.18.053.331.026.458-.036.582.59 1.102 1.212 1.536 1.862 1.798 2.698 2.164 5.772 1.622 8.776-1.637-3.543-5.689-4.964-9.2-6.135zM278.75 33.13c-.037-.757-.985-.827-1.244-.247-.025 0-.049-.005-.073-.002.332-.521.233-1.368-.533-1.636-4.702-1.639-9.569-2.75-14.271-4.401a38.974 38.974 0 0 1-7.211-3.388c-1.152-.693-2.153-2.15-3.553-2.15-1.322 0-3.604 2.142-4.783 2.804-2.844 1.599-5.912 2.77-8.965 3.904-4.787 1.777-9.551 3.447-13.947 6.102-.643.388-.082 1.263.572.979 4.928-2.132 10.051-3.739 15.08-5.607a83.699 83.699 0 0 0 6.021-2.522c.883-.408 5.875-3.931 6.574-3.385 6.795 5.288 15.918 7.061 23.926 9.67.086.027.166.042.242.052-5.586 3.019-10.672 6.931-16.467 9.675-3.354 1.589-7.884 2.45-10.645 5.043a.676.676 0 0 0-.135.188c-.026-.017-.041-.042-.071-.056-4.965-2.423-10.088-4.42-15.063-6.724.358-.324.741-.647 1.184-.965a48.587 48.587 0 0 1 8.789-5c1.336-.522 2.562-.976 3.531-1.368 1.16-.47.738-2.289-.531-1.925-4.963 1.426-9.973 3.732-14.057 6.919a13.53 13.53 0 0 0-1.33 1.186c-2.631-1.296-5.201-2.724-7.67-4.375-.012-.146-.062-.289-.17-.377-.14-.111-.25-.188-.437-.181a.67.67 0 0 0-.263.073.406.406 0 0 0-.342.428c-.35 1.076-.449 2.252-.64 3.363a.44.44 0 0 0 .577.505c2.158 1.382 4.309 2.94 6.49 4.492-.769 2.271-.779 4.812-.748 7.791.004.297.099.533.246.712-.489.354-.812.878-.84 1.638-.031.911.561 1.735 1.346 2.153-.707 1.549-1.34 3.128-2.234 4.585-.461.75.711 1.428 1.178.687.119-.191.238-.387.359-.578-.047.213-.1.426-.139.642-.131.739.846 1.239 1.256.53.299-.514.561-1.039.811-1.57.075.367.176.734.314 1.105.225.604 1.08.612 1.265.052.384.167.931-.023.868-.523-.189-1.544-.578-3.065-.848-4.599a.55.55 0 0 0-.494-.472 3.271 3.271 0 0 0 1.257-1.646c.407-1.246-.687-2.895-2.009-2.996v-.188c.965-1.543.951-3.54 1.102-5.44a69.821 69.821 0 0 0 4.077 2.597.315.315 0 0 0-.244.264c-.153.94-.458 3.062-.731 3.711-.104.25.015.656.22.826 6.336 5.242 15.418 5.08 23.057 3.48 3.462-.724 7.093-1.484 9.937-3.69 1.865-1.447 2.037-5.962 1.771-8.054a.97.97 0 0 0-.298-.604c4.827-2.502 9.217-5.954 8.936-11.487zm-55.59 6.125c.266-.822.523-1.654.762-2.487 2.177 1.74 4.521 3.219 6.974 4.527a9.71 9.71 0 0 0-.983 1.558c-2.145-1.397-4.349-2.683-6.753-3.598zm8.509 14.937c-.155.573-.895 1.135-1.494.973-.395-.105-.605-.551-.682-.92-.117-.569.661-1.102 1.066-1.304.131-.065.191-.194.197-.328.019-.029.037-.061.054-.092.525.444 1.077.868.859 1.671zm.584-9.783c.099-.449.242-.885.449-1.303.149-.216.314-.43.491-.641 4.904 2.393 10.083 4.328 14.946 6.684-1.141 2.009.107 2.323-3.229 1.665-2.904-.574-5.604-2.048-8.143-3.517-1.54-.893-3.027-1.889-4.514-2.888zm25.612 10.577c-5.465 1.226-21.797 3.167-21.224-5.941.001-.023-.007-.043-.011-.064 3.555 2.01 7.301 3.506 11.402 3.784.299.02.526-.173.664-.413 1.793.654 5.208-.524 8.231-1.845-.023.045-.05.085-.063.142-.253.951-.425 1.833-.435 2.817-.005.446.657.591.829.23.345.306.98.193 1.195-.333.025-.062.053-.121.08-.183.328.19.832.12 1.021-.237.127-.239.263-.472.394-.707.002.017.006.034.006.05.057.694 1.022 1.087 1.399.378.114-.22.252-.425.397-.623a4.608 4.608 0 0 1-.078.613c-.221 1.041 1.3 1.475 1.601.44.039-.14.088-.276.134-.415a.912.912 0 0 0 1.107-.011c.247.208.593.294.9.21-2.289 1.234-5.862 1.727-7.549 2.108zm10.078-8.878a1.064 1.064 0 0 0-.555-.336c.256-.116.51-.229.768-.35a4.904 4.904 0 0 0-.213.686zm-1.692.321c-.055.255-.106.511-.162.767a.871.871 0 0 0-.707.605c-.289-.002-.584.126-.791.465-.072.119-.135.241-.204.361-.371-.591-1.361-.647-1.58.184-.033.124-.074.244-.106.365a.886.886 0 0 0-.92.347c-.199.266-.402.507-.605.747-.012-.114-.035-.227-.045-.341-.055-.662-.979-1.041-1.338-.362-.189.359-.392.715-.594 1.07-.312-.352-.869-.454-1.164.005a.713.713 0 0 0-.476-.415c2.069-.933 3.883-1.875 4.735-2.25 1.216-.533 2.599-1.102 4.031-1.728-.025.06-.057.11-.074.18zm-.455 6.228a.982.982 0 0 0 .242-.414c.049-.167.104-.331.16-.497.443.068.922-.134 1.035-.677.069-.326.145-.65.217-.977.023-.029.055-.054.076-.09.016-.027.029-.054.043-.082a6.25 6.25 0 0 1-.094.686c-.163.845-.804 1.51-1.679 2.051zm-3.523-6.432c-2.211.95-4.428 1.876-6.67 2.749-1.518.589-4.398 2.065-6.459 2.175.17-.533.314-1.076.395-1.625a.736.736 0 0 0 .027-.168l.012-.065-.01.004a.835.835 0 0 0-.047-.25c.215.207.525.3.822.099 3.335-2.25 7.447-3.276 11.064-5.002 5.106-2.44 11.719-5.503 15.832-9.64-1.43 6.766-9.156 9.226-14.966 11.723zm5.169-40.759c-.269-.53-1.226-.444-1.323.174-.666 4.138-1.152 8.297-1.879 12.429-.117.666.863.961 1.027.283.369-1.517.701-3.05 1.001-4.588l.828.021c.317.008.636.04.948.029.145 1.313.283 2.638.529 3.97.11.589 1.102.604 1.2 0 .627-3.829-.613-8.911-2.331-12.318zm-.15 7.142l-.812.021c.244-1.323.472-2.649.67-3.979.379 1.296.586 2.611.75 3.937-.199.004-.4.016-.608.021zm7.852-3.782c2.182-2.236-.766-6.139-3.949-3.627-.033.027-.052.058-.074.087-.179.117-.307.297-.291.545.229 3.863 1.26 7.606 1.391 11.494.012.346.383.534.664.468.041.012.076.032.123.036 5.607.584 6.283-6.92 2.136-9.003zm-2.044-.484a.697.697 0 0 0-.433.271c-.153-.957-.309-1.907-.438-2.846 2.231-.684 3.606 1.976.871 2.575zm.196 7.886c.135-2.194-.135-4.426-.477-6.632a.825.825 0 0 0 .48.237c1.875.229 3.101 1.484 3.24 3.367.16 2.08-1.463 2.967-3.243 3.028zm14.502-5.859c-.188-.469-.959-.752-1.225-.16-.471 1.048-.137 2.649-1.545 3.041-1.068.297-2.154-.717-2.683-1.513-.894-1.348-.826-3.096-.386-4.585.23-.787.668-1.576 1.332-2.075.979-.737 2.07.341 2.699 1.03.301.328.846-.099.612-.473-1.194-1.911-3.351-2.883-4.954-.791-1.451 1.896-1.878 4.781-.888 6.979.741 1.647 2.375 3.133 4.296 2.948 1.863-.178 3.447-2.629 2.742-4.401z" opacity=".4"/><g opacity=".4" fill="#FFE02C"><path d="M302.765 65.518c.679-4.325.804-9.104.097-13.424-.092-.569-.875-.838-1.332-.542l-.286.187a.843.843 0 0 0-.474-.332c-3.806-.985-7.179-3.276-11.16-3.544-3.586-.241-7.672 2.923-10.603 4.573-.299.168-.323.504-.192.755-.019.023-.042.045-.056.072-.355.085-.661.356-.668.841-.065 4.054.314 8.029-.07 12.083-.061.623.654.807 1.077.522 2.999 2.823 7.149 6.272 11.3 6.631 4.432.383 8.799-3.839 12.061-6.353.465-.36.51-.945.26-1.335.013-.044.038-.08.046-.134zm-12.419-2.608c.196.432.571.73.957.989.299.201.598.39.929.47-.22 2.461-.85 5.107-.398 6.733.012.047.037.086.059.128a6.35 6.35 0 0 1-.809.121c-3.185.278-7.414-2.949-10.457-5.021a1.9 1.9 0 0 1 .56-.295c.493-.156 1.077.101 1.448-.34.203-.244.213-.541 0-.783-.459-.524-1.354-.168-1.893.067-.394.17-.682.474-.912.819l-.271-.177c.914-3.563.525-7.413.373-11.06 2.877 1.518 6.08 2.317 9.05 3.634-.028.028-.063.046-.083.082-.223.385-.123.779-.088 1.203.039.467.078.934.115 1.398a.39.39 0 0 0 .781 0c.032-.417.067-.835.104-1.252.027-.342.104-.689.043-1.019.207.102.418.195.621.305 1.441.768 1.832 2.303 1.828 4.074-.4-.138-.826-.238-1.07-.599-.377-.549-1.159-.075-.887.523zm-.403-6.36c.085-.38.15-.768.223-1.146.084-.458.334-1.122.039-1.543-.266-.377-.746-.461-1.098-.142-.372.343-.328 1.022-.375 1.489-.027.287-.055.583-.055.879l-.422-.153c-2.658-1.011-5.506-1.536-8.104-2.703 2.872-1.049 5.579-2.875 8.595-3.375-.033.532.057 1.105.109 1.595a.459.459 0 0 0 .917 0c.058-.528.164-1.156.104-1.721 3.244-.089 6.178 2.462 9.336 3.32-2.324 1.521-4.642 3.114-6.664 4.992-.652-.658-1.647-1.122-2.605-1.492zm3.327 2.647c2.735-1.599 5.584-3.137 8.063-5.116.347 3.615-.545 7.212-.188 10.804-.121-.01-.244-.021-.375.004-.227.039-.428.234-.562.405a.482.482 0 0 0-.021.562c-2.413 1.203-4.251 3.632-6.735 4.825.625-1.763.463-4.054.529-5.832.072-1.88.015-3.891-.711-5.652z"/><path d="M287.093 62.746c-.434-.178-.775.085-1.151.271a3.819 3.819 0 0 1-1.17.373c-.541.071-.356.86.121.897.465.037.93-.039 1.385-.133.5-.104 1.021-.224 1.175-.777.08-.295-.101-.525-.36-.631zm9.884 1.215c-.59.07-.588.845 0 .916.17.021.335.058.499.104.257.075.384.264.682.271.375.011.581-.352.52-.684-.132-.714-1.151-.672-1.701-.607z"/></g><g opacity=".4" fill="#FFE02C"><path d="M111.445 103.695c-4.242-3.859-9.146-6.854-13.988-9.887-2.447-1.531-4.88-3.08-7.258-4.717-2.321-1.597-4.321-3.783-6.74-5.186-.033-.019-.065-.017-.096-.019-.058-.228-.209-.451-.453-.486a1.023 1.023 0 0 0-.349 0c-.295.044-.466.366-.483.633-.055.916.006 1.908.278 2.814-.226.059-.384.339-.172.562 7.766 8.158 18.306 12.794 27.383 19.259.208.147.558.047.67-.175.501-.996.459-.896.589-1.899.519.206 1.102-.457.619-.899zm-1.42.595c-.439 1.846-5.579-2.413-6.469-2.981-2.284-1.459-4.605-2.856-6.908-4.284-4.642-2.881-9.189-5.935-13.316-9.522.066-.95.108-1.919.08-2.874 2.243 3.795 7.794 6.586 11.31 8.842 5.257 3.373 10.677 6.556 15.44 10.619a.344.344 0 0 0-.137.2z"/><path d="M131.538 53.847c.142-.604-.501-1.325-1.214-.936-8.175 4.476-16.086 9.493-24.104 14.242-5.004 2.965-10.013 5.904-14.938 8.998-2.659 1.67-5.594 3.277-7.81 5.539-.19.191-.274.553-.103.786.063.085.096.185.196.236.028.015.055.014.082.015.25.136.535.049.741-.119.081-.065.167-.126.25-.191.198.41.562.735 1.063.843.446.095.749-.523.319-.757-.268-.146-.555-.338-.741-.58.553-.432 1.128-.846 1.701-1.264.553.541.785 1.32 1.335 1.854.294.283.684-.013.632-.368-.071-.475-.383-.828-.691-1.179a2.686 2.686 0 0 0-.818-.648 89.034 89.034 0 0 1 2.114-1.468c.27.393.582.796.979.977.381.175.731-.175.557-.556-.162-.354-.498-.636-.844-.883a98.542 98.542 0 0 1 1.679-1.087c.333.416.696.824 1.081 1.188.303.288.906.28.906-.259 0-.375-.478-.685-.721-.9a.408.408 0 0 0-.468-.074c-.119-.076-.236-.159-.354-.239.638-.404 1.293-.79 1.939-1.185.543.376.646.998 1.047 1.488.292.354.825-.031.728-.424-.136-.556-.581-1.123-1.079-1.49.419-.252.842-.498 1.264-.748a.369.369 0 0 0 .076.135c.404.474.776.957 1.272 1.334.312.237.785-.233.547-.547-.374-.492-.854-.86-1.322-1.262.733-.432 1.469-.859 2.205-1.285 0 .048.006.096.026.146.103.227.215.612.454.731.193.097.502.071.602-.157.086-.2.056-.357-.002-.561-.076-.26-.269-.352-.461-.335l-.075-.078c-.015-.016-.032-.023-.049-.036.679-.394 1.35-.781 2.024-1.171a.288.288 0 0 1 .229.07c.269.209.48.511.833.558.352.048.584-.183.536-.535-.037-.276-.254-.527-.502-.726.493-.285.98-.57 1.471-.855.537.304 1.087.595 1.689.658.522.055.644-.688.252-.931a3.739 3.739 0 0 0-.847-.364c.595-.349 1.179-.699 1.765-1.047.135.118.271.233.419.347.448.336.908.713 1.487.742.388.021.563-.415.413-.72-.235-.479-.759-.713-1.201-.97l-.053-.033c.637-.383 1.281-.757 1.92-1.137.065.054.136.099.199.153.306.265.589.599.96.763.411.183.806-.187.607-.604-.177-.371-.521-.625-.912-.817.499-.295.998-.585 1.497-.878.501.451 1.025 1.063 1.671 1.163.472.072.839-.438.479-.823-.268-.288-.624-.469-.953-.678-.104-.064-.206-.122-.309-.184.535-.313 1.074-.62 1.608-.935.027.222.304.338.445.115.025-.018.027-.027.042-.043.024.025.049.043.072.077.143.204.204.46.355.657.159.211.379.342.652.268.291-.081.51-.415.406-.713-.139-.405-.465-.781-.842-1.017.776-.45 1.554-.898 2.332-1.35.094.677.854 1.162 1.511.915.346-.13.526-.681.114-.874-.174-.081-.666-.119-.705-.329a.402.402 0 0 0-.089-.193l2.133-1.232c.48.498 1.071.838 1.481.307.12-.153.159-.317.065-.5.025.07.031.079.014.023-.031-.12-.107-.205-.188-.296a.767.767 0 0 0-.267-.174c.368-.212.733-.426 1.101-.638.039.077.073.156.128.229.308.401.643.893 1.096 1.131a.438.438 0 0 0 .596-.595c-.24-.453-.729-.787-1.132-1.098-.018-.014-.038-.019-.057-.03l1.482-.858.017-.001c.665-.202 1.083.556 1.667.754.281.094.608-.215.501-.502-.181-.484-.579-.791-1.038-.914 1.246-.718 2.489-1.437 3.734-2.157-4.353 9.411-6.535 19.664-10.681 29.173-1.916 4.396-4.873 8.636-6.254 13.232-.409 1.363-1.04 2.688-1.563 4.01-.221.556-.447 1.104-.612 1.678-.095.33.029.263.183.203a2.872 2.872 0 0 1-.085.07c-.205.172-.029.502.21.505 1.364.014 2.259-3.109 2.681-4.015 1.907-4.086 3.775-8.185 5.736-12.252 5.035-10.434 7.167-21.915 11.943-32.432.22-.482-.087-.925-.467-1.076z"/><path d="M123.034 65.812c.031-.102.069-.198.1-.299.113-.351-.033-.617-.27-.765.203-.506-.232-1.233-.955-1.13-5.051.729-8.836 4.562-12.829 7.421-5.56 3.985-11.465 7.461-17.019 11.457-.437.313-.065.98.425.728 5.302-2.74 10.264-5.973 15.255-9.241 4.506-2.954 8.641-7.104 13.902-8.618-.062.182-.131.361-.196.541-9.322 5.229-18.616 10.967-27.041 17.55-.419.33.122.995.564.729 8.656-5.223 16.786-11.181 25.644-16.063-3.73 9.37-9.56 17.786-12.605 27.43a.872.872 0 0 0-.145-.273c-2.294-2.896-6.113-5.261-8.991-7.574-1.344-1.08-4.847-4.656-6.688-3.934-.168.065-.289.224-.233.413.239.851 1.093 1.139 1.785 1.625 1.59 1.114 3.093 2.385 4.594 3.614 2.676 2.197 5.486 5.558 8.659 6.986.492.222.921-.042 1.031-.432.136.164.427.208.539-.025 4.644-9.627 10.535-18.798 14.062-28.926.07-.035.135-.074.204-.109.478-.252.459-.762.208-1.105z"/></g><path opacity=".4" fill="#FFE02C" d="M302.072 98.227c-.215-1.316-.615-2.586-1.361-3.739-.276-.429-1.065-.556-1.309 0-.648 1.48-.956 3.087-.994 4.706-2.928.434-5.463 2.848-5.238 6.001.287 4.024 5.074 4.425 8.129 3.828 3.371-.659 6.568-3.427 6.771-7.001.199-3.521-3.235-4.224-5.998-3.795zm-.811 9.066c-2.213.691-6.323.775-6.529-2.358-.146-2.205 1.797-3.78 3.698-4.584.075 1.399.34 2.792.778 4.104.197.591 1.164.522 1.129-.152-.133-2.44-.321-4.756.006-7.106.146.471.242.955.312 1.447-.42.373-.309 1.094.125 1.39.059 1.231.002 2.482.012 3.681.008.953 1.459.951 1.478 0 .021-1.235.058-2.511-.017-3.769 1.922-.368 4.151-.155 4.013 2.333-.143 2.533-2.845 4.34-5.005 5.014zm-52.285-95.197c-.309-2.182-2.391-3.291-4.416-3.016-.127.019-.236.153-.27.271-.062.229-.1.46-.127.688-1.594-.729-2.254 1.891-2.235 2.98.016.991.366 1.877.948 2.521-.631.531-1.354.957-2.162 1.153-.209.051-.315.257-.311.454-.201.042-.384.17-.439.398-.243.947-.571 1.731-1.668 1.771-.51.018-.998-.158-1.438-.425-.086-.312-.336-.545-.707-.54a5.367 5.367 0 0 1-.301-.303c-1.714-1.888.21-4.867 2.434-4.517a.566.566 0 0 0-.088.313c-.529.312-.98.731-1.156 1.35-.276.99-.035 2.32.99 2.748.314.132.736-.201.701-.533-.066-.618-.521-1.06-.527-1.695-.006-.438.224-.867.525-1.231a.5.5 0 0 0 .195-.036 11.76 11.76 0 0 1 1.169-.401c.493-.146 1.142-.188 1.476-.611.282-.357.221-.917-.277-1.053-.555-.147-1.049.163-1.551.375-.195.082-.388.167-.58.256-1.228-.854-2.688-.515-3.843.514-1.067.952-1.413 2.408-1.087 3.722l-.01.002c-2.338.899-4.762 1.394-6.721 3.04-.59.495-.141 1.687.656 1.586 2.764-.348 5.596-.812 8.176-1.899.031-.014.051-.036.078-.051 1.924.984 4.387.485 4.719-2.221.006-.047-.006-.085-.01-.127 1 .038 2.021-.395 2.762-1.05a.587.587 0 0 0 .128-.175 3.455 3.455 0 0 0 1.92.206c2.183-.358 3.344-2.368 3.047-4.464zm-14.405 6.026c.042.08.076.165.123.243.065.104.142.199.214.296-.769.216-1.539.415-2.312.592.678-.336 1.35-.688 1.975-1.131zm12.529-3.698c-1.05 1.343-3.188 1.036-3.74-.561-.218-.633-.428-3.229.714-3.21.026 0 .045-.02.069-.026.026 1.608.946 3.021 2.774 3.322.398.065.713-.492.295-.7-1.276-.631-2.28-1.167-2.319-2.76-.03-1.339 1.644-.627 2.228-.08 1.004.944.754 3.024-.021 4.015zm-50.043 27.677c-.763-1.184-1.245-2.459-1.772-3.754.114-.218.219-.444.297-.687 1.603-4.977-3.457-10.581-6.063-14.298-4.358-6.221-5.509-14.03-10.112-20.01a.404.404 0 0 0-.541-.116.627.627 0 0 0-.578-.098c-4.772 1.553-9.66 2.746-14.49 4.104-5.403 1.518-10.519 3.794-16.1 4.667a.421.421 0 0 0-.18.069c-.243.028-.48.25-.384.522.055.158.117.312.173.471-.071.029-.149.056-.218.087-1.77.789-2.939 2.938-2.308 4.828.133.396.559.577.91.489-.107.029-.188.124-.142.264.178.517.369 1.023.566 1.526a6.96 6.96 0 0 0-.444 1.466c-.133.742.922 1.321 1.3.549l.002-.005c.436.954.902 1.89 1.396 2.805.03.291.076.584.17.884.092.296.35.479.628.539.448.771.91 1.532 1.386 2.286a6.357 6.357 0 0 0-.24 1.385c-.045.831.979.928 1.382.379.521.786 1.048 1.568 1.585 2.349a4.61 4.61 0 0 0 .186 1.552c.132.45.775.553 1.023.196.386.556.773 1.11 1.162 1.672.137.197.261.406.395.606-.015.449.023.918.155 1.416.127.478.679.662 1.086.512.451.732.892 1.473 1.33 2.212-.004.047-.014.094-.018.141-.023.454.468 1.848 1.123 1.698 1.839 3.014 3.829 5.902 6.693 8.076.237.18.502.076.666-.117a.435.435 0 0 0 .312.055c4.818-.931 9.71-1.355 14.499-2.449 5.093-1.163 9.774-3.7 14.751-5.247.409-.131.665-.635.414-1.024zm-50.644-22.559a36.82 36.82 0 0 1-.431-1.023c-.049-.125-.173-.166-.278-.146a.639.639 0 0 0 .458-.488c.32-1.318.583-2.324 1.92-2.85.251.638.509 1.273.776 1.903-1.015.606-1.864 1.528-2.445 2.604zm2.045 4.1a48.832 48.832 0 0 1-1.129-2.135c.649-1.113 1.458-1.982 2.464-2.452.252.552.507 1.102.771 1.647-1.035.712-1.826 1.746-2.106 2.94zm2.465 4.05c-.334-.512-.656-1.03-.98-1.549a.688.688 0 0 0 .122-.28c.239-1.167.431-2.261 1.458-3.01.027-.021.055-.036.082-.055.41.795.821 1.589 1.254 2.372a7.409 7.409 0 0 0-1.936 2.522zm2.611 3.824a161.55 161.55 0 0 1-1.387-1.998 8.892 8.892 0 0 1 1.815-2.407c.392.67.792 1.336 1.198 1.998a5.587 5.587 0 0 0-1.626 2.407zm2.79 3.937c-.493-.699-.989-1.396-1.486-2.097.32-.969.804-1.832 1.446-2.44.516.818 1.042 1.649 1.592 2.496-.697.546-1.238 1.236-1.552 2.041zm2.679 4.205a102.44 102.44 0 0 0-1.168-1.924c.227-.975.568-1.78 1.305-2.416.51.752 1.029 1.501 1.569 2.241l-.215.181a6.373 6.373 0 0 0-1.491 1.918zm3.839 1.923a4.973 4.973 0 0 0-.835 2.934 53.835 53.835 0 0 1-1.596-2.509c.099-.249.175-.507.305-.757.364-.697.881-1.241 1.45-1.773.39.486.786.968 1.19 1.434a8.174 8.174 0 0 0-.514.671zm3.541 3.523c-.066 1.398-.181 2.792-.221 4.189-.333-.281-.65-.579-.959-.881.134-.261.144-.604-.068-.869-1.123-1.396-1.15-2.915-.27-4.438.068-.119.153-.223.237-.326.625.621 1.268 1.21 1.933 1.75-.308-.014-.633.176-.652.575zm.14-3.29c.021-.008.039-.019.061-.025.851-.267 1.623.284 2.465-.032.668-.25 1.05-.97.666-1.637-.744-1.292-2.556-1.212-3.841-.905a3.949 3.949 0 0 0-1.059.438c-.334-.414-.669-.826-1.005-1.239.209-.087.423-.164.639-.228.97-.281 1.613.29 2.535.335.873.044 1.272-.936.932-1.624-.593-1.208-2.389-1.366-3.568-1.165a6.627 6.627 0 0 0-2.1.757 141.09 141.09 0 0 1-1.589-2.004c1.001-.307 2.07-.242 3.075.143 1.431.547 2.058-1.76.632-2.292-1.591-.595-3.525-.445-5.132.27a61.504 61.504 0 0 1-1.703-2.446c.765-.244 1.663-.193 2.698.294 1.311.618 2.314-1.1 1.13-1.936-1.59-1.123-3.46-1.027-5.004-.229-.408-.665-.792-1.345-1.187-2.019.565-.23 1.157-.242 1.888-.039 1.027.284 1.81-1.036 1.04-1.788-1.119-1.091-2.757-.776-4.047-.089-.398-.706-.783-1.418-1.168-2.131.552-.122 1.126-.101 1.742.072 1.519.431 2.083-1.805.642-2.327-1.148-.416-2.397-.324-3.517.11-.237-.456-.461-.919-.695-1.377a5.045 5.045 0 0 1 1.768.123c1.504.362 1.982-1.697.622-2.253a4.94 4.94 0 0 0-3.523-.117c-.271-.551-.526-1.109-.79-1.662 1.046-.093 2.029.207 3.117.175 1.114-.033 1.478-1.458.556-2.051-.315-.203-.676-.334-1.055-.43 3.839-.688 7.521-2.136 11.247-3.332 5.201-1.67 10.902-2.345 15.852-4.677.066-.032.115-.079.162-.123 2.238 4.766 3.531 9.897 5.847 14.634 2.53 5.18 6.839 9.249 9.026 14.652 2.313 5.717-4.682 6.723-8.621 7.297-5.549.81-10.9 3.596-16.509 3.63-.064 0-.113.022-.169.035-.005-.01-.007-.021-.013-.028a69.102 69.102 0 0 0-2.047-2.76zm16.387 4.971c-5.08 1.587-10.496 1.82-15.64 3.19.128-1.624.281-3.242.315-4.872.001-.065-.015-.118-.031-.173.123.095.245.194.371.285.015.013.032.014.047.022-.077.457.175.979.78.995 5.978.148 11.853-2.999 17.767-3.914 2.279-.354 5.85-.933 7.828-2.78.216.901.584 1.707 1.066 2.533-4.219 1.439-8.244 3.383-12.503 4.714z"/><g opacity=".4" fill="#FFE02C"><path d="M228.652 89.523c-1.453-2.445-4.18-2.603-6.664-1.828-.209-1.415-.771-2.863-1.729-4.252-5.409-7.853-21.418-5.762-24.799 2.582-.932-.795-2.154-1.534-3.164-1.383-2.148.325-1.152.897-2.381 1.934-.551.465.035 1.403.693 1.191-.936.3-.627-.218-.979.87-.074.229-.16.457-.25.683-1.1.082-2.211.391-3.271.633-.605.139-.645.955-.165 1.259.688.434 1.192 1.151 1.688 1.837-.584.328-1.147.675-1.729 1.027-.396.239-.442.664-.276 1.058 1.127 2.658 3.004 4.491 5.81 4.772.331 2.846 3.304 3.86 5.513 1.659a.444.444 0 0 0 .12-.249 173.27 173.27 0 0 1 4.026 7.586c.205.41.691.345.969.082 1.943.396 3.585-.391 4.956-1.865.78-.84 1.425-1.816 2.063-2.763.047-.07.1-.145.151-.214 2.877 1.057 6.341 1.279 9.31.723 2.642-.498 5.183-3.354 3.101-5.902 1.388-.313 2.931-.063 4.146-.92 1.209-.849.855-2.451.402-3.699 1.941-.752 3.765-2.618 2.459-4.821zm-10.296-6.06c2.005 1.994 2.707 5.279 1.948 7.952-.887 3.134-4.953 4.158-7.73 4.513-5.158.655-12.164-.221-16.494-3.462a.388.388 0 0 0 .15-.375c-1.422-11.426 14.853-15.859 22.126-8.628zm-5.974 14.003c-1.592 4.029-6.825 1.708-10.08.676-1.141-.363-2.354-.849-3.561-.937-.459-.032-.927-.049-1.382.039-.536.09-1.065.207-1.59.354-1.563-1.74-1.749-3.054-.59-3.947 4.576 3.51 11.399 4.493 17.203 3.815zm-20.06.941c-.045-.009-.086-.028-.133-.027-2.455.022-3.918-1.427-4.92-3.39.559-.403 1.113-.8 1.727-1.129.422-.228.406-.748.141-1.076-.499-.613-.896-1.234-1.379-1.787l.05-.011c.793-.17 1.759.039 1.435-.614.295.591 1.049.329 1.25-.162.336-.817 1.045-2.086.891-3.073.227-.276.352-.578.354-1.031.003-.426 2.044.694 3.269 1.368-.287 1.367-.256 2.876.178 4.511-.559-.006-1.046.598-.695 1.08-2.375.62-3.323 3.159-2.168 5.341zm4.047 2.407c-1.35 1.127-2.461.611-3.34-1.521.514.353 1.223.47 1.801.369.408-.068.787-.147 1.154-.228.264.441.518.894.773 1.342a.408.408 0 0 0-.388.038zm5.336 6.661c-1.496-2.838-3.168-5.526-4.91-8.211.199-.041.397-.077.595-.111.419.564 1.002 1.188 1.774 1.094.563-.067 1.051-.492 1.295-1.01.043.012.082.018.123.03 1.242.35 4.194 1.373 7 1.806-2.434 1.644-4.138 4.058-5.877 6.402zm.859.874c1.85-2.438 3.574-4.827 6.13-6.614a.58.58 0 0 0 .257-.504c.182.014.359.021.535.028-.943.906-1.643 2.472-2.281 3.433-1.116 1.673-2.586 3.484-4.641 3.657zm17.041-5.861c-.986.676-2.35.82-3.502.918-2.07.177-4.124.005-6.18-.182.447-.595.882-1.215 1.078-1.85a.548.548 0 0 0 .024-.185c1.361-.193 2.377-.795 2.697-2.033.532 1.371 1.325 2.785 2.987 2.695 1.437-.078 2.43-1.486 3.593-2.303-.024 1.158.468 2.141-.697 2.94zm5.391-9.359c-.365.085-.681.562-.527.933.681 1.649 1.014 2.938-1.061 3.203-.927.118-1.832.194-2.73.452-2.717.779-3.731 5.13-6.366.972-.11-.179-.333-.197-.493-.12.025-.386.02-.804-.07-1.294.414-.068.821-.146 1.221-.231 4.412-.948 6.986-4.169 7.096-7.865.912-.005 1.848-.255 2.742-.335 1.197-.104 2.197.627 2.623 1.729.596 1.542-1.335 2.304-2.435 2.556z"/><path d="M202.964 101.715a5.035 5.035 0 0 0-.377-.881c-.164-.307-.496-.344-.814-.299a.744.744 0 0 0-.521.342c-.078.115-.149.349-.289.396-.022.008-.035.028-.057.043-.117-.103-.308-.109-.41.065-.486.817-.725 1.982-.068 2.776.463.561 1.348.556 1.896.139.797-.607.92-1.67.64-2.581zm-.909 1.247c-.05.176-.146.354-.237.456a.574.574 0 0 1-.324.204l-.058.011c-.028.002-.06.002-.088.002.053.001-.158-.047-.097-.019-.176-.078-.176-.098-.271-.285-.225-.431-.105-1.045-.007-1.558.271.052.524-.006.69-.238.127-.18.141-.282.248-.284.178.551.294 1.164.144 1.711z"/></g><g opacity=".4" fill="#FFE02C"><path d="M177.93 80.73c.812-3.551-1.925-7.573-4.624-9.596-10.693-8.005-25.398-6.003-34.516 3.534-2.77 2.896-4.244 6.322-4.592 9.759-2.899 2.604-1.537 10.065-.197 12.91 3.081 6.544 11.682 8.578 18.248 8.66 7.62.097 11.108-4.587 13.723-11.062.846-2.094 1.549-4.455 3.109-6.148 1.13-1.226 3.659-1.03 5.072-1.756 2.791-1.43 4.843-3.003 3.777-6.301zm-33.262-9.256c9.121-6.173 24.67-5.973 30.992 4.365 1.461 2.388 1.201 6.127-1.369 7.603-1.531.877-3.567.896-5.24 1.387-1.722.504-2.603 1.593-2.936 2.932-.354.003-.709.233-.718.693-.217 11.148-12.371 14.796-21.393 10.959-5.253-2.231-8.344-7.29-8.66-12.899-.36-6.397 4.384-11.696 9.324-15.04zm11.549 32.503c-6.004 2.01-14.424-.312-18.979-4.463-2.159-1.966-2.836-4.599-3.186-7.363-.214-1.711-.672-4.811.08-6.82-.304 6.888 3.897 13.648 11.385 16.133 5.959 1.979 12.711.752 16.987-3.086-1.358 2.468-3.156 4.552-6.287 5.599zm13.049-17.065c-.841.312-1.475.907-1.993 1.608.467-1.702 1.784-2.495 4.267-2.971 1.861-.354 3.624-.799 4.939-2.178-1.128 2.433-4.997 2.719-7.213 3.541z"/><path d="M165.385 78.756c-.588-.175-.932.556-.565.973l.038.04c-2.711-2.103-6.379 1.016-7.145 3.766a.77.77 0 0 0 .353.865c2.332 1.287 5.429.709 7.573-.717 1.922-1.281 2.397-4.137-.254-4.927zm-.598 1.698c.232.104.488-.103.441-.314.355.352.684.723.535 1.252l-.001.002c-.881-.516-2.669-.214-3.426.059-1.034.373-1.474 1.153-1.538 2.099a5.013 5.013 0 0 1-1.391-.238c.843-2.056 3.162-3.847 5.38-2.86zm-3.287 3.083c.244-.729.886-1.164 1.768-1.262.479-.054.973-.006 1.448.062l.175.03c-.237.154-.481.285-.682.393a6.86 6.86 0 0 1-2.709.777zm11.552-9.82c-.02-.336-.213-.629-.551-.723-2.129-.592-3.903.222-4.682 2.312-.104.276-.018.491.143.633-.3.437-.631.85-.924 1.289-.213.32-.015.865.38.936 1.757.299 3.741 4.19 5.661 2.446 2.083-1.895.109-4.686-.027-6.893zm-.899 5.611c-.35.437-1.737-1.164-2.074-1.438-.498-.4-1.019-.705-1.598-.861.12-.313.247-.685.317-1.002a.686.686 0 0 0 .327-.361c.483-1.225 1.391-1.559 2.512-1.342.325 1.565 1.456 3.838.516 5.004zm-7.376-10.029c-1.955-1.371-4.076.994-4.007 2.945.002.021.01.039.013.062-.568.754-1.071 1.645-.964 2.602.102.91.698 1.525 1.523 1.851 1.859.731 4.282-.525 5.016-2.284.752-1.809-.005-4.071-1.581-5.176zm.199 4.496c-.338 1.094-1.815 1.791-2.899 1.618-1.411-.225-.973-1.624-.485-2.58a.62.62 0 0 0 .352-.271c.413-.67.881-2.86 2.09-1.922.92.714 1.279 2.063.942 3.155zm-6.884-4.668c-.902-.789-2.308-.35-3.22.182a.607.607 0 0 0-.292.408c-.541-.101-1.097.048-1.332.65-.308.787.263 1.51.835 2.05-.384 1.026-.319 2.155-.732 3.176-.181.45.268.87.68.894 2.361.127 4.132-2.659 4.593-4.673.204-.894.216-2.032-.532-2.687zm-1.038 2.791c-.317.963-1.047 2.378-2.078 2.926.106-.771.145-1.562.534-2.254.143-.252.129-.635-.108-.833-.309-.26-.605-.514-.85-.839-.103-.139.205-.264.435-.387a.53.53 0 0 0 .4 0c.344-.132 1.516-.788 1.826-.317.298.45-.01 1.26-.159 1.704zm-7.747-.847c-1.439-1.028-2.799.669-3.403 1.907-1.567-.1-2.832.979-2.923 2.801-.026.477.488.842.931.711.597-.177 1.244 0 1.888.031.268 1.217.798 2.627 2.274 2.357 1.419-.258 2.138-2.396 2.384-3.569.272-1.29.02-3.4-1.151-4.238zm-.17 4.154c-.167.747-.502 1.497-1.017 2.067-.792.878-.996-1.035-1.048-1.514-.054-.486-.406-.756-.891-.678-.521.084-1.028-.024-1.537-.082.37-.754 1.224-1.002 2.188-.849.572.092.775-.579.336-.855.425-.68 1.095-1.694 1.617-.915.521.778.544 1.953.352 2.826zm-4.349 3.66c-.587-.571-1.446-1.018-2.285-.923-.679.077-1.281.497-1.637 1.07-.033-.009-.06-.024-.097-.03-1.079-.119-2.603.02-3.107 1.175-.431.99 0 2.049.582 2.881.947 1.359 3.539 3.646 5.256 2.262.851-.687.834-2.029.659-3.113.673-.141 1.311-.466 1.486-1.188.194-.8-.309-1.603-.857-2.134zm-.413 2.017c-.249.163-.634.156-.953.146-.44-.012-.663.405-.603.79.103.652.207 1.438.095 1.979a2.167 2.167 0 0 1-.097.325c.042-.113-.024.02-.067.1-.012.006-.096.109-.129.138.119-.101-.147.053-.03.01-.031.012-.118.026-.159.034-.07.005-.14.007-.21 0h-.01c-.046-.008-.094-.019-.141-.028a2.714 2.714 0 0 1-.339-.106c-.008-.003-.059-.021-.193-.088a4.937 4.937 0 0 1-.303-.166 7.273 7.273 0 0 1-.568-.388c-.474-.379-.782-.778-1.083-1.158.082.104-.109-.156-.142-.203a4.915 4.915 0 0 1-.374-.665l-.059-.162a2.311 2.311 0 0 1-.075-.289c-.005-.02-.007-.031-.011-.042a.582.582 0 0 0 0-.088c0-.036.01-.144.012-.187l.011-.046c.005-.021.003-.019.006-.028a.936.936 0 0 1 .058-.101c.029-.033.062-.063.095-.095l.001-.001.009-.005c.032-.022.18-.098.204-.113.127-.05.257-.088.389-.117.258-.061.531-.092.829-.111.04.509.713.668.988.231.34-.543.491-1.165 1.076-1.298.331-.073.895.163 1.243.457.208.177.362.354.488.554.128.207.174.376.174.524-.002.06-.022.123-.132.197zm.599 7.137a2.504 2.504 0 0 0-1.011.419c-.016.014-.025.029-.039.042-.576-.762-1.379-1.744-2.379-1.225-.871.451-1.021 1.61-1.055 2.481-.085 2.158.67 4.694 3.052 5.237 4.051.926 5.476-7.557 1.432-6.954zm.942 2.899c-.07.898-.65 2.551-1.694 2.678-1.645.197-2.249-1.809-2.378-3.043-.071-.659-.13-1.524.198-2.131.258-.479 1.219.272 1.626.637.013.406.327.787.816.616.281-.097.566-.243.862-.259.207-.012.253.032.368.153.205.218.239.88.202 1.349zm4.2-.596c-.358-.1-.695.066-.894.363-.929 1.386-1.472 3.355-.463 4.835-1.212.27-1.942 1.198-1.247 2.527.876 1.681 3.344 1.857 4.802 1 3.458-2.037.976-7.849-2.198-8.725zm-.227 7.835c-.475-.085-.874-.359-1.213-.688-.679-.66.29-1.133.818-1.361.154-.065.196-.219.165-.361a.55.55 0 0 0 .292-.534c-.051-1.222-.173-2.113.301-3.126 1.394.757 2.173 2.665 2.151 4.152-.021 1.348-1.254 2.145-2.514 1.918zm12.473-7.757c-.733-1.108-1.89-1.976-3.275-1.535-1.384.438-2.043 2.058-1.997 3.399.004.113.03.21.065.297-.21.272-.386.569-.513.879-.532 1.315.818 2.271 1.959 2.39 2.329.242 2.79-3.277 3.761-4.646.152-.214.142-.571 0-.784zm-3.133 3.688c-.33.38-1.383.517-1.441-.191-.026-.31.142-.65.382-.967a.756.756 0 0 0 .403-.442c.227-.21.466-.385.662-.481.394-.199.117-.814-.294-.699-.053.014-.102.035-.152.053.108-.366.292-.702.628-.927.496-.331.99.009 1.342.405-.56 1.056-.735 2.329-1.53 3.249z"/></g><g opacity=".4" fill="#FFE02C"><path d="M221.641 7.664c-3.69-.958-7.629-.562-11.41-.814-.315-.021-.729.197-.862.492-.938 2.118-1.525 4.34-2.117 6.562.006-.546.014-1.092.016-1.638a.877.877 0 0 0-.867-.868 81.424 81.424 0 0 0-4.715.067c-1.031.04-1.031 1.561 0 1.601a88.51 88.51 0 0 0 3.855.067c.021 2.167.063 4.336-.02 6.5-.031.833 1.273 1.257 1.637.443 1.399-3.144 2.061-6.491 3.11-9.755.883-2.739 8.812-1.137 11.161-1.087.906.019 1.085-1.343.212-1.57z"/><path d="M214.58 15.26c.696-.479 1.193-1.167 1.082-2.101-.189-1.602-2.102-1.818-3.369-1.695-.637.062-.664 1.01 0 1.013.496.001 2.158.009 1.967.898-.147.693-1.35.921-1.895 1.029-1.01.201-.635 1.537.223 1.645 1.381.175 2.31 1.19 1.195 2.331-1.113 1.139-2.488.192-3.744.562-.436.128-.676.652-.428 1.054 1.311 2.13 4.719.603 5.828-.95 1.119-1.565.368-2.911-.859-3.786z"/></g><path d="M220.449 67.312a63.01 63.01 0 0 0-6.191-6.888c-1.493-1.427-3.986-4.015-6.271-3.945-6.029.181-10.293 7.765-14.277 11.397-.566.517.258 1.312.83.832.082-.067.16-.141.237-.209 8.103 1.432 16.24-1.021 24.397-.064a.578.578 0 0 0 .578-.28c.501.369 1.1-.326.697-.843zm-24.877.471c.797-.746 1.576-1.558 2.36-2.384.317.306.729.549 1.015.878.373.434.561.993.648 1.557-1.34.068-2.679.07-4.023-.051zm18.192-1.361c-4.459.037-8.916 1.052-13.39 1.367a4.545 4.545 0 0 0-.471-1.803c-.24-.482-.679-1.074-1.201-1.4 2.467-2.607 5.022-5.22 8.256-6.359 2.664-.94 5.938 3.092 7.604 4.649.139.13.266.269.4.397-1.095.606-1.392 1.934-1.198 3.149zm1.28.021c-.006-.19 0-.381.035-.572.119-.649.601-1.055.867-1.623a199.89 199.89 0 0 1 2.475 2.562 22.042 22.042 0 0 0-3.377-.367zm-4.223-15.437c-1.032-.807-2.345-1.55-3.696-1.12-.979.312-1.649 1.164-1.897 2.142-.468 1.85.787 4.349 3 3.573.84-.295 1.655-.928 2.063-1.723.275-.533-.304-1.24-.869-.869a9.884 9.884 0 0 0-.912.708 3.324 3.324 0 0 1-.6.389 1.259 1.259 0 0 1-.187.07c-.037.012-.15.031-.202.042a1.659 1.659 0 0 1-.122.001c-.035-.008-.128-.022-.186-.037a1.652 1.652 0 0 1-.098-.057c-.018-.012-.016-.009-.023-.013-.01-.01-.014-.018-.043-.045-.022-.021-.069-.079-.103-.116a2.124 2.124 0 0 1-.157-.264 2.727 2.727 0 0 1-.096-.319c-.008-.036-.027-.159-.038-.204a5.774 5.774 0 0 1-.022-.259 3.576 3.576 0 0 1 .002-.293c.003-.049.007-.097.013-.146.028-.176.08-.347.142-.514.022-.044.071-.154.088-.185.019-.03.097-.146.113-.175.051-.062.104-.121.161-.178.019-.018.039-.033.06-.05.002.001.092-.068.115-.083.309-.199.696-.277 1.168-.261.709.022 1.397.194 2.062.44.247.095.478-.286.264-.454zM191.764 66.84a16.6 16.6 0 0 0-1.261-3.854c-.196-.42-.797-.342-1.014 0-1.367 2.165-1.639 5.097-2.318 7.535-.145.517.662.888.888.373.336-.771.59-1.566.823-2.371.566.042 1.14.092 1.703.076a.294.294 0 0 0 .224-.1c.097.577.26 1.128.676 1.546a.4.4 0 0 0 .663-.175c.268-.972-.191-2.058-.384-3.03zm-1.179 1.145c-.52-.016-1.045.027-1.566.065l.191-.678c.242-.855.549-1.685.852-2.515.257.738.421 1.506.561 2.296.051.283.084.58.119.877a.33.33 0 0 0-.157-.045zm36.444 1.692c-.223-1.765-2.16-2.804-3.724-2.167a39.49 39.49 0 0 1-.335-2.163c-.088-.703-1.045-.724-1.109 0-.203 2.282.363 4.445.682 6.69.037.258.312.488.549.549 2.001.513 4.232-.584 3.937-2.909zm-3.057 1.464c-.135-.789-.283-1.575-.436-2.361.914-.122 2.024-.35 2.127.896.092 1.109-.79 1.523-1.691 1.465z" opacity=".4" fill="#FFE02C"/><g opacity=".4" fill="#FFE02C"><path d="M289.615 88.082c-.13-.41-.498-.541-.828-.483-4.271-3.177-9.465-5.31-14.199-7.711-5.514-2.798-7.604-8.078-12.047-11.896-2.127-1.826-4.74-1.527-7.142-.438-5.579 2.531-10.013 6.812-15.448 9.526a.279.279 0 0 0-.176.095c-.018.01-.033.02-.053.026-.314.155-.327.457-.188.684a.4.4 0 0 0-.113.093c-8.366 9.712 13.758 20.409 19.979 23.467 2.898 1.425 5.902 2.699 9.129 3.104 3.655.461 7.154-1.829 10.112-3.617 4.472-2.701 13.05-6.202 10.974-12.85zm-2.019-.185a.705.705 0 0 0-.236.277c-3.54 6.888-10.782 10.266-17.253 13.832-.007.004-.009.01-.016.013-.023-.019-.038-.039-.066-.054-6.609-3.178-14.648-4.854-20.061-10.074a103.7 103.7 0 0 1-1.652-1.625c7.434-3.094 13.204-9.165 20.396-12.762a.785.785 0 0 0 .307-.257c5.317 4.679 12.369 7.337 18.581 10.65zm-34.149-17.845c1.793-.956 3.662-1.948 5.732-2.023 2.691-.097 4.854 3.437 6.176 5.255a23.697 23.697 0 0 0 2.428 2.811c-7.363 3.519-13.062 9.603-20.295 13.331-3.099-3.216-6.555-7.435-7.104-11.36 4.694-2.139 8.532-5.597 13.063-8.014zm23.394 30.439c-3.121 1.958-6.127 3.388-9.866 2.658-2.847-.557-5.533-1.952-8.113-3.229-6.708-3.32-22.56-10.787-19.297-20.328.593 3.511 4.28 7.562 6.938 10.334-.469.255-.119 1.068.396.887.113-.039.221-.087.332-.128.378.392.723.748 1.014 1.062 5.445 5.831 14.166 8.294 21.373 11.185a.424.424 0 0 0 .473-.106.412.412 0 0 0 .383.06c6.654-2.21 14.754-6.779 17.964-13.383.599 5.343-7.845 8.632-11.597 10.988z"/><path d="M262.682 74.416c-.004-.048-.007-.096-.024-.147-.531-1.386-1.402-2.216-2.191-3.513-.184-.299-.6-.52-.949-.385-5.662 2.155-10.729 5.406-15.773 8.713-.348.229-.471.65-.268 1.021.893 1.626 1.889 2.833 3.271 4.068a.46.46 0 0 0 .219.112c-.166.152-.332.306-.489.453-.345.318.11.924.505.654 2.432-1.668 4.766-3.47 7.207-5.121 2.734-1.851 5.713-3.042 8.553-4.658.553-.314.382-.963-.061-1.197zm-15.196 9.385a.479.479 0 0 0-.102-.266c-.939-1.2-1.672-2.257-2.307-3.534 2.678-1.703 5.366-3.377 8.146-4.912 1.795-.99 3.655-1.846 5.547-2.633 1-.416 1.981 1.2 2.646 2.062-5.027 1.237-10.079 5.718-13.93 9.283zm36.463 3.01c-1.299-.606-7.218-4.271-10.156-3.827-.764-.872-1.895-1.714-2.793-2.085-1.539-.636-2.681.217-3.559 1.455a.5.5 0 0 0-.08.367c-.631-.072-1.264.009-1.857.312-.748.384-2.075 1.876-2.053 2.854-.863-.104-1.634.196-2.057 1.236-.24.592-.173 1.281.064 1.881-.631-.588-.92-1.011-1.933-.672-1.342.448-2.463 1.488-2.555 2.948-.179 2.851 3.801 4.597 6.103 3.82.01-.003.018-.012.027-.016.24.693.725 1.296 1.333 1.714.791.542 1.87.618 2.733.225.582-.267 1.345-.993 1.615-1.747.877.783 2.135 1.353 3.219 1.876-.223.829-.625 1.643-1.516 1.873-1.08.278-1.916-.924-2.496-1.614-.33-.39-.838.104-.656.505.572 1.255 1.849 2.402 3.308 2.248 1.506-.16 2.287-1.688 2.606-3.012.205.179.562.213.765-.083.278-.403.541-.814.801-1.229.252-.399.614-.784.75-1.237.158-.535-.491-.818-.869-.506-.354.297-.549.817-.778 1.22-.229.396-.461.792-.705 1.181a.492.492 0 0 0-.198-.199c-.871-.455-1.71-.966-2.56-1.456-.263-.15-.541-.333-.83-.449.983-.08 1.76-.703 1.938-2.283.002-.019-.002-.034 0-.053.012.021.023.038.034.061.11.234.44.354.682.277.306-.099.628-.218.938-.36a.441.441 0 0 0 .08.368c1.041 1.296 2.641 2.137 4.315 1.81 1.702-.332 2.478-2.21 2.75-3.712a.841.841 0 0 0 .013-.205c1.608.104 3.028-.582 3.885-2.725.104-.26-.06-.646-.308-.761zm-21.013 7.436c.002.054.013.104.019.156a5.3 5.3 0 0 1-4.213-1.731c-1.496-1.672-.01-2.873 1.5-3.58 1.088 1.012 2.161 2.103 3.397 2.94-.434.673-.739 1.437-.703 2.215zm.742-4.28c-.341-.182-.669-.409-.854-.654a1.978 1.978 0 0 1-.425-.917 1.741 1.741 0 0 1-.002-.78 2.99 2.99 0 0 1 .063-.196c-.053.138.053-.081.074-.119a.113.113 0 0 0 .021-.034l.039-.038c.027-.029.055-.057.084-.083l.004-.002c.006-.004.002 0 .01-.009.209-.143.444-.168.68-.134.221.032.43.102.631.182.711.987 1.892 1.856 2.783 2.396-.537.271-1.054.617-1.426 1.021-.004-.149-.105-.291-.318-.3-.472-.019-.946-.107-1.364-.333zm2.976 5.742c-.443.263-.986.166-1.412-.074-1.111-.63-1.086-1.945-.713-3.066.227.096.46.013.608-.148.735.649 1.731 1.305 2.739 1.679-.501.461-.576 1.224-1.222 1.609zm3.607-3.251c-.29 1.918-2.959.524-4.317-.435.242-.228.44-.519.687-.739a3.87 3.87 0 0 1 1.494-.804c1.444-.41 2.365.467 2.136 1.978zm3.503-2.652c.006-.083-.07.216-.074.225-.089.179-.181.275-.333.423-.286.275-.652.472-1.025.629-.545-.656-1.279-1.103-1.937-1.641.082-.34.149-.708.343-.955.195-.25.45-.391.573-.401.676-.061 1.168.088 1.744.479.151.104.438.406.542.576.137.224.182.385.167.665zm.386 2.2c-.121-.09-.238-.178-.352-.26-.01-.008-.021-.008-.029-.016.316-.194.604-.426.834-.703-.189.319-.346.65-.453.979zm-.158-4.539c-.803-.62-1.916-1.061-2.924-.696-.854.305-1.617 1.064-1.848 2.047a.464.464 0 0 0-.148.21 3.306 3.306 0 0 0-.5-.018c-.238.019-.527.08-.834.179.186-.246.371-.49.559-.733.213-.278-.209-.7-.486-.486-.155.12-.312.239-.469.358-.383-.48-.996-1.047-1.7-1.52a9.705 9.705 0 0 1-.658-.943c.545-1.096 1.296-2.087 2.667-1.68 1.229.364 1.984 1.547 2.984 2.252.515.362 1.104-.328.822-.822a5.45 5.45 0 0 0-.172-.276c.297-.066.385-.492.032-.613a4.414 4.414 0 0 1-.896-.427 6.52 6.52 0 0 0-.897-.729 7.555 7.555 0 0 1-.72-.847c.781-.767 1.509-.768 2.502.04.398.323.75.714 1.123 1.071-.12.21-.211.459-.258.757a.69.69 0 0 0 .221.594c-.35.007-.553.541-.198.811 1.192.913 2.905 2.229 4.695 3.165a3.47 3.47 0 0 0-.735.281c-.447.236-.877.638-1.232 1.109.076-.155.14-.32.179-.502.223-1.004-.331-1.979-1.109-2.582zm3.313 5.629c-.765.247-1.529-.041-2.226-.457.364-.58.637-1.201 1.133-1.72.851-.891 1.916-.761 2.89-.269-.241 1.049-.697 2.09-1.797 2.446zm-4.591-7.789a.46.46 0 0 0 .271-.092c.283-.204.584-.344.892-.449a.487.487 0 0 0 .35-.105c2.674-.627 6.049 1.794 8.508 3.048-1.964 3.619-7.623-.834-10.021-2.402z"/></g><path fill="#FFE02C" d="M42.358 84.018a1.094 1.094 0 0 0-1.077-.354c-.138.028-.279.064-.417.096-.039-.016-.07-.043-.116-.053-3.473-.769-7.018-.543-10.403-1.744a95.067 95.067 0 0 0-5.4-7.579c-.3-.523-.973-.725-1.583-.437-2.241 1.061-4.309 2.545-6.391 3.876a185.374 185.374 0 0 1-3.397 2.133c-.335.203-.75.415-.96.764-.247.403-.172.521-.035.575-.036.013-.073.023-.1.056l-.045.047a.296.296 0 0 0-.043.34c.854 1.646 7.004-2.512 10.303-4.663-.215 1.758-.747 3.464-1.318 5.157-.556 1.645-1.85 3.776-1.62 5.582-4.521-1.816-8.385-6.464-12.344-9.394a38.96 38.96 0 0 0 1.743.638c1.277.43 2.698 1.004 4.054.987.573-.008.777-.788.283-1.076-1.033-.603-2.287-.766-3.435-1.084a45.408 45.408 0 0 1-3.83-1.233c-.547-.207-.948.576-.628.954a.51.51 0 0 0-.093.124c-.23-.025-.472.118-.506.44-.565 5.342 2.415 10.275 2.759 15.56.028.415.284.816.713.914 6.769 1.503 14.766 5.508 21.826 4.252 5.997-1.066 10.892-8.707 13.658-13.612.63-1.117-.749-1.942-1.598-1.266zm-5.271.891c-1.342.484-2.71 1.025-4.088 1.545-.018-.058-.023-.114-.055-.175a75.057 75.057 0 0 0-1.535-2.626c1.818.634 3.744 1.012 5.678 1.256zM23.502 82.79c.701-1.855 1.306-3.755 1.525-5.712 2.025 3.381 4.359 6.607 6.463 9.93-3.299 1.165-6.624 2.017-9.779 1.399-.165-.032-.326-.083-.487-.124 1.204-1.359 1.659-3.851 2.278-5.493zM9.403 92.139c-.411-1.359-.782-3.936-.902-4.339-.922-3.127-2.005-5.965-2.505-9.189 3.219 2.976 6.301 6.532 9.948 9.105-2.295 1.22-4.365 2.796-6.458 4.332-.035.028-.054.06-.083.091zm25.454 1.523a10.775 10.775 0 0 1-1.892 1.584c-.539-1.207-.644-2.486-1.054-3.732-.309-.938-1.896-.815-1.788.255.144 1.438.694 2.963 1.419 4.237-3.042 1.279-6.359.625-10.072-.153-3.85-.81-7.623-1.959-11.458-2.836.01-.007.019-.006.03-.015 2.211-1.523 4.454-3.002 6.684-4.498a.612.612 0 0 0 .156-.152c1.342.857 2.762 1.571 4.298 2.072 5.922 1.932 13.649-2.728 19.586-4.346-1.875 2.603-3.664 5.232-5.909 7.584zM149.56 39.501c-.038.144-.068.289-.102.434a.51.51 0 0 0-.225.054c-1.798.933-3.383 1.045-5.245.631.017-.146.041-.295.055-.439.05-.533-.733-.695-.977-.265-.584 1.037-.727 2.371-.996 3.52-.398 1.698-.831 3.41-1.536 5.014-1.528-.67-3.062-.483-3.958 1.082-.577 1.008-.403 2.736.94 2.957 1.912.314 3.561-2.21 4.169-3.656a36.427 36.427 0 0 0 1.361-3.814c.94.402 1.88.607 2.92.621.779.01 1.781-.08 2.564-.438-.173.988-.38 1.971-.685 2.936a3.644 3.644 0 0 1-.25.493c-2.979-2.183-4.673 2.979-2.469 3.644 1.841.556 3.158-1.98 3.714-3.303 1.198-2.85 1.381-6.286 1.71-9.331.064-.582-.846-.676-.99-.14zm-11.952 11.27c-.02-1.372 1.412-1.736 2.5-1.558-.713.937-2.481 2.797-2.5 1.558zm7.862-.123c-.098-1.139.853-1.816 1.876-1.604-.673 1.09-1.789 2.601-1.876 1.604zm.496-6.065c-.906.073-1.82-.132-2.683-.399.255-.953.465-1.913.61-2.847 1.682.688 3.671.826 5.271-.032-.15.814-.271 1.635-.398 2.454-.974.149-1.768.741-2.8.824z" opacity=".4"/></svg>