<svg id="Layer_1" xmlns="http://www.w3.org/2000/svg" viewBox="-356.5 206.5 113 138.5"><style>.st0{fill:#adadad;fill-opacity:.1686}.st1{fill:#ec674c}.st2{fill:#f6f3dc}.st3{fill-opacity:.1294}.st4{fill:#fff}.st5{fill:#f0e1e1}.st6{fill:#ccc}.st7{fill-opacity:.2196}.st8{fill:#57391f}.st9{fill:#be493d}.st10{fill:#58391f}.st11{fill:#89592a}.st12{fill:#ec684d}</style><path class="st0" d="M-270.4 290c6.8-6.8 10.1-14.9 10.1-24.5 0-9.5-3.4-17.7-10.1-24.4-6.7-6.8-14.9-10.2-24.5-10.2s-17.7 3.4-24.5 10.2c-6.7 6.7-10.1 14.9-10.1 24.4 0 9.6 3.4 17.7 10.1 24.5 6.8 6.7 14.9 10.1 24.5 10.1s17.8-3.4 24.5-10.1z" id="Layer0_0_MEMBER_0_FILL"/><path class="st1" d="M-312.4 215.4c3.8-1.8 7.1-3 9.9-3.7.9-.3 2-.4 3.4-.3-11.6-.5-22.4 2.2-32.5 8.1-11 6.5-17.8 15-20.5 25.6-3.1 12.4-.5 26 7.8 40.9 4.8 8.6 10.9 16.6 18.1 24-18.2-34.7-19.7-61.5-4.5-80.3 4.7-6 10.8-10.8 18.3-14.3z" id="Layer0_0_MEMBER_0_MEMBER_0_FILL"/><path class="st1" d="M-305.9 234.9c4.6-10.5 9.3-18 14.2-22.4l1.4-.2c-2.8-.5-4.9-.9-6.3-1l1.4.2c-20.3 8-31 26.2-32.2 54.5-.7 15.3 1.1 30.4 5.2 45.1l5.5 1.3c-1.9-30.7 1.7-56.5 10.8-77.5z" id="Layer0_0_MEMBER_0_MEMBER_1_FILL"/><path class="st1" d="M-279.2 216.2l.4.1c-1.9-.9-4-1.7-6.3-2.5l.1.1c4.3 14.3 1.8 34.8-7.5 61.6-5.2 15.1-10.7 28-16.5 38.8l5.5 1.4c10.8-10.7 19.7-23 26.6-36.8 12.6-25.3 11.8-46.1-2.3-62.7z" id="Layer0_0_MEMBER_0_MEMBER_2_FILL"/><path class="st1" d="M-251.4 242.2c-5.1-9.4-12.4-17-22-22.9 9.6 9.3 15.1 20.1 16.5 32.2 2.4 22.5-11.6 44.1-42.1 64.7 9.7-3.6 18.6-8.2 26.7-13.8 13.6-9.4 22-19.8 25.2-31.3 2.5-9.2 1.1-18.9-4.3-28.9z" id="Layer0_0_MEMBER_0_MEMBER_3_FILL"/><path class="st2" d="M-298 211.3c-1.9-.1-3.4 0-4.5.3-2.8.6-6.1 1.8-9.9 3.6-7.5 3.6-13.7 8.3-18.4 14.2-15.2 18.9-13.7 45.7 4.5 80.3l.3.3 3.9 1c-4.2-15-5.9-30-5.2-45.1 1.2-28.3 12-46.4 32.2-54.4l-2.9-.2z" id="Layer0_0_MEMBER_0_MEMBER_4_FILL"/><path class="st2" d="M-273.4 219.5c-1.5-.9-3.3-1.9-5.5-3l-.5-.2c14.1 16.5 14.9 37.4 2.3 62.6-6.6 13.3-15.5 25.6-26.5 36.9l3.6.9v.1l.9-.4c30.5-20.7 44.5-42.3 42.1-64.7-.8-7.5-3.4-14.7-7.8-21.6-2.6-4.1-5.4-7.6-8.6-10.6z" id="Layer0_0_MEMBER_0_MEMBER_5_FILL"/><g id="Layer0_0_MEMBER_0_MEMBER_6_FILL"><path class="st2" d="M-313.1 296.9c-1.4-.6-2.7-1.2-4-2 0 5.7.2 11.5.5 17.5l7.7 1.9c2.4-4.6 4.8-9.5 7-14.6-3.8-.3-7.6-1.2-11.2-2.8m28-83l-.1-.1c-.8-.3-2-.6-3.6-1l-1.5-.3c-.3 0-.7.1-1.4.2-3.3 3-6.6 7.3-9.8 13.2 1.7.2 3.4.6 5 1 4 .3 8 1.2 11.8 2.8.6.2 1.1.5 1.7.8 0-6.3-.7-11.8-2.1-16.6z"/><path class="st3" d="M-299 226.8c.8 0 1.6 0 2.5.1-1.6-.4-3.3-.8-5-1-1.5-.2-3.1-.2-4.6-.2-9.5 0-17.7 3.4-24.5 10.1-6.7 6.7-10.1 14.9-10.1 24.5s3.4 17.7 10.1 24.5c2.2 2.2 4.5 4 7 5.5-.4-.4-.8-.7-1.1-1.1-3.4-3.4-6-7.3-7.8-11.6-1.9-4.6-2.9-9.3-2.9-14.2 0-4.9 1-9.6 2.9-14.2 1.7-4.2 4.3-8 7.8-11.6 3.4-3.4 7.3-6 11.6-7.8 4.5-2 9.2-3 14.1-3z"/><path class="st4" d="M-273.1 237.5c-1.6-1.6-3.3-3-5.1-4.2-1.6-1.1-3.2-2-4.8-2.9-.6-.3-1.1-.5-1.7-.8-3.8-1.6-7.7-2.6-11.8-2.8-.8 0-1.6-.1-2.5-.1-4.9 0-9.6 1-14.2 2.9-4.3 1.8-8.2 4.4-11.6 7.8-3.5 3.6-6.1 7.4-7.8 11.6-1.9 4.6-2.9 9.3-2.9 14.2 0 4.9 1 9.6 2.9 14.2 1.8 4.3 4.4 8.2 7.8 11.6.4.4.8.7 1.1 1.1 2 1.8 4.2 3.4 6.5 4.7 1.3.8 2.6 1.4 4 2 3.7 1.6 7.4 2.5 11.3 2.8 1 .1 1.9.2 2.9.1 1.2 0 2.3-.1 3.5-.2 3.7-.3 7.3-1.2 10.8-2.7 4.2-1.7 8.1-4.3 11.6-7.8 3.5-3.6 6.1-7.4 7.8-11.6 1.9-4.7 2.9-9.4 2.9-14.2 0-4.9-1-9.6-2.9-14.2-1.8-4.2-4.4-8.1-7.8-11.5m7.7 25.8c0 9.3-3.3 17.2-9.8 23.7-6.6 6.5-14.5 9.8-23.8 9.8-3.7 0-7.1-.5-10.4-1.5-.7-.2-1.5-.5-2.2-.8-4-1.6-7.7-4.1-11.1-7.5-6.5-6.6-9.8-14.5-9.8-23.7s3.3-17.1 9.8-23.7c6.6-6.5 14.5-9.8 23.7-9.8 2.7 0 5.2.3 7.6.8 6.1 1.3 11.4 4.3 16.1 9 6.7 6.6 9.9 14.5 9.9 23.7m-38.8-16.9c1-1 2.2-1.9 3.6-2.7-1.8 0-3 .9-3.6 2.7z"/><path class="st5" d="M-275.1 287c6.5-6.5 9.8-14.4 9.8-23.7 0-9.2-3.3-17.1-9.8-23.7-4.7-4.7-10-7.7-16.1-9-2.4-.5-4.9-.8-7.6-.8-9.2 0-17.1 3.3-23.7 9.8-6.5 6.6-9.8 14.5-9.8 23.7s3.2 17.1 9.8 23.7c3.3 3.3 7 5.8 11.1 7.5.8.3 1.5.6 2.2.8 3.3 1 6.7 1.6 10.4 1.5 9.2 0 17.1-3.3 23.7-9.8m-7.1-39.1c.9 1.4 1.2 2.7.9 3.8-.3 1-1 1.8-2.3 2.4-1.1.5-2 .7-2.7.4 0 0-.8-1-2.3-3-.5.1-.9.1-1.2 0l-2.7-3.4c-.3-.4-.6-.7-.9-1-.4-.2-.9-.4-1.4-.6-1.5-.5-2.8-.4-3.9.1s-1.9 1.4-2.2 2.8c-.4 1.3.1 3.2 1.5 5.6.5.8 1.9 2.7 4.1 5.8 2.1 2.8 3.4 5 4.1 6.9.6 1.7.6 3.3.1 4.9-.7 2.3-2.6 4.1-5.6 5.6-2.5 1.2-4.9 1.9-7.3 2l-.8-2.5c.3-.1.6-.3.9-.4-.8.2-1.7.3-2.5.4l-1-2.5c1.6-.8 2.8-1.6 3.6-2.3.9-.8 1.5-1.9 1.8-3.1.5-1.6-.2-3.8-2.1-6.5-2.3-2.9-3.9-4.8-4.6-5.8-1.2-1.6-2-3.1-2.2-4.4-.3-1.3-.2-2.7.1-4.2.9-3.4 3.2-6.1 6.9-8.1 3.6-1.9 7.2-2.4 10.8-1.4h.1c.9.3 2.1.8 3.4 1.8 1 .7 1.9 1.4 2.6 2.2.3.2.7.5 1.1.8 1.6 1.1 2.8 2.4 3.7 3.7m-27 39.1c-1-.3-1.7-.8-2.1-1.7-.5-.9-.5-1.8-.2-2.8.3-.9.8-1.7 1.7-2.2.8-.5 1.7-.6 2.7-.4 1 .2 1.7.8 2.2 1.7.1.2.2.5.3.8h.1c.9.3 1.6.9 2.1 1.8.4.9.5 1.8.2 2.8-.3 1-.9 1.8-1.8 2.2s-1.8.5-2.7.2c-1-.3-1.7-.9-2.1-1.8-.2-.2-.3-.4-.4-.6z"/><path class="st6" d="M-309.2 287c.1.2.2.4.2.6.4.9 1.1 1.4 2.1 1.8.9.3 1.8.2 2.7-.2s1.5-1.2 1.8-2.2c.3-1 .2-1.9-.2-2.8-.5-.9-1.2-1.5-2.1-1.8h-.1c.2.6.2 1.2 0 1.9-.3 1.1-.9 1.8-1.7 2.3-.8.5-1.7.6-2.7.4m5-40.6c-.1.2-.1.4-.2.6-.4 1.3.2 3.2 1.7 5.5.6.8 2 2.7 4.4 5.6 2.1 2.7 3.5 5 4.2 6.7.7 1.7.8 3.3.4 4.8-.7 2.3-2.5 4.2-5.5 5.9-1.6.9-3.1 1.5-4.6 1.9-.3.1-.5.3-.9.4l.8 2.5c2.4-.1 4.8-.8 7.3-2 3-1.5 4.9-3.4 5.6-5.6.5-1.5.5-3.2-.1-4.9-.6-1.8-2-4.1-4.1-6.9-2.3-3.1-3.7-5-4.1-5.8-1.4-2.4-1.9-4.2-1.5-5.6.4-1.3 1.1-2.2 2.2-2.8 1.1-.5 2.4-.5 3.9-.1.5.1.9.3 1.4.6-1.6-1.7-3.2-2.8-5.1-3.2-.8-.2-1.5-.3-2.1-.2-1.5.6-2.7 1.5-3.7 2.6m22.8 5.4c.3-1.1 0-2.4-.9-3.8s-2.1-2.7-3.7-3.8c-.4-.3-.8-.6-1.1-.8.4.5.8 1 1.1 1.5.5.8.8 1.5.9 1.9.2.6.2 1.2 0 1.8-.3 1-1 1.8-2.2 2.4-.6.3-1.1.5-1.5.6 1.5 2 2.3 3 2.3 3 .7.2 1.6.1 2.7-.4 1.4-.7 2.2-1.5 2.4-2.4z"/><path class="st1" d="M-311.4 285.3c.5.8 1.2 1.4 2.1 1.7 1 .3 1.9.1 2.8-.4.8-.5 1.4-1.2 1.7-2.3.2-.7.2-1.3 0-1.9-.1-.3-.2-.5-.3-.8-.5-.9-1.2-1.5-2.2-1.7-1-.2-1.9-.1-2.7.4-.9.5-1.4 1.2-1.7 2.2-.2 1-.1 1.9.3 2.8m7.5-44.5c-3.6 2-5.9 4.7-6.9 8.1-.4 1.5-.5 2.9-.1 4.2.3 1.3 1 2.8 2.2 4.4.7 1 2.3 2.9 4.6 5.8 1.9 2.7 2.6 4.9 2.1 6.5-.3 1.2-.9 2.3-1.8 3.1-.8.7-2 1.5-3.6 2.3l1 2.5c.8-.1 1.7-.2 2.5-.4 1.5-.4 3.1-1 4.6-1.9 3-1.6 4.8-3.5 5.5-5.9.4-1.5.3-3.1-.4-4.8-.7-1.7-2.1-4-4.2-6.7-2.4-2.9-3.8-4.8-4.4-5.6-1.5-2.3-2.1-4.2-1.7-5.5.1-.2.1-.4.2-.6.7-1.7 1.9-2.6 3.6-2.7.6 0 1.4.1 2.1.2 1.8.5 3.5 1.6 5.1 3.2.3.3.5.6.9 1l2.7 3.4c.3.1.7.1 1.2 0 .4-.1.9-.3 1.5-.6 1.2-.6 1.9-1.4 2.2-2.4.2-.6.2-1.2 0-1.8-.1-.4-.4-1.1-.9-1.9-.3-.5-.7-1-1.1-1.5-.8-.8-1.6-1.6-2.6-2.2-1.3-.9-2.5-1.5-3.4-1.8h-.1c-3.6-.8-7.2-.4-10.8 1.6z"/><path class="st7" d="M-278.2 233.3c1.8 1.2 3.5 2.6 5.1 4.2 3.4 3.4 6 7.3 7.8 11.6 1.9 4.6 2.9 9.3 2.9 14.2 0 4.8-1 9.5-2.9 14.2-1.7 4.2-4.3 8-7.8 11.6-3.5 3.5-7.4 6.1-11.6 7.8-3.5 1.5-7.1 2.4-10.8 2.7 1.2.1 2.4.2 3.6.2 9.6 0 17.7-3.4 24.5-10.1 6.7-6.8 10.1-14.9 10.1-24.5s-3.4-17.7-10.1-24.5c-3.3-3.2-6.9-5.7-10.8-7.4z"/></g><path class="st8" d="M-308.1 330.1l8.2-13.4h-.2l-8.2 13.4h.2z" id="Layer0_0_MEMBER_0_MEMBER_7_FILL"/><path class="st8" d="M-324.6 326.2l-1-15.7h-.2l.8 15.6.4.1z" id="Layer0_0_MEMBER_0_MEMBER_8_FILL"/><path class="st8" d="M-316.8 328l.2.1 3.6-14.6h-.2l-3.6 14.5z" id="Layer0_0_MEMBER_0_MEMBER_9_FILL"/><path class="st9" d="M-302 320l7.4-5.3-35.4-8.9 4.2 8.3 23.8 5.9z" id="Layer0_0_MEMBER_0_MEMBER_10_FILL"/><path class="st1" d="M-326.1 308.1l-.1.3 1.6.4.1-.3-1.6-.4m-3.3-.8l-.1.3 1.6.4.1-.3-1.6-.4m20.5 5.5l.1-.3-1.6-.4-.1.3 1.6.4m3.3.7l.1-.3-1.6-.4-.1.3 1.6.4m-11.2-3v.3l1.5.5.1-.4-1.6-.4m-3.1-.8l-.1.3 1.6.4.1-.3-1.6-.4m-3.1-.8v.3l1.5.4.1-.3-1.6-.4m11 3.1v-.3l-1.5-.4-.1.3 1.6.4m9.5 2.3v-.3l-1.5-.4-.1.3 1.6.4m3.1.8l.1-.3-1.6-.4-.1.3 1.6.4m3.1.4l-1.4-.3-.1.3 1.4.3.1-.3z" id="Layer0_0_MEMBER_0_MEMBER_11_FILL"/><path class="st10" d="M-308.4 332.6l.6-3.8-16.9-4.2-1.3 3.6c-.9 2.6-1.2 4.6-1.1 5.8.3 1.5 1.1 2.9 2.6 4.2 1.4 1.4 3 2.3 4.6 2.6 1.7.4 3.6.3 5.5-.2s3.3-1.4 4.2-2.5c.7-.9 1.3-2.8 1.8-5.5z" id="Layer0_0_MEMBER_0_MEMBER_12_FILL"/><path class="st11" d="M-308 329.8l-.3.2-.4.2-.8-1.2 1-.5-.4-.1-.8.4-.5-.7-.4-.1.6 1-1.4.7-.9-1.4.9-.5-.4-.1c-.4.2-.6.3-.7.4-.2-.3-.3-.5-.4-.7l-.4-.1.6.9-1.5.8-1-1.5.8-.4-.4-.1-.6.3c-.1-.3-.3-.4-.4-.5l-.4-.1.5.8-1.6.9-.9-1.4.9-.5-.4-.1c-.3.2-.6.4-.7.4l-.4-.6-.4-.1.6.9-1.5.8-.9-1.3 1-.5-.4-.1-.8.4-.5-.7-.3-.1.6.9c-.5.3-1 .6-1.3.7l-1-1.5.7-.4-.4-.1-.4.2c-.1-.1-.2-.3-.2-.4l-.5-.1.4.6-1.4.7-.3.7.9 1.4-1.4.8c0-.1 0-.1-.1-.1l-.1-.1-.1.4c0 .1 0 .2-.1.4l.3-.1.9 1.3-1.5.8-.1-.1-.1.6.1-.1c.4.7.7 1.1 1 1.4-.5.3-.9.5-1.2.7v.2l1.3-.7c.2.3.5.9 1 1.6l-1.6.9-.4-.6c.4.9 1 1.8 1.7 2.6l-.1-.2 1.6-.8.8 1.2-1.4.7.3.2c.3-.1.7-.4 1.3-.7l1.1 1.5-.6.3.3.1c.3-.1.4-.2.5-.2l.4.6.5.2-.6-1 1.5-.8.9 1.3-1.2.6.4.1.9-.5.4.6h.3l-.5-.7 1.4-.8.9 1.4c.2 0 .5-.1.9-.2l1.2-.6c.2.1.2.2.2.3l.2-.1-.2-.3 1.3-.7c0 .1.1.2.2.4l.3-.1c-.2-.2-.2-.3-.2-.3l1.5-.8.1.1.2-.2c.1 0 .1 0 .1-.1l.1-.2.3-.4-.7.4-.9-1.4 1.6-.9.5.7v.1c.1-.1.1-.2.1-.3l-.4-.7.7-.3c.1-.1.1-.3.1-.4l-1 .5-.9-1.3 1.5-.8.6.8c.1-.1.1-.3.1-.4l-.4-.6.6-.3c0-.1 0-.3.1-.4l-.8.4-1-1.5 1.4-.8.6.9c0-.2 0-.4.1-.5-.2-.2-.3-.4-.4-.6l.4-.2c.1 0 .1 0 .1-.1v-.5m-1.8-.4l.8 1.2-1.4.7-.8-1.2 1.4-.7m-.7 2.3c.4.4.8.9 1.1 1.5l-1.5.8c0-.2-.2-.3-.4-.5l-.7-1 1.5-.8m-1.7.9c.2.3.4.6.6 1 .2.3.3.4.4.5l-1.5.9-1-1.5 1.5-.9m-.9-1.5l.8 1.1c-.4.3-.9.6-1.6.9l-.8-1.2 1.6-.8m1 1.2l-.8-1.1c.6-.4 1.1-.7 1.5-.9.2.3.5.7.8 1.2l-1.5.8m-.5 3l1.6-.9c.4.6.7 1.1.9 1.3l-1.6.9-.9-1.3m-3.7-5c-.3.2-.5.4-.7.4l-.8.4c-.5-.7-.8-1.2-1-1.5l1.5-.8 1 1.5m.3-.1c-.5-.7-.8-1.2-1-1.5l1.5-.9 1 1.5c-.4.3-.9.6-1.5.9m-5.1-3.7l.1.2.7 1.1-1.3.7-.9-1.3 1.4-.7m-1.7 3.1l1.2-.6.9 1.4-1.6.8-1-1.4.5-.2m-.2-.4c-.1.1-.2.1-.5.2-.4-.6-.7-1-.9-1.3.2-.1.5-.2.8-.4.5-.2.7-.4.8-.5.5.7.8 1.2 1 1.4-.3.2-.7.4-1.2.6m4 .5l1 1.5-1.2.7c-.5-.7-.8-1.2-1-1.5l1.2-.7m-.2-.2l-1.2.7-.9-1.4c.2-.2.6-.4 1.2-.7l.9 1.4m.7 4.1l-1.5 1-1-1.4 1.6-.9c.4.5.7.9.9 1.3m-2.6-.6l-1-1.5 1.6-.9c.6.8.9 1.3 1 1.5l-1.6.9m-.4 0l-1.4.8-1-1.5 1.4-.8 1 1.5m-.3 2.3l-.8-1.1 1.4-.9 1 1.4-1.5.8-.1-.2m2.5.8c-.4.2-.9.5-1.5.7l-.8-1.2 1.4-.7.9 1.2m.4.2c.1-.1.2-.1.3-.1l1.3-.7 1 1.5-1.6.8-1-1.5m3.9-4.2l.8 1.2c-.2.2-.6.4-1 .5-.1.1-.2.2-.4.2l-.8-1.2.7-.4c.1 0 .4-.1.7-.3m-3 1.7c.4-.1.8-.3 1.2-.6l.8 1.1c-.5.3-.9.5-1.2.7-.3-.5-.6-.9-.8-1.2m.2-2.3l.8 1.4c-.5.3-.9.5-1.2.7l-.1-.1c-.4-.7-.7-1.1-.8-1.3l1.3-.7m1.7 5.2l-.9-1.5 1.2-.7 1 1.5c-.5.3-1 .6-1.3.7m.2.3l1.3-.7.9 1.4c-.5.3-1 .6-1.3.6-.1-.1-.4-.5-.9-1.3m-7.6-7c.2.3.5.7 1 1.3l-1.5.9v-.1l-1-1.3 1.5-.8m9.6 10c-.4-.7-.7-1.1-.9-1.4.3-.1.7-.4 1.3-.7.1.2.4.6.9 1.3l-1.3.8m-4.1-1.8c.4.6.7 1.1.9 1.3l-1.4.7-1-1.3 1.5-.7m1.5 1c-.2.1-.3.1-.3.1l-1-1.3.8-.3c.1-.1.4-.2 1-.5.4.6.7 1.1.9 1.3l-1.4.7m-3.1-.4l-1-1.6 1.4-.7 1 1.5-1.4.8m-6.4-9.8l1.5-.7v.2l.8 1.2-1.4.7c-.1-.3-.4-.7-.9-1.4m.4 4h-.1c-.3-.6-.6-1.1-1-1.4 0 0 .2-.1.5-.2l1-.7 1 1.4v.1l-1.4.8m1.5 2.8l.5.7-1.6.9-1-1.4 1.6-.9c.1.1.2.4.5.7m12.5-5.8l-1.5.8-1-1.4 1.6-.8c.1.2.4.7.9 1.4m-1.2 5.5l.9 1.3-1.5.8-.9-1.3.7-.4c.2-.2.5-.3.8-.4m-3-5l1.5-1 1 1.5-1.5.8-1-1.3m-2.6-3.4l.9 1.4-1.5.8-.9-1.4 1.5-.8m-4.9 9.5l1.5-.7c.2.2.5.6.8 1.2-.3.1-.7.3-1.2.6-.1-.1-.2-.1-.2 0l-.9-1.1m1.2-1.2l.1.2-1.5.8c-.1-.3-.2-.5-.4-.7l-.5-.7 1.5-.8.8 1.2m3.4.4c0 .1-.1.1-.3.2-.3-.4-.6-.8-.8-1.2l1.6-.8c.2.2.5.6.8 1.2l-1.3.6m2.1-3l-.9-1.4 1.4-.8.9 1.4c-.1.1-.4.2-.7.4l-.7.4m2.1 3.1c-.5-.7-.8-1.2-1-1.5l1.4-.8c.5.7.8 1.2 1.1 1.5-.3.2-.6.3-.8.4-.1.1-.4.2-.7.4m-.5 2.9l1 1.4c-.6.2-1.2.5-1.8.8-.1-.1-.4-.6-.9-1.4l1.7-.8m-5.9-1.5l1 1.5c-.3.2-.7.5-1.4.9l-1.1-1.5s.1-.1.3-.2l1.2-.7m8.4 1.8l-.9-1.4 1.5-.8.9 1.3c-.3.3-.8.6-1.5.9m-13-12.7l1.7-.9c.5.8.8 1.3 1 1.5l-1.6.9-1.1-1.5m0 6.7l1.4-.7 1 1.5-1.5.8-1-1.5c.1 0 .1 0 .1-.1z" id="Layer0_0_MEMBER_0_MEMBER_13_FILL"/><path class="st12" d="M-316 329.3c-.3-.4-.5-1-.5-1.8v-1c-.2.8-.8 1.5-1.8 2.2-.4.2-.7.6-.9 1.1-.1.5 0 .9.2 1.3s.6.7 1.1.9c.5.1.9 0 1.3-.2s.7-.6.8-1c.2-.6.1-1-.2-1.5z" id="Layer0_0_MEMBER_0_MEMBER_14_FILL"/><path class="st12" d="M-324.2 327.4c-.3-.5-.5-1.1-.5-1.8v-1c-.1.8-.7 1.5-1.7 2.2-.5.3-.8.6-.9 1.1s0 .9.2 1.3.6.7 1.1.8c.5.1.9 0 1.3-.2s.7-.6.8-1c-.1-.6-.1-1.1-.3-1.4z" id="Layer0_0_MEMBER_0_MEMBER_15_FILL"/><path class="st12" d="M-308 329.5v-1c-.2.8-.8 1.5-1.8 2.2-.4.2-.7.6-.9 1.1-.1.5 0 .9.2 1.3s.6.7 1.1.9c.5.1.9 0 1.3-.2s.7-.6.8-1c.1-.5 0-1-.2-1.5s-.5-1.1-.5-1.8z" id="Layer0_0_MEMBER_0_MEMBER_16_FILL"/><path class="st2" d="M-307.6 329.1l-.3-.2c-.7 1-1.9 1.5-3.5 1.4-1 0-1.9-.3-2.8-.9-.9-.6-1.7-1.3-2.2-2.1h-.1c-2.4 1-4.3 1.1-5.7.5-1-.5-1.8-1.4-2.5-2.7l-.2.1c.7 1.6 1.8 2.6 3.4 3.1 1.4.3 3.1.1 5.1-.7.9 1.4 2.3 2.4 4 2.9l1 .2c1.7.1 2.9-.5 3.8-1.6z" id="Layer0_0_MEMBER_0_MEMBER_17_FILL"/><path class="st10" d="M-307.2 329.7l.2-1-18.1-4.5-.2.9 18.1 4.6z" id="Layer0_0_MEMBER_0_MEMBER_18_FILL"/></svg>