<svg xmlns="http://www.w3.org/2000/svg" width="205.335" height="58.166" viewBox="0 0 205.335 58.166"><linearGradient id="a" gradientUnits="userSpaceOnUse" x1="-942.165" y1="-179.313" x2="-934.415" y2="-179.313" gradientTransform="matrix(0 -1 -1 0 -76.415 -886.75)"><stop offset="0" stop-color="#fff" stop-opacity="0"/><stop offset="1"/></linearGradient><path opacity=".7" fill="url(#a)" d="M.459 47.665h204.876v7.751H.459z"/><path fill="#4866AE" d="M0 0h205.333v49.666H0z"/><path opacity=".6" fill="#6085C2" d="M0 0v21.666s42.627 9 94.333 9c48.708 0 111-9 111-9V0H0z"/><path fill="#345696" d="M23.554 49.662l-4.113-7.536-5.413 2.955-5.171-9.475 5.413-2.955-.877-1.605c-2.724-4.99-4.202-11.319-2.327-16.733 1.553-4.799 5.435-8.345 9.157-10.377 2.875-1.568 5.259-2.432 7.312-2.894l4.894 10.174c-1.284.261-2.776.746-4.468 1.67-4.229 2.308-4.205 6.575-1.989 10.636l1.154 2.114 8.289-4.524 5.171 9.474-8.205 4.479 7.97 14.602-16.797-.005zm102.699-23.023c-.861 0-1.482.282-2.11.568v6.491c.604.059.946.059 1.521.059 2.063 0 2.349-.943 2.349-2.262v-3.1c-.002-.973-.326-1.756-1.76-1.756m-13.705-.354c-1.435 0-1.76.786-1.76 1.758v.546h3.516v-.546c0-.972-.328-1.758-1.756-1.758m-26.554 6.757c0 .771.363 1.169 1.166 1.169.859 0 1.369-.28 1.997-.567v-1.539h-1.882c-.889-.001-1.281.166-1.281.937m53.593-6.403c-1.438 0-1.933.783-1.933 1.757v3.55c0 .979.495 1.76 1.933 1.76 1.429 0 1.93-.781 1.93-1.76v-3.55c0-.974-.501-1.757-1.93-1.757M78.965 37.022h-4.217V26.833h-2.106v-3.512h2.106v-2.11c0-2.863 1.19-4.568 4.569-4.568h2.814v3.513h-1.759c-1.315 0-1.403.491-1.403 1.407l-.005 1.759h3.187l-.373 3.512h-2.813v10.188zm14.41.028H89.86l-.152-.886a8.072 8.072 0 0 1-3.98 1.03c-2.576 0-3.949-1.719-3.949-4.098 0-2.805 1.602-3.805 4.465-3.805h2.913v-.606c0-1.435-.163-1.854-2.369-1.854h-3.604l.354-3.512h3.939c4.84 0 5.899 1.525 5.899 5.393l-.001 8.338zm11.951-9.959c-2.188-.374-2.816-.458-3.868-.458-1.89 0-2.461.42-2.461 2.02v3.034c0 1.604.571 2.02 2.461 2.02 1.052 0 1.681-.081 3.868-.458v3.425c-1.916.432-3.164.541-4.219.541-4.527 0-6.325-2.376-6.325-5.812V28.94c0-3.438 1.798-5.818 6.325-5.818 1.055 0 2.303.114 4.219.545v3.424zm13.194 4.31h-7.731v.283c0 1.604.57 2.021 2.461 2.021 1.697 0 2.734-.081 4.918-.458v3.425c-2.104.431-3.201.541-5.267.541-4.53 0-6.329-2.376-6.329-5.812v-2.812c0-3.005 1.338-5.467 5.977-5.467s5.973 2.433 5.973 5.467l-.002 2.812zm13.706.066c0 3.32-.95 5.74-6.705 5.74-2.078 0-3.297-.185-5.59-.535V17.697l4.212-.701v6.635c.913-.338 2.091-.509 3.164-.509 4.216 0 4.919 1.889 4.919 4.921v3.424zm13.512.071c0 2.863-1.184 5.643-6.137 5.643-4.956 0-6.162-2.779-6.162-5.643v-2.764c0-2.863 1.206-5.643 6.162-5.643 4.953 0 6.137 2.779 6.137 5.643v2.764zm13.502 0c0 2.863-1.186 5.643-6.137 5.643-4.957 0-6.163-2.779-6.163-5.643v-2.764c0-2.863 1.206-5.643 6.163-5.643 4.951 0 6.137 2.779 6.137 5.643v2.764zm13.856 5.484h-4.57l-3.864-6.439v6.439h-4.215V17.697l4.215-.701v12.44l3.864-6.115h4.57l-4.218 6.675 4.218 7.026zm-20.009-10.383c-1.433 0-1.928.783-1.928 1.757v3.55c0 .979.496 1.76 1.928 1.76 1.43 0 1.937-.781 1.937-1.76v-3.55c0-.974-.507-1.757-1.937-1.757"/><path fill="#FAFAFA" d="M21.554 49.662l-4.113-7.536-5.413 2.955-5.171-9.475 5.413-2.955-.877-1.605c-2.724-4.99-4.202-11.319-2.327-16.733 1.553-4.799 5.435-8.345 9.157-10.377 2.875-1.568 5.259-2.432 7.312-2.894l4.894 10.174c-1.284.261-2.776.746-4.468 1.67-4.229 2.308-4.205 6.575-1.989 10.636l1.154 2.114 8.289-4.524 5.171 9.474-8.205 4.479 7.97 14.602-16.797-.005zm103.699-24.023c-.861 0-1.482.282-2.11.568v6.491c.604.059.946.059 1.521.059 2.063 0 2.349-.943 2.349-2.262v-3.1c-.002-.973-.326-1.756-1.76-1.756m-13.705-.354c-1.435 0-1.76.786-1.76 1.758v.546h3.516v-.546c0-.972-.328-1.758-1.756-1.758m-26.554 6.757c0 .771.363 1.169 1.166 1.169.859 0 1.369-.28 1.997-.567v-1.539h-1.882c-.889-.001-1.281.166-1.281.937m53.593-6.403c-1.438 0-1.933.783-1.933 1.757v3.55c0 .979.495 1.76 1.933 1.76 1.429 0 1.93-.781 1.93-1.76v-3.55c0-.974-.501-1.757-1.93-1.757M77.965 36.022h-4.217V25.833h-2.106v-3.512h2.106v-2.11c0-2.863 1.19-4.568 4.569-4.568h2.814v3.513h-1.759c-1.315 0-1.403.491-1.403 1.407l-.005 1.759h3.187l-.373 3.512h-2.813v10.188zm14.41.028H88.86l-.152-.886a8.072 8.072 0 0 1-3.98 1.03c-2.576 0-3.949-1.719-3.949-4.098 0-2.805 1.602-3.805 4.465-3.805h2.913v-.606c0-1.435-.163-1.854-2.369-1.854h-3.604l.354-3.512h3.939c4.84 0 5.899 1.525 5.899 5.393l-.001 8.338zm11.951-9.959c-2.188-.374-2.816-.458-3.868-.458-1.89 0-2.461.42-2.461 2.02v3.034c0 1.604.571 2.02 2.461 2.02 1.052 0 1.681-.081 3.868-.458v3.425c-1.917.432-3.164.541-4.219.541-4.527 0-6.325-2.376-6.325-5.812V27.94c0-3.438 1.798-5.818 6.325-5.818 1.055 0 2.302.114 4.219.545v3.424zm13.194 4.31h-7.731v.283c0 1.604.57 2.021 2.461 2.021 1.697 0 2.734-.081 4.918-.458v3.425c-2.104.431-3.201.541-5.267.541-4.53 0-6.329-2.376-6.329-5.812v-2.812c0-3.005 1.338-5.467 5.977-5.467s5.973 2.433 5.973 5.467l-.002 2.812zm13.706.066c0 3.32-.95 5.74-6.705 5.74-2.078 0-3.297-.185-5.59-.535V16.697l4.212-.701v6.635c.913-.338 2.091-.509 3.164-.509 4.216 0 4.919 1.889 4.919 4.921v3.424zm13.512.071c0 2.863-1.184 5.643-6.137 5.643-4.956 0-6.162-2.779-6.162-5.643v-2.764c0-2.863 1.206-5.643 6.162-5.643 4.953 0 6.137 2.779 6.137 5.643v2.764zm13.502 0c0 2.863-1.186 5.643-6.137 5.643-4.957 0-6.163-2.779-6.163-5.643v-2.764c0-2.863 1.206-5.643 6.163-5.643 4.951 0 6.137 2.779 6.137 5.643v2.764zm13.856 5.484h-4.57l-3.864-6.439v6.439h-4.215V16.697l4.215-.701v12.44l3.864-6.115h4.57l-4.218 6.675 4.218 7.026zm-20.009-10.383c-1.433 0-1.928.783-1.928 1.757v3.55c0 .979.496 1.76 1.928 1.76 1.43 0 1.937-.781 1.937-1.76v-3.55c0-.974-.507-1.757-1.937-1.757"/></svg>