<svg xmlns="http://www.w3.org/2000/svg" width="48.7" height="55.416" viewBox="0 0 48.7 55.416"><linearGradient id="a" gradientUnits="userSpaceOnUse" x1="-1723.358" y1="900.324" x2="-1715.607" y2="900.324" gradientTransform="rotate(-90 -1271.983 -395.959)"><stop offset="0" stop-color="#fff" stop-opacity="0"/><stop offset="1"/></linearGradient><path opacity=".7" fill="url(#a)" d="M-.098 47.665H48.7v7.751H-.098z"/><path fill="#C6402D" d="M.035 0H48.7v49.666H.035z"/><path fill="#D25447" d="M0 0v21.666c7.884 1.803 6.417 4 23.443 4 14 0 25.257-4 25.257-4V0H0z"/><path fill="#981914" d="M11.273 22.838c-1.312-.641-2.32-1.535-3.023-2.684s-1.055-2.418-1.055-3.809c0-2.125.801-3.953 2.402-5.484s3.652-2.297 6.152-2.297c2.047 0 3.82.5 5.32 1.5h4.547c.672 0 1.062.02 1.172.059s.188.105.234.199c.094.141.141.391.141.75 0 .406-.039.688-.117.844-.047.078-.129.141-.246.188s-.512.07-1.184.07h-2.79c.875 1.125 1.312 2.562 1.312 4.312 0 2-.766 3.711-2.297 5.133s-3.586 2.133-6.164 2.133c-1.062 0-2.148-.156-3.258-.469-.688.594-1.152 1.113-1.395 1.559s-.363.824-.363 1.137c0 .266.129.523.387.773s.762.43 1.512.539c.438.062 1.531.117 3.281.164 3.219.078 5.305.188 6.258.328 1.453.203 2.613.742 3.481 1.617.867.875 1.301 1.953 1.301 3.234 0 1.766-.828 3.422-2.485 4.969-2.438 2.281-5.617 3.422-9.539 3.422-3.016 0-5.562-.68-7.641-2.039-1.172-.781-1.758-1.594-1.758-2.438 0-.375.086-.75.258-1.125.266-.578.812-1.383 1.641-2.414.109-.141.906-.984 2.391-2.531-.812-.484-1.387-.918-1.723-1.301s-.504-.816-.504-1.301c0-.547.223-1.188.668-1.922s1.475-1.772 3.084-3.116zm-.234 7.828c-.734.797-1.289 1.539-1.664 2.227s-.562 1.32-.562 1.898c0 .75.453 1.406 1.359 1.969 1.562.969 3.82 1.453 6.773 1.453 2.812 0 4.887-.496 6.223-1.488s2.004-2.051 2.004-3.176c0-.812-.399-1.391-1.196-1.734-.812-.344-2.422-.547-4.828-.609-3.515-.095-6.218-.274-8.109-.54zm4.313-20.977c-1.156 0-2.125.461-2.906 1.383s-1.172 2.336-1.172 4.242c0 2.469.531 4.383 1.594 5.742.812 1.031 1.844 1.547 3.094 1.547 1.188 0 2.164-.445 2.93-1.336s1.148-2.289 1.148-4.195c0-2.484-.539-4.43-1.617-5.836-.798-1.031-1.821-1.547-3.071-1.547zm14.05 14.975h6.89v-6.875h1.876v6.875h6.89v1.891h-6.89v6.817h-1.876v-6.817h-6.89v-1.891z"/><path fill="#FFF" d="M10.273 21.838c-1.312-.641-2.32-1.535-3.023-2.684s-1.055-2.418-1.055-3.809c0-2.125.801-3.953 2.402-5.484s3.652-2.297 6.152-2.297c2.047 0 3.82.5 5.32 1.5h4.547c.672 0 1.063.02 1.172.059s.188.105.234.199c.094.141.141.391.141.75 0 .406-.039.688-.117.844-.047.078-.129.141-.246.188s-.512.07-1.184.07h-2.789c.875 1.125 1.312 2.562 1.312 4.312 0 2-.766 3.711-2.297 5.133s-3.586 2.133-6.164 2.133c-1.062 0-2.148-.156-3.258-.469-.688.594-1.152 1.113-1.395 1.559s-.363.824-.363 1.137c0 .266.129.523.387.773s.762.43 1.512.539c.438.062 1.531.117 3.281.164 3.219.078 5.305.188 6.258.328 1.453.203 2.613.742 3.48 1.617.868.875 1.301 1.953 1.301 3.234 0 1.766-.828 3.422-2.485 4.969-2.438 2.281-5.617 3.422-9.539 3.422-3.016 0-5.562-.68-7.641-2.039-1.172-.781-1.758-1.594-1.758-2.438 0-.375.086-.75.258-1.125.266-.578.812-1.383 1.641-2.414.109-.141.906-.984 2.391-2.531-.812-.484-1.387-.918-1.723-1.301s-.504-.816-.504-1.301c0-.547.223-1.188.668-1.922s1.475-1.772 3.084-3.116zm-.234 7.828c-.734.797-1.289 1.539-1.664 2.227s-.562 1.32-.562 1.898c0 .75.453 1.406 1.359 1.969 1.562.969 3.82 1.453 6.773 1.453 2.812 0 4.887-.496 6.223-1.488s2.004-2.051 2.004-3.176c0-.812-.398-1.391-1.195-1.734-.812-.344-2.422-.547-4.828-.609-3.516-.095-6.219-.274-8.11-.54zm4.313-20.977c-1.156 0-2.125.461-2.906 1.383s-1.172 2.336-1.172 4.242c0 2.469.531 4.383 1.594 5.742.812 1.031 1.844 1.547 3.094 1.547 1.188 0 2.164-.445 2.93-1.336s1.148-2.289 1.148-4.195c0-2.484-.539-4.43-1.617-5.836-.798-1.031-1.821-1.547-3.071-1.547zm14.05 14.975h6.89v-6.875h1.876v6.875h6.89v1.891h-6.89v6.817h-1.876v-6.817h-6.89v-1.891z"/></svg>