<svg xmlns="http://www.w3.org/2000/svg" xmlns:xlink="http://www.w3.org/1999/xlink" width="109.083" height="93.082" viewBox="0 0 109.083 93.082"><path fill="#ED1C5A" d="M24.846 93.082C11.377 93.082.459 72.245.459 46.541.459 20.837 11.378 0 24.846 0h59.226c13.469 0 24.387 20.837 24.387 46.541 0 25.704-10.918 46.541-24.387 46.541H24.846z"/><g opacity=".4"><defs><path id="a" opacity=".4" d="M24.846 93.082C11.377 93.082.459 72.245.459 46.541.459 20.837 11.378 0 24.846 0h59.226c13.469 0 24.387 20.837 24.387 46.541 0 25.704-10.918 46.541-24.387 46.541H24.846z"/></defs><clipPath id="b"><use xlink:href="#a" overflow="visible"/></clipPath><path clip-path="url(#b)" fill="#A93158" d="M84.794 32.718l23.665 22.134L119.5 65.34s-2.222 25.783-3.361 27.742c-1.139 1.959-12.845 12.959-13.992 14.959s-12.68 2.5-16.164 2.5c-3.483 0-10.983-1.5-14.483-2.5S26.777 65.34 26.777 65.34l-3.842-16.845V35.493l61.859-2.775z"/></g><path fill="#FFF" d="M85.983 35.493a3.842 3.842 0 0 1-3.842 3.842H26.777a3.842 3.842 0 1 1 0-7.684h55.365a3.842 3.842 0 0 1 3.841 3.842zm0 13.002a3.842 3.842 0 0 1-3.842 3.842H26.777a3.842 3.842 0 1 1 0-7.684h55.365a3.843 3.843 0 0 1 3.841 3.842zm0 13.003a3.842 3.842 0 0 1-3.842 3.842H26.777a3.842 3.842 0 1 1 0-7.684h55.365a3.843 3.843 0 0 1 3.841 3.842z"/></svg>