<svg xmlns="http://www.w3.org/2000/svg" width="269.833" height="55.083" viewBox="0 0 269.833 55.083"><linearGradient id="a" gradientUnits="userSpaceOnUse" x1="135.023" y1="54.293" x2="135.023" y2="5.417"><stop offset="0" stop-color="#fff" stop-opacity="0"/><stop offset=".007" stop-color="#f6f6f6" stop-opacity=".007"/><stop offset=".047" stop-color="#c8c8c8" stop-opacity=".048"/><stop offset=".091" stop-color="#9d9d9d" stop-opacity=".093"/><stop offset=".139" stop-color="#777" stop-opacity=".142"/><stop offset=".191" stop-color="#575757" stop-opacity=".195"/><stop offset=".249" stop-color="#3b3b3b" stop-opacity=".254"/><stop offset=".314" stop-color="#252525" stop-opacity=".32"/><stop offset=".39" stop-color="#141414" stop-opacity=".397"/><stop offset=".484" stop-color="#090909" stop-opacity=".493"/><stop offset=".616" stop-color="#020202" stop-opacity=".627"/><stop offset=".981"/></linearGradient><path opacity=".3" fill="url(#a)" d="M269.03 29.854c0 13.496-11.118 24.438-24.833 24.438H25.848c-13.715 0-24.833-10.941-24.833-24.438 0-13.494 11.118-24.438 24.833-24.438h218.35c13.714 0 24.832 10.944 24.832 24.438z"/><path fill="#29ABE3" d="M269.03 24.833c0 13.715-11.118 24.833-24.833 24.833H25.848c-13.715 0-24.833-11.118-24.833-24.833C1.015 11.118 12.133 0 25.848 0h218.35c13.714 0 24.832 11.118 24.832 24.833z"/><path fill="#33BEEB" d="M269.03 24.833c0 13.715-11.118 24.833-24.833 24.833H25.848c-13.715 0-24.833-11.118-24.833-24.833C3.89 41.888 26.494 44.994 58.336 44.746c21.525-.168 123.298-.616 144.497-.461 36.564.268 63.476-2.512 66.197-19.452z"/><g opacity=".5" fill="#0079A6"><path d="M58.027 32.106c-.556 0-.998-.126-1.327-.378a2.757 2.757 0 0 1-.766-.882c-.22.414-.536.727-.949.94-.414.213-.891.319-1.434.319h-8.913c-.504 0-.93-.077-1.279-.232a2.25 2.25 0 0 1-.843-.62 2.436 2.436 0 0 1-.465-.911 4.03 4.03 0 0 1-.146-1.085v-3.274h2.209v2.888c0 .361.052.616.155.765.103.148.271.223.503.223h8.7c.297 0 .491-.09.581-.271s.136-.427.136-.736v-4.457H56.4v3.682c0 .517.119.943.358 1.279.239.336.681.503 1.327.503h.717c.194 0 .33.052.407.155a.602.602 0 0 1 .116.368v1.182a.66.66 0 0 1-.126.35c-.084.129-.216.193-.397.193h-.775zm-9.978 2.432c0-.312.112-.577.336-.792s.503-.322.836-.322c.32 0 .593.107.817.322s.336.479.336.792c0 .326-.112.596-.336.812a1.137 1.137 0 0 1-.817.322 1.16 1.16 0 0 1-.836-.322 1.08 1.08 0 0 1-.336-.812z"/><path d="M58.666 32.106c-.194 0-.326-.052-.397-.155a.6.6 0 0 1-.106-.349V30.46c0-.143.039-.278.116-.407.077-.129.207-.194.387-.194h2.287V18.233h2.189v13.873h-4.476zm7.673-13.873h2.209v11.625h1.317c.207 0 .349.052.426.155a.596.596 0 0 1 .116.368v1.182a.632.632 0 0 1-.135.35c-.091.129-.226.193-.407.193h-3.526V18.233z"/><path d="M84.998 32.106c-.581 0-1.034-.129-1.356-.388a2.87 2.87 0 0 1-.755-.892c-.22.401-.546.715-.979.94-.433.226-.94.339-1.521.339H69.749c-.207 0-.342-.052-.407-.155a.648.648 0 0 1-.097-.349V30.46c0-.143.039-.278.116-.407.077-.129.207-.194.387-.194h2.655V18.233h2.17v7.77c.465-.633 1.072-1.169 1.821-1.608a4.825 4.825 0 0 1 2.48-.658c.71 0 1.34.122 1.889.368a3.815 3.815 0 0 1 1.375 1.017c.368.434.649.946.843 1.541.194.594.291 1.239.291 1.938 0 .452.148.774.445.969.297.193.736.29 1.318.29h.697c.22 0 .362.052.426.155s.097.227.097.368v1.182a.7.7 0 0 1-.116.35c-.078.129-.213.193-.407.193h-.734zm-4.592-2.248c.271 0 .452-.087.542-.261.09-.175.135-.456.135-.844 0-.903-.193-1.607-.581-2.111s-1.014-.756-1.879-.756a3.45 3.45 0 0 0-1.453.319 4.158 4.158 0 0 0-1.24.872 4.762 4.762 0 0 0-.891 1.27 4.376 4.376 0 0 0-.426 1.511h5.793z"/><path d="M85.599 32.106c-.194 0-.326-.052-.397-.155a.6.6 0 0 1-.106-.349V30.46c0-.143.039-.278.116-.407.077-.129.207-.194.387-.194h2.287V18.233h2.189v13.873h-4.476zm7.652-13.873h2.19v13.873h-2.19V18.233zm11.219 13.873c-.504 0-.93-.077-1.279-.232s-.633-.361-.853-.62a2.356 2.356 0 0 1-.475-.911 4.03 4.03 0 0 1-.146-1.085v-3.274h2.209v2.888c0 .22.029.396.087.532s.129.236.213.301a.664.664 0 0 0 .271.126c.097.02.19.028.281.028h9.126V18.233h2.209v13.873H104.47zm6.356-9.261a12.408 12.408 0 0 0-.378-.077 2.208 2.208 0 0 0-.417-.039.8.8 0 0 0-.523.174c-.142.117-.213.304-.213.562 0 .207.097.4.291.581s.497.271.911.271h.659v1.143h-3.623v-1.143h.949c-.104-.143-.207-.311-.31-.504s-.155-.407-.155-.64c0-.413.158-.778.475-1.095.316-.316.804-.475 1.463-.475.349 0 .698.052 1.046.155l-.175 1.087zm8.273-4.612h2.19v13.873h-2.19V18.233zm10.521 13.873c-.375 0-.717-.084-1.027-.252s-.562-.361-.756-.581v.523a5.54 5.54 0 0 1-.232 1.627 3.779 3.779 0 0 1-.698 1.317c-.31.375-.691.669-1.143.882s-.976.32-1.569.32a7.508 7.508 0 0 1-1.22-.097 9.973 9.973 0 0 1-.281-.038 1.584 1.584 0 0 1-.242-.059l.233-2.209.542.116c.155.026.319.049.494.068.174.02.332.028.475.028.568 0 .949-.181 1.143-.542.194-.362.291-.892.291-1.589v-7.228h2.209v3.682c0 .517.119.943.358 1.279.239.336.694.503 1.366.503h.678c.219 0 .361.052.426.155a.69.69 0 0 1 .097.368v1.182c0 .104-.039.221-.116.35s-.213.193-.407.193h-.621z"/><path d="M130.124 32.106c-.22 0-.361-.052-.426-.155a.648.648 0 0 1-.097-.349V30.46a.74.74 0 0 1 .125-.407c.084-.129.217-.194.397-.194h1.86c.284 0 .475-.09.572-.271s.146-.427.146-.736v-4.457h2.208v3.682c0 .517.123.943.368 1.279.246.336.691.503 1.337.503h.678c.22 0 .362.052.427.155s.097.227.097.368v1.182c0 .104-.042.221-.126.35s-.217.193-.397.193h-.736c-.568 0-1.023-.136-1.366-.407a3.053 3.053 0 0 1-.785-.891c-.22.374-.526.685-.92.93s-.862.368-1.405.368h-1.957zm1.279-10.734c0-.31.109-.574.33-.794.219-.22.497-.33.833-.33s.613.11.833.33.33.484.33.794-.11.575-.33.794c-.22.221-.497.33-.833.33s-.614-.109-.833-.33a1.076 1.076 0 0 1-.33-.794zm3.022 0c0-.31.11-.574.33-.794s.497-.33.833-.33.614.11.833.33c.22.22.33.484.33.794s-.11.575-.33.794c-.219.221-.497.33-.833.33s-.613-.109-.833-.33a1.08 1.08 0 0 1-.33-.794z"/><path d="M137.177 32.106c-.193 0-.33-.052-.406-.155a.563.563 0 0 1-.117-.349V30.46a.74.74 0 0 1 .126-.407c.085-.129.217-.194.397-.194h3.332c.298 0 .491-.09.582-.271.09-.181.136-.427.136-.736v-2.655h2.208v1.88c0 .517.123.943.369 1.279.245.336.69.503 1.336.503h.484c.298 0 .492-.083.582-.252.09-.167.136-.419.136-.755v-3.41h2.208v2.635c0 .517.123.943.369 1.279.245.336.69.503 1.337.503h1.144v-5.464h2.189v7.712h-3.392c-.542 0-.981-.132-1.317-.397a2.995 2.995 0 0 1-.775-.882 2.16 2.16 0 0 1-.949.96c-.414.213-.891.319-1.434.319h-.62c-.581 0-1.04-.126-1.376-.378s-.594-.539-.775-.862c-.219.4-.539.707-.959.921-.42.213-.92.319-1.501.319h-3.314zm7.673-10.734c0-.31.11-.574.329-.794.22-.22.498-.33.834-.33s.613.11.832.33c.221.22.33.484.33.794s-.109.575-.33.794c-.219.221-.496.33-.832.33s-.614-.109-.834-.33a1.083 1.083 0 0 1-.329-.794zm1.492-2.509c0-.313.112-.577.339-.792s.507-.322.843-.322c.323 0 .601.107.833.322s.35.479.35.792c0 .325-.117.596-.35.811s-.51.322-.833.322c-.336 0-.616-.107-.843-.322s-.339-.486-.339-.811zm1.53 2.509c0-.31.109-.574.33-.794.219-.22.496-.33.833-.33.335 0 .613.11.833.33.219.22.329.484.329.794s-.11.575-.329.794c-.22.221-.498.33-.833.33-.337 0-.614-.109-.833-.33a1.076 1.076 0 0 1-.33-.794zm8.738-3.139h2.19v13.873h-2.19V18.233zm22.438 13.33c0 .104-.041.221-.125.35s-.217.193-.397.193h-.62c-.414 0-.77-.064-1.066-.193s-.542-.291-.736-.484a5.52 5.52 0 0 1-.562 1.957 5.031 5.031 0 0 1-1.162 1.501c-.479.42-1.04.743-1.687.969a6.384 6.384 0 0 1-2.131.339c-1.059 0-1.941-.151-2.645-.455-.705-.304-1.267-.697-1.686-1.182-.42-.484-.717-1.027-.892-1.628s-.262-1.191-.262-1.772c0-.62.107-1.25.322-1.89.216-.639.524-1.23.929-1.772l1.869 1.065a4.763 4.763 0 0 0-.641 1.308 4.498 4.498 0 0 0-.193 1.289c0 .284.049.588.145.91.098.323.268.623.512.901.245.277.58.51 1.006.697.425.188.965.281 1.623.281.424 0 .833-.059 1.227-.175.393-.116.74-.3 1.043-.552s.547-.575.734-.969c.186-.395.279-.862.279-1.405V18.233h2.189v9.843c0 .659.148 1.121.446 1.386.297.265.724.396 1.278.396h.679c.193 0 .325.052.397.155.07.104.112.227.125.368v1.182z"/><path d="M178.409 32.106c-.221 0-.361-.052-.427-.155a.648.648 0 0 1-.097-.349V30.46a.74.74 0 0 1 .125-.407c.085-.129.217-.194.398-.194h1.859c.284 0 .475-.09.572-.271.096-.181.145-.427.145-.736v-4.457h2.209v3.682c0 .517.123.943.368 1.279s.69.503 1.337.503h.678c.221 0 .362.052.427.155s.097.227.097.368v1.182c0 .104-.041.221-.125.35s-.217.193-.398.193h-.736c-.568 0-1.023-.136-1.365-.407a3.053 3.053 0 0 1-.785-.891c-.219.374-.525.685-.92.93s-.862.368-1.404.368h-1.958zm1.007 2.432c0-.312.11-.577.329-.792.221-.215.498-.322.834-.322s.613.107.833.322.329.479.329.792c0 .326-.109.596-.329.812-.22.215-.497.322-.833.322s-.613-.107-.834-.322a1.093 1.093 0 0 1-.329-.812zm3.003 0c0-.312.11-.577.33-.792.219-.215.497-.322.833-.322s.613.107.833.322.33.479.33.792c0 .326-.11.596-.33.812-.22.215-.497.322-.833.322s-.614-.107-.833-.322a1.09 1.09 0 0 1-.33-.812z"/><path d="M195.286 31.563c0 .104-.043.221-.127.35s-.223.193-.416.193h-.368c-.413 0-.823-.084-1.23-.252s-.739-.368-.998-.601c-.232.361-.487.595-.765.697-.278.104-.56.155-.844.155h-5.076c-.193 0-.33-.052-.406-.155a.563.563 0 0 1-.117-.349V30.46a.74.74 0 0 1 .126-.407c.085-.129.217-.194.397-.194h5.716a3.906 3.906 0 0 1-.319-.794c-.098-.323-.172-.781-.223-1.376-.065-.658-.236-1.12-.514-1.385-.278-.265-.643-.397-1.096-.397-.258 0-.588.042-.987.126a5.236 5.236 0 0 0-1.202.416l-.542-2.111c.155-.052.358-.116.61-.194.252-.077.52-.151.805-.223.283-.07.578-.132.881-.184a5.13 5.13 0 0 1 .863-.078c.619 0 1.139.11 1.559.33s.763.503 1.027.853c.265.349.462.732.591 1.152.13.42.214.83.252 1.23.026.259.067.539.126.843s.139.588.242.853.238.488.407.669a.833.833 0 0 0 .64.271h.445c.207 0 .349.052.426.155a.597.597 0 0 1 .117.368v1.18zm-7.072 2.975c0-.312.111-.577.336-.792.224-.215.502-.322.836-.322.32 0 .592.107.816.322s.336.479.336.792c0 .326-.111.596-.336.812a1.136 1.136 0 0 1-.816.322c-.334 0-.612-.107-.836-.322a1.077 1.077 0 0 1-.336-.812z"/><path d="M194.665 32.106c-.206 0-.349-.052-.426-.155a.562.562 0 0 1-.116-.349V30.46c0-.143.046-.278.136-.407s.226-.194.406-.194h3.391c.297 0 .498-.077.602-.232.104-.154.154-.394.154-.717v-2.713h2.17v1.88c0 .491.123.911.369 1.26.244.349.697.522 1.355.522h.35c.297 0 .49-.09.581-.271.09-.181.136-.427.136-.736v-3.41h2.229v2.635c0 .517.122.943.367 1.279.246.336.691.503 1.338.503h.465c.31 0 .514-.09.609-.271.098-.181.146-.427.146-.736v-4.457h2.189v3.682c0 .517.119.943.357 1.279.239.336.682.503 1.328.503h.794c.206 0 .349.052.427.155a.602.602 0 0 1 .115.368v1.182c0 .104-.041.221-.125.35s-.217.193-.397.193h-.813c-.582 0-1.043-.129-1.386-.388a2.723 2.723 0 0 1-.784-.892c-.221.414-.55.73-.988.95-.439.22-.931.329-1.473.329h-.523c-.582 0-1.037-.129-1.366-.388a2.694 2.694 0 0 1-.746-.872 2.3 2.3 0 0 1-1.007.95c-.427.206-.879.31-1.357.31h-.504c-.555 0-1.004-.129-1.346-.388a2.603 2.603 0 0 1-.766-.872 2.273 2.273 0 0 1-1.037.95c-.445.206-.939.31-1.482.31h-3.372z"/><path d="M213.479 32.106c-.182 0-.311-.052-.388-.155a.568.568 0 0 1-.116-.349V30.46a.74.74 0 0 1 .125-.407.424.424 0 0 1 .379-.194h2.654v-5.464h2.209v7.712h-4.863zm1.008-10.734c0-.31.109-.574.328-.794.221-.22.498-.33.834-.33s.613.11.833.33.329.484.329.794-.109.575-.329.794c-.22.221-.497.33-.833.33a1.128 1.128 0 0 1-1.162-1.124zm3.022 0c0-.31.11-.574.33-.794.219-.22.497-.33.833-.33s.613.11.833.33.33.484.33.794-.11.575-.33.794c-.22.221-.497.33-.833.33s-.614-.109-.833-.33a1.08 1.08 0 0 1-.33-.794z"/></g><g fill="#FFF"><path d="M58.027 30.106c-.556 0-.998-.126-1.327-.378a2.757 2.757 0 0 1-.766-.882c-.22.414-.536.727-.949.94-.414.213-.891.319-1.434.319h-8.913c-.504 0-.93-.077-1.279-.232a2.25 2.25 0 0 1-.843-.62 2.436 2.436 0 0 1-.465-.911 4.03 4.03 0 0 1-.146-1.085v-3.274h2.209v2.888c0 .361.052.616.155.765.103.148.271.223.503.223h8.7c.297 0 .491-.09.581-.271s.136-.427.136-.736v-4.457H56.4v3.682c0 .517.119.943.358 1.279.239.336.681.503 1.327.503h.717c.194 0 .33.052.407.155a.602.602 0 0 1 .116.368v1.182a.66.66 0 0 1-.126.35c-.084.129-.216.193-.397.193h-.775zm-9.978 2.432c0-.312.112-.577.336-.792s.503-.322.836-.322c.32 0 .593.107.817.322s.336.479.336.792c0 .326-.112.596-.336.812a1.137 1.137 0 0 1-.817.322 1.16 1.16 0 0 1-.836-.322 1.08 1.08 0 0 1-.336-.812z"/><path d="M58.666 30.106c-.194 0-.326-.052-.397-.155a.6.6 0 0 1-.106-.349V28.46c0-.143.039-.278.116-.407.077-.129.207-.194.387-.194h2.287V16.233h2.189v13.873h-4.476zm7.673-13.873h2.209v11.625h1.317c.207 0 .349.052.426.155a.596.596 0 0 1 .116.368v1.182a.632.632 0 0 1-.135.35c-.091.129-.226.193-.407.193h-3.526V16.233z"/><path d="M84.998 30.106c-.581 0-1.034-.129-1.356-.388a2.87 2.87 0 0 1-.755-.892c-.22.401-.546.715-.979.94-.433.226-.94.339-1.521.339H69.749c-.207 0-.342-.052-.407-.155a.648.648 0 0 1-.097-.349V28.46c0-.143.039-.278.116-.407.077-.129.207-.194.387-.194h2.655V16.233h2.17v7.77c.465-.633 1.072-1.169 1.821-1.608a4.825 4.825 0 0 1 2.48-.658c.71 0 1.34.122 1.889.368a3.815 3.815 0 0 1 1.375 1.017c.368.434.649.946.843 1.541.194.594.291 1.239.291 1.938 0 .452.148.774.445.969.297.193.736.29 1.318.29h.697c.22 0 .362.052.426.155s.097.227.097.368v1.182a.7.7 0 0 1-.116.35c-.078.129-.213.193-.407.193h-.734zm-4.592-2.248c.271 0 .452-.087.542-.261.09-.175.135-.456.135-.844 0-.903-.193-1.607-.581-2.111s-1.014-.756-1.879-.756a3.45 3.45 0 0 0-1.453.319 4.158 4.158 0 0 0-1.24.872 4.762 4.762 0 0 0-.891 1.27 4.376 4.376 0 0 0-.426 1.511h5.793z"/><path d="M85.599 30.106c-.194 0-.326-.052-.397-.155a.6.6 0 0 1-.106-.349V28.46c0-.143.039-.278.116-.407.077-.129.207-.194.387-.194h2.287V16.233h2.189v13.873h-4.476zm7.652-13.873h2.19v13.873h-2.19V16.233zm11.219 13.873c-.504 0-.93-.077-1.279-.232s-.633-.361-.853-.62a2.356 2.356 0 0 1-.475-.911 4.03 4.03 0 0 1-.146-1.085v-3.274h2.209v2.888c0 .22.029.396.087.532s.129.236.213.301a.664.664 0 0 0 .271.126c.097.02.19.028.281.028h9.126V16.233h2.209v13.873H104.47zm6.356-9.261a12.408 12.408 0 0 0-.378-.077 2.208 2.208 0 0 0-.417-.039.8.8 0 0 0-.523.174c-.142.117-.213.304-.213.562 0 .207.097.4.291.581s.497.271.911.271h.659v1.143h-3.623v-1.143h.949c-.104-.143-.207-.311-.31-.504s-.155-.407-.155-.64c0-.413.158-.778.475-1.095.316-.316.804-.475 1.463-.475.349 0 .698.052 1.046.155l-.175 1.087zm8.273-4.612h2.19v13.873h-2.19V16.233zm10.521 13.873c-.375 0-.717-.084-1.027-.252s-.562-.361-.756-.581v.523a5.54 5.54 0 0 1-.232 1.627 3.779 3.779 0 0 1-.698 1.317c-.31.375-.691.669-1.143.882s-.976.32-1.569.32a7.508 7.508 0 0 1-1.22-.097 9.973 9.973 0 0 1-.281-.038 1.584 1.584 0 0 1-.242-.059l.233-2.209.542.116c.155.026.319.049.494.068.174.02.332.028.475.028.568 0 .949-.181 1.143-.542.194-.362.291-.892.291-1.589v-7.228h2.209v3.682c0 .517.119.943.358 1.279.239.336.694.503 1.366.503h.678c.219 0 .361.052.426.155a.69.69 0 0 1 .097.368v1.182c0 .104-.039.221-.116.35s-.213.193-.407.193h-.621z"/><path d="M130.124 30.106c-.22 0-.361-.052-.426-.155a.648.648 0 0 1-.097-.349V28.46a.74.74 0 0 1 .125-.407c.084-.129.217-.194.397-.194h1.86c.284 0 .475-.09.572-.271s.146-.427.146-.736v-4.457h2.208v3.682c0 .517.123.943.368 1.279.246.336.691.503 1.337.503h.678c.22 0 .362.052.427.155s.097.227.097.368v1.182c0 .104-.042.221-.126.35s-.217.193-.397.193h-.736c-.568 0-1.023-.136-1.366-.407a3.053 3.053 0 0 1-.785-.891c-.22.374-.526.685-.92.93s-.862.368-1.405.368h-1.957zm1.279-10.734c0-.31.109-.574.33-.794.219-.22.497-.33.833-.33s.613.11.833.33.33.484.33.794-.11.575-.33.794c-.22.221-.497.33-.833.33s-.614-.109-.833-.33a1.076 1.076 0 0 1-.33-.794zm3.022 0c0-.31.11-.574.33-.794s.497-.33.833-.33.614.11.833.33c.22.22.33.484.33.794s-.11.575-.33.794c-.219.221-.497.33-.833.33s-.613-.109-.833-.33a1.08 1.08 0 0 1-.33-.794z"/><path d="M137.177 30.106c-.193 0-.33-.052-.406-.155a.563.563 0 0 1-.117-.349V28.46a.74.74 0 0 1 .126-.407c.085-.129.217-.194.397-.194h3.332c.298 0 .491-.09.582-.271.09-.181.136-.427.136-.736v-2.655h2.208v1.88c0 .517.123.943.369 1.279.245.336.69.503 1.336.503h.484c.298 0 .492-.083.582-.252.09-.167.136-.419.136-.755v-3.41h2.208v2.635c0 .517.123.943.369 1.279.245.336.69.503 1.337.503h1.144v-5.464h2.189v7.712h-3.392c-.542 0-.981-.132-1.317-.397a2.995 2.995 0 0 1-.775-.882 2.16 2.16 0 0 1-.949.96c-.414.213-.891.319-1.434.319h-.62c-.581 0-1.04-.126-1.376-.378s-.594-.539-.775-.862c-.219.4-.539.707-.959.921-.42.213-.92.319-1.501.319h-3.314zm7.673-10.734c0-.31.11-.574.329-.794.22-.22.498-.33.834-.33s.613.11.832.33c.221.22.33.484.33.794s-.109.575-.33.794c-.219.221-.496.33-.832.33s-.614-.109-.834-.33a1.083 1.083 0 0 1-.329-.794zm1.492-2.509c0-.313.112-.577.339-.792s.507-.322.843-.322c.323 0 .601.107.833.322s.35.479.35.792c0 .325-.117.596-.35.811s-.51.322-.833.322c-.336 0-.616-.107-.843-.322s-.339-.486-.339-.811zm1.53 2.509c0-.31.109-.574.33-.794.219-.22.496-.33.833-.33.335 0 .613.11.833.33.219.22.329.484.329.794s-.11.575-.329.794c-.22.221-.498.33-.833.33-.337 0-.614-.109-.833-.33a1.076 1.076 0 0 1-.33-.794zm8.738-3.139h2.19v13.873h-2.19V16.233zm22.438 13.33c0 .104-.041.221-.125.35s-.217.193-.397.193h-.62c-.414 0-.77-.064-1.066-.193s-.542-.291-.736-.484a5.52 5.52 0 0 1-.562 1.957 5.031 5.031 0 0 1-1.162 1.501c-.479.42-1.04.743-1.687.969a6.384 6.384 0 0 1-2.131.339c-1.059 0-1.941-.151-2.645-.455-.705-.304-1.267-.697-1.686-1.182-.42-.484-.717-1.027-.892-1.628s-.262-1.191-.262-1.772c0-.62.107-1.25.322-1.89.216-.639.524-1.23.929-1.772l1.869 1.065a4.763 4.763 0 0 0-.641 1.308 4.498 4.498 0 0 0-.193 1.289c0 .284.049.588.145.91.098.323.268.623.512.901.245.277.58.51 1.006.697.425.188.965.281 1.623.281.424 0 .833-.059 1.227-.175.393-.116.74-.3 1.043-.552s.547-.575.734-.969c.186-.395.279-.862.279-1.405V16.233h2.189v9.843c0 .659.148 1.121.446 1.386.297.265.724.396 1.278.396h.679c.193 0 .325.052.397.155.07.104.112.227.125.368v1.182z"/><path d="M178.409 30.106c-.221 0-.361-.052-.427-.155a.648.648 0 0 1-.097-.349V28.46a.74.74 0 0 1 .125-.407c.085-.129.217-.194.398-.194h1.859c.284 0 .475-.09.572-.271.096-.181.145-.427.145-.736v-4.457h2.209v3.682c0 .517.123.943.368 1.279s.69.503 1.337.503h.678c.221 0 .362.052.427.155s.097.227.097.368v1.182c0 .104-.041.221-.125.35s-.217.193-.398.193h-.736c-.568 0-1.023-.136-1.365-.407a3.053 3.053 0 0 1-.785-.891c-.219.374-.525.685-.92.93s-.862.368-1.404.368h-1.958zm1.007 2.432c0-.312.11-.577.329-.792.221-.215.498-.322.834-.322s.613.107.833.322.329.479.329.792c0 .326-.109.596-.329.812-.22.215-.497.322-.833.322s-.613-.107-.834-.322a1.093 1.093 0 0 1-.329-.812zm3.003 0c0-.312.11-.577.33-.792.219-.215.497-.322.833-.322s.613.107.833.322.33.479.33.792c0 .326-.11.596-.33.812-.22.215-.497.322-.833.322s-.614-.107-.833-.322a1.09 1.09 0 0 1-.33-.812z"/><path d="M195.286 29.563c0 .104-.043.221-.127.35s-.223.193-.416.193h-.368c-.413 0-.823-.084-1.23-.252s-.739-.368-.998-.601c-.232.361-.487.595-.765.697-.278.104-.56.155-.844.155h-5.076c-.193 0-.33-.052-.406-.155a.563.563 0 0 1-.117-.349V28.46a.74.74 0 0 1 .126-.407c.085-.129.217-.194.397-.194h5.716a3.906 3.906 0 0 1-.319-.794c-.098-.323-.172-.781-.223-1.376-.065-.658-.236-1.12-.514-1.385-.278-.265-.643-.397-1.096-.397-.258 0-.588.042-.987.126a5.236 5.236 0 0 0-1.202.416l-.542-2.111c.155-.052.358-.116.61-.194.252-.077.52-.151.805-.223.283-.07.578-.132.881-.184a5.13 5.13 0 0 1 .863-.078c.619 0 1.139.11 1.559.33s.763.503 1.027.853c.265.349.462.732.591 1.152.13.42.214.83.252 1.23.026.259.067.539.126.843s.139.588.242.853.238.488.407.669a.833.833 0 0 0 .64.271h.445c.207 0 .349.052.426.155a.597.597 0 0 1 .117.368v1.18zm-7.072 2.975c0-.312.111-.577.336-.792.224-.215.502-.322.836-.322.32 0 .592.107.816.322s.336.479.336.792c0 .326-.111.596-.336.812a1.136 1.136 0 0 1-.816.322c-.334 0-.612-.107-.836-.322a1.077 1.077 0 0 1-.336-.812z"/><path d="M194.665 30.106c-.206 0-.349-.052-.426-.155a.562.562 0 0 1-.116-.349V28.46c0-.143.046-.278.136-.407s.226-.194.406-.194h3.391c.297 0 .498-.077.602-.232.104-.154.154-.394.154-.717v-2.713h2.17v1.88c0 .491.123.911.369 1.26.244.349.697.522 1.355.522h.35c.297 0 .49-.09.581-.271.09-.181.136-.427.136-.736v-3.41h2.229v2.635c0 .517.122.943.367 1.279.246.336.691.503 1.338.503h.465c.31 0 .514-.09.609-.271.098-.181.146-.427.146-.736v-4.457h2.189v3.682c0 .517.119.943.357 1.279.239.336.682.503 1.328.503h.794c.206 0 .349.052.427.155a.602.602 0 0 1 .115.368v1.182c0 .104-.041.221-.125.35s-.217.193-.397.193h-.813c-.582 0-1.043-.129-1.386-.388a2.723 2.723 0 0 1-.784-.892c-.221.414-.55.73-.988.95-.439.22-.931.329-1.473.329h-.523c-.582 0-1.037-.129-1.366-.388a2.694 2.694 0 0 1-.746-.872 2.3 2.3 0 0 1-1.007.95c-.427.206-.879.31-1.357.31h-.504c-.555 0-1.004-.129-1.346-.388a2.603 2.603 0 0 1-.766-.872 2.273 2.273 0 0 1-1.037.95c-.445.206-.939.31-1.482.31h-3.372z"/><path d="M213.479 30.106c-.182 0-.311-.052-.388-.155a.568.568 0 0 1-.116-.349V28.46a.74.74 0 0 1 .125-.407.424.424 0 0 1 .379-.194h2.654v-5.464h2.209v7.712h-4.863zm1.008-10.734c0-.31.109-.574.328-.794.221-.22.498-.33.834-.33s.613.11.833.33.329.484.329.794-.109.575-.329.794c-.22.221-.497.33-.833.33a1.128 1.128 0 0 1-1.162-1.124zm3.022 0c0-.31.11-.574.33-.794.219-.22.497-.33.833-.33s.613.11.833.33.33.484.33.794-.11.575-.33.794c-.22.221-.497.33-.833.33s-.614-.109-.833-.33a1.08 1.08 0 0 1-.33-.794z"/></g></svg>