<svg id="Layer_1" xmlns="http://www.w3.org/2000/svg" width="397.7" height="267.1" viewBox="0 0 397.7 267.1"><style>.st0{opacity:.31;fill:#fff}.st1{fill:none;stroke:#fff;stroke-width:3;stroke-miterlimit:10}.st2{fill:#fff}</style><path id="XMLID_54_" class="st0" d="M28.8 2.9h355.6c5 0 9 4.1 9 9v228.4c.1 5-369.5-237.4-364.6-237.4z"/><path id="XMLID_588_" class="st1" d="M383.4 265.6H14.2c-7 0-12.7-5.7-12.7-12.7V14.2c0-7 5.7-12.7 12.7-12.7h369.2c7 0 12.7 5.7 12.7 12.7v238.7c.1 7-5.7 12.7-12.7 12.7z"/><path id="XMLID_660_" class="st1" d="M362.6 248.8H26.8c-4.7 0-8.5-3.8-8.5-8.5V24.6c0-4.7 3.8-8.5 8.5-8.5h335.8c4.7 0 8.5 3.8 8.5 8.5v215.7c0 4.7-3.8 8.5-8.5 8.5z"/><circle id="XMLID_48_" class="st1" cx="384.2" cy="130.1" r="7.5"/><circle id="XMLID_49_" class="st2" cx="9.5" cy="129.9" r="4"/></svg>