<svg xmlns="http://www.w3.org/2000/svg" xmlns:xlink="http://www.w3.org/1999/xlink" width="194.898" height="197.055" viewBox="0 0 194.898 197.055"><circle opacity=".2" cx="93.98" cy="104.064" r="86.366"/><circle fill="#D81F2A" cx="100.98" cy="95.064" r="73.101"/><defs><path id="a" d="M174.081 95.064c0 40.373-32.728 73.101-73.101 73.101s-73.101-32.728-73.101-73.101c0-27.669 25.196-73.101 73.101-73.101 40.372 0 73.101 32.728 73.101 73.101z"/></defs><clipPath id="b"><use xlink:href="#a" overflow="visible"/></clipPath><g opacity=".3" clip-path="url(#b)"><path fill="#231F20" d="M142.274 54.713c1.924 0 2.886.648 2.886 1.943 0 .251 52.693 40.191 52.693 40.191l-64.781 90.039c-25.472-23.018-66.87-44.892-60.427-53.149v-.94c3.108-7.394 9.372-18.299 18.795-32.712-7.991-8.898-19.671-12.051-29.388-18.987-6.857-2.841-10.285-5.493-10.285-7.959V71.51c1.184-3.843 3.996-5.765 8.435-5.765 2.22 0 7.744 2.319 16.575 6.956 8.731 6.016 19.054 7.729 25.319 14.663 5.18-6.267 13.171-13.223 23.974-20.868 6.116-4.136 10.778-7.896 13.985-11.28.788-.335 1.528-.503 2.219-.503z"/></g><path fill="#FFF" d="M139.897 52.039c1.924 0 2.886.648 2.886 1.943 0 .251-2.566 3.28-7.695 9.087-5.328 9.4-11.839 18.925-19.535 28.576-2.861 3.259-4.465 5.432-4.81 6.517 17.807 21.725 28.118 33.819 30.93 36.284 4.192 3.551 6.289 5.703 6.289 6.455 0 .668-.74 1.316-2.22 1.943h-.74c-1.973 0-4.415-1.692-7.325-5.076l-26.564-20.617c-3.552-3.259-6.363-5.577-8.435-6.956h-.37c-9.175 16.962-15.317 25.443-18.424 25.443-2.812 2.09-5.279 3.133-7.399 3.133h-.666c-3.7 0-5.55-2.569-5.55-7.708v-.94c3.108-7.394 9.372-18.299 18.795-32.712A162.378 162.378 0 0 0 62.5 73.66c-6.857-2.841-10.285-5.493-10.285-7.959v-1.629c1.184-3.843 3.996-5.765 8.435-5.765 2.22 0 7.744 2.319 16.575 6.956 8.731 6.016 16.229 12.492 22.494 19.427 5.18-6.267 13.171-13.223 23.974-20.868 6.116-4.136 10.778-7.896 13.985-11.28.788-.336 1.528-.503 2.219-.503z"/><circle fill="none" stroke="#FFF" stroke-width="4" stroke-miterlimit="10" cx="100.98" cy="95.064" r="73.101"/><circle fill="none" stroke="#FFF" stroke-width="2" stroke-miterlimit="10" cx="100.98" cy="95.064" r="86.366"/></svg>