<svg xmlns="http://www.w3.org/2000/svg" width="287.334" height="262" viewBox="0 0 287.334 262"><path fill="#010202" d="M287.334 185.665H0v-186h287.334v186zM274 24.332H13.667v147.666H274V24.332z"/><path fill="#515752" d="M0-.335h287.334v15.333H0z"/><path fill="#393939" d="M0-.335h20v15.333H0zm267 0h20v15.333h-20z"/><path fill="#282A28" d="M0 163.665h287.334v22.333H0z"/><path fill="#BFBEBD" d="M0 185.998h287.334v25.334H0z"/><linearGradient id="a" gradientUnits="userSpaceOnUse" x1="1147.426" y1="1585.034" x2="1126.255" y2="1585.034" gradientTransform="matrix(0 -1.1221 1 0 -1441.367 1475.853)"><stop offset="0" stop-color="#757575"/><stop offset="1"/></linearGradient><path fill="url(#a)" d="M0 188.33h287.334v23.749H0z"/><circle fill="none" stroke="#FFF" stroke-miterlimit="10" cx="143.333" cy="200.332" r="8"/><path fill="#FFF" d="M140.834 195.414l7.666 4.5-7.666 4.5zm15.529 1.096l5.942 3.487-5.942 3.487z"/><path fill="#FFF" d="M161.917 196.081h1.417v7.403h-1.417zm-31.583.429l-5.941 3.487 5.941 3.487z"/><path fill="#FFF" d="M123.363 196.081h1.417v7.403h-1.417zm150.346 3.125h-2.042v-3.75h4.667v2.125h-2.625zm6.332-.04h2.042v-3.75h-4.667v2.125h2.625zm0 1.334h2.042v3.75h-4.667v-2.125h2.625zm-6.332.04h-2.042v3.75h4.667v-2.125h-2.625z"/><path fill="#FFF" d="M274.542 198.289h4.75v3.208h-4.75zm-50.791-2.29l-2 2.29h-2v3.208h2.416l1.584 2.753z"/><path fill="none" stroke="#FDFDFD" stroke-miterlimit="10" d="M225.167 197.749s.536 1.724.562 2.541c.028.88-.562 2.542-.562 2.542m2-6.167s.536 2.459.562 3.625c.028 1.255-.562 3.626-.562 3.626"/><path d="M231 199.206h38.667v3.169H231z"/><path fill="#D5D4D0" d="M231 199.206h18.667v3.169H231z"/><path fill="#FFF" d="M246 198.957h7v3.667h-7zM8.014 202.174l2.653-4.52 2.653 4.52z"/><path fill="#F18519" d="M.334 185.413h193.667v3.169H.334z"/><path fill="#FFF" d="M189.334 185.164h7v3.667h-7z"/><path d="M26.959 196.76a5.966 5.966 0 0 1 1.179-.111c.671 0 1.196.095 1.575.447.344.302.5.783.5 1.273 0 .629-.189 1.067-.491 1.395-.361.379-.947.551-1.412.551h-.224v2.16h-1.127v-5.715zm1.128 2.634c.052.018.112.018.181.018.568 0 .826-.404.826-.947 0-.508-.207-.903-.731-.903a.858.858 0 0 0-.275.043v1.789zm2.705-2.874h1.127v5.955h-1.127v-5.955zm3.822 5.955l-.061-.413h-.017c-.232.327-.56.481-.929.481-.637 0-1.11-.533-1.11-1.282 0-1.102.973-1.558 1.928-1.565v-.095c0-.327-.198-.568-.594-.568-.336 0-.611.086-.861.241l-.207-.758c.232-.138.723-.318 1.308-.318 1.282 0 1.489.896 1.489 1.747v1.566c0 .336.018.68.069.964h-1.015zm-.155-2.048c-.378.008-.895.129-.895.714 0 .422.232.576.405.576a.49.49 0 0 0 .465-.361.738.738 0 0 0 .025-.197v-.732zm2.645-2.16l.413 2.186c.043.25.078.482.112.706h.018c.034-.216.069-.456.103-.688l.353-2.203h1.102l-.861 3.244c-.207.792-.482 1.609-.938 2.151a2.249 2.249 0 0 1-.955.663l-.344-.973c.198-.069.387-.198.559-.353.155-.146.275-.318.353-.5.034-.077.06-.12.06-.181 0-.052-.017-.103-.034-.154l-1.153-3.898h1.212zm2.609-1.593h1.127v4.846h1.489v.955h-2.616v-5.801zm4.297.473a.575.575 0 0 1-.594.611c-.31 0-.568-.25-.559-.611a.57.57 0 0 1 .577-.611c.327 0 .576.233.576.611zm-1.127 5.328v-4.208h1.127v4.208h-1.127zm1.886-1.016c.164.104.474.224.757.224.292 0 .456-.129.456-.378 0-.216-.12-.354-.49-.568-.688-.388-.852-.826-.852-1.214 0-.757.542-1.325 1.386-1.325.353 0 .628.086.852.189l-.198.826a1.166 1.166 0 0 0-.585-.172c-.284 0-.421.172-.421.361s.095.293.491.525c.619.353.852.791.852 1.273 0 .86-.62 1.325-1.489 1.325-.353 0-.766-.095-.964-.241l.205-.825zm4.149-4.329v1.137h.826v.8h-.826v1.919c0 .491.207.611.43.611.112 0 .198-.009.293-.025l.008.878a2.658 2.658 0 0 1-.688.077c-.327 0-.611-.077-.809-.267-.232-.224-.361-.543-.361-1.205v-1.988h-.499v-.8h.499v-.869l1.127-.268zm210.879-15.197c0 1.486-.542 2.143-1.212 2.143-.905 0-1.212-1.039-1.212-2.104 0-1.192.383-2.144 1.244-2.144.956-.001 1.18 1.115 1.18 2.105zm-1.582.018c-.013.97.108 1.41.39 1.41.262 0 .351-.46.351-1.41 0-.886-.083-1.409-.351-1.409-.262 0-.396.446-.39 1.409zm4.298-.017c0 1.486-.542 2.143-1.212 2.143-.905 0-1.212-1.04-1.212-2.105 0-1.192.383-2.143 1.244-2.143.957-.001 1.18 1.115 1.18 2.105zm-1.582.018c-.013.97.108 1.41.39 1.41.262 0 .351-.46.351-1.41 0-.886-.083-1.409-.351-1.409-.262 0-.396.446-.39 1.409zm2.052-.491c0-.3.217-.535.472-.535.269 0 .473.21.473.535 0 .307-.186.523-.479.523-.261 0-.466-.216-.466-.523zm0 2.086c0-.293.217-.529.472-.529.269 0 .473.211.473.529 0 .312-.186.529-.479.529-.261 0-.466-.217-.466-.529zm1.436-.313c.166.096.396.159.618.159.402 0 .625-.248.625-.6 0-.459-.351-.656-.777-.656h-.115v-.612h.083c.306-.007.701-.134.701-.536 0-.3-.191-.479-.484-.479-.185 0-.37.07-.523.166l-.108-.632c.173-.108.511-.217.855-.217.727 0 1.09.473 1.09 1.002 0 .414-.229.759-.593.931v.013c.402.135.708.491.708 1.053 0 .632-.484 1.25-1.384 1.25a1.75 1.75 0 0 1-.816-.185l.12-.657zm5.012-1.3c0 1.486-.542 2.143-1.212 2.143-.905 0-1.212-1.039-1.212-2.104 0-1.192.383-2.144 1.244-2.144.957-.001 1.18 1.115 1.18 2.105zm-1.582.018c-.013.97.108 1.41.39 1.41.262 0 .351-.46.351-1.41 0-.886-.083-1.409-.351-1.409-.262 0-.396.446-.39 1.409zm2.052-.491c0-.3.217-.535.472-.535.269 0 .473.21.473.535 0 .307-.186.523-.479.523-.262 0-.466-.216-.466-.523zm0 2.086c0-.293.217-.529.472-.529.269 0 .473.211.473.529 0 .312-.186.529-.479.529-.262 0-.466-.217-.466-.529zm2.302-2.883h-.013l-.701.363-.141-.656.95-.491h.733v4.146h-.829v-3.362zm2.046 2.717c.16 0 .242-.006.383-.031.159-.032.345-.115.485-.249.178-.172.331-.466.401-.836h-.02a.77.77 0 0 1-.593.256c-.536 0-.976-.479-.976-1.237 0-.715.439-1.455 1.237-1.455.771 0 1.174.702 1.174 1.703 0 .938-.3 1.595-.683 2.003a1.777 1.777 0 0 1-1.021.523c-.134.019-.262.019-.39.019v-.696zm.504-2.168c.007.401.134.733.39.733a.362.362 0 0 0 .318-.217c.032-.083.038-.166.038-.44 0-.549-.152-.854-.376-.854-.217 0-.376.274-.37.778zm2.066.248c0-.3.217-.535.472-.535.269 0 .473.21.473.535 0 .307-.186.523-.479.523-.262 0-.466-.216-.466-.523zm0 2.086c0-.293.217-.529.472-.529.269 0 .473.211.473.529 0 .312-.186.529-.479.529-.262 0-.466-.217-.466-.529zm3.489-2.941h-1.097l-.096.74h.127c.179.006.542.089.778.312.229.224.357.536.357.95 0 .811-.536 1.467-1.441 1.467-.294 0-.612-.076-.778-.166l.128-.663c.152.077.369.146.593.146.408 0 .676-.261.676-.708 0-.555-.421-.739-.899-.739-.114 0-.21 0-.293.013l.229-2.079h1.716v.727zm2.652-.101a2.565 2.565 0 0 0-.345.044c-.549.122-.823.581-.925 1.104h.019a.782.782 0 0 1 .639-.331c.561 0 .938.504.938 1.288 0 .728-.37 1.467-1.181 1.467-.784 0-1.263-.683-1.263-1.709 0-.906.3-1.524.683-1.933.268-.3.67-.498 1.015-.562.197-.038.331-.038.421-.045v.677zm-.498 2.099c-.006-.352-.121-.683-.389-.683-.134 0-.262.089-.338.28-.026.045-.045.172-.045.363 0 .543.153.906.401.906.282.001.371-.369.371-.866z" fill="#FCFCFC"/><defs><filter id="b" filterUnits="userSpaceOnUse" x="-.002" y="212.3" width="287.336" height="41.2"><feColorMatrix values="-1 0 0 0 1 0 -1 0 0 1 0 0 -1 0 1 0 0 0 1 0" color-interpolation-filters="sRGB" result="source"/><feFlood result="back" flood-color="#fff" flood-opacity="1"/><feBlend in="source" in2="back"/></filter></defs><mask maskUnits="userSpaceOnUse" x="-.002" y="212.3" width="287.336" height="41.2" id="d"><g filter="url(#b)"><linearGradient id="c" gradientUnits="userSpaceOnUse" x1="210.09" y1="250.207" x2="283.757" y2="250.207" gradientTransform="matrix(0 -1 4.3804 0 -952.37 496.712)"><stop offset="0" stop-color="#fff" stop-opacity="0"/><stop offset=".004" stop-color="#fcfcfc" stop-opacity=".004"/><stop offset=".085" stop-color="#c8c8c8" stop-opacity=".085"/><stop offset=".17" stop-color="#999" stop-opacity=".17"/><stop offset=".259" stop-color="#707070" stop-opacity=".259"/><stop offset=".352" stop-color="#4d4d4d" stop-opacity=".352"/><stop offset=".451" stop-color="#313131" stop-opacity=".451"/><stop offset=".556" stop-color="#1b1b1b" stop-opacity=".556"/><stop offset=".672" stop-color="#0c0c0c" stop-opacity=".672"/><stop offset=".805" stop-color="#030303" stop-opacity=".805"/><stop offset="1"/></linearGradient><path opacity=".6" fill="url(#c)" d="M.002 212.955h287.292v73.667H.002z"/></g></mask><g opacity=".5" mask="url(#d)"><linearGradient id="e" gradientUnits="userSpaceOnUse" x1="46.515" y1="245.883" x2="213.882" y2="245.883" gradientTransform="matrix(0 -.2462 9.4694 -.00005 -2184.73 264.963)"><stop offset="0" stop-color="#fff"/><stop offset=".036" stop-color="#fefefe" stop-opacity=".824"/><stop offset=".049" stop-color="#f9f9f9" stop-opacity=".761"/><stop offset=".058" stop-color="#f0f0f0" stop-opacity=".716"/><stop offset=".066" stop-color="#e4e4e4" stop-opacity=".679"/><stop offset=".072" stop-color="#d4d4d3" stop-opacity=".648"/><stop offset=".078" stop-color="#bfbfbf" stop-opacity=".621"/><stop offset=".08" stop-color="#b4b4b4" stop-opacity=".61"/><stop offset=".159" stop-color="#9d9d9d" stop-opacity=".557"/><stop offset=".373" stop-color="#666" stop-opacity=".415"/><stop offset=".572" stop-color="#3a3a3a" stop-opacity=".284"/><stop offset=".749" stop-color="#1a1a1a" stop-opacity=".167"/><stop offset=".897" stop-color="#070707" stop-opacity=".068"/><stop offset="1" stop-opacity="0"/></linearGradient><path fill="url(#e)" d="M.015 212.3l-.017 41.2 287.25-.001.007-41.199z"/><linearGradient id="f" gradientUnits="userSpaceOnUse" x1="1336.434" y1="1585.035" x2="1315.263" y2="1585.035" gradientTransform="matrix(0 1.1221 1 0 -1441.368 -1263.443)"><stop offset="0" stop-color="#757575"/><stop offset="1"/></linearGradient><path fill="url(#f)" d="M0 212.417h287.334v23.749H0z"/><circle fill="none" stroke="#FFF" stroke-miterlimit="10" cx="143.333" cy="224.164" r="8"/><path fill="#FFF" d="M140.834 229.082l7.666-4.5-7.666-4.5zm15.529-1.096l5.942-3.487-5.942-3.487z"/><path fill="#FFF" d="M161.917 221.012h1.417v7.403h-1.417zm-31.583 6.974l-5.941-3.487 5.941-3.487z"/><path fill="#FFF" d="M123.363 221.012h1.417v7.403h-1.417zm150.346 4.278h-2.042v3.75h4.667v-2.125h-2.625zm6.332.04h2.042v3.75h-4.667v-2.125h2.625zm0-1.334h2.042v-3.75h-4.667v2.125h2.625zm-6.332-.04h-2.042v-3.75h4.667v2.125h-2.625z"/><path fill="#FFF" d="M274.542 222.999h4.75v3.208h-4.75zm-50.791 5.498l-2-2.29h-2v-3.208h2.416l1.584-2.753z"/><path fill="none" stroke="#FDFDFD" stroke-miterlimit="10" d="M225.167 226.747s.536-1.724.562-2.541c.028-.88-.562-2.542-.562-2.542m2 6.167s.536-2.459.562-3.625c.028-1.255-.562-3.626-.562-3.626"/><path d="M231 222.121h38.667v3.169H231z"/><path fill="#D5D4D0" d="M231 222.121h18.667v3.169H231z"/><path fill="#FFF" d="M246 221.872h7v3.667h-7zm-237.985.45l2.652 4.52 2.652-4.52z"/><path d="M26.959 222.021h1.127v2.16h.224c.465 0 1.05.172 1.412.551.301.327.491.766.491 1.395 0 .49-.155.972-.5 1.273-.378.353-.903.447-1.575.447-.43 0-.861-.043-1.179-.111v-5.715zm1.128 4.871a.862.862 0 0 0 .275.043c.525 0 .731-.396.731-.903 0-.543-.258-.947-.826-.947-.069 0-.129 0-.181.018v1.789zm2.705-4.871h1.127v5.955h-1.127v-5.955zm4.837 0a5.707 5.707 0 0 0-.069.964v1.566c0 .852-.207 1.747-1.489 1.747-.585 0-1.076-.181-1.308-.318l.207-.758c.25.155.525.241.861.241.396 0 .594-.241.594-.568v-.095c-.955-.008-1.928-.464-1.928-1.565 0-.749.473-1.282 1.11-1.282.37 0 .697.154.929.481h.017l.061-.413h1.015zm-1.17 1.316a.733.733 0 0 0-.025-.197.49.49 0 0 0-.465-.361c-.172 0-.405.154-.405.576 0 .585.517.706.895.714v-.732zm1.431 2.892l1.153-3.898c.017-.052.034-.103.034-.154 0-.061-.026-.104-.06-.181a1.508 1.508 0 0 0-.353-.5 1.73 1.73 0 0 0-.559-.353l.344-.973c.172.052.602.25.955.663.456.542.731 1.359.938 2.151l.861 3.244h-1.102l-.353-2.203c-.034-.232-.069-.473-.103-.688h-.018c-.034.224-.069.456-.112.706l-.413 2.186H35.89zm3.823-4.208h2.616v.955H40.84v4.846h-1.127v-5.801zm3.721 5.938c-.31 0-.585-.232-.577-.611-.009-.361.25-.611.559-.611.345 0 .603.25.594.611 0 .379-.249.611-.576.611zm.576-5.938v4.208h-1.127v-4.208h1.127zm.552.189c.198-.146.611-.241.964-.241.869 0 1.489.465 1.489 1.325 0 .482-.232.921-.852 1.273-.396.232-.491.336-.491.525s.138.361.421.361c.224 0 .422-.077.585-.172l.198.826a1.97 1.97 0 0 1-.852.189c-.844 0-1.386-.568-1.386-1.325 0-.388.164-.826.852-1.214.37-.215.49-.353.49-.568 0-.249-.164-.378-.456-.378-.284 0-.594.12-.757.224l-.205-.825zm3.229 4.888v-.869h-.499v-.8h.499v-1.988c0-.662.129-.981.361-1.205.198-.189.482-.267.809-.267.301 0 .534.034.688.077l-.008.878a1.569 1.569 0 0 0-.293-.025c-.224 0-.43.12-.43.611v1.919h.826v.8h-.826v1.137l-1.127-.268zm210.825 17.57c-.861 0-1.244-.951-1.244-2.144 0-1.065.307-2.104 1.212-2.104.67 0 1.212.656 1.212 2.143 0 .989-.224 2.105-1.18 2.105zm-.012-.715c.268 0 .351-.523.351-1.409 0-.95-.089-1.41-.351-1.41-.281 0-.402.44-.39 1.41-.006.963.128 1.409.39 1.409zm2.728.714c-.861 0-1.244-.95-1.244-2.143 0-1.065.307-2.105 1.212-2.105.67 0 1.212.656 1.212 2.143 0 .989-.223 2.105-1.18 2.105zm-.013-.715c.268 0 .351-.523.351-1.409 0-.95-.089-1.41-.351-1.41-.281 0-.402.44-.39 1.41-.005.963.129 1.409.39 1.409zm2.129-3.533c.293 0 .479.217.479.529 0 .318-.204.529-.473.529-.255 0-.472-.236-.472-.529 0-.312.205-.529.466-.529zm0 2.092c.293 0 .479.217.479.523 0 .325-.204.535-.473.535-.255 0-.472-.235-.472-.535 0-.306.205-.523.466-.523zm.849-1.907c.185-.102.479-.185.816-.185.899 0 1.384.618 1.384 1.25 0 .562-.306.918-.708 1.053v.013c.363.172.593.517.593.931 0 .529-.363 1.002-1.09 1.002-.345 0-.683-.108-.855-.217l.108-.632c.153.096.339.166.523.166.293 0 .484-.179.484-.479 0-.402-.396-.529-.701-.536h-.083v-.612h.115c.427 0 .777-.197.777-.656 0-.352-.223-.6-.625-.6-.223 0-.452.063-.618.159l-.12-.657zm3.953 4.063c-.861 0-1.244-.951-1.244-2.144 0-1.065.307-2.104 1.212-2.104.67 0 1.212.656 1.212 2.143 0 .989-.223 2.105-1.18 2.105zm-.013-.715c.268 0 .351-.523.351-1.409 0-.95-.089-1.41-.351-1.41-.281 0-.402.44-.39 1.41-.005.963.129 1.409.39 1.409zm2.129-3.533c.293 0 .479.217.479.529 0 .318-.204.529-.473.529-.255 0-.472-.236-.472-.529 0-.312.204-.529.466-.529zm0 2.092c.293 0 .479.217.479.523 0 .325-.204.535-.473.535-.255 0-.472-.235-.472-.535 0-.306.204-.523.466-.523zm1.836-2.041h.829v4.146h-.733l-.95-.491.141-.656.701.363h.013v-3.362zm2.046-.051c.128 0 .256 0 .39.019a1.78 1.78 0 0 1 1.021.523c.383.408.683 1.065.683 2.003 0 1.001-.402 1.703-1.174 1.703-.798 0-1.237-.74-1.237-1.455 0-.759.439-1.237.976-1.237.268 0 .459.108.593.256h.02c-.07-.37-.224-.664-.401-.836a1.018 1.018 0 0 0-.485-.249 1.864 1.864 0 0 0-.383-.031v-.696zm.874 3.642c.224 0 .376-.306.376-.854 0-.274-.006-.357-.038-.44a.364.364 0 0 0-.318-.217c-.256 0-.383.332-.39.733-.006.503.153.778.37.778zm2.162-3.642c.293 0 .479.217.479.529 0 .318-.204.529-.473.529-.255 0-.472-.236-.472-.529 0-.312.204-.529.466-.529zm0 2.092c.293 0 .479.217.479.523 0 .325-.204.535-.473.535-.255 0-.472-.235-.472-.535 0-.306.204-.523.466-.523zm3.023 2.104h-1.716l-.229-2.079c.083.013.179.013.293.013.479 0 .899-.185.899-.739 0-.447-.268-.708-.676-.708-.224 0-.44.069-.593.146l-.128-.663c.166-.09.484-.166.778-.166.905 0 1.441.656 1.441 1.467 0 .414-.128.727-.357.95-.236.224-.6.307-.778.312h-.127l.096.74h1.097v.727zm2.652.052c-.09-.007-.224-.007-.421-.045a1.878 1.878 0 0 1-1.015-.562c-.383-.408-.683-1.026-.683-1.933 0-1.026.479-1.709 1.263-1.709.811 0 1.181.739 1.181 1.467 0 .784-.377 1.288-.938 1.288a.785.785 0 0 1-.639-.331h-.019c.102.522.376.981.925 1.104.128.025.242.038.345.044v.677zm-.868-3.643c-.248 0-.401.363-.401.906 0 .191.019.318.045.363.076.191.204.28.338.28.268 0 .383-.331.389-.683-.001-.495-.09-.866-.371-.866z" fill="#FCFCFC"/></g><circle opacity=".6" fill="none" stroke="#FFF" stroke-miterlimit="10" cx="140.001" cy="102.998" r="32.334"/><path opacity=".6" fill="#FFF" d="M129.899 83.121l30.983 18.188-30.983 18.185z"/><linearGradient id="g" gradientUnits="userSpaceOnUse" x1="143.666" y1="262.001" x2="143.666" y2="213.163"><stop offset="0" stop-color="#fff"/><stop offset=".416" stop-color="#fefefe" stop-opacity=".824"/><stop offset=".566" stop-color="#f9f9f9" stop-opacity=".761"/><stop offset=".672" stop-color="#f0f0f0" stop-opacity=".716"/><stop offset=".759" stop-color="#e4e4e4" stop-opacity=".679"/><stop offset=".833" stop-color="#d4d4d3" stop-opacity=".648"/><stop offset=".897" stop-color="#bfbfbf" stop-opacity=".621"/><stop offset=".924" stop-color="#b4b4b4" stop-opacity=".61"/><stop offset=".932" stop-color="#aaa" stop-opacity=".542"/><stop offset=".947" stop-color="#8f8f8f" stop-opacity=".427"/><stop offset=".965" stop-color="#646464" stop-opacity=".28"/><stop offset=".987" stop-color="#282828" stop-opacity=".107"/><stop offset="1" stop-opacity="0"/></linearGradient><path fill="url(#g)" d="M0 213.164h287.333V262H0z"/></svg>