<?xml version="1.0" encoding="utf-8"?>
<!-- Generator: Adobe Illustrator 19.0.0, SVG Export Plug-In . SVG Version: 6.00 Build 0)  -->
<svg version="1.1" id="Layer_1" xmlns="http://www.w3.org/2000/svg" xmlns:xlink="http://www.w3.org/1999/xlink" x="0px" y="0px"
	 viewBox="0 0 266.3 56.2" style="enable-background:new 0 0 266.3 56.2;" xml:space="preserve">
<style type="text/css">
	.st0{opacity:0.7;fill:url(#XMLID_9_);}
	.st1{fill:#466BB2;}
	.st2{opacity:0.6;fill:#5C84C0;}
	.st3{fill:#335E9B;}
	.st4{fill:#F6F5F5;}
	.st5{opacity:0.7;fill:url(#XMLID_11_);}
	.st6{opacity:0.7;fill:url(#XMLID_12_);}
</style>
<g id="XMLID_30536_">
	<g id="XMLID_30576_">
		
			<linearGradient id="XMLID_9_" gradientUnits="userSpaceOnUse" x1="537.5605" y1="632.7064" x2="544.5479" y2="632.7064" gradientTransform="matrix(0 -1 1 0 -113.4549 -114.2602)">
			<stop  offset="0" style="stop-color:#FFFFFF;stop-opacity:0"/>
			<stop  offset="1" style="stop-color:#000000"/>
		</linearGradient>
		<rect id="XMLID_30236_" x="386.3" y="-658.8" class="st0" width="265.9" height="7"/>
	</g>
	<rect id="XMLID_30575_" x="647.9" y="-567.8" class="st1" width="266.3" height="44.8"/>
	<path id="XMLID_30574_" class="st2" d="M647.9-567.8v19.5c0,0,79,8.1,125.6,8.1c43.9,0,140.7-8.1,140.7-8.1v-19.5H647.9z"/>
	<g id="XMLID_30571_">
		<path id="XMLID_30572_" class="st3" d="M669.1-523l-3.7-6.8l-4.9,2.7l-4.7-8.5l4.9-2.7l-0.8-1.4c-2.5-4.5-3.8-10.2-2.1-15.1
			c1.4-4.3,4.9-7.5,8.3-9.4c2.6-1.4,4.7-2.2,6.6-2.6l4.4,9.2c-1.2,0.2-2.5,0.7-4,1.5c-3.8,2.1-3.8,5.9-1.8,9.6l1,1.9l7.5-4.1
			l4.7,8.5l-7.4,4l7.2,13.2L669.1-523z"/>
	</g>
	<path id="XMLID_30570_" class="st4" d="M667.3-523l-3.7-6.8l-4.9,2.7l-4.7-8.5l4.9-2.7l-0.8-1.4c-2.5-4.5-3.8-10.2-2.1-15.1
		c1.4-4.3,4.9-7.5,8.3-9.4c2.6-1.4,4.7-2.2,6.6-2.6l4.4,9.2c-1.2,0.2-2.5,0.7-4,1.5c-3.8,2.1-3.8,5.9-1.8,9.6l1,1.9l7.5-4.1l4.7,8.5
		l-7.4,4l7.2,13.2L667.3-523z"/>
	<g id="XMLID_30539_">
		<g id="XMLID_30555_">
			<path id="XMLID_30556_" class="st3" d="M803.8-543.7c-1.1,0-1.9,0.4-2.7,0.7v8.4c0.8,0.1,1.2,0.1,2,0.1c2.7,0,3-1.2,3-2.9v-4
				C806.1-542.7,805.7-543.7,803.8-543.7 M786.1-544.1c-1.8,0-2.3,1-2.3,2.3v0.7h4.5v-0.7C788.4-543.1,788-544.1,786.1-544.1
				 M751.9-535.4c0,1,0.5,1.5,1.5,1.5c1.1,0,1.8-0.4,2.6-0.7v-2h-2.4C752.4-536.6,751.9-536.4,751.9-535.4 M821-543.7
				c-1.9,0-2.5,1-2.5,2.3v4.6c0,1.3,0.6,2.3,2.5,2.3c1.8,0,2.5-1,2.5-2.3v-4.6C823.5-542.7,822.8-543.7,821-543.7 M742.9-530.3h-5.4
				v-13.1h-2.7v-4.5h2.7v-2.7c0-3.7,1.5-5.9,5.9-5.9h3.6v4.5h-2.3c-1.7,0-1.8,0.6-1.8,1.8l0,2.3h4.1l-0.5,4.5h-3.6V-530.3z
				 M761.4-530.3h-4.5l-0.2-1.1c-2.1,1.1-3.9,1.3-5.1,1.3c-3.3,0-5.1-2.2-5.1-5.3c0-3.6,2.1-4.9,5.8-4.9h3.8v-0.8
				c0-1.8-0.2-2.4-3.1-2.4h-4.6l0.5-4.5h5.1c6.2,0,7.6,2,7.6,7V-530.3z M776.8-543.1c-2.8-0.5-3.6-0.6-5-0.6c-2.4,0-3.2,0.5-3.2,2.6
				v3.9c0,2.1,0.7,2.6,3.2,2.6c1.4,0,2.2-0.1,5-0.6v4.4c-2.5,0.6-4.1,0.7-5.4,0.7c-5.8,0-8.2-3.1-8.2-7.5v-3.2
				c0-4.4,2.3-7.5,8.2-7.5c1.4,0,3,0.1,5.4,0.7V-543.1z M793.8-537.5h-10v0.4c0,2.1,0.7,2.6,3.2,2.6c2.2,0,3.5-0.1,6.3-0.6v4.4
				c-2.7,0.6-4.1,0.7-6.8,0.7c-5.8,0-8.2-3.1-8.2-7.5v-3.6c0-3.9,1.7-7,7.7-7c6,0,7.7,3.1,7.7,7V-537.5z M811.5-537.5
				c0,4.3-1.2,7.4-8.6,7.4c-2.7,0-4.2-0.2-7.2-0.7v-24.5l5.4-0.9v8.6c1.2-0.4,2.7-0.7,4.1-0.7c5.4,0,6.3,2.4,6.3,6.3V-537.5z
				 M828.9-537.4c0,3.7-1.5,7.3-7.9,7.3c-6.4,0-7.9-3.6-7.9-7.3v-3.6c0-3.7,1.6-7.3,7.9-7.3c6.4,0,7.9,3.6,7.9,7.3V-537.4z
				 M846.3-537.4c0,3.7-1.5,7.3-7.9,7.3c-6.4,0-7.9-3.6-7.9-7.3v-3.6c0-3.7,1.6-7.3,7.9-7.3c6.4,0,7.9,3.6,7.9,7.3V-537.4z
				 M864.2-530.3h-5.9l-5-8.3v8.3h-5.4v-24.9l5.4-0.9v16l5-7.9h5.9l-5.4,8.6L864.2-530.3z M838.4-543.7c-1.8,0-2.5,1-2.5,2.3v4.6
				c0,1.3,0.6,2.3,2.5,2.3c1.8,0,2.5-1,2.5-2.3v-4.6C840.9-542.7,840.2-543.7,838.4-543.7"/>
		</g>
		<g id="XMLID_30540_">
			<path id="XMLID_30541_" class="st4" d="M802.5-545c-1.1,0-1.9,0.4-2.7,0.7v8.4c0.8,0.1,1.2,0.1,2,0.1c2.7,0,3-1.2,3-2.9v-4
				C804.8-544,804.4-545,802.5-545 M784.9-545.4c-1.8,0-2.3,1-2.3,2.3v0.7h4.5v-0.7C787.1-544.4,786.7-545.4,784.9-545.4
				 M750.6-536.7c0,1,0.5,1.5,1.5,1.5c1.1,0,1.8-0.4,2.6-0.7v-2h-2.4C751.1-537.9,750.6-537.7,750.6-536.7 M819.7-545
				c-1.9,0-2.5,1-2.5,2.3v4.6c0,1.3,0.6,2.3,2.5,2.3c1.8,0,2.5-1,2.5-2.3v-4.6C822.2-544,821.5-545,819.7-545 M741.6-531.6h-5.4
				v-13.1h-2.7v-4.5h2.7v-2.7c0-3.7,1.5-5.9,5.9-5.9h3.6v4.5h-2.3c-1.7,0-1.8,0.6-1.8,1.8l0,2.3h4.1l-0.5,4.5h-3.6V-531.6z
				 M760.1-531.6h-4.5l-0.2-1.1c-2.1,1.1-3.9,1.3-5.1,1.3c-3.3,0-5.1-2.2-5.1-5.3c0-3.6,2.1-4.9,5.8-4.9h3.8v-0.8
				c0-1.8-0.2-2.4-3.1-2.4H747l0.5-4.5h5.1c6.2,0,7.6,2,7.6,7V-531.6z M775.5-544.4c-2.8-0.5-3.6-0.6-5-0.6c-2.4,0-3.2,0.5-3.2,2.6
				v3.9c0,2.1,0.7,2.6,3.2,2.6c1.4,0,2.2-0.1,5-0.6v4.4c-2.5,0.6-4.1,0.7-5.4,0.7c-5.8,0-8.2-3.1-8.2-7.5v-3.2
				c0-4.4,2.3-7.5,8.2-7.5c1.4,0,3,0.1,5.4,0.7V-544.4z M792.6-538.8h-10v0.4c0,2.1,0.7,2.6,3.2,2.6c2.2,0,3.5-0.1,6.3-0.6v4.4
				c-2.7,0.6-4.1,0.7-6.8,0.7c-5.8,0-8.2-3.1-8.2-7.5v-3.6c0-3.9,1.7-7,7.7-7c6,0,7.7,3.1,7.7,7V-538.8z M810.2-538.7
				c0,4.3-1.2,7.4-8.6,7.4c-2.7,0-4.2-0.2-7.2-0.7v-24.5l5.4-0.9v8.6c1.2-0.4,2.7-0.7,4.1-0.7c5.4,0,6.3,2.4,6.3,6.3V-538.7z
				 M827.6-538.7c0,3.7-1.5,7.3-7.9,7.3c-6.4,0-7.9-3.6-7.9-7.3v-3.6c0-3.7,1.6-7.3,7.9-7.3c6.4,0,7.9,3.6,7.9,7.3V-538.7z
				 M845-538.7c0,3.7-1.5,7.3-7.9,7.3c-6.4,0-7.9-3.6-7.9-7.3v-3.6c0-3.7,1.6-7.3,7.9-7.3c6.4,0,7.9,3.6,7.9,7.3V-538.7z
				 M862.9-531.6H857l-5-8.3v8.3h-5.4v-24.9l5.4-0.9v16l5-7.9h5.9l-5.4,8.6L862.9-531.6z M837.1-545c-1.8,0-2.5,1-2.5,2.3v4.6
				c0,1.3,0.6,2.3,2.5,2.3c1.8,0,2.5-1,2.5-2.3v-4.6C839.6-544,838.9-545,837.1-545"/>
		</g>
	</g>
</g>
<g id="XMLID_70_">
	<g id="XMLID_108_">
		
			<linearGradient id="XMLID_11_" gradientUnits="userSpaceOnUse" x1="537.5605" y1="632.7064" x2="544.5479" y2="632.7064" gradientTransform="matrix(0 -1 1 0 -113.4549 -114.2602)">
			<stop  offset="0" style="stop-color:#FFFFFF;stop-opacity:0"/>
			<stop  offset="1" style="stop-color:#000000"/>
		</linearGradient>
		<rect id="XMLID_110_" x="386.3" y="-658.8" class="st5" width="265.9" height="7"/>
	</g>
	<rect id="XMLID_107_" x="647.9" y="-567.8" class="st1" width="266.3" height="44.8"/>
	<path id="XMLID_106_" class="st2" d="M647.9-567.8v19.5c0,0,79,8.1,125.6,8.1c43.9,0,140.7-8.1,140.7-8.1v-19.5H647.9z"/>
	<g id="XMLID_103_">
		<path id="XMLID_104_" class="st3" d="M669.1-523l-3.7-6.8l-4.9,2.7l-4.7-8.5l4.9-2.7l-0.8-1.4c-2.5-4.5-3.8-10.2-2.1-15.1
			c1.4-4.3,4.9-7.5,8.3-9.4c2.6-1.4,4.7-2.2,6.6-2.6l4.4,9.2c-1.2,0.2-2.5,0.7-4,1.5c-3.8,2.1-3.8,5.9-1.8,9.6l1,1.9l7.5-4.1
			l4.7,8.5l-7.4,4l7.2,13.2L669.1-523z"/>
	</g>
	<path id="XMLID_102_" class="st4" d="M667.3-523l-3.7-6.8l-4.9,2.7l-4.7-8.5l4.9-2.7l-0.8-1.4c-2.5-4.5-3.8-10.2-2.1-15.1
		c1.4-4.3,4.9-7.5,8.3-9.4c2.6-1.4,4.7-2.2,6.6-2.6l4.4,9.2c-1.2,0.2-2.5,0.7-4,1.5c-3.8,2.1-3.8,5.9-1.8,9.6l1,1.9l7.5-4.1l4.7,8.5
		l-7.4,4l7.2,13.2L667.3-523z"/>
	<g id="XMLID_71_">
		<g id="XMLID_87_">
			<path id="XMLID_88_" class="st3" d="M803.8-543.7c-1.1,0-1.9,0.4-2.7,0.7v8.4c0.8,0.1,1.2,0.1,2,0.1c2.7,0,3-1.2,3-2.9v-4
				C806.1-542.7,805.7-543.7,803.8-543.7 M786.1-544.1c-1.8,0-2.3,1-2.3,2.3v0.7h4.5v-0.7C788.4-543.1,788-544.1,786.1-544.1
				 M751.9-535.4c0,1,0.5,1.5,1.5,1.5c1.1,0,1.8-0.4,2.6-0.7v-2h-2.4C752.4-536.6,751.9-536.4,751.9-535.4 M821-543.7
				c-1.9,0-2.5,1-2.5,2.3v4.6c0,1.3,0.6,2.3,2.5,2.3c1.8,0,2.5-1,2.5-2.3v-4.6C823.5-542.7,822.8-543.7,821-543.7 M742.9-530.3h-5.4
				v-13.1h-2.7v-4.5h2.7v-2.7c0-3.7,1.5-5.9,5.9-5.9h3.6v4.5h-2.3c-1.7,0-1.8,0.6-1.8,1.8l0,2.3h4.1l-0.5,4.5h-3.6V-530.3z
				 M761.4-530.3h-4.5l-0.2-1.1c-2.1,1.1-3.9,1.3-5.1,1.3c-3.3,0-5.1-2.2-5.1-5.3c0-3.6,2.1-4.9,5.8-4.9h3.8v-0.8
				c0-1.8-0.2-2.4-3.1-2.4h-4.6l0.5-4.5h5.1c6.2,0,7.6,2,7.6,7V-530.3z M776.8-543.1c-2.8-0.5-3.6-0.6-5-0.6c-2.4,0-3.2,0.5-3.2,2.6
				v3.9c0,2.1,0.7,2.6,3.2,2.6c1.4,0,2.2-0.1,5-0.6v4.4c-2.5,0.6-4.1,0.7-5.4,0.7c-5.8,0-8.2-3.1-8.2-7.5v-3.2
				c0-4.4,2.3-7.5,8.2-7.5c1.4,0,3,0.1,5.4,0.7V-543.1z M793.8-537.5h-10v0.4c0,2.1,0.7,2.6,3.2,2.6c2.2,0,3.5-0.1,6.3-0.6v4.4
				c-2.7,0.6-4.1,0.7-6.8,0.7c-5.8,0-8.2-3.1-8.2-7.5v-3.6c0-3.9,1.7-7,7.7-7c6,0,7.7,3.1,7.7,7V-537.5z M811.5-537.5
				c0,4.3-1.2,7.4-8.6,7.4c-2.7,0-4.2-0.2-7.2-0.7v-24.5l5.4-0.9v8.6c1.2-0.4,2.7-0.7,4.1-0.7c5.4,0,6.3,2.4,6.3,6.3V-537.5z
				 M828.9-537.4c0,3.7-1.5,7.3-7.9,7.3c-6.4,0-7.9-3.6-7.9-7.3v-3.6c0-3.7,1.6-7.3,7.9-7.3c6.4,0,7.9,3.6,7.9,7.3V-537.4z
				 M846.3-537.4c0,3.7-1.5,7.3-7.9,7.3c-6.4,0-7.9-3.6-7.9-7.3v-3.6c0-3.7,1.6-7.3,7.9-7.3c6.4,0,7.9,3.6,7.9,7.3V-537.4z
				 M864.2-530.3h-5.9l-5-8.3v8.3h-5.4v-24.9l5.4-0.9v16l5-7.9h5.9l-5.4,8.6L864.2-530.3z M838.4-543.7c-1.8,0-2.5,1-2.5,2.3v4.6
				c0,1.3,0.6,2.3,2.5,2.3c1.8,0,2.5-1,2.5-2.3v-4.6C840.9-542.7,840.2-543.7,838.4-543.7"/>
		</g>
		<g id="XMLID_72_">
			<path id="XMLID_73_" class="st4" d="M802.5-545c-1.1,0-1.9,0.4-2.7,0.7v8.4c0.8,0.1,1.2,0.1,2,0.1c2.7,0,3-1.2,3-2.9v-4
				C804.8-544,804.4-545,802.5-545 M784.9-545.4c-1.8,0-2.3,1-2.3,2.3v0.7h4.5v-0.7C787.1-544.4,786.7-545.4,784.9-545.4
				 M750.6-536.7c0,1,0.5,1.5,1.5,1.5c1.1,0,1.8-0.4,2.6-0.7v-2h-2.4C751.1-537.9,750.6-537.7,750.6-536.7 M819.7-545
				c-1.9,0-2.5,1-2.5,2.3v4.6c0,1.3,0.6,2.3,2.5,2.3c1.8,0,2.5-1,2.5-2.3v-4.6C822.2-544,821.5-545,819.7-545 M741.6-531.6h-5.4
				v-13.1h-2.7v-4.5h2.7v-2.7c0-3.7,1.5-5.9,5.9-5.9h3.6v4.5h-2.3c-1.7,0-1.8,0.6-1.8,1.8l0,2.3h4.1l-0.5,4.5h-3.6V-531.6z
				 M760.1-531.6h-4.5l-0.2-1.1c-2.1,1.1-3.9,1.3-5.1,1.3c-3.3,0-5.1-2.2-5.1-5.3c0-3.6,2.1-4.9,5.8-4.9h3.8v-0.8
				c0-1.8-0.2-2.4-3.1-2.4H747l0.5-4.5h5.1c6.2,0,7.6,2,7.6,7V-531.6z M775.5-544.4c-2.8-0.5-3.6-0.6-5-0.6c-2.4,0-3.2,0.5-3.2,2.6
				v3.9c0,2.1,0.7,2.6,3.2,2.6c1.4,0,2.2-0.1,5-0.6v4.4c-2.5,0.6-4.1,0.7-5.4,0.7c-5.8,0-8.2-3.1-8.2-7.5v-3.2
				c0-4.4,2.3-7.5,8.2-7.5c1.4,0,3,0.1,5.4,0.7V-544.4z M792.6-538.8h-10v0.4c0,2.1,0.7,2.6,3.2,2.6c2.2,0,3.5-0.1,6.3-0.6v4.4
				c-2.7,0.6-4.1,0.7-6.8,0.7c-5.8,0-8.2-3.1-8.2-7.5v-3.6c0-3.9,1.7-7,7.7-7c6,0,7.7,3.1,7.7,7V-538.8z M810.2-538.7
				c0,4.3-1.2,7.4-8.6,7.4c-2.7,0-4.2-0.2-7.2-0.7v-24.5l5.4-0.9v8.6c1.2-0.4,2.7-0.7,4.1-0.7c5.4,0,6.3,2.4,6.3,6.3V-538.7z
				 M827.6-538.7c0,3.7-1.5,7.3-7.9,7.3c-6.4,0-7.9-3.6-7.9-7.3v-3.6c0-3.7,1.6-7.3,7.9-7.3c6.4,0,7.9,3.6,7.9,7.3V-538.7z
				 M845-538.7c0,3.7-1.5,7.3-7.9,7.3c-6.4,0-7.9-3.6-7.9-7.3v-3.6c0-3.7,1.6-7.3,7.9-7.3c6.4,0,7.9,3.6,7.9,7.3V-538.7z
				 M862.9-531.6H857l-5-8.3v8.3h-5.4v-24.9l5.4-0.9v16l5-7.9h5.9l-5.4,8.6L862.9-531.6z M837.1-545c-1.8,0-2.5,1-2.5,2.3v4.6
				c0,1.3,0.6,2.3,2.5,2.3c1.8,0,2.5-1,2.5-2.3v-4.6C839.6-544,838.9-545,837.1-545"/>
		</g>
	</g>
</g>
<g id="XMLID_111_">
	<g id="XMLID_149_">
		
			<linearGradient id="XMLID_12_" gradientUnits="userSpaceOnUse" x1="-164.2172" y1="246.8186" x2="-157.2298" y2="246.8186" gradientTransform="matrix(0 -1 1 0 -113.4549 -114.2602)">
			<stop  offset="0" style="stop-color:#FFFFFF;stop-opacity:0"/>
			<stop  offset="1" style="stop-color:#000000"/>
		</linearGradient>
		<rect id="XMLID_159_" x="0.4" y="43" class="st6" width="265.9" height="7"/>
	</g>
	<rect id="XMLID_148_" y="0" class="st1" width="266.3" height="44.8"/>
	<path id="XMLID_147_" class="st2" d="M0,0v19.5c0,0,79,8.1,125.6,8.1c43.9,0,140.7-8.1,140.7-8.1V0H0z"/>
	<g id="XMLID_144_">
		<path id="XMLID_145_" class="st3" d="M21.2,44.8L17.5,38l-4.9,2.7L8,32.1l4.9-2.7L12.1,28C9.6,23.5,8.3,17.8,10,12.9
			c1.4-4.3,4.9-7.5,8.3-9.4c2.6-1.4,4.7-2.2,6.6-2.6l4.4,9.2c-1.2,0.2-2.5,0.7-4,1.5c-3.8,2.1-3.8,5.9-1.8,9.6l1,1.9l7.5-4.1
			l4.7,8.5l-7.4,4l7.2,13.2L21.2,44.8z"/>
	</g>
	<path id="XMLID_143_" class="st4" d="M19.4,44.8L15.7,38l-4.9,2.7l-4.7-8.5l4.9-2.7L10.3,28c-2.5-4.5-3.8-10.2-2.1-15.1
		c1.4-4.3,4.9-7.5,8.3-9.4C19,2.1,21.2,1.4,23,0.9l4.4,9.2c-1.2,0.2-2.5,0.7-4,1.5c-3.8,2.1-3.8,5.9-1.8,9.6l1,1.9l7.5-4.1l4.7,8.5
		l-7.4,4l7.2,13.2L19.4,44.8z"/>
	<g id="XMLID_112_">
		<g id="XMLID_128_">
			<path id="XMLID_129_" class="st3" d="M155.9,24.1c-1.1,0-1.9,0.4-2.7,0.7v8.4c0.8,0.1,1.2,0.1,2,0.1c2.7,0,3-1.2,3-2.9v-4
				C158.2,25.1,157.8,24.1,155.9,24.1 M138.3,23.6c-1.8,0-2.3,1-2.3,2.3v0.7h4.5v-0.7C140.5,24.7,140.1,23.6,138.3,23.6 M104,32.3
				c0,1,0.5,1.5,1.5,1.5c1.1,0,1.8-0.4,2.6-0.7v-2h-2.4C104.5,31.1,104,31.4,104,32.3 M173.1,24.1c-1.9,0-2.5,1-2.5,2.3v4.6
				c0,1.3,0.6,2.3,2.5,2.3c1.8,0,2.5-1,2.5-2.3v-4.6C175.6,25.1,175,24.1,173.1,24.1 M95,37.5h-5.4V24.3h-2.7v-4.5h2.7v-2.7
				c0-3.7,1.5-5.9,5.9-5.9h3.6v4.5h-2.3c-1.7,0-1.8,0.6-1.8,1.8l0,2.3h4.1l-0.5,4.5H95V37.5z M113.5,37.5H109l-0.2-1.1
				c-2.1,1.1-3.9,1.3-5.1,1.3c-3.3,0-5.1-2.2-5.1-5.3c0-3.6,2.1-4.9,5.8-4.9h3.8v-0.8c0-1.8-0.2-2.4-3.1-2.4h-4.6l0.5-4.5h5.1
				c6.2,0,7.6,2,7.6,7V37.5z M128.9,24.7c-2.8-0.5-3.6-0.6-5-0.6c-2.4,0-3.2,0.5-3.2,2.6v3.9c0,2.1,0.7,2.6,3.2,2.6
				c1.4,0,2.2-0.1,5-0.6V37c-2.5,0.6-4.1,0.7-5.4,0.7c-5.8,0-8.2-3.1-8.2-7.5v-3.2c0-4.4,2.3-7.5,8.2-7.5c1.4,0,3,0.1,5.4,0.7V24.7z
				 M146,30.2h-10v0.4c0,2.1,0.7,2.6,3.2,2.6c2.2,0,3.5-0.1,6.3-0.6V37c-2.7,0.6-4.1,0.7-6.8,0.7c-5.8,0-8.2-3.1-8.2-7.5v-3.6
				c0-3.9,1.7-7,7.7-7c6,0,7.7,3.1,7.7,7V30.2z M163.6,30.3c0,4.3-1.2,7.4-8.6,7.4c-2.7,0-4.2-0.2-7.2-0.7V12.6l5.4-0.9v8.6
				c1.2-0.4,2.7-0.7,4.1-0.7c5.4,0,6.3,2.4,6.3,6.3V30.3z M181,30.4c0,3.7-1.5,7.3-7.9,7.3c-6.4,0-7.9-3.6-7.9-7.3v-3.6
				c0-3.7,1.6-7.3,7.9-7.3c6.4,0,7.9,3.6,7.9,7.3V30.4z M198.4,30.4c0,3.7-1.5,7.3-7.9,7.3c-6.4,0-7.9-3.6-7.9-7.3v-3.6
				c0-3.7,1.6-7.3,7.9-7.3c6.4,0,7.9,3.6,7.9,7.3V30.4z M216.3,37.5h-5.9l-5-8.3v8.3H200V12.6l5.4-0.9v16l5-7.9h5.9l-5.4,8.6
				L216.3,37.5z M190.5,24.1c-1.8,0-2.5,1-2.5,2.3v4.6c0,1.3,0.6,2.3,2.5,2.3c1.8,0,2.5-1,2.5-2.3v-4.6
				C193,25.1,192.4,24.1,190.5,24.1"/>
		</g>
		<g id="XMLID_113_">
			<path id="XMLID_114_" class="st4" d="M154.6,22.8c-1.1,0-1.9,0.4-2.7,0.7v8.4c0.8,0.1,1.2,0.1,2,0.1c2.7,0,3-1.2,3-2.9v-4
				C156.9,23.8,156.5,22.8,154.6,22.8 M137,22.4c-1.8,0-2.3,1-2.3,2.3v0.7h4.5v-0.7C139.2,23.4,138.8,22.4,137,22.4 M102.7,31.1
				c0,1,0.5,1.5,1.5,1.5c1.1,0,1.8-0.4,2.6-0.7v-2h-2.4C103.3,29.9,102.7,30.1,102.7,31.1 M171.8,22.8c-1.9,0-2.5,1-2.5,2.3v4.6
				c0,1.3,0.6,2.3,2.5,2.3c1.8,0,2.5-1,2.5-2.3v-4.6C174.3,23.8,173.7,22.8,171.8,22.8 M93.7,36.2h-5.4V23.1h-2.7v-4.5h2.7v-2.7
				c0-3.7,1.5-5.9,5.9-5.9h3.6v4.5h-2.3c-1.7,0-1.8,0.6-1.8,1.8l0,2.3h4.1l-0.5,4.5h-3.6V36.2z M112.3,36.2h-4.5l-0.2-1.1
				c-2.1,1.1-3.9,1.3-5.1,1.3c-3.3,0-5.1-2.2-5.1-5.3c0-3.6,2.1-4.9,5.8-4.9h3.8v-0.8c0-1.8-0.2-2.4-3.1-2.4h-4.6l0.5-4.5h5.1
				c6.2,0,7.6,2,7.6,7V36.2z M127.7,23.4c-2.8-0.5-3.6-0.6-5-0.6c-2.4,0-3.2,0.5-3.2,2.6v3.9c0,2.1,0.7,2.6,3.2,2.6
				c1.4,0,2.2-0.1,5-0.6v4.4c-2.5,0.6-4.1,0.7-5.4,0.7c-5.8,0-8.2-3.1-8.2-7.5v-3.2c0-4.4,2.3-7.5,8.2-7.5c1.4,0,3,0.1,5.4,0.7V23.4
				z M144.7,28.9h-10v0.4c0,2.1,0.7,2.6,3.2,2.6c2.2,0,3.5-0.1,6.3-0.6v4.4c-2.7,0.6-4.1,0.7-6.8,0.7c-5.8,0-8.2-3.1-8.2-7.5v-3.6
				c0-3.9,1.7-7,7.7-7c6,0,7.7,3.1,7.7,7V28.9z M162.3,29c0,4.3-1.2,7.4-8.6,7.4c-2.7,0-4.2-0.2-7.2-0.7V11.3l5.4-0.9v8.6
				c1.2-0.4,2.7-0.7,4.1-0.7c5.4,0,6.3,2.4,6.3,6.3V29z M179.7,29.1c0,3.7-1.5,7.3-7.9,7.3c-6.4,0-7.9-3.6-7.9-7.3v-3.6
				c0-3.7,1.6-7.3,7.9-7.3c6.4,0,7.9,3.6,7.9,7.3V29.1z M197.1,29.1c0,3.7-1.5,7.3-7.9,7.3c-6.4,0-7.9-3.6-7.9-7.3v-3.6
				c0-3.7,1.6-7.3,7.9-7.3c6.4,0,7.9,3.6,7.9,7.3V29.1z M215,36.2h-5.9l-5-8.3v8.3h-5.4V11.3l5.4-0.9v16l5-7.9h5.9l-5.4,8.6
				L215,36.2z M189.2,22.8c-1.8,0-2.5,1-2.5,2.3v4.6c0,1.3,0.6,2.3,2.5,2.3c1.8,0,2.5-1,2.5-2.3v-4.6
				C191.7,23.8,191.1,22.8,189.2,22.8"/>
		</g>
	</g>
</g>
</svg>
