<?xml version="1.0" encoding="utf-8"?>
<!-- Generator: Adobe Illustrator 19.0.0, SVG Export Plug-In . SVG Version: 6.00 Build 0)  -->
<svg version="1.1" id="Layer_1" xmlns="http://www.w3.org/2000/svg" xmlns:xlink="http://www.w3.org/1999/xlink" x="0px" y="0px"
	 viewBox="0 0 266.3 56.2" style="enable-background:new 0 0 266.3 56.2;" xml:space="preserve">
<style type="text/css">
	.st0{opacity:0.7;fill:url(#XMLID_71_);}
	.st1{fill:#BC3626;}
	.st2{opacity:0.7;fill:#D05B4F;}
	.st3{fill:#961B1E;}
	.st4{fill:#FFFFFF;}
</style>
<g id="XMLID_30350_">
	<g id="XMLID_30531_">
		
			<linearGradient id="XMLID_71_" gradientUnits="userSpaceOnUse" x1="-164.2172" y1="246.8186" x2="-157.2297" y2="246.8186" gradientTransform="matrix(0 -1 1 0 -113.4549 -114.2602)">
			<stop  offset="0" style="stop-color:#FFFFFF;stop-opacity:0"/>
			<stop  offset="1" style="stop-color:#000000"/>
		</linearGradient>
		<rect id="XMLID_12_" x="0.4" y="43" class="st0" width="265.9" height="7"/>
	</g>
	<rect id="XMLID_30528_" class="st1" width="266.3" height="44.8"/>
	<path id="XMLID_30527_" class="st2" d="M0,0v19.5c0,0,79,8.1,125.6,8.1c43.9,0,140.7-8.1,140.7-8.1V0H0z"/>
	<g id="XMLID_30522_">
		<path id="XMLID_30523_" class="st3" d="M16.2,22.1c-1.8-0.2-3.4-0.9-4.6-2c-1.3-1.1-2.2-2.4-2.8-4.1c-0.9-2.5-0.6-5,0.6-7.4
			c1.3-2.5,3.4-4.2,6.3-5.2c2.4-0.8,4.7-0.9,6.9-0.4L28,1.2c0.8-0.3,1.3-0.4,1.4-0.4c0.1,0,0.3,0,0.4,0.1c0.2,0.1,0.3,0.4,0.5,0.8
			c0.2,0.5,0.2,0.8,0.2,1c0,0.1-0.1,0.2-0.2,0.3c-0.1,0.1-0.6,0.3-1.4,0.6l-3.3,1.1c1.5,1,2.6,2.5,3.3,4.6c0.8,2.4,0.6,4.7-0.7,7
			c-1.2,2.3-3.4,4-6.4,5c-1.3,0.4-2.6,0.7-4,0.8c-0.6,1-0.9,1.8-1,2.4c-0.1,0.6-0.1,1.1,0,1.5c0.1,0.3,0.4,0.6,0.8,0.8
			c0.4,0.2,1.1,0.2,2,0c0.5-0.1,1.9-0.5,3.9-1.1c3.8-1.2,6.3-1.9,7.5-2.1c1.8-0.3,3.4-0.2,4.8,0.5c1.4,0.7,2.3,1.8,2.8,3.3
			c0.7,2.1,0.4,4.4-0.9,6.9c-2,3.7-5.3,6.3-9.9,7.9c-3.6,1.2-6.8,1.4-9.8,0.7c-1.7-0.5-2.7-1.2-3.1-2.2c-0.2-0.4-0.2-0.9-0.1-1.4
			c0.1-0.8,0.4-2,1-3.5c0.1-0.2,0.7-1.5,1.8-3.9c-1.2-0.2-2-0.5-2.6-0.8c-0.6-0.3-0.9-0.8-1.1-1.3c-0.2-0.6-0.2-1.5,0-2.5
			C14,26,14.8,24.3,16.2,22.1z M15.7,4.9c-1.4,0.5-2.3,1.4-2.9,2.8c-0.6,1.4-0.4,3.2,0.3,5.5c1,2.9,2.4,5,4.2,6.1
			c1.4,0.9,2.8,1.1,4.3,0.6c1.4-0.5,2.4-1.4,2.9-2.8c0.5-1.4,0.4-3.2-0.3-5.4c-1-2.9-2.4-5-4.3-6.2C18.6,4.6,17.2,4.4,15.7,4.9z
			 M19,31.4c-0.5,1.2-0.9,2.3-1.1,3.3c-0.2,1-0.1,1.8,0.1,2.5c0.3,0.9,1.1,1.5,2.4,1.8c2.2,0.5,5.1,0.2,8.6-1
			c3.3-1.1,5.6-2.5,6.8-4.3c1.2-1.7,1.5-3.2,1.1-4.6c-0.3-1-1-1.5-2.1-1.6c-1.1-0.1-3.1,0.3-5.9,1.2C24.6,30.1,21.4,31,19,31.4z"/>
	</g>
	<g id="XMLID_30517_">
		<path id="XMLID_30518_" class="st4" d="M14.6,21.4c-1.8-0.2-3.4-0.9-4.6-2c-1.3-1.1-2.2-2.4-2.8-4.1c-0.9-2.5-0.6-5,0.6-7.4
			s3.4-4.2,6.3-5.2c2.4-0.8,4.7-0.9,6.9-0.4l5.4-1.8c0.8-0.3,1.3-0.4,1.4-0.4s0.3,0,0.4,0.1c0.2,0.1,0.3,0.4,0.5,0.8
			c0.2,0.5,0.2,0.8,0.2,1c0,0.1-0.1,0.2-0.2,0.3C28.5,2.6,28,2.8,27.2,3l-3.3,1.1c1.5,1,2.6,2.5,3.3,4.6c0.8,2.4,0.6,4.7-0.7,7
			c-1.2,2.3-3.4,4-6.4,5c-1.3,0.4-2.6,0.7-4,0.8c-0.6,1-0.9,1.8-1,2.4s-0.1,1.1,0,1.5c0.1,0.3,0.4,0.6,0.8,0.8c0.4,0.2,1.1,0.2,2,0
			c0.5-0.1,1.9-0.5,3.9-1.1c3.8-1.2,6.3-1.9,7.5-2.1c1.8-0.3,3.4-0.2,4.8,0.5s2.3,1.8,2.8,3.3c0.7,2.1,0.4,4.4-0.9,6.9
			c-2,3.7-5.3,6.3-9.9,7.9c-3.6,1.2-6.8,1.4-9.8,0.7c-1.7-0.5-2.7-1.2-3.1-2.2C13,39.5,13,39,13,38.5c0.1-0.8,0.4-2,1-3.5
			c0.1-0.2,0.7-1.5,1.8-3.9c-1.2-0.2-2-0.5-2.6-0.8s-0.9-0.8-1.1-1.3c-0.2-0.6-0.2-1.5,0-2.5S13.2,23.6,14.6,21.4z M17.4,30.7
			c-0.5,1.2-0.9,2.3-1.1,3.3c-0.2,1-0.1,1.8,0.1,2.5c0.3,0.9,1.1,1.5,2.4,1.8c2.2,0.5,5.1,0.2,8.6-1c3.3-1.1,5.6-2.5,6.8-4.3
			c1.2-1.7,1.5-3.2,1.1-4.6c-0.3-1-1-1.5-2.1-1.6c-1.1-0.1-3.1,0.3-5.9,1.2C23,29.4,19.8,30.3,17.4,30.7z M14.1,4.2
			c-1.4,0.5-2.3,1.4-2.9,2.8s-0.4,3.2,0.3,5.5c1,2.9,2.4,5,4.2,6.1c1.4,0.9,2.8,1.1,4.3,0.6c1.4-0.5,2.4-1.4,2.9-2.8
			s0.4-3.2-0.3-5.4c-1-2.9-2.4-5-4.3-6.2C17,3.9,15.6,3.7,14.1,4.2z"/>
	</g>
	<g id="XMLID_30351_">
		<g id="XMLID_30497_">
			<path id="XMLID_30515_" class="st3" d="M117.7,21.6c-2.1,0.3-2.2,0.5-2.2,2.6v2.9c0,1.2,0,2.3,0.2,3.2c-2.2,0.5-5.3,1.3-8.2,1.3
				c-8,0-13.4-4.7-13.4-11.6c0-7.9,6.7-11.9,13.9-11.9c3.1,0,5.9,0.8,7.1,1c0.1,1.2,0.3,3.1,0.5,5.6l-1,0.2
				c-0.9-4.3-3.6-5.6-7.2-5.6c-5.4,0-9.4,3.9-9.4,10.2c0,5,3,10.8,9.9,10.8c1.2,0,2.3-0.2,3-0.6c0.8-0.4,1.2-0.9,1.2-2.2v-2.8
				c0-2.6-0.2-2.8-3.8-3.1v-1h9.3V21.6z"/>
			<path id="XMLID_30512_" class="st3" d="M128.1,15.6c4.5,0,7.8,3.5,7.8,7.7c0,5.6-4.3,8.2-7.8,8.2c-5,0-8-3.8-8-7.6
				C120.1,18.3,124.7,15.6,128.1,15.6L128.1,15.6z M127.6,16.8c-2,0-3.9,2.1-3.9,6c0,4.4,1.9,7.6,4.7,7.6c2,0,3.9-1.4,3.9-6.2
				C132.3,20,130.6,16.8,127.6,16.8L127.6,16.8z"/>
			<path id="XMLID_30509_" class="st3" d="M146.7,15.6c4.5,0,7.8,3.5,7.8,7.7c0,5.6-4.3,8.2-7.8,8.2c-5,0-8-3.8-8-7.6
				C138.7,18.3,143.4,15.6,146.7,15.6L146.7,15.6z M146.3,16.8c-2,0-3.9,2.1-3.9,6c0,4.4,1.9,7.6,4.7,7.6c2,0,3.9-1.4,3.9-6.2
				C150.9,20,149.3,16.8,146.3,16.8L146.3,16.8z"/>
			<path id="XMLID_30505_" class="st3" d="M172.5,16.3c-0.3,0.5-1,1.5-1.6,1.8l-2-0.1c0.6,0.7,1,1.8,1,3c0,3.7-3.2,5.5-6.3,5.5
				c-0.7,0-1.3-0.1-1.8-0.2c-0.4,0.3-0.9,0.9-0.9,1.3c0,0.7,0.6,1.3,2.2,1.3c1.2,0,2.4-0.1,3.6-0.1c2.1,0,5.1,0.7,5.1,4.1
				c0,3.6-4.2,6.9-8.9,6.9c-4,0-6.1-2.3-6.2-4.2c0-0.8,0.4-1.5,0.9-2c0.8-0.7,2-1.6,2.8-2.3c-1.3-0.4-2.2-1.1-2.6-1.9
				c-0.3-0.5-0.5-1.2-0.4-1.5c1.4-0.5,2.6-1.4,3.1-2.1c-1.7-0.7-3.1-2.3-3.1-4.6c0-4,3.6-5.7,6.4-5.7h0c1.2,0,2.3,0.3,3.4,0.9
				c1.8-0.1,3.6-0.3,4.9-0.5L172.5,16.3z M164.3,31.6c-1.6,0-2.4,0.2-3,0.7c-0.9,0.7-1.5,1.6-1.5,2.6c0,1.8,1.9,3.4,4.7,3.4
				c3.2,0,4.9-1.7,4.9-3.8c0-1.2-0.6-2.1-1.6-2.5C166.7,31.7,165.7,31.6,164.3,31.6L164.3,31.6z M163.6,16.7c-1.4,0-2.8,1.4-2.8,4.1
				c0,2.7,1.3,4.6,3.2,4.6c1.5,0,2.8-1.4,2.8-4.1C166.8,18.7,165.6,16.7,163.6,16.7L163.6,16.7z"/>
			<path id="XMLID_30503_" class="st3" d="M173.2,31.1v-0.9c2.2-0.3,2.5-0.4,2.5-2.8V11.2c0-2.3-0.2-2.4-2.4-2.6V7.8
				c1.9-0.2,4.2-0.8,5.4-1.2v20.9c0,2.3,0.3,2.6,2.6,2.8v0.9H173.2z"/>
			<path id="XMLID_30500_" class="st3" d="M195.9,28c-2.3,2.9-4.8,3.5-5.9,3.5c-4.3,0-6.9-3.5-6.9-7.3c0-2.3,0.8-4.4,2.2-5.9
				c1.5-1.7,3.4-2.6,5.3-2.6h0c3,0,5.4,2.6,5.4,5.3c0,0.7-0.2,1-0.8,1.1c-0.6,0.1-5,0.4-9.1,0.6c0.1,4.5,2.7,6.4,5.1,6.4
				c1.4,0,2.8-0.5,4.1-1.7L195.9,28z M189.8,16.9c-1.5,0-3,1.3-3.5,4.2c1.9,0,3.7,0,5.7-0.1c0.6,0,0.8-0.2,0.8-0.7
				C192.8,18.6,191.6,16.9,189.8,16.9L189.8,16.9z"/>
			<path id="XMLID_30498_" class="st3" d="M207.9,23.3v7.8h-2.1v-7.8h-7.2v-1.8h7.2v-7.1h2.1v7.1h7.2v1.8H207.9z"/>
		</g>
		<g id="XMLID_30352_">
			<path id="XMLID_30494_" class="st4" d="M117.3,20.7c-2.1,0.3-2.2,0.5-2.2,2.6v2.9c0,1.2,0,2.3,0.2,3.2c-2.2,0.5-5.3,1.3-8.2,1.3
				c-8,0-13.4-4.7-13.4-11.6c0-7.9,6.7-11.9,13.9-11.9c3.1,0,5.9,0.8,7.1,1c0.1,1.2,0.3,3.1,0.5,5.6l-1,0.2
				c-0.9-4.3-3.6-5.6-7.2-5.6c-5.4,0-9.4,3.9-9.4,10.2c0,5,3,10.8,9.9,10.8c1.2,0,2.3-0.2,3-0.6c0.8-0.4,1.2-0.9,1.2-2.2v-2.8
				c0-2.6-0.2-2.8-3.8-3.1v-1h9.3V20.7z"/>
			<path id="XMLID_30491_" class="st4" d="M127.6,14.7c4.5,0,7.8,3.5,7.8,7.7c0,5.6-4.3,8.2-7.8,8.2c-5,0-8-3.8-8-7.6
				C119.6,17.3,124.3,14.7,127.6,14.7L127.6,14.7z M127.2,15.8c-2,0-3.9,2.1-3.9,6c0,4.4,1.9,7.6,4.7,7.6c2,0,3.9-1.4,3.9-6.2
				C131.8,19,130.2,15.8,127.2,15.8L127.2,15.8z"/>
			<path id="XMLID_30488_" class="st4" d="M146.2,14.7c4.5,0,7.8,3.5,7.8,7.7c0,5.6-4.3,8.2-7.8,8.2c-5,0-8-3.8-8-7.6
				C138.3,17.3,142.9,14.7,146.2,14.7L146.2,14.7z M145.8,15.8c-2,0-3.9,2.1-3.9,6c0,4.4,1.9,7.6,4.7,7.6c2,0,3.9-1.4,3.9-6.2
				C150.4,19,148.8,15.8,145.8,15.8L145.8,15.8z"/>
			<path id="XMLID_30484_" class="st4" d="M172,15.4c-0.3,0.5-1,1.5-1.6,1.8l-2-0.1c0.6,0.7,1,1.8,1,3c0,3.7-3.2,5.5-6.3,5.5
				c-0.7,0-1.3-0.1-1.8-0.2c-0.4,0.3-0.9,0.9-0.9,1.3c0,0.7,0.6,1.3,2.2,1.3c1.2,0,2.4-0.1,3.6-0.1c2.1,0,5.1,0.7,5.1,4.1
				c0,3.6-4.2,6.9-8.9,6.9c-4,0-6.1-2.3-6.2-4.2c0-0.8,0.4-1.5,0.9-2c0.8-0.7,2-1.6,2.8-2.3c-1.3-0.4-2.2-1.1-2.6-1.9
				c-0.3-0.5-0.5-1.2-0.4-1.5c1.4-0.5,2.6-1.4,3.1-2.1c-1.7-0.7-3.1-2.3-3.1-4.6c0-4,3.6-5.7,6.4-5.7h0c1.2,0,2.3,0.3,3.4,0.9
				c1.8-0.1,3.6-0.3,4.9-0.5L172,15.4z M163.8,30.7c-1.6,0-2.4,0.2-3,0.7c-0.9,0.7-1.5,1.6-1.5,2.6c0,1.8,1.9,3.4,4.7,3.4
				c3.2,0,4.9-1.7,4.9-3.8c0-1.2-0.6-2.1-1.6-2.5C166.3,30.8,165.3,30.7,163.8,30.7L163.8,30.7z M163.2,15.8c-1.4,0-2.8,1.4-2.8,4.1
				c0,2.7,1.3,4.6,3.2,4.6c1.5,0,2.8-1.4,2.8-4.1C166.3,17.7,165.1,15.8,163.2,15.8L163.2,15.8z"/>
			<path id="XMLID_30481_" class="st4" d="M172.7,30.2v-0.9c2.2-0.3,2.5-0.4,2.5-2.8V10.3c0-2.3-0.2-2.4-2.4-2.6V6.8
				c1.9-0.2,4.2-0.8,5.4-1.2v20.9c0,2.3,0.3,2.6,2.6,2.8v0.9H172.7z"/>
			<path id="XMLID_30478_" class="st4" d="M195.4,27.1c-2.3,2.9-4.8,3.5-5.9,3.5c-4.3,0-6.9-3.5-6.9-7.3c0-2.3,0.8-4.4,2.2-5.9
				c1.5-1.7,3.4-2.6,5.3-2.6h0c3,0,5.4,2.6,5.4,5.3c0,0.7-0.2,1-0.8,1.1c-0.6,0.1-5,0.4-9.1,0.6c0.1,4.5,2.7,6.4,5.1,6.4
				c1.4,0,2.8-0.5,4.1-1.7L195.4,27.1z M189.3,16c-1.5,0-3,1.3-3.5,4.2c1.9,0,3.7,0,5.7-0.1c0.6,0,0.8-0.2,0.8-0.7
				C192.3,17.7,191.2,16,189.3,16L189.3,16z"/>
			<path id="XMLID_30353_" class="st4" d="M207.5,22.3v7.8h-2.1v-7.8h-7.2v-1.8h7.2v-7.1h2.1v7.1h7.2v1.8H207.5z"/>
		</g>
	</g>
</g>
</svg>
