<svg xmlns="http://www.w3.org/2000/svg" width="554.615" height="255.275" viewBox="0 0 554.615 255.275"><path fill="#1D1D1B" d="M30.324 165.012L9.756 52.27l20.07-3.662 9.134 50.066L70.374 41.21l26.986-4.922-29.418 50.741 52.02 61.633-25.969 4.735-36.978-47.925-12.836 21.81 6.214 34.07-20.069 3.66z" opacity=".1"/><path fill="#FFF" d="M25.188 160.905L4.62 48.162 24.691 44.5l9.134 50.066 31.413-57.464 26.986-4.922-29.417 50.741 52.02 61.633-25.97 4.735-36.978-47.925-12.836 21.81 6.214 34.07-20.069 3.661z"/><path fill="#1D1D1B" d="M139.088 108.768l19.422 10.748c-5.325 6.632-11.548 10.918-18.668 12.855-7.123 1.936-14.983 1.386-23.584-1.648-13.613-4.802-22.121-12.803-25.52-24.005-2.646-8.945-2.054-18.851 1.778-29.712 4.577-12.976 11.551-21.941 20.926-26.896 9.376-4.956 19.248-5.605 29.618-1.948 11.648 4.11 19.482 11.198 23.504 21.264 4.018 10.069 3.081 22.988-2.812 38.758l-51.901-18.307c-2.02 6.196-2.036 11.564-.045 16.107 1.988 4.543 5.367 7.657 10.135 9.337 3.244 1.143 6.284 1.221 9.121.232 2.833-.989 5.509-3.25 8.026-6.785zm8.567-20.52c1.967-6.047 2.026-11.153.179-15.313-1.849-4.161-4.885-6.988-9.113-8.479-4.522-1.595-8.838-1.266-12.948.987-4.11 2.253-7.139 6.215-9.082 11.884l30.964 10.921z" opacity=".1"/><path fill="#FFF" d="M133.954 104.66l19.421 10.748c-5.325 6.632-11.549 10.918-18.669 12.855-7.121 1.936-14.982 1.387-23.584-1.647-13.613-4.803-22.12-12.804-25.519-24.006-2.646-8.945-2.054-18.851 1.777-29.712 4.577-12.976 11.553-21.941 20.927-26.896 9.375-4.956 19.247-5.605 29.618-1.948 11.648 4.11 19.481 11.198 23.503 21.264 4.018 10.068 3.083 22.988-2.811 38.758l-51.902-18.307c-2.019 6.195-2.035 11.564-.044 16.106 1.989 4.544 5.367 7.657 10.136 9.337 3.244 1.143 6.283 1.221 9.12.232 2.833-.988 5.508-3.25 8.027-6.784zm8.565-20.52c1.967-6.046 2.028-11.152.179-15.313s-4.885-6.988-9.112-8.479c-4.522-1.595-8.839-1.265-12.948.987-4.11 2.253-7.139 6.214-9.082 11.884l30.963 10.921z"/><path fill="#1D1D1B" d="M226.364 47.167l-4.46 20.709-17.749-3.824-8.521 39.568c-1.725 8.013-2.563 12.718-2.507 14.115.051 1.399.587 2.66 1.603 3.779 1.015 1.123 2.385 1.869 4.113 2.241 2.403.519 6.063.435 10.983-.245l-2.121 20.629c-6.599 1.288-13.718 1.11-21.359-.537-4.686-1.007-8.738-2.703-12.159-5.084-3.42-2.382-5.74-5.01-6.959-7.883-1.22-2.875-1.711-6.511-1.473-10.911.095-3.138 1.133-9.298 3.11-18.483l9.217-42.803-11.925-2.568 4.46-20.708 11.925 2.569 4.2-19.507 29.336-9.548-7.466 34.669 17.752 3.822z" opacity=".1"/><path fill="#FFF" d="M221.229 43.06l-4.46 20.709-17.75-3.825-8.52 39.569c-1.726 8.012-2.564 12.717-2.508 14.114.052 1.399.588 2.66 1.603 3.779 1.016 1.123 2.387 1.871 4.113 2.241 2.403.519 6.063.435 10.984-.245l-2.121 20.629c-6.599 1.288-13.719 1.11-21.359-.536-4.685-1.008-8.738-2.704-12.158-5.085-3.421-2.382-5.741-5.01-6.96-7.884-1.219-2.875-1.711-6.511-1.472-10.911.095-3.138 1.133-9.298 3.11-18.482l9.217-42.803-11.925-2.568 4.46-20.708 11.924 2.569 4.2-19.507 29.335-9.548-7.466 34.669 17.753 3.823z"/><path fill="#1D1D1B" d="M303.349 184.244h-22.432l-8.917-23.2h-40.823l-8.429 23.2h-21.875l39.779-102.129h21.806l40.891 102.129zm-37.966-40.407l-14.071-37.895-13.794 37.895h27.865z" opacity=".1"/><path fill="#FFF" d="M298.214 180.136h-22.431l-8.918-23.2h-40.823l-8.429 23.2h-21.875l39.779-102.129h21.805l40.892 102.129zm-37.966-40.407l-14.071-37.896-13.794 37.896h27.865z"/><path fill="#1D1D1B" d="M363.218 193.816V91.689h29.164c11.051 0 18.255.512 21.611 1.532 5.158 1.533 9.476 4.867 12.956 9.997 3.478 5.134 5.219 11.763 5.219 19.89 0 6.27-1.004 11.542-3.009 15.814-2.005 4.273-4.555 7.627-7.645 10.065-3.089 2.44-6.231 4.053-9.423 4.842-4.34.976-10.621 1.463-18.849 1.463h-11.848v38.524h-18.176zm18.175-84.85v28.981h9.946c7.16 0 11.951-.535 14.366-1.601 2.414-1.068 4.308-2.741 5.679-5.016 1.371-2.275 2.056-4.923 2.056-7.945 0-3.712-.962-6.776-2.885-9.195-1.924-2.414-4.358-3.924-7.305-4.527-2.172-.462-6.529-.696-13.077-.696h-8.78z" opacity=".1"/><path fill="#FFF" d="M358.083 189.708V87.581h29.164c11.051 0 18.255.512 21.612 1.532 5.158 1.533 9.475 4.867 12.955 9.997 3.478 5.134 5.219 11.763 5.219 19.889 0 6.271-1.004 11.542-3.009 15.814-2.005 4.273-4.555 7.627-7.645 10.065-3.09 2.44-6.232 4.053-9.424 4.842-4.34.976-10.621 1.464-18.849 1.464h-11.848v38.524h-18.175zm18.176-84.85v28.98h9.946c7.16 0 11.95-.535 14.365-1.601 2.415-1.068 4.307-2.741 5.679-5.016 1.371-2.275 2.056-4.923 2.056-7.943 0-3.713-.962-6.778-2.885-9.196-1.924-2.415-4.358-3.924-7.305-4.528-2.172-.463-6.528-.696-13.077-.696h-8.779z"/><path fill="#1D1D1B" d="M296.241 165.52V63.394h27.517c10.429 0 17.223.511 20.391 1.533 4.865 1.531 8.939 4.865 12.222 9.996 3.284 5.133 4.925 11.762 4.925 19.889 0 6.27-.947 11.541-2.839 15.814s-4.296 7.628-7.213 10.068c-2.916 2.436-5.879 4.051-8.891 4.84-4.094.977-10.022 1.465-17.786 1.465h-11.179v38.521h-17.147zm17.148-84.848v28.98h9.383c6.757 0 11.275-.533 13.556-1.602 2.277-1.067 4.063-2.74 5.357-5.016 1.294-2.274 1.941-4.923 1.941-7.941 0-3.713-.907-6.78-2.722-9.196-1.816-2.415-4.113-3.924-6.894-4.528-2.047-.464-6.16-.696-12.339-.696h-8.282z" opacity=".1"/><path fill="#FFF" d="M291.106 161.412V59.286h27.517c10.429 0 17.223.511 20.391 1.533 4.866 1.531 8.939 4.865 12.222 9.997 3.283 5.133 4.925 11.762 4.925 19.888 0 6.271-.948 11.541-2.839 15.814-1.893 4.272-4.297 7.628-7.212 10.067-2.917 2.437-5.88 4.051-8.892 4.84-4.095.977-10.023 1.465-17.786 1.465h-11.179v38.521h-17.147zm17.148-84.848v28.98h9.383c6.756 0 11.275-.533 13.556-1.602 2.277-1.067 4.063-2.739 5.357-5.015 1.293-2.275 1.941-4.924 1.941-7.942 0-3.714-.908-6.78-2.722-9.196-1.817-2.415-4.113-3.924-6.894-4.527-2.047-.464-6.16-.696-12.34-.696h-8.281z"/><path opacity=".1" fill="#1D1D1B" d="M438.509 67.932h-21.305l33.572 85.539-14.203 32.602h30.664l8.393-23.887 4.197-5.487s-.642-5.992-.969-8.089c-.41-2.625-1.614-10.634-1.614-10.634s-4.03.446-6.133-.968c-2.68-1.802-6.777-10.007-6.777-10.007l-25.825-59.069zm99.419 16.463h12.912l-57.134 59.096s-.768-4.795-1.352-6.006c-.706-1.459-3.812-4.672-3.812-4.672l49.386-48.418zm-63.911 31.149s6.267 24.931 7.908 33.066c2.697 13.386 8.231 53.118 8.231 53.118l1.453-30.826 8.714 18.236s-3.712-31.794-10.844-46.486c-5.62-14.518-15.462-27.108-15.462-27.108zm73.594-51.808l3.229 4.196-65.367 62.137-3.227-5.327zm-72.466 50.208l56.329-53.113h2.419l-56.973 53.113.808 1.6 58.747-54.713h1.938l-59.716 56.004 1.129 1.775 60.2-56.004 1.292.162-60.201 56.971 1.129 1.131 62.459-58.424 1.131 1.29-63.59 59.878z"/><path opacity=".1" fill="#1D1D1B" d="M449.485 42.593l-1.937-.162s10.835 27.637 13.857 37.054c2.66 8.293 8.396 31.021 8.396 31.021l-26.125-69.204h-2.261l26.463 68.137-29.852-68.137h-1.614l35.991 82.312s-3.629-5.989-4.682-8.069c-1.231-2.436-4.357-10.008-4.357-10.008l-29.051-64.235-3.389 1.291 35.99 81.021s2.321 5.218 3.712 6.456c1.15 1.021 5.649 2.42 5.649 2.42s-9.147-40.685-13.395-53.905c-2.975-9.261-13.395-35.992-13.395-35.992zm21.464 0s6.618 22.758 6.939 34.377c.646 16.785-3.872 36.476-3.872 36.476s.144-2.431 2.241-3.559c.839-1.848 3.225-24.258 2.761-33.24-.438-8.533-7.101-34.054-7.101-34.054"/><path opacity=".1" fill="#1D1D1B" d="M502.536 49.435s-4.362 23.296-9.317 33.814c-6.996 15.268-19.912 30.804-19.912 30.804s1.227-2.104 3.608-2.165c1.582-1.27 13.82-20.194 17.46-28.418 3.455-7.815 9.024-33.598 9.024-33.598"/><path fill="#FFF" d="M433.374 63.825h-21.306l33.573 85.539-14.203 32.601h30.665l8.392-23.886 4.196-5.487s-.643-5.992-.969-8.089c-.409-2.625-1.615-10.634-1.615-10.634s-4.029.446-6.132-.968c-2.681-1.802-6.778-10.007-6.778-10.007l-25.823-59.069zm99.419 16.462h12.911l-57.133 59.097s-.768-4.796-1.352-6.007c-.706-1.459-3.812-4.672-3.812-4.672l49.386-48.418zm-63.912 31.149s6.269 24.931 7.908 33.066c2.698 13.386 8.232 53.118 8.232 53.118l1.453-30.826 8.715 18.237s-3.712-31.794-10.845-46.487c-5.619-14.518-15.463-27.108-15.463-27.108zm73.595-51.807l3.228 4.196-65.366 62.136-3.226-5.327zm-72.466 50.207l56.329-53.113h2.418l-56.971 53.113.806 1.6 58.748-54.713h1.938l-59.717 56.004 1.13 1.775 60.201-56.003 1.288.161-60.197 56.972 1.129 1.13 62.458-58.425 1.131 1.292-63.589 59.877zm-25.66-71.351l-1.937-.161s10.834 27.636 13.856 37.053c2.659 8.293 8.397 31.023 8.397 31.023L438.54 37.194h-2.26l26.462 68.138-29.852-68.138h-1.614l35.99 82.312s-3.628-5.989-4.681-8.07c-1.231-2.435-4.358-10.008-4.358-10.008l-29.05-64.235-3.39 1.291 35.991 81.021s2.321 5.218 3.712 6.455c1.15 1.021 5.649 2.42 5.649 2.42s-9.148-40.685-13.396-53.905c-2.972-9.258-13.393-35.99-13.393-35.99zm21.464 0s6.617 22.758 6.939 34.376c.647 16.785-3.873 36.476-3.873 36.476s.144-2.431 2.242-3.559c.839-1.847 3.224-24.258 2.761-33.24-.438-8.532-7.102-34.054-7.102-34.054"/><path fill="#FFF" d="M497.4 45.328s-4.362 23.295-9.316 33.813c-6.996 15.268-19.912 30.804-19.912 30.804s1.227-2.104 3.608-2.165c1.581-1.269 13.819-20.194 17.459-28.418 3.456-7.815 9.024-33.597 9.024-33.597"/><g fill-rule="evenodd" clip-rule="evenodd"><path fill="#1D1D1B" d="M402.249 50.279a9.921 9.921 0 0 1-3.952 3.96c-1.698.938-3.471 1.409-5.321 1.409-1.852 0-3.627-.471-5.322-1.409a9.96 9.96 0 0 1-3.963-3.96c-.944-1.699-1.416-3.472-1.416-5.313 0-1.861.48-3.648 1.438-5.363a9.843 9.843 0 0 1 4.002-3.952c1.711-.922 3.464-1.383 5.26-1.383 1.793 0 3.546.461 5.256 1.383a9.817 9.817 0 0 1 3.996 3.952c.954 1.715 1.432 3.502 1.432 5.363.001 1.841-.469 3.614-1.41 5.313zm-1.559-9.783a8.24 8.24 0 0 0-3.336-3.302c-1.426-.768-2.885-1.154-4.378-1.154-1.506 0-2.965.385-4.388 1.154a8.292 8.292 0 0 0-3.335 3.302c-.803 1.431-1.206 2.921-1.206 4.469 0 1.541.395 3.015 1.183 4.428a8.394 8.394 0 0 0 3.31 3.301c1.417.788 2.895 1.182 4.436 1.182 1.538 0 3.016-.395 4.435-1.182a8.355 8.355 0 0 0 3.302-3.301c.783-1.413 1.175-2.887 1.175-4.428 0-1.547-.399-3.038-1.198-4.469zm-4.249 7.233c.391 1.669.677 2.823.908 3.283h-1.598c-.196-.338-.461-1.366-.78-2.856-.356-1.65-1.011-2.271-2.414-2.324h-1.454v5.18h-1.545V39.234c.78-.161 1.916-.267 2.962-.267 1.651 0 2.733.319 3.476.994.588.513.941 1.329.941 2.27 0 1.56-1.01 2.607-2.252 3.032v.053c.908.32 1.455 1.173 1.756 2.413zm-1.063-5.339c0-1.543-1.118-2.218-2.749-2.218-.745 0-1.26.07-1.525.144v4.345h1.578c1.65.001 2.696-.905 2.696-2.271z" opacity=".1"/><path fill="#FFF" d="M400.195 48.225a9.928 9.928 0 0 1-3.952 3.96c-1.698.939-3.471 1.409-5.321 1.409-1.852 0-3.627-.47-5.322-1.409a9.965 9.965 0 0 1-3.962-3.96c-.945-1.699-1.416-3.472-1.416-5.313 0-1.862.479-3.647 1.438-5.363a9.85 9.85 0 0 1 4.002-3.952c1.711-.921 3.464-1.383 5.26-1.383 1.793 0 3.547.462 5.256 1.383a9.823 9.823 0 0 1 3.996 3.952c.954 1.716 1.433 3.502 1.433 5.363 0 1.841-.471 3.614-1.412 5.313zm-1.559-9.783a8.246 8.246 0 0 0-3.336-3.302c-1.426-.768-2.885-1.154-4.378-1.154-1.505 0-2.965.385-4.388 1.154a8.299 8.299 0 0 0-3.335 3.302c-.803 1.431-1.206 2.921-1.206 4.469 0 1.541.395 3.015 1.183 4.428a8.388 8.388 0 0 0 3.31 3.301c1.417.787 2.895 1.182 4.436 1.182 1.538 0 3.016-.395 4.435-1.182a8.348 8.348 0 0 0 3.302-3.301c.783-1.413 1.176-2.887 1.176-4.428-.001-1.547-.401-3.038-1.199-4.469zm-4.249 7.233c.392 1.669.676 2.822.908 3.283h-1.598c-.195-.338-.461-1.366-.78-2.856-.355-1.65-1.011-2.271-2.414-2.323h-1.454v5.178h-1.545V37.179c.78-.161 1.916-.267 2.962-.267 1.651 0 2.733.32 3.477.993.587.513.94 1.33.94 2.271 0 1.56-1.009 2.607-2.252 3.033v.052c.909.321 1.455 1.173 1.756 2.414zm-1.063-5.339c0-1.543-1.118-2.218-2.75-2.218-.745 0-1.26.071-1.525.144v4.346h1.578c1.651 0 2.697-.907 2.697-2.272z"/></g><path fill="#1D1D1B" d="M186.418 246.123h-3.31l-1.316-3.425h-6.024l-1.245 3.425h-3.228l5.87-15.072h3.218l6.035 15.072zm-5.602-5.965l-2.077-5.591-2.034 5.591h4.111z" opacity=".1"/><path fill="#FFF" d="M184.364 244.068h-3.31l-1.316-3.424h-6.024l-1.244 3.424h-3.228l5.869-15.071h3.218l6.035 15.071zm-5.603-5.964l-2.076-5.591-2.035 5.591h4.111z"/><path fill="#1D1D1B" d="M190.777 246.123h-2.889v-10.919h2.684v1.554c.458-.736.872-1.218 1.238-1.451a2.278 2.278 0 0 1 1.249-.351c.658 0 1.29.181 1.902.546l-.894 2.517c-.487-.315-.939-.471-1.358-.471-.405 0-.747.111-1.028.332-.282.223-.502.626-.663 1.208-.161.583-.242 1.804-.242 3.661v3.374z" opacity=".1"/><path fill="#FFF" d="M188.723 244.068h-2.888V233.15h2.683v1.554c.459-.736.872-1.218 1.238-1.451a2.278 2.278 0 0 1 1.249-.351c.658 0 1.29.181 1.901.545l-.894 2.517c-.487-.315-.939-.47-1.358-.47-.405 0-.747.111-1.028.332-.282.223-.502.626-.663 1.208-.16.583-.242 1.804-.242 3.661v3.373z"/><path fill="#1D1D1B" d="M198.364 238.535l-2.621-.473c.294-1.058.801-1.839 1.522-2.343.718-.51 1.788-.763 3.207-.763 1.288 0 2.249.154 2.879.458.63.306 1.074.694 1.331 1.16.257.469.386 1.332.386 2.586l-.031 3.374c0 .959.046 1.668.139 2.121.093.458.266.943.52 1.467h-2.858a10.322 10.322 0 0 1-.279-.854 5.08 5.08 0 0 0-.101-.34 5.236 5.236 0 0 1-1.584 1.08c-.562.24-1.16.36-1.799.36-1.124 0-2.01-.306-2.657-.916-.648-.608-.973-1.38-.973-2.312 0-.617.148-1.168.443-1.651a2.885 2.885 0 0 1 1.239-1.109c.53-.258 1.296-.482 2.297-.674 1.35-.252 2.285-.489 2.805-.711v-.287c0-.557-.137-.953-.411-1.187-.273-.237-.79-.357-1.552-.357-.513 0-.915.102-1.203.303-.288.207-.521.56-.699 1.068zm3.865 2.343c-.369.124-.954.271-1.757.444-.802.173-1.325.34-1.573.502-.377.268-.565.605-.565 1.018 0 .403.151.753.453 1.049.302.293.685.442 1.152.442.521 0 1.017-.172 1.491-.516a1.8 1.8 0 0 0 .689-.954c.076-.248.112-.715.112-1.41v-.575z" opacity=".1"/><path fill="#FFF" d="M196.311 236.481l-2.622-.473c.294-1.058.801-1.839 1.522-2.343.718-.51 1.788-.763 3.207-.763 1.288 0 2.249.154 2.879.458.63.305 1.074.693 1.331 1.16.257.469.386 1.332.386 2.585l-.031 3.374c0 .959.046 1.667.139 2.121.093.458.266.944.52 1.466h-2.858a10.218 10.218 0 0 1-.278-.853c-.047-.173-.084-.285-.102-.34a5.227 5.227 0 0 1-1.585 1.08c-.562.24-1.16.359-1.799.359-1.123 0-2.009-.305-2.656-.916-.648-.608-.973-1.378-.973-2.312 0-.617.148-1.168.443-1.651a2.885 2.885 0 0 1 1.239-1.109c.53-.258 1.296-.482 2.297-.675 1.35-.251 2.286-.489 2.806-.71v-.287c0-.557-.137-.953-.41-1.188-.274-.236-.791-.356-1.553-.356-.513 0-.915.102-1.201.303-.291.209-.524.562-.701 1.07zm3.864 2.343c-.369.124-.954.271-1.757.443-.802.173-1.326.341-1.573.503-.377.267-.565.605-.565 1.018 0 .403.151.754.453 1.049.302.294.685.441 1.152.441.521 0 1.017-.171 1.491-.515.349-.258.579-.578.689-.954.076-.248.112-.715.112-1.409v-.576z"/><path fill="#1D1D1B" d="M207.792 246.123v-15.072h2.887v5.427c.891-1.014 1.947-1.522 3.167-1.522 1.33 0 2.428.482 3.299 1.444.871.965 1.306 2.346 1.306 4.148 0 1.864-.444 3.301-1.331 4.307-.889 1.009-1.966 1.513-3.234 1.513a3.996 3.996 0 0 1-1.845-.469c-.607-.31-1.129-.772-1.568-1.381v1.604h-2.681zm2.868-5.698c0 1.131.178 1.967.535 2.51.499.768 1.164 1.152 1.993 1.152.638 0 1.18-.273 1.63-.818.448-.544.673-1.403.673-2.576 0-1.248-.225-2.146-.677-2.697-.453-.552-1.032-.829-1.738-.829-.692 0-1.267.27-1.727.808-.46.538-.689 1.356-.689 2.45z" opacity=".1"/><path fill="#FFF" d="M205.738 244.068v-15.071h2.888v5.427c.89-1.014 1.946-1.522 3.166-1.522 1.33 0 2.428.482 3.299 1.444.871.965 1.307 2.347 1.307 4.148 0 1.865-.444 3.302-1.331 4.307-.889 1.008-1.966 1.512-3.233 1.512a3.996 3.996 0 0 1-1.845-.469c-.607-.31-1.129-.772-1.568-1.381v1.603h-2.683zm2.867-5.697c0 1.131.178 1.967.535 2.511.499.767 1.164 1.151 1.993 1.151.639 0 1.18-.273 1.63-.818.449-.545.673-1.403.673-2.576 0-1.247-.226-2.146-.678-2.697-.453-.552-1.032-.829-1.738-.829-.693 0-1.268.27-1.727.808-.458.538-.688 1.355-.688 2.45z"/><path fill="#1D1D1B" d="M220.774 233.722v-2.671h2.889v2.671h-2.889zm0 12.401v-10.919h2.889v10.919h-2.889z" opacity=".1"/><path fill="#FFF" d="M218.72 231.669v-2.672h2.889v2.672h-2.889zm0 12.399V233.15h2.889v10.918h-2.889z"/><path fill="#1D1D1B" d="M236.145 238.433l-2.848.512c-.095-.568-.313-.996-.653-1.285-.34-.287-.78-.431-1.32-.431-.721 0-1.295.248-1.723.745-.429.497-.642 1.327-.642 2.492 0 1.295.217 2.211.653 2.747.434.533 1.019.801 1.753.801.548 0 .997-.156 1.346-.469.349-.311.596-.848.739-1.609l2.838.485c-.294 1.301-.86 2.285-1.695 2.951-.837.663-1.957.996-3.362.996-1.598 0-2.87-.505-3.82-1.513-.95-1.006-1.423-2.4-1.423-4.181 0-1.804.476-3.206 1.428-4.212.953-1.002 2.242-1.506 3.866-1.506 1.329 0 2.386.288 3.171.859.785.571 1.348 1.444 1.692 2.618z" opacity=".1"/><path fill="#FFF" d="M234.091 236.379l-2.848.512c-.095-.568-.313-.996-.652-1.285-.341-.288-.781-.431-1.321-.431-.721 0-1.295.249-1.723.745-.429.497-.642 1.327-.642 2.492 0 1.295.217 2.211.653 2.747.434.534 1.019.801 1.753.801.547 0 .997-.157 1.346-.468.349-.312.596-.849.739-1.61l2.838.485c-.293 1.302-.86 2.285-1.696 2.951-.837.662-1.956.996-3.361.996-1.598 0-2.87-.505-3.82-1.512-.95-1.006-1.423-2.402-1.423-4.182 0-1.804.476-3.206 1.428-4.212.953-1.002 2.242-1.506 3.866-1.506 1.329 0 2.386.288 3.171.859.785.572 1.348 1.445 1.692 2.618z"/><path fill="#1D1D1B" d="M257.014 246.123h-3.312l-1.315-3.425h-6.025l-1.243 3.425h-3.228l5.869-15.072h3.22l6.034 15.072zm-5.603-5.965l-2.077-5.591-2.034 5.591h4.111z" opacity=".1"/><path fill="#FFF" d="M254.96 244.068h-3.312l-1.315-3.424h-6.025l-1.243 3.424h-3.228l5.869-15.071h3.22l6.034 15.071zm-5.603-5.964l-2.077-5.591-2.034 5.591h4.111z"/><path fill="#1D1D1B" d="M258.525 235.204h2.695v1.604a4.035 4.035 0 0 1 1.417-1.339 3.93 3.93 0 0 1 1.985-.513c1.268 0 2.343.498 3.226 1.49.886.995 1.328 2.381 1.328 4.155 0 1.823-.448 3.24-1.338 4.252-.891 1.01-1.969 1.516-3.237 1.516-.603 0-1.15-.12-1.641-.36-.49-.241-1.004-.652-1.547-1.235v5.501h-2.888v-15.071zm2.858 5.275c0 1.226.244 2.134.73 2.718.487.584 1.082.88 1.779.88.672 0 1.232-.269 1.676-.808.446-.538.668-1.421.668-2.647 0-1.143-.229-1.994-.687-2.548-.459-.557-1.029-.834-1.709-.834-.705 0-1.291.273-1.757.817-.466.545-.7 1.35-.7 2.422z" opacity=".1"/><path fill="#FFF" d="M256.471 233.15h2.695v1.604a4.024 4.024 0 0 1 1.417-1.338 3.921 3.921 0 0 1 1.985-.514c1.269 0 2.345.498 3.226 1.49.886.995 1.328 2.381 1.328 4.155 0 1.822-.448 3.24-1.337 4.251-.892 1.01-1.97 1.516-3.238 1.516-.604 0-1.15-.12-1.641-.359-.489-.241-1.004-.652-1.546-1.234v5.501h-2.889V233.15zm2.857 5.274c0 1.226.244 2.134.73 2.719.487.584 1.082.878 1.779.878.673 0 1.231-.268 1.676-.807.445-.538.668-1.42.668-2.646 0-1.144-.23-1.995-.688-2.549-.46-.557-1.028-.834-1.709-.834-.705 0-1.291.273-1.757.817-.464.546-.699 1.351-.699 2.422z"/><path fill="#1D1D1B" d="M271.387 235.204h2.694v1.604a4.027 4.027 0 0 1 1.417-1.339 3.928 3.928 0 0 1 1.985-.513c1.267 0 2.343.498 3.23 1.49.882.995 1.325 2.381 1.325 4.155 0 1.823-.446 3.24-1.336 4.252-.892 1.01-1.972 1.516-3.239 1.516-.604 0-1.151-.12-1.639-.36-.49-.241-1.008-.652-1.548-1.235v5.501h-2.887v-15.071zm2.858 5.275c0 1.226.24 2.134.728 2.718.488.584 1.081.88 1.779.88.673 0 1.231-.269 1.677-.808.445-.538.668-1.421.668-2.647 0-1.143-.23-1.994-.691-2.548-.458-.557-1.027-.834-1.705-.834-.707 0-1.292.273-1.756.817-.469.545-.7 1.35-.7 2.422z" opacity=".1"/><path fill="#FFF" d="M269.333 233.15h2.694v1.604a4.015 4.015 0 0 1 1.417-1.338 3.918 3.918 0 0 1 1.985-.514c1.267 0 2.343.498 3.23 1.49.882.995 1.324 2.381 1.324 4.155 0 1.822-.446 3.24-1.336 4.251-.892 1.01-1.971 1.516-3.239 1.516a3.68 3.68 0 0 1-1.638-.359c-.491-.241-1.009-.652-1.548-1.234v5.501h-2.887V233.15zm2.858 5.274c0 1.226.24 2.134.728 2.719.488.584 1.081.878 1.779.878.673 0 1.231-.268 1.677-.807.445-.538.668-1.42.668-2.646 0-1.144-.23-1.995-.69-2.549-.459-.557-1.028-.834-1.706-.834-.707 0-1.292.273-1.756.817-.468.546-.7 1.351-.7 2.422z"/><path fill="#1D1D1B" d="M284.33 246.123v-15.072h2.888v15.072h-2.888z" opacity=".1"/><path fill="#FFF" d="M282.276 244.068v-15.071h2.888v15.071h-2.888z"/><path fill="#1D1D1B" d="M290.179 233.722v-2.671h2.888v2.671h-2.888zm0 12.401v-10.919h2.888v10.919h-2.888z" opacity=".1"/><path fill="#FFF" d="M288.125 231.669v-2.672h2.888v2.672h-2.888zm0 12.399V233.15h2.888v10.918h-2.888z"/><path fill="#1D1D1B" d="M305.546 238.433l-2.845.512c-.096-.568-.316-.996-.654-1.285-.338-.287-.779-.431-1.32-.431-.721 0-1.292.248-1.721.745-.429.497-.643 1.327-.643 2.492 0 1.295.216 2.211.653 2.747.436.533 1.02.801 1.751.801.549 0 1-.156 1.346-.469.35-.311.599-.848.742-1.609l2.838.485c-.298 1.301-.862 2.285-1.698 2.951-.835.663-1.956.996-3.362.996-1.597 0-2.869-.505-3.82-1.513-.948-1.006-1.422-2.4-1.422-4.181 0-1.804.475-3.206 1.429-4.212.952-1.002 2.241-1.506 3.865-1.506 1.331 0 2.386.288 3.172.859.785.571 1.349 1.444 1.689 2.618z" opacity=".1"/><path fill="#FFF" d="M303.492 236.379l-2.845.512c-.096-.568-.316-.996-.654-1.285-.338-.288-.779-.431-1.32-.431-.721 0-1.292.249-1.721.745-.429.497-.642 1.327-.642 2.492 0 1.295.215 2.211.653 2.747.435.534 1.019.801 1.751.801.549 0 1-.157 1.346-.468.35-.312.599-.849.742-1.61l2.838.485c-.298 1.302-.861 2.285-1.697 2.951-.835.662-1.956.996-3.363.996-1.597 0-2.869-.505-3.82-1.512-.948-1.006-1.421-2.402-1.421-4.182 0-1.804.474-3.206 1.428-4.212.952-1.002 2.242-1.506 3.865-1.506 1.331 0 2.386.288 3.172.859.783.572 1.348 1.445 1.688 2.618z"/><path fill="#1D1D1B" d="M309.898 238.535l-2.623-.473c.295-1.058.802-1.839 1.523-2.343.718-.51 1.789-.763 3.207-.763 1.288 0 2.248.154 2.879.458.63.306 1.074.694 1.33 1.16.259.469.386 1.332.386 2.586l-.031 3.374c0 .959.046 1.668.138 2.121.093.458.265.943.52 1.467h-2.857a10.8 10.8 0 0 1-.278-.854 5.091 5.091 0 0 0-.104-.34 5.224 5.224 0 0 1-1.581 1.08 4.54 4.54 0 0 1-1.801.36c-1.122 0-2.009-.306-2.657-.916-.647-.608-.971-1.38-.971-2.312 0-.617.147-1.168.441-1.651a2.89 2.89 0 0 1 1.239-1.109c.532-.258 1.295-.482 2.298-.674 1.351-.252 2.286-.489 2.805-.711v-.287c0-.557-.137-.953-.41-1.187-.276-.237-.794-.357-1.554-.357-.512 0-.913.102-1.202.303-.286.207-.522.56-.697 1.068zm3.863 2.343c-.37.124-.954.271-1.757.444-.803.173-1.327.34-1.574.502-.376.268-.565.605-.565 1.018 0 .403.152.753.454 1.049.301.293.686.442 1.151.442.522 0 1.019-.172 1.492-.516.349-.258.58-.577.688-.954.076-.248.113-.715.113-1.41v-.575z" opacity=".1"/><path fill="#FFF" d="M307.844 236.481l-2.623-.473c.295-1.058.803-1.839 1.524-2.343.717-.51 1.788-.763 3.206-.763 1.288 0 2.248.154 2.879.458.63.305 1.075.693 1.33 1.16.259.469.386 1.332.386 2.585l-.03 3.374c0 .959.046 1.667.138 2.121.093.458.266.944.521 1.466h-2.858a10.61 10.61 0 0 1-.278-.853 5.806 5.806 0 0 0-.104-.34 5.216 5.216 0 0 1-1.582 1.08 4.542 4.542 0 0 1-1.801.359c-1.123 0-2.009-.305-2.657-.916-.647-.608-.971-1.378-.971-2.312 0-.617.147-1.168.441-1.651a2.896 2.896 0 0 1 1.239-1.109c.532-.258 1.295-.482 2.298-.675 1.351-.251 2.287-.489 2.806-.71v-.287c0-.557-.137-.953-.41-1.188-.276-.236-.794-.356-1.554-.356-.511 0-.913.102-1.202.303-.288.209-.523.562-.698 1.07zm3.863 2.343c-.37.124-.954.271-1.757.443-.803.173-1.327.341-1.574.503-.376.267-.565.605-.565 1.018 0 .403.152.754.454 1.049.301.294.686.441 1.151.441.522 0 1.019-.171 1.492-.515.349-.258.58-.578.688-.954.076-.248.113-.715.113-1.409v-.576z"/><path fill="#1D1D1B" d="M324.454 235.204v2.302h-1.975v4.399c0 .894.02 1.413.058 1.56a.623.623 0 0 0 .255.364.82.82 0 0 0 .489.143c.268 0 .654-.091 1.161-.277l.247 2.24c-.672.289-1.434.434-2.281.434-.522 0-.993-.085-1.41-.263-.416-.175-.725-.4-.92-.677-.195-.277-.33-.655-.406-1.125-.06-.336-.092-1.016-.092-2.036v-4.761h-1.326v-2.302h1.326v-2.17l2.899-1.687v3.857h1.975z" opacity=".1"/><path fill="#FFF" d="M322.4 233.15v2.302h-1.974v4.399c0 .894.02 1.413.058 1.56a.623.623 0 0 0 .255.364.82.82 0 0 0 .49.143c.268 0 .654-.091 1.161-.277l.247 2.24c-.672.289-1.434.434-2.281.434-.522 0-.993-.085-1.41-.263-.417-.176-.725-.4-.92-.678-.194-.277-.33-.654-.406-1.125-.06-.336-.092-1.016-.092-2.036v-4.761h-1.326v-2.302h1.326v-2.17l2.899-1.687v3.857h1.973z"/><path fill="#1D1D1B" d="M326.458 233.722v-2.671h2.888v2.671h-2.888zm0 12.401v-10.919h2.888v10.919h-2.888z" opacity=".1"/><path fill="#FFF" d="M324.404 231.669v-2.672h2.888v2.672h-2.888zm0 12.399V233.15h2.888v10.918h-2.888z"/><path fill="#1D1D1B" d="M331.639 240.509c0-.959.236-1.889.711-2.786a4.852 4.852 0 0 1 2.009-2.057c.867-.472 1.835-.71 2.904-.71 1.653 0 3.005.536 4.063 1.608 1.053 1.075 1.582 2.429 1.582 4.067 0 1.651-.533 3.022-1.598 4.107-1.067 1.084-2.409 1.63-4.027 1.63-1 0-1.954-.227-2.862-.679a4.651 4.651 0 0 1-2.071-1.989c-.475-.873-.711-1.938-.711-3.191zm2.961.153c0 1.084.258 1.914.771 2.49.514.575 1.148.863 1.901.863.752 0 1.387-.288 1.898-.863.509-.576.765-1.414.765-2.509 0-1.07-.255-1.891-.765-2.467-.51-.577-1.145-.864-1.898-.864-.753 0-1.387.288-1.901.864-.513.576-.771 1.404-.771 2.486z" opacity=".1"/><path fill="#FFF" d="M329.585 238.455c0-.959.236-1.889.711-2.786a4.852 4.852 0 0 1 2.009-2.057c.867-.473 1.835-.71 2.904-.71 1.653 0 3.005.536 4.063 1.608 1.054 1.075 1.582 2.429 1.582 4.067 0 1.652-.533 3.022-1.598 4.107-1.067 1.084-2.409 1.63-4.027 1.63-1 0-1.954-.227-2.862-.677a4.649 4.649 0 0 1-2.071-1.99c-.475-.874-.711-1.939-.711-3.192zm2.961.153c0 1.083.258 1.913.771 2.489.514.575 1.148.863 1.901.863.752 0 1.387-.288 1.898-.863.509-.576.765-1.414.765-2.509 0-1.069-.255-1.891-.765-2.468-.51-.576-1.145-.863-1.898-.863-.753 0-1.387.287-1.901.863-.513.578-.771 1.406-.771 2.488z"/><path fill="#1D1D1B" d="M355.1 246.123h-2.89v-5.574c0-1.178-.061-1.939-.184-2.287a1.6 1.6 0 0 0-.603-.806c-.277-.193-.61-.289-1.001-.289-.501 0-.95.139-1.347.413a2.066 2.066 0 0 0-.817 1.089c-.149.453-.222 1.288-.222 2.51v4.945h-2.888v-10.919h2.684v1.604c.952-1.234 2.152-1.852 3.597-1.852.639 0 1.219.115 1.749.344.529.23.926.522 1.196.88.272.357.46.759.567 1.213.105.454.158 1.101.158 1.943v6.786z" opacity=".1"/><path fill="#FFF" d="M353.046 244.068h-2.89v-5.573c0-1.178-.061-1.939-.184-2.287a1.592 1.592 0 0 0-.603-.806c-.276-.193-.61-.289-1.001-.289-.501 0-.95.14-1.347.413a2.066 2.066 0 0 0-.817 1.089c-.149.453-.222 1.288-.222 2.51v4.943h-2.888V233.15h2.684v1.604c.952-1.234 2.152-1.852 3.597-1.852.64 0 1.219.115 1.749.344.528.23.926.522 1.196.88.272.357.46.759.568 1.212.104.454.157 1.101.157 1.943v6.787z"/></svg>