<svg id="Layer_1" xmlns="http://www.w3.org/2000/svg" xmlns:xlink="http://www.w3.org/1999/xlink" viewBox="-226 228.2 45.8 45.8"><style>.st0{fill:#fddf87}.st1{fill:none;stroke:#fff;stroke-miterlimit:10}.st2,.st3{clip-path:url(#XMLID_3_);fill:#fff}.st3{fill:#9a3994}.st4{fill:#fbc018}.st4,.st5,.st6,.st7,.st8{clip-path:url(#XMLID_3_)}.st5{fill:#ec227b}.st6{fill:#8bc440}.st7{fill:#f26f46}.st8{fill:#2aa9e0}</style><g id="XMLID_3027_"><g id="XMLID_3630_"><circle id="XMLID_3729_" class="st0" cx="-203.1" cy="251.1" r="22.7"/><circle id="XMLID_3659_" class="st1" cx="-203.1" cy="251.1" r="20.9"/></g><g id="XMLID_3028_"><g id="XMLID_3056_"><defs><path id="XMLID_3094_" d="M-210.6 258.1c-2.5-3-5.2-6-5.2-10.2 0-7 5.7-12.6 12.6-12.6s12.6 5.7 12.6 12.6c0 4.2-3 6.9-5.1 10.1-1.1 1.6-2.4 7.3-2.6 9.1-.4 3.1-9.1 3-9.4 0-.2-2-1.5-7.4-2.9-9z"/></defs><clipPath id="XMLID_3_"><use xlink:href="#XMLID_3094_" overflow="visible"/></clipPath><path id="XMLID_3619_" class="st2" d="M-210.6 258.1c-2.5-3-5.2-6-5.2-10.2 0-7 5.7-12.6 12.6-12.6s12.6 5.7 12.6 12.6c0 4.2-3 6.9-5.1 10.1-1.1 1.6-2.4 7.3-2.6 9.1-.4 3.1-9.1 3-9.4 0-.2-2-1.5-7.4-2.9-9z"/><path id="XMLID_3574_" class="st3" d="M-218.6 235.2h28.7v5.3h-28.7z"/><path id="XMLID_3201_" class="st4" d="M-218.6 240.5h28.7v5.3h-28.7z"/><path id="XMLID_3200_" class="st5" d="M-218.6 245.7h28.7v5.3h-28.7z"/><path id="XMLID_3194_" class="st6" d="M-218.6 250.8h28.7v5.3h-28.7z"/><path id="XMLID_3104_" class="st7" d="M-218.6 256h28.7v5.3h-28.7z"/><path id="XMLID_3095_" class="st8" d="M-190.4 263.2l-28.3.3.1-2.4h28.7z"/><path id="XMLID_3093_" class="st8" d="M-190.4 265.2l-28.3.1.1-1.2h28.7z"/><path id="XMLID_3091_" class="st8" d="M-190.4 267.2l-28.3.1.1-1.2h28.7z"/><path id="XMLID_3060_" class="st8" d="M-190.7 269.2l-28.2.2.1-1.3h28.6z"/></g></g></g></svg>