<svg id="Layer_1" xmlns="http://www.w3.org/2000/svg" viewBox="0 0 47.2 47.2"><style>.st0{fill:#1face3}.st1{fill:#fff}.st2{fill:none;stroke:#fff;stroke-miterlimit:10}.st3{fill:#f37046}.st4{fill:none}.st5{fill:#8dc541}.st6{fill-rule:evenodd;clip-rule:evenodd;fill:#fff}.st7{fill:#fcc11a}.st8{fill:#ea215e}</style><g id="XMLID_1500_"><g id="XMLID_26946_"><circle id="XMLID_26956_" class="st0" cx="-763.4" cy="-618.4" r="22.7"/><g id="XMLID_26949_"><g id="XMLID_26950_"><path id="XMLID_26951_" class="st1" d="M-775.6-625.9c-.7.1-1.1.4-1.1.8v16.5h11.9c.4.4 1 .6 1.7.6s1.3-.2 1.7-.6h12.2v-16.5c0-.4-.5-.7-1.3-.9v-1.6l-.2-.1c-.1 0-2.1-.8-4.8-.8-2.9 0-5.4.9-7.5 2.6-2-1.7-4.5-2.6-7.4-2.6-2.7 0-4.7.8-4.8.8l-.3.1v1.7h-.1zm12.6 9.6l.5.5v-9.6c1.9-1.6 4.2-2.4 6.9-2.4 2 0 3.7.5 4.3.7v16c-1-.4-2.3-.6-3.6-.6-3.5 0-7 1.3-8 1.7v-6.3zm-11.8-10.7c.6-.2 2.3-.7 4.3-.7 2.7 0 5 .8 6.9 2.4v9.6l.5-.5v6.4c-1-.4-4.3-1.8-7.8-1.8-1.4 0-2.7.2-3.8.7V-627zm0 16"/></g></g><circle id="XMLID_26947_" class="st2" cx="-763.4" cy="-618.4" r="20.9"/></g><g id="XMLID_1501_"><circle id="XMLID_26945_" class="st3" cx="-551.2" cy="-658.2" r="22.7"/><circle id="XMLID_26943_" class="st2" cx="-551.2" cy="-658.2" r="20.9"/><path id="XMLID_1502_" class="st1" d="M-550.1-644.6h6.5v-4.8c0-3 1.9-5.4 3.3-7.9 3.4-6.1.4-13.7-6.3-15.6-1.1-.3-2.4-.5-3.6-.5-3 0-6 .9-8.2 2.7-2.1 1.7-3.2 4.4-3.8 7-.2.8-.2 1.4.5 2.3 0 0-1.8 3-2.9 4.5-.6.8 2.3 1.1 1.5 2.6-.3.6.2.8.8 1-.8.5-.8.7-.1 1.2.3.2.2.8.2.8 0 2 .6 3.3 2.5 3.3.8 0 3.3-.6 3.3-.6v4h6.3z"/><g id="XMLID_1506_"><g id="XMLID_1507_"><g id="XMLID_1508_"><path id="XMLID_30453_" class="st4" d="M-555.5-665.7c0 1.6 1.3 2.8 2.8 2.8v-5.7c-1.5 0-2.8 1.3-2.8 2.9z"/></g><g id="XMLID_1509_"><path id="XMLID_30451_" class="st4" d="M-549.8-665.7c0-1.6-1.3-2.8-2.8-2.8v5.7c1.5-.1 2.8-1.3 2.8-2.9z"/></g><g id="XMLID_1510_"><path id="XMLID_30449_" class="st3" d="M-551.1-670.5l-.4-1.2h-1.2v1c.6 0 1.1 0 1.6.2z"/></g><g id="XMLID_1511_"><path id="XMLID_30447_" class="st3" d="M-552.6-671.7h-1.2l-.4 1.2c.5-.2 1-.2 1.6-.2v-1z"/></g><g id="XMLID_1512_"><path id="XMLID_30445_" class="st3" d="M-548.2-668l.6-1.1-1.7-1.7-1.1.6c1 .5 1.8 1.3 2.2 2.2z"/></g><g id="XMLID_1513_"><path id="XMLID_30443_" class="st3" d="M-547.9-664.2l1.2-.4v-2.3l-1.2-.4c.2.5.2 1 .2 1.5.1.6 0 1.2-.2 1.6z"/></g><g id="XMLID_1514_"><path id="XMLID_30441_" class="st3" d="M-557.1-663.4l-.6 1.1 1.7 1.7 1.1-.6c-1-.5-1.7-1.3-2.2-2.2z"/></g><g id="XMLID_1515_"><path id="XMLID_30439_" class="st3" d="M-552.6-659.7h1.2l.4-1.2c-.5.2-1 .2-1.5.2v1z"/></g><g id="XMLID_1516_"><path id="XMLID_30437_" class="st3" d="M-554.2-660.9l.4 1.2h1.2v-1c-.6 0-1.1-.1-1.6-.2z"/></g><g id="XMLID_1517_"><path id="XMLID_30435_" class="st3" d="M-554.9-670.2l-1.1-.6-1.7 1.7.6 1.1c.5-.9 1.2-1.7 2.2-2.2z"/></g><g id="XMLID_1518_"><path id="XMLID_30433_" class="st3" d="M-550.4-661.2l1.1.6 1.7-1.7-.6-1.1c-.4.9-1.2 1.7-2.2 2.2z"/></g><g id="XMLID_1519_"><path id="XMLID_30431_" class="st3" d="M-557.4-667.3l-1.2.4v2.3l1.2.4c-.2-.5-.2-1-.2-1.6-.1-.5 0-1 .2-1.5z"/></g><g id="XMLID_1520_"><path id="XMLID_30429_" class="st3" d="M-547.5-665.7c0-.5-.1-1.1-.2-1.6-.1-.3-.2-.5-.3-.8-.5-1-1.3-1.7-2.2-2.2-.2-.1-.5-.2-.7-.3-.5-.2-1-.2-1.6-.2v2.2c1.6 0 2.9 1.3 2.9 2.9 0 1.6-1.3 2.9-2.9 2.9v2.2c.5 0 1.1-.1 1.6-.2.3-.1.5-.2.7-.3 1-.5 1.7-1.3 2.2-2.2.1-.2.2-.5.3-.7.1-.6.2-1.2.2-1.7z"/></g><g id="XMLID_1521_"><path id="XMLID_30427_" class="st3" d="M-552.6-662.8c-1.6 0-2.9-1.3-2.9-2.9 0-1.6 1.3-2.9 2.9-2.9v-2.2c-.6 0-1.1.1-1.6.3-.3.1-.5.2-.7.3-1 .5-1.7 1.3-2.2 2.2-.1.2-.2.5-.3.7-.2.5-.2 1-.2 1.6 0 .6.1 1.1.3 1.6.1.3.2.5.3.7.5 1 1.3 1.7 2.2 2.2.2.1.5.2.7.3.5.2 1 .3 1.6.3v-2.2z"/></g></g></g><g id="XMLID_1522_"><g id="XMLID_1523_"><g id="XMLID_1524_"><path id="XMLID_30423_" class="st4" d="M-546-659.7c0 .8.7 1.5 1.5 1.5v-3c-.8 0-1.5.6-1.5 1.5z"/></g><g id="XMLID_1525_"><path id="XMLID_30421_" class="st4" d="M-543-659.7c0-.8-.7-1.5-1.5-1.5v3c.8-.1 1.5-.7 1.5-1.5z"/></g><g id="XMLID_1526_"><path id="XMLID_30419_" class="st3" d="M-543.7-662.2l-.2-.6h-.6v.5c.3 0 .5 0 .8.1z"/></g><g id="XMLID_1527_"><path id="XMLID_30417_" class="st3" d="M-544.5-662.8h-.6l-.2.6c.3-.1.5-.1.8-.1v-.5z"/></g><g id="XMLID_1528_"><path id="XMLID_30415_" class="st3" d="M-542.2-660.9l.3-.6-.9-.9-.6.3c.6.3 1 .7 1.2 1.2z"/></g><g id="XMLID_1529_"><path id="XMLID_30413_" class="st3" d="M-542-658.9l.6-.2v-1.2l-.6-.2c.1.3.1.5.1.8 0 .2 0 .5-.1.8z"/></g><g id="XMLID_1530_"><path id="XMLID_30411_" class="st3" d="M-546.8-658.6l-.3.6.9.9.6-.3c-.6-.3-1-.7-1.2-1.2z"/></g><g id="XMLID_1531_"><path id="XMLID_30409_" class="st3" d="M-544.5-656.6h.6l.2-.6c-.3.1-.5.1-.8.1v.5z"/></g><g id="XMLID_1532_"><path id="XMLID_30407_" class="st3" d="M-545.3-657.3l.2.6h.6v-.5c-.3.1-.6 0-.8-.1z"/></g><g id="XMLID_1533_"><path id="XMLID_30405_" class="st3" d="M-545.7-662.1l-.6-.3-.9.9.3.6c.3-.5.7-.9 1.2-1.2z"/></g><g id="XMLID_1534_"><path id="XMLID_30403_" class="st3" d="M-543.3-657.4l.6.3.9-.9-.3-.6c-.3.5-.7.9-1.2 1.2z"/></g><g id="XMLID_1535_"><path id="XMLID_30401_" class="st3" d="M-547-660.5l-.6.2v1.2l.6.2c-.1-.3-.1-.5-.1-.8 0-.3 0-.6.1-.8z"/></g><g id="XMLID_1536_"><path id="XMLID_30399_" class="st3" d="M-541.8-659.7c0-.3 0-.6-.1-.8 0-.1-.1-.3-.2-.4-.3-.5-.7-.9-1.2-1.2-.1-.1-.3-.1-.4-.2-.3-.1-.5-.1-.8-.1v1.2c.8 0 1.5.7 1.5 1.5s-.7 1.5-1.5 1.5v1.2c.3 0 .6 0 .8-.1.1 0 .3-.1.4-.2.5-.3.9-.7 1.2-1.2.1-.1.1-.3.2-.4 0-.3.1-.5.1-.8z"/></g><g id="XMLID_1537_"><path id="XMLID_30397_" class="st3" d="M-544.5-658.2c-.8 0-1.5-.7-1.5-1.5s.7-1.5 1.5-1.5v-1.2c-.3 0-.6 0-.8.1-.1 0-.3.1-.4.2-.5.3-.9.7-1.2 1.2-.1.1-.1.3-.2.4-.1.3-.1.5-.1.8 0 .3 0 .6.1.8 0 .1.1.3.2.4.3.5.7.9 1.2 1.2.1.1.3.1.4.2.3.1.5.1.8.1v-1.2z"/></g></g></g></g><g id="XMLID_1538_"><circle id="XMLID_26942_" class="st5" cx="-519.3" cy="-566.5" r="22.7"/><circle id="XMLID_26940_" class="st2" cx="-519.3" cy="-566.5" r="20.9"/><circle id="XMLID_26939_" class="st5" cx="-519.3" cy="-566.5" r="22.7"/><circle id="XMLID_26937_" class="st2" cx="-519.3" cy="-566.5" r="20.9"/><circle id="XMLID_26936_" class="st5" cx="-519.3" cy="-566.5" r="22.7"/><circle id="XMLID_1539_" class="st2" cx="-519.3" cy="-566.5" r="20.9"/><g id="XMLID_1543_"><path id="XMLID_215_" class="st6" d="M-526.8-555.5h-2.7v-22.1h2.7l7.4 13-1.5 2.7-5.9-10.3v16.7z"/><path id="XMLID_211_" class="st6" d="M-520.4-555.6h-3.1l12.7-22.1h2.6v22.1h-2.7v-16.7l-9.5 16.7z"/><path id="XMLID_207_" class="st6" d="M-516.8-560.2l-1.5 2.6 1.1 2h3l-2.6-4.6z"/></g></g><g id="XMLID_1544_"><circle id="XMLID_1545_" class="st7" cx="-642.3" cy="-486.4" r="22.7"/><path id="XMLID_1546_" class="st1" d="M-641.1-483c.3-.1.4-.3.4-.6v-.3c1.5-1 2.7-2.5 3.3-4.3 2.6-1.4 4.3-4.2 4.3-7.2v-3.6h-19v3.6c0 3.1 1.7 5.8 4.3 7.2.6 1.7 1.8 3.2 3.3 4.3v.3c0 .3.2.5.4.6 0 .3.2.5.5.6l-2.6 4.3h-.3c-.4 0-.7.3-.7.7v3.7h-.6c-.4 0-.7.3-.7.7v2.5h11.4v-2.5c0-.4-.3-.7-.7-.7h-.6v-3.7c0-.4-.3-.7-.7-.7h-.3l-2.6-4.3c.6 0 .9-.3.9-.6zm6.7-14.6v2.2c0 .8-.1 1.5-.4 2.2-.2.7-.6 1.3-1 1.9-.3.4-.7.8-1.1 1.1 0-.4.1-.7.1-1.1v-6.4h2.4zm-14.9 6.4c-.4-.6-.8-1.2-1-1.9-.2-.7-.4-1.5-.4-2.2v-2.2h2.4v6.4c0 .4 0 .7.1 1.1-.4-.4-.8-.8-1.1-1.2z"/><circle id="XMLID_1552_" class="st2" cx="-642.3" cy="-486.4" r="20.9"/></g><g id="XMLID_1553_"><circle id="XMLID_1554_" class="st8" cx="-722.1" cy="-548.8" r="22.7"/><path id="XMLID_1555_" class="st1" d="M-715.9-557.4l-16.6 11.9 16.6 8.1z"/><circle id="XMLID_1558_" class="st2" cx="-722.1" cy="-548.8" r="20.9"/><path id="XMLID_1559_" class="st8" d="M-716.6-558.5l-16.6 11.9 16.6 8.1z"/><path id="XMLID_1560_" class="st1" d="M-717.4-560.1l-16.6 11.9 16.6 8.1z"/></g></g><g id="XMLID_1_"><circle id="XMLID_12_" class="st0" cx="23.6" cy="23.6" r="22.7"/><g id="XMLID_5_"><g id="XMLID_6_"><path id="XMLID_7_" class="st1" d="M11.4 16.1c-.7.1-1.1.4-1.1.8v16.5h11.9c.4.4 1 .6 1.7.6s1.3-.2 1.7-.6h12.2V16.9c0-.4-.5-.7-1.3-.9v-1.6l-.2-.1c-.1 0-2.1-.8-4.8-.8-2.9 0-5.4.9-7.5 2.6-2-1.7-4.5-2.6-7.4-2.6-2.7 0-4.7.8-4.8.8l-.3.1v1.7h-.1zM24 25.7l.5.5v-9.6c1.9-1.6 4.2-2.4 6.9-2.4 2 0 3.7.5 4.3.7v16c-1-.4-2.3-.6-3.6-.6-3.5 0-7 1.3-8 1.7v-6.3zM12.2 15c.6-.2 2.3-.7 4.3-.7 2.7 0 5 .8 6.9 2.4v9.6l.5-.5v6.4c-1-.4-4.3-1.8-7.8-1.8-1.4 0-2.7.2-3.8.7V15zm0 16"/></g></g><circle id="XMLID_2_" class="st2" cx="23.6" cy="23.6" r="20.9"/></g></svg>