<svg id="Layer_1" xmlns="http://www.w3.org/2000/svg" viewBox="0 0 42.8 42.8"><style>.st0{fill:#808285}.st1{fill:#fff}</style><path class="st0" d="M0 0h42.8v42.8H0z"/><path id="XMLID_3852_" class="st1" d="M7.4 29.4c.4-3.2 3.6-5.9 8.1-7.2 1.6 1.5 3.7 2.4 6.1 2.4 2.3 0 4.3-.9 5.9-2.3 4.5 1.4 7.6 4.2 7.7 7.6 0 0 1 11.8.3 12.9-13.2 0-12.2-.2-28.2 0-.5-2.3.2-10.3.1-13.4z"/><path id="XMLID_3058_" class="st1" d="M21.6 22.5c-1.2 0-2.3-.3-3.2-.9-2.4-1.3-4-4.1-4-7.2 0-4.5 3.2-8.1 7.2-8.1s7.2 3.6 7.2 8.1c0 3.2-1.7 6-4.1 7.3-1 .5-2 .8-3.1.8z"/></svg>