<svg xmlns="http://www.w3.org/2000/svg" width="135.119" height="160.205" viewBox="0 0 135.119 160.205"><path opacity=".1" fill="#1D1D1B" d="M25.745 29.93H5l32.688 83.288-13.829 31.743h29.857l8.172-23.258 4.086-5.342s-.626-5.835-.943-7.877c-.398-2.557-1.571-10.354-1.571-10.354s-3.925.434-5.972-.942c-2.61-1.755-6.6-9.744-6.6-9.744L25.745 29.93zm96.803 16.028h12.571L79.489 103.5s-.747-4.67-1.316-5.849c-.688-1.421-3.712-4.549-3.712-4.549l48.087-47.144zm-62.231 30.33s6.104 24.275 7.7 32.196c2.627 13.033 8.015 51.721 8.015 51.721l1.414-30.016 8.485 17.758s-3.613-30.958-10.559-45.264c-5.47-14.137-15.055-26.395-15.055-26.395zm71.66-50.445l3.142 4.087-63.645 60.502-3.143-5.188zM61.416 74.729l54.847-51.714h2.355L63.146 74.729l.786 1.559 57.201-53.273h1.885l-58.143 54.53 1.1 1.728 58.616-54.53 1.256.157-58.616 55.473 1.1 1.101 60.815-56.888 1.101 1.257-61.916 58.302z"/><path opacity=".1" fill="#1D1D1B" d="M36.432 5.257L34.545 5.1s10.55 26.909 13.492 36.078c2.59 8.075 8.176 30.205 8.176 30.205L30.774 4h-2.2L54.34 70.344 25.273 4h-1.571l35.044 80.145s-3.533-5.831-4.559-7.857c-1.198-2.371-4.242-9.744-4.242-9.744L21.659 4l-3.301 1.257 35.044 78.889s2.26 5.081 3.614 6.286c1.119.993 5.5 2.357 5.5 2.357S53.609 53.173 49.474 40.3C46.578 31.285 36.432 5.257 36.432 5.257z"/><path fill="#FFF" d="M20.745 25.93H0l32.688 83.288-13.829 31.743h29.857l8.172-23.258 4.086-5.342s-.626-5.835-.943-7.877c-.398-2.557-1.571-10.354-1.571-10.354s-3.925.434-5.972-.942c-2.61-1.755-6.6-9.744-6.6-9.744L20.745 25.93zm96.803 16.028h12.571L74.489 99.5s-.747-4.67-1.316-5.849c-.688-1.421-3.712-4.549-3.712-4.549l48.087-47.144zm-62.231 30.33s6.104 24.275 7.7 32.196c2.627 13.033 8.015 51.721 8.015 51.721l1.414-30.016 8.485 17.758s-3.613-30.958-10.559-45.264c-5.47-14.137-15.055-26.395-15.055-26.395zm71.66-50.445l3.142 4.087-63.645 60.502-3.143-5.188zM56.416 70.729l54.847-51.714h2.355L58.146 70.729l.786 1.559 57.201-53.273h1.885l-58.143 54.53 1.1 1.728 58.616-54.53 1.256.157-58.616 55.473 1.1 1.101 60.815-56.888 1.101 1.257-61.916 58.302z"/><path fill="#FFF" d="M31.432 1.257L29.545 1.1s10.55 26.909 13.492 36.078c2.59 8.075 8.176 30.206 8.176 30.206L25.774 0h-2.2L49.34 66.344 20.273 0h-1.571l35.044 80.145s-3.533-5.831-4.559-7.857c-1.198-2.371-4.242-9.744-4.242-9.744L16.659 0l-3.301 1.257 35.044 78.889s2.26 5.081 3.614 6.286c1.119.993 5.5 2.357 5.5 2.357S48.609 49.173 44.474 36.3C41.578 27.285 31.432 1.257 31.432 1.257z"/></svg>