<svg xmlns="http://www.w3.org/2000/svg" width="68.344" height="103.438" viewBox="0 0 68.344 103.438"><path fill="#1D1D1B" d="M5 103.438V4h26.793c10.154 0 16.771.498 19.855 1.493 4.738 1.492 8.704 4.737 11.9 9.733 3.197 4.998 4.796 11.452 4.796 19.365 0 6.106-.922 11.238-2.764 15.398-1.843 4.16-4.184 7.428-7.023 9.803-2.84 2.373-5.725 3.945-8.658 4.713-3.986.951-9.759 1.426-17.317 1.426H21.697v37.508H5zm16.697-82.616V49.04h9.137c6.579 0 10.979-.52 13.199-1.561 2.218-1.04 3.956-2.667 5.217-4.884 1.259-2.215 1.89-4.793 1.89-7.732 0-3.617-.884-6.602-2.65-8.954-1.769-2.351-4.005-3.821-6.713-4.409-1.993-.452-5.998-.678-12.015-.678h-8.065z" opacity=".1"/><path fill="#FFF" d="M0 99.438V0h26.793c10.154 0 16.771.498 19.855 1.493 4.738 1.492 8.704 4.737 11.9 9.733 3.197 4.998 4.796 11.452 4.796 19.365 0 6.106-.922 11.238-2.764 15.398-1.843 4.16-4.184 7.428-7.022 9.803-2.84 2.373-5.725 3.945-8.658 4.713-3.986.951-9.759 1.426-17.317 1.426H16.697v37.508H0zm16.697-82.616V45.04h9.137c6.579 0 10.979-.52 13.199-1.561 2.218-1.04 3.956-2.667 5.217-4.884 1.259-2.215 1.89-4.793 1.89-7.732 0-3.617-.884-6.602-2.65-8.954-1.769-2.351-4.005-3.821-6.713-4.409-1.993-.452-5.998-.678-12.015-.678h-8.065z"/></svg>