<svg xmlns="http://www.w3.org/2000/svg" width="22.822" height="22.818" viewBox="0 0 22.822 22.818"><path fill-rule="evenodd" clip-rule="evenodd" fill="#1D1D1B" d="M21.447 17.589a9.674 9.674 0 0 1-3.848 3.856c-1.654.915-3.379 1.372-5.182 1.372-1.803 0-3.531-.457-5.182-1.372a9.702 9.702 0 0 1-3.857-3.856C2.459 15.935 2 14.209 2 12.417c0-1.813.467-3.552 1.4-5.223a9.59 9.59 0 0 1 3.896-3.848C8.963 2.449 10.67 2 12.418 2c1.746 0 3.453.449 5.119 1.346a9.579 9.579 0 0 1 3.891 3.848c.93 1.67 1.395 3.41 1.395 5.223-.001 1.792-.46 3.518-1.376 5.172zM19.93 8.064a8.033 8.033 0 0 0-3.248-3.214c-1.389-.749-2.811-1.124-4.264-1.124-1.465 0-2.887.375-4.272 1.124a8.082 8.082 0 0 0-3.248 3.214c-.781 1.393-1.174 2.844-1.174 4.352 0 1.5.385 2.936 1.152 4.311a8.17 8.17 0 0 0 3.223 3.215c1.379.767 2.818 1.151 4.318 1.151 1.498 0 2.937-.384 4.318-1.151a8.143 8.143 0 0 0 3.215-3.215c.762-1.375 1.145-2.811 1.145-4.311.001-1.508-.388-2.959-1.165-4.352zm-4.137 7.042c.381 1.625.658 2.748.883 3.196h-1.555c-.191-.329-.449-1.33-.76-2.78-.346-1.607-.984-2.212-2.35-2.263h-1.416v5.043H9.092V6.834c.76-.156 1.865-.259 2.885-.259 1.607 0 2.66.311 3.385.967.572.5.916 1.295.916 2.211 0 1.519-.982 2.539-2.193 2.953v.052c.882.311 1.415 1.14 1.708 2.348zm-1.035-5.198c0-1.502-1.088-2.16-2.678-2.16-.725 0-1.227.069-1.484.14v4.231h1.537c1.605.001 2.625-.881 2.625-2.211z" opacity=".1"/><path fill-rule="evenodd" clip-rule="evenodd" fill="#FFF" d="M19.447 15.589a9.674 9.674 0 0 1-3.848 3.856c-1.654.915-3.379 1.372-5.182 1.372-1.803 0-3.531-.457-5.182-1.372a9.702 9.702 0 0 1-3.857-3.856C.459 13.935 0 12.209 0 10.417c0-1.813.467-3.552 1.4-5.223a9.59 9.59 0 0 1 3.896-3.848C6.963.449 8.67 0 10.418 0c1.746 0 3.453.449 5.119 1.346a9.579 9.579 0 0 1 3.891 3.848c.93 1.67 1.395 3.41 1.395 5.223-.001 1.792-.46 3.518-1.376 5.172zM17.93 6.064a8.033 8.033 0 0 0-3.248-3.214c-1.389-.749-2.811-1.124-4.264-1.124-1.465 0-2.887.375-4.272 1.124a8.082 8.082 0 0 0-3.248 3.214c-.781 1.393-1.174 2.844-1.174 4.352 0 1.5.385 2.936 1.152 4.311a8.17 8.17 0 0 0 3.223 3.215c1.379.767 2.818 1.151 4.318 1.151 1.498 0 2.937-.384 4.318-1.151a8.143 8.143 0 0 0 3.215-3.215c.762-1.375 1.145-2.811 1.145-4.311.001-1.508-.388-2.959-1.165-4.352zm-4.137 7.042c.381 1.625.658 2.748.883 3.196h-1.555c-.191-.329-.449-1.33-.76-2.78-.346-1.607-.984-2.212-2.35-2.263H8.596v5.043H7.092V4.834c.76-.156 1.865-.259 2.885-.259 1.607 0 2.66.311 3.385.967.572.5.916 1.295.916 2.211 0 1.519-.982 2.539-2.193 2.953v.052c.882.311 1.415 1.14 1.708 2.348zm-1.035-5.198c0-1.503-1.088-2.16-2.678-2.16-.725 0-1.227.069-1.484.14v4.231h1.537c1.605.001 2.625-.881 2.625-2.211z"/></svg>