<svg xmlns="http://www.w3.org/2000/svg" width="180.968" height="20.718" viewBox="0 0 180.968 20.718"><path fill="#1D1D1B" d="M16.724 16.675h-3.223L12.22 13.34H6.354l-1.211 3.335H2L7.715 2h3.134l5.875 14.675zm-5.454-5.808L9.247 5.423l-1.982 5.444h4.005z" opacity=".1"/><path fill="#FFF" d="M14.724 14.675h-3.223L10.22 11.34H4.354l-1.211 3.335H0L5.715 0h3.134l5.875 14.675zM9.27 8.867L7.247 3.423 5.266 8.867H9.27z"/><path fill="#1D1D1B" d="M20.969 16.675h-2.813V6.043h2.613v1.514c.447-.717.85-1.185 1.206-1.412a2.218 2.218 0 0 1 1.216-.342c.641 0 1.257.177 1.852.531l-.871 2.451c-.474-.307-.914-.459-1.322-.459-.394 0-.727.108-1 .324-.274.217-.489.609-.646 1.175-.157.568-.235 1.757-.235 3.565v3.285z" opacity=".1"/><path fill="#FFF" d="M18.969 14.675h-2.813V4.043h2.613v1.514c.447-.717.85-1.185 1.206-1.412a2.218 2.218 0 0 1 1.216-.342c.641 0 1.257.177 1.852.531l-.871 2.451c-.474-.307-.914-.459-1.322-.459-.394 0-.727.108-1 .324-.274.217-.489.609-.646 1.175-.157.568-.235 1.757-.235 3.565v3.285z"/><path fill="#1D1D1B" d="M28.357 9.287l-2.554-.46c.287-1.029.781-1.79 1.482-2.282.7-.496 1.741-.742 3.123-.742 1.254 0 2.189.149 2.803.446.614.297 1.046.675 1.296 1.13.251.457.376 1.297.376 2.517l-.03 3.284c0 .935.045 1.624.135 2.066.091.445.259.919.506 1.428h-2.783a10.308 10.308 0 0 1-.271-.831 4.618 4.618 0 0 0-.1-.331c-.48.468-.995.816-1.542 1.052a4.423 4.423 0 0 1-1.751.35c-1.095 0-1.957-.297-2.587-.892-.631-.592-.947-1.343-.947-2.251 0-.601.144-1.138.432-1.607.286-.469.688-.83 1.206-1.08.517-.251 1.262-.469 2.237-.656 1.315-.245 2.226-.477 2.732-.691v-.279c0-.543-.133-.928-.4-1.157-.267-.23-.77-.347-1.511-.347-.501 0-.891.1-1.171.295-.282.199-.508.543-.681 1.038zm3.762 2.281c-.36.121-.93.265-1.711.432-.781.168-1.291.331-1.531.489-.367.261-.551.59-.551.991 0 .394.147.734.44 1.021.294.286.668.431 1.121.431.507 0 .991-.167 1.452-.502.34-.252.563-.562.67-.93.074-.241.109-.696.109-1.372v-.56z" opacity=".1"/><path fill="#FFF" d="M26.357 7.287l-2.554-.46c.287-1.029.781-1.79 1.482-2.282.7-.496 1.741-.742 3.123-.742 1.254 0 2.189.149 2.803.446.614.297 1.046.675 1.296 1.13.251.457.376 1.297.376 2.517l-.03 3.284c0 .935.045 1.624.135 2.066.091.445.259.919.506 1.428h-2.783a10.445 10.445 0 0 1-.271-.831 4.618 4.618 0 0 0-.1-.331c-.48.468-.995.816-1.542 1.052a4.423 4.423 0 0 1-1.751.35c-1.095 0-1.957-.297-2.587-.892-.631-.592-.947-1.343-.947-2.251 0-.601.144-1.138.432-1.607.286-.469.688-.83 1.206-1.08.517-.251 1.262-.469 2.237-.656 1.315-.245 2.226-.477 2.732-.691v-.279c0-.543-.133-.928-.4-1.157-.267-.23-.77-.347-1.511-.347-.501 0-.891.1-1.171.295-.282.199-.508.543-.681 1.038zm3.762 2.281c-.36.121-.93.265-1.711.432-.781.168-1.291.331-1.531.489-.367.261-.551.59-.551.991 0 .394.147.734.44 1.021.294.286.668.431 1.121.431.507 0 .991-.167 1.452-.502.34-.252.563-.562.67-.93.074-.241.109-.696.109-1.372v-.56z"/><path fill="#1D1D1B" d="M37.536 16.675V2h2.812v5.285c.868-.988 1.896-1.482 3.083-1.482 1.294 0 2.365.47 3.213 1.406.848.939 1.271 2.285 1.271 4.039 0 1.815-.432 3.214-1.296 4.193-.865.981-1.914 1.473-3.148 1.473a3.884 3.884 0 0 1-1.796-.456c-.591-.303-1.1-.752-1.527-1.345v1.562h-2.612zm2.792-5.547c0 1.101.174 1.915.521 2.443.487.747 1.134 1.121 1.942 1.121.621 0 1.148-.266 1.586-.796.437-.53.656-1.366.656-2.509 0-1.214-.22-2.089-.661-2.626-.44-.537-1.004-.808-1.692-.808-.674 0-1.235.263-1.682.787-.446.525-.67 1.321-.67 2.388z" opacity=".1"/><path fill="#FFF" d="M35.536 14.675V0h2.812v5.285c.868-.988 1.896-1.482 3.083-1.482 1.294 0 2.365.47 3.213 1.406.848.939 1.271 2.285 1.271 4.039 0 1.815-.432 3.214-1.296 4.193-.865.981-1.914 1.473-3.148 1.473a3.884 3.884 0 0 1-1.796-.456c-.591-.303-1.1-.752-1.527-1.345v1.562h-2.612zm2.792-5.547c0 1.101.174 1.915.521 2.443.487.747 1.134 1.121 1.942 1.121.621 0 1.148-.266 1.586-.796.437-.53.656-1.366.656-2.509 0-1.214-.22-2.089-.661-2.626-.44-.537-1.004-.808-1.692-.808-.674 0-1.235.263-1.682.787-.446.525-.67 1.321-.67 2.388z"/><path fill="#1D1D1B" d="M50.177 4.602V2h2.813v2.602h-2.813zm0 12.073V6.043h2.813v10.632h-2.813z" opacity=".1"/><path fill="#FFF" d="M48.177 2.602V0h2.813v2.602h-2.813zm0 12.073V4.043h2.813v10.632h-2.813z"/><path fill="#1D1D1B" d="M65.143 9.188l-2.774.499c-.093-.554-.305-.971-.635-1.251-.331-.28-.759-.419-1.286-.419-.702 0-1.26.241-1.677.725-.418.484-.626 1.292-.626 2.427 0 1.262.211 2.153.636 2.675.423.52.992.779 1.707.779.534 0 .971-.151 1.311-.455.34-.305.581-.827.72-1.567l2.763.472c-.286 1.267-.837 2.225-1.651 2.873-.814.646-1.905.97-3.273.97-1.555 0-2.795-.491-3.719-1.473-.925-.979-1.386-2.338-1.386-4.071 0-1.757.464-3.122 1.391-4.102.928-.976 2.182-1.466 3.764-1.466 1.294 0 2.323.28 3.087.836.765.555 1.314 1.405 1.648 2.548z" opacity=".1"/><path fill="#FFF" d="M63.143 7.188l-2.773.499c-.093-.554-.305-.971-.635-1.251-.331-.28-.759-.419-1.286-.419-.702 0-1.26.241-1.677.725-.418.484-.626 1.292-.626 2.427 0 1.262.211 2.153.636 2.675.423.52.992.779 1.707.779.534 0 .971-.151 1.311-.455.34-.305.581-.827.72-1.567l2.763.472c-.286 1.267-.837 2.225-1.651 2.873-.814.646-1.905.97-3.273.97-1.555 0-2.795-.491-3.719-1.473-.925-.979-1.386-2.338-1.386-4.071 0-1.757.464-3.122 1.391-4.102.928-.976 2.182-1.466 3.764-1.466 1.294 0 2.323.28 3.087.836.764.555 1.313 1.405 1.647 2.548z"/><path fill="#1D1D1B" d="M85.464 16.675h-3.226l-1.28-3.335h-5.866l-1.211 3.335h-3.143L76.454 2h3.134l5.876 14.675zm-5.457-5.808l-2.021-5.444-1.981 5.444h4.002z" opacity=".1"/><path fill="#FFF" d="M83.464 14.675h-3.226l-1.28-3.335h-5.866l-1.211 3.335h-3.143L74.454 0h3.134l5.876 14.675zm-5.458-5.808l-2.021-5.444-1.981 5.444h4.002z"/><path fill="#1D1D1B" d="M86.934 6.043h2.624v1.562a3.92 3.92 0 0 1 1.38-1.303c.58-.332 1.226-.5 1.933-.5 1.235 0 2.282.484 3.142 1.45.862.97 1.293 2.317 1.293 4.046 0 1.774-.436 3.154-1.302 4.139-.868.984-1.918 1.476-3.153 1.476a3.586 3.586 0 0 1-1.598-.35c-.477-.235-.978-.635-1.506-1.202v5.355h-2.813V6.043zm2.783 5.136c0 1.194.236 2.078.71 2.647s1.053.856 1.732.856c.654 0 1.198-.262 1.632-.786.434-.523.65-1.384.65-2.577 0-1.114-.224-1.942-.67-2.482-.447-.542-1.001-.812-1.663-.812-.687 0-1.258.266-1.711.796-.453.53-.68 1.316-.68 2.358z" opacity=".1"/><path fill="#FFF" d="M84.934 4.043h2.624v1.563a3.92 3.92 0 0 1 1.38-1.303c.58-.332 1.226-.5 1.933-.5 1.235 0 2.282.484 3.142 1.45.862.97 1.293 2.317 1.293 4.046 0 1.774-.436 3.154-1.302 4.139-.868.984-1.918 1.476-3.153 1.476a3.586 3.586 0 0 1-1.598-.35c-.477-.235-.978-.635-1.506-1.202v5.355h-2.813V4.043zm2.783 5.136c0 1.194.236 2.078.71 2.647s1.053.856 1.732.856c.654 0 1.198-.262 1.632-.786.434-.523.65-1.384.65-2.577 0-1.114-.224-1.942-.67-2.482-.447-.542-1.001-.812-1.663-.812-.687 0-1.258.266-1.711.796-.453.531-.68 1.316-.68 2.358z"/><path fill="#1D1D1B" d="M99.458 6.043h2.622v1.562c.339-.533.8-.969 1.38-1.303a3.83 3.83 0 0 1 1.933-.5c1.233 0 2.281.484 3.144 1.45.859.97 1.29 2.317 1.29 4.046 0 1.774-.434 3.154-1.301 4.139-.868.984-1.92 1.476-3.154 1.476-.587 0-1.12-.116-1.596-.35-.478-.235-.981-.635-1.507-1.202v5.355h-2.812V6.043zm2.782 5.136c0 1.194.234 2.078.709 2.647s1.053.856 1.732.856c.654 0 1.198-.262 1.632-.786.434-.523.65-1.384.65-2.577 0-1.114-.224-1.942-.672-2.482-.446-.542-1-.812-1.661-.812-.688 0-1.258.266-1.71.796-.454.53-.68 1.316-.68 2.358z" opacity=".1"/><path fill="#FFF" d="M97.458 4.043h2.622v1.563c.339-.533.8-.969 1.38-1.303a3.83 3.83 0 0 1 1.933-.5c1.233 0 2.281.484 3.144 1.45.859.97 1.29 2.317 1.29 4.046 0 1.774-.434 3.154-1.301 4.139-.868.984-1.92 1.476-3.154 1.476-.587 0-1.12-.116-1.596-.35-.478-.235-.981-.635-1.507-1.202v5.355h-2.812V4.043zm2.782 5.136c0 1.194.234 2.078.709 2.647s1.053.856 1.732.856c.654 0 1.198-.262 1.632-.786.434-.523.65-1.384.65-2.577 0-1.114-.224-1.942-.672-2.482-.446-.542-1-.812-1.661-.812-.688 0-1.258.266-1.71.796-.454.531-.68 1.316-.68 2.358z"/><path fill="#1D1D1B" d="M112.06 16.675V2h2.813v14.675h-2.813z" opacity=".1"/><path fill="#FFF" d="M110.06 14.675V0h2.813v14.675h-2.813z"/><path fill="#1D1D1B" d="M117.755 4.602V2h2.813v2.602h-2.813zm0 12.073V6.043h2.813v10.632h-2.813z" opacity=".1"/><path fill="#FFF" d="M115.755 2.602V0h2.813v2.602h-2.813zm0 12.073V4.043h2.813v10.632h-2.813z"/><path fill="#1D1D1B" d="M132.718 9.188l-2.771.499c-.094-.554-.308-.971-.637-1.251-.329-.28-.759-.419-1.285-.419-.702 0-1.259.241-1.676.725-.418.484-.626 1.292-.626 2.427 0 1.262.21 2.153.636 2.675.424.52.992.779 1.705.779.534 0 .973-.151 1.311-.455.341-.305.583-.827.722-1.567l2.764.472c-.289 1.267-.838 2.225-1.652 2.873-.813.646-1.905.97-3.273.97-1.556 0-2.794-.491-3.72-1.473-.924-.979-1.385-2.338-1.385-4.071 0-1.757.462-3.122 1.391-4.102.927-.976 2.183-1.466 3.765-1.466 1.295 0 2.322.28 3.087.836.763.555 1.313 1.405 1.644 2.548z" opacity=".1"/><path fill="#FFF" d="M130.718 7.188l-2.771.499c-.094-.554-.308-.971-.637-1.251-.329-.28-.759-.419-1.285-.419-.702 0-1.259.241-1.676.725-.418.484-.626 1.292-.626 2.427 0 1.262.21 2.153.636 2.675.424.52.992.779 1.705.779.534 0 .973-.151 1.311-.455.341-.305.583-.827.722-1.567l2.764.472c-.289 1.267-.838 2.225-1.652 2.873-.813.646-1.905.97-3.273.97-1.556 0-2.794-.491-3.72-1.473-.924-.979-1.385-2.338-1.385-4.071 0-1.757.462-3.122 1.391-4.102.927-.976 2.183-1.466 3.765-1.466 1.295 0 2.322.28 3.087.836.763.555 1.313 1.405 1.644 2.548z"/><path fill="#1D1D1B" d="M136.955 9.287l-2.554-.46c.286-1.029.78-1.79 1.482-2.282.699-.496 1.741-.742 3.122-.742 1.254 0 2.188.149 2.803.446.613.297 1.046.675 1.295 1.13.252.457.376 1.297.376 2.517l-.029 3.284c0 .935.045 1.624.135 2.066.09.445.258.919.506 1.428h-2.782a10.385 10.385 0 0 1-.27-.831 4.819 4.819 0 0 0-.102-.331 5.093 5.093 0 0 1-1.54 1.052 4.432 4.432 0 0 1-1.753.35c-1.094 0-1.956-.297-2.587-.892-.631-.592-.945-1.343-.945-2.251 0-.601.144-1.138.43-1.607.287-.469.689-.83 1.206-1.08.518-.251 1.262-.469 2.238-.656 1.316-.245 2.226-.477 2.732-.691v-.279c0-.543-.133-.928-.399-1.157-.269-.23-.773-.347-1.513-.347-.499 0-.89.1-1.171.295-.281.199-.509.543-.68 1.038zm3.762 2.281c-.36.121-.93.265-1.711.432-.781.168-1.292.331-1.532.489-.366.261-.551.59-.551.991 0 .394.148.734.441 1.021.293.286.668.431 1.121.431.508 0 .991-.167 1.452-.502.34-.252.563-.562.67-.93.073-.241.109-.696.109-1.372v-.56z" opacity=".1"/><path fill="#FFF" d="M134.955 7.287l-2.554-.46c.286-1.029.78-1.79 1.482-2.282.699-.496 1.741-.742 3.122-.742 1.254 0 2.188.149 2.803.446.613.297 1.046.675 1.295 1.13.252.457.376 1.297.376 2.517l-.029 3.284c0 .935.045 1.624.135 2.066.09.445.258.919.506 1.428h-2.782a10.524 10.524 0 0 1-.27-.831 4.819 4.819 0 0 0-.102-.331 5.093 5.093 0 0 1-1.54 1.052 4.432 4.432 0 0 1-1.753.35c-1.094 0-1.956-.297-2.587-.892-.631-.592-.945-1.343-.945-2.251 0-.601.144-1.138.43-1.607.287-.469.689-.83 1.206-1.08.518-.251 1.262-.469 2.238-.656 1.316-.245 2.226-.477 2.732-.691v-.279c0-.543-.133-.928-.399-1.157-.269-.23-.773-.347-1.513-.347-.499 0-.89.1-1.171.295-.281.199-.509.543-.68 1.038zm3.762 2.281c-.36.121-.93.265-1.711.432-.781.168-1.292.331-1.532.489-.366.261-.551.59-.551.991 0 .394.148.734.441 1.021.293.286.668.431 1.121.431.508 0 .991-.167 1.452-.502.34-.252.563-.562.67-.93.073-.241.109-.696.109-1.372v-.56z"/><path fill="#1D1D1B" d="M151.128 6.043v2.242h-1.922v4.283c0 .869.019 1.375.056 1.519a.603.603 0 0 0 .249.354.8.8 0 0 0 .477.14c.26 0 .637-.089 1.131-.269l.239 2.181c-.653.282-1.395.422-2.221.422a3.47 3.47 0 0 1-1.372-.256c-.406-.171-.706-.39-.896-.659-.189-.271-.321-.637-.395-1.096-.059-.327-.091-.989-.091-1.982V8.285h-1.291V6.043h1.291V3.932l2.823-1.644v3.755h1.922z" opacity=".1"/><path fill="#FFF" d="M149.128 4.043v2.242h-1.922v4.283c0 .869.019 1.375.056 1.519a.603.603 0 0 0 .249.354.8.8 0 0 0 .477.14c.26 0 .637-.089 1.131-.269l.239 2.181c-.653.282-1.395.422-2.221.422a3.47 3.47 0 0 1-1.372-.256c-.406-.171-.706-.39-.896-.659-.189-.271-.321-.637-.395-1.096-.059-.327-.091-.989-.091-1.982V6.285h-1.291V4.043h1.291V1.932l2.823-1.644v3.755h1.922z"/><path fill="#1D1D1B" d="M153.079 4.602V2h2.813v2.602h-2.813zm0 12.073V6.043h2.813v10.632h-2.813z" opacity=".1"/><path fill="#FFF" d="M151.079 2.602V0h2.813v2.602h-2.813zm0 12.073V4.043h2.813v10.632h-2.813z"/><path fill="#1D1D1B" d="M158.125 11.209c0-.934.229-1.839.691-2.713a4.719 4.719 0 0 1 1.956-2.002c.844-.461 1.786-.691 2.827-.691 1.609 0 2.926.521 3.955 1.566 1.026 1.046 1.541 2.364 1.541 3.959 0 1.607-.52 2.942-1.556 3.999-1.039 1.057-2.346 1.587-3.921 1.587a6.184 6.184 0 0 1-2.786-.66 4.523 4.523 0 0 1-2.017-1.937c-.461-.851-.69-1.887-.69-3.108zm2.882.149c0 1.055.252 1.862.752 2.423.501.561 1.117.841 1.852.841.732 0 1.35-.28 1.847-.841.497-.561.745-1.376.745-2.442 0-1.041-.248-1.841-.745-2.402-.497-.561-1.114-.841-1.847-.841-.734 0-1.35.279-1.852.841-.5.561-.752 1.368-.752 2.421z" opacity=".1"/><path fill="#FFF" d="M156.125 9.209c0-.934.229-1.839.691-2.713a4.719 4.719 0 0 1 1.956-2.002c.844-.461 1.786-.691 2.827-.691 1.609 0 2.926.521 3.955 1.566 1.026 1.046 1.541 2.364 1.541 3.959 0 1.607-.52 2.942-1.556 3.999-1.039 1.057-2.346 1.587-3.921 1.587a6.184 6.184 0 0 1-2.786-.66 4.523 4.523 0 0 1-2.017-1.937c-.461-.851-.69-1.887-.69-3.108zm2.882.149c0 1.055.252 1.862.752 2.423.501.561 1.117.841 1.852.841.732 0 1.35-.28 1.847-.841.497-.561.745-1.376.745-2.442 0-1.041-.248-1.841-.745-2.402-.497-.561-1.114-.841-1.847-.841-.734 0-1.35.279-1.852.841-.5.561-.752 1.368-.752 2.421z"/><path fill="#1D1D1B" d="M180.968 16.675h-2.813v-5.427c0-1.148-.061-1.889-.181-2.227a1.54 1.54 0 0 0-.586-.784c-.27-.188-.594-.282-.975-.282-.488 0-.925.137-1.312.402-.388.266-.651.62-.796 1.061-.145.44-.216 1.253-.216 2.443v4.814h-2.813V6.043h2.613v1.562c.927-1.201 2.096-1.803 3.503-1.803.622 0 1.188.111 1.702.336.515.223.901.508 1.165.856a3.1 3.1 0 0 1 .553 1.182c.103.441.154 1.071.154 1.892v6.607z" opacity=".1"/><path fill="#FFF" d="M178.968 14.675h-2.813V9.248c0-1.148-.061-1.889-.181-2.228a1.54 1.54 0 0 0-.586-.784c-.27-.188-.594-.282-.975-.282-.488 0-.925.137-1.312.402-.388.266-.651.62-.796 1.061-.145.44-.216 1.253-.216 2.443v4.814h-2.813V4.043h2.613v1.563c.927-1.201 2.096-1.803 3.503-1.803.622 0 1.188.111 1.702.336.515.223.901.508 1.165.856a3.1 3.1 0 0 1 .553 1.182c.103.441.154 1.071.154 1.892v6.606z"/></svg>