<svg xmlns="http://www.w3.org/2000/svg" width="72.136" height="103.44" viewBox="0 0 72.136 103.44"><path fill="#1D1D1B" d="M5 103.44V4h28.396c10.761 0 17.774.498 21.043 1.492 5.021 1.492 9.226 4.739 12.614 9.734 3.387 4.998 5.082 11.453 5.082 19.366 0 6.105-.978 11.237-2.93 15.397-1.952 4.161-4.435 7.427-7.444 9.801-3.008 2.376-6.066 3.946-9.175 4.714-4.226.95-10.342 1.425-18.354 1.425H22.697v37.511H5zm17.697-82.618V49.04h9.685c6.972 0 11.636-.521 13.987-1.559 2.351-1.04 4.194-2.668 5.529-4.885 1.335-2.215 2.002-4.793 2.002-7.734 0-3.615-.937-6.6-2.81-8.953-1.873-2.351-4.243-3.821-7.112-4.409-2.114-.449-6.357-.678-12.733-.678h-8.548z" opacity=".1"/><path fill="#FFF" d="M0 99.44V0h28.396C39.157 0 46.17.498 49.439 1.492c5.021 1.492 9.226 4.739 12.614 9.734 3.387 4.998 5.082 11.453 5.082 19.366 0 6.106-.978 11.237-2.93 15.398-1.952 4.161-4.435 7.427-7.444 9.801-3.008 2.376-6.066 3.946-9.175 4.714-4.226.95-10.342 1.425-18.354 1.425H17.697v37.51H0zm17.697-82.618V45.04h9.685c6.972 0 11.636-.521 13.987-1.559 2.351-1.04 4.194-2.668 5.529-4.885 1.335-2.215 2.002-4.793 2.002-7.734 0-3.615-.937-6.6-2.81-8.953-1.873-2.351-4.243-3.821-7.112-4.409-2.114-.45-6.357-.678-12.733-.678h-8.548z"/></svg>