<svg xmlns="http://www.w3.org/2000/svg" width="64.069" height="136.725" viewBox="0 0 64.069 136.725"><path fill="#1D1D1B" d="M64.069 41.477l-4.342 20.164-17.283-3.723-8.296 38.527c-1.68 7.801-2.496 12.383-2.442 13.743.051 1.363.573 2.591 1.562 3.681.989 1.093 2.323 1.82 4.004 2.182 2.34.505 5.904.424 10.695-.239L45.902 135.9c-6.425 1.254-13.357 1.08-20.797-.523-4.562-.98-8.508-2.632-11.838-4.95-3.332-2.319-5.59-4.878-6.777-7.675-1.187-2.8-1.666-6.34-1.433-10.624.092-3.056 1.103-9.054 3.028-17.997l8.975-41.677-11.612-2.502 4.343-20.163 11.611 2.501 4.09-18.994L54.056 4l-7.269 33.756 17.282 3.721z" opacity=".1"/><path fill="#FFF" d="M59.069 37.478l-4.342 20.164-17.283-3.723-8.296 38.527c-1.68 7.801-2.496 12.383-2.442 13.743.051 1.363.573 2.591 1.562 3.681.989 1.093 2.323 1.82 4.004 2.182 2.34.505 5.904.424 10.695-.239l-2.065 20.088c-6.425 1.254-13.357 1.08-20.797-.523-4.562-.98-8.508-2.632-11.838-4.95-3.332-2.319-5.59-4.878-6.777-7.675-1.187-2.8-1.665-6.34-1.433-10.624.092-3.056 1.103-9.054 3.028-17.997l8.975-41.677L.448 45.952l4.343-20.163 11.611 2.501 4.09-18.994L49.056 0l-7.269 33.756 17.282 3.722z"/></svg>