<svg xmlns="http://www.w3.org/2000/svg" width="82.789" height="89.363" viewBox="0 0 82.789 89.363"><path fill="#1D1D1B" d="M53.658 65.28l18.91 10.465c-5.184 6.458-11.244 10.631-18.177 12.517-6.934 1.886-14.589 1.351-22.963-1.604C18.172 81.982 9.889 74.191 6.579 63.283c-2.577-8.71-2-18.354 1.73-28.931C12.766 21.719 19.558 12.99 28.685 8.164c9.128-4.824 18.741-5.457 28.839-1.895 11.341 4.002 18.969 10.902 22.885 20.705 3.913 9.803 3.001 22.382-2.738 37.737L27.135 46.885c-1.966 6.033-1.981 11.26-.043 15.683 1.936 4.423 5.226 7.455 9.869 9.091 3.159 1.113 6.118 1.189 8.88.227 2.76-.963 5.365-3.164 7.817-6.606zm8.34-19.981c1.915-5.887 1.974-10.858.175-14.91-1.8-4.052-4.757-6.804-8.873-8.256-4.403-1.554-8.605-1.232-12.607.961-4.001 2.194-6.951 6.051-8.843 11.572l30.148 10.633z" opacity=".1"/><path fill="#FFF" d="M48.658 61.28l18.91 10.465c-5.184 6.458-11.244 10.631-18.177 12.517-6.934 1.886-14.589 1.351-22.963-1.604C13.172 77.982 4.889 70.191 1.579 59.283c-2.577-8.71-2-18.354 1.73-28.931C7.766 17.719 14.558 8.99 23.685 4.164 32.813-.66 42.426-1.293 52.524 2.268 63.865 6.27 71.493 13.171 75.409 22.973c3.913 9.803 3.001 22.382-2.738 37.737L22.135 42.885c-1.966 6.033-1.981 11.26-.043 15.683 1.936 4.424 5.226 7.455 9.869 9.091 3.159 1.113 6.118 1.189 8.88.227 2.76-.963 5.365-3.165 7.817-6.606zm8.34-19.981c1.915-5.887 1.974-10.858.175-14.91-1.8-4.052-4.757-6.804-8.873-8.256-4.403-1.554-8.605-1.232-12.607.961-4.001 2.194-6.951 6.051-8.843 11.572l30.148 10.633z"/></svg>