<svg xmlns="http://www.w3.org/2000/svg" width="525.004" height="112.856" viewBox="0 0 525.004 112.856"><path d="M.327 36.359a4.974 4.974 0 0 1-.285-2.403c.104-.8.379-1.486.822-2.055A3.52 3.52 0 0 1 2.603 30.7c.716-.231 1.518-.158 2.403.221.8.338 1.486.833 2.055 1.486a6.212 6.212 0 0 0 2.055 1.549c1.096.548 2.213.948 3.352 1.201.8.211 1.602.348 2.403.411.8.063 1.622.095 2.466.095.632-.168 1.18-.337 1.644-.506.463-.168.969-.526 1.518-1.075.632-.547 1.043-1.202 1.233-1.96a4.515 4.515 0 0 0 0-2.245 4.97 4.97 0 0 0-1.075-2.023 3.882 3.882 0 0 0-1.929-1.233 31.356 31.356 0 0 0-4.426-1.17c-1.476-.274-2.909-.601-4.3-.98s-2.709-.917-3.952-1.613c-1.244-.695-2.393-1.696-3.446-3.003-.591-.716-.97-1.349-1.138-1.897a40.225 40.225 0 0 1-.569-2.086c-.379-2.023-.221-3.731.474-5.122a16.238 16.238 0 0 1 2.625-3.794C5.343 5.48 6.871 4.353 8.578 3.573a18.254 18.254 0 0 1 5.375-1.518 19.887 19.887 0 0 1 5.691.126c1.918.316 3.741.854 5.47 1.612 1.012.422 1.654 1.075 1.929 1.96.273.885.285 1.75.032 2.593a4.02 4.02 0 0 1-1.455 2.086c-.717.549-1.56.738-2.529.569a56.835 56.835 0 0 1-2.846-.664 40.887 40.887 0 0 0-2.656-.601 7.485 7.485 0 0 0-2.181-.063c-.781.085-1.518.222-2.213.411-.695.19-1.339.401-1.929.632-.591.232-1.033.475-1.328.728a5.958 5.958 0 0 0-.98 1.138 3.144 3.144 0 0 0-.537 1.581c-.085.717.189 1.307.822 1.771a6.502 6.502 0 0 0 2.023 1.012c1.391.295 2.824.58 4.3.854 1.475.275 2.93.654 4.363 1.138a19.973 19.973 0 0 1 4.015 1.866c1.243.759 2.308 1.771 3.193 3.035a9.924 9.924 0 0 1 2.087 3.73c.421 1.391.579 2.782.474 4.173a12.65 12.65 0 0 1-.98 4.016 10.615 10.615 0 0 1-2.277 3.383 13.42 13.42 0 0 1-2.118 1.739 36.24 36.24 0 0 1-2.371 1.423 11.534 11.534 0 0 1-5.438 1.328c-1.939 0-3.879-.285-5.817-.854a23.664 23.664 0 0 1-5.501-2.403c-1.729-1.032-3.204-2.16-4.426-3.383l-.443-.632zm57.161-3.415c.759.042 1.423.243 1.992.601a4.852 4.852 0 0 1 1.391 1.296c.358.506.569 1.086.632 1.739.063.654-.074 1.318-.411 1.992-.126.295-.39.644-.79 1.043-.401.401-.77.643-1.107.727a38.076 38.076 0 0 1-8.315 1.486 49.168 49.168 0 0 1-8.441-.158 152.31 152.31 0 0 0-2.625-.253c-.948-.085-1.781-.359-2.498-.822-1.307-.843-1.96-2.044-1.96-3.604V10.054a4.076 4.076 0 0 1-1.138-1.265 4.056 4.056 0 0 1-.538-1.612 3.363 3.363 0 0 1 .221-1.644c.21-.526.569-.98 1.075-1.359a6.86 6.86 0 0 1 2.909-1.359 67.129 67.129 0 0 1 3.225-.601 43.207 43.207 0 0 1 6.576-.506c2.191 0 4.426-.021 6.703-.063.674 0 1.455-.052 2.34-.158.885-.104 1.665-.032 2.339.221.8.295 1.433.759 1.897 1.391.463.632.737 1.307.822 2.023.084.717-.053 1.413-.411 2.087-.358.675-.98 1.201-1.865 1.581a8.212 8.212 0 0 1-3.383.569 98.852 98.852 0 0 0-3.446-.063c-1.603 0-3.204.022-4.806.063a46.266 46.266 0 0 0-4.806.379v8.79c1.518.085 3.035.085 4.553 0a165.72 165.72 0 0 0 4.553-.316 32.15 32.15 0 0 0 2.023-.189 8.663 8.663 0 0 1 2.086 0c.927.126 1.644.506 2.15 1.138s.812 1.338.917 2.118c.105.78-.032 1.549-.411 2.308s-.991 1.307-1.833 1.644c-.717.295-1.687.517-2.909.664a52.582 52.582 0 0 1-3.857.316 85.438 85.438 0 0 1-7.271.032v7.777a32.45 32.45 0 0 0 7.019.126c2.36-.21 4.679-.61 6.956-1.201h.442zm33.45 1.707c.969.464 1.707 1.054 2.213 1.771.506.717.748 1.445.728 2.182-.022.738-.295 1.434-.822 2.087-.527.653-1.339 1.148-2.435 1.486-.422.126-1.012.2-1.771.221-.759.021-1.813.032-3.162.032h-5.122c-2.066 0-4.616.021-7.651.063-.759.042-1.539.063-2.339.063a2.966 2.966 0 0 1-2.087-.822c-.506-.422-.875-1.064-1.106-1.929a14.138 14.138 0 0 1-.443-2.719 31.78 31.78 0 0 1-.063-2.845c.021-.949.032-1.739.032-2.372 0-1.265.01-2.719.031-4.363l.063-5.027c.021-1.707.032-3.383.032-5.027v-4.363c0-2.234.021-4.036.063-5.407.042-1.369.136-2.444.285-3.225.147-.78.389-1.349.727-1.708.337-.357.8-.664 1.391-.917.506-.21 1.064-.284 1.676-.221a4.72 4.72 0 0 1 1.707.506c.527.275.969.654 1.328 1.138.357.485.538 1.022.538 1.612.084 5.059.084 10.076 0 15.05a873.513 873.513 0 0 0-.126 14.923c2.656 0 5.301-.032 7.936-.095 2.634-.063 5.301-.137 7.999-.222l.378.128zm40.532 4.3c-.126.928-.442 1.718-.948 2.372-.506.653-1.086 1.106-1.739 1.359-.654.253-1.35.285-2.086.095-.738-.189-1.423-.686-2.055-1.486-.548-.674-.854-1.423-.917-2.245a18.908 18.908 0 0 0-.348-2.435 54.305 54.305 0 0 0-1.834-7.146c-2.614.042-5.207.063-7.777.063-2.572 0-5.144.021-7.714.063a35.831 35.831 0 0 0-.98 3.352 365.729 365.729 0 0 0-.79 3.351 43.432 43.432 0 0 0-.569 2.625 4.89 4.89 0 0 1-1.138 2.371c-.717.843-1.486 1.317-2.308 1.423-.822.104-1.56-.032-2.213-.411-.654-.379-1.181-.959-1.581-1.739-.401-.78-.537-1.676-.411-2.688.126-1.306.379-2.593.759-3.857s.737-2.529 1.075-3.794a139.737 139.737 0 0 1 7.335-21.057c.253-.59.516-1.159.791-1.707.273-.547.538-1.096.791-1.644.294-.59.59-1.222.885-1.897.294-.674.642-1.296 1.043-1.865.4-.569.875-1.053 1.423-1.455.547-.4 1.222-.601 2.023-.601 1.053 0 1.938.338 2.656 1.012a38.697 38.697 0 0 1 7.082 9.706 120.83 120.83 0 0 1 4.996 11.034 26.693 26.693 0 0 1 2.593 0c.843.042 1.602.422 2.276 1.138.59.591.938 1.223 1.043 1.897a3.88 3.88 0 0 1-.189 1.96 4.006 4.006 0 0 1-1.138 1.644c-.528.464-1.17.78-1.929.948a61.372 61.372 0 0 1 1.106 4.521c.316 1.539.579 3.088.791 4.647v.446zm-12.9-17.199a123.305 123.305 0 0 0-2.561-5.659 43.023 43.023 0 0 0-3.067-5.343 134.098 134.098 0 0 0-2.371 5.533 97.746 97.746 0 0 0-2.055 5.596c1.981-.042 3.72-.063 5.217-.063 1.496-.001 3.108-.022 4.837-.064zm47.867-2.529c1.012.295 1.771.833 2.276 1.612.506.781.748 1.592.727 2.435-.022.844-.285 1.634-.791 2.371-.506.738-1.244 1.212-2.213 1.423v11.002c0 1.054-.264 1.992-.791 2.814-.528.822-1.17 1.401-1.929 1.739-.759.337-1.56.411-2.403.221-.844-.19-1.603-.749-2.276-1.676a3.72 3.72 0 0 1-.601-1.455 8.011 8.011 0 0 1-.158-1.518V27.253h-14.733v10.75c0 .464-.042.938-.126 1.423a4.122 4.122 0 0 1-.442 1.296c-.548 1.012-1.244 1.665-2.087 1.96-.844.294-1.666.285-2.466-.032-.801-.316-1.486-.864-2.055-1.644-.569-.779-.854-1.739-.854-2.877V5.438c0-1.096.326-2.044.98-2.846.653-.8 1.401-1.359 2.245-1.675a3.816 3.816 0 0 1 2.561-.063c.863.275 1.507.938 1.929 1.992a4.8 4.8 0 0 1 .253.917c.042.275.063.58.063.917v14.29h14.733V5.438c0-.843.189-1.644.569-2.403.463-.927 1.127-1.581 1.992-1.96.863-.379 1.707-.484 2.529-.316.822.169 1.538.58 2.15 1.233.61.654.917 1.549.917 2.688v14.543zm53.305 13.721c.759.042 1.423.243 1.992.601a4.852 4.852 0 0 1 1.391 1.296c.358.506.569 1.086.632 1.739.063.654-.074 1.318-.411 1.992-.126.295-.39.644-.79 1.043-.401.401-.77.643-1.107.727a38.076 38.076 0 0 1-8.315 1.486 49.168 49.168 0 0 1-8.441-.158 152.31 152.31 0 0 0-2.625-.253c-.948-.085-1.781-.359-2.498-.822-1.307-.843-1.96-2.044-1.96-3.604V10.054a4.076 4.076 0 0 1-1.138-1.265 4.056 4.056 0 0 1-.538-1.612 3.363 3.363 0 0 1 .221-1.644c.21-.526.569-.98 1.075-1.359a6.86 6.86 0 0 1 2.909-1.359 67.129 67.129 0 0 1 3.225-.601 43.207 43.207 0 0 1 6.576-.506c2.191 0 4.426-.021 6.703-.063.674 0 1.455-.052 2.34-.158.885-.104 1.665-.032 2.339.221.8.295 1.433.759 1.897 1.391.463.632.737 1.307.822 2.023.084.717-.053 1.413-.411 2.087-.358.675-.98 1.201-1.865 1.581a8.212 8.212 0 0 1-3.383.569 98.852 98.852 0 0 0-3.446-.063c-1.603 0-3.204.022-4.806.063a46.266 46.266 0 0 0-4.806.379v8.79c1.518.085 3.035.085 4.553 0a165.72 165.72 0 0 0 4.553-.316 32.15 32.15 0 0 0 2.023-.189 8.663 8.663 0 0 1 2.086 0c.927.126 1.644.506 2.15 1.138s.812 1.338.917 2.118c.105.78-.032 1.549-.411 2.308s-.991 1.307-1.833 1.644c-.717.295-1.687.517-2.909.664a52.582 52.582 0 0 1-3.857.316 85.438 85.438 0 0 1-7.271.032v7.777a32.45 32.45 0 0 0 7.019.126c2.36-.21 4.679-.61 6.956-1.201h.442zm33.449 1.707c.969.464 1.707 1.054 2.213 1.771.506.717.748 1.445.728 2.182-.022.738-.295 1.434-.822 2.087-.527.653-1.339 1.148-2.435 1.486-.422.126-1.012.2-1.771.221-.759.021-1.813.032-3.162.032h-5.122c-2.066 0-4.616.021-7.651.063-.759.042-1.539.063-2.339.063a2.966 2.966 0 0 1-2.087-.822c-.506-.422-.875-1.064-1.106-1.929a14.138 14.138 0 0 1-.443-2.719 31.78 31.78 0 0 1-.063-2.845c.021-.949.032-1.739.032-2.372 0-1.265.01-2.719.031-4.363l.063-5.027c.021-1.707.032-3.383.032-5.027v-4.363c0-2.234.021-4.036.063-5.407.042-1.369.136-2.444.285-3.225.147-.78.389-1.349.727-1.708.337-.357.8-.664 1.391-.917.506-.21 1.064-.284 1.676-.221a4.72 4.72 0 0 1 1.707.506c.527.275.969.654 1.328 1.138.357.485.538 1.022.538 1.612.084 5.059.084 10.076 0 15.05a873.513 873.513 0 0 0-.126 14.923c2.656 0 5.301-.032 7.936-.095 2.634-.063 5.301-.137 7.999-.222l.378.128zm53.305-32.754c.8.338 1.464.875 1.992 1.612.526.738.843 1.497.948 2.276.105.781-.042 1.486-.442 2.118-.401.632-1.106 1.054-2.118 1.265-1.94.338-3.763.485-5.47.443a184.387 184.387 0 0 0-4.458-.063c0 5.059.021 10.034.063 14.923.042 4.891.021 10.054-.063 15.492 0 1.18-.401 2.034-1.202 2.561a4.003 4.003 0 0 1-2.624.664c-.948-.085-1.824-.464-2.624-1.138-.801-.675-1.202-1.602-1.202-2.782-.042-4.974-.063-9.928-.063-14.86V9.548c-.379 0-1.023.022-1.929.063-.907.042-1.897.053-2.972.032a30.326 30.326 0 0 1-3.319-.253c-1.138-.147-2.129-.432-2.972-.854-.675-.337-1.117-.832-1.328-1.486a3.364 3.364 0 0 1-.032-1.992c.189-.674.538-1.306 1.043-1.897a3.782 3.782 0 0 1 1.897-1.202 131.4 131.4 0 0 1 10.275-.221c3.309.063 6.671.095 10.086.095 1.012 0 2.023-.01 3.035-.031 1.012-.021 2.044-.032 3.099-.032l.38.127zm29.466 31.047c.759.042 1.423.243 1.992.601a4.852 4.852 0 0 1 1.391 1.296c.358.506.569 1.086.632 1.739.063.654-.074 1.318-.411 1.992-.126.295-.39.644-.79 1.043-.401.401-.77.643-1.107.727a38.076 38.076 0 0 1-8.315 1.486 49.168 49.168 0 0 1-8.441-.158 152.31 152.31 0 0 0-2.625-.253c-.948-.085-1.781-.359-2.498-.822-1.307-.843-1.96-2.044-1.96-3.604V10.054a4.076 4.076 0 0 1-1.138-1.265 4.056 4.056 0 0 1-.538-1.612 3.363 3.363 0 0 1 .221-1.644c.21-.526.569-.98 1.075-1.359a6.86 6.86 0 0 1 2.909-1.359 67.129 67.129 0 0 1 3.225-.601 43.207 43.207 0 0 1 6.576-.506c2.191 0 4.426-.021 6.703-.063.674 0 1.455-.052 2.34-.158.885-.104 1.665-.032 2.339.221.8.295 1.433.759 1.897 1.391.463.632.737 1.307.822 2.023.084.717-.053 1.413-.411 2.087-.358.675-.98 1.201-1.865 1.581a8.212 8.212 0 0 1-3.383.569 98.852 98.852 0 0 0-3.446-.063c-1.603 0-3.204.022-4.806.063a46.266 46.266 0 0 0-4.806.379v8.79c1.518.085 3.035.085 4.553 0a165.72 165.72 0 0 0 4.553-.316 32.15 32.15 0 0 0 2.023-.189 8.663 8.663 0 0 1 2.086 0c.927.126 1.644.506 2.15 1.138s.812 1.338.917 2.118c.105.78-.032 1.549-.411 2.308s-.991 1.307-1.833 1.644c-.717.295-1.687.517-2.909.664a52.582 52.582 0 0 1-3.857.316 85.438 85.438 0 0 1-7.271.032v7.777a32.45 32.45 0 0 0 7.019.126c2.36-.21 4.679-.61 6.956-1.201h.442zm33.449 1.707c.969.464 1.707 1.054 2.213 1.771.506.717.748 1.445.728 2.182-.022.738-.295 1.434-.822 2.087-.527.653-1.339 1.148-2.435 1.486-.422.126-1.012.2-1.771.221-.759.021-1.813.032-3.162.032h-5.122c-2.066 0-4.616.021-7.651.063-.759.042-1.539.063-2.339.063a2.966 2.966 0 0 1-2.087-.822c-.506-.422-.875-1.064-1.106-1.929a14.138 14.138 0 0 1-.443-2.719 31.78 31.78 0 0 1-.063-2.845c.021-.949.032-1.739.032-2.372 0-1.265.01-2.719.031-4.363l.063-5.027c.021-1.707.032-3.383.032-5.027v-4.363c0-2.234.021-4.036.063-5.407.042-1.369.136-2.444.285-3.225.147-.78.389-1.349.727-1.708.337-.357.8-.664 1.391-.917.506-.21 1.064-.284 1.676-.221a4.72 4.72 0 0 1 1.707.506c.527.275.969.654 1.328 1.138.357.485.538 1.022.538 1.612.084 5.059.084 10.076 0 15.05a873.513 873.513 0 0 0-.126 14.923c2.656 0 5.301-.032 7.936-.095 2.634-.063 5.301-.137 7.999-.222l.378.128zm51.852 4.49c-.126.928-.464 1.717-1.012 2.371-.548.653-1.181 1.107-1.897 1.36a3.454 3.454 0 0 1-2.213.031c-.759-.232-1.391-.79-1.897-1.675a5.2 5.2 0 0 1-.727-2.245 132.45 132.45 0 0 0-.221-2.435 42.534 42.534 0 0 0-.285-2.434c-.106-.696-.221-1.507-.348-2.435a204.129 204.129 0 0 0-1.265-7.493 162.116 162.116 0 0 0-1.581-7.43 234.378 234.378 0 0 0-2.403 6.26 989.279 989.279 0 0 0-2.276 6.26c-.591 1.56-1.17 3.13-1.739 4.711a38.502 38.502 0 0 1-1.992 4.584c-.253.506-.675.917-1.265 1.233a4.565 4.565 0 0 1-1.897.537 4.362 4.362 0 0 1-1.897-.284 2.49 2.49 0 0 1-1.328-1.17 2536.527 2536.527 0 0 1-10.687-20.867c-.211 2.15-.401 4.311-.569 6.481a329.238 329.238 0 0 1-.569 6.481c-.042.675-.085 1.497-.126 2.466a48.04 48.04 0 0 1-.221 2.94 52.93 52.93 0 0 1-.379 2.845c-.148.907-.39 1.613-.727 2.119-.506.843-1.17 1.391-1.992 1.644-.822.253-1.623.273-2.403.063a3.712 3.712 0 0 1-1.96-1.296c-.528-.654-.77-1.486-.727-2.498a67.72 67.72 0 0 1 .442-5.122c.21-1.686.4-3.393.569-5.122.337-3.751.685-7.482 1.043-11.192.358-3.709.706-7.461 1.043-11.255.084-1.096.305-2.107.664-3.035.357-.927 1.127-1.581 2.308-1.96a3.392 3.392 0 0 1 1.454-.189c.506.042.969.189 1.391.442.927.591 1.654 1.402 2.182 2.435a631.58 631.58 0 0 1 1.486 2.94c.8 1.518 1.581 3.046 2.34 4.584a982.341 982.341 0 0 0 2.276 4.584 287.801 287.801 0 0 0 5.754 11.382c.253-.632.495-1.265.728-1.897a66.97 66.97 0 0 1 .727-1.897 64.76 64.76 0 0 0 1.296-3.32c.4-1.117.811-2.223 1.233-3.32.59-1.433 1.148-2.845 1.676-4.236a202.21 202.21 0 0 0 1.549-4.237 45.311 45.311 0 0 0 1.201-3.415c.379-1.222.99-2.255 1.834-3.099.59-.632 1.233-1.012 1.928-1.138.696-.126 1.349-.073 1.96.158.61.232 1.159.623 1.644 1.17a4.94 4.94 0 0 1 1.043 1.897c.253.97.547 2.066.885 3.288.337 1.223.632 2.319.885 3.288a145.94 145.94 0 0 1 1.265 5.217 178.2 178.2 0 0 1 1.075 5.217c.59 2.909 1.107 5.786 1.549 8.631.443 2.845.832 5.722 1.17 8.631v.446zm26.81-6.197c.759.042 1.423.243 1.992.601a4.852 4.852 0 0 1 1.391 1.296c.358.506.569 1.086.632 1.739.063.654-.074 1.318-.411 1.992-.126.295-.39.644-.79 1.043-.401.401-.77.643-1.107.727a38.076 38.076 0 0 1-8.315 1.486 49.168 49.168 0 0 1-8.441-.158 152.31 152.31 0 0 0-2.625-.253c-.948-.085-1.781-.359-2.498-.822-1.307-.843-1.96-2.044-1.96-3.604V10.054a4.076 4.076 0 0 1-1.138-1.265 4.056 4.056 0 0 1-.538-1.612 3.363 3.363 0 0 1 .221-1.644c.21-.526.569-.98 1.075-1.359a6.86 6.86 0 0 1 2.909-1.359 67.129 67.129 0 0 1 3.225-.601 43.207 43.207 0 0 1 6.576-.506c2.191 0 4.426-.021 6.703-.063.674 0 1.455-.052 2.34-.158.885-.104 1.665-.032 2.339.221.8.295 1.433.759 1.897 1.391.463.632.737 1.307.822 2.023.084.717-.053 1.413-.411 2.087-.358.675-.98 1.201-1.865 1.581a8.212 8.212 0 0 1-3.383.569 98.852 98.852 0 0 0-3.446-.063c-1.603 0-3.204.022-4.806.063a46.266 46.266 0 0 0-4.806.379v8.79c1.518.085 3.035.085 4.553 0a165.72 165.72 0 0 0 4.553-.316 32.15 32.15 0 0 0 2.023-.189 8.663 8.663 0 0 1 2.086 0c.927.126 1.644.506 2.15 1.138s.812 1.338.917 2.118c.105.78-.032 1.549-.411 2.308s-.991 1.307-1.833 1.644c-.717.295-1.687.517-2.909.664a52.582 52.582 0 0 1-3.857.316 85.438 85.438 0 0 1-7.271.032v7.777a32.45 32.45 0 0 0 7.019.126c2.36-.21 4.679-.61 6.956-1.201h.442zm32.564 0c.759.042 1.423.243 1.992.601a4.852 4.852 0 0 1 1.391 1.296c.358.506.569 1.086.632 1.739.063.654-.074 1.318-.411 1.992-.126.295-.39.644-.79 1.043-.401.401-.77.643-1.107.727a38.076 38.076 0 0 1-8.315 1.486 49.168 49.168 0 0 1-8.441-.158 152.31 152.31 0 0 0-2.625-.253c-.948-.085-1.781-.359-2.498-.822-1.307-.843-1.96-2.044-1.96-3.604V10.054a4.076 4.076 0 0 1-1.138-1.265 4.056 4.056 0 0 1-.538-1.612 3.363 3.363 0 0 1 .221-1.644c.21-.526.569-.98 1.075-1.359a6.86 6.86 0 0 1 2.909-1.359 67.129 67.129 0 0 1 3.225-.601 43.207 43.207 0 0 1 6.576-.506c2.191 0 4.426-.021 6.703-.063.674 0 1.455-.052 2.34-.158.885-.104 1.665-.032 2.339.221.8.295 1.433.759 1.897 1.391.463.632.737 1.307.822 2.023.084.717-.053 1.413-.411 2.087-.358.675-.98 1.201-1.865 1.581a8.212 8.212 0 0 1-3.383.569 98.852 98.852 0 0 0-3.446-.063c-1.603 0-3.204.022-4.806.063a46.266 46.266 0 0 0-4.806.379v8.79c1.518.085 3.035.085 4.553 0a165.72 165.72 0 0 0 4.553-.316 32.15 32.15 0 0 0 2.023-.189 8.663 8.663 0 0 1 2.086 0c.927.126 1.644.506 2.15 1.138s.812 1.338.917 2.118c.105.78-.032 1.549-.411 2.308s-.991 1.307-1.833 1.644c-.717.295-1.687.517-2.909.664a52.582 52.582 0 0 1-3.857.316 85.438 85.438 0 0 1-7.271.032v7.777a32.45 32.45 0 0 0 7.019.126c2.36-.21 4.679-.61 6.956-1.201h.442zm12.646 9.296c-.675 0-1.328-.18-1.96-.538-.632-.359-1.138-.813-1.518-1.36s-.601-1.159-.664-1.833c-.063-.674.136-1.306.601-1.897.126-.463.379-1.001.759-1.612a45.26 45.26 0 0 1 1.202-1.834c.421-.61.843-1.18 1.265-1.707.421-.527.716-.938.885-1.233a122.786 122.786 0 0 1 7.619-9.643 407.779 407.779 0 0 1 8.252-9.137 202.672 202.672 0 0 1-7.208.127c-1.687 0-3.457.063-5.312.189-1.855.126-3.604-.063-5.248-.569-.928-.294-1.592-.78-1.992-1.455a3.54 3.54 0 0 1-.506-2.15c.063-.759.337-1.475.822-2.15.484-.674 1.148-1.159 1.992-1.455.379-.126.99-.199 1.834-.221a54.635 54.635 0 0 1 2.624 0c.906.022 1.749.053 2.529.095.779.042 1.317.063 1.612.063 1.897 0 3.804-.021 5.723-.063l5.786-.126c.632 0 1.265-.01 1.897-.031a59.062 59.062 0 0 1 1.96-.032h2.118c.78 0 1.518.095 2.213.285a4.548 4.548 0 0 1 1.833.98c.527.464.832 1.138.917 2.023.084.632.042 1.181-.126 1.644a4.223 4.223 0 0 1-.727 1.265 7.744 7.744 0 0 1-1.106 1.075c-.422.338-.844.695-1.265 1.075-.97.844-1.919 1.697-2.846 2.561a45.463 45.463 0 0 0-2.656 2.688 246.504 246.504 0 0 0-7.208 8.188 156.572 156.572 0 0 0-6.766 8.631c1.475.042 2.961.095 4.458.158 1.496.063 2.982.116 4.458.158 1.349.042 2.719.054 4.11.032a24.241 24.241 0 0 0 4.11-.411 28.37 28.37 0 0 0 2.561-.506c.863-.21 1.717-.104 2.561.316.59.295 1.064.695 1.422 1.201.358.506.579 1.054.664 1.644.084.591.042 1.17-.126 1.739-.169.569-.506 1.085-1.012 1.549a5.261 5.261 0 0 1-2.435 1.233c-.907.189-1.781.369-2.624.538a32.314 32.314 0 0 1-6.355.506 160.243 160.243 0 0 1-6.386-.253 162.353 162.353 0 0 0-6.387-.253 32.065 32.065 0 0 0-6.354.506zM73.202 73.224c.253-.843.664-1.539 1.233-2.087.569-.547 1.19-.906 1.865-1.075.674-.168 1.359-.126 2.055.126.695.253 1.296.759 1.802 1.518.168.211.326.464.474.759.147.295.221.569.221.822 0 .464-.021 1.244-.063 2.34a169.087 169.087 0 0 0-.095 3.351 106 106 0 0 1-.095 3.036 135.9 135.9 0 0 0-.063 1.391 121.702 121.702 0 0 1-.443 6.797 95.59 95.59 0 0 1-.885 6.797 45.4 45.4 0 0 1-1.201 4.901c-.464 1.497-1.097 2.825-1.897 3.983a11.722 11.722 0 0 1-3.036 3.003c-1.223.843-2.741 1.518-4.553 2.024-.717.21-1.465.357-2.245.442-.78.084-1.528.126-2.245.126-2.108 0-4.258-.401-6.45-1.201-2.488-.969-4.363-2.571-5.628-4.806-1.265-2.234-2.15-4.731-2.656-7.493a44.454 44.454 0 0 1-.727-8.378c.021-2.824.032-5.312.032-7.461a116.113 116.113 0 0 1 .126-5.376c0-.632.021-1.296.063-1.992.042-.696.168-1.36.379-1.992.21-.632.538-1.18.98-1.644.443-.463 1.064-.779 1.866-.948.463-.084.958-.042 1.486.126A4.638 4.638 0 0 1 56 72.178c.294.443.443.917.443 1.423v2.687c0 .316-.011.643-.032.98-.022.338-.032.78-.032 1.328a272.359 272.359 0 0 0-.126 8.315c0 2.761.168 5.512.506 8.252.126 1.138.316 2.319.569 3.541.253 1.223.759 2.276 1.518 3.162.674.801 1.549 1.359 2.624 1.676a8.242 8.242 0 0 0 3.288.284 9.152 9.152 0 0 0 3.162-.948c.99-.506 1.76-1.18 2.308-2.023.547-.843.969-1.834 1.265-2.972.294-1.138.516-2.318.664-3.541a54.25 54.25 0 0 0 .316-3.636c.063-1.202.116-2.308.158-3.32a145.516 145.516 0 0 0 .315-6.07c.042-.885.063-1.771.063-2.656s.021-1.771.063-2.656l.13-2.78zm38.255 34.588c-.126 1.054-.517 1.917-1.169 2.593-.654.674-1.391 1.096-2.213 1.265-.822.168-1.612.063-2.371-.316s-1.307-1.117-1.644-2.213a9.862 9.862 0 0 1-.443-3.699c.084-1.286.126-2.476.126-3.573 0-2.276.01-4.542.032-6.797a66.881 66.881 0 0 0-.285-6.798 2.258 2.258 0 0 0-.126-.221 2.204 2.204 0 0 0-.253-.285c-.97-.253-2.002-.189-3.098.19-1.097.379-2.023.864-2.782 1.454-.675.548-1.339 1.296-1.992 2.245-.654.949-.98 1.866-.98 2.751v8.726c0 .675.021 1.413.063 2.213.042.801.01 1.581-.095 2.34a5.479 5.479 0 0 1-.727 2.087c-.379.632-.991 1.096-1.833 1.391-.464.168-.896.231-1.296.189a5.512 5.512 0 0 1-1.296-.316c-.759-.253-1.307-.686-1.644-1.296a6.368 6.368 0 0 1-.695-1.96 9.531 9.531 0 0 1-.158-2.023c.021-.653.032-1.17.032-1.549 0-.969-.011-2.371-.032-4.205a483.968 483.968 0 0 1-.032-5.786v-9.991c0-.927.274-1.696.822-2.308.547-.61 1.19-1.012 1.928-1.201.737-.19 1.518-.147 2.34.126.822.274 1.507.833 2.055 1.676 1.686-1.096 3.541-1.834 5.564-2.213s3.93-.316 5.723.19c1.791.506 3.288 1.454 4.489 2.845 1.202 1.391 1.823 3.31 1.865 5.754 0 .085.021.338.063.759.042.422.063 1.012.063 1.771v16.185zm14.607-2.276c.463.422.854.959 1.169 1.612.316.654.484 1.307.506 1.96a3.475 3.475 0 0 1-.442 1.833c-.316.569-.875 1.001-1.676 1.296-.632.21-1.328.253-2.086.126s-1.508-.379-2.245-.759a8.772 8.772 0 0 1-1.96-1.359c-.569-.528-.98-1.107-1.233-1.739a3.245 3.245 0 0 1-.19-.727 4.85 4.85 0 0 1-.063-.727V71.959c0-.969.368-1.792 1.106-2.466.737-.674 1.549-1.075 2.435-1.201.421-.042.874.021 1.359.189.484.169.938.411 1.359.728.421.316.769.686 1.043 1.106.273.422.411.864.411 1.328v4.363c0 1.813.01 3.794.031 5.944a683.277 683.277 0 0 1 0 13.279 583.734 583.734 0 0 0-.031 5.786c0 1.75-.022 3.151-.063 4.205l.57.316zm6.766-33.83c.168-1.559.706-2.708 1.612-3.446.906-.737 1.866-1.096 2.877-1.075 1.012.021 1.949.411 2.813 1.169.864.759 1.317 1.834 1.36 3.225.084 1.434-.285 2.54-1.107 3.32-.822.78-1.76 1.223-2.813 1.328-1.054.106-2.045-.179-2.972-.854-.928-.674-1.497-1.749-1.707-3.225l-.063-.442zm8.347 35.98a4.29 4.29 0 0 1-.885 2.245c-.506.653-1.086 1.127-1.739 1.423-.654.294-1.359.358-2.118.19-.759-.169-1.434-.632-2.023-1.391a3.966 3.966 0 0 1-.728-1.423 8.26 8.26 0 0 1-.284-1.644 15.21 15.21 0 0 1-.032-1.708c.021-.569.032-1.085.032-1.549a285.88 285.88 0 0 1-.032-7.398c.021-2.444.01-4.911-.032-7.398 0-1.012-.063-2.033-.189-3.067a8.38 8.38 0 0 1 .189-3.066 4.516 4.516 0 0 1 1.106-1.96c.527-.547 1.117-.927 1.771-1.138a3.672 3.672 0 0 1 2.023-.063c.696.169 1.296.611 1.802 1.328.674.844 1.012 1.676 1.012 2.498v7.304c0 1.434.021 2.845.063 4.236.042 2.023.063 4.047.063 6.07v6.511zm22.383-16.314v-.885c-.379-.969-.991-1.654-1.833-2.055a7.907 7.907 0 0 0-2.719-.727c-.548.169-.991.358-1.328.569-.338.211-.632.443-.885.696s-.485.537-.696.854a9.558 9.558 0 0 1-.759.98v16.567c0 1.307-.39 2.329-1.17 3.067-.78.737-1.644 1.159-2.592 1.265-.949.105-1.824-.126-2.624-.695-.801-.569-1.223-1.529-1.265-2.877a354.908 354.908 0 0 1-.095-11.065c.021-4.131.032-8.747.032-13.848 0-.885.263-1.622.791-2.213a3.966 3.966 0 0 1 1.897-1.202c.737-.21 1.496-.2 2.276.032.779.232 1.423.707 1.929 1.423 2.36-1.18 4.71-1.549 7.05-1.107 2.34.443 4.458 1.549 6.355 3.32a19.892 19.892 0 0 1 2.719-2.276 8.064 8.064 0 0 1 3.162-1.328 10.035 10.035 0 0 1 3.952.158c1.328.316 2.561.833 3.699 1.549a12.448 12.448 0 0 1 3.003 2.656 11.043 11.043 0 0 1 1.929 3.415c.21.844.316 1.603.316 2.276v17.199c0 .506-.063.991-.19 1.455-.379 1.096-.98 1.865-1.802 2.308-.822.442-1.666.601-2.529.474-.864-.126-1.612-.527-2.245-1.201-.632-.675-.948-1.581-.948-2.719v-17.01c-.379-1.012-.928-1.749-1.644-2.213-.717-.463-1.455-.674-2.213-.632-.759.042-1.486.316-2.182.822-.695.506-1.255 1.202-1.676 2.087v16.567c0 1.138-.369 2.086-1.106 2.846-.738.759-1.549 1.243-2.435 1.454-.885.21-1.718.126-2.498-.253-.78-.379-1.233-1.138-1.359-2.276l-.317-17.457zm29.15-19.666c.168-1.559.706-2.708 1.612-3.446.906-.737 1.866-1.096 2.877-1.075 1.012.021 1.949.411 2.813 1.169.864.759 1.317 1.834 1.36 3.225.084 1.434-.285 2.54-1.107 3.32-.822.78-1.76 1.223-2.813 1.328-1.054.106-2.045-.179-2.972-.854-.928-.674-1.497-1.749-1.707-3.225l-.063-.442zm8.347 35.98a4.29 4.29 0 0 1-.885 2.245c-.506.653-1.086 1.127-1.739 1.423-.654.294-1.359.358-2.118.19-.759-.169-1.434-.632-2.023-1.391a3.966 3.966 0 0 1-.728-1.423 8.26 8.26 0 0 1-.284-1.644 15.21 15.21 0 0 1-.032-1.708c.021-.569.032-1.085.032-1.549a285.88 285.88 0 0 1-.032-7.398c.021-2.444.01-4.911-.032-7.398 0-1.012-.063-2.033-.189-3.067a8.38 8.38 0 0 1 .189-3.066 4.516 4.516 0 0 1 1.106-1.96c.527-.547 1.117-.927 1.771-1.138a3.672 3.672 0 0 1 2.023-.063c.696.169 1.296.611 1.802 1.328.674.844 1.012 1.676 1.012 2.498v7.304c0 1.434.021 2.845.063 4.236.042 2.023.063 4.047.063 6.07v6.511zm7.588-19.287c-.844-.21-1.571-.569-2.182-1.075s-1.033-1.096-1.265-1.771c-.232-.674-.232-1.37 0-2.087.231-.716.748-1.369 1.549-1.96a3.697 3.697 0 0 1 2.276-.759h2.466c0-.294-.022-.938-.063-1.929a54.42 54.42 0 0 1-.032-3.257c.021-1.18.095-2.308.222-3.383.126-1.075.357-1.823.695-2.245.843-1.18 1.886-1.739 3.13-1.676 1.243.063 2.266.664 3.067 1.802.168.211.326.464.475.759.147.295.221.569.221.822.041 1.518.052 3.035.032 4.553a314.115 314.115 0 0 0-.032 4.553h4.995a2.79 2.79 0 0 1 1.96.759 4.291 4.291 0 0 1 1.17 1.771c.231.675.294 1.37.189 2.086a2.777 2.777 0 0 1-.98 1.771c-.97.801-2.098 1.223-3.383 1.265-1.287.042-2.604.063-3.952.063 0 2.319-.011 4.638-.032 6.956-.021 2.319-.011 4.638.032 6.956 0 1.012.052 2.045.158 3.098a8.587 8.587 0 0 1-.222 3.035c-.211.759-.569 1.36-1.075 1.802a3.405 3.405 0 0 1-1.708.822 4.49 4.49 0 0 1-1.96-.126c-.675-.19-1.307-.538-1.897-1.043-.295-.295-.517-.8-.664-1.518a15.166 15.166 0 0 1-.285-2.276 35.03 35.03 0 0 1 0-2.972v-3.288c0-1.349-.011-2.75-.032-4.205a287.305 287.305 0 0 1-.031-4.142v-3.098l-2.842-.063zm42.683 12.584c1.012-.253 1.907-.263 2.688-.032.78.232 1.38.623 1.802 1.17.421.548.61 1.223.569 2.023-.042.801-.401 1.644-1.075 2.529-.548.717-1.307 1.328-2.276 1.833-.97.506-1.876.907-2.719 1.202-2.066.759-4.026 1.286-5.88 1.581-1.855.294-3.595.294-5.217 0a12.193 12.193 0 0 1-4.553-1.834c-1.413-.927-2.73-2.234-3.952-3.92-.844-1.138-1.465-2.435-1.865-3.889a18.603 18.603 0 0 1-.664-4.458 20.008 20.008 0 0 1 .379-4.49c.294-1.475.716-2.803 1.265-3.983.716-1.475 1.854-2.824 3.415-4.047a19.59 19.59 0 0 1 5.185-2.909 19.298 19.298 0 0 1 5.817-1.233c1.981-.104 3.731.201 5.249.917a9.121 9.121 0 0 1 3.256 2.561c.906 1.117 1.527 2.33 1.865 3.636a8.636 8.636 0 0 1 .095 3.952c-.275 1.328-.959 2.54-2.055 3.636a13.962 13.962 0 0 1-3.478 2.561 32.438 32.438 0 0 1-3.92 1.708c-1.35.485-2.729.896-4.142 1.233a55.138 55.138 0 0 0-4.079 1.138c.885 1.012 1.897 1.655 3.035 1.929a9.614 9.614 0 0 0 3.573.158 14.983 14.983 0 0 0 3.762-1.043 30.842 30.842 0 0 0 3.541-1.739l.379-.19zm-12.773-10.876c-.97.548-1.687 1.233-2.15 2.055-.464.822-.801 1.971-1.012 3.446a140.22 140.22 0 0 1 3.699-1.075 65.578 65.578 0 0 0 3.889-1.202c1.222-.421 2.255-.885 3.099-1.391.843-.506 1.265-1.053 1.265-1.644a3.09 3.09 0 0 0-.158-.98c-.105-.316-.327-.538-.664-.664-1.181-.421-2.403-.506-3.667-.253s-2.319.612-3.162 1.075l-1.139.633zm51.534 14.29c.716 1.223.958 2.319.727 3.288-.232.97-.707 1.697-1.423 2.182-.717.484-1.592.674-2.624.569-1.034-.105-2.035-.643-3.004-1.612a13.533 13.533 0 0 1-3.162 1.676c-1.097.4-2.255.748-3.478 1.043-1.897.421-3.721.389-5.47-.095-1.75-.485-3.299-1.275-4.647-2.371-1.35-1.096-2.445-2.455-3.288-4.079-.844-1.622-1.307-3.383-1.391-5.28-.126-2.107.031-4.131.474-6.07.442-1.938 1.148-3.709 2.118-5.312.969-1.602 2.245-2.972 3.826-4.11 1.581-1.138 3.446-1.938 5.596-2.403a19.451 19.451 0 0 1 3.826-.379c1.285 0 2.561.106 3.825.316-.042-.927-.074-1.992-.095-3.193-.021-1.202-.032-2.372-.032-3.51s.042-2.16.126-3.066c.084-.906.19-1.549.316-1.929.294-.759.748-1.338 1.359-1.739.611-.4 1.254-.611 1.929-.632.674-.021 1.338.148 1.992.506.653.358 1.17.896 1.549 1.612.084.211.189.411.316.601.126.19.19.39.19.601.042 5.523.052 10.982.032 16.377a4018.65 4018.65 0 0 0-.032 16.377c.17.253.318.464.445.632zm-8.79-3.478c.084-.126.242-.253.474-.379.231-.126.348-.294.348-.506v-5.216c0-1.708-.021-3.446-.063-5.217a19.15 19.15 0 0 0-3.162-.379 11.496 11.496 0 0 0-3.193.316 8.647 8.647 0 0 0-2.846 1.265c-.864.591-1.549 1.434-2.055 2.529a52.08 52.08 0 0 0-.696 2.403 10.293 10.293 0 0 0-.348 2.34 7.311 7.311 0 0 0 .285 2.245c.21.738.569 1.444 1.075 2.118.168.169.369.338.601.506.231.169.685.464 1.36.885 1.559.126 3.045-.021 4.458-.442 1.412-.422 2.666-1.244 3.762-2.468zm79.989-28.138c.337-1.265.949-2.15 1.834-2.656s1.791-.674 2.719-.506c.927.169 1.708.644 2.34 1.423.632.781.863 1.802.695 3.067a55.625 55.625 0 0 1-.98 4.806 112.868 112.868 0 0 1-1.296 4.743 79.217 79.217 0 0 1-2.118 5.944 103.78 103.78 0 0 0-2.182 5.944 443.427 443.427 0 0 1-2.055 5.659 239.366 239.366 0 0 1-2.182 5.659 373.08 373.08 0 0 0-.791 1.992 6.597 6.597 0 0 1-1.043 1.802c-.632.843-1.497 1.349-2.592 1.518-1.097.168-2.066-.106-2.909-.822a4.99 4.99 0 0 1-1.455-2.182 39.072 39.072 0 0 0-.948-2.498 208.988 208.988 0 0 0-1.296-3.352 81.754 81.754 0 0 1-1.233-3.288 182.152 182.152 0 0 1-2.055-5.723 189.25 189.25 0 0 0-2.055-5.722 106.08 106.08 0 0 1-1.865 5.153 120.32 120.32 0 0 0-1.866 5.09 110.674 110.674 0 0 0-1.328 3.415 80.824 80.824 0 0 1-1.328 3.351 27.856 27.856 0 0 1-.727 1.739c-.189.401-.496 1.022-.917 1.865a5.213 5.213 0 0 1-1.328 1.802c-.591.526-1.212.885-1.865 1.075a3.385 3.385 0 0 1-1.992-.031c-.675-.211-1.265-.717-1.771-1.518-.717-1.096-1.212-2.381-1.486-3.857a36.008 36.008 0 0 0-.98-4.047 96.636 96.636 0 0 1-.728-2.276 54.709 54.709 0 0 0-.727-2.213 95.978 95.978 0 0 0-.791-2.276 325.27 325.27 0 0 1-.79-2.213 246.021 246.021 0 0 0-2.625-7.24 1994.88 1994.88 0 0 0-2.75-7.177 9.158 9.158 0 0 0-.695-1.549 19.995 19.995 0 0 1-.822-1.644 10.91 10.91 0 0 1-.601-1.708 5.051 5.051 0 0 1-.158-1.676c.084-.716.348-1.328.791-1.833a3.948 3.948 0 0 1 1.549-1.106 4.09 4.09 0 0 1 1.897-.253c.674.063 1.285.327 1.833.79 1.138.97 1.992 2.256 2.561 3.857a263.033 263.033 0 0 0 1.612 4.426 87.795 87.795 0 0 1 1.644 4.458 86.158 86.158 0 0 0 1.644 4.458c.59 1.603 1.159 3.183 1.708 4.742a159.69 159.69 0 0 1 1.581 4.743c.168-.379.316-.769.443-1.17.126-.4.273-.811.442-1.233a180.577 180.577 0 0 0 2.372-6.26 117.726 117.726 0 0 0 2.055-6.323c.21-.59.39-1.19.538-1.802.147-.61.305-1.211.474-1.802.294-1.012.484-1.802.569-2.371.084-.569.337-1.19.759-1.865a3.359 3.359 0 0 1 1.518-1.296 4.531 4.531 0 0 1 1.96-.379 3.855 3.855 0 0 1 1.866.538c.569.338 1.001.844 1.296 1.518.126.253.294.643.506 1.17.21.527.421 1.097.632 1.707.21.612.421 1.181.632 1.708.21.527.357.917.442 1.17.506 1.35.99 2.677 1.455 3.983.463 1.307.927 2.635 1.391 3.984.59 1.729 1.19 3.425 1.802 5.09.611 1.666 1.233 3.32 1.866 4.964a79.596 79.596 0 0 0 1.075-3.351 44.61 44.61 0 0 1 1.138-3.352 318.323 318.323 0 0 0 3.257-9.105 61.424 61.424 0 0 0 2.371-9.295l.063-.383zm8.157 21.562a20.735 20.735 0 0 1 1.233-3.604 19.985 19.985 0 0 1 1.929-3.383 18.954 18.954 0 0 1 2.561-2.94 13.002 13.002 0 0 1 3.067-2.15c1.938-1.012 3.889-1.528 5.849-1.549 1.96-.021 3.783.37 5.469 1.17 1.686.801 3.119 1.992 4.3 3.572 1.18 1.581 1.96 3.468 2.34 5.66.21 1.434.326 2.793.348 4.079a17.985 17.985 0 0 1-.411 4.015c-.422 1.982-1.275 3.952-2.561 5.912-1.287 1.96-2.825 3.604-4.616 4.932-1.792 1.328-3.752 2.203-5.88 2.625-2.129.421-4.269.084-6.418-1.012a14.075 14.075 0 0 1-2.624-1.613 11.439 11.439 0 0 1-2.118-2.182 11.903 11.903 0 0 1-1.676-2.909 21.965 21.965 0 0 1-.98-3.162 11.34 11.34 0 0 1-.316-3.572c.084-1.202.231-2.372.443-3.51l.061-.379zm7.588 1.328a35.654 35.654 0 0 0-.316 1.992 7.812 7.812 0 0 0 0 1.992c.126.97.389 1.855.79 2.656.4.801.927 1.434 1.581 1.897.653.464 1.401.707 2.245.728.843.021 1.749-.242 2.719-.791 1.222-.716 2.276-1.823 3.162-3.32.885-1.496 1.433-3.056 1.644-4.679.21-1.622.042-3.162-.506-4.616-.548-1.454-1.624-2.498-3.225-3.13-1.054 0-2.023.201-2.909.601a7.758 7.758 0 0 0-2.308 1.581 10.07 10.07 0 0 0-1.707 2.308 14.493 14.493 0 0 0-1.17 2.781zm25.292-5.722c.042-.274.021-.769-.063-1.486-.675-.379-1.201-.864-1.581-1.455a4.187 4.187 0 0 1-.664-1.897 3.428 3.428 0 0 1 .379-1.929c.316-.61.832-1.127 1.549-1.549.969-.547 2.033-.653 3.193-.316 1.159.338 2.16.844 3.004 1.518 1.053-.8 2.15-1.475 3.288-2.023a12.6 12.6 0 0 1 3.478-1.106 9.89 9.89 0 0 1 3.604.095c1.222.253 2.423.781 3.604 1.581.59.379 1.138.854 1.644 1.422.506.569.822 1.212.949 1.929.21 1.054.126 1.971-.253 2.75-.379.781-.907 1.35-1.581 1.708-.675.358-1.434.464-2.276.316-.844-.147-1.644-.601-2.403-1.359a3.586 3.586 0 0 1-.537-.411c-.106-.104-.327-.242-.664-.411a3.237 3.237 0 0 0-1.992.126 8.394 8.394 0 0 0-1.897 1.043c-.612.443-1.181.928-1.708 1.455l-1.423 1.423v16.124a4.61 4.61 0 0 1-.379 1.834c-.379.969-.98 1.644-1.802 2.023-.822.379-1.644.484-2.466.316-.822-.169-1.54-.591-2.15-1.265-.612-.675-.917-1.539-.917-2.593V90.107c.001.169.022.116.064-.158zm35.219 15.587c.463.422.854.959 1.169 1.612.316.654.484 1.307.506 1.96a3.475 3.475 0 0 1-.442 1.833c-.316.569-.875 1.001-1.676 1.296-.632.21-1.328.253-2.086.126s-1.508-.379-2.245-.759a8.772 8.772 0 0 1-1.96-1.359c-.569-.528-.98-1.107-1.233-1.739a3.245 3.245 0 0 1-.19-.727 4.85 4.85 0 0 1-.063-.727V71.959c0-.969.368-1.792 1.106-2.466.737-.674 1.549-1.075 2.435-1.201.421-.042.874.021 1.359.189.484.169.938.411 1.359.728.421.316.769.686 1.043 1.106.273.422.411.864.411 1.328v4.363c0 1.813.01 3.794.031 5.944a683.277 683.277 0 0 1 0 13.279 583.734 583.734 0 0 0-.031 5.786c0 1.75-.022 3.151-.063 4.205l.57.316zm36.612-1.139c.716 1.223.958 2.319.727 3.288-.232.97-.707 1.697-1.423 2.182-.717.484-1.592.674-2.624.569-1.034-.105-2.035-.643-3.004-1.612a13.533 13.533 0 0 1-3.162 1.676c-1.097.4-2.255.748-3.478 1.043-1.897.421-3.721.389-5.47-.095-1.75-.485-3.299-1.275-4.647-2.371-1.35-1.096-2.445-2.455-3.288-4.079-.844-1.622-1.307-3.383-1.391-5.28-.126-2.107.031-4.131.474-6.07.442-1.938 1.148-3.709 2.118-5.312.969-1.602 2.245-2.972 3.826-4.11 1.581-1.138 3.446-1.938 5.596-2.403a19.451 19.451 0 0 1 3.826-.379c1.285 0 2.561.106 3.825.316-.042-.927-.074-1.992-.095-3.193-.021-1.202-.032-2.372-.032-3.51s.042-2.16.126-3.066c.084-.906.19-1.549.316-1.929.294-.759.748-1.338 1.359-1.739.611-.4 1.254-.611 1.929-.632.674-.021 1.338.148 1.992.506.653.358 1.17.896 1.549 1.612.084.211.189.411.316.601.126.19.19.39.19.601.042 5.523.052 10.982.032 16.377a4018.65 4018.65 0 0 0-.032 16.377c.17.253.319.464.445.632zm-8.789-3.478c.084-.126.242-.253.474-.379.231-.126.348-.294.348-.506v-5.216c0-1.708-.021-3.446-.063-5.217a19.15 19.15 0 0 0-3.162-.379 11.496 11.496 0 0 0-3.193.316 8.647 8.647 0 0 0-2.846 1.265c-.864.591-1.549 1.434-2.055 2.529a52.08 52.08 0 0 0-.696 2.403 10.293 10.293 0 0 0-.348 2.34 7.311 7.311 0 0 0 .285 2.245c.21.738.569 1.444 1.075 2.118.168.169.369.338.601.506.231.169.685.464 1.36.885 1.559.126 3.045-.021 4.458-.442 1.411-.422 2.665-1.244 3.762-2.468z" fill="#FFF"/></svg>