<svg id="Layer_1" xmlns="http://www.w3.org/2000/svg" viewBox="0 0 266.3 56.2"><style>.st0{opacity:.7;fill:url(#XMLID_9_)}.st1{fill:#466bb2}.st2{opacity:.6;fill:#5c84c0}.st3{fill:#335e9b}.st4{fill:#f6f5f5}.st5,.st6{opacity:.7;fill:url(#XMLID_11_)}.st6{fill:url(#XMLID_12_)}</style><g id="XMLID_30536_"><g id="XMLID_30576_"><linearGradient id="XMLID_9_" gradientUnits="userSpaceOnUse" x1="537.561" y1="632.706" x2="544.548" y2="632.706" gradientTransform="rotate(-90 -113.858 -.403)"><stop offset="0" stop-color="#fff" stop-opacity="0"/><stop offset="1"/></linearGradient><path id="XMLID_30236_" class="st0" d="M386.3-658.8h265.9v7H386.3z"/></g><path id="XMLID_30575_" class="st1" d="M647.9-567.8h266.3v44.8H647.9z"/><path id="XMLID_30574_" class="st2" d="M647.9-567.8v19.5s79 8.1 125.6 8.1c43.9 0 140.7-8.1 140.7-8.1v-19.5H647.9z"/><g id="XMLID_30571_"><path id="XMLID_30572_" class="st3" d="M669.1-523l-3.7-6.8-4.9 2.7-4.7-8.5 4.9-2.7-.8-1.4c-2.5-4.5-3.8-10.2-2.1-15.1 1.4-4.3 4.9-7.5 8.3-9.4 2.6-1.4 4.7-2.2 6.6-2.6l4.4 9.2c-1.2.2-2.5.7-4 1.5-3.8 2.1-3.8 5.9-1.8 9.6l1 1.9 7.5-4.1 4.7 8.5-7.4 4 7.2 13.2h-15.2z"/></g><path id="XMLID_30570_" class="st4" d="M667.3-523l-3.7-6.8-4.9 2.7-4.7-8.5 4.9-2.7-.8-1.4c-2.5-4.5-3.8-10.2-2.1-15.1 1.4-4.3 4.9-7.5 8.3-9.4 2.6-1.4 4.7-2.2 6.6-2.6l4.4 9.2c-1.2.2-2.5.7-4 1.5-3.8 2.1-3.8 5.9-1.8 9.6l1 1.9 7.5-4.1 4.7 8.5-7.4 4 7.2 13.2h-15.2z"/><g id="XMLID_30539_"><g id="XMLID_30555_"><path id="XMLID_30556_" class="st3" d="M803.8-543.7c-1.1 0-1.9.4-2.7.7v8.4c.8.1 1.2.1 2 .1 2.7 0 3-1.2 3-2.9v-4c0-1.3-.4-2.3-2.3-2.3m-17.7-.4c-1.8 0-2.3 1-2.3 2.3v.7h4.5v-.7c.1-1.3-.3-2.3-2.2-2.3m-34.2 8.7c0 1 .5 1.5 1.5 1.5 1.1 0 1.8-.4 2.6-.7v-2h-2.4c-1.2 0-1.7.2-1.7 1.2m69.1-8.3c-1.9 0-2.5 1-2.5 2.3v4.6c0 1.3.6 2.3 2.5 2.3 1.8 0 2.5-1 2.5-2.3v-4.6c0-1.3-.7-2.3-2.5-2.3m-78.1 13.4h-5.4v-13.1h-2.7v-4.5h2.7v-2.7c0-3.7 1.5-5.9 5.9-5.9h3.6v4.5h-2.3c-1.7 0-1.8.6-1.8 1.8v2.3h4.1l-.5 4.5h-3.6v13.1zm18.5 0h-4.5l-.2-1.1c-2.1 1.1-3.9 1.3-5.1 1.3-3.3 0-5.1-2.2-5.1-5.3 0-3.6 2.1-4.9 5.8-4.9h3.8v-.8c0-1.8-.2-2.4-3.1-2.4h-4.6l.5-4.5h5.1c6.2 0 7.6 2 7.6 7v10.7zm15.4-12.8c-2.8-.5-3.6-.6-5-.6-2.4 0-3.2.5-3.2 2.6v3.9c0 2.1.7 2.6 3.2 2.6 1.4 0 2.2-.1 5-.6v4.4c-2.5.6-4.1.7-5.4.7-5.8 0-8.2-3.1-8.2-7.5v-3.2c0-4.4 2.3-7.5 8.2-7.5 1.4 0 3 .1 5.4.7v4.5zm17 5.6h-10v.4c0 2.1.7 2.6 3.2 2.6 2.2 0 3.5-.1 6.3-.6v4.4c-2.7.6-4.1.7-6.8.7-5.8 0-8.2-3.1-8.2-7.5v-3.6c0-3.9 1.7-7 7.7-7s7.7 3.1 7.7 7v3.6zm17.7 0c0 4.3-1.2 7.4-8.6 7.4-2.7 0-4.2-.2-7.2-.7v-24.5l5.4-.9v8.6c1.2-.4 2.7-.7 4.1-.7 5.4 0 6.3 2.4 6.3 6.3v4.5zm17.4.1c0 3.7-1.5 7.3-7.9 7.3s-7.9-3.6-7.9-7.3v-3.6c0-3.7 1.6-7.3 7.9-7.3 6.4 0 7.9 3.6 7.9 7.3v3.6zm17.4 0c0 3.7-1.5 7.3-7.9 7.3s-7.9-3.6-7.9-7.3v-3.6c0-3.7 1.6-7.3 7.9-7.3 6.4 0 7.9 3.6 7.9 7.3v3.6zm17.9 7.1h-5.9l-5-8.3v8.3h-5.4v-24.9l5.4-.9v16l5-7.9h5.9l-5.4 8.6 5.4 9.1zm-25.8-13.4c-1.8 0-2.5 1-2.5 2.3v4.6c0 1.3.6 2.3 2.5 2.3 1.8 0 2.5-1 2.5-2.3v-4.6c0-1.3-.7-2.3-2.5-2.3"/></g><g id="XMLID_30540_"><path id="XMLID_30541_" class="st4" d="M802.5-545c-1.1 0-1.9.4-2.7.7v8.4c.8.1 1.2.1 2 .1 2.7 0 3-1.2 3-2.9v-4c0-1.3-.4-2.3-2.3-2.3m-17.6-.4c-1.8 0-2.3 1-2.3 2.3v.7h4.5v-.7c0-1.3-.4-2.3-2.2-2.3m-34.3 8.7c0 1 .5 1.5 1.5 1.5 1.1 0 1.8-.4 2.6-.7v-2h-2.4c-1.2 0-1.7.2-1.7 1.2m69.1-8.3c-1.9 0-2.5 1-2.5 2.3v4.6c0 1.3.6 2.3 2.5 2.3 1.8 0 2.5-1 2.5-2.3v-4.6c0-1.3-.7-2.3-2.5-2.3m-78.1 13.4h-5.4v-13.1h-2.7v-4.5h2.7v-2.7c0-3.7 1.5-5.9 5.9-5.9h3.6v4.5h-2.3c-1.7 0-1.8.6-1.8 1.8v2.3h4.1l-.5 4.5h-3.6v13.1zm18.5 0h-4.5l-.2-1.1c-2.1 1.1-3.9 1.3-5.1 1.3-3.3 0-5.1-2.2-5.1-5.3 0-3.6 2.1-4.9 5.8-4.9h3.8v-.8c0-1.8-.2-2.4-3.1-2.4H747l.5-4.5h5.1c6.2 0 7.6 2 7.6 7v10.7zm15.4-12.8c-2.8-.5-3.6-.6-5-.6-2.4 0-3.2.5-3.2 2.6v3.9c0 2.1.7 2.6 3.2 2.6 1.4 0 2.2-.1 5-.6v4.4c-2.5.6-4.1.7-5.4.7-5.8 0-8.2-3.1-8.2-7.5v-3.2c0-4.4 2.3-7.5 8.2-7.5 1.4 0 3 .1 5.4.7v4.5zm17.1 5.6h-10v.4c0 2.1.7 2.6 3.2 2.6 2.2 0 3.5-.1 6.3-.6v4.4c-2.7.6-4.1.7-6.8.7-5.8 0-8.2-3.1-8.2-7.5v-3.6c0-3.9 1.7-7 7.7-7s7.7 3.1 7.7 7v3.6zm17.6.1c0 4.3-1.2 7.4-8.6 7.4-2.7 0-4.2-.2-7.2-.7v-24.5l5.4-.9v8.6c1.2-.4 2.7-.7 4.1-.7 5.4 0 6.3 2.4 6.3 6.3v4.5zm17.4 0c0 3.7-1.5 7.3-7.9 7.3s-7.9-3.6-7.9-7.3v-3.6c0-3.7 1.6-7.3 7.9-7.3 6.4 0 7.9 3.6 7.9 7.3v3.6zm17.4 0c0 3.7-1.5 7.3-7.9 7.3s-7.9-3.6-7.9-7.3v-3.6c0-3.7 1.6-7.3 7.9-7.3 6.4 0 7.9 3.6 7.9 7.3v3.6zm17.9 7.1H857l-5-8.3v8.3h-5.4v-24.9l5.4-.9v16l5-7.9h5.9l-5.4 8.6 5.4 9.1zM837.1-545c-1.8 0-2.5 1-2.5 2.3v4.6c0 1.3.6 2.3 2.5 2.3 1.8 0 2.5-1 2.5-2.3v-4.6c0-1.3-.7-2.3-2.5-2.3"/></g></g></g><g id="XMLID_70_"><g id="XMLID_108_"><linearGradient id="XMLID_11_" gradientUnits="userSpaceOnUse" x1="537.561" y1="632.706" x2="544.548" y2="632.706" gradientTransform="rotate(-90 -113.858 -.403)"><stop offset="0" stop-color="#fff" stop-opacity="0"/><stop offset="1"/></linearGradient><path id="XMLID_110_" class="st5" d="M386.3-658.8h265.9v7H386.3z"/></g><path id="XMLID_107_" class="st1" d="M647.9-567.8h266.3v44.8H647.9z"/><path id="XMLID_106_" class="st2" d="M647.9-567.8v19.5s79 8.1 125.6 8.1c43.9 0 140.7-8.1 140.7-8.1v-19.5H647.9z"/><g id="XMLID_103_"><path id="XMLID_104_" class="st3" d="M669.1-523l-3.7-6.8-4.9 2.7-4.7-8.5 4.9-2.7-.8-1.4c-2.5-4.5-3.8-10.2-2.1-15.1 1.4-4.3 4.9-7.5 8.3-9.4 2.6-1.4 4.7-2.2 6.6-2.6l4.4 9.2c-1.2.2-2.5.7-4 1.5-3.8 2.1-3.8 5.9-1.8 9.6l1 1.9 7.5-4.1 4.7 8.5-7.4 4 7.2 13.2h-15.2z"/></g><path id="XMLID_102_" class="st4" d="M667.3-523l-3.7-6.8-4.9 2.7-4.7-8.5 4.9-2.7-.8-1.4c-2.5-4.5-3.8-10.2-2.1-15.1 1.4-4.3 4.9-7.5 8.3-9.4 2.6-1.4 4.7-2.2 6.6-2.6l4.4 9.2c-1.2.2-2.5.7-4 1.5-3.8 2.1-3.8 5.9-1.8 9.6l1 1.9 7.5-4.1 4.7 8.5-7.4 4 7.2 13.2h-15.2z"/><g id="XMLID_71_"><g id="XMLID_87_"><path id="XMLID_88_" class="st3" d="M803.8-543.7c-1.1 0-1.9.4-2.7.7v8.4c.8.1 1.2.1 2 .1 2.7 0 3-1.2 3-2.9v-4c0-1.3-.4-2.3-2.3-2.3m-17.7-.4c-1.8 0-2.3 1-2.3 2.3v.7h4.5v-.7c.1-1.3-.3-2.3-2.2-2.3m-34.2 8.7c0 1 .5 1.5 1.5 1.5 1.1 0 1.8-.4 2.6-.7v-2h-2.4c-1.2 0-1.7.2-1.7 1.2m69.1-8.3c-1.9 0-2.5 1-2.5 2.3v4.6c0 1.3.6 2.3 2.5 2.3 1.8 0 2.5-1 2.5-2.3v-4.6c0-1.3-.7-2.3-2.5-2.3m-78.1 13.4h-5.4v-13.1h-2.7v-4.5h2.7v-2.7c0-3.7 1.5-5.9 5.9-5.9h3.6v4.5h-2.3c-1.7 0-1.8.6-1.8 1.8v2.3h4.1l-.5 4.5h-3.6v13.1zm18.5 0h-4.5l-.2-1.1c-2.1 1.1-3.9 1.3-5.1 1.3-3.3 0-5.1-2.2-5.1-5.3 0-3.6 2.1-4.9 5.8-4.9h3.8v-.8c0-1.8-.2-2.4-3.1-2.4h-4.6l.5-4.5h5.1c6.2 0 7.6 2 7.6 7v10.7zm15.4-12.8c-2.8-.5-3.6-.6-5-.6-2.4 0-3.2.5-3.2 2.6v3.9c0 2.1.7 2.6 3.2 2.6 1.4 0 2.2-.1 5-.6v4.4c-2.5.6-4.1.7-5.4.7-5.8 0-8.2-3.1-8.2-7.5v-3.2c0-4.4 2.3-7.5 8.2-7.5 1.4 0 3 .1 5.4.7v4.5zm17 5.6h-10v.4c0 2.1.7 2.6 3.2 2.6 2.2 0 3.5-.1 6.3-.6v4.4c-2.7.6-4.1.7-6.8.7-5.8 0-8.2-3.1-8.2-7.5v-3.6c0-3.9 1.7-7 7.7-7s7.7 3.1 7.7 7v3.6zm17.7 0c0 4.3-1.2 7.4-8.6 7.4-2.7 0-4.2-.2-7.2-.7v-24.5l5.4-.9v8.6c1.2-.4 2.7-.7 4.1-.7 5.4 0 6.3 2.4 6.3 6.3v4.5zm17.4.1c0 3.7-1.5 7.3-7.9 7.3s-7.9-3.6-7.9-7.3v-3.6c0-3.7 1.6-7.3 7.9-7.3 6.4 0 7.9 3.6 7.9 7.3v3.6zm17.4 0c0 3.7-1.5 7.3-7.9 7.3s-7.9-3.6-7.9-7.3v-3.6c0-3.7 1.6-7.3 7.9-7.3 6.4 0 7.9 3.6 7.9 7.3v3.6zm17.9 7.1h-5.9l-5-8.3v8.3h-5.4v-24.9l5.4-.9v16l5-7.9h5.9l-5.4 8.6 5.4 9.1zm-25.8-13.4c-1.8 0-2.5 1-2.5 2.3v4.6c0 1.3.6 2.3 2.5 2.3 1.8 0 2.5-1 2.5-2.3v-4.6c0-1.3-.7-2.3-2.5-2.3"/></g><g id="XMLID_72_"><path id="XMLID_73_" class="st4" d="M802.5-545c-1.1 0-1.9.4-2.7.7v8.4c.8.1 1.2.1 2 .1 2.7 0 3-1.2 3-2.9v-4c0-1.3-.4-2.3-2.3-2.3m-17.6-.4c-1.8 0-2.3 1-2.3 2.3v.7h4.5v-.7c0-1.3-.4-2.3-2.2-2.3m-34.3 8.7c0 1 .5 1.5 1.5 1.5 1.1 0 1.8-.4 2.6-.7v-2h-2.4c-1.2 0-1.7.2-1.7 1.2m69.1-8.3c-1.9 0-2.5 1-2.5 2.3v4.6c0 1.3.6 2.3 2.5 2.3 1.8 0 2.5-1 2.5-2.3v-4.6c0-1.3-.7-2.3-2.5-2.3m-78.1 13.4h-5.4v-13.1h-2.7v-4.5h2.7v-2.7c0-3.7 1.5-5.9 5.9-5.9h3.6v4.5h-2.3c-1.7 0-1.8.6-1.8 1.8v2.3h4.1l-.5 4.5h-3.6v13.1zm18.5 0h-4.5l-.2-1.1c-2.1 1.1-3.9 1.3-5.1 1.3-3.3 0-5.1-2.2-5.1-5.3 0-3.6 2.1-4.9 5.8-4.9h3.8v-.8c0-1.8-.2-2.4-3.1-2.4H747l.5-4.5h5.1c6.2 0 7.6 2 7.6 7v10.7zm15.4-12.8c-2.8-.5-3.6-.6-5-.6-2.4 0-3.2.5-3.2 2.6v3.9c0 2.1.7 2.6 3.2 2.6 1.4 0 2.2-.1 5-.6v4.4c-2.5.6-4.1.7-5.4.7-5.8 0-8.2-3.1-8.2-7.5v-3.2c0-4.4 2.3-7.5 8.2-7.5 1.4 0 3 .1 5.4.7v4.5zm17.1 5.6h-10v.4c0 2.1.7 2.6 3.2 2.6 2.2 0 3.5-.1 6.3-.6v4.4c-2.7.6-4.1.7-6.8.7-5.8 0-8.2-3.1-8.2-7.5v-3.6c0-3.9 1.7-7 7.7-7s7.7 3.1 7.7 7v3.6zm17.6.1c0 4.3-1.2 7.4-8.6 7.4-2.7 0-4.2-.2-7.2-.7v-24.5l5.4-.9v8.6c1.2-.4 2.7-.7 4.1-.7 5.4 0 6.3 2.4 6.3 6.3v4.5zm17.4 0c0 3.7-1.5 7.3-7.9 7.3s-7.9-3.6-7.9-7.3v-3.6c0-3.7 1.6-7.3 7.9-7.3 6.4 0 7.9 3.6 7.9 7.3v3.6zm17.4 0c0 3.7-1.5 7.3-7.9 7.3s-7.9-3.6-7.9-7.3v-3.6c0-3.7 1.6-7.3 7.9-7.3 6.4 0 7.9 3.6 7.9 7.3v3.6zm17.9 7.1H857l-5-8.3v8.3h-5.4v-24.9l5.4-.9v16l5-7.9h5.9l-5.4 8.6 5.4 9.1zM837.1-545c-1.8 0-2.5 1-2.5 2.3v4.6c0 1.3.6 2.3 2.5 2.3 1.8 0 2.5-1 2.5-2.3v-4.6c0-1.3-.7-2.3-2.5-2.3"/></g></g></g><g id="XMLID_111_"><g id="XMLID_149_"><linearGradient id="XMLID_12_" gradientUnits="userSpaceOnUse" x1="-164.217" y1="246.819" x2="-157.23" y2="246.819" gradientTransform="rotate(-90 -113.858 -.403)"><stop offset="0" stop-color="#fff" stop-opacity="0"/><stop offset="1"/></linearGradient><path id="XMLID_159_" class="st6" d="M.4 43h265.9v7H.4z"/></g><path id="XMLID_148_" class="st1" d="M0 0h266.3v44.8H0z"/><path id="XMLID_147_" class="st2" d="M0 0v19.5s79 8.1 125.6 8.1c43.9 0 140.7-8.1 140.7-8.1V0H0z"/><g id="XMLID_144_"><path id="XMLID_145_" class="st3" d="M21.2 44.8L17.5 38l-4.9 2.7L8 32.1l4.9-2.7-.8-1.4C9.6 23.5 8.3 17.8 10 12.9c1.4-4.3 4.9-7.5 8.3-9.4C20.9 2.1 23 1.3 24.9.9l4.4 9.2c-1.2.2-2.5.7-4 1.5-3.8 2.1-3.8 5.9-1.8 9.6l1 1.9L32 19l4.7 8.5-7.4 4 7.2 13.2-15.3.1z"/></g><path id="XMLID_143_" class="st4" d="M19.4 44.8L15.7 38l-4.9 2.7-4.7-8.5 4.9-2.7-.7-1.5c-2.5-4.5-3.8-10.2-2.1-15.1 1.4-4.3 4.9-7.5 8.3-9.4C19 2.1 21.2 1.4 23 .9l4.4 9.2c-1.2.2-2.5.7-4 1.5-3.8 2.1-3.8 5.9-1.8 9.6l1 1.9 7.5-4.1 4.7 8.5-7.4 4 7.2 13.2-15.2.1z"/><g id="XMLID_112_"><g id="XMLID_128_"><path id="XMLID_129_" class="st3" d="M155.9 24.1c-1.1 0-1.9.4-2.7.7v8.4c.8.1 1.2.1 2 .1 2.7 0 3-1.2 3-2.9v-4c0-1.3-.4-2.3-2.3-2.3m-17.6-.5c-1.8 0-2.3 1-2.3 2.3v.7h4.5v-.7c0-1.2-.4-2.3-2.2-2.3M104 32.3c0 1 .5 1.5 1.5 1.5 1.1 0 1.8-.4 2.6-.7v-2h-2.4c-1.2 0-1.7.3-1.7 1.2m69.1-8.2c-1.9 0-2.5 1-2.5 2.3V31c0 1.3.6 2.3 2.5 2.3 1.8 0 2.5-1 2.5-2.3v-4.6c0-1.3-.6-2.3-2.5-2.3M95 37.5h-5.4V24.3h-2.7v-4.5h2.7v-2.7c0-3.7 1.5-5.9 5.9-5.9h3.6v4.5h-2.3c-1.7 0-1.8.6-1.8 1.8v2.3h4.1l-.5 4.5H95v13.2zm18.5 0H109l-.2-1.1c-2.1 1.1-3.9 1.3-5.1 1.3-3.3 0-5.1-2.2-5.1-5.3 0-3.6 2.1-4.9 5.8-4.9h3.8v-.8c0-1.8-.2-2.4-3.1-2.4h-4.6l.5-4.5h5.1c6.2 0 7.6 2 7.6 7v10.7zm15.4-12.8c-2.8-.5-3.6-.6-5-.6-2.4 0-3.2.5-3.2 2.6v3.9c0 2.1.7 2.6 3.2 2.6 1.4 0 2.2-.1 5-.6V37c-2.5.6-4.1.7-5.4.7-5.8 0-8.2-3.1-8.2-7.5V27c0-4.4 2.3-7.5 8.2-7.5 1.4 0 3 .1 5.4.7v4.5zm17.1 5.5h-10v.4c0 2.1.7 2.6 3.2 2.6 2.2 0 3.5-.1 6.3-.6V37c-2.7.6-4.1.7-6.8.7-5.8 0-8.2-3.1-8.2-7.5v-3.6c0-3.9 1.7-7 7.7-7s7.7 3.1 7.7 7v3.6zm17.6.1c0 4.3-1.2 7.4-8.6 7.4-2.7 0-4.2-.2-7.2-.7V12.6l5.4-.9v8.6c1.2-.4 2.7-.7 4.1-.7 5.4 0 6.3 2.4 6.3 6.3v4.4zm17.4.1c0 3.7-1.5 7.3-7.9 7.3s-7.9-3.6-7.9-7.3v-3.6c0-3.7 1.6-7.3 7.9-7.3 6.4 0 7.9 3.6 7.9 7.3v3.6zm17.4 0c0 3.7-1.5 7.3-7.9 7.3s-7.9-3.6-7.9-7.3v-3.6c0-3.7 1.6-7.3 7.9-7.3 6.4 0 7.9 3.6 7.9 7.3v3.6zm17.9 7.1h-5.9l-5-8.3v8.3H200V12.6l5.4-.9v16l5-7.9h5.9l-5.4 8.6 5.4 9.1zm-25.8-13.4c-1.8 0-2.5 1-2.5 2.3V31c0 1.3.6 2.3 2.5 2.3 1.8 0 2.5-1 2.5-2.3v-4.6c0-1.3-.6-2.3-2.5-2.3"/></g><g id="XMLID_113_"><path id="XMLID_114_" class="st4" d="M154.6 22.8c-1.1 0-1.9.4-2.7.7v8.4c.8.1 1.2.1 2 .1 2.7 0 3-1.2 3-2.9v-4c0-1.3-.4-2.3-2.3-2.3m-17.6-.4c-1.8 0-2.3 1-2.3 2.3v.7h4.5v-.7c0-1.3-.4-2.3-2.2-2.3m-34.3 8.7c0 1 .5 1.5 1.5 1.5 1.1 0 1.8-.4 2.6-.7v-2h-2.4c-1.1 0-1.7.2-1.7 1.2m69.1-8.3c-1.9 0-2.5 1-2.5 2.3v4.6c0 1.3.6 2.3 2.5 2.3 1.8 0 2.5-1 2.5-2.3v-4.6c0-1.3-.6-2.3-2.5-2.3M93.7 36.2h-5.4V23.1h-2.7v-4.5h2.7v-2.7c0-3.7 1.5-5.9 5.9-5.9h3.6v4.5h-2.3c-1.7 0-1.8.6-1.8 1.8v2.3h4.1l-.5 4.5h-3.6v13.1zm18.6 0h-4.5l-.2-1.1c-2.1 1.1-3.9 1.3-5.1 1.3-3.3 0-5.1-2.2-5.1-5.3 0-3.6 2.1-4.9 5.8-4.9h3.8v-.8c0-1.8-.2-2.4-3.1-2.4h-4.6l.5-4.5h5.1c6.2 0 7.6 2 7.6 7v10.7zm15.4-12.8c-2.8-.5-3.6-.6-5-.6-2.4 0-3.2.5-3.2 2.6v3.9c0 2.1.7 2.6 3.2 2.6 1.4 0 2.2-.1 5-.6v4.4c-2.5.6-4.1.7-5.4.7-5.8 0-8.2-3.1-8.2-7.5v-3.2c0-4.4 2.3-7.5 8.2-7.5 1.4 0 3 .1 5.4.7v4.5zm17 5.5h-10v.4c0 2.1.7 2.6 3.2 2.6 2.2 0 3.5-.1 6.3-.6v4.4c-2.7.6-4.1.7-6.8.7-5.8 0-8.2-3.1-8.2-7.5v-3.6c0-3.9 1.7-7 7.7-7s7.7 3.1 7.7 7v3.6zm17.6.1c0 4.3-1.2 7.4-8.6 7.4-2.7 0-4.2-.2-7.2-.7V11.3l5.4-.9V19c1.2-.4 2.7-.7 4.1-.7 5.4 0 6.3 2.4 6.3 6.3V29zm17.4.1c0 3.7-1.5 7.3-7.9 7.3s-7.9-3.6-7.9-7.3v-3.6c0-3.7 1.6-7.3 7.9-7.3 6.4 0 7.9 3.6 7.9 7.3v3.6zm17.4 0c0 3.7-1.5 7.3-7.9 7.3s-7.9-3.6-7.9-7.3v-3.6c0-3.7 1.6-7.3 7.9-7.3 6.4 0 7.9 3.6 7.9 7.3v3.6zm17.9 7.1h-5.9l-5-8.3v8.3h-5.4V11.3l5.4-.9v16l5-7.9h5.9l-5.4 8.6 5.4 9.1zm-25.8-13.4c-1.8 0-2.5 1-2.5 2.3v4.6c0 1.3.6 2.3 2.5 2.3 1.8 0 2.5-1 2.5-2.3v-4.6c0-1.3-.6-2.3-2.5-2.3"/></g></g></g></svg>