<svg id="Layer_1" xmlns="http://www.w3.org/2000/svg" viewBox="0 0 266.3 56.2"><style>.st0{opacity:.7;fill:url(#XMLID_71_)}.st1{fill:#bc3626}.st2{opacity:.7;fill:#d05b4f}.st3{fill:#961b1e}.st4{fill:#fff}</style><g id="XMLID_30350_"><g id="XMLID_30531_"><linearGradient id="XMLID_71_" gradientUnits="userSpaceOnUse" x1="-164.217" y1="246.819" x2="-157.23" y2="246.819" gradientTransform="rotate(-90 -113.858 -.403)"><stop offset="0" stop-color="#fff" stop-opacity="0"/><stop offset="1"/></linearGradient><path id="XMLID_12_" class="st0" d="M.4 43h265.9v7H.4z"/></g><path id="XMLID_30528_" class="st1" d="M0 0h266.3v44.8H0z"/><path id="XMLID_30527_" class="st2" d="M0 0v19.5s79 8.1 125.6 8.1c43.9 0 140.7-8.1 140.7-8.1V0H0z"/><g id="XMLID_30522_"><path id="XMLID_30523_" class="st3" d="M16.2 22.1c-1.8-.2-3.4-.9-4.6-2-1.3-1.1-2.2-2.4-2.8-4.1-.9-2.5-.6-5 .6-7.4 1.3-2.5 3.4-4.2 6.3-5.2 2.4-.8 4.7-.9 6.9-.4L28 1.2c.8-.3 1.3-.4 1.4-.4.1 0 .3 0 .4.1.2.1.3.4.5.8.2.5.2.8.2 1 0 .1-.1.2-.2.3-.1.1-.6.3-1.4.6l-3.3 1.1c1.5 1 2.6 2.5 3.3 4.6.8 2.4.6 4.7-.7 7-1.2 2.3-3.4 4-6.4 5-1.3.4-2.6.7-4 .8-.6 1-.9 1.8-1 2.4-.1.6-.1 1.1 0 1.5.1.3.4.6.8.8.4.2 1.1.2 2 0 .5-.1 1.9-.5 3.9-1.1 3.8-1.2 6.3-1.9 7.5-2.1 1.8-.3 3.4-.2 4.8.5s2.3 1.8 2.8 3.3c.7 2.1.4 4.4-.9 6.9-2 3.7-5.3 6.3-9.9 7.9-3.6 1.2-6.8 1.4-9.8.7-1.7-.5-2.7-1.2-3.1-2.2-.2-.4-.2-.9-.1-1.4.1-.8.4-2 1-3.5.1-.2.7-1.5 1.8-3.9-1.2-.2-2-.5-2.6-.8-.6-.3-.9-.8-1.1-1.3-.2-.6-.2-1.5 0-2.5.1-1.3.9-3 2.3-5.2zm-.5-17.2c-1.4.5-2.3 1.4-2.9 2.8-.6 1.4-.4 3.2.3 5.5 1 2.9 2.4 5 4.2 6.1 1.4.9 2.8 1.1 4.3.6 1.4-.5 2.4-1.4 2.9-2.8s.4-3.2-.3-5.4c-1-2.9-2.4-5-4.3-6.2-1.3-.9-2.7-1.1-4.2-.6zM19 31.4c-.5 1.2-.9 2.3-1.1 3.3-.2 1-.1 1.8.1 2.5.3.9 1.1 1.5 2.4 1.8 2.2.5 5.1.2 8.6-1 3.3-1.1 5.6-2.5 6.8-4.3 1.2-1.7 1.5-3.2 1.1-4.6-.3-1-1-1.5-2.1-1.6-1.1-.1-3.1.3-5.9 1.2-4.3 1.4-7.5 2.3-9.9 2.7z"/></g><g id="XMLID_30517_"><path id="XMLID_30518_" class="st4" d="M14.6 21.4c-1.8-.2-3.4-.9-4.6-2-1.3-1.1-2.2-2.4-2.8-4.1-.9-2.5-.6-5 .6-7.4s3.4-4.2 6.3-5.2c2.4-.8 4.7-.9 6.9-.4L26.4.5c.8-.3 1.3-.4 1.4-.4s.3 0 .4.1c.2.1.3.4.5.8.2.5.2.8.2 1 0 .1-.1.2-.2.3-.2.3-.7.5-1.5.7l-3.3 1.1c1.5 1 2.6 2.5 3.3 4.6.8 2.4.6 4.7-.7 7-1.2 2.3-3.4 4-6.4 5-1.3.4-2.6.7-4 .8-.6 1-.9 1.8-1 2.4s-.1 1.1 0 1.5c.1.3.4.6.8.8.4.2 1.1.2 2 0 .5-.1 1.9-.5 3.9-1.1 3.8-1.2 6.3-1.9 7.5-2.1 1.8-.3 3.4-.2 4.8.5s2.3 1.8 2.8 3.3c.7 2.1.4 4.4-.9 6.9-2 3.7-5.3 6.3-9.9 7.9-3.6 1.2-6.8 1.4-9.8.7-1.7-.5-2.7-1.2-3.1-2.2-.2-.6-.2-1.1-.2-1.6.1-.8.4-2 1-3.5.1-.2.7-1.5 1.8-3.9-1.2-.2-2-.5-2.6-.8s-.9-.8-1.1-1.3c-.2-.6-.2-1.5 0-2.5s1.1-2.9 2.5-5.1zm2.8 9.3c-.5 1.2-.9 2.3-1.1 3.3-.2 1-.1 1.8.1 2.5.3.9 1.1 1.5 2.4 1.8 2.2.5 5.1.2 8.6-1 3.3-1.1 5.6-2.5 6.8-4.3 1.2-1.7 1.5-3.2 1.1-4.6-.3-1-1-1.5-2.1-1.6-1.1-.1-3.1.3-5.9 1.2-4.3 1.4-7.5 2.3-9.9 2.7zM14.1 4.2c-1.4.5-2.3 1.4-2.9 2.8s-.4 3.2.3 5.5c1 2.9 2.4 5 4.2 6.1 1.4.9 2.8 1.1 4.3.6 1.4-.5 2.4-1.4 2.9-2.8s.4-3.2-.3-5.4c-1-2.9-2.4-5-4.3-6.2-1.3-.9-2.7-1.1-4.2-.6z"/></g><g id="XMLID_30351_"><g id="XMLID_30497_"><path id="XMLID_30515_" class="st3" d="M117.7 21.6c-2.1.3-2.2.5-2.2 2.6v2.9c0 1.2 0 2.3.2 3.2-2.2.5-5.3 1.3-8.2 1.3-8 0-13.4-4.7-13.4-11.6 0-7.9 6.7-11.9 13.9-11.9 3.1 0 5.9.8 7.1 1 .1 1.2.3 3.1.5 5.6l-1 .2c-.9-4.3-3.6-5.6-7.2-5.6-5.4 0-9.4 3.9-9.4 10.2 0 5 3 10.8 9.9 10.8 1.2 0 2.3-.2 3-.6.8-.4 1.2-.9 1.2-2.2v-2.8c0-2.6-.2-2.8-3.8-3.1v-1h9.3v1z"/><path id="XMLID_30512_" class="st3" d="M128.1 15.6c4.5 0 7.8 3.5 7.8 7.7 0 5.6-4.3 8.2-7.8 8.2-5 0-8-3.8-8-7.6 0-5.6 4.6-8.3 8-8.3zm-.5 1.2c-2 0-3.9 2.1-3.9 6 0 4.4 1.9 7.6 4.7 7.6 2 0 3.9-1.4 3.9-6.2 0-4.2-1.7-7.4-4.7-7.4z"/><path id="XMLID_30509_" class="st3" d="M146.7 15.6c4.5 0 7.8 3.5 7.8 7.7 0 5.6-4.3 8.2-7.8 8.2-5 0-8-3.8-8-7.6 0-5.6 4.7-8.3 8-8.3zm-.4 1.2c-2 0-3.9 2.1-3.9 6 0 4.4 1.9 7.6 4.7 7.6 2 0 3.9-1.4 3.9-6.2-.1-4.2-1.7-7.4-4.7-7.4z"/><path id="XMLID_30505_" class="st3" d="M172.5 16.3c-.3.5-1 1.5-1.6 1.8l-2-.1c.6.7 1 1.8 1 3 0 3.7-3.2 5.5-6.3 5.5-.7 0-1.3-.1-1.8-.2-.4.3-.9.9-.9 1.3 0 .7.6 1.3 2.2 1.3 1.2 0 2.4-.1 3.6-.1 2.1 0 5.1.7 5.1 4.1 0 3.6-4.2 6.9-8.9 6.9-4 0-6.1-2.3-6.2-4.2 0-.8.4-1.5.9-2 .8-.7 2-1.6 2.8-2.3-1.3-.4-2.2-1.1-2.6-1.9-.3-.5-.5-1.2-.4-1.5 1.4-.5 2.6-1.4 3.1-2.1-1.7-.7-3.1-2.3-3.1-4.6 0-4 3.6-5.7 6.4-5.7 1.2 0 2.3.3 3.4.9 1.8-.1 3.6-.3 4.9-.5l.4.4zm-8.2 15.3c-1.6 0-2.4.2-3 .7-.9.7-1.5 1.6-1.5 2.6 0 1.8 1.9 3.4 4.7 3.4 3.2 0 4.9-1.7 4.9-3.8 0-1.2-.6-2.1-1.6-2.5-1.1-.3-2.1-.4-3.5-.4zm-.7-14.9c-1.4 0-2.8 1.4-2.8 4.1 0 2.7 1.3 4.6 3.2 4.6 1.5 0 2.8-1.4 2.8-4.1 0-2.6-1.2-4.6-3.2-4.6z"/><path id="XMLID_30503_" class="st3" d="M173.2 31.1v-.9c2.2-.3 2.5-.4 2.5-2.8V11.2c0-2.3-.2-2.4-2.4-2.6v-.8c1.9-.2 4.2-.8 5.4-1.2v20.9c0 2.3.3 2.6 2.6 2.8v.9h-8.1z"/><path id="XMLID_30500_" class="st3" d="M195.9 28c-2.3 2.9-4.8 3.5-5.9 3.5-4.3 0-6.9-3.5-6.9-7.3 0-2.3.8-4.4 2.2-5.9 1.5-1.7 3.4-2.6 5.3-2.6 3 0 5.4 2.6 5.4 5.3 0 .7-.2 1-.8 1.1-.6.1-5 .4-9.1.6.1 4.5 2.7 6.4 5.1 6.4 1.4 0 2.8-.5 4.1-1.7l.6.6zm-6.1-11.1c-1.5 0-3 1.3-3.5 4.2 1.9 0 3.7 0 5.7-.1.6 0 .8-.2.8-.7 0-1.7-1.2-3.4-3-3.4z"/><path id="XMLID_30498_" class="st3" d="M207.9 23.3v7.8h-2.1v-7.8h-7.2v-1.8h7.2v-7.1h2.1v7.1h7.2v1.8h-7.2z"/></g><g id="XMLID_30352_"><path id="XMLID_30494_" class="st4" d="M117.3 20.7c-2.1.3-2.2.5-2.2 2.6v2.9c0 1.2 0 2.3.2 3.2-2.2.5-5.3 1.3-8.2 1.3-8 0-13.4-4.7-13.4-11.6 0-7.9 6.7-11.9 13.9-11.9 3.1 0 5.9.8 7.1 1 .1 1.2.3 3.1.5 5.6l-1 .2c-.9-4.3-3.6-5.6-7.2-5.6-5.4 0-9.4 3.9-9.4 10.2 0 5 3 10.8 9.9 10.8 1.2 0 2.3-.2 3-.6.8-.4 1.2-.9 1.2-2.2v-2.8c0-2.6-.2-2.8-3.8-3.1v-1h9.3v1z"/><path id="XMLID_30491_" class="st4" d="M127.6 14.7c4.5 0 7.8 3.5 7.8 7.7 0 5.6-4.3 8.2-7.8 8.2-5 0-8-3.8-8-7.6 0-5.7 4.7-8.3 8-8.3zm-.4 1.1c-2 0-3.9 2.1-3.9 6 0 4.4 1.9 7.6 4.7 7.6 2 0 3.9-1.4 3.9-6.2-.1-4.2-1.7-7.4-4.7-7.4z"/><path id="XMLID_30488_" class="st4" d="M146.2 14.7c4.5 0 7.8 3.5 7.8 7.7 0 5.6-4.3 8.2-7.8 8.2-5 0-8-3.8-8-7.6.1-5.7 4.7-8.3 8-8.3zm-.4 1.1c-2 0-3.9 2.1-3.9 6 0 4.4 1.9 7.6 4.7 7.6 2 0 3.9-1.4 3.9-6.2-.1-4.2-1.7-7.4-4.7-7.4z"/><path id="XMLID_30484_" class="st4" d="M172 15.4c-.3.5-1 1.5-1.6 1.8l-2-.1c.6.7 1 1.8 1 3 0 3.7-3.2 5.5-6.3 5.5-.7 0-1.3-.1-1.8-.2-.4.3-.9.9-.9 1.3 0 .7.6 1.3 2.2 1.3 1.2 0 2.4-.1 3.6-.1 2.1 0 5.1.7 5.1 4.1 0 3.6-4.2 6.9-8.9 6.9-4 0-6.1-2.3-6.2-4.2 0-.8.4-1.5.9-2 .8-.7 2-1.6 2.8-2.3-1.3-.4-2.2-1.1-2.6-1.9-.3-.5-.5-1.2-.4-1.5 1.4-.5 2.6-1.4 3.1-2.1-1.7-.7-3.1-2.3-3.1-4.6 0-4 3.6-5.7 6.4-5.7 1.2 0 2.3.3 3.4.9 1.8-.1 3.6-.3 4.9-.5l.4.4zm-8.2 15.3c-1.6 0-2.4.2-3 .7-.9.7-1.5 1.6-1.5 2.6 0 1.8 1.9 3.4 4.7 3.4 3.2 0 4.9-1.7 4.9-3.8 0-1.2-.6-2.1-1.6-2.5-1-.3-2-.4-3.5-.4zm-.6-14.9c-1.4 0-2.8 1.4-2.8 4.1 0 2.7 1.3 4.6 3.2 4.6 1.5 0 2.8-1.4 2.8-4.1-.1-2.7-1.3-4.6-3.2-4.6z"/><path id="XMLID_30481_" class="st4" d="M172.7 30.2v-.9c2.2-.3 2.5-.4 2.5-2.8V10.3c0-2.3-.2-2.4-2.4-2.6v-.9c1.9-.2 4.2-.8 5.4-1.2v20.9c0 2.3.3 2.6 2.6 2.8v.9h-8.1z"/><path id="XMLID_30478_" class="st4" d="M195.4 27.1c-2.3 2.9-4.8 3.5-5.9 3.5-4.3 0-6.9-3.5-6.9-7.3 0-2.3.8-4.4 2.2-5.9 1.5-1.7 3.4-2.6 5.3-2.6 3 0 5.4 2.6 5.4 5.3 0 .7-.2 1-.8 1.1-.6.1-5 .4-9.1.6.1 4.5 2.7 6.4 5.1 6.4 1.4 0 2.8-.5 4.1-1.7l.6.6zM189.3 16c-1.5 0-3 1.3-3.5 4.2 1.9 0 3.7 0 5.7-.1.6 0 .8-.2.8-.7 0-1.7-1.1-3.4-3-3.4z"/><path id="XMLID_30353_" class="st4" d="M207.5 22.3v7.8h-2.1v-7.8h-7.2v-1.8h7.2v-7.1h2.1v7.1h7.2v1.8h-7.2z"/></g></g></g></svg>