<svg xmlns="http://www.w3.org/2000/svg" width="554.452" height="181.368" viewBox="0 0 554.452 181.368"><path d="M536.884 153.34c0 12.736-10.322 23.064-23.057 23.064H38.237c-12.734 0-23.062-10.328-23.062-23.064V28.809c0-12.734 10.328-23.062 23.062-23.062h475.59c12.734 0 23.057 10.327 23.057 23.062V153.34z"/><path fill="#FFF" d="M151.221 118.551c-2.762 6.122-4.084 8.854-7.639 14.264-4.963 7.555-11.955 16.961-20.619 17.04-7.701.071-9.678-5.012-20.127-4.954-10.448.057-12.631 5.043-20.332 4.973-8.665-.08-15.291-8.574-20.254-16.127-13.875-21.121-15.324-45.908-6.768-59.085 6.082-9.365 15.672-14.847 24.693-14.847 9.185 0 14.958 5.037 22.551 5.037 7.365 0 11.855-5.045 22.473-5.045 8.025 0 16.529 4.369 22.59 11.928-19.853 10.878-16.628 39.236 3.432 46.816z"/><path fill="#FFF" d="M117.145 51.369c3.855-4.951 6.787-11.945 5.725-19.092-6.301.434-13.674 4.443-17.979 9.67-3.906 4.746-7.131 11.784-5.875 18.623 6.879.213 13.996-3.895 18.129-9.201zm76.346 22.973l-19.875 58.504h9.102l5.934-17.964h19.244l6.102 17.964h9.354l-19.961-58.504h-9.9zm4.716 9.619c.671 2.611 1.396 5.323 2.326 8.254l5.356 15.512h-15.244l5.281-15.613a128.931 128.931 0 0 0 2.281-8.153zm50.862 5.547c-6.029 0-10.857 2.327-14.072 6.751l-.353-5.819h-8.097l.049.744c.238 3.625.338 7.615.338 13.344v45.094h8.852v-21.044c2.746 3.286 7.131 5.199 12.1 5.199 5.174 0 9.939-2.026 13.412-5.702 3.878-4.098 5.923-9.988 5.923-17.025 0-6.219-1.776-11.596-5.143-15.546-3.297-3.867-7.915-5.996-13.009-5.996zm-2.205 7.328c7.891 0 11.422 7.31 11.422 14.553 0 9.342-4.506 15.146-11.758 15.146-4.951 0-9.234-3.37-10.428-8.214-.205-.75-.314-1.744-.314-2.865v-7.118c0-.645.145-1.427.281-2.185.044-.242.092-.484.127-.719 1.32-5.065 5.702-8.598 10.67-8.598zm47.785-7.328c-6.027 0-10.855 2.327-14.074 6.751l-.352-5.819h-8.094l.045.744c.24 3.629.342 7.615.342 13.344v45.094h8.852v-21.044c2.746 3.286 7.127 5.199 12.096 5.199 5.174 0 9.939-2.026 13.418-5.702 3.871-4.098 5.92-9.988 5.92-17.025 0-6.219-1.779-11.596-5.146-15.546-3.296-3.867-7.913-5.996-13.007-5.996zm-2.203 7.328c7.887 0 11.418 7.31 11.418 14.553 0 9.342-4.508 15.146-11.756 15.146-4.949 0-9.236-3.37-10.428-8.214-.205-.75-.312-1.744-.312-2.865v-7.118c0-.648.143-1.434.281-2.192.045-.238.088-.477.129-.711 1.315-5.066 5.7-8.599 10.668-8.599zm59.305 2.295c-8.26-3.199-10.906-5.715-10.906-10.363 0-3.914 3.109-7.861 10.061-7.861 5.734 0 9.402 1.994 10.391 2.608l.75.463 2.498-7.387-.494-.289c-1.482-.869-5.709-2.892-12.891-2.892-11.287 0-19.172 6.664-19.172 16.202 0 7.692 4.938 13.069 15.537 16.923 7.512 2.808 10.307 5.684 10.307 10.614 0 5.581-4.312 9.044-11.25 9.044-4.52 0-9.17-1.317-12.758-3.617l-.768-.492-2.377 7.558.438.289c3.342 2.231 9.631 3.846 14.959 3.846 15.213 0 20.607-9.276 20.607-17.22 0-8.19-4.325-13.241-14.932-17.426zm30.865-18.771l-8.682 2.726v7.354h-6.355v7.074h6.355v21.67c0 5.238 1.002 8.91 3.064 11.23 1.979 2.168 5.02 3.362 8.564 3.362 3.346 0 5.723-.661 6.842-1.057l.496-.176-.424-7.087-.85.261c-1.119.344-2.268.476-4.117.476-3.43 0-4.895-2.17-4.895-7.265V97.514h10.678V90.44h-10.678V80.36zm32.613 9.148c-12.385 0-21.033 9.244-21.033 22.473 0 12.834 8.369 21.796 20.355 21.796h.082c10.133 0 21.033-7.059 21.033-22.558 0-6.302-1.949-11.715-5.641-15.656-3.712-3.959-8.831-6.055-14.796-6.055zm-.255 6.988c7.963 0 11.588 7.763 11.588 14.979 0 8.873-4.947 15.313-11.756 15.313h-.086c-6.713 0-11.586-6.333-11.586-15.058 0-7.582 3.662-15.234 11.84-15.234zm47.804-6.577l-.531-.135a8.524 8.524 0 0 0-2.201-.276c-4.631 0-8.785 2.727-11.098 7.126l-.26-6.194h-7.943l.051.744c.236 3.504.334 7.438.334 12.746l-.082 28.916h8.852v-22.559c0-1.229.084-2.39.244-3.432.998-5.418 4.654-8.92 9.312-8.92.906 0 1.619.074 2.375.148l.947.098v-8.262zm19.901-.495c-11.783 0-20.014 9.415-20.014 22.896 0 12.981 8.188 21.372 20.861 21.372 6.664 0 11.301-1.463 14.014-2.688l.533-.24-1.701-6.596-.738.298c-2.412.981-5.619 1.983-11.09 1.983-3.846 0-12.715-1.269-13.258-12.834l28.57.086.115-.565c.18-.899.266-2.111.266-3.694 0-9.235-4.597-20.018-17.558-20.018zm-.59 6.734c2.695 0 4.883.834 6.498 2.479 2.547 2.592 2.992 6.408 3.049 8.24h-20.188c.823-5.111 4.02-10.719 10.641-10.719zM173.616 34.377a64.517 64.517 0 0 1 8.49-.574c5.707 0 9.77 1.15 12.463 3.41 2.784 2.259 4.383 5.504 4.383 9.982 0 4.519-1.599 8.215-4.428 10.763-2.922 2.588-7.67 3.985-13.649 3.985-2.876 0-5.204-.082-7.259-.329V34.377zm4.017 24.526c1.004.164 2.465.164 4.018.164 8.49.04 13.1-4.272 13.1-11.749.046-6.614-4.062-10.682-12.461-10.682-2.053 0-3.606.166-4.656.369v21.898zm35.555 3.245c-5.936 0-10.59-3.943-10.59-10.229 0-6.655 4.884-10.559 10.954-10.559 6.347 0 10.636 4.148 10.636 10.188 0 7.395-5.705 10.599-10.953 10.599h-.047zm.137-2.711c3.834 0 6.711-3.245 6.711-7.765 0-3.368-1.872-7.6-6.619-7.6-4.703 0-6.757 3.944-6.757 7.724 0 4.354 2.739 7.641 6.619 7.641h.046zm17.218-17.625l2.967 10.066c.593 2.218 1.188 4.312 1.598 6.367h.137c.502-2.014 1.232-4.149 1.963-6.326l3.606-10.107h3.379l3.424 9.941a73.271 73.271 0 0 1 1.962 6.492h.137c.365-2.014.96-4.108 1.689-6.45l3.148-9.983h3.973l-7.121 19.884h-3.652l-3.377-9.489c-.775-2.26-1.416-4.231-1.965-6.573h-.09c-.548 2.383-1.232 4.478-2.01 6.614l-3.56 9.448H233.1l-6.666-19.884h4.109zm32.002 5.383c0-2.096-.046-3.738-.184-5.383h3.562l.228 3.247h.092c1.096-1.85 3.651-3.698 7.303-3.698 3.059 0 7.805 1.643 7.805 8.463v11.872h-4.014V50.234c0-3.204-1.327-5.914-5.115-5.914-2.602 0-4.657 1.684-5.386 3.696-.183.452-.274 1.108-.274 1.685v11.995h-4.017V47.195zm25.335-14.666h4.018v29.167h-4.018V32.529zm19.676 29.619c-5.934 0-10.59-3.943-10.59-10.229 0-6.655 4.881-10.559 10.955-10.559 6.344 0 10.635 4.148 10.635 10.188 0 7.395-5.707 10.599-10.955 10.599h-.045zm.134-2.711c3.834 0 6.711-3.245 6.711-7.765 0-3.368-1.871-7.6-6.617-7.6-4.703 0-6.758 3.944-6.758 7.724 0 4.354 2.738 7.641 6.619 7.641h.045zm31.5-2.505c0 1.725.092 3.408.32 4.765h-3.607l-.365-2.505h-.135c-1.188 1.561-3.609 2.957-6.756 2.957-4.473 0-6.756-2.834-6.756-5.711 0-4.806 4.746-7.436 13.281-7.395v-.41c0-1.643-.5-4.642-5.02-4.601-2.102 0-4.246.532-5.797 1.478l-.914-2.423c1.826-1.026 4.518-1.726 7.305-1.726 6.801 0 8.443 4.148 8.443 8.135v7.436zm-3.923-5.382c-4.383-.082-9.359.616-9.359 4.478 0 2.383 1.734 3.451 3.744 3.451 2.92 0 4.793-1.644 5.43-3.328.141-.369.186-.781.186-1.15V51.55zm29.441-19.021V56.56c0 1.767.049 3.779.184 5.136h-3.605l-.182-3.45h-.092c-1.232 2.218-3.881 3.902-7.486 3.902-5.342 0-9.496-4.066-9.496-10.106-.047-6.655 4.566-10.681 9.904-10.681 3.426 0 5.709 1.439 6.668 2.999h.09V32.529h4.015zm-4.016 17.377c0-.493-.045-1.068-.184-1.561-.592-2.26-2.783-4.149-5.797-4.149-4.154 0-6.619 3.286-6.619 7.642 0 4.066 2.238 7.393 6.527 7.393 2.695 0 5.16-1.643 5.889-4.312.139-.492.184-.986.184-1.561v-3.452zm29.352 12.242c-5.934 0-10.59-3.943-10.59-10.229 0-6.655 4.887-10.559 10.955-10.559 6.348 0 10.637 4.148 10.637 10.188 0 7.395-5.707 10.599-10.953 10.599h-.049zm.139-2.711c3.834 0 6.709-3.245 6.709-7.765 0-3.368-1.869-7.6-6.617-7.6-4.703 0-6.756 3.944-6.756 7.724 0 4.354 2.738 7.641 6.617 7.641h.047zm15.933-12.242c0-2.096-.047-3.738-.184-5.383h3.561l.23 3.247h.09c1.096-1.85 3.65-3.698 7.303-3.698 3.059 0 7.807 1.643 7.807 8.463v11.872h-4.018V50.234c0-3.204-1.322-5.914-5.113-5.914-2.6 0-4.656 1.684-5.387 3.696-.182.452-.273 1.108-.273 1.685v11.995h-4.016V47.195zm39.852-10.146v4.764h5.75v2.752h-5.75v10.724c0 2.464.777 3.861 3.014 3.861 1.094 0 1.734-.082 2.328-.246l.182 2.752c-.775.246-2.008.493-3.561.493-1.871 0-3.379-.575-4.338-1.52-1.096-1.109-1.551-2.877-1.551-5.219V44.564h-3.424v-2.752h3.424v-3.655l3.926-1.108zm10.271-4.52h4.016v12.406h.094a6.824 6.824 0 0 1 2.877-2.547c1.186-.656 2.598-1.027 4.107-1.027 2.965 0 7.713 1.643 7.713 8.504v11.831h-4.016v-11.42c0-3.246-1.324-5.916-5.113-5.916a5.775 5.775 0 0 0-5.387 3.615c-.229.493-.275 1.026-.275 1.726v11.995h-4.016V32.529zm27.617 19.842c.094 4.889 3.518 6.902 7.533 6.902 2.875 0 4.656-.453 6.119-.987l.73 2.547c-1.418.575-3.883 1.274-7.396 1.274-6.758 0-10.865-4.068-10.865-10.023 0-6.039 3.973-10.764 10.406-10.764 7.215 0 9.084 5.71 9.084 9.367 0 .739-.043 1.314-.135 1.725l-15.476-.041zm11.735-2.588c.043-2.26-1.051-5.875-5.525-5.875-4.109 0-5.844 3.369-6.162 5.875h11.687z"/></svg>