<svg xmlns="http://www.w3.org/2000/svg" xmlns:xlink="http://www.w3.org/1999/xlink" width="543.917" height="177.922" viewBox="0 0 543.917 177.922"><path d="M532.121 149.773c0 12.486-10.121 22.612-22.605 22.612H43.251c-12.486 0-22.61-10.126-22.61-22.612V27.685c0-12.485 10.125-22.61 22.61-22.61h466.264c12.484 0 22.605 10.125 22.605 22.61v122.088z"/><defs><path id="a" d="M131.485 78.721l-23.063-13.315-44.486-25.687c-2.47-1.426-4.931-.562-4.931 2.418v104.651c0 2.234 1.759 3.197 3.905 1.959 2.145-1.24 45.512-26.279 45.512-26.279l23.062-13.314 22.169-12.798c2.601-1.503 2.351-3.563.156-4.745-2.194-1.184-22.324-12.89-22.324-12.89z"/></defs><clipPath id="b"><use xlink:href="#a" overflow="visible"/></clipPath><linearGradient id="c" gradientUnits="userSpaceOnUse" x1="87.573" y1="37.285" x2="87.573" y2="150.588"><stop offset="0" stop-color="#2079b0"/><stop offset=".286" stop-color="#4a93b8"/><stop offset=".767" stop-color="#83bebf"/><stop offset="1" stop-color="#97cfbf"/></linearGradient><path clip-path="url(#b)" fill="url(#c)" d="M59.006 37.285v113.303l57.134-56.65z"/><linearGradient id="d" gradientUnits="userSpaceOnUse" x1="59.006" y1="65.405" x2="131.485" y2="65.405"><stop offset="0" stop-color="#5abcab"/><stop offset="1" stop-color="#e6e99a"/></linearGradient><path clip-path="url(#b)" fill="url(#d)" d="M131.485 78.721l-23.063-13.316-49.416-28.532v.412l57.134 56.653z"/><linearGradient id="e" gradientUnits="userSpaceOnUse" x1="95.245" y1="93.938" x2="95.245" y2="151"><stop offset="0" stop-color="#e53432"/><stop offset=".167" stop-color="#d73948"/><stop offset=".575" stop-color="#b33f72"/><stop offset=".862" stop-color="#9a4189"/><stop offset="1" stop-color="#904192"/></linearGradient><path clip-path="url(#b)" fill="url(#e)" d="M59.006 150.588V151l49.416-28.533 23.062-13.315-15.344-15.214z"/><linearGradient id="f" gradientUnits="userSpaceOnUse" x1="136.99" y1="78.721" x2="136.99" y2="109.153"><stop offset="0" stop-color="#f18779"/><stop offset=".119" stop-color="#f2917a"/><stop offset=".713" stop-color="#fabc77"/><stop offset="1" stop-color="#fdcb73"/></linearGradient><path clip-path="url(#b)" fill="url(#f)" d="M131.485 78.721L116.14 93.938l15.344 15.214 26.357-15.215z"/><path d="M418.699 116.085c-2.145 0-4.104-.396-5.877-1.187-1.773-.792-3.262-2.01-4.465-3.652h-.361c.24 1.924.361 3.748.361 5.471v13.559h-4.988V82.533h4.057l.691 4.51h.24c1.283-1.805 2.777-3.106 4.48-3.908s3.658-1.203 5.861-1.203c4.371 0 7.744 1.494 10.117 4.48 2.375 2.986 3.564 7.176 3.564 12.566 0 5.412-1.209 9.615-3.621 12.614-2.417 2.996-5.768 4.493-10.059 4.493zm-.721-29.914c-3.367 0-5.803.933-7.305 2.796-1.504 1.864-2.275 4.831-2.316 8.9v1.111c0 4.631.771 7.943 2.316 9.938 1.543 1.994 4.02 2.99 7.424 2.99 2.848 0 5.078-1.151 6.693-3.456 1.611-2.304 2.418-5.481 2.418-9.532 0-4.107-.807-7.261-2.418-9.455-1.615-2.195-3.886-3.292-6.812-3.292zm25.957 29.312h-4.99v-46.78h4.99v46.78zm28.691 0l-.992-4.69h-.24c-1.645 2.066-3.283 3.465-4.916 4.194-1.633.733-3.674 1.098-6.117 1.098-3.268 0-5.828-.842-7.682-2.525-1.855-1.684-2.781-4.077-2.781-7.185 0-6.653 5.322-10.141 15.963-10.463l5.594-.181v-2.044c0-2.586-.557-4.496-1.67-5.727-1.111-1.234-2.893-1.85-5.336-1.85-2.746 0-5.854.842-9.32 2.525l-1.533-3.818c1.625-.882 3.402-1.573 5.338-2.074a23.1 23.1 0 0 1 5.816-.752c3.928 0 6.84.871 8.734 2.615 1.893 1.744 2.84 4.54 2.84 8.389v22.487h-3.698zm-11.273-3.516c3.105 0 5.545-.852 7.32-2.555 1.773-1.703 2.662-4.089 2.662-7.157v-2.976l-4.994.209c-3.967.143-6.826.757-8.582 1.852-1.754 1.092-2.631 2.791-2.631 5.096 0 1.803.545 3.177 1.639 4.117 1.094.943 2.619 1.414 4.586 1.414zm17.869-29.434h5.35l7.215 18.791c1.584 4.29 2.566 7.386 2.949 9.291h.24c.26-1.024.807-2.771 1.637-5.249.832-2.476 3.555-10.085 8.162-22.833h5.354l-14.162 37.521c-1.402 3.708-3.041 6.339-4.916 7.895-1.873 1.552-4.174 2.327-6.898 2.327-1.523 0-3.027-.17-4.512-.51v-3.998c1.102.24 2.336.361 3.699.361 3.428 0 5.871-1.924 7.336-5.773l1.834-4.689-13.288-33.134z" fill="#F9F9F9"/><g fill="#F9F9F9"><path d="M326.25 85.595c1.584 1.311 4.893 4.065 4.893 9.306 0 5.097-2.895 7.514-5.791 9.785-.896.895-1.93 1.863-1.93 3.381 0 1.513 1.033 2.341 1.795 2.962l2.482 1.926c3.031 2.551 5.785 4.896 5.785 9.653 0 6.478-6.271 13.023-18.123 13.023-9.996 0-14.818-4.754-14.818-9.857 0-2.48 1.236-5.993 5.307-8.408 4.27-2.619 10.064-2.96 13.164-3.172-.969-1.239-2.068-2.549-2.068-4.682 0-1.17.346-1.86.689-2.691-.762.07-1.518.139-2.209.139-7.303 0-11.438-5.445-11.438-10.818 0-3.171 1.449-6.688 4.408-9.235 3.93-3.239 8.617-3.792 12.342-3.792h14.193l-4.41 2.481h-4.271zm-4.895 30.602c-.551-.072-.896-.072-1.582-.072-.621 0-4.348.141-7.238 1.108-1.516.547-5.928 2.201-5.928 7.097 0 4.891 4.758 8.411 12.133 8.411 6.611 0 10.131-3.177 10.131-7.446 0-3.522-2.276-5.375-7.516-9.098zm2-13.096c1.584-1.587 1.719-3.79 1.719-5.032 0-4.961-2.961-12.68-8.68-12.68-1.795 0-3.723.895-4.826 2.275-1.17 1.447-1.518 3.306-1.518 5.1 0 4.617 2.689 12.268 8.619 12.268 1.723-.001 3.579-.828 4.686-1.931zm-40.494 11.993c-10.939 0-16.788-8.533-16.788-16.241 0-9.015 7.361-16.718 17.825-16.718 10.109 0 16.441 7.91 16.441 16.238 0 8.116-6.259 16.721-17.478 16.721zm8.599-5.573c1.654-2.204 2.068-4.955 2.068-7.641 0-6.057-2.891-17.615-11.424-17.615-2.27 0-4.539.896-6.191 2.344-2.684 2.405-3.168 5.434-3.168 8.396 0 6.807 3.372 18.02 11.701 18.02 2.682 0 5.436-1.304 7.014-3.504zm-45.894 5.573c-10.941 0-16.791-8.533-16.791-16.241 0-9.015 7.364-16.718 17.824-16.718 10.113 0 16.443 7.91 16.443 16.238.001 8.116-6.259 16.721-17.476 16.721zm8.602-5.573c1.651-2.204 2.065-4.955 2.065-7.641 0-6.057-2.892-17.615-11.425-17.615-2.269 0-4.541.896-6.191 2.344-2.684 2.405-3.165 5.434-3.165 8.396 0 6.807 3.37 18.02 11.699 18.02 2.684 0 5.435-1.304 7.017-3.504zm-30.648 4.495l-9.894 2.283c-4.014.624-7.61 1.173-11.413 1.173-19.096 0-26.357-14.044-26.357-25.044 0-13.419 10.306-25.868 27.949-25.868 3.737 0 7.331.552 10.582 1.452 5.188 1.453 7.609 3.25 9.132 4.289l-5.744 5.465-2.42.551 1.729-2.768c-2.351-2.281-6.644-6.5-14.804-6.5-10.931 0-19.165 8.305-19.165 20.41 0 13.002 9.41 25.247 24.488 25.247 4.432 0 6.71-.898 8.787-1.73V101.84l-10.444.553 5.532-2.978h14.667l-1.797 1.729c-.488.417-.555.557-.693 1.105-.072.624-.137 2.632-.137 3.323v8.444z"/><path d="M348.115 112.023c-2.283-.208-2.762-.621-2.762-3.322V69.547c.014-.149.023-.302.037-.446.279-2.42.971-2.835 3.117-4.082h-9.896l-5.189 2.491h5.289v.031l-.004-.025v42.709c0 1.381-.273 1.591-1.867 3.664h12.246l2.561-1.518c-1.177-.142-2.355-.21-3.532-.348zm28.15.636c-.754.413-1.51.896-2.262 1.237-2.271 1.03-4.607 1.306-6.672 1.306-2.193 0-5.631-.142-9.137-2.681-4.875-3.438-7.004-9.346-7.004-14.497 0-10.647 8.656-15.868 15.732-15.868 2.473 0 5.018.617 7.08 1.925 3.432 2.263 4.324 5.217 4.803 6.798l-16.141 6.529-5.291.412c1.715 8.725 7.623 13.805 14.152 13.805 3.502 0 6.045-1.234 8.381-2.4l-3.641 3.434zm-6.455-20.475c1.303-.479 1.99-.893 1.99-1.854 0-2.746-3.09-5.908-6.803-5.908-2.752 0-7.9 2.131-7.9 9.549 0 1.168.137 2.404.209 3.645l12.504-5.432zm13.086-9.558v4.533h-.551v-4.533h-1.5v-.47h3.551v.47h-1.5zm6.18 4.533v-4.575h-.025l-1.396 4.575h-.43l-1.408-4.575h-.018v4.575h-.5v-5.003h.857l1.273 4.044h.018l1.256-4.044h.869v5.003h-.496z"/></g><path d="M189.595 53.089h-3.438c0-.473-.326-1.812-.978-4.018h-4.963c-.673 2.17-1.01 3.509-1.01 4.018h-3.233c0-.279.836-2.571 2.508-6.875 1.672-4.304 2.508-6.675 2.508-7.111h4.061c0 .408.757 2.744 2.272 7.009s2.273 6.59 2.273 6.977zm-4.963-6.069c-1.225-3.695-1.837-5.693-1.837-5.994h-.172c0 .279-.634 2.277-1.901 5.994h3.91zm18.815 6.069h-2.653c0-.294-.985-1.844-2.954-4.651-2.062-2.958-3.237-4.98-3.523-6.069h-.172c.179 1.568.269 2.986.269 4.254 0 1.769.05 3.925.15 6.467h-2.643c.107-2.22.161-4.658.161-7.315 0-2.614-.054-4.838-.161-6.671h3.19c0 .38.884 1.895 2.653 4.544 1.883 2.814 2.965 4.723 3.244 5.726h.161c-.172-1.597-.258-3.029-.258-4.297 0-1.94-.05-3.932-.15-5.973h2.686c-.101 1.776-.15 4-.15 6.671-.001 2.691.049 5.129.15 7.314zm15.57-7.477c0 2.034-.652 3.81-1.955 5.328-1.304 1.519-3.13 2.277-5.479 2.277-1.06 0-2.521-.043-4.383-.129.093-2.163.14-4.602.14-7.315 0-2.606-.047-4.83-.14-6.671h1.88c.308 0 .766-.011 1.375-.032a45.567 45.567 0 0 1 1.192-.032c2.585 0 4.459.645 5.624 1.934 1.164 1.289 1.746 2.836 1.746 4.64zm-2.933.462c0-1.375-.401-2.533-1.203-3.476-.802-.941-2.027-1.412-3.674-1.412-.308 0-.73.032-1.268.097a90.8 90.8 0 0 1 .107 4.49c0 1.712.036 3.409.107 5.092.465.093.931.14 1.396.14 1.54 0 2.68-.479 3.421-1.435s1.114-2.121 1.114-3.496zm17.289 7.015h-3.18c-.831-2.535-1.468-4.1-1.912-4.694-.444-.595-1.16-.892-2.148-.892-.416 0-.813.004-1.192.011 0 1.841.032 3.699.097 5.575h-2.986c.093-2.163.14-4.602.14-7.315 0-2.606-.047-4.83-.14-6.671h1.858c.215 0 .664-.011 1.348-.032a62.19 62.19 0 0 1 1.896-.032c3.287 0 4.931 1.124 4.931 3.373 0 1.783-.938 3.025-2.814 3.728v.16c.723.2 1.357.765 1.901 1.691.543.928 1.277 2.627 2.201 5.098zm-4.028-9.883c0-1.425-.917-2.138-2.75-2.138-.673 0-1.268.05-1.783.15.079 1.11.118 2.557.118 4.34.394.015.727.021.999.021 2.277.001 3.416-.79 3.416-2.373zm19.426 2.632c0 2.198-.673 4.021-2.02 5.468-1.347 1.446-3.012 2.17-4.995 2.17-1.891 0-3.474-.664-4.748-1.993-1.275-1.328-1.912-3.017-1.912-5.064 0-2.198.673-4.021 2.02-5.468 1.346-1.446 3.011-2.17 4.995-2.17 1.891 0 3.473.662 4.748 1.987 1.275 1.325 1.912 3.014 1.912 5.07zm-2.964.311c0-1.497-.383-2.711-1.149-3.642-.767-.931-1.712-1.396-2.836-1.396-1.046 0-1.934.469-2.664 1.407s-1.096 2.123-1.096 3.556c0 1.489.385 2.701 1.155 3.636s1.713 1.402 2.831 1.402c1.045 0 1.934-.471 2.664-1.413.729-.941 1.095-2.125 1.095-3.55zm9.038 6.94h-3.04c.093-2.22.14-4.658.14-7.315 0-2.614-.047-4.838-.14-6.671h3.04c-.093 1.805-.14 4.028-.14 6.671.001 2.7.047 5.138.14 7.315zm15.571-7.477c0 2.034-.652 3.81-1.955 5.328-1.304 1.519-3.13 2.277-5.479 2.277-1.06 0-2.521-.043-4.383-.129.093-2.163.14-4.602.14-7.315 0-2.606-.047-4.83-.14-6.671h1.88c.308 0 .766-.011 1.375-.032a45.567 45.567 0 0 1 1.192-.032c2.585 0 4.459.645 5.624 1.934 1.163 1.289 1.746 2.836 1.746 4.64zm-2.933.462c0-1.375-.401-2.533-1.203-3.476-.802-.941-2.027-1.412-3.674-1.412-.308 0-.73.032-1.268.097a90.8 90.8 0 0 1 .107 4.49c0 1.712.036 3.409.107 5.092.465.093.931.14 1.396.14 1.54 0 2.68-.479 3.421-1.435s1.114-2.121 1.114-3.496zm23.589 7.015h-3.438c0-.473-.326-1.812-.979-4.018h-4.963c-.674 2.17-1.01 3.509-1.01 4.018h-3.232c0-.279.836-2.571 2.508-6.875s2.508-6.675 2.508-7.111h4.061c0 .408.758 2.744 2.271 7.009 1.516 4.264 2.274 6.59 2.274 6.977zm-4.963-6.069c-1.225-3.695-1.838-5.693-1.838-5.994h-.172c0 .279-.633 2.277-1.9 5.994h3.91zm17.492-4.254c0 1.712-.635 2.976-1.906 3.792s-2.83 1.225-4.678 1.225c-.338 0-.576-.007-.721-.021 0 1.347.039 3.122.119 5.328h-3.02c.094-2.069.141-4.508.141-7.315 0-2.578-.047-4.802-.141-6.671h1.869c.266 0 .773-.011 1.525-.032s1.404-.032 1.955-.032c1.361 0 2.51.308 3.449.924.939.614 1.408 1.549 1.408 2.802zm-2.771.59c0-1.532-1.016-2.299-3.051-2.299-.508 0-1.045.054-1.611.161.08 1.354.119 2.886.119 4.598.178.015.387.021.623.021 2.613.001 3.92-.826 3.92-2.481zm15.656-.59c0 1.712-.637 2.976-1.906 3.792-1.271.816-2.832 1.225-4.68 1.225-.336 0-.576-.007-.719-.021 0 1.347.039 3.122.117 5.328h-3.018c.092-2.069.139-4.508.139-7.315 0-2.578-.047-4.802-.139-6.671h1.869c.264 0 .773-.011 1.525-.032s1.402-.032 1.955-.032c1.359 0 2.51.308 3.447.924.941.614 1.41 1.549 1.41 2.802zm-2.772.59c0-1.532-1.018-2.299-3.051-2.299-.51 0-1.047.054-1.611.161.078 1.354.117 2.886.117 4.598.18.015.387.021.623.021 2.616.001 3.922-.826 3.922-2.481zm23.836 2.482c0 2.198-.674 4.021-2.02 5.468-1.348 1.446-3.012 2.17-4.996 2.17-1.891 0-3.473-.664-4.748-1.993-1.273-1.328-1.912-3.017-1.912-5.064 0-2.198.674-4.021 2.02-5.468 1.348-1.446 3.012-2.17 4.996-2.17 1.891 0 3.473.662 4.748 1.987 1.274 1.325 1.912 3.014 1.912 5.07zm-2.965.311c0-1.497-.383-2.711-1.15-3.642-.766-.931-1.711-1.396-2.836-1.396-1.045 0-1.934.469-2.664 1.407s-1.096 2.123-1.096 3.556c0 1.489.385 2.701 1.156 3.636.77.935 1.713 1.402 2.83 1.402 1.045 0 1.934-.471 2.664-1.413.731-.941 1.096-2.125 1.096-3.55zm17.526 6.94h-2.654c0-.294-.984-1.844-2.953-4.651-2.062-2.958-3.238-4.98-3.523-6.069h-.172c.178 1.568.268 2.986.268 4.254 0 1.769.051 3.925.15 6.467h-2.643a152.7 152.7 0 0 0 .162-7.315c0-2.614-.055-4.838-.162-6.671h3.191c0 .38.885 1.895 2.652 4.544 1.885 2.814 2.965 4.723 3.244 5.726h.162c-.172-1.597-.258-3.029-.258-4.297 0-1.94-.051-3.932-.15-5.973h2.686c-.102 1.776-.15 4-.15 6.671-.001 2.691.048 5.129.15 7.314z" fill="#FCFCFD"/></svg>