<svg xmlns="http://www.w3.org/2000/svg" width="940" height="330" viewBox="0 0 940 330"><g fill="#FFF"><path d="M405.75 314.5v-.606.158c0 2.234 3.404 4.448 12.898 4.448h93.991c9.493 0 12.812-1 12.841-4H405.75z"/><path d="M513.278 301.596c-8.473-8.635-8.792-27.096-8.792-27.096h-78.965s-.318 18.461-8.792 27.096c-8.472 8.629-21.739 15.904 1.278 15.904H512c23.018 0 9.749-7.275 1.278-15.904z"/><path d="M472.572 317.5c4.7-10 19.711-19.276 38.387-21.106.857 1.453 1.836 2.989 2.959 4.134 8.324 8.48 21.271 16.973-.102 16.973h-41.244zm-13.855 0c-4.699-10-19.715-19.276-38.391-21.106-.855 1.453-1.834 2.989-2.959 4.134-8.322 8.48-21.272 16.973.104 16.973h41.246z"/><path d="M417.472 316.716c7.929-.134 15.859-.194 23.791-.247l23.791-.072 23.791.071 11.896.089 11.898.158-11.898.156-11.896.088-23.791.076-23.791-.076c-7.932-.051-15.863-.111-23.791-.243zM645.471 9.5H282.618c-6.356 0-11.868 3.545-11.868 9.899V239.5h387V19.399c0-6.354-5.924-9.899-12.279-9.899zm-5.721 213h-353v-199h353v199zm-369 17h387v22.229c0 6.355-5.924 12.771-12.279 12.771H282.618c-6.356 0-11.868-6.416-11.868-12.771V239.5zm191.352 7.184c-6.111 0-11.066 4.955-11.066 11.065s4.955 11.065 11.066 11.065 11.064-4.955 11.064-11.065-4.953-11.065-11.064-11.065z"/></g><g fill="#FFF"><path d="M890.305 296.705c-64.094.501-92.414.327-225.406 0V158.73c0-3.834 2.315-6.943 5.171-6.943h215.064c2.856 0 5.171 3.109 5.171 6.943v137.975zm-8.371-136.582H673.886V288.38h208.048V160.123zM626.51 309.025s-1.877 3.492 11.449 6.405H916.9s9.332-.599 11.791-4.998l.016-2.409-302.197 1.002z"/><path d="M626.575 301.975h302.229v7.761s.452 1.036-3.104.778H629.421s-2.783.776-3.042-1.036l.196-7.503z"/><path d="M914.767 306.505c0 .302-.2.545-.447.545h-10.284c-.248 0-.447-.243-.447-.545 0-.302.199-.547.447-.547h10.284c.246 0 .447.245.447.547zm-157.605-4.468s-1.164 3.881 2.717 4.27h35.062s3.729.484 3.234-4.141l-41.013-.129z"/><path d="M757.357 302.033h.023l.014-.092-.427-.002s-1.056 3.37 2.212 4.005c-2.793-.816-1.822-3.911-1.822-3.911zm41.012.124l-.379-.002v.093c.274 4.369-3.244 3.773-3.244 3.773h-35.061a5.046 5.046 0 0 1-.506-.077c.263.079.558.138.893.168h35.062c.001 0 3.624.62 3.235-3.955z"/><path d="M797.99 302.248v-.093h-.003l.003.093zM692.75 291.5h32v17h-32zm139 0h32v17h-32z"/></g><path fill="#FFF" d="M260.963 318.289c4.241 0 7.68-4.17 7.68-9.314V97.787c0-5.146-3.438-9.316-7.68-9.316L92.526 123.117c-4.243 0-7.682 4.17-7.682 9.317v159.217c0 5.146 3.438 9.314 7.682 9.314l168.437 17.324zM94.52 286.99V136.442l157.412-25.985v185.194L94.52 286.99zm69.058 10.811c0 3.197-2.178 5.789-4.864 5.789-2.688 0-4.866-2.592-4.866-5.789s2.178-5.789 4.866-5.789c2.686 0 4.864 2.592 4.864 5.789zm-83.28-137.08c0-5.705-4.625-10.329-10.328-10.329H18.118c-5.706 0-10.33 4.624-10.33 10.329v132.793c0 5.704 4.624 10.328 10.33 10.328H69.97c5.703 0 10.328-4.624 10.328-10.328V160.721zm-28.668 3.214c0 .902-.73 1.634-1.633 1.634H38.932a1.633 1.633 0 0 1-1.633-1.634v-.106c0-.902.73-1.633 1.633-1.633h11.065c.902 0 1.633.73 1.633 1.633v.106zM75.24 281.92H13.69V172.313h61.55V281.92zm-26.615 11.785a4.98 4.98 0 0 1-4.98 4.98 4.98 4.98 0 1 1 0-9.96 4.98 4.98 0 0 1 4.98 4.98z"/></svg>