<?xml version="1.0" encoding="utf-8"?>
<!-- Generator: Adobe Illustrator 17.0.0, SVG Export Plug-In . SVG Version: 6.00 Build 0)  -->
<!DOCTYPE svg PUBLIC "-//W3C//DTD SVG 1.1//EN" "http://www.w3.org/Graphics/SVG/1.1/DTD/svg11.dtd">
<svg version="1.1" id="Layer_1" xmlns="http://www.w3.org/2000/svg" xmlns:xlink="http://www.w3.org/1999/xlink" x="0px" y="0px"
	 width="447.055px" height="101.997px" viewBox="0 0 447.055 101.997" enable-background="new 0 0 447.055 101.997"
	 xml:space="preserve">
<g>
	<path fill="#FFFFFF" d="M12.57,102.09H0V0.092h12.663l34.37,60.02l-7.097,12.431L12.663,25.186L12.57,102.09z"/>
	<path fill="#FFFFFF" d="M41.977,101.951H27.644L86.273,0h12.106v102.09H85.995V25.047L41.977,101.951z"/>
	<path fill="#FFFFFF" d="M58.721,80.707l-7.05,12.199l4.963,9.091l13.962-0.046L58.721,80.707z"/>
	<g>
		<g>
			<path fill="#FFFFFF" d="M114.593,15.662h5.421v3.636c1.939-2.825,4.249-4.238,6.927-4.238c1.423,0,2.658,0.351,3.705,1.053
				c1.046,0.702,1.905,1.764,2.574,3.185c0.977-1.42,2.03-2.483,3.16-3.185s2.337-1.053,3.621-1.053
				c1.633,0,3.014,0.397,4.144,1.191c1.13,0.795,1.975,1.96,2.533,3.498c0.405,1.137,0.607,2.976,0.607,5.517v17.026h-5.881v-15.22
				c0-2.642-0.203-4.347-0.607-5.116c-0.544-1.003-1.382-1.505-2.512-1.505c-0.823,0-1.597,0.301-2.323,0.903
				s-1.249,1.484-1.57,2.645c-0.321,1.162-0.481,2.997-0.481,5.504v12.788h-5.881V27.698c0-2.592-0.105-4.263-0.314-5.016
				c-0.209-0.752-0.533-1.312-0.973-1.68c-0.44-0.367-1.036-0.552-1.79-0.552c-0.907,0-1.723,0.293-2.448,0.878
				s-1.245,1.43-1.559,2.533c-0.314,1.104-0.472,2.934-0.472,5.492v12.939h-5.881L114.593,15.662L114.593,15.662z"/>
			<path fill="#FFFFFF" d="M151.783,28.601c0-2.34,0.481-4.605,1.444-6.795s2.326-3.861,4.092-5.015
				c1.764-1.154,3.735-1.731,5.912-1.731c3.363,0,6.118,1.309,8.267,3.925s3.223,5.922,3.223,9.917
				c0,4.029-1.085,7.368-3.254,10.018c-2.17,2.65-4.901,3.974-8.194,3.974c-2.037,0-3.98-0.551-5.829-1.655
				s-3.254-2.721-4.217-4.852C152.264,34.255,151.783,31.66,151.783,28.601z M157.811,28.977c0,2.641,0.524,4.664,1.569,6.068
				c1.046,1.405,2.337,2.107,3.872,2.107c1.535,0,2.822-0.702,3.861-2.107c1.039-1.404,1.559-3.444,1.559-6.118
				c0-2.608-0.52-4.615-1.559-6.018c-1.04-1.404-2.326-2.107-3.861-2.107c-1.534,0-2.825,0.702-3.872,2.107
				C158.334,24.313,157.811,26.336,157.811,28.977z"/>
			<path fill="#FFFFFF" d="M199.709,42.292h-5.462V38.38c-0.907,1.521-1.978,2.654-3.213,3.398s-2.48,1.116-3.736,1.116
				c-2.553,0-4.74-1.232-6.561-3.698c-1.821-2.465-2.731-5.906-2.731-10.319c0-4.513,0.886-7.944,2.658-10.293
				s4.011-3.524,6.718-3.524c2.483,0,4.632,1.237,6.446,3.711V5.531h5.881V42.292z M184.013,28.401c0,2.841,0.327,4.897,0.984,6.168
				c0.948,1.839,2.274,2.758,3.976,2.758c1.353,0,2.505-0.689,3.453-2.068c0.949-1.38,1.424-3.441,1.424-6.182
				c0-3.06-0.461-5.262-1.382-6.607c-0.921-1.346-2.099-2.019-3.537-2.019c-1.395,0-2.564,0.664-3.506,1.994
				C184.484,23.774,184.013,25.759,184.013,28.401z"/>
			<path fill="#FFFFFF" d="M218.377,33.817l5.86,1.178c-0.753,2.575-1.942,4.535-3.568,5.881c-1.626,1.346-3.66,2.018-6.101,2.018
				c-3.865,0-6.725-1.513-8.581-4.539c-1.465-2.424-2.197-5.483-2.197-9.177c0-4.413,0.963-7.87,2.888-10.369
				s4.36-3.749,7.304-3.749c3.307,0,5.916,1.309,7.827,3.925s2.825,6.624,2.742,12.024h-14.733c0.041,2.09,0.516,3.715,1.423,4.877
				c0.907,1.162,2.037,1.743,3.39,1.743c0.921,0,1.695-0.301,2.324-0.902C217.582,36.124,218.056,35.154,218.377,33.817z
				 M218.712,26.695c-0.041-2.04-0.481-3.59-1.318-4.652c-0.837-1.061-1.855-1.593-3.055-1.593c-1.284,0-2.344,0.56-3.182,1.681
				c-0.837,1.12-1.248,2.641-1.235,4.564H218.712z"/>
			<path fill="#FFFFFF" d="M234.973,42.292h-5.88v-26.63h5.462v3.786c0.934-1.789,1.775-2.967,2.521-3.535
				c0.747-0.568,1.595-0.853,2.543-0.853c1.34,0,2.63,0.443,3.872,1.329l-1.82,6.143c-0.991-0.769-1.912-1.153-2.763-1.153
				c-0.823,0-1.521,0.272-2.092,0.815c-0.572,0.543-1.022,1.526-1.35,2.947s-0.492,4.396-0.492,8.927L234.973,42.292L234.973,42.292
				z"/>
			<path fill="#FFFFFF" d="M266.241,42.292h-5.881v-13.59c0-2.876-0.125-4.736-0.376-5.58c-0.252-0.844-0.66-1.5-1.224-1.969
				c-0.565-0.468-1.246-0.702-2.041-0.702c-1.018,0-1.932,0.334-2.742,1.003c-0.808,0.669-1.363,1.555-1.664,2.658
				c-0.299,1.104-0.45,3.143-0.45,6.119v12.061h-5.88v-26.63h5.462v3.912c1.94-3.01,4.38-4.514,7.325-4.514
				c1.297,0,2.484,0.28,3.558,0.841c1.074,0.559,1.888,1.274,2.438,2.143c0.551,0.869,0.934,1.856,1.151,2.959
				c0.216,1.104,0.324,2.684,0.324,4.74V42.292z"/>
			<path fill="#FFFFFF" d="M288.509,23.786l-5.337-1.154c0.6-2.574,1.632-4.48,3.097-5.717s3.641-1.856,6.53-1.856
				c2.623,0,4.576,0.372,5.86,1.116c1.284,0.744,2.187,1.688,2.71,2.833c0.523,1.146,0.785,3.247,0.785,6.307l-0.062,8.225
				c0,2.34,0.094,4.066,0.282,5.178c0.188,1.112,0.541,2.303,1.056,3.573h-5.817c-0.154-0.468-0.342-1.162-0.565-2.081
				c-0.099-0.418-0.168-0.694-0.21-0.827c-1.004,1.17-2.08,2.048-3.223,2.633c-1.145,0.585-2.366,0.877-3.663,0.877
				c-2.287,0-4.091-0.744-5.409-2.232c-1.319-1.488-1.978-3.368-1.978-5.642c0-1.504,0.3-2.846,0.901-4.024
				c0.599-1.179,1.44-2.082,2.522-2.708c1.082-0.627,2.641-1.175,4.676-1.643c2.749-0.619,4.654-1.195,5.714-1.73v-0.702
				c0-1.354-0.278-2.32-0.836-2.896c-0.558-0.577-1.611-0.865-3.16-0.865c-1.046,0-1.862,0.247-2.448,0.74
				C289.346,21.684,288.871,22.549,288.509,23.786z M296.377,29.504c-0.753,0.3-1.946,0.66-3.578,1.078s-2.7,0.828-3.202,1.229
				c-0.767,0.652-1.151,1.479-1.151,2.482c0,0.987,0.307,1.839,0.92,2.558c0.615,0.719,1.396,1.079,2.345,1.079
				c1.06,0,2.072-0.418,3.035-1.254c0.711-0.636,1.177-1.413,1.401-2.332c0.154-0.602,0.23-1.747,0.23-3.436L296.377,29.504
				L296.377,29.504z"/>
			<path fill="#FFFFFF" d="M313.581,42.292h-5.882v-26.63h5.463v3.786c0.935-1.789,1.775-2.967,2.522-3.535
				c0.745-0.568,1.593-0.853,2.542-0.853c1.34,0,2.631,0.443,3.872,1.329l-1.821,6.143c-0.99-0.769-1.91-1.153-2.762-1.153
				c-0.823,0-1.521,0.272-2.093,0.815c-0.572,0.543-1.022,1.526-1.351,2.947c-0.327,1.421-0.491,4.396-0.491,8.927L313.581,42.292
				L313.581,42.292z"/>
			<path fill="#FFFFFF" d="M329.026,23.786l-5.337-1.154c0.6-2.574,1.632-4.48,3.098-5.717c1.465-1.237,3.642-1.856,6.53-1.856
				c2.623,0,4.575,0.372,5.86,1.116c1.284,0.744,2.186,1.688,2.709,2.833c0.524,1.146,0.786,3.247,0.786,6.307l-0.064,8.225
				c0,2.34,0.094,4.066,0.283,5.178c0.188,1.112,0.539,2.303,1.056,3.573h-5.819c-0.153-0.468-0.341-1.162-0.565-2.081
				c-0.098-0.418-0.167-0.694-0.209-0.827c-1.006,1.17-2.08,2.048-3.223,2.633c-1.145,0.585-2.365,0.877-3.663,0.877
				c-2.289,0-4.091-0.744-5.41-2.232c-1.318-1.488-1.977-3.368-1.977-5.642c0-1.504,0.3-2.846,0.9-4.024
				c0.6-1.179,1.44-2.082,2.522-2.708c1.082-0.627,2.641-1.175,4.678-1.643c2.749-0.619,4.654-1.195,5.714-1.73v-0.702
				c0-1.354-0.279-2.32-0.836-2.896c-0.559-0.577-1.612-0.865-3.16-0.865c-1.047,0-1.864,0.247-2.45,0.74
				C329.864,21.684,329.389,22.549,329.026,23.786z M336.895,29.504c-0.753,0.3-1.947,0.66-3.578,1.078
				c-1.634,0.418-2.7,0.828-3.202,1.229c-0.768,0.652-1.152,1.479-1.152,2.482c0,0.987,0.307,1.839,0.921,2.558
				c0.614,0.719,1.396,1.079,2.344,1.079c1.061,0,2.072-0.418,3.035-1.254c0.712-0.636,1.179-1.413,1.401-2.332
				c0.154-0.602,0.231-1.747,0.231-3.436L336.895,29.504L336.895,29.504z"/>
			<path fill="#FFFFFF" d="M348.218,42.292V5.531h5.882v13.24c1.813-2.474,3.961-3.711,6.445-3.711c2.707,0,4.945,1.174,6.718,3.524
				c1.771,2.349,2.659,5.721,2.659,10.118c0,4.547-0.905,8.049-2.712,10.506s-4,3.686-6.582,3.686c-1.27,0-2.522-0.38-3.756-1.14
				c-1.235-0.762-2.298-1.886-3.191-3.373v3.912L348.218,42.292L348.218,42.292z M354.057,28.4c0,2.758,0.364,4.798,1.088,6.119
				c1.02,1.871,2.373,2.808,4.061,2.808c1.298,0,2.403-0.665,3.317-1.993c0.915-1.329,1.371-3.423,1.371-6.281
				c0-3.043-0.46-5.237-1.381-6.582c-0.921-1.346-2.1-2.019-3.537-2.019c-1.41,0-2.581,0.656-3.516,1.969
				C354.524,23.732,354.057,25.726,354.057,28.4z"/>
			<path fill="#FFFFFF" d="M405.939,23.535l-5.797,1.254c-0.196-1.387-0.64-2.432-1.33-3.134c-0.691-0.702-1.587-1.053-2.69-1.053
				c-1.465,0-2.633,0.606-3.505,1.818s-1.308,3.239-1.308,6.081c0,3.16,0.442,5.392,1.329,6.696
				c0.886,1.303,2.075,1.956,3.568,1.956c1.116,0,2.029-0.381,2.742-1.141c0.712-0.761,1.213-2.069,1.506-3.925l5.777,1.179
				c-0.6,3.176-1.751,5.575-3.453,7.197c-1.703,1.621-3.984,2.432-6.844,2.432c-3.251,0-5.843-1.229-7.774-3.686
				c-1.932-2.457-2.899-5.859-2.899-10.206c0-4.396,0.969-7.82,2.909-10.268c1.939-2.449,4.562-3.674,7.869-3.674
				c2.707,0,4.86,0.698,6.456,2.094C404.094,18.549,405.241,20.677,405.939,23.535z"/>
			<path fill="#FFFFFF" d="M409.036,28.601c0-2.34,0.481-4.605,1.444-6.795s2.326-3.862,4.091-5.015
				c1.765-1.154,3.736-1.731,5.913-1.731c3.362,0,6.118,1.309,8.266,3.925c2.149,2.616,3.223,5.922,3.223,9.917
				c0,4.029-1.084,7.368-3.255,10.018c-2.169,2.65-4.9,3.974-8.192,3.974c-2.037,0-3.98-0.551-5.829-1.655
				c-1.848-1.104-3.254-2.721-4.218-4.852C409.517,34.255,409.036,31.66,409.036,28.601z M415.063,28.977
				c0,2.642,0.524,4.664,1.57,6.069c1.046,1.405,2.336,2.107,3.871,2.107c1.536,0,2.823-0.702,3.861-2.107
				c1.04-1.404,1.559-3.444,1.559-6.118c0-2.608-0.519-4.615-1.559-6.018c-1.039-1.404-2.326-2.107-3.861-2.107
				s-2.825,0.702-3.871,2.107C415.587,24.313,415.063,26.336,415.063,28.977z"/>
			<path fill="#FFFFFF" d="M436.577,42.292v-7.046h5.882v7.046H436.577z"/>
		</g>
		<rect x="194.153" y="36.77" fill="#FFFFFF" width="7.715" height="5.552"/>
		<rect x="189.27" y="5.508" fill="#FFFFFF" width="10.393" height="5.553"/>
		<rect x="109.576" y="15.636" fill="#FFFFFF" width="10.393" height="5.553"/>
		<rect x="260.362" y="36.706" fill="#FFFFFF" width="10.394" height="5.553"/>
		<rect x="343.573" y="5.475" fill="#FFFFFF" width="10.394" height="5.553"/>
		<rect x="399.362" y="23.506" fill="#FFFFFF" width="6.592" height="4.863"/>
		<rect x="141.406" y="36.77" fill="#FFFFFF" width="10.394" height="5.553"/>
		<rect x="226.769" y="15.636" fill="#FFFFFF" width="7.715" height="5.553"/>
		<rect x="244.587" y="15.636" fill="#FFFFFF" width="6.82" height="5.553"/>
		<rect x="305.461" y="15.636" fill="#FFFFFF" width="7.715" height="5.553"/>
	</g>
	<g>
		<path fill="#FFFFFF" d="M121.914,91.242c-1.532,0-2.831-0.257-3.898-0.774c-1.067-0.515-1.939-1.193-2.617-2.034
			s-1.167-1.791-1.468-2.852c-0.301-1.06-0.452-2.136-0.452-3.227c0-1.385,0.201-2.704,0.602-3.956
			c0.401-1.253,0.954-2.35,1.657-3.295c0.702-0.942,1.544-1.687,2.523-2.232c0.979-0.546,2.058-0.819,3.238-0.819
			c1.079,0,2.065,0.215,2.956,0.642c0.89,0.428,1.657,1.032,2.297,1.812c0.64,0.781,1.13,1.71,1.469,2.785
			c0.339,1.076,0.508,2.263,0.508,3.559v5.262h2.674c0.351,0,0.608,0.117,0.772,0.353c0.163,0.236,0.245,0.517,0.245,0.84v2.697
			c0,0.236-0.082,0.502-0.245,0.796c-0.163,0.295-0.421,0.442-0.772,0.442h-9.489V91.242z M116.189,66.749
			c0-0.708,0.213-1.311,0.64-1.812c0.427-0.502,0.966-0.753,1.619-0.753s1.193,0.251,1.619,0.753c0.427,0.502,0.64,1.104,0.64,1.812
			c0,0.706-0.214,1.312-0.64,1.812c-0.427,0.502-0.966,0.751-1.619,0.751s-1.193-0.249-1.619-0.751
			C116.402,68.061,116.189,67.456,116.189,66.749z M124.437,86.114v-3.935c0-1.68-0.27-2.969-0.81-3.869
			c-0.54-0.898-1.337-1.349-2.391-1.349c-0.452,0-0.886,0.111-1.3,0.332c-0.413,0.221-0.785,0.531-1.111,0.929
			s-0.59,0.876-0.791,1.436c-0.201,0.561-0.301,1.193-0.301,1.901c0,0.825,0.113,1.525,0.339,2.1
			c0.226,0.576,0.527,1.046,0.904,1.415c0.376,0.37,0.81,0.635,1.299,0.797s0.998,0.243,1.525,0.243
			C121.8,86.114,124.437,86.114,124.437,86.114z M122.065,66.749c0-0.708,0.213-1.311,0.64-1.812
			c0.427-0.502,0.966-0.753,1.619-0.753s1.193,0.251,1.619,0.753c0.427,0.502,0.64,1.104,0.64,1.812c0,0.706-0.214,1.312-0.64,1.812
			c-0.427,0.502-0.966,0.751-1.619,0.751s-1.193-0.249-1.619-0.751C122.278,68.061,122.065,67.456,122.065,66.749z"/>
		<path fill="#FFFFFF" d="M131.178,91.242c-0.427,0-0.702-0.117-0.829-0.353c-0.125-0.236-0.188-0.502-0.188-0.796v-2.61
			c0-0.324,0.082-0.634,0.245-0.928c0.163-0.295,0.42-0.442,0.772-0.442h3.616c0.551,0,0.922-0.206,1.111-0.619
			c0.188-0.413,0.282-0.972,0.282-1.68V73.645h4.293v8.402c0,1.179,0.238,2.151,0.716,2.917c0.476,0.768,1.343,1.15,2.598,1.15
			h1.318c0.427,0,0.702,0.117,0.829,0.353c0.125,0.236,0.188,0.517,0.188,0.84v2.697c0,0.236-0.082,0.502-0.245,0.796
			c-0.163,0.295-0.42,0.442-0.772,0.442h-1.431c-1.105,0-1.99-0.309-2.655-0.928s-1.174-1.297-1.525-2.035
			c-0.427,0.857-1.023,1.563-1.788,2.123c-0.766,0.56-1.676,0.84-2.73,0.84L131.178,91.242L131.178,91.242z M133.626,66.749
			c0-0.708,0.213-1.311,0.64-1.812c0.427-0.502,0.966-0.753,1.619-0.753c0.652,0,1.192,0.251,1.619,0.753s0.64,1.104,0.64,1.812
			c0,0.706-0.214,1.312-0.64,1.812c-0.428,0.502-0.967,0.751-1.619,0.751c-0.654,0-1.193-0.249-1.619-0.751
			C133.838,68.061,133.626,67.456,133.626,66.749z M136.526,61.023c0-0.713,0.219-1.316,0.659-1.806
			c0.439-0.49,0.985-0.736,1.638-0.736c0.627,0,1.167,0.246,1.619,0.736s0.678,1.093,0.678,1.806c0,0.743-0.225,1.36-0.678,1.85
			c-0.452,0.492-0.992,0.736-1.619,0.736c-0.653,0-1.199-0.244-1.638-0.736C136.744,62.383,136.526,61.766,136.526,61.023z
			 M139.5,66.749c0-0.708,0.213-1.311,0.64-1.812c0.427-0.502,0.966-0.753,1.619-0.753s1.192,0.251,1.619,0.753
			s0.64,1.104,0.64,1.812c0,0.706-0.214,1.312-0.64,1.812c-0.428,0.502-0.966,0.751-1.619,0.751s-1.193-0.249-1.619-0.751
			C139.713,68.061,139.5,67.456,139.5,66.749z"/>
		<path fill="#FFFFFF" d="M144.847,91.242c-0.351,0-0.602-0.117-0.753-0.353s-0.226-0.502-0.226-0.796v-2.61
			c0-0.324,0.082-0.634,0.245-0.928c0.163-0.295,0.409-0.442,0.734-0.442h5.16V73.645h4.292v17.597H144.847z M145.149,96.792
			c0-0.715,0.213-1.317,0.64-1.807s0.966-0.736,1.619-0.736s1.193,0.246,1.619,0.736c0.427,0.49,0.64,1.093,0.64,1.807
			c0,0.743-0.214,1.36-0.64,1.85s-0.966,0.736-1.619,0.736s-1.193-0.246-1.619-0.736S145.149,97.534,145.149,96.792z
			 M150.986,96.792c0-0.715,0.213-1.317,0.64-1.807s0.966-0.736,1.619-0.736s1.192,0.246,1.619,0.736s0.64,1.093,0.64,1.807
			c0,0.743-0.214,1.36-0.64,1.85c-0.428,0.49-0.966,0.736-1.619,0.736c-0.654,0-1.193-0.246-1.619-0.736
			C151.199,98.152,150.986,97.534,150.986,96.792z"/>
		<path fill="#FFFFFF" d="M176.179,91.242c-1.055,0-1.92-0.287-2.599-0.862c-0.678-0.576-1.205-1.245-1.581-2.012
			c-0.428,0.914-1.036,1.621-1.826,2.123c-0.791,0.5-1.689,0.751-2.693,0.751h-8.887v-5.128h8.586c0.578,0,0.966-0.177,1.168-0.531
			c0.201-0.353,0.301-0.913,0.301-1.679c0-1.179-0.038-2.218-0.113-3.118c-0.075-0.898-0.263-1.636-0.565-2.21
			c-0.301-0.574-0.748-1.009-1.337-1.304c-0.59-0.294-1.4-0.442-2.429-0.442h-3.578v-4.863h4.443c1.456,0,2.686,0.243,3.691,0.73
			c1.004,0.485,1.807,1.157,2.41,2.01c0.602,0.855,1.036,1.865,1.299,3.029c0.264,1.165,0.396,2.425,0.396,3.78
			c0,1.504,0.263,2.646,0.791,3.427c0.527,0.781,1.393,1.172,2.598,1.172h1.356c0.376,0,0.64,0.117,0.791,0.353
			s0.226,0.517,0.226,0.84v2.697c0,0.236-0.082,0.502-0.245,0.796c-0.163,0.295-0.421,0.442-0.772,0.442L176.179,91.242
			L176.179,91.242z"/>
		<path fill="#FFFFFF" d="M196.476,90.004c0,0.236-0.082,0.502-0.244,0.796c-0.164,0.295-0.433,0.442-0.81,0.442h-0.716
			c-0.804,0-1.601-0.191-2.392-0.574c-0.791-0.383-1.438-0.84-1.939-1.372c-0.451,0.827-0.947,1.357-1.487,1.593
			c-0.541,0.236-1.086,0.353-1.638,0.353h-9.866c-0.376,0-0.64-0.117-0.791-0.353s-0.226-0.502-0.226-0.796v-2.61
			c0-0.324,0.082-0.634,0.245-0.928c0.163-0.295,0.42-0.442,0.772-0.442h11.109c-0.226-0.472-0.433-1.076-0.621-1.812
			s-0.333-1.784-0.433-3.139c-0.125-1.504-0.458-2.557-0.998-3.161c-0.54-0.604-1.25-0.906-2.128-0.906
			c-0.503,0-1.143,0.096-1.92,0.287c-0.778,0.191-1.557,0.508-2.335,0.951l-1.055-4.82c0.301-0.117,0.697-0.266,1.187-0.442
			c0.489-0.177,1.01-0.345,1.562-0.508c0.552-0.162,1.123-0.302,1.713-0.419s1.149-0.177,1.676-0.177
			c1.205,0,2.215,0.249,3.031,0.751c0.815,0.502,1.481,1.149,1.996,1.944c0.514,0.797,0.898,1.674,1.149,2.631
			c0.251,0.959,0.414,1.895,0.489,2.808c0.05,0.589,0.132,1.231,0.245,1.923c0.113,0.693,0.269,1.342,0.47,1.946
			s0.465,1.113,0.791,1.525c0.326,0.413,0.74,0.619,1.243,0.619h0.867c0.401,0,0.678,0.117,0.829,0.353
			c0.15,0.236,0.225,0.517,0.225,0.84L196.476,90.004L196.476,90.004z"/>
		<path fill="#FFFFFF" d="M195.195,91.242c-0.376,0-0.633-0.117-0.772-0.353c-0.138-0.236-0.207-0.502-0.207-0.796v-2.61
			c0-0.324,0.075-0.634,0.226-0.928c0.15-0.295,0.402-0.442,0.753-0.442h4.444V59.587h4.255v31.655
			C203.894,91.242,195.195,91.242,195.195,91.242z"/>
		<path fill="#FFFFFF" d="M210.071,59.587h4.255v31.655h-4.255V59.587z"/>
		<path fill="#FFFFFF" d="M234.962,91.242c-1.532,0-2.831-0.257-3.898-0.774c-1.067-0.515-1.939-1.193-2.617-2.034
			c-0.678-0.84-1.167-1.791-1.468-2.852c-0.301-1.06-0.452-2.136-0.452-3.227c0-1.385,0.201-2.704,0.602-3.956
			c0.401-1.253,0.954-2.35,1.657-3.295c0.702-0.942,1.544-1.687,2.523-2.232c0.979-0.546,2.058-0.819,3.238-0.819
			c1.079,0,2.065,0.215,2.956,0.642c0.891,0.428,1.657,1.032,2.297,1.812c0.64,0.781,1.13,1.71,1.469,2.785
			c0.339,1.076,0.508,2.263,0.508,3.559v5.262h2.674c0.351,0,0.608,0.117,0.772,0.353c0.163,0.236,0.245,0.517,0.245,0.84v2.697
			c0,0.236-0.082,0.502-0.245,0.796c-0.163,0.295-0.421,0.442-0.772,0.442h-9.489V91.242z M229.237,66.749
			c0-0.708,0.213-1.311,0.64-1.812c0.427-0.502,0.966-0.753,1.619-0.753s1.193,0.251,1.619,0.753c0.427,0.502,0.64,1.104,0.64,1.812
			c0,0.706-0.214,1.312-0.64,1.812c-0.427,0.502-0.966,0.751-1.619,0.751s-1.193-0.249-1.619-0.751
			C229.45,68.061,229.237,67.456,229.237,66.749z M237.485,86.114v-3.935c0-1.68-0.27-2.969-0.81-3.869
			c-0.54-0.898-1.337-1.349-2.391-1.349c-0.452,0-0.886,0.111-1.3,0.332c-0.413,0.221-0.785,0.531-1.111,0.929
			c-0.326,0.398-0.59,0.876-0.791,1.436c-0.201,0.561-0.301,1.193-0.301,1.901c0,0.825,0.113,1.525,0.339,2.1
			c0.226,0.576,0.527,1.046,0.904,1.415c0.376,0.37,0.81,0.635,1.299,0.797c0.489,0.162,0.998,0.243,1.525,0.243
			C234.848,86.114,237.485,86.114,237.485,86.114z M235.113,66.749c0-0.708,0.213-1.311,0.64-1.812
			c0.427-0.502,0.966-0.753,1.619-0.753s1.193,0.251,1.619,0.753c0.427,0.502,0.64,1.104,0.64,1.812c0,0.706-0.214,1.312-0.64,1.812
			c-0.427,0.502-0.966,0.751-1.619,0.751s-1.193-0.249-1.619-0.751C235.326,68.061,235.113,67.456,235.113,66.749z"/>
		<path fill="#FFFFFF" d="M244.225,91.242c-0.427,0-0.702-0.117-0.829-0.353c-0.125-0.236-0.188-0.502-0.188-0.796v-2.61
			c0-0.324,0.082-0.634,0.245-0.928c0.163-0.295,0.42-0.442,0.772-0.442h3.616c0.551,0,0.922-0.206,1.111-0.619
			c0.188-0.413,0.282-0.972,0.282-1.68V73.645h4.293v8.402c0,1.179,0.238,2.151,0.716,2.917c0.476,0.768,1.343,1.15,2.598,1.15
			h1.318c0.427,0,0.702,0.117,0.829,0.353c0.125,0.236,0.188,0.517,0.188,0.84v2.697c0,0.236-0.082,0.502-0.245,0.796
			c-0.163,0.295-0.42,0.442-0.772,0.442h-1.431c-1.105,0-1.99-0.309-2.655-0.928s-1.174-1.297-1.525-2.035
			c-0.427,0.857-1.023,1.563-1.788,2.123c-0.766,0.56-1.676,0.84-2.73,0.84L244.225,91.242L244.225,91.242z M246.183,96.792
			c0-0.715,0.213-1.317,0.64-1.807c0.426-0.49,0.966-0.736,1.619-0.736c0.652,0,1.192,0.246,1.619,0.736s0.64,1.093,0.64,1.807
			c0,0.743-0.213,1.36-0.64,1.85c-0.428,0.49-0.967,0.736-1.619,0.736c-0.654,0-1.193-0.246-1.619-0.736
			C246.396,98.152,246.183,97.534,246.183,96.792z M252.02,96.792c0-0.715,0.214-1.317,0.64-1.807
			c0.427-0.49,0.966-0.736,1.619-0.736s1.193,0.246,1.619,0.736c0.427,0.49,0.64,1.093,0.64,1.807c0,0.743-0.214,1.36-0.64,1.85
			c-0.427,0.49-0.966,0.736-1.619,0.736s-1.193-0.246-1.619-0.736S252.02,97.534,252.02,96.792z"/>
		<path fill="#FFFFFF" d="M257.895,91.242c-0.351,0-0.602-0.117-0.753-0.353s-0.226-0.502-0.226-0.796v-2.61
			c0-0.324,0.082-0.634,0.245-0.928c0.163-0.295,0.409-0.442,0.734-0.442h5.16V73.645h4.292v17.597H257.895z M262.339,96.792
			c0-0.715,0.218-1.317,0.653-1.807c0.436-0.49,0.977-0.736,1.625-0.736c0.623,0,1.152,0.246,1.587,0.736
			c0.436,0.49,0.654,1.093,0.654,1.807c0,0.743-0.218,1.36-0.654,1.85c-0.435,0.49-0.964,0.736-1.587,0.736
			c-0.648,0-1.189-0.246-1.625-0.736C262.557,98.152,262.339,97.534,262.339,96.792z"/>
		<path fill="#FFFFFF" d="M283.616,91.242c-0.729,0-1.393-0.191-1.996-0.574c-0.602-0.383-1.093-0.825-1.469-1.327v1.193
			c0,1.327-0.15,2.565-0.451,3.714c-0.301,1.15-0.753,2.152-1.356,3.007s-1.344,1.525-2.222,2.012
			c-0.879,0.485-1.896,0.73-3.05,0.73c-0.452,0-0.885-0.023-1.299-0.068c-0.414-0.043-0.772-0.096-1.074-0.154
			c-0.201-0.03-0.383-0.059-0.546-0.089s-0.32-0.074-0.471-0.132l0.452-5.041l1.054,0.266c0.301,0.058,0.621,0.111,0.961,0.155
			c0.339,0.043,0.646,0.066,0.923,0.066c1.104,0,1.845-0.414,2.222-1.238c0.376-0.825,0.565-2.034,0.565-3.626V73.645h4.293v8.402
			c0,1.179,0.232,2.151,0.697,2.917c0.465,0.768,1.349,1.15,2.655,1.15h1.318c0.427,0,0.703,0.117,0.829,0.353
			c0.125,0.236,0.188,0.517,0.188,0.84v2.697c0,0.236-0.075,0.502-0.226,0.796c-0.15,0.295-0.413,0.442-0.791,0.442
			C284.822,91.242,283.616,91.242,283.616,91.242z"/>
		<path fill="#FFFFFF" d="M284.595,91.242c-0.376,0-0.64-0.117-0.791-0.353c-0.151-0.236-0.226-0.502-0.226-0.796v-2.61
			c0-0.324,0.082-0.634,0.245-0.928c0.163-0.295,0.42-0.442,0.772-0.442h3.841c0.552,0,1.042-0.03,1.469-0.089
			c0.427-0.058,0.791-0.132,1.092-0.221c-0.451-0.5-0.904-1.06-1.356-1.679c-0.451-0.619-0.866-1.231-1.242-1.835
			c-0.377-0.604-0.703-1.179-0.98-1.725c-0.276-0.545-0.465-0.994-0.565-1.349l-0.151-3.536c0.552-0.531,1.18-1.032,1.883-1.504
			c0.702-0.472,1.45-0.885,2.241-1.238s1.6-0.634,2.429-0.84c0.829-0.206,1.657-0.31,2.485-0.31c1.281,0,2.385,0.155,3.314,0.465
			c0.928,0.309,1.694,0.715,2.297,1.215c0.602,0.502,1.055,1.055,1.356,1.659s0.451,1.187,0.451,1.746
			c0,1.238-0.276,2.623-0.828,4.156c-0.553,1.532-1.632,3.182-3.239,4.952c0.527,0.087,1.406,0.132,2.637,0.132h3.201
			c0.401,0,0.678,0.117,0.829,0.353c0.15,0.236,0.226,0.517,0.226,0.84v2.697c0,0.236-0.082,0.502-0.245,0.796
			c-0.163,0.295-0.433,0.442-0.81,0.442h-3.276c-1.682,0-3.087-0.206-4.217-0.619s-1.996-0.825-2.599-1.238
			c-0.954,0.649-1.99,1.121-3.106,1.415c-1.117,0.295-2.216,0.442-3.295,0.442h-3.842V91.242z M295.704,76.653
			c-0.829,0-1.708,0.125-2.636,0.375c-0.929,0.251-1.683,0.583-2.26,0.995c0.1,0.266,0.288,0.649,0.565,1.15
			c0.276,0.5,0.615,1.046,1.017,1.636s0.834,1.164,1.3,1.723c0.464,0.561,0.935,1.033,1.412,1.415
			c0.552-0.381,1.073-0.84,1.562-1.37c0.49-0.53,0.91-1.076,1.262-1.636c0.352-0.56,0.627-1.106,0.829-1.636
			c0.201-0.53,0.301-1.002,0.301-1.415c0-0.236-0.101-0.434-0.301-0.598c-0.201-0.162-0.465-0.287-0.791-0.375
			c-0.327-0.089-0.685-0.155-1.074-0.2C296.5,76.674,296.105,76.653,295.704,76.653z"/>
		<path fill="#FFFFFF" d="M304.703,91.242c-0.376,0-0.633-0.117-0.772-0.353c-0.138-0.236-0.207-0.502-0.207-0.796v-2.61
			c0-0.324,0.075-0.634,0.226-0.928c0.15-0.295,0.402-0.442,0.753-0.442h4.444V59.587h4.255v31.655
			C313.402,91.242,304.703,91.242,304.703,91.242z"/>
		<path fill="#FFFFFF" d="M319.578,59.587h4.255v31.655h-4.255V59.587z"/>
		<path fill="#FFFFFF" d="M344.469,91.242c-1.532,0-2.831-0.257-3.898-0.774c-1.067-0.515-1.939-1.193-2.617-2.034
			s-1.167-1.791-1.468-2.852c-0.301-1.06-0.452-2.136-0.452-3.227c0-1.385,0.201-2.704,0.602-3.956
			c0.401-1.253,0.954-2.35,1.657-3.295c0.702-0.942,1.544-1.687,2.523-2.232c0.979-0.546,2.058-0.819,3.238-0.819
			c1.079,0,2.065,0.215,2.956,0.642c0.891,0.428,1.657,1.032,2.297,1.812c0.64,0.781,1.13,1.71,1.469,2.785
			c0.339,1.076,0.508,2.263,0.508,3.559v5.262h2.674c0.351,0,0.608,0.117,0.772,0.353c0.163,0.236,0.245,0.517,0.245,0.84v2.697
			c0,0.236-0.082,0.502-0.245,0.796c-0.163,0.295-0.421,0.442-0.772,0.442h-9.489V91.242z M338.745,66.749
			c0-0.708,0.213-1.311,0.64-1.812c0.427-0.502,0.966-0.753,1.619-0.753c0.653,0,1.193,0.251,1.619,0.753
			c0.427,0.502,0.64,1.104,0.64,1.812c0,0.706-0.214,1.312-0.64,1.812c-0.427,0.502-0.966,0.751-1.619,0.751
			c-0.653,0-1.193-0.249-1.619-0.751C338.958,68.061,338.745,67.456,338.745,66.749z M346.992,86.114v-3.935
			c0-1.68-0.27-2.969-0.81-3.869c-0.54-0.898-1.337-1.349-2.391-1.349c-0.452,0-0.886,0.111-1.3,0.332
			c-0.413,0.221-0.785,0.531-1.111,0.929s-0.59,0.876-0.791,1.436c-0.201,0.561-0.301,1.193-0.301,1.901
			c0,0.825,0.113,1.525,0.339,2.1c0.226,0.576,0.527,1.046,0.904,1.415c0.376,0.37,0.81,0.635,1.299,0.797s0.998,0.243,1.525,0.243
			C344.355,86.114,346.992,86.114,346.992,86.114z M344.62,66.749c0-0.708,0.213-1.311,0.64-1.812
			c0.427-0.502,0.966-0.753,1.619-0.753s1.193,0.251,1.619,0.753c0.427,0.502,0.64,1.104,0.64,1.812c0,0.706-0.214,1.312-0.64,1.812
			c-0.427,0.502-0.966,0.751-1.619,0.751s-1.193-0.249-1.619-0.751C344.833,68.061,344.62,67.456,344.62,66.749z"/>
		<path fill="#FFFFFF" d="M353.733,91.242c-0.376,0-0.64-0.117-0.791-0.353c-0.151-0.236-0.226-0.502-0.226-0.796v-2.61
			c0-0.324,0.082-0.634,0.245-0.928c0.163-0.295,0.42-0.442,0.772-0.442h11.599v-4.201c0-1.061-0.12-1.893-0.357-2.497
			c-0.239-0.604-0.56-1.061-0.961-1.37c-0.402-0.31-0.872-0.502-1.412-0.576c-0.541-0.073-1.111-0.111-1.713-0.111h-4.556v-4.465
			l7.306-13.617l3.54,2.786l-5.761,10.389h0.376c1.004,0,1.983,0.134,2.937,0.398c0.954,0.266,1.788,0.738,2.504,1.415
			c0.716,0.678,1.293,1.608,1.732,2.786s0.659,2.667,0.659,4.465v9.727L353.733,91.242L353.733,91.242z"/>
		<path fill="#FFFFFF" d="M385.554,91.242c-0.729,0-1.393-0.191-1.996-0.574c-0.602-0.383-1.093-0.825-1.469-1.327v1.193
			c0,1.327-0.15,2.565-0.451,3.714c-0.301,1.15-0.754,2.152-1.356,3.007s-1.344,1.525-2.222,2.012
			c-0.879,0.485-1.896,0.73-3.05,0.73c-0.452,0-0.885-0.023-1.299-0.068c-0.414-0.043-0.772-0.096-1.074-0.154
			c-0.201-0.03-0.383-0.059-0.546-0.089s-0.32-0.074-0.471-0.132l0.452-5.041l1.054,0.266c0.301,0.058,0.621,0.111,0.961,0.155
			c0.339,0.043,0.646,0.066,0.923,0.066c1.104,0,1.845-0.414,2.222-1.238c0.376-0.825,0.565-2.034,0.565-3.626V73.645h4.293v8.402
			c0,1.179,0.232,2.151,0.697,2.917c0.465,0.768,1.349,1.15,2.655,1.15h1.318c0.427,0,0.703,0.117,0.829,0.353
			c0.125,0.236,0.188,0.517,0.188,0.84v2.697c0,0.236-0.075,0.502-0.226,0.796c-0.15,0.295-0.413,0.442-0.791,0.442
			C386.76,91.242,385.554,91.242,385.554,91.242z"/>
		<path fill="#FFFFFF" d="M386.57,91.242c-0.401,0-0.678-0.117-0.829-0.353s-0.226-0.502-0.226-0.796v-2.61
			c0-0.324,0.088-0.634,0.264-0.928c0.176-0.295,0.439-0.442,0.791-0.442h6.59c0.577,0,0.966-0.177,1.167-0.531
			c0.201-0.353,0.301-0.898,0.301-1.636v-6.19h4.218v4.29c0,1.119,0.238,2.078,0.716,2.874c0.476,0.796,1.356,1.193,2.636,1.193
			h0.678c0.578,0,0.954-0.206,1.13-0.619s0.264-0.972,0.264-1.68v-7.781h4.33v6.013c0,1.179,0.239,2.151,0.716,2.917
			c0.476,0.768,1.343,1.15,2.598,1.15h0.905c0.602,0,0.998-0.206,1.186-0.619s0.282-0.972,0.282-1.68V73.645h4.255v8.402
			c0,1.179,0.232,2.151,0.697,2.917c0.465,0.768,1.325,1.15,2.58,1.15h1.544c0.401,0,0.678,0.117,0.829,0.353
			c0.15,0.236,0.225,0.517,0.225,0.84v2.697c0,0.236-0.082,0.502-0.244,0.796c-0.163,0.295-0.421,0.442-0.772,0.442h-1.581
			c-1.13,0-2.028-0.294-2.693-0.885c-0.665-0.589-1.174-1.266-1.525-2.034c-0.427,0.944-1.067,1.665-1.92,2.167
			c-0.853,0.5-1.807,0.751-2.861,0.751h-1.017c-1.13,0-2.015-0.294-2.655-0.885c-0.64-0.589-1.124-1.251-1.45-1.989
			c-0.477,0.972-1.13,1.695-1.958,2.166c-0.829,0.472-1.708,0.708-2.636,0.708h-0.979c-1.08,0-1.953-0.294-2.618-0.885
			c-0.665-0.589-1.161-1.251-1.487-1.989c-0.477,0.972-1.149,1.695-2.015,2.166c-0.867,0.472-1.826,0.708-2.881,0.708h-6.555V91.242
			z M401.596,66.749c0-0.708,0.213-1.311,0.64-1.812c0.427-0.502,0.966-0.753,1.619-0.753c0.652,0,1.192,0.251,1.619,0.753
			s0.64,1.104,0.64,1.812c0,0.706-0.213,1.312-0.64,1.812c-0.428,0.502-0.967,0.751-1.619,0.751c-0.654,0-1.193-0.249-1.619-0.751
			C401.809,68.061,401.596,67.456,401.596,66.749z M404.495,61.023c0-0.713,0.22-1.316,0.659-1.806s0.985-0.736,1.638-0.736
			c0.627,0,1.167,0.246,1.619,0.736c0.451,0.49,0.678,1.093,0.678,1.806c0,0.743-0.226,1.36-0.678,1.85
			c-0.452,0.492-0.992,0.736-1.619,0.736c-0.654,0-1.199-0.244-1.638-0.736C404.715,62.383,404.495,61.766,404.495,61.023z
			 M407.47,66.749c0-0.708,0.213-1.311,0.64-1.812c0.427-0.502,0.966-0.753,1.619-0.753c0.653,0,1.192,0.251,1.619,0.753
			s0.64,1.104,0.64,1.812c0,0.706-0.214,1.312-0.64,1.812c-0.427,0.502-0.966,0.751-1.619,0.751c-0.653,0-1.193-0.249-1.619-0.751
			C407.683,68.061,407.47,67.456,407.47,66.749z"/>
		<path fill="#FFFFFF" d="M423.135,91.242c-0.376,0-0.633-0.117-0.772-0.353c-0.138-0.236-0.207-0.502-0.207-0.796v-2.61
			c0-0.324,0.075-0.634,0.226-0.928c0.15-0.295,0.402-0.442,0.753-0.442h4.444V59.587h4.255v31.655
			C431.834,91.242,423.135,91.242,423.135,91.242z"/>
		<path fill="#FFFFFF" d="M438.011,59.587h4.255v31.655h-4.255V59.587z"/>
	</g>
</g>
</svg>
