<svg xmlns="http://www.w3.org/2000/svg" viewBox="141 211.8 781.7 19"><style>.st0{fill:url(#SVGID_1_)}.st1{fill:#ed7e6a}.st2{display:none}.st3{fill:#fff}.st3,.st4{display:inline}.st5{fill:url(#SVGID_2_)}</style><g id="Layer_1"><linearGradient id="SVGID_1_" gradientUnits="userSpaceOnUse" x1="35.444" y1="284.3" x2="817.144" y2="284.3" gradientTransform="matrix(1 0 0 -1 0 505.6)"><stop offset="0" stop-color="#dcddde"/><stop offset=".203" stop-color="#e6e6e6"/><stop offset=".654" stop-color="#f6f6f6"/><stop offset="1" stop-color="#fff"/></linearGradient><path class="st0" d="M922.7 211.8v18.5l-781.7.5v-19h781.7z"/><path class="st1" d="M896.5 211.8h26.1v19h-26.1z"/></g><g id="Layer_2" class="st2"><path class="st3" d="M889.5 306.8H156.6c-4.7 0-8.5-3.8-8.5-8.5v-89.7c0-4.7 3.8-8.5 8.5-8.5h732.9c4.7 0 8.5 3.8 8.5 8.5v89.6c.1 4.7-3.8 8.6-8.5 8.6z"/><g class="st4"><linearGradient id="SVGID_2_" gradientUnits="userSpaceOnUse" x1="40.212" y1="254.2" x2="817.712" y2="254.2" gradientTransform="matrix(1 0 0 -1 0 505.6)"><stop offset="0" stop-color="#dcddde"/><stop offset=".203" stop-color="#e6e6e6"/><stop offset=".654" stop-color="#f6f6f6"/><stop offset="1" stop-color="#fff"/></linearGradient><path class="st5" d="M914 307.8H153.9c-4.8 0-8.7-4.3-8.7-9.7v-93.4c0-5.3 3.9-9.7 8.7-9.7H914c4.8 0 8.7 4.3 8.7 9.7v93.4c-.1 5.3-3.9 9.7-8.7 9.7z"/><path class="st1" d="M896.6 195.1h26v112.7h-26z"/></g></g></svg>