<svg id="Layer_1" xmlns="http://www.w3.org/2000/svg" viewBox="0 0 107.7 52"><style>.st0{fill:#ee2c7c}.st1{fill:#fff}</style><path id="XMLID_2608_" class="st0" d="M102.3 26c0 11.7-9.5 21.2-21.2 21.2H26.6C14.9 47.2 5.4 37.7 5.4 26S14.9 4.8 26.6 4.8h54.5c11.7 0 21.2 9.5 21.2 21.2z"/><path class="st1" d="M94.4 14.2c.8 1.9-.7 2.6-1.5 3.4-4.6 2.3-9.9 0-13-3.8-.8-1.5-1.5-3.8 0-5.4 3.8-2.3 7.6 0 11.3 1.8 1.8 1.2 2.9 2.6 3.2 4zm3.3 4.3c1.3 1.3 1.5 2.9.8 4.5-2.6 2.9-5.6-2.5-4.3-4.3.7-1.3 2.3-1.4 3.5-.2zM15.9 35.9c1.5 1 2.1 2.6 1.6 4.2-2 3.3-6-1.4-5.1-3.4.5-1.4 2-1.7 3.5-.8z"/></svg>