<svg xmlns="http://www.w3.org/2000/svg" width="502.396" height="345.245" viewBox="93.333 40.751 502.396 345.245"><path fill="#666" d="M595.729 126.086c0 .92-1.073 1.667-2.396 1.667-1.322 0-2.396-.746-2.396-1.667v-22.334c0-.92 1.073-1.667 2.396-1.667s2.396.746 2.396 1.667v22.334zm0 29c0 .92-1.073 1.667-2.396 1.667-1.322 0-2.396-.746-2.396-1.667v-22.334c0-.92 1.073-1.667 2.396-1.667s2.396.746 2.396 1.667v22.334zM128.833 51.729c-.92 0-1.667-1.073-1.667-2.396 0-1.322.746-2.396 1.667-2.396h22.334c.92 0 1.667 1.073 1.667 2.396s-.746 2.396-1.667 2.396h-22.334z"/><path d="M592.8 370.333c.006 8.497-5.116 15.39-11.443 15.392l-476.387.271c-6.326.004-11.456-6.881-11.463-15.379l-.174-305.628c-.005-8.491 5.119-15.381 11.447-15.384l476.386-.272c6.327-.003 11.457 6.879 11.461 15.374l.173 305.626zM564.871 73.49l-442.406.252.155 272.735 442.405-.251-.154-272.736z"/><circle fill="#010202" stroke="#A0A0A0" stroke-miterlimit="10" cx="343.186" cy="368.427" r="10.75"/><circle fill="#3A3A3A" stroke="#A0A0A0" stroke-miterlimit="10" cx="343.186" cy="368.427" r="5.061"/><circle fill="#010202" stroke="#A0A0A0" stroke-miterlimit="10" cx="342.855" cy="60.724" r="4.917"/><circle fill="#3A3A3A" cx="342.855" cy="60.725" r="2.314"/><path fill="none" stroke="#999" stroke-miterlimit="10" d="M119.166 70.085h449.333v280H119.166z"/></svg>