<svg xmlns="http://www.w3.org/2000/svg" width="570.769" height="255.275" viewBox="0 0 570.769 255.275"><path fill="#EC6E38" d="M562.654 73.064l-48.317 48.647-36.547-10.584s23.974-17.163 24.321-19.231c.347-2.069 25.306-26.103 25.306-26.103l11.238-7.199 23.999 14.47z"/><circle fill="#EC6E38" cx="393.686" cy="124.441" r="21.441"/><circle fill="#EC6E38" cx="328.011" cy="97.087" r="20.526"/><circle fill="#EC6E38" cx="254.893" cy="133.805" r="16.813"/><path fill="none" stroke="#EC6E38" stroke-width="10" stroke-miterlimit="10" d="M111.554 50.29c-9.4 4.967-16.367 13.933-20.9 26.9-3.833 10.867-4.433 20.767-1.8 29.7 3.4 11.2 11.917 19.2 25.55 24 8.6 3.067 16.45 3.617 23.55 1.65 7.133-1.933 13.367-6.217 18.7-12.85l-19.45-10.75c-2.5 3.533-5.167 5.8-8 6.8-2.9.967-5.95.883-9.15-.25-4.8-1.7-8.167-4.817-10.1-9.35-2-4.567-1.983-9.933.05-16.1l51.9 18.3c5.9-15.733 6.833-28.65 2.8-38.75-4.067-10.067-11.9-17.15-23.5-21.25-10.367-3.634-20.25-2.984-29.65 1.95m12.35 15.3c4.1-2.233 8.417-2.55 12.95-.95 4.2 1.433 7.233 4.25 9.1 8.45 1.867 4.167 1.817 9.283-.15 15.35l-31-10.95c1.967-5.667 5-9.634 9.1-11.9m-95.95-16.8l-20.05 3.65 20.55 112.75 20.1-3.65-6.25-34.1 12.85-21.8 36.95 47.95 26-4.75-52.05-61.65 29.45-50.75-27 4.95-31.4 57.45-9.15-50.05m232.65 33.5h-21.8l-39.8 102.1h21.9l8.4-23.2h40.85l8.9 23.2h22.45l-40.9-102.1m2.9 61.7h-27.85l13.8-37.9 14.05 37.9m-82.8-106.1l-11.95-2.55-4.45 20.7 11.9 2.55-9.2 42.8c-1.967 9.033-3 15.2-3.1 18.5-.233 4.367.25 8 1.45 10.9 1.233 2.867 3.55 5.5 6.95 7.9 3.467 2.4 7.533 4.1 12.2 5.1 7.567 1.633 14.683 1.8 21.35.5l2.1-20.6c-4.933.667-8.6.75-11 .25-1.667-.4-3.033-1.15-4.1-2.25-1.033-1.167-1.567-2.433-1.6-3.8-.033-1.333.8-6.033 2.5-14.1l8.55-39.55 17.75 3.8 4.45-20.7-17.75-3.85 7.45-34.65-29.3 9.55-4.2 19.5m297.1 85.9c-2.133-3.3-4.017-6-5.65-8.1 4.167 16.633 6.8 27.667 7.9 33.1 1.133 5.567 2.85 16.083 5.15 31.55l3.616 25.532.934-34.782 10.733 17.949-5-26.667c-1.167-5.333-4.916-13.432-7.883-19.532-2.333-6.067-5.6-12.417-9.8-19.05m-41.15-55.7h-21.3l33.55 85.55-14.2 32.6h30.65l8.4-23.9 4.2-5.45-2.6-18.75c-.667.067-1.417.083-2.25.05-1.7-.067-2.983-.4-3.85-1-1.133-.733-2.6-2.617-4.4-5.65-.9-1.533-1.7-2.983-2.4-4.35l-25.8-59.1m24.35 10.65c-1.967-6.167-6.433-18.167-13.4-36l-1.9-.15c7.2 18.433 11.817 30.783 13.85 37.05 1.1 3.467 2.833 9.683 5.2 18.65l3.2 12.4-26.15-69.2h-2.25l26.45 68.1-18.886-70.406-15.593 3.622 39.029 80.984-1.95-3.25c-1.4-2.367-2.317-3.983-2.75-4.85-.833-1.6-2.283-4.933-4.35-10l-29.05-64.2-3.4 1.25 36 81.05c1.533 3.467 2.767 5.617 3.7 6.45.467.433 1.55.967 3.25 1.6.867.3 1.667.567 2.4.8l-5.1-22c-3.767-15.734-6.533-26.367-8.3-31.9m-70.5 13.1h-29.15v102.15h18.2v-38.55h11.8c8.4 0 14.683-.483 18.85-1.45 3.233-.8 6.383-2.417 9.45-4.85 3.067-2.367 5.617-5.717 7.65-10.05 2-4.233 3-9.5 3-15.8 0-8.1-1.733-14.733-5.2-19.9-3.467-5.1-7.783-8.433-12.95-10-3.5-1.034-10.717-1.55-21.65-1.55m-2.2 17.3c6.467 0 10.833.233 13.1.7 2.9.6 5.333 2.1 7.3 4.5 1.9 2.467 2.85 5.533 2.85 9.2 0 3.1-.683 5.75-2.05 7.95-1.333 2.267-3.217 3.933-5.65 5-2.367 1.067-7.167 1.6-14.4 1.6h-9.9v-28.95h8.75m-33.8-34.05c-3.267-5.1-7.333-8.433-12.2-10-3.3-1.033-10.1-1.55-20.4-1.55h-27.55v102.15h17.15v-38.5h11.2c7.767 0 13.7-.5 17.8-1.5 3-.8 5.967-2.417 8.9-4.85 2.9-2.4 5.3-5.75 7.2-10.05 1.9-4.233 2.85-9.5 2.85-15.8 0-8.1-1.65-14.734-4.95-19.9m-22.35 6.45c2.767.6 5.067 2.1 6.9 4.5 1.8 2.467 2.7 5.533 2.7 9.2 0 3.067-.65 5.717-1.95 7.95-1.3 2.267-3.083 3.95-5.35 5.05-2.3 1.067-6.817 1.6-13.55 1.6h-9.4v-29h8.3c6.1 0 10.217.233 12.35.7m62.05-45.05c-1.833 0-3.583.467-5.25 1.4-1.7.9-3.033 2.217-4 3.95-.967 1.633-1.45 3.417-1.45 5.35 0 1.867.467 3.633 1.4 5.3 1 1.767 2.317 3.083 3.95 3.95 1.7.967 3.467 1.45 5.3 1.45.7.167 1.4.25 2.1.25 1.5 0 2.983-.383 4.45-1.15 1.4-.8 2.5-1.9 3.3-3.3.767-1.467 1.15-2.95 1.15-4.45 0-.8-.1-1.567-.3-2.3-.033-1.8-.5-3.5-1.4-5.1-.933-1.7-2.267-3.017-4-3.95-1.667-.934-3.417-1.4-5.25-1.4m79.25 20.1a664.964 664.964 0 0 0-3.4-13.85h-.95c1.1 3.8 2.217 8.083 3.35 12.85 2.233 9.533 3.417 16.717 3.55 21.55.267 7-.3 15.183-1.7 24.55l-2.05 11.45.25-.9c.4-1 1.033-1.733 1.9-2.2.5-1.067 1.117-5.717 1.85-13.95.8-8.7 1.1-15.117.9-19.25-.2-3.567-1.433-10.317-3.7-20.25m29.551-11.485l-1.451 4.935c-.733 3.9-2.567 7.767-3.7 12.5-2.267 9.533-4.433 16.5-6.5 20.9-2.9 6.367-7.083 13.4-12.55 21.1l-6.55 8.6v.1l-.8 1 .75-.9.15-.15c.8-.733 1.7-1.117 2.7-1.15.9-.7 3.55-4.567 7.95-11.6 4.633-7.4 7.8-13 9.5-16.8 1.433-3.233 3.367-9.8 5.8-19.7 1.233-4.967 2.317-9.6 3.25-13.9m58.778 24.086l-11.907-12.43-61.771 71.294c2.1 2.133 3.383 3.683 3.85 4.65.233.5.533 1.65.9 3.45l.45 2.55 58.016-58.052 10.462-11.462zM536.554 60.99l-1.13-1.294-59.57 55.994-.8-1.6 58.37-53.838-1.66-1.771-58.46 55.609 7.1 9.7 1.25-1.15.45.65-1.7 1.6 3.2 5.35 65.5-62.25-1.15-1.25v.05l-2.2-2.9-62.85 58.7-.45-.7 61.5-58-1.1-1.3-2.65 2.5h-.45l-58.75 54.75-.55-1.1 64.637-61.488-6.938 5.538-2.45 2.3h-.95l-56.35 53.15.05.1-.5.45-1.1-1.8 59.701-56m-57.3 58.9l.25-.2.95 1.35h-.05l-1.15-1.15z"/><circle fill="#EC6E38" cx="131.616" cy="100.157" r="33.683"/><circle fill="#EC6E38" cx="394.08" cy="47.541" r="13.426"/><circle fill="#EC6E38" cx="166.929" cy="67.836" r="10.21"/><path fill="#1D1D1B" d="M34.17 170.012L13.602 57.27l20.07-3.662 9.134 50.066L74.22 46.21l26.986-4.922-29.418 50.741 52.02 61.633-25.969 4.735-36.978-47.925-12.836 21.81 6.214 34.07-20.069 3.66z" opacity=".1"/><path fill="#FFF" d="M29.034 165.905L8.467 53.162 28.538 49.5l9.134 50.066 31.413-57.464 26.986-4.922-29.417 50.741 52.02 61.633-25.97 4.735-36.978-47.925-12.836 21.81 6.214 34.07-20.07 3.661z"/><path fill="#1D1D1B" d="M142.934 113.768l19.422 10.748c-5.325 6.632-11.548 10.918-18.668 12.855-7.123 1.936-14.983 1.386-23.584-1.648-13.613-4.802-22.121-12.803-25.52-24.005-2.646-8.945-2.054-18.851 1.778-29.712 4.577-12.976 11.551-21.941 20.926-26.896 9.376-4.956 19.248-5.605 29.618-1.948 11.648 4.11 19.482 11.198 23.504 21.264 4.018 10.069 3.081 22.988-2.812 38.758l-51.901-18.307c-2.02 6.196-2.036 11.564-.045 16.107 1.988 4.543 5.367 7.657 10.135 9.337 3.244 1.143 6.284 1.221 9.121.232 2.833-.989 5.509-3.25 8.026-6.785zm8.567-20.52c1.967-6.047 2.026-11.153.179-15.313-1.849-4.161-4.885-6.988-9.113-8.479-4.522-1.595-8.838-1.266-12.948.987-4.11 2.253-7.139 6.215-9.082 11.884l30.964 10.921z" opacity=".1"/><path fill="#FFF" d="M137.8 109.66l19.421 10.748c-5.325 6.632-11.549 10.918-18.669 12.855-7.121 1.936-14.982 1.387-23.584-1.647-13.613-4.803-22.12-12.804-25.519-24.006-2.646-8.945-2.054-18.851 1.777-29.712 4.577-12.976 11.553-21.941 20.927-26.896 9.375-4.956 19.247-5.605 29.618-1.948 11.648 4.11 19.481 11.198 23.503 21.264 4.018 10.068 3.083 22.988-2.811 38.758L110.56 90.769c-2.019 6.195-2.035 11.564-.044 16.106 1.989 4.544 5.367 7.657 10.136 9.337 3.244 1.143 6.283 1.221 9.12.232 2.835-.988 5.509-3.25 8.028-6.784zm8.565-20.52c1.967-6.046 2.028-11.152.179-15.313-1.848-4.161-4.885-6.988-9.112-8.479-4.522-1.595-8.839-1.265-12.948.987-4.11 2.253-7.139 6.214-9.082 11.884l30.963 10.921z"/><path fill="#1D1D1B" d="M230.21 52.167l-4.46 20.709-17.749-3.824-8.521 39.568c-1.725 8.013-2.563 12.718-2.507 14.115.051 1.399.587 2.66 1.603 3.779 1.015 1.123 2.385 1.869 4.113 2.241 2.403.519 6.063.435 10.983-.245l-2.121 20.629c-6.599 1.288-13.718 1.11-21.359-.537-4.686-1.007-8.738-2.703-12.159-5.084-3.42-2.382-5.74-5.01-6.959-7.883-1.22-2.875-1.711-6.511-1.472-10.911.095-3.138 1.133-9.298 3.11-18.483l9.217-42.803-11.925-2.568 4.46-20.708 11.925 2.569 4.2-19.507 29.336-9.548-7.466 34.669 17.751 3.822z" opacity=".1"/><path fill="#FFF" d="M225.075 48.06l-4.46 20.709-17.75-3.825-8.52 39.569c-1.726 8.012-2.564 12.717-2.508 14.114.052 1.399.588 2.66 1.603 3.779 1.016 1.123 2.387 1.871 4.113 2.241 2.403.519 6.063.435 10.984-.245l-2.121 20.629c-6.599 1.288-13.719 1.11-21.359-.536-4.685-1.008-8.738-2.704-12.158-5.085-3.421-2.382-5.741-5.01-6.96-7.884-1.219-2.875-1.711-6.511-1.472-10.911.095-3.138 1.133-9.298 3.11-18.482l9.217-42.803-11.925-2.568 4.46-20.708 11.924 2.569 4.2-19.507L214.79 9.57l-7.466 34.669 17.751 3.821z"/><path fill="#1D1D1B" d="M307.195 189.244h-22.432l-8.917-23.2h-40.823l-8.429 23.2h-21.875l39.779-102.129h21.806l40.891 102.129zm-37.966-40.407l-14.071-37.895-13.794 37.895h27.865z" opacity=".1"/><path fill="#FFF" d="M302.06 185.136h-22.431l-8.918-23.2h-40.823l-8.429 23.2h-21.875l39.779-102.129h21.805l40.892 102.129zm-37.966-40.407l-14.071-37.896-13.794 37.896h27.865z"/><path fill="#1D1D1B" d="M367.064 198.816V96.689h29.164c11.051 0 18.255.512 21.611 1.532 5.158 1.533 9.476 4.867 12.956 9.997 3.478 5.134 5.219 11.763 5.219 19.889 0 6.27-1.004 11.542-3.009 15.814-2.005 4.273-4.555 7.627-7.645 10.065-3.089 2.44-6.231 4.053-9.423 4.842-4.34.976-10.621 1.463-18.849 1.463H385.24v38.524h-18.176zm18.176-84.85v28.981h9.946c7.16 0 11.951-.535 14.366-1.601 2.414-1.068 4.308-2.741 5.679-5.016 1.371-2.275 2.056-4.923 2.056-7.945 0-3.712-.962-6.776-2.885-9.195-1.924-2.414-4.358-3.924-7.305-4.527-2.172-.462-6.529-.696-13.077-.696h-8.78z" opacity=".1"/><path fill="#FFF" d="M361.929 194.708V92.581h29.164c11.051 0 18.255.512 21.611 1.532 5.158 1.533 9.475 4.867 12.956 9.997 3.478 5.134 5.219 11.763 5.219 19.889 0 6.271-1.004 11.542-3.009 15.814-2.005 4.273-4.555 7.627-7.645 10.065-3.09 2.44-6.232 4.053-9.424 4.842-4.34.976-10.621 1.464-18.849 1.464h-11.848v38.524h-18.175zm18.176-84.85v28.98h9.946c7.16 0 11.95-.535 14.365-1.601 2.415-1.068 4.307-2.741 5.679-5.016 1.371-2.275 2.056-4.923 2.056-7.943 0-3.713-.962-6.778-2.885-9.196-1.924-2.415-4.358-3.924-7.305-4.528-2.172-.463-6.528-.696-13.077-.696h-8.779z"/><path fill="#1D1D1B" d="M300.087 170.52V68.394h27.517c10.429 0 17.223.511 20.391 1.533 4.865 1.531 8.939 4.865 12.222 9.996 3.284 5.133 4.925 11.762 4.925 19.889 0 6.27-.947 11.541-2.839 15.814s-4.296 7.628-7.213 10.068c-2.916 2.436-5.879 4.051-8.891 4.84-4.094.977-10.022 1.465-17.786 1.465h-11.179v38.521h-17.147zm17.148-84.848v28.98h9.383c6.757 0 11.276-.533 13.556-1.602 2.277-1.067 4.063-2.74 5.357-5.016 1.294-2.274 1.941-4.923 1.941-7.941 0-3.713-.907-6.78-2.722-9.196-1.816-2.415-4.113-3.924-6.894-4.528-2.047-.464-6.16-.696-12.339-.696h-8.282z" opacity=".1"/><path fill="#FFF" d="M294.952 166.412V64.286h27.517c10.429 0 17.223.511 20.391 1.533 4.866 1.531 8.939 4.865 12.222 9.997 3.283 5.133 4.925 11.762 4.925 19.888 0 6.271-.948 11.541-2.839 15.814-1.893 4.272-4.297 7.628-7.212 10.067-2.917 2.437-5.88 4.051-8.892 4.84-4.095.977-10.023 1.465-17.786 1.465h-11.179v38.521h-17.147zm17.149-84.848v28.98h9.383c6.756 0 11.275-.533 13.556-1.602 2.277-1.067 4.063-2.739 5.357-5.015 1.293-2.275 1.941-4.924 1.941-7.942 0-3.714-.908-6.78-2.722-9.196-1.817-2.415-4.113-3.924-6.894-4.527-2.047-.464-6.16-.696-12.34-.696h-8.281z"/><path opacity=".1" fill="#1D1D1B" d="M442.355 72.932H421.05l33.572 85.539-14.203 32.602h30.664l8.393-23.887 4.197-5.487s-.642-5.992-.969-8.089c-.41-2.625-1.614-10.634-1.614-10.634s-4.03.446-6.133-.968c-2.68-1.802-6.777-10.007-6.777-10.007l-25.825-59.069zm99.419 16.463h12.912l-57.134 59.096s-.768-4.795-1.352-6.006c-.706-1.459-3.812-4.672-3.812-4.672l49.386-48.418zm-63.911 31.149s6.268 24.931 7.908 33.066c2.697 13.386 8.231 53.118 8.231 53.118l1.453-30.826 8.714 18.236s-3.712-31.794-10.844-46.486c-5.619-14.518-15.462-27.108-15.462-27.108zm73.594-51.808l3.229 4.196-65.367 62.137-3.226-5.327zm-72.466 50.208l56.329-53.113h2.419l-56.973 53.113.808 1.6 58.747-54.713h1.938l-59.716 56.004 1.129 1.775 60.201-56.004 1.291.162-60.2 56.971 1.129 1.131 62.458-58.424 1.131 1.29-63.589 59.878z"/><path opacity=".1" fill="#1D1D1B" d="M453.331 47.593l-1.937-.162s10.835 27.637 13.857 37.054c2.66 8.293 8.396 31.021 8.396 31.021l-26.125-69.204h-2.261l26.463 68.137-29.852-68.137h-1.614l35.991 82.312s-3.629-5.989-4.682-8.069c-1.231-2.436-4.357-10.008-4.357-10.008l-29.051-64.235-3.389 1.291 35.99 81.021s2.321 5.218 3.712 6.456c1.15 1.021 5.649 2.42 5.649 2.42s-9.147-40.685-13.395-53.905c-2.975-9.261-13.395-35.992-13.395-35.992zm21.464 0s6.618 22.758 6.939 34.377c.646 16.785-3.872 36.476-3.872 36.476s.144-2.431 2.241-3.559c.839-1.848 3.225-24.258 2.761-33.24-.438-8.533-7.101-34.054-7.101-34.054"/><path opacity=".1" fill="#1D1D1B" d="M506.382 54.435s-4.362 23.296-9.317 33.814c-6.996 15.268-19.912 30.804-19.912 30.804s1.227-2.104 3.608-2.165c1.581-1.27 13.82-20.194 17.46-28.418 3.455-7.815 9.024-33.598 9.024-33.598"/><path fill="#FFF" d="M437.221 68.825h-21.306l33.573 85.539-14.203 32.601h30.665l8.392-23.886 4.196-5.487s-.643-5.992-.969-8.089c-.409-2.625-1.615-10.634-1.615-10.634s-4.029.446-6.132-.968c-2.681-1.802-6.778-10.007-6.778-10.007l-25.823-59.069zm99.418 16.462h12.911l-57.133 59.097s-.768-4.796-1.352-6.007c-.706-1.459-3.812-4.672-3.812-4.672l49.386-48.418zm-63.912 31.149s6.269 24.931 7.908 33.066c2.698 13.386 8.232 53.118 8.232 53.118l1.453-30.826 8.715 18.237s-3.712-31.794-10.845-46.487c-5.618-14.519-15.463-27.108-15.463-27.108zm73.595-51.807l3.228 4.196-65.365 62.136-3.227-5.327zm-72.466 50.207l56.329-53.113h2.418l-56.971 53.113.807 1.6 58.747-54.713h1.938l-59.717 56.004 1.13 1.775 60.201-56.003 1.288.161-60.197 56.972 1.129 1.13 62.458-58.425 1.131 1.292-63.589 59.877zm-25.66-71.351l-1.937-.161s10.834 27.636 13.856 37.053c2.659 8.293 8.397 31.023 8.397 31.023l-26.126-69.205h-2.26l26.462 68.138-29.852-68.138h-1.614l35.99 82.312s-3.628-5.989-4.681-8.07c-1.231-2.435-4.358-10.008-4.358-10.008l-29.05-64.235-3.39 1.291 35.991 81.021s2.321 5.218 3.712 6.455c1.15 1.021 5.649 2.42 5.649 2.42s-9.148-40.685-13.396-53.905c-2.972-9.259-13.393-35.991-13.393-35.991zm21.465 0s6.617 22.758 6.939 34.376c.647 16.785-3.873 36.476-3.873 36.476s.144-2.431 2.242-3.559c.839-1.847 3.224-24.258 2.761-33.24-.438-8.532-7.102-34.054-7.102-34.054"/><path fill="#FFF" d="M501.246 50.328s-4.362 23.295-9.316 33.813c-6.996 15.268-19.912 30.804-19.912 30.804s1.227-2.104 3.608-2.165c1.581-1.269 13.819-20.194 17.459-28.418 3.456-7.815 9.024-33.597 9.024-33.597"/><g fill-rule="evenodd" clip-rule="evenodd"><path fill="#1D1D1B" d="M406.095 55.279a9.921 9.921 0 0 1-3.952 3.96c-1.698.938-3.471 1.409-5.321 1.409-1.852 0-3.627-.471-5.322-1.409a9.96 9.96 0 0 1-3.963-3.96c-.944-1.699-1.416-3.472-1.416-5.313 0-1.861.48-3.648 1.438-5.363a9.843 9.843 0 0 1 4.002-3.952c1.711-.922 3.464-1.383 5.26-1.383 1.793 0 3.546.461 5.256 1.383a9.817 9.817 0 0 1 3.996 3.952c.954 1.715 1.432 3.502 1.432 5.363.002 1.841-.469 3.614-1.41 5.313zm-1.559-9.783a8.24 8.24 0 0 0-3.336-3.302c-1.426-.768-2.885-1.154-4.378-1.154-1.506 0-2.965.385-4.388 1.154a8.292 8.292 0 0 0-3.335 3.302c-.803 1.431-1.206 2.921-1.206 4.469 0 1.541.395 3.015 1.183 4.428a8.394 8.394 0 0 0 3.31 3.301c1.417.788 2.895 1.182 4.436 1.182 1.538 0 3.016-.395 4.435-1.182a8.355 8.355 0 0 0 3.302-3.301c.783-1.413 1.175-2.887 1.175-4.428 0-1.547-.399-3.038-1.198-4.469zm-4.249 7.233c.391 1.669.677 2.823.908 3.283h-1.598c-.196-.338-.461-1.366-.78-2.856-.356-1.65-1.011-2.271-2.414-2.324h-1.454v5.18h-1.545V44.234c.78-.161 1.916-.267 2.962-.267 1.651 0 2.733.319 3.476.994.588.513.941 1.329.941 2.27 0 1.56-1.01 2.607-2.252 3.032v.053c.908.32 1.455 1.173 1.756 2.413zm-1.062-5.339c0-1.543-1.118-2.218-2.75-2.218-.745 0-1.26.07-1.525.144v4.345h1.578c1.65.001 2.697-.905 2.697-2.271z" opacity=".1"/><path fill="#FFF" d="M404.041 53.225a9.928 9.928 0 0 1-3.952 3.96c-1.698.939-3.471 1.409-5.321 1.409-1.852 0-3.627-.47-5.322-1.409a9.965 9.965 0 0 1-3.962-3.96c-.945-1.699-1.416-3.472-1.416-5.313 0-1.862.479-3.647 1.438-5.363a9.85 9.85 0 0 1 4.002-3.952c1.71-.921 3.464-1.383 5.26-1.383 1.793 0 3.547.462 5.256 1.383a9.823 9.823 0 0 1 3.996 3.952c.954 1.716 1.433 3.502 1.433 5.363 0 1.841-.471 3.614-1.412 5.313zm-1.559-9.783a8.246 8.246 0 0 0-3.336-3.302c-1.426-.768-2.885-1.154-4.378-1.154-1.505 0-2.965.385-4.388 1.154a8.299 8.299 0 0 0-3.335 3.302c-.803 1.431-1.206 2.921-1.206 4.469 0 1.541.395 3.015 1.183 4.428a8.388 8.388 0 0 0 3.31 3.301c1.417.787 2.895 1.182 4.436 1.182 1.538 0 3.016-.395 4.435-1.182a8.348 8.348 0 0 0 3.302-3.301c.783-1.413 1.176-2.887 1.176-4.428-.001-1.547-.4-3.038-1.199-4.469zm-4.249 7.233c.392 1.669.676 2.822.908 3.283h-1.598c-.195-.338-.461-1.366-.78-2.856-.355-1.65-1.011-2.271-2.414-2.323h-1.454v5.178h-1.545V42.179c.78-.161 1.915-.267 2.962-.267 1.651 0 2.733.32 3.477.993.587.513.94 1.33.94 2.271 0 1.56-1.009 2.607-2.252 3.033v.052c.909.321 1.455 1.173 1.756 2.414zm-1.062-5.339c0-1.543-1.118-2.218-2.749-2.218-.745 0-1.26.071-1.525.144v4.346h1.578c1.649 0 2.696-.907 2.696-2.272z"/></g><path fill="#1D1D1B" d="M190.264 251.123h-3.31l-1.316-3.425h-6.024l-1.245 3.425h-3.228l5.87-15.072h3.218l6.035 15.072zm-5.602-5.965l-2.077-5.591-2.034 5.591h4.111z" opacity=".1"/><path fill="#FFF" d="M188.21 249.068h-3.31l-1.316-3.424h-6.024l-1.244 3.424h-3.228l5.869-15.071h3.218l6.035 15.071zm-5.603-5.964l-2.076-5.591-2.035 5.591h4.111z"/><path fill="#1D1D1B" d="M194.623 251.123h-2.889v-10.919h2.684v1.554c.458-.736.872-1.218 1.238-1.451a2.278 2.278 0 0 1 1.249-.351c.658 0 1.29.181 1.902.546l-.894 2.517c-.487-.315-.939-.471-1.358-.471-.405 0-.747.111-1.028.332-.282.223-.502.626-.663 1.208-.161.583-.242 1.804-.242 3.661v3.374z" opacity=".1"/><path fill="#FFF" d="M192.569 249.068h-2.888V238.15h2.683v1.554c.459-.736.872-1.218 1.238-1.451a2.278 2.278 0 0 1 1.249-.351c.658 0 1.29.181 1.901.545l-.894 2.517c-.487-.315-.939-.47-1.358-.47-.405 0-.747.111-1.028.332-.282.223-.502.626-.663 1.208-.16.583-.242 1.804-.242 3.661v3.373z"/><path fill="#1D1D1B" d="M202.21 243.535l-2.621-.473c.294-1.058.801-1.839 1.522-2.343.718-.51 1.788-.763 3.207-.763 1.288 0 2.249.154 2.879.458.63.306 1.074.694 1.331 1.16.257.469.386 1.332.386 2.586l-.031 3.374c0 .959.046 1.668.139 2.121.093.458.266.943.52 1.467h-2.858a10.322 10.322 0 0 1-.279-.854 5.08 5.08 0 0 0-.101-.34 5.236 5.236 0 0 1-1.584 1.08c-.562.24-1.16.36-1.799.36-1.124 0-2.01-.306-2.657-.916-.648-.608-.973-1.38-.973-2.312 0-.617.148-1.168.443-1.651a2.885 2.885 0 0 1 1.239-1.109c.53-.258 1.296-.482 2.297-.674 1.35-.252 2.285-.489 2.805-.711v-.287c0-.557-.137-.953-.411-1.187-.273-.237-.79-.357-1.552-.357-.513 0-.915.102-1.203.303-.288.207-.521.56-.699 1.068zm3.865 2.343c-.369.124-.954.271-1.757.444-.802.173-1.325.34-1.573.502-.377.268-.565.605-.565 1.018 0 .403.151.753.453 1.049.302.293.685.442 1.152.442.521 0 1.017-.172 1.491-.516a1.8 1.8 0 0 0 .689-.954c.076-.248.112-.715.112-1.41v-.575z" opacity=".1"/><path fill="#FFF" d="M200.157 241.481l-2.622-.473c.294-1.058.801-1.839 1.522-2.343.718-.51 1.788-.763 3.207-.763 1.288 0 2.249.154 2.879.458.63.305 1.074.693 1.331 1.16.257.469.386 1.332.386 2.585l-.031 3.374c0 .959.046 1.667.139 2.121.093.458.266.944.52 1.466h-2.858a10.218 10.218 0 0 1-.278-.853c-.047-.173-.084-.285-.102-.34a5.227 5.227 0 0 1-1.585 1.08c-.562.24-1.16.359-1.799.359-1.123 0-2.009-.305-2.656-.916-.648-.608-.973-1.378-.973-2.312 0-.617.148-1.168.443-1.651a2.885 2.885 0 0 1 1.239-1.109c.53-.258 1.296-.482 2.297-.675 1.35-.251 2.286-.489 2.806-.71v-.287c0-.557-.137-.953-.41-1.188-.274-.236-.791-.356-1.553-.356-.513 0-.915.102-1.201.303-.291.209-.524.562-.701 1.07zm3.864 2.343c-.369.124-.954.271-1.757.443-.802.173-1.326.341-1.573.503-.377.267-.565.605-.565 1.018 0 .403.151.754.453 1.049.302.294.685.441 1.152.441.521 0 1.017-.171 1.491-.515.349-.258.579-.578.689-.954.076-.248.112-.715.112-1.409v-.576z"/><path fill="#1D1D1B" d="M211.639 251.123v-15.072h2.887v5.427c.891-1.014 1.947-1.522 3.167-1.522 1.33 0 2.428.482 3.299 1.444.871.965 1.306 2.346 1.306 4.148 0 1.864-.444 3.301-1.331 4.307-.889 1.009-1.966 1.513-3.234 1.513a3.996 3.996 0 0 1-1.845-.469c-.607-.31-1.129-.772-1.568-1.381v1.604h-2.681zm2.867-5.698c0 1.131.178 1.967.535 2.51.499.768 1.164 1.152 1.993 1.152.638 0 1.18-.273 1.63-.818.448-.544.673-1.403.673-2.576 0-1.248-.225-2.146-.677-2.697-.453-.552-1.032-.829-1.738-.829-.692 0-1.268.27-1.727.808-.46.538-.689 1.356-.689 2.45z" opacity=".1"/><path fill="#FFF" d="M209.584 249.068v-15.071h2.888v5.427c.89-1.014 1.946-1.522 3.166-1.522 1.33 0 2.428.482 3.299 1.444.871.965 1.307 2.347 1.307 4.148 0 1.865-.444 3.302-1.331 4.307-.889 1.008-1.966 1.512-3.233 1.512a3.996 3.996 0 0 1-1.845-.469c-.607-.31-1.129-.772-1.568-1.381v1.603h-2.683zm2.868-5.697c0 1.131.178 1.967.535 2.511.499.767 1.164 1.151 1.993 1.151.639 0 1.18-.273 1.63-.818.449-.545.673-1.403.673-2.576 0-1.247-.226-2.146-.678-2.697-.453-.552-1.032-.829-1.738-.829-.693 0-1.268.27-1.727.808-.459.538-.688 1.355-.688 2.45z"/><path fill="#1D1D1B" d="M224.621 238.722v-2.671h2.889v2.671h-2.889zm0 12.401v-10.919h2.889v10.919h-2.889z" opacity=".1"/><path fill="#FFF" d="M222.567 236.669v-2.672h2.889v2.672h-2.889zm0 12.399V238.15h2.889v10.918h-2.889z"/><path fill="#1D1D1B" d="M239.991 243.433l-2.848.512c-.095-.568-.313-.996-.653-1.285-.34-.287-.78-.431-1.32-.431-.721 0-1.295.248-1.723.745-.429.497-.642 1.327-.642 2.492 0 1.295.217 2.211.653 2.747.434.533 1.019.801 1.753.801.548 0 .997-.156 1.346-.469.349-.311.596-.848.739-1.609l2.838.485c-.294 1.301-.86 2.285-1.695 2.951-.837.663-1.957.996-3.362.996-1.598 0-2.87-.505-3.82-1.513-.95-1.006-1.423-2.4-1.423-4.181 0-1.804.476-3.206 1.428-4.212.953-1.002 2.242-1.506 3.866-1.506 1.329 0 2.386.288 3.171.859.785.571 1.348 1.444 1.692 2.618z" opacity=".1"/><path fill="#FFF" d="M237.937 241.379l-2.848.512c-.095-.568-.313-.996-.652-1.285-.341-.288-.781-.431-1.321-.431-.721 0-1.295.249-1.723.745-.429.497-.642 1.327-.642 2.492 0 1.295.217 2.211.653 2.747.434.534 1.019.801 1.753.801.547 0 .997-.157 1.346-.468.349-.312.596-.849.739-1.61l2.838.485c-.293 1.302-.86 2.285-1.696 2.951-.837.662-1.956.996-3.361.996-1.598 0-2.87-.505-3.82-1.512-.95-1.006-1.423-2.402-1.423-4.182 0-1.804.476-3.206 1.428-4.212.953-1.002 2.242-1.506 3.866-1.506 1.329 0 2.386.288 3.171.859.785.572 1.348 1.445 1.692 2.618z"/><path fill="#1D1D1B" d="M260.86 251.123h-3.312l-1.315-3.425h-6.025l-1.243 3.425h-3.228l5.869-15.072h3.22l6.034 15.072zm-5.603-5.965l-2.077-5.591-2.034 5.591h4.111z" opacity=".1"/><path fill="#FFF" d="M258.806 249.068h-3.312l-1.315-3.424h-6.025l-1.243 3.424h-3.228l5.869-15.071h3.22l6.034 15.071zm-5.603-5.964l-2.077-5.591-2.034 5.591h4.111z"/><path fill="#1D1D1B" d="M262.371 240.204h2.695v1.604a4.035 4.035 0 0 1 1.417-1.339 3.93 3.93 0 0 1 1.985-.513c1.268 0 2.343.498 3.226 1.49.886.995 1.328 2.381 1.328 4.155 0 1.823-.448 3.24-1.338 4.252-.891 1.01-1.969 1.516-3.237 1.516-.603 0-1.15-.12-1.641-.36-.49-.241-1.004-.652-1.547-1.235v5.501h-2.888v-15.071zm2.858 5.275c0 1.226.244 2.134.73 2.718.487.584 1.082.88 1.779.88.672 0 1.232-.269 1.676-.808.446-.538.668-1.421.668-2.647 0-1.143-.229-1.994-.687-2.548-.459-.557-1.029-.834-1.709-.834-.705 0-1.291.273-1.757.817-.466.545-.7 1.35-.7 2.422z" opacity=".1"/><path fill="#FFF" d="M260.317 238.15h2.695v1.604a4.024 4.024 0 0 1 1.417-1.338 3.921 3.921 0 0 1 1.985-.514c1.269 0 2.345.498 3.226 1.49.886.995 1.328 2.381 1.328 4.155 0 1.822-.448 3.24-1.337 4.251-.892 1.01-1.97 1.516-3.238 1.516-.604 0-1.15-.12-1.641-.359-.489-.241-1.004-.652-1.546-1.234v5.501h-2.889V238.15zm2.857 5.274c0 1.226.244 2.134.73 2.719.487.584 1.082.878 1.779.878.673 0 1.231-.268 1.676-.807.445-.538.668-1.42.668-2.646 0-1.144-.23-1.995-.688-2.549-.46-.557-1.028-.834-1.709-.834-.705 0-1.291.273-1.757.817-.464.546-.699 1.351-.699 2.422z"/><path fill="#1D1D1B" d="M275.234 240.204h2.694v1.604a4.027 4.027 0 0 1 1.417-1.339 3.928 3.928 0 0 1 1.985-.513c1.267 0 2.343.498 3.23 1.49.882.995 1.325 2.381 1.325 4.155 0 1.823-.446 3.24-1.336 4.252-.892 1.01-1.972 1.516-3.239 1.516-.604 0-1.151-.12-1.639-.36-.49-.241-1.008-.652-1.548-1.235v5.501h-2.887v-15.071zm2.857 5.275c0 1.226.24 2.134.728 2.718.488.584 1.081.88 1.779.88.673 0 1.231-.269 1.677-.808.445-.538.668-1.421.668-2.647 0-1.143-.23-1.994-.691-2.548-.458-.557-1.027-.834-1.705-.834-.707 0-1.292.273-1.756.817-.469.545-.7 1.35-.7 2.422z" opacity=".1"/><path fill="#FFF" d="M273.18 238.15h2.694v1.604a4.015 4.015 0 0 1 1.417-1.338 3.918 3.918 0 0 1 1.985-.514c1.267 0 2.343.498 3.23 1.49.882.995 1.324 2.381 1.324 4.155 0 1.822-.446 3.24-1.336 4.251-.892 1.01-1.971 1.516-3.239 1.516a3.68 3.68 0 0 1-1.638-.359c-.491-.241-1.009-.652-1.548-1.234v5.501h-2.887V238.15zm2.857 5.274c0 1.226.24 2.134.728 2.719.488.584 1.081.878 1.779.878.673 0 1.231-.268 1.677-.807.445-.538.668-1.42.668-2.646 0-1.144-.23-1.995-.69-2.549-.459-.557-1.027-.834-1.706-.834-.707 0-1.292.273-1.756.817-.468.546-.7 1.351-.7 2.422z"/><path fill="#1D1D1B" d="M288.176 251.123v-15.072h2.888v15.072h-2.888z" opacity=".1"/><path fill="#FFF" d="M286.122 249.068v-15.071h2.888v15.071h-2.888z"/><path fill="#1D1D1B" d="M294.025 238.722v-2.671h2.888v2.671h-2.888zm0 12.401v-10.919h2.888v10.919h-2.888z" opacity=".1"/><path fill="#FFF" d="M291.971 236.669v-2.672h2.888v2.672h-2.888zm0 12.399V238.15h2.888v10.918h-2.888z"/><path fill="#1D1D1B" d="M309.392 243.433l-2.846.512c-.096-.568-.316-.996-.654-1.285-.338-.287-.779-.431-1.32-.431-.721 0-1.292.248-1.721.745-.429.497-.643 1.327-.643 2.492 0 1.295.216 2.211.653 2.747.436.533 1.02.801 1.751.801.549 0 1-.156 1.346-.469.35-.311.599-.848.742-1.609l2.838.485c-.298 1.301-.862 2.285-1.697 2.951-.835.663-1.956.996-3.362.996-1.597 0-2.869-.505-3.82-1.513-.948-1.006-1.422-2.4-1.422-4.181 0-1.804.475-3.206 1.429-4.212.952-1.002 2.241-1.506 3.865-1.506 1.331 0 2.386.288 3.172.859.785.571 1.349 1.444 1.689 2.618z" opacity=".1"/><path fill="#FFF" d="M307.338 241.379l-2.845.512c-.096-.568-.316-.996-.654-1.285-.338-.288-.779-.431-1.32-.431-.721 0-1.292.249-1.721.745-.429.497-.642 1.327-.642 2.492 0 1.295.215 2.211.653 2.747.435.534 1.019.801 1.751.801.549 0 1-.157 1.346-.468.35-.312.599-.849.742-1.61l2.838.485c-.298 1.302-.861 2.285-1.697 2.951-.835.662-1.956.996-3.363.996-1.597 0-2.869-.505-3.82-1.512-.948-1.006-1.421-2.402-1.421-4.182 0-1.804.474-3.206 1.428-4.212.952-1.002 2.242-1.506 3.865-1.506 1.331 0 2.386.288 3.172.859.783.572 1.348 1.445 1.688 2.618z"/><path fill="#1D1D1B" d="M313.744 243.535l-2.623-.473c.295-1.058.802-1.839 1.523-2.343.718-.51 1.789-.763 3.207-.763 1.288 0 2.248.154 2.879.458.63.306 1.074.694 1.33 1.16.259.469.386 1.332.386 2.586l-.031 3.374c0 .959.046 1.668.138 2.121.093.458.265.943.52 1.467h-2.857a10.8 10.8 0 0 1-.278-.854 5.091 5.091 0 0 0-.104-.34 5.216 5.216 0 0 1-1.582 1.08 4.54 4.54 0 0 1-1.801.36c-1.122 0-2.009-.306-2.657-.916-.647-.608-.971-1.38-.971-2.312 0-.617.147-1.168.441-1.651a2.89 2.89 0 0 1 1.239-1.109c.532-.258 1.295-.482 2.298-.674 1.351-.252 2.286-.489 2.805-.711v-.287c0-.557-.137-.953-.41-1.187-.276-.237-.794-.357-1.554-.357-.512 0-.913.102-1.202.303-.285.207-.521.56-.696 1.068zm3.863 2.343c-.37.124-.954.271-1.757.444-.803.173-1.327.34-1.574.502-.376.268-.565.605-.565 1.018 0 .403.152.753.454 1.049.301.293.686.442 1.151.442.522 0 1.019-.172 1.492-.516.349-.258.58-.577.688-.954.076-.248.113-.715.113-1.41v-.575z" opacity=".1"/><path fill="#FFF" d="M311.69 241.481l-2.623-.473c.295-1.058.803-1.839 1.524-2.343.717-.51 1.788-.763 3.206-.763 1.288 0 2.248.154 2.879.458.63.305 1.075.693 1.33 1.16.259.469.386 1.332.386 2.585l-.03 3.374c0 .959.046 1.667.138 2.121.093.458.266.944.521 1.466h-2.858a10.61 10.61 0 0 1-.278-.853 5.806 5.806 0 0 0-.104-.34 5.216 5.216 0 0 1-1.582 1.08 4.542 4.542 0 0 1-1.801.359c-1.123 0-2.009-.305-2.657-.916-.647-.608-.971-1.378-.971-2.312 0-.617.147-1.168.441-1.651a2.896 2.896 0 0 1 1.239-1.109c.532-.258 1.295-.482 2.298-.675 1.351-.251 2.287-.489 2.806-.71v-.287c0-.557-.137-.953-.41-1.188-.276-.236-.794-.356-1.554-.356-.511 0-.913.102-1.202.303-.287.209-.523.562-.698 1.07zm3.863 2.343c-.37.124-.954.271-1.757.443-.803.173-1.327.341-1.574.503-.376.267-.565.605-.565 1.018 0 .403.152.754.454 1.049.301.294.686.441 1.151.441.522 0 1.019-.171 1.492-.515.349-.258.58-.578.688-.954.076-.248.113-.715.113-1.409v-.576z"/><path fill="#1D1D1B" d="M328.3 240.204v2.302h-1.975v4.399c0 .894.02 1.413.058 1.56a.623.623 0 0 0 .255.364.82.82 0 0 0 .489.143c.268 0 .654-.091 1.161-.277l.247 2.24c-.672.289-1.434.434-2.281.434-.522 0-.993-.085-1.41-.263-.416-.175-.725-.4-.92-.677-.194-.277-.33-.655-.406-1.125-.06-.336-.092-1.016-.092-2.036v-4.761H322.1v-2.302h1.326v-2.17l2.899-1.687v3.857h1.975z" opacity=".1"/><path fill="#FFF" d="M326.246 238.15v2.302h-1.974v4.399c0 .894.02 1.413.058 1.56a.623.623 0 0 0 .255.364.82.82 0 0 0 .49.143c.268 0 .654-.091 1.161-.277l.247 2.24c-.672.289-1.434.434-2.281.434-.522 0-.993-.085-1.41-.263-.417-.176-.725-.4-.92-.678-.195-.277-.33-.654-.406-1.125-.06-.336-.092-1.016-.092-2.036v-4.761h-1.326v-2.302h1.326v-2.17l2.899-1.687v3.857h1.973z"/><path fill="#1D1D1B" d="M330.304 238.722v-2.671h2.888v2.671h-2.888zm0 12.401v-10.919h2.888v10.919h-2.888z" opacity=".1"/><path fill="#FFF" d="M328.25 236.669v-2.672h2.888v2.672h-2.888zm0 12.399V238.15h2.888v10.918h-2.888z"/><path fill="#1D1D1B" d="M335.485 245.509c0-.959.236-1.889.711-2.786a4.852 4.852 0 0 1 2.009-2.057c.867-.472 1.835-.71 2.904-.71 1.653 0 3.005.536 4.063 1.608 1.053 1.075 1.582 2.429 1.582 4.067 0 1.651-.533 3.022-1.598 4.107-1.067 1.084-2.409 1.63-4.027 1.63-1 0-1.954-.227-2.862-.679a4.651 4.651 0 0 1-2.071-1.989c-.474-.873-.711-1.938-.711-3.191zm2.961.153c0 1.084.258 1.914.771 2.49.514.575 1.148.863 1.901.863.752 0 1.387-.288 1.898-.863.509-.576.765-1.414.765-2.509 0-1.07-.255-1.891-.765-2.467-.51-.577-1.145-.864-1.898-.864-.753 0-1.387.288-1.901.864-.513.576-.771 1.404-.771 2.486z" opacity=".1"/><path fill="#FFF" d="M333.431 243.455c0-.959.236-1.889.711-2.786a4.852 4.852 0 0 1 2.009-2.057c.867-.473 1.835-.71 2.904-.71 1.653 0 3.005.536 4.063 1.608 1.054 1.075 1.582 2.429 1.582 4.067 0 1.652-.533 3.022-1.598 4.107-1.067 1.084-2.409 1.63-4.027 1.63-1 0-1.954-.227-2.862-.677a4.649 4.649 0 0 1-2.071-1.99c-.475-.874-.711-1.939-.711-3.192zm2.961.153c0 1.083.258 1.913.771 2.489.514.575 1.148.863 1.901.863.752 0 1.387-.288 1.898-.863.509-.576.765-1.414.765-2.509 0-1.069-.255-1.891-.765-2.468-.51-.576-1.145-.863-1.898-.863-.753 0-1.387.287-1.901.863-.513.578-.771 1.406-.771 2.488z"/><path fill="#1D1D1B" d="M358.946 251.123h-2.89v-5.574c0-1.178-.061-1.939-.184-2.287a1.6 1.6 0 0 0-.603-.806c-.277-.193-.61-.289-1.001-.289-.501 0-.95.139-1.347.413a2.066 2.066 0 0 0-.817 1.089c-.149.453-.222 1.288-.222 2.51v4.945h-2.888v-10.919h2.684v1.604c.952-1.234 2.152-1.852 3.597-1.852.639 0 1.219.115 1.749.344.529.23.926.522 1.196.88.272.357.46.759.567 1.213.105.454.158 1.101.158 1.943v6.786z" opacity=".1"/><path fill="#FFF" d="M356.892 249.068h-2.89v-5.573c0-1.178-.061-1.939-.184-2.287a1.592 1.592 0 0 0-.603-.806c-.276-.193-.61-.289-1.001-.289-.501 0-.95.14-1.347.413a2.066 2.066 0 0 0-.817 1.089c-.149.453-.222 1.288-.222 2.51v4.943h-2.888V238.15h2.684v1.604c.952-1.234 2.152-1.852 3.597-1.852.64 0 1.219.115 1.749.344.528.23.926.522 1.196.88.272.357.46.759.568 1.212.104.454.157 1.101.157 1.943v6.787z"/></svg>