<svg xmlns="http://www.w3.org/2000/svg" width="409.227" height="269" viewBox="3.21 3.653 409.227 269"><path fill="#E5ECF3" d="M412.437 257.653c0 8.284-6.715 15-15 15H18.21c-8.284 0-15-6.716-15-15v-239c0-8.284 6.716-15 15-15h379.227c8.285 0 15 6.716 15 15v239z"/><path fill="#FCFCFC" stroke="#91A4AD" stroke-miterlimit="10" d="M366.833 187.333c0 8.284-6.716 15-15 15h-276.5c-8.284 0-15-6.716-15-15v-68c0-8.284 6.716-15 15-15h276.5c8.284 0 15 6.716 15 15v68zm0-131.5c0 9.112-7.388 16.5-16.5 16.5h-274c-9.113 0-16.5-7.388-16.5-16.5s7.387-16.5 16.5-16.5h274c9.112 0 16.5 7.388 16.5 16.5z"/><path fill="#E7215D" d="M172.833 235.333c0 8.008-6.492 14.5-14.5 14.5h-32.5c-8.008 0-14.5-6.492-14.5-14.5s6.492-14.5 14.5-14.5h32.5c8.008 0 14.5 6.493 14.5 14.5z"/><path fill="#010202" d="M60.658 239.624v1.309h-9.214c-.431 0-.765.163-1.003.488-.215.291-.323.649-.323 1.073 0 .431.154.8.462 1.108.302.303.672.454 1.108.454h1.545c.157 0 .235.081.235.244v.829c0 .157-.079.235-.235.235h-1.545a2.765 2.765 0 0 1-2.033-.838 2.772 2.772 0 0 1-.847-2.033c0-.831.25-1.518.75-2.059.494-.541 1.123-.812 1.885-.812h1.283l-1.754-3.735a.726.726 0 0 1-.061-.279c0-.028.003-.058.009-.087.128-.884.561-1.673 1.3-2.364.797-.739 1.698-1.108 2.705-1.108 1.012 0 1.914.346 2.705 1.038.791.698 1.225 1.521 1.3 2.47v.061a.684.684 0 0 1-.061.271l-1.745 3.735h3.534zm-6.483 0h1.5l1.929-4.119c-.093-.581-.401-1.085-.925-1.51-.529-.424-1.114-.637-1.754-.637-.628 0-1.207.229-1.736.689-.495.425-.806.916-.934 1.475l1.92 4.102z"/><path fill="#010202" d="M66.67 232.041c1.14 0 2.115.404 2.923 1.213s1.213 1.783 1.213 2.923v1.711c0 .954-.268 1.698-.803 2.233-.541.541-1.286.812-2.234.812h-7.548v-1.309h7.548c.599 0 1.038-.14 1.317-.419.273-.279.41-.719.41-1.317v-1.711c0-.779-.276-1.442-.829-1.989a2.723 2.723 0 0 0-1.998-.829c-1.286 0-2.237.442-2.854 1.326l-.244.341c-.047.081-.105.122-.174.122a.244.244 0 0 1-.148-.062l-.681-.471c-.082-.053-.122-.113-.122-.184a.31.31 0 0 1 .052-.157l.244-.34c.518-.751 1.245-1.286 2.182-1.605a5.417 5.417 0 0 1 1.746-.288zm-.541 10.47c.157 0 .236.082.236.245v1.047c0 .157-.079.235-.236.235h-.873c-.163 0-.244-.078-.244-.235v-1.047c0-.163.081-.245.244-.245h.873zm8.866-1.814c0 .157-.076.235-.227.235h-.846c-.157 0-.236-.078-.236-.235v-12.435c0-.157.079-.236.236-.236h.846c.151 0 .227.079.227.236v12.435zm7.783.235h-2.731v.681c0 .954-.271 1.698-.812 2.233-.541.541-1.286.812-2.234.812h-.899c-.157 0-.235-.078-.235-.235v-.838c0-.156.079-.235.235-.235h.899c.599 0 1.035-.14 1.309-.419.279-.279.418-.719.418-1.317v-8.962c0-.162.082-.244.245-.244h.837c.157 0 .236.082.236.244v6.973h2.731l.001 1.307z"/><path fill="#010202" d="M87.019 232.398c.151 0 .227.079.227.235v6.021c0 .698-.204 1.254-.61 1.667-.425.407-.978.61-1.658.61h-3.071v-1.309h3.08c.006.006.012.009.018.009.32-.012.552-.091.698-.236.163-.168.245-.413.245-.732v-6.03c0-.156.075-.235.227-.235h.844zm-2.051-2.12c-.163 0-.244-.079-.244-.235v-1.057c0-.156.082-.235.244-.235h.873c.163 0 .245.079.245.235v1.057c0 .156-.082.235-.245.235h-.873zm3.255-1.528c.163 0 .244.079.244.235v1.057c0 .156-.082.235-.244.235h-.873c-.163 0-.244-.079-.244-.235v-1.057c0-.156.081-.235.244-.235h.873zm12.426 11.947c0 .157-.076.235-.227.235h-.846c-.157 0-.236-.078-.236-.235v-12.435c0-.157.079-.236.236-.236h.846c.151 0 .227.079.227.236v12.435z"/><path fill="#FFF" d="M129.89 240.932h-.602c-.78 0-1.408-.235-1.885-.707a2.287 2.287 0 0 1-.148-.191c-.523.599-1.338.898-2.443.898h-3.839c-.157 0-.235-.078-.235-.235v-.829c0-.163.079-.244.235-.244h3.839c.681 0 1.149-.131 1.405-.393.221-.216.332-.582.332-1.1v-2.862c0-.523-.189-.975-.567-1.353a1.863 1.863 0 0 0-1.353-.559c-.756 0-1.323.134-1.702.401l-.34.235a.262.262 0 0 1-.14.044h-.035a.209.209 0 0 1-.157-.096l-.48-.681a.178.178 0 0 1-.052-.131v-.044a.241.241 0 0 1 .105-.157l.332-.235c.605-.431 1.428-.646 2.469-.646.884 0 1.644.313 2.277.942.628.628.942 1.387.942 2.277v3.377c0 .262.084.477.253.646.221.222.541.332.959.332h.829v1.311h.001z"/><path fill="#FFF" d="M136.452 240.932h-.611c-.873 0-1.527-.218-1.963-.654a.113.113 0 0 1-.026-.035.183.183 0 0 1-.035.044.39.39 0 0 1-.026.035c-.407.407-.959.61-1.658.61h-2.679v-1.309h2.713c.314 0 .547-.079.698-.236.157-.15.236-.398.236-.741v-6.004c0-.162.078-.244.235-.244h.829c.163 0 .244.082.244.244v6.248c0 .204.049.355.148.454.186.186.541.279 1.064.279h.829v1.309h.002zm-4.276 1.701c.163 0 .245.082.245.245v1.047c0 .157-.082.235-.245.235h-.881c-.157 0-.235-.078-.235-.235v-1.047c0-.163.079-.245.235-.245h.881zm2.382 0c.163 0 .244.082.244.245v1.047c0 .157-.082.235-.244.235h-.873c-.163 0-.244-.078-.244-.235v-1.047c0-.163.081-.245.244-.245h.873z"/><path fill="#FFF" d="M143.101 232.921c1.146 0 2.094.381 2.844 1.144.745.762 1.117 1.728 1.117 2.896v1.693c0 .698-.207 1.254-.62 1.667-.413.407-.966.61-1.658.61h-8.77v-1.309h8.761c.337 0 .582-.079.733-.236.163-.156.244-.401.244-.732v-1.693c0-.814-.244-1.472-.733-1.972s-1.128-.75-1.919-.75h-4.023c-.18 0-.334-.064-.462-.192s-.192-.282-.192-.463c0-1.529.39-2.725 1.169-3.586.785-.861 1.87-1.292 3.254-1.292h1.483c.157 0 .236.079.236.236v.838c0 .156-.079.235-.236.235h-1.483c-1.861 0-2.888.969-3.08 2.905h3.335v.001zm6.126-6.082c-.105 0-.157-.055-.157-.166v-.384c0-.11.052-.165.157-.165h.506v-1.048c0-.366.131-.681.393-.942s.576-.393.942-.393c.594 0 1.006.271 1.239.812l.07.184a.107.107 0 0 1 .018.061.141.141 0 0 1-.018.062c-.012.041-.041.072-.087.096l-.357.14a.152.152 0 0 1-.123.009c-.046-.023-.076-.053-.087-.087l-.079-.184c-.105-.25-.297-.375-.576-.375a.604.604 0 0 0-.445.184.596.596 0 0 0-.183.436v1.048h1.833c.11 0 .166.055.166.165v.384c0 .111-.055.166-.166.166h-3.046v-.003zm3.987 14.093h-.838c-.704 0-1.256-.203-1.658-.61-.419-.419-.628-.978-.628-1.676v-10.375c0-.163.082-.245.244-.245h.829c.163 0 .244.082.244.245v10.375c0 .343.079.591.236.741.151.157.396.236.733.236h.838v1.309z"/><path fill="#FFF" d="M157.891 232.398c.151 0 .227.079.227.235v6.021c0 .698-.204 1.254-.61 1.667-.425.407-.978.61-1.658.61h-3.071v-1.309h3.08c.006.006.012.009.018.009.32-.012.552-.091.698-.236.163-.168.245-.413.245-.732v-6.03c0-.156.075-.235.227-.235h.844zm-2.051-2.12c-.163 0-.244-.079-.244-.235v-1.057c0-.156.082-.235.244-.235h.873c.163 0 .245.079.245.235v1.057c0 .156-.082.235-.245.235h-.873zm3.255-1.528c.163 0 .244.079.244.235v1.057c0 .156-.082.235-.244.235h-.873c-.163 0-.244-.079-.244-.235v-1.057c0-.156.081-.235.244-.235h.873z"/><circle fill="#E0E0DF" stroke="#798F9A" stroke-miterlimit="10" cx="349.909" cy="124.577" r="6.576"/><circle fill="#E0E0DF" stroke="#798F9A" stroke-miterlimit="10" cx="349.909" cy="154.577" r="6.576"/><circle fill="#BED023" cx="349.909" cy="184.577" r="6.576"/><g fill="#010202"><path d="M306.052 23.411c.087 0 .131.043.131.13v.896c0 .087-.044.13-.131.13h-.766c-.086 0-.129-.043-.129-.13v-.896c0-.087.043-.13.129-.13h.766zm0 5.434c.087 0 .131.043.131.13v.896c0 .087-.044.13-.131.13h-.766c-.086 0-.129-.043-.129-.13v-.896c0-.087.043-.13.129-.13h.766zm11.252-8.955c.128 0 .191.063.191.191v9.352a2.92 2.92 0 0 1-.889 2.146 2.922 2.922 0 0 1-2.146.889 2.913 2.913 0 0 1-2.139-.889 2.923 2.923 0 0 1-.889-2.146v-3.302c0-.123.061-.185.184-.185h.656c.123 0 .186.062.186.185v3.302c0 .556.195 1.03.588 1.422.392.392.863.588 1.414.588.557 0 1.028-.196 1.416-.588.392-.392.588-.866.588-1.422v-9.352c0-.128.063-.191.191-.191h.649zm3.472 9.926c0 .123-.059.185-.178.185h-.662c-.123 0-.186-.062-.186-.185v-9.741c0-.123.062-.185.186-.185h.662c.119 0 .178.062.178.185v9.741zm10.084-.841V30h-2.119v.164c0 .747-.273 1.393-.82 1.935-.543.547-1.189.82-1.941.82h-1.443c-.123 0-.184-.062-.184-.185v-.656c0-.123.061-.185.184-.185h1.443c.469 0 .877-.171 1.223-.513.342-.347.514-.752.514-1.217V30h-1.928a2.862 2.862 0 0 1-2.092-.861 2.851 2.851 0 0 1-.869-2.092v-1.053c0-.815.29-1.511.869-2.085a2.847 2.847 0 0 1 2.092-.868 2.84 2.84 0 0 1 2.084.868 2.83 2.83 0 0 1 .869 2.085v2.98h2.118v.001zm-3.144-2.98c0-.533-.189-.986-.568-1.36a1.854 1.854 0 0 0-1.359-.567c-.533 0-.989.189-1.367.567a1.839 1.839 0 0 0-.568 1.36v1.053c0 .528.189.982.568 1.36.378.378.834.567 1.367.567h1.928v-2.98h-.001zm-3.166-4.259c-.086 0-.129-.043-.129-.13v-.301c0-.087.043-.13.129-.13h.391v-.813c0-.292.102-.54.307-.745s.454-.308.746-.308c.465 0 .785.214.963.643l.055.13a.145.145 0 0 1 .008.103.127.127 0 0 1-.068.075l-.281.116a.166.166 0 0 1-.061.014c-.051 0-.087-.027-.109-.082l-.062-.137a.444.444 0 0 0-.443-.301c-.137 0-.254.048-.35.144s-.143.212-.143.349v.813h1.436c.086 0 .129.043.129.13v.301c0 .087-.043.13-.129.13l-2.389-.001z"/><path d="M342.755 30h-.473c-.609 0-1.102-.185-1.477-.554l-.014-.021a.143.143 0 0 1-.02-.027.702.702 0 0 1-.104.123c-.318.319-.75.479-1.291.479h-.711c-.68 0-1.191-.171-1.539-.513-.004-.005-.006-.009-.006-.014a.092.092 0 0 1-.014-.014.264.264 0 0 0-.055.062h.006c-.318.319-.754.479-1.305.479h-.697c-.684 0-1.197-.171-1.539-.513a.092.092 0 0 0-.014-.014c-.004-.005-.006-.009-.006-.014-.02.027-.035.048-.049.062-.318.319-.752.479-1.299.479h-1.77v-1.025h1.797c.252 0 .434-.062.547-.185.123-.123.186-.316.186-.581V23.5c0-.123.061-.185.184-.185h.656c.123 0 .186.062.186.185v4.901c0 .155.039.273.115.355.15.146.43.219.834.219h.902c.246 0 .43-.062.547-.185.123-.118.186-.312.186-.581v-4.341c0-.123.061-.185.184-.185h.656c.123 0 .186.062.186.185V28.4c0 .159.039.278.115.355.146.146.424.219.834.219h.883c.25 0 .439-.062.566-.185.123-.123.186-.316.186-.581V23.5c0-.123.061-.185.184-.185h.656c.123 0 .186.062.186.185v4.71c0 .205.066.374.197.506.174.173.422.26.746.26h.656V30h.002z"/><path d="M345.632 19.89c.123 0 .186.063.186.191v8.135c0 .547-.162.982-.486 1.306-.328.319-.76.479-1.299.479h-1.619v-1.025h1.627a.016.016 0 0 0 .014.007c.254-.005.439-.066.553-.185.123-.128.186-.319.186-.574v-8.142c0-.128.061-.191.184-.191h.654v-.001zm3.467 9.926c0 .123-.061.185-.178.185h-.664c-.123 0-.184-.062-.184-.185v-9.741c0-.123.061-.185.184-.185h.664c.117 0 .178.062.178.185v9.741z"/></g><g fill="#010202"><path d="M234.691 86.745c.087 0 .13.043.13.13v.896c0 .087-.043.13-.13.13h-.766c-.087 0-.13-.043-.13-.13v-.896c0-.087.043-.13.13-.13h.766zm0 5.434c.087 0 .13.043.13.13v.896c0 .087-.043.13-.13.13h-.766c-.087 0-.13-.043-.13-.13v-.896c0-.087.043-.13.13-.13h.766zm17.767 1.155h-.479c-.68 0-1.191-.171-1.538-.513a1.226 1.226 0 0 1-.157-.191c-.42.47-1.021.704-1.805.704h-2.871c-.338 0-.6.128-.786.383-.169.224-.253.504-.253.841s.119.627.355.868c.242.237.531.355.868.355h.834c.128 0 .191.063.191.191v.649c0 .123-.063.185-.191.185h-.834c-.62 0-1.151-.219-1.593-.656a2.181 2.181 0 0 1-.656-1.593c0-.651.193-1.189.581-1.613.392-.424.886-.636 1.483-.636h2.871c.465 0 .807-.109 1.025-.328.219-.214.328-.556.328-1.025v-1.347c0-.61-.217-1.13-.649-1.559a2.125 2.125 0 0 0-1.559-.649c-1.012 0-1.759.347-2.242 1.039l-.191.267a.166.166 0 0 1-.123.082h-.034a.181.181 0 0 1-.103-.034l-.533-.369a.2.2 0 0 1-.075-.123v-.034c0-.041.01-.077.027-.109l.191-.267c.688-.984 1.716-1.477 3.083-1.477a3.11 3.11 0 0 1 2.283.95c.634.629.95 1.39.95 2.283v2.126c0 .155.039.273.116.355.146.146.424.219.834.219h.649v1.026h.003z"/><path d="M257.599 93.334h-.479c-.684 0-1.196-.171-1.538-.513a.117.117 0 0 1-.021-.027.136.136 0 0 1-.027.034.235.235 0 0 1-.021.027c-.319.319-.752.479-1.299.479h-2.099v-1.025h2.126c.246 0 .429-.062.547-.185.123-.118.185-.312.185-.581V86.84c0-.128.062-.191.185-.191h.649c.127 0 .191.063.191.191v4.895c0 .159.039.278.116.355.146.146.424.219.834.219h.649v1.025h.002zm-3.35 1.333c.127 0 .191.063.191.191v.82c0 .123-.064.185-.191.185h-.69c-.123 0-.185-.062-.185-.185v-.82c0-.128.062-.191.185-.191h.69zm1.866 0c.128 0 .191.063.191.191v.82c0 .123-.063.185-.191.185h-.684c-.128 0-.191-.062-.191-.185v-.82c0-.128.063-.191.191-.191h.684z"/><path d="M267.155 93.334h-.485c-.679 0-1.192-.171-1.538-.513a2.036 2.036 0 0 1-.15-.191c-.42.47-1.023.704-1.812.704h-5.913v-1.025h5.913c.47 0 .813-.109 1.032-.328.215-.214.321-.556.321-1.025v-1.347c0-.61-.214-1.13-.643-1.559a2.132 2.132 0 0 0-1.565-.649c-1.002 0-1.75.349-2.242 1.046l-.191.267c-.041.06-.089.089-.144.089a.193.193 0 0 1-.116-.048l-.533-.376a.195.195 0 0 1-.075-.123v-.034c0-.036.009-.07.027-.103l.191-.267c.711-.984 1.739-1.477 3.083-1.477.893 0 1.654.316 2.283.95a3.1 3.1 0 0 1 .95 2.283v2.126c0 .159.041.278.123.355.146.146.421.219.827.219h.656l.001 1.026z"/><path d="M278.106 93.334h-.472c-.606 0-1.097-.185-1.47-.554a2.879 2.879 0 0 1-.178-.205c-.42.506-1.039.759-1.859.759h-7.314v-1.025h2.201v-5.291c0-.123.064-.185.191-.185h.649c.123 0 .185.062.185.185v1.299c1.385-1.294 2.586-1.941 3.603-1.941.87 0 1.565.294 2.085.882.52.583.779 1.367.779 2.352v1.935c0 .214.064.383.191.506.174.173.422.26.745.26h.663v1.023h.001zm-2.625-3.725c0-.497-.094-.93-.28-1.299-.306-.606-.825-.909-1.559-.909-.93 0-2.13.768-3.603 2.304v2.604h4.088c.465 0 .807-.109 1.025-.328.219-.214.328-.556.328-1.025l.001-1.347z"/><path d="M280.984 83.224c.123 0 .185.063.185.191v8.135c0 .547-.162.982-.485 1.306-.328.319-.761.479-1.299.479h-1.62V92.31h1.627c.004.005.01.007.014.007.256-.005.439-.066.554-.185.123-.128.185-.319.185-.574v-8.142c0-.128.062-.191.185-.191h.654v-.001zm3.466 9.926c0 .123-.059.185-.178.185h-.663c-.123 0-.185-.062-.185-.185v-9.741c0-.123.062-.185.185-.185h.663c.119 0 .178.062.178.185v9.741zm14.766-6.399c.127 0 .191.062.191.185v4.607c0 .542-.164.979-.492 1.312-.324.319-.756.479-1.299.479h-4.895a2.893 2.893 0 0 1-2.133-.889 2.94 2.94 0 0 1-.889-2.146c0-.579.152-1.119.458-1.62.31-.501.72-.884 1.23-1.148l.294-.15a.204.204 0 0 1 .075-.014c.022 0 .046.002.068.007.05.014.085.046.103.096l.301.581a.19.19 0 0 1 .034.103c0 .06-.038.109-.116.15l-.287.144c-.346.173-.622.429-.827.766s-.308.699-.308 1.087c0 .556.195 1.03.588 1.422.393.388.861.581 1.408.581h4.942c.228 0 .403-.06.526-.178.123-.123.185-.316.185-.581v-4.607c0-.123.062-.185.185-.185h.658v-.002zm-3.835 7.821c.123 0 .185.063.185.191v.752c0 .123-.062.185-.185.185h-.69c-.127 0-.191-.062-.191-.185v-.752c0-.128.064-.191.191-.191h.69zm7.307-1.422c0 .123-.059.185-.178.185h-.663c-.123 0-.185-.062-.185-.185v-9.741c0-.123.062-.185.185-.185h.663c.119 0 .178.062.178.185v9.741zm10.083-.841v1.025h-2.119v.164c0 .743-.273 1.388-.82 1.935-.542.547-1.187.82-1.935.82h-1.456c-.118 0-.178-.062-.178-.185v-.656c0-.123.06-.185.178-.185h1.456c.469 0 .875-.171 1.217-.513.342-.347.513-.752.513-1.217v-.164h-1.928a2.865 2.865 0 0 1-2.092-.861 2.85 2.85 0 0 1-.868-2.092v-1.053c0-.815.289-1.511.868-2.085a2.85 2.85 0 0 1 2.092-.868 2.84 2.84 0 0 1 2.085.868c.578.574.868 1.27.868 2.085v2.98h2.119v.002zm-3.144-2.98c0-.533-.188-.986-.567-1.36a1.858 1.858 0 0 0-1.36-.567c-.533 0-.989.189-1.367.567a1.842 1.842 0 0 0-.567 1.36v1.053c0 .528.189.982.567 1.36s.834.567 1.367.567h1.928v-2.98h-.001z"/><path d="M322.185 93.334h-.479c-.684 0-1.199-.173-1.545-.52a1.645 1.645 0 0 1-.15-.185c-.42.47-1.023.704-1.812.704h-5.906v-1.025h5.906c.47-.005.813-.111 1.032-.321.219-.224.328-.567.328-1.032v-1.347c0-.61-.217-1.13-.649-1.559a2.132 2.132 0 0 0-1.565-.649c-.994 0-1.74.349-2.242 1.046l-.191.267c-.041.06-.089.089-.144.089a.193.193 0 0 1-.116-.048l-.533-.376a.195.195 0 0 1-.075-.123v-.034c0-.036.011-.073.034-.109l.191-.267c.701-.979 1.727-1.47 3.076-1.47.893 0 1.656.314 2.29.943.634.634.95 1.396.95 2.29v2.126c0 .164.041.285.123.362.137.137.41.207.82.212h.656v1.026h.001zm-5.264 1.238c.123 0 .185.063.185.191v.82c0 .123-.062.185-.185.185h-.69c-.128 0-.191-.062-.191-.185v-.82c0-.128.063-.191.191-.191h.69z"/><path d="M325.062 83.224c.123 0 .185.063.185.191v8.135c0 .547-.162.982-.485 1.306-.328.319-.761.479-1.299.479h-1.62V92.31h1.627c.004.005.01.007.014.007.256-.005.439-.066.554-.185.123-.128.185-.319.185-.574v-8.142c0-.128.062-.191.185-.191h.654v-.001zm3.466 9.926c0 .123-.059.185-.178.185h-.663c-.123 0-.185-.062-.185-.185v-9.741c0-.123.062-.185.185-.185h.663c.119 0 .178.062.178.185v9.741zm9.571.184h-2.14v.533c0 .747-.212 1.331-.636 1.75-.424.424-1.008.636-1.75.636h-.704c-.123 0-.185-.062-.185-.185v-.656c0-.123.062-.185.185-.185h.704c.469 0 .811-.109 1.025-.328.219-.219.328-.562.328-1.032v-7.021c0-.128.064-.191.191-.191h.656c.123 0 .185.063.185.191v5.462h2.14l.001 1.026z"/><path d="M343.205 93.334h-.479c-.688 0-1.203-.171-1.545-.513 0-.005-.003-.009-.007-.014s-.007-.009-.007-.014l-.062.062h.007c-.319.319-.749.479-1.292.479h-2.406v-1.025h2.427c.246 0 .429-.062.547-.185.128-.123.191-.316.191-.581V86.84c0-.128.06-.191.178-.191h.656c.123 0 .185.063.185.191v4.895c0 .159.041.278.123.355.141.146.417.219.827.219h.656v1.025h.001zm-3.397-8.346c-.127 0-.191-.062-.191-.185v-.827c0-.123.064-.185.191-.185h.697c.123 0 .185.062.185.185v.827c0 .123-.062.185-.185.185h-.697zm1.866 0c-.123 0-.185-.062-.185-.185v-.827c0-.123.062-.185.185-.185h.684c.128 0 .191.062.191.185v.827c0 .123-.063.185-.191.185h-.684z"/><path d="M347.922 86.369c.894 0 1.654.316 2.283.95.634.634.95 1.396.95 2.29v1.34c0 .747-.21 1.331-.629 1.75-.419.424-1.002.636-1.75.636h-5.913V92.31h5.913c.469 0 .813-.109 1.032-.328s.328-.562.328-1.032v-1.34c0-.606-.216-1.126-.649-1.559s-.955-.649-1.565-.649c-1.003 0-1.75.349-2.242 1.046l-.191.26c-.022.046-.063.073-.123.082h-.027a.208.208 0 0 1-.103-.034l-.533-.376a.171.171 0 0 1-.082-.123v-.034c0-.036.012-.07.034-.103l.185-.267c.696-.99 1.723-1.484 3.082-1.484zm-.54-1.381c-.123 0-.185-.062-.185-.185v-.827c0-.123.062-.185.185-.185h.69c.123 0 .185.062.185.185v.827c0 .123-.062.185-.185.185h-.69z"/></g><g fill="#010202"><path d="M222.721 127.335v-5.925c0-.127.056-.196.183-.196h.645c.125 0 .195.069.195.196v5.477h2.115v1.022h-2.171c-.14.7-.477 1.289-1.036 1.751a2.932 2.932 0 0 1-1.947.715c-.841 0-1.555-.309-2.144-.896a2.917 2.917 0 0 1-.882-2.144v-3.306c0-.126.055-.183.182-.183h.658c.126 0 .182.057.182.183v3.306c0 1.106.911 2.017 2.004 2.017 1.091 0 2.016-.924 2.016-2.017zm-2.732-6.752v-.826c0-.126.057-.183.182-.183h.688c.125 0 .195.057.195.183v.826c0 .126-.07.183-.195.183h-.688c-.125 0-.182-.057-.182-.183z"/><path d="M228.165 126.117v-4.706c0-.127.07-.196.196-.196h.645c.126 0 .196.069.196.196v4.902c0 .154.027.266.111.35.141.141.42.225.826.225h.659v1.022h-.477c-.687 0-1.204-.182-1.54-.519-.015-.014-.029-.014-.029-.027 0 .014-.027.056-.041.069-.322.322-.757.477-1.303.477h-2.102v-1.022h2.129c.505-.001.73-.253.73-.771zm-.532 3.319v.812c0 .127-.056.196-.183.196h-.699c-.127 0-.183-.069-.183-.196v-.812c0-.126.056-.195.183-.195h.699c.127 0 .183.069.183.195zm1.877 0v.812c0 .127-.069.196-.196.196h-.686c-.127 0-.197-.069-.197-.196v-.812c0-.126.07-.195.197-.195h.686c.126 0 .196.069.196.195z"/><path d="M233.61 126.117v-4.706c0-.127.07-.196.183-.196h.659c.125 0 .182.069.182.196v4.902c0 .154.042.266.126.35.14.141.421.225.826.225h.659v1.022h-.477c-.687 0-1.219-.182-1.555-.519 0-.014-.015-.014-.015-.027l-.056.069c-.322.322-.742.477-1.289.477h-2.409v-1.022h2.438c.506-.001.728-.267.728-.771zm-.965-6.738v-.827c0-.126.069-.195.196-.195h.7c.126 0 .183.069.183.195v.827c0 .126-.057.182-.183.182h-.7c-.127 0-.196-.056-.196-.182zm1.876 0v-.827c0-.126.056-.195.183-.195h.686c.127 0 .196.069.196.195v.827c0 .126-.069.182-.196.182h-.686c-.127 0-.183-.056-.183-.182z"/><path d="M246.243 127.91h-10.352v-1.022h3.039a2.847 2.847 0 0 1-.729-1.934v-1.05c0-.812.295-1.513.869-2.088.574-.574 1.288-.868 2.101-.868s1.513.294 2.087.868a2.86 2.86 0 0 1 .869 2.088v2.983h2.115l.001 1.023zm-7.004-4.006v1.05c0 1.051.883 1.934 1.933 1.934h1.919v-2.983a1.935 1.935 0 0 0-1.919-1.934 1.955 1.955 0 0 0-1.933 1.933zm1.219-4.525v-.827c0-.126.07-.195.195-.195h.688c.125 0 .195.069.195.195v.827c0 .126-.07.182-.195.182h-.688c-.125 0-.195-.056-.195-.182z"/><path d="M251.126 118.329h1.162c.127 0 .183.07.183.182v.658c0 .127-.056.196-.183.196h-1.162c-1.457 0-2.27.757-2.424 2.27h2.605c.896 0 1.64.294 2.229.896.588.603.882 1.358.882 2.27v1.513c0 .168.042.28.126.35.141.141.406.225.826.225h.729v1.022h-.561c-.686 0-1.189-.182-1.526-.519l-.028-.027c-.308.35-.756.546-1.344.546h-6.879v-1.022h6.864c.519 0 .771-.238.771-.771V124.8c0-1.261-.826-2.144-2.088-2.144h-3.137a.517.517 0 0 1-.519-.519c0-2.296 1.233-3.808 3.474-3.808z"/><path d="M258.054 126.13v-8.138c0-.126.057-.196.183-.196h.658c.126 0 .183.07.183.196v8.138c0 1.093-.701 1.779-1.779 1.779h-1.625v-1.022h1.639c.517-.013.741-.252.741-.757zm4.131 1.78h-.673c-.126 0-.183-.056-.183-.182v-9.75c0-.126.057-.182.183-.182h.673c.111 0 .168.056.168.182v9.75c0 .126-.057.182-.168.182zm10.291.168v-.168h-1.919c-.812 0-1.513-.294-2.087-.868s-.869-1.275-.869-2.088v-1.05c0-.812.295-1.513.869-2.088.574-.574 1.274-.868 2.087-.868s1.513.294 2.087.868a2.86 2.86 0 0 1 .869 2.088v4.174c0 .742-.267 1.387-.812 1.934a2.67 2.67 0 0 1-1.947.812h-1.457c-.126 0-.182-.056-.182-.182v-.658c0-.126.056-.183.182-.183h1.457c.923-.001 1.722-.799 1.722-1.723zm-1.919-1.191h1.919v-2.983c0-1.051-.869-1.934-1.919-1.934a1.946 1.946 0 0 0-1.933 1.934v1.05c0 1.05.882 1.933 1.933 1.933zm7.77-4.917c-.604 0-1.051.099-1.346.309l-.266.196c-.043.027-.07.027-.112.027h-.028c-.056-.014-.084-.027-.111-.069l-.393-.532a.264.264 0 0 1-.027-.112v-.028c0-.056.027-.098.069-.126l.267-.182c.476-.337 1.12-.519 1.947-.519.699 0 1.288.266 1.778.756s.742 1.079.742 1.779v2.241c0 1.484-.882 2.199-2.396 2.199h-2.997c-.126 0-.183-.056-.183-.182v-.659c0-.126.057-.182.183-.182h2.997c.953 0 1.359-.267 1.359-1.177v-2.241a1.495 1.495 0 0 0-1.483-1.498zm-.631-2.591v-.771c0-.126.056-.183.182-.183h.687c.126 0 .183.057.183.183v.771c0 .126-.057.182-.183.182h-.687c-.126 0-.182-.056-.182-.182zm13.427 7.956v-5.925c0-.127.056-.196.183-.196h.645c.125 0 .195.069.195.196v5.925c0 .841-.309 1.568-.896 2.157-.588.588-1.289.883-2.129.883s-1.568-.295-2.157-.883c-.589-.589-.882-1.316-.882-2.157v-3.292c0-.126.055-.196.182-.196h.658c.126 0 .182.07.182.196v3.292c0 1.106.911 2.017 2.018 2.017 1.09 0 2.001-.91 2.001-2.017zm-2.731-6.752v-.756c0-.126.057-.183.182-.183h.701c.126 0 .182.057.182.183v.756c0 .126-.056.183-.182.183h-.701c-.126 0-.182-.057-.182-.183zm6.859 7.327h-.672c-.127 0-.183-.056-.183-.182v-9.75c0-.126.056-.182.183-.182h.672c.111 0 .168.056.168.182v9.75c0 .126-.057.182-.168.182zm3.094.532v-7.018c0-.126.057-.196.183-.196h.658c.126 0 .196.07.196.196v5.463h2.143v1.022h-2.143v.532c0 1.484-.91 2.381-2.396 2.381h-.7c-.126 0-.182-.056-.182-.182v-.658c0-.126.056-.183.182-.183h.7c.939.001 1.359-.419 1.359-1.357zm0-9.063v-.827c0-.126.057-.195.183-.195h.687c.126 0 .195.069.195.195v.827c0 .126-.069.182-.195.182h-.687c-.127 0-.183-.056-.183-.182z"/><path d="M303.679 126.117v-4.706c0-.127.07-.196.197-.196h.645c.125 0 .195.069.195.196v4.902c0 .154.028.266.112.35.14.141.42.225.826.225h.659v1.022h-.477c-.687 0-1.205-.182-1.541-.519-.014-.014-.028-.014-.028-.027 0 .014-.028.056-.042.069-.322.322-.756.477-1.303.477h-2.102v-1.022h2.13c.505-.001.729-.253.729-.771zm-.532 3.319v.812c0 .127-.057.196-.183.196h-.7c-.126 0-.182-.069-.182-.196v-.812c0-.126.056-.195.182-.195h.7c.127 0 .183.069.183.195zm1.877 0v.812c0 .127-.07.196-.196.196h-.687c-.126 0-.196-.069-.196-.196v-.812c0-.126.07-.195.196-.195h.687c.126 0 .196.069.196.195z"/><path d="M314.868 126.887h1.051v1.022h-.854c-.729 0-1.331-.294-1.681-.812a2.86 2.86 0 0 1-2.031.812h-5.393v-1.022h2.438v-2.983c0-.812.293-1.527.867-2.102.575-.574 1.275-.868 2.088-.868s1.513.294 2.087.868.868 1.289.868 2.102v1.05c0 .49-.111.939-.336 1.373.097.378.434.56.896.56zm-5.449-2.983v2.983h1.934a1.938 1.938 0 0 0 1.934-1.934v-1.05c0-1.064-.869-1.934-1.934-1.934s-1.934.884-1.934 1.935z"/><path d="M317.944 126.13v-8.138c0-.126.057-.196.183-.196h.658c.126 0 .183.07.183.196v8.138c0 1.093-.701 1.779-1.779 1.779h-1.625v-1.022h1.639c.518-.013.741-.252.741-.757zm4.131 1.78h-.673c-.126 0-.183-.056-.183-.182v-9.75c0-.126.057-.182.183-.182h.673c.111 0 .168.056.168.182v9.75c0 .126-.056.182-.168.182zm-150.468 28.425v-5.925c0-.127.056-.196.182-.196h.645c.126 0 .196.069.196.196v5.477h2.115v1.022h-2.171a2.95 2.95 0 0 1-1.037 1.751 2.932 2.932 0 0 1-1.947.715c-.84 0-1.555-.309-2.143-.896a2.92 2.92 0 0 1-.882-2.144v-3.306c0-.126.056-.183.182-.183h.658c.126 0 .182.057.182.183v3.306c0 1.106.911 2.017 2.003 2.017 1.093 0 2.017-.924 2.017-2.017zm-2.731-6.752v-.826c0-.126.056-.183.182-.183h.687c.126 0 .196.057.196.183v.826c0 .126-.07.183-.196.183h-.687c-.126 0-.182-.057-.182-.183z"/><path d="M177.052 155.117v-4.706c0-.127.07-.196.196-.196h.645c.126 0 .196.069.196.196v4.902c0 .154.028.266.112.35.14.141.42.225.826.225h.659v1.022h-.477c-.686 0-1.205-.182-1.541-.519-.014-.014-.028-.014-.028-.027 0 .014-.028.056-.042.069-.322.322-.756.477-1.303.477h-2.101v-1.022h2.129c.505-.001.729-.253.729-.771zm-.532 3.319v.812c0 .127-.056.196-.182.196h-.7c-.126 0-.182-.069-.182-.196v-.812c0-.126.056-.195.182-.195h.7c.125 0 .182.069.182.195zm1.876 0v.812c0 .127-.07.196-.196.196h-.687c-.126 0-.196-.069-.196-.196v-.812c0-.126.07-.195.196-.195h.687c.127 0 .196.069.196.195z"/><path d="M182.498 155.117v-4.706c0-.127.07-.196.182-.196h.659c.126 0 .182.069.182.196v4.902c0 .154.042.266.126.35.14.141.42.225.826.225h.659v1.022h-.477c-.686 0-1.218-.182-1.555-.519 0-.014-.014-.014-.014-.027l-.056.069c-.322.322-.743.477-1.289.477h-2.409v-1.022h2.438c.504-.001.728-.267.728-.771zm-.967-6.738v-.827c0-.126.07-.195.196-.195h.7c.126 0 .182.069.182.195v.827c0 .126-.056.182-.182.182h-.7c-.126 0-.196-.056-.196-.182zm1.877 0v-.827c0-.126.056-.195.182-.195h.687c.126 0 .196.069.196.195v.827c0 .126-.07.182-.196.182h-.687c-.126 0-.182-.056-.182-.182z"/><path d="M195.129 156.91h-10.352v-1.022h3.04a2.846 2.846 0 0 1-.728-1.934v-1.05c0-.812.294-1.513.868-2.088.574-.574 1.289-.868 2.101-.868s1.513.294 2.087.868a2.86 2.86 0 0 1 .868 2.088v2.983h2.115v1.023h.001zm-7.004-4.006v1.05c0 1.051.883 1.934 1.933 1.934h1.919v-2.983a1.936 1.936 0 0 0-1.919-1.934 1.955 1.955 0 0 0-1.933 1.933zm1.219-4.525v-.827c0-.126.07-.195.196-.195h.687c.126 0 .196.069.196.195v.827c0 .126-.07.182-.196.182h-.687c-.125 0-.196-.056-.196-.182z"/><path d="M200.013 147.329h1.163c.126 0 .182.07.182.182v.658c0 .127-.056.196-.182.196h-1.163c-1.457 0-2.269.757-2.423 2.27h2.605c.896 0 1.639.294 2.228.896s.882 1.358.882 2.27v1.513c0 .168.042.28.126.35.14.141.406.225.827.225h.729v1.022h-.561c-.687 0-1.19-.182-1.527-.519l-.028-.027c-.308.35-.756.546-1.345.546h-6.878v-1.022h6.864c.518 0 .771-.238.771-.771V153.8c0-1.261-.827-2.144-2.087-2.144h-3.138a.517.517 0 0 1-.518-.519c-.001-2.296 1.231-3.808 3.473-3.808z"/><path d="M206.941 155.13v-8.138c0-.126.056-.196.182-.196h.658c.126 0 .182.07.182.196v8.138c0 1.093-.7 1.779-1.779 1.779h-1.625v-1.022h1.639c.519-.013.743-.252.743-.757zm4.13 1.78h-.673c-.126 0-.183-.056-.183-.182v-9.75c0-.126.057-.182.183-.182h.673c.111 0 .168.056.168.182v9.75c0 .126-.056.182-.168.182zm10.291.168v-.168h-1.919c-.812 0-1.513-.294-2.087-.868s-.869-1.275-.869-2.088v-1.05c0-.812.295-1.513.869-2.088.574-.574 1.274-.868 2.087-.868s1.513.294 2.087.868a2.86 2.86 0 0 1 .869 2.088v4.174c0 .742-.267 1.387-.812 1.934a2.67 2.67 0 0 1-1.947.812h-1.457c-.126 0-.182-.056-.182-.182v-.658c0-.126.056-.183.182-.183h1.457c.923-.001 1.722-.799 1.722-1.723zm-1.919-1.191h1.919v-2.983c0-1.051-.869-1.934-1.919-1.934a1.946 1.946 0 0 0-1.933 1.934v1.05a1.957 1.957 0 0 0 1.933 1.933zm7.771-4.917c-.604 0-1.051.099-1.346.309l-.266.196c-.043.027-.07.027-.112.027h-.028c-.056-.014-.084-.027-.111-.069l-.393-.532a.264.264 0 0 1-.027-.112v-.028c0-.056.027-.098.069-.126l.267-.182c.476-.337 1.12-.519 1.947-.519.699 0 1.288.266 1.778.756s.742 1.079.742 1.779v2.241c0 1.484-.882 2.199-2.396 2.199h-2.997c-.126 0-.183-.056-.183-.182v-.659c0-.126.057-.182.183-.182h2.997c.953 0 1.359-.267 1.359-1.177v-2.241a1.497 1.497 0 0 0-1.483-1.498zm-.631-2.591v-.771c0-.126.056-.183.182-.183h.687c.126 0 .183.057.183.183v.771c0 .126-.057.182-.183.182h-.687c-.126 0-.182-.056-.182-.182zm20.641 6.738v-4.706c0-.127.07-.196.196-.196h.644c.113 0 .183.069.183.196v4.706c0 1.093-.687 1.793-1.778 1.793h-.701c-.686 0-1.204-.168-1.555-.519l-.014-.027-.028.056c-.336.322-.771.49-1.316.49h-1.877c-.14.7-.477 1.274-1.036 1.751a2.897 2.897 0 0 1-1.934.715c-.84 0-1.568-.309-2.157-.896a2.917 2.917 0 0 1-.882-2.144v-3.306c0-.126.055-.183.182-.183h.645c.125 0 .195.057.195.183v3.306c0 .546.211 1.036.603 1.429.393.393.868.588 1.415.588s1.022-.195 1.414-.588c.393-.393.589-.883.589-1.429v-5.925c0-.127.056-.196.183-.196h.645c.125 0 .182.069.182.196v5.463h1.835c.532 0 .771-.238.771-.757v-4.343c0-.126.056-.182.182-.182h.645c.126 0 .196.056.196.182v4.524c0 .154.042.28.126.364.126.141.406.211.826.211h.869c.527.001.752-.238.752-.756zm5.02.77h.687v1.022h-.658c-1.093 0-1.779-.687-1.779-1.779v-8.138c0-.126.057-.196.182-.196h.658c.127 0 .183.07.183.196v8.138c-.001.519.222.757.727.757z"/><path d="M264.304 155.887h.658v1.022h-.477c-.617 0-1.093-.196-1.471-.561-.014-.014-.043-.027-.043-.042a.484.484 0 0 1-.098.126c-.322.322-.742.477-1.289.477h-.714c-.687 0-1.19-.182-1.54-.519v-.014l-.015-.014a.324.324 0 0 0-.056.069c-.322.322-.757.477-1.303.477h-.701c-.7 0-1.204-.182-1.555-.532v-.014a.298.298 0 0 1-.056.069c-.322.322-.743.477-1.289.477h-1.778v-1.022h1.807c.504 0 .729-.252.729-.771v-4.706c0-.127.056-.196.182-.196h.658c.127 0 .183.069.183.196v4.902c0 .154.028.266.112.35.154.141.434.225.84.225h.896c.504 0 .742-.252.742-.771v-4.343c0-.126.057-.182.183-.182h.658c.126 0 .183.056.183.182v4.539c0 .154.027.266.111.35.141.141.435.225.841.225h.882c.52 0 .757-.252.757-.771v-4.706c0-.127.056-.196.183-.196h.658c.126 0 .182.069.182.196v4.706c0 .52.42.772.94.772z"/><path d="M271.874 154.529v-1.345a2.09 2.09 0 0 0-.645-1.556c-.434-.434-.938-.658-1.555-.658-1.008 0-1.765.351-2.255 1.051l-.183.267a.192.192 0 0 1-.153.084c-.042 0-.07-.015-.112-.042l-.532-.379c-.042-.027-.056-.069-.069-.126v-.027c0-.043.014-.085.027-.112l.182-.267c.715-.98 1.752-1.471 3.096-1.471.896 0 1.653.322 2.283.953.631.63.953 1.387.953 2.283v2.129c0 .154.027.266.111.35.141.141.421.225.827.225h.658v1.022h-.476c-.799 0-1.359-.224-1.695-.7-.42.477-1.023.7-1.807.7h-5.926v-1.022h5.926c.939-.001 1.345-.421 1.345-1.359z"/><path d="M276.534 155.13v-8.138c0-.126.056-.196.182-.196h.658c.126 0 .182.07.182.196v8.138c0 1.093-.699 1.779-1.778 1.779h-1.625v-1.022h1.64c.517-.013.741-.252.741-.757zm4.129 1.78h-.672c-.126 0-.182-.056-.182-.182v-9.75c0-.126.056-.182.182-.182h.672c.113 0 .168.056.168.182v9.75c0 .126-.055.182-.168.182zm10.46-.575v-5.925c0-.127.056-.196.183-.196h.645c.125 0 .195.069.195.196v5.925c0 .841-.309 1.568-.896 2.157-.588.588-1.289.883-2.129.883s-1.568-.295-2.157-.883c-.589-.589-.882-1.316-.882-2.157v-3.292c0-.126.055-.196.182-.196h.658c.126 0 .182.07.182.196v3.292c0 1.106.911 2.017 2.018 2.017 1.09 0 2.001-.91 2.001-2.017zm-2.731-6.752v-.756c0-.126.057-.183.182-.183h.701c.126 0 .182.057.182.183v.756c0 .126-.056.183-.182.183h-.701c-.126 0-.182-.057-.182-.183zm6.859 7.327h-.672c-.127 0-.183-.056-.183-.182v-9.75c0-.126.056-.182.183-.182h.672c.111 0 .168.056.168.182v9.75c0 .126-.057.182-.168.182zm3.094.532v-7.018c0-.126.057-.196.182-.196h.658c.127 0 .197.07.197.196v5.463h2.143v1.022h-2.143v.532c0 1.484-.911 2.381-2.396 2.381h-.699c-.127 0-.183-.056-.183-.182v-.658c0-.126.056-.183.183-.183h.699c.939.001 1.359-.419 1.359-1.357zm0-9.063v-.827c0-.126.057-.195.182-.195h.688c.125 0 .195.069.195.195v.827c0 .126-.07.182-.195.182h-.688c-.126 0-.182-.056-.182-.182z"/><path d="M303.679 155.117v-4.706c0-.127.07-.196.197-.196h.645c.125 0 .195.069.195.196v4.902c0 .154.028.266.112.35.14.141.42.225.826.225h.659v1.022h-.477c-.687 0-1.205-.182-1.541-.519-.014-.014-.028-.014-.028-.027 0 .014-.028.056-.042.069-.322.322-.756.477-1.303.477h-2.102v-1.022h2.13c.505-.001.729-.253.729-.771zm-.532 3.319v.812c0 .127-.057.196-.183.196h-.7c-.126 0-.182-.069-.182-.196v-.812c0-.126.056-.195.182-.195h.7c.127 0 .183.069.183.195zm1.877 0v.812c0 .127-.07.196-.196.196h-.687c-.126 0-.196-.069-.196-.196v-.812c0-.126.07-.195.196-.195h.687c.126 0 .196.069.196.195z"/><path d="M314.868 155.887h1.051v1.022h-.854c-.729 0-1.331-.294-1.681-.812a2.86 2.86 0 0 1-2.031.812h-5.393v-1.022h2.438v-2.983c0-.812.293-1.527.867-2.102.575-.574 1.275-.868 2.088-.868s1.513.294 2.087.868.868 1.289.868 2.102v1.05c0 .49-.111.939-.336 1.373.097.378.434.56.896.56zm-5.449-2.983v2.983h1.934a1.938 1.938 0 0 0 1.934-1.934v-1.05c0-1.064-.869-1.934-1.934-1.934s-1.934.884-1.934 1.935z"/><path d="M317.944 155.13v-8.138c0-.126.057-.196.183-.196h.658c.126 0 .183.07.183.196v8.138c0 1.093-.701 1.779-1.779 1.779h-1.625v-1.022h1.639c.518-.013.741-.252.741-.757zm4.13 1.78h-.673c-.125 0-.182-.056-.182-.182v-9.75c0-.126.057-.182.182-.182h.673c.112 0 .168.056.168.182v9.75c0 .126-.055.182-.168.182zm-84.36 28.425v-5.925c0-.127.056-.196.182-.196h.645c.126 0 .195.069.195.196v5.925c0 .841-.308 1.568-.896 2.157a2.887 2.887 0 0 1-2.129.883c-.84 0-1.568-.295-2.156-.883-.589-.589-.883-1.316-.883-2.157v-3.292c0-.126.056-.196.182-.196h.658c.127 0 .183.07.183.196v3.292c0 1.106.911 2.017 2.017 2.017 1.092 0 2.002-.91 2.002-2.017zm-2.733-6.752v-.756c0-.126.057-.183.183-.183h.7c.127 0 .182.057.182.183v.756c0 .126-.055.183-.182.183h-.7c-.126 0-.183-.057-.183-.183zm6.861 7.327h-.673c-.125 0-.182-.056-.182-.182v-9.75c0-.126.057-.182.182-.182h.673c.112 0 .168.056.168.182v9.75c0 .126-.056.182-.168.182zm3.094.532v-7.018c0-.126.069-.196.196-.196h.645c.125 0 .195.07.195.196v5.463h2.129v1.022h-2.129v.532c0 1.484-.91 2.381-2.395 2.381h-.701c-.125 0-.182-.056-.182-.182v-.658c0-.126.057-.183.182-.183h.701c.938.001 1.359-.419 1.359-1.357z"/><path d="M250.27 184.117v-4.706c0-.127.07-.196.196-.196h.645c.126 0 .195.069.195.196v4.902c0 .154.029.266.113.35.14.141.42.225.826.225h.658v1.022h-.477c-.686 0-1.205-.182-1.541-.519-.014-.014-.027-.014-.027-.027 0 .014-.028.056-.043.069-.322.322-.756.477-1.303.477h-2.101v-1.022h2.13c.505-.001.729-.253.729-.771zm-.533 3.319v.812c0 .127-.057.196-.182.196h-.701c-.125 0-.182-.069-.182-.196v-.812c0-.126.057-.195.182-.195h.701c.126 0 .182.069.182.195zm1.877 0v.812c0 .127-.07.196-.195.196h-.688c-.125 0-.195-.069-.195-.196v-.812c0-.126.07-.195.195-.195h.688c.125 0 .195.069.195.195z"/><path d="M259.834 183.529v-1.345c0-.603-.224-1.121-.659-1.556-.434-.434-.938-.658-1.555-.658-1.008 0-1.765.351-2.255 1.051l-.183.252a.199.199 0 0 1-.125.084h-.028c-.028 0-.056 0-.099-.027l-.531-.379a.195.195 0 0 1-.084-.126v-.027c0-.043 0-.085.027-.112l.182-.267c.701-.994 1.737-1.484 3.096-1.484.896 0 1.653.322 2.283.952.631.631.953 1.401.953 2.298v1.345c0 1.484-.896 2.381-2.381 2.381h-5.926v-1.022h5.926c.938-.002 1.359-.422 1.359-1.36zm-2.942-6.15v-.827c0-.126.057-.195.183-.195h.687c.126 0 .182.069.182.195v.827c0 .126-.056.182-.182.182h-.687c-.127 0-.183-.056-.183-.182zm11.412 6.15v-7.536c0-.126.057-.196.182-.196h.673c.112 0 .168.07.168.196v7.536c0 1.484-.896 2.381-2.382 2.381h-4.146c-.126 0-.183-.07-.183-.196v-.645c0-.126.057-.182.183-.182h4.146c.939 0 1.359-.42 1.359-1.358zm-3.264-8.881v.812h1.429c.084 0 .126.042.126.14v.294c0 .084-.042.126-.126.126h-2.396c-.084 0-.111-.042-.111-.126v-.294c0-.098.027-.14.111-.14h.406v-.812c0-.574.463-1.051 1.037-1.051.462 0 .798.21.98.645l.041.126c.015.027.029.042.029.069 0 .042-.029.07-.085.099l-.28.126c-.027.014-.056.014-.07.014-.041 0-.069-.027-.098-.084l-.056-.14c-.084-.196-.238-.294-.462-.294a.483.483 0 0 0-.475.49zm.742 2.451v6.43c0 .126-.057.195-.182.195h-.658c-.127 0-.183-.069-.183-.195v-6.43c0-.126.056-.183.183-.183h.658c.126.001.182.057.182.183zm6.649 8.811h-.672c-.127 0-.183-.056-.183-.182v-9.75c0-.126.056-.182.183-.182h.672c.111 0 .168.056.168.182v9.75c0 .126-.057.182-.168.182zm10.46-.575v-5.925c0-.127.056-.196.183-.196h.645c.125 0 .195.069.195.196v5.925c0 .841-.309 1.568-.896 2.157-.588.588-1.289.883-2.129.883s-1.568-.295-2.157-.883c-.589-.589-.882-1.316-.882-2.157v-3.292c0-.126.055-.196.182-.196h.658c.126 0 .182.07.182.196v3.292c0 1.106.911 2.017 2.018 2.017 1.089 0 2.001-.91 2.001-2.017zm-2.732-6.752v-.756c0-.126.057-.183.182-.183h.701c.126 0 .182.057.182.183v.756c0 .126-.056.183-.182.183h-.701c-.125 0-.182-.057-.182-.183zm7.756 6.304h.687v1.022h-.659c-1.092 0-1.778-.687-1.778-1.779v-8.138c0-.126.056-.196.183-.196h.658c.125 0 .182.07.182.196v8.138c-.001.519.223.757.727.757z"/><path d="M291.106 184.13v-4.72c0-.127.07-.196.196-.196h.645c.126 0 .196.069.196.196v4.72c0 1.093-.715 1.779-1.793 1.779h-2.102v-1.022h2.129c.505-.013.729-.238.729-.757zm1.051-7.578v.827c0 .126-.07.182-.196.182h-.687c-.126 0-.182-.056-.182-.182v-.827c0-.126.056-.195.182-.195h.687c.126 0 .196.069.196.195zm3.094 9.358h-.673c-.126 0-.183-.056-.183-.182v-9.75c0-.126.057-.182.183-.182h.673c.111 0 .168.056.168.182v9.75c0 .126-.057.182-.168.182zm3.094.532v-7.018c0-.126.056-.196.182-.196h.658c.127 0 .196.07.196.196v5.463h2.144v1.022h-2.144v.532c0 1.484-.911 2.381-2.396 2.381h-.7c-.126 0-.183-.056-.183-.182v-.658c0-.126.057-.183.183-.183h.7c.939.001 1.36-.419 1.36-1.357zm0-9.063v-.827c0-.126.056-.195.182-.195h.687c.126 0 .196.069.196.195v.827c0 .126-.07.182-.196.182h-.687c-.127 0-.182-.056-.182-.182z"/><path d="M303.679 184.117v-4.706c0-.127.07-.196.195-.196h.645c.127 0 .196.069.196.196v4.902c0 .154.028.266.112.35.141.141.42.225.826.225h.658v1.022h-.477c-.686 0-1.204-.182-1.54-.519-.015-.014-.028-.014-.028-.027 0 .014-.027.056-.042.069-.322.322-.757.477-1.303.477h-2.101v-1.022h2.129c.505-.001.73-.253.73-.771zm-.533 3.319v.812c0 .127-.055.196-.182.196h-.7c-.126 0-.183-.069-.183-.196v-.812c0-.126.057-.195.183-.195h.7c.127 0 .182.069.182.195zm1.876 0v.812c0 .127-.069.196-.195.196h-.687c-.126 0-.196-.069-.196-.196v-.812c0-.126.07-.195.196-.195h.687c.126 0 .195.069.195.195z"/><path d="M314.868 184.887h1.051v1.022h-.855c-.729 0-1.33-.294-1.68-.812a2.863 2.863 0 0 1-2.031.812h-5.394v-1.022h2.438v-2.983c0-.812.294-1.527.868-2.102s1.275-.868 2.088-.868 1.512.294 2.086.868.869 1.289.869 2.102v1.05c0 .49-.112.939-.336 1.373.097.378.433.56.896.56zm-5.449-2.983v2.983h1.934a1.937 1.937 0 0 0 1.933-1.934v-1.05c0-1.064-.868-1.934-1.933-1.934s-1.934.884-1.934 1.935z"/><path d="M317.944 184.13v-8.138c0-.126.056-.196.182-.196h.658c.126 0 .182.07.182.196v8.138c0 1.093-.699 1.779-1.778 1.779h-1.625v-1.022h1.64c.517-.013.741-.252.741-.757zm4.129 1.78h-.672c-.126 0-.182-.056-.182-.182v-9.75c0-.126.056-.182.182-.182h.672c.113 0 .168.056.168.182v9.75c0 .126-.054.182-.168.182z"/></g><g fill="#010202"><path d="M93.823 54.808v1.025h-2.119v.164c0 .743-.273 1.388-.82 1.935-.542.547-1.187.82-1.935.82h-1.456c-.119 0-.178-.062-.178-.185v-.656c0-.123.059-.185.178-.185h1.456c.469 0 .875-.171 1.217-.513.342-.347.513-.752.513-1.217v-.164H88.75a2.863 2.863 0 0 1-2.092-.861 2.85 2.85 0 0 1-.868-2.092v-1.053c0-.815.29-1.511.868-2.085a2.85 2.85 0 0 1 2.092-.868c.811 0 1.506.289 2.085.868.579.574.868 1.27.868 2.085v2.98h2.12v.002zm-3.145-2.98c0-.533-.189-.986-.567-1.36a1.856 1.856 0 0 0-1.36-.567c-.533 0-.989.189-1.367.567a1.842 1.842 0 0 0-.567 1.36v1.053c0 .528.189.982.567 1.36s.834.567 1.367.567h1.928l-.001-2.98z"/><path d="M100.324 48.362c.843 0 1.565.301 2.167.902.602.597.902 1.319.902 2.167v1.333c0 .848-.301 1.57-.902 2.167a2.954 2.954 0 0 1-2.167.902h-6.979v-1.025h2.666a2.161 2.161 0 0 1-.355-1.203v-1.148c0-.556.178-1.048.533-1.477a2.245 2.245 0 0 1 1.326-.786c.246-.556.622-1 1.128-1.333a3.008 3.008 0 0 1 1.681-.499zm-1.087 6.446v-2.352c0-.355-.125-.656-.376-.902a1.215 1.215 0 0 0-.902-.376c-.351 0-.652.125-.902.376-.25.246-.376.547-.376.902v1.148c0 .333.119.615.355.848.232.237.515.355.848.355h1.353v.001zm3.131-3.377c0-.561-.201-1.041-.602-1.442s-.882-.602-1.442-.602c-.702 0-1.258.289-1.668.868.474.15.859.424 1.155.82.301.41.451.87.451 1.381v2.352h.062c.565 0 1.046-.2 1.442-.602.401-.396.602-.877.602-1.442v-1.333zm14.382 3.377v1.025h-5.154a2.827 2.827 0 0 1-2.085-.868 2.85 2.85 0 0 1-.868-2.092v-1.046c0-.815.29-1.513.868-2.092.574-.579 1.269-.868 2.085-.868s1.513.289 2.092.868c.574.579.861 1.276.861 2.092v2.98l2.201.001zm-3.219-2.98c0-.533-.189-.989-.567-1.367-.378-.374-.834-.561-1.367-.561s-.987.187-1.36.561a1.864 1.864 0 0 0-.567 1.367v1.046c0 .533.189.989.567 1.367.374.378.827.567 1.36.567h1.935l-.001-2.98zm-3.411-4.341c-.123 0-.185-.062-.185-.185v-.827c0-.123.062-.185.185-.185h.69c.127 0 .191.062.191.185v.827c0 .123-.064.185-.191.185h-.69zm1.866 0c-.123 0-.185-.062-.185-.185v-.827c0-.123.062-.185.185-.185h.69c.127 0 .191.062.191.185v.827c0 .123-.064.185-.191.185h-.69z"/><path d="M121.549 55.833h-.479c-.684 0-1.196-.171-1.538-.513a.153.153 0 0 1-.021-.027.136.136 0 0 1-.027.034.158.158 0 0 1-.021.027c-.319.319-.752.479-1.299.479h-2.099v-1.025h2.126c.246 0 .428-.062.547-.185.123-.118.185-.312.185-.581v-4.703c0-.128.062-.191.185-.191h.649c.127 0 .191.063.191.191v4.895c0 .159.039.278.116.355.146.146.424.219.834.219h.649v1.025h.002zm-3.349 1.334c.127 0 .191.063.191.191v.82c0 .123-.064.185-.191.185h-.69c-.123 0-.185-.062-.185-.185v-.82c0-.128.062-.191.185-.191h.69zm1.866 0c.127 0 .191.063.191.191v.82c0 .123-.064.185-.191.185h-.684c-.127 0-.191-.062-.191-.185v-.82c0-.128.064-.191.191-.191h.684z"/><path d="M126.615 55.833h-.479c-.684 0-1.196-.173-1.538-.52l-.021-.021-.055.055c-.314.323-.745.485-1.292.485h-2.023v-1.025h2.044c.246-.005.431-.063.554-.178.123-.128.185-.321.185-.581v-4.717c0-.123.062-.185.185-.185h.649c.127 0 .191.062.191.185v4.901c0 .164.041.285.123.362.137.137.41.207.82.212h.656v1.027h.001zm-1.771 1.238c.127 0 .191.063.191.191v.82c0 .123-.064.185-.191.185h-.684c-.127 0-.191-.062-.191-.185v-.82c0-.128.064-.191.191-.191h.684z"/><path d="M133.252 48.362c.843 0 1.565.301 2.167.902.602.597.902 1.319.902 2.167v1.333c0 .848-.301 1.57-.902 2.167a2.954 2.954 0 0 1-2.167.902h-6.979v-1.025h2.666a2.161 2.161 0 0 1-.355-1.203v-1.148c0-.556.178-1.048.533-1.477a2.245 2.245 0 0 1 1.326-.786c.246-.556.622-1 1.128-1.333a3.013 3.013 0 0 1 1.681-.499zm-1.086 6.446v-2.352c0-.355-.125-.656-.376-.902a1.215 1.215 0 0 0-.902-.376c-.351 0-.652.125-.902.376-.25.246-.376.547-.376.902v1.148c0 .333.119.615.355.848.232.237.515.355.848.355h1.353v.001zm3.13-3.377c0-.561-.201-1.041-.602-1.442s-.882-.602-1.442-.602c-.702 0-1.258.289-1.668.868.474.15.859.424 1.155.82.301.41.451.87.451 1.381v2.352h.062c.565 0 1.046-.2 1.442-.602.401-.396.602-.877.602-1.442v-1.333zm5.852-2.563c.697 0 1.292.248 1.784.745.492.492.738 1.087.738 1.784v2.235c0 .82-.26 1.415-.779 1.784-.401.278-.937.417-1.606.417h-3.001c-.123 0-.185-.062-.185-.185v-.656c0-.123.062-.185.185-.185h3.001c.533 0 .9-.103 1.101-.308.168-.173.253-.463.253-.868v-2.235c0-.415-.146-.768-.438-1.06s-.643-.438-1.053-.438c-.597 0-1.042.103-1.333.308l-.267.191a.237.237 0 0 1-.123.034h-.021a.152.152 0 0 1-.116-.075l-.383-.533a.206.206 0 0 1-.027-.103v-.034a.168.168 0 0 1 .068-.123l.267-.191c.47-.335 1.115-.504 1.935-.504zm-.444-1.381c-.123 0-.185-.062-.185-.185v-.759c0-.123.062-.185.185-.185h.69c.123 0 .185.062.185.185v.759c0 .123-.062.185-.185.185h-.69zm11.306 1.388a2.85 2.85 0 0 1 2.092.868c.574.574.861 1.27.861 2.085v1.053c0 .812-.287 1.506-.861 2.085-.579.579-1.276.868-2.092.868s-1.511-.289-2.085-.868a2.841 2.841 0 0 1-.868-2.085v-1.053c0-.815.29-1.511.868-2.085a2.829 2.829 0 0 1 2.085-.868zm1.928 2.953c0-.533-.189-.986-.567-1.36-.374-.378-.827-.567-1.36-.567s-.989.189-1.367.567a1.852 1.852 0 0 0-.561 1.36v1.053c0 .528.187.982.561 1.36.378.378.834.567 1.367.567s.987-.189 1.36-.567c.378-.378.567-.832.567-1.36v-1.053zm-3.206-4.341c-.123 0-.185-.062-.185-.185v-.759c0-.123.062-.185.185-.185h.69c.123 0 .185.062.185.185v.759c0 .123-.062.185-.185.185h-.69zm1.866 0c-.123 0-.185-.062-.185-.185v-.759c0-.123.062-.185.185-.185h.69c.123 0 .185.062.185.185v.759c0 .123-.062.185-.185.185h-.69zm7.185 1.381c.697 0 1.294.248 1.791.745.492.492.738 1.087.738 1.784v2.235c0 .82-.262 1.415-.786 1.784-.396.278-.93.417-1.6.417h-3.001c-.123 0-.185-.062-.185-.185v-.656c0-.123.062-.185.185-.185h3.001c.533 0 .902-.103 1.107-.308.168-.173.253-.463.253-.868v-2.235c0-.415-.146-.768-.438-1.06a1.465 1.465 0 0 0-1.066-.438c-.592 0-1.035.103-1.326.308l-.267.191a.201.201 0 0 1-.116.034h-.021a.195.195 0 0 1-.123-.075l-.383-.533a.202.202 0 0 1-.034-.109v-.027a.213.213 0 0 1 .075-.123l.273-.191c.467-.336 1.107-.505 1.923-.505zm12.626 6.965h-.472c-.615 0-1.107-.185-1.477-.554a5.455 5.455 0 0 1-.171-.205c-.428.506-1.05.759-1.866.759h-4.149c-.123 0-.185-.062-.185-.185V55c0-.128.062-.191.185-.191h4.149c.469 0 .811-.109 1.025-.328.219-.214.328-.556.328-1.025v-7.54c0-.123.062-.185.185-.185h.649c.127 0 .191.062.191.185v8.128c0 .205.066.374.198.506.173.173.426.26.759.26h.643l.008 1.023zm-5.339-8.989c.127 0 .191.063.191.191v6.426c0 .123-.064.185-.191.185h-.649c-.127 0-.191-.062-.191-.185v-6.426c0-.128.064-.191.191-.191h.649z"/><path d="M177.153 48.868a2.85 2.85 0 0 1 2.092.868c.574.579.861 1.276.861 2.092v3.493c0 .142-.05.262-.15.362s-.221.15-.362.15h-7.526v-1.025h2.844a2.893 2.893 0 0 1-.711-1.935v-1.046c0-.815.287-1.513.861-2.092a2.85 2.85 0 0 1 2.091-.867zm1.934 2.96c0-.533-.189-.989-.567-1.367-.378-.374-.834-.561-1.367-.561s-.989.187-1.367.561a1.874 1.874 0 0 0-.561 1.367v1.046c0 .533.187.989.561 1.367.378.378.834.567 1.367.567h1.935l-.001-2.98zm-3.254-4.341c-.127 0-.191-.062-.191-.185v-.827c0-.123.064-.185.191-.185h.69c.123 0 .185.062.185.185v.827c0 .123-.062.185-.185.185h-.69zm1.867 0c-.127 0-.191-.062-.191-.185v-.827c0-.123.064-.185.191-.185h.684c.127 0 .191.062.191.185v.827c0 .123-.064.185-.191.185h-.684zm15.763 7.321v1.025h-5.154a2.827 2.827 0 0 1-2.085-.868 2.85 2.85 0 0 1-.868-2.092v-1.046c0-.815.29-1.513.868-2.092.574-.579 1.269-.868 2.085-.868s1.513.289 2.092.868c.574.579.861 1.276.861 2.092v2.98l2.201.001zm-3.219-2.98c0-.533-.189-.989-.567-1.367-.378-.374-.834-.561-1.367-.561s-.987.187-1.36.561a1.864 1.864 0 0 0-.567 1.367v1.046c0 .533.189.989.567 1.367.374.378.827.567 1.36.567h1.935l-.001-2.98zm-3.411-4.341c-.123 0-.185-.062-.185-.185v-.827c0-.123.062-.185.185-.185h.69c.127 0 .191.062.191.185v.827c0 .123-.064.185-.191.185h-.69zm1.866 0c-.123 0-.185-.062-.185-.185v-.827c0-.123.062-.185.185-.185h.69c.127 0 .191.062.191.185v.827c0 .123-.064.185-.191.185h-.69z"/><path d="M197.914 55.833h-.54c-.688 0-1.201-.171-1.538-.513l-.027-.027a.422.422 0 0 1-.048.062c-.314.319-.745.479-1.292.479h-1.688v-1.025h1.709c.246 0 .431-.062.554-.185.119-.118.178-.312.178-.581v-8.128c0-.123.064-.185.191-.185h.649c.127 0 .191.062.191.185v8.319c0 .164.039.282.116.355.141.146.417.219.827.219h.718v1.025z"/><path d="M203.293 55.833h-.479c-.688 0-1.203-.171-1.545-.513 0-.005-.002-.009-.007-.014s-.007-.009-.007-.014l-.062.062h.007c-.319.319-.75.479-1.292.479h-2.406v-1.025h2.427c.246 0 .428-.062.547-.185.127-.123.191-.316.191-.581v-4.703c0-.128.059-.191.178-.191h.656c.123 0 .185.063.185.191v4.895c0 .159.041.278.123.355.141.146.417.219.827.219h.656v1.025h.001zm-3.397-8.346c-.127 0-.191-.062-.191-.185v-.827c0-.123.064-.185.191-.185h.697c.123 0 .185.062.185.185v.827c0 .123-.062.185-.185.185h-.697zm1.866 0c-.123 0-.185-.062-.185-.185v-.827c0-.123.062-.185.185-.185h.684c.127 0 .191.062.191.185v.827c0 .123-.064.185-.191.185h-.684z"/><path d="M208.502 49.558c.898 0 1.641.299 2.229.896.583.597.875 1.354.875 2.27v1.326c0 .547-.162.982-.486 1.306-.323.319-.756.479-1.299.479h-6.87V54.81h6.864c.264 0 .455-.062.574-.185.127-.123.191-.314.191-.574v-1.326c0-.638-.191-1.153-.574-1.545s-.885-.588-1.504-.588h-3.151c-.141 0-.262-.05-.362-.15s-.15-.221-.15-.362c0-1.198.305-2.135.916-2.81.615-.675 1.465-1.012 2.55-1.012h1.162c.123 0 .186.062.186.185v.656c0 .123-.062.185-.186.185h-1.162c-1.458 0-2.263.759-2.413 2.276h2.61v-.002zm12.675 6.275h-2.141v.533c0 .747-.211 1.331-.635 1.75-.424.424-1.008.636-1.75.636h-.705c-.123 0-.184-.062-.184-.185v-.656c0-.123.061-.185.184-.185h.705c.469 0 .811-.109 1.025-.328.219-.219.328-.562.328-1.032v-7.021c0-.128.063-.191.191-.191h.656c.123 0 .184.063.184.191v5.462h2.141l.001 1.026z"/><path d="M220.493 55.833v-1.025h2.18c.256-.005.44-.066.555-.185.123-.123.184-.314.184-.574v-4.717c0-.123.064-.185.191-.185h.65c.127 0 .191.062.191.185v4.717c0 .547-.164.982-.492 1.306-.328.319-.76.479-1.293.479l-2.166-.001zm1.627 1.334c.127 0 .191.063.191.191v.82c0 .123-.064.185-.191.185h-.691c-.123 0-.184-.062-.184-.185v-.82c0-.128.061-.191.184-.191h.691zm1.865 0c.128 0 .191.063.191.191v.82c0 .123-.063.185-.191.185h-.689c-.123 0-.186-.062-.186-.185v-.82c0-.128.062-.191.186-.191h.689zm9.475-1.334h-.471c-.611 0-1.104-.185-1.477-.554a1.9 1.9 0 0 1-.117-.15c-.41.47-1.048.704-1.914.704h-3.008c-.123 0-.184-.062-.184-.185V55c0-.128.061-.191.184-.191h3.008c.533 0 .9-.103 1.102-.308.173-.169.26-.456.26-.861v-2.242c0-.41-.148-.764-.445-1.06a1.454 1.454 0 0 0-1.059-.438c-.593 0-1.037.104-1.334.314l-.266.185a.213.213 0 0 1-.109.034h-.027a.16.16 0 0 1-.123-.075l-.377-.533a.141.141 0 0 1-.041-.103v-.034a.194.194 0 0 1 .082-.123l.26-.185c.475-.337 1.119-.506 1.936-.506.692 0 1.287.246 1.783.738.492.492.738 1.087.738 1.784v2.646c0 .205.066.374.199.506.173.173.424.26.752.26h.648v1.025z"/><path d="M243.468 54.808v1.025h-10.35v-1.025h3.035a2.875 2.875 0 0 1-.725-1.928v-1.053c0-.815.29-1.511.869-2.085a2.847 2.847 0 0 1 2.092-.868c.815 0 1.513.289 2.092.868.578.574.867 1.27.867 2.085v2.98h2.12v.001zm-7.006-1.928c0 .528.188.982.566 1.36.379.378.832.567 1.361.567h1.928v-2.98c0-.533-.189-.986-.568-1.36a1.838 1.838 0 0 0-1.359-.567c-.529 0-.982.189-1.361.567a1.855 1.855 0 0 0-.566 1.36v1.053h-.001zm.601-5.393c-.123 0-.186-.062-.186-.185v-.827c0-.123.062-.185.186-.185h.689c.128 0 .191.062.191.185v.827c0 .123-.063.185-.191.185h-.689zm1.874 0c-.128 0-.191-.062-.191-.185v-.827c0-.123.063-.185.191-.185h.684c.127 0 .191.062.191.185v.827c0 .123-.064.185-.191.185h-.684z"/><path d="M248.78 55.833h-.479c-.688 0-1.203-.171-1.545-.513 0-.005-.003-.009-.008-.014-.004-.005-.006-.009-.006-.014l-.062.062h.008c-.319.319-.75.479-1.293.479h-2.406v-1.025h2.428c.246 0 .428-.062.547-.185.127-.123.191-.316.191-.581v-4.703c0-.128.059-.191.178-.191h.656c.123 0 .184.063.184.191v4.895c0 .159.041.278.123.355.142.146.418.219.828.219h.656v1.025zm-3.398-8.346c-.127 0-.191-.062-.191-.185v-.827c0-.123.064-.185.191-.185h.697c.123 0 .186.062.186.185v.827c0 .123-.062.185-.186.185h-.697zm1.867 0c-.123 0-.186-.062-.186-.185v-.827c0-.123.062-.185.186-.185h.684c.127 0 .191.062.191.185v.827c0 .123-.064.185-.191.185h-.684z"/><path d="M251.657 45.723c.123 0 .186.063.186.191v8.135c0 .547-.162.982-.486 1.306-.328.319-.761.479-1.299.479h-1.619v-1.025h1.627a.017.017 0 0 0 .014.007c.255-.005.439-.066.553-.185.123-.128.186-.319.186-.574v-8.142c0-.128.061-.191.184-.191l.654-.001zm16.748 10.11h-.484c-.684 0-1.197-.173-1.539-.52l-.02-.021a.324.324 0 0 0-.041.055c-.324.323-.76.485-1.307.485h-4.895a2.906 2.906 0 0 1-2.133-.882c-.596-.602-.895-1.319-.895-2.153 0-.579.154-1.119.465-1.62a2.999 2.999 0 0 1 1.23-1.142l.287-.15a.197.197 0 0 1 .143-.014c.055.019.092.048.109.089l.301.588c.02.036.027.07.027.103 0 .06-.035.109-.109.15l-.293.144a2.123 2.123 0 0 0-.828.772 2.02 2.02 0 0 0-.307 1.08c0 .552.195 1.025.588 1.422.396.388.869.581 1.422.581h4.887c.256 0 .447-.06.574-.178.123-.123.186-.316.186-.581v-4.71c0-.123.061-.185.184-.185h.65c.127 0 .191.062.191.185v4.895c0 .169.041.289.123.362.137.142.412.214.826.219h.656v1.026h.002zm-5.633 1.238c.129 0 .191.063.191.191v.82c0 .123-.062.185-.191.185h-.684c-.127 0-.191-.062-.191-.185v-.82c0-.128.064-.191.191-.191h.684z"/><path d="M278.653 49.141c.127 0 .191.062.191.185v4.724c0 .547-.162.982-.486 1.306-.328.319-.766.479-1.312.479h-.697c-.674 0-1.188-.173-1.537-.52l-.021-.021a.195.195 0 0 1-.047.062c-.324.319-.754.479-1.293.479h-.703c-.68 0-1.195-.173-1.545-.52l-.008-.007c-.004-.005-.006-.009-.006-.014a.514.514 0 0 0-.049.062c-.322.319-.756.479-1.299.479h-1.777V54.81h1.785a.043.043 0 0 0 .02.007c.242-.009.422-.07.541-.185.127-.128.191-.319.191-.574v-4.73c0-.123.061-.185.184-.185h.65c.123 0 .184.062.184.185v4.908c0 .155.041.273.123.355.137.142.412.214.828.219h.895c.246 0 .432-.062.555-.185.127-.128.191-.319.191-.574v-4.348c0-.123.059-.185.178-.185h.656c.123 0 .184.062.184.185v4.532c0 .155.041.273.123.355.137.142.41.214.82.219h.883c.264 0 .455-.062.574-.185.123-.118.184-.31.184-.574v-4.724c0-.123.064-.185.191-.185h.649zm4.225 6.692c-.543 0-.973-.159-1.293-.479-.322-.319-.484-.754-.484-1.306v-8.135c0-.128.061-.191.184-.191h.65c.127 0 .191.063.191.191v8.135c0 .26.059.451.178.574.127.123.312.185.553.185h.678v1.025l-.657.001z"/><path d="M288.675 55.833h-.479c-.684 0-1.197-.171-1.539-.513a.143.143 0 0 1-.02-.027c-.006.009-.014.021-.027.034a.235.235 0 0 1-.021.027c-.318.319-.752.479-1.299.479h-2.098v-1.025h2.125c.246 0 .43-.062.547-.185.123-.118.186-.312.186-.581v-4.703c0-.128.061-.191.184-.191h.65c.127 0 .191.063.191.191v4.895c0 .159.039.278.115.355.146.146.424.219.834.219h.65v1.025h.001zm-2.461-8.346c-.123 0-.186-.062-.186-.185v-.827c0-.123.062-.185.186-.185h.689c.129 0 .191.062.191.185v.827c0 .123-.062.185-.191.185h-.689z"/><path d="M298.278 55.833h-.854c-.602 0-1.092-.187-1.471-.561a1.7 1.7 0 0 1-.205-.253 2.874 2.874 0 0 1-2.029.813h-5.387v-1.025h2.434v-2.98c0-.815.289-1.513.867-2.092a2.83 2.83 0 0 1 2.086-.868c.814 0 1.51.289 2.084.868.58.579.869 1.276.869 2.092v1.046c0 .487-.115.948-.342 1.381a.63.63 0 0 0 .164.294c.172.173.422.26.744.26h1.039v1.025h.001zm-4.558-1.025c.533 0 .988-.189 1.367-.567.377-.378.566-.834.566-1.367v-1.046c0-.533-.189-.989-.566-1.367-.379-.374-.834-.561-1.367-.561s-.986.187-1.361.561a1.867 1.867 0 0 0-.566 1.367v2.98h1.927z"/><path d="M301.157 45.723c.123 0 .184.063.184.191v8.135c0 .547-.162.982-.484 1.306-.328.319-.762.479-1.299.479h-1.621v-1.025h1.627c.006.005.01.007.014.007.256-.005.439-.066.555-.185.123-.128.184-.319.184-.574v-8.142c0-.128.062-.191.186-.191l.654-.001zm3.465 9.926c0 .123-.059.185-.178.185h-.662c-.123 0-.186-.062-.186-.185v-9.741c0-.123.062-.185.186-.185h.662c.119 0 .178.062.178.185v9.741zm11.123-6.501c.127 0 .191.063.191.191v5.927c0 .839-.297 1.554-.889 2.146a2.92 2.92 0 0 1-2.141.889 2.923 2.923 0 0 1-2.146-.889 2.927 2.927 0 0 1-.889-2.146v-3.302c0-.123.062-.185.186-.185h.656c.123 0 .184.062.184.185v3.302c0 .556.197 1.03.588 1.422a1.94 1.94 0 0 0 1.422.588 1.93 1.93 0 0 0 1.416-.588c.391-.392.588-.866.588-1.422v-5.927c0-.128.061-.191.184-.191h.65zm-3.377-.451c-.123 0-.186-.062-.186-.185v-.752c0-.123.062-.185.186-.185h.697c.123 0 .184.062.184.185v.752c0 .123-.061.185-.184.185h-.697zm6.85 6.952c0 .123-.061.185-.178.185h-.664c-.123 0-.184-.062-.184-.185v-9.741c0-.123.061-.185.184-.185h.664c.117 0 .178.062.178.185v9.741zm6.103.184h-2.146v.533c0 .747-.211 1.331-.635 1.75-.42.424-1.004.636-1.75.636h-.705c-.123 0-.184-.062-.184-.185v-.656c0-.123.061-.185.184-.185h.705c.469 0 .811-.109 1.025-.328.219-.219.328-.562.328-1.032v-7.021c0-.128.061-.191.184-.191h.656c.129 0 .191.063.191.191v5.462h2.146v1.026h.001zm-2.994-8.346c-.123 0-.184-.062-.184-.185v-.827c0-.123.061-.185.184-.185h.691c.123 0 .184.062.184.185v.827c0 .123-.061.185-.184.185h-.691z"/><path d="M330.12 55.833h-.479c-.684 0-1.195-.171-1.537-.513-.01-.009-.016-.019-.021-.027a.136.136 0 0 1-.027.034c-.008.014-.016.022-.02.027-.32.319-.752.479-1.299.479h-2.1v-1.025h2.127c.246 0 .428-.062.547-.185.123-.118.184-.312.184-.581v-4.703c0-.128.062-.191.186-.191h.648c.129 0 .191.063.191.191v4.895c0 .159.039.278.117.355.145.146.424.219.834.219h.648l.001 1.025zm-3.349 1.334c.129 0 .191.063.191.191v.82c0 .123-.062.185-.191.185h-.689c-.123 0-.186-.062-.186-.185v-.82c0-.128.062-.191.186-.191h.689zm1.867 0c.127 0 .191.063.191.191v.82c0 .123-.064.185-.191.185h-.684c-.129 0-.191-.062-.191-.185v-.82c0-.128.062-.191.191-.191h.684z"/><path d="M339.726 55.833h-.855c-.602 0-1.092-.187-1.469-.561a1.7 1.7 0 0 1-.205-.253c-.58.542-1.256.813-2.031.813h-5.387v-1.025h2.434v-2.98c0-.815.289-1.513.869-2.092a2.828 2.828 0 0 1 2.084-.868 2.83 2.83 0 0 1 2.086.868c.578.579.867 1.276.867 2.092v1.046c0 .487-.113.948-.342 1.381a.667.667 0 0 0 .164.294c.174.173.422.26.746.26h1.039v1.025zm-4.561-1.025c.533 0 .99-.189 1.367-.567a1.86 1.86 0 0 0 .568-1.367v-1.046a1.86 1.86 0 0 0-.568-1.367c-.377-.374-.834-.561-1.367-.561s-.986.187-1.359.561a1.86 1.86 0 0 0-.568 1.367v2.98h1.927z"/><path d="M342.603 45.723c.123 0 .186.063.186.191v8.135c0 .547-.162.982-.486 1.306-.328.319-.76.479-1.299.479h-1.619v-1.025h1.627a.016.016 0 0 0 .014.007c.254-.005.439-.066.553-.185.123-.128.186-.319.186-.574v-8.142c0-.128.061-.191.184-.191l.654-.001zm3.466 9.926c0 .123-.061.185-.178.185h-.664c-.123 0-.184-.062-.184-.185v-9.741c0-.123.061-.185.184-.185h.664c.117 0 .178.062.178.185v9.741z"/></g><path d="M355.182 93.371c0 .123-.06.185-.178.185h-.663c-.123 0-.185-.062-.185-.185V83.63c0-.123.062-.185.185-.185h.663c.118 0 .178.062.178.185v9.741z"/></svg>