<svg xmlns="http://www.w3.org/2000/svg" width="409.227" height="269" viewBox="0 0 409.227 269"><path fill="#E5ECF3" d="M409.227 254c0 8.284-6.715 15-15 15H15c-8.284 0-15-6.716-15-15V15C0 6.716 6.716 0 15 0h379.227c8.285 0 15 6.716 15 15v239z"/><path fill="#FDFEFF" stroke="#91A4AD" stroke-miterlimit="10" d="M363.623 183.68c0 8.284-6.716 15-15 15h-276.5c-8.284 0-15-6.716-15-15v-68c0-8.284 6.716-15 15-15h276.5c8.284 0 15 6.716 15 15v68zm0-131.5c0 9.112-7.388 16.5-16.5 16.5h-274c-9.113 0-16.5-7.388-16.5-16.5s7.387-16.5 16.5-16.5h274c9.112 0 16.5 7.388 16.5 16.5z"/><path fill="#E6245E" d="M169.623 231.68c0 8.008-6.492 14.5-14.5 14.5h-32.5c-8.008 0-14.5-6.492-14.5-14.5s6.492-14.5 14.5-14.5h32.5c8.008 0 14.5 6.493 14.5 14.5z"/><path fill="#030404" d="M57.448 235.971v1.309h-9.214c-.431 0-.765.163-1.003.488-.215.291-.323.649-.323 1.073 0 .431.154.8.462 1.108.302.303.672.454 1.108.454h1.545c.157 0 .235.081.235.244v.829c0 .157-.079.235-.235.235h-1.545a2.765 2.765 0 0 1-2.033-.838 2.772 2.772 0 0 1-.847-2.033c0-.831.25-1.518.75-2.059.494-.541 1.123-.812 1.885-.812h1.283l-1.754-3.735a.726.726 0 0 1-.061-.279c0-.028.003-.058.009-.087.128-.884.561-1.673 1.3-2.364.797-.739 1.698-1.108 2.705-1.108 1.012 0 1.914.346 2.705 1.038.791.698 1.225 1.521 1.3 2.47v.061a.684.684 0 0 1-.061.271l-1.745 3.735h3.534zm-6.483 0h1.5l1.929-4.119c-.093-.581-.401-1.085-.925-1.51-.529-.424-1.114-.637-1.754-.637-.628 0-1.207.229-1.736.689-.495.425-.806.916-.934 1.475l1.92 4.102z"/><path fill="#030404" d="M63.46 228.388c1.14 0 2.115.404 2.923 1.213s1.213 1.783 1.213 2.923v1.711c0 .954-.268 1.698-.803 2.233-.541.541-1.286.812-2.234.812h-7.548v-1.309h7.548c.599 0 1.038-.14 1.317-.419.273-.279.41-.719.41-1.317v-1.711c0-.779-.276-1.442-.829-1.989a2.723 2.723 0 0 0-1.998-.829c-1.286 0-2.237.442-2.854 1.326l-.244.341c-.047.081-.105.122-.174.122a.244.244 0 0 1-.148-.062l-.681-.471c-.082-.053-.122-.113-.122-.184a.31.31 0 0 1 .052-.157l.244-.34c.518-.751 1.245-1.286 2.182-1.605a5.417 5.417 0 0 1 1.746-.288zm-.541 10.47c.157 0 .236.082.236.245v1.047c0 .157-.079.235-.236.235h-.873c-.163 0-.244-.078-.244-.235v-1.047c0-.163.081-.245.244-.245h.873zm8.866-1.814c0 .157-.076.235-.227.235h-.846c-.157 0-.236-.078-.236-.235v-12.435c0-.157.079-.236.236-.236h.846c.151 0 .227.079.227.236v12.435zm7.783.235h-2.731v.681c0 .954-.271 1.698-.812 2.233-.541.541-1.286.812-2.234.812h-.899c-.157 0-.235-.078-.235-.235v-.838c0-.156.079-.235.235-.235h.899c.599 0 1.035-.14 1.309-.419.279-.279.418-.719.418-1.317v-8.962c0-.162.082-.244.245-.244h.837c.157 0 .236.082.236.244v6.973h2.731l.001 1.307z"/><path fill="#030404" d="M83.809 228.745c.151 0 .227.079.227.235v6.021c0 .698-.204 1.254-.61 1.667-.425.407-.978.61-1.658.61h-3.071v-1.309h3.08c.006.006.012.009.018.009.32-.012.552-.091.698-.236.163-.168.245-.413.245-.732v-6.03c0-.156.075-.235.227-.235h.844zm-2.051-2.12c-.163 0-.244-.079-.244-.235v-1.057c0-.156.082-.235.244-.235h.873c.163 0 .245.079.245.235v1.057c0 .156-.082.235-.245.235h-.873zm3.255-1.528c.163 0 .244.079.244.235v1.057c0 .156-.082.235-.244.235h-.873c-.163 0-.244-.079-.244-.235v-1.057c0-.156.081-.235.244-.235h.873zm12.426 11.947c0 .157-.076.235-.227.235h-.846c-.157 0-.236-.078-.236-.235v-12.435c0-.157.079-.236.236-.236h.846c.151 0 .227.079.227.236v12.435z"/><path fill="#FFF" d="M126.68 237.279h-.602c-.78 0-1.408-.235-1.885-.707a2.287 2.287 0 0 1-.148-.191c-.523.599-1.338.898-2.443.898h-3.839c-.157 0-.235-.078-.235-.235v-.829c0-.163.079-.244.235-.244h3.839c.681 0 1.149-.131 1.405-.393.221-.216.332-.582.332-1.1v-2.862c0-.523-.189-.975-.567-1.353a1.863 1.863 0 0 0-1.353-.559c-.756 0-1.323.134-1.702.401l-.34.235a.262.262 0 0 1-.14.044h-.035a.209.209 0 0 1-.157-.096l-.48-.681a.178.178 0 0 1-.052-.131v-.044a.241.241 0 0 1 .105-.157l.332-.235c.605-.431 1.428-.646 2.469-.646.884 0 1.644.313 2.277.942.628.628.942 1.387.942 2.277v3.377c0 .262.084.477.253.646.221.222.541.332.959.332h.829l.001 1.311z"/><path fill="#FFF" d="M133.242 237.279h-.611c-.873 0-1.527-.218-1.963-.654a.113.113 0 0 1-.026-.035.183.183 0 0 1-.035.044.39.39 0 0 1-.026.035c-.407.407-.959.61-1.658.61h-2.679v-1.309h2.713c.314 0 .547-.079.698-.236.157-.15.236-.398.236-.741v-6.004c0-.162.078-.244.235-.244h.829c.163 0 .244.082.244.244v6.248c0 .204.049.355.148.454.186.186.541.279 1.064.279h.829v1.309h.002zm-4.276 1.701c.163 0 .245.082.245.245v1.047c0 .157-.082.235-.245.235h-.881c-.157 0-.235-.078-.235-.235v-1.047c0-.163.079-.245.235-.245h.881zm2.382 0c.163 0 .244.082.244.245v1.047c0 .157-.082.235-.244.235h-.873c-.163 0-.244-.078-.244-.235v-1.047c0-.163.081-.245.244-.245h.873z"/><path fill="#FFF" d="M139.891 229.268c1.146 0 2.094.381 2.844 1.144.745.762 1.117 1.728 1.117 2.896v1.693c0 .698-.207 1.254-.62 1.667-.413.407-.966.61-1.658.61h-8.77v-1.309h8.761c.337 0 .582-.079.733-.236.163-.156.244-.401.244-.732v-1.693c0-.814-.244-1.472-.733-1.972s-1.128-.75-1.919-.75h-4.023c-.18 0-.334-.064-.462-.192s-.192-.282-.192-.463c0-1.529.39-2.725 1.169-3.586.785-.861 1.87-1.292 3.254-1.292h1.483c.157 0 .236.079.236.236v.838c0 .156-.079.235-.236.235h-1.483c-1.861 0-2.888.969-3.08 2.905h3.335v.001zm6.126-6.082c-.105 0-.157-.055-.157-.166v-.384c0-.11.052-.165.157-.165h.506v-1.048c0-.366.131-.681.393-.942.262-.261.576-.393.942-.393.594 0 1.006.271 1.239.812l.07.184a.107.107 0 0 1 .018.061.141.141 0 0 1-.018.062c-.012.041-.041.072-.087.096l-.357.14a.152.152 0 0 1-.123.009c-.046-.023-.076-.053-.087-.087l-.079-.184c-.105-.25-.297-.375-.576-.375a.604.604 0 0 0-.445.184.596.596 0 0 0-.183.436v1.048h1.833c.11 0 .166.055.166.165v.384c0 .111-.055.166-.166.166h-3.046v-.003zm3.987 14.093h-.838c-.704 0-1.256-.203-1.658-.61-.419-.419-.628-.978-.628-1.676v-10.375c0-.163.082-.245.244-.245h.829c.163 0 .244.082.244.245v10.375c0 .343.079.591.236.741.151.157.396.236.733.236h.838v1.309z"/><path fill="#FFF" d="M154.681 228.745c.151 0 .227.079.227.235v6.021c0 .698-.204 1.254-.61 1.667-.425.407-.978.61-1.658.61h-3.071v-1.309h3.08c.006.006.012.009.018.009.32-.012.552-.091.698-.236.163-.168.245-.413.245-.732v-6.03c0-.156.075-.235.227-.235h.844zm-2.051-2.12c-.163 0-.244-.079-.244-.235v-1.057c0-.156.082-.235.244-.235h.873c.163 0 .245.079.245.235v1.057c0 .156-.082.235-.245.235h-.873zm3.255-1.528c.163 0 .244.079.244.235v1.057c0 .156-.082.235-.244.235h-.873c-.163 0-.244-.079-.244-.235v-1.057c0-.156.081-.235.244-.235h.873z"/><circle fill="#E0E0DF" stroke="#798F9A" stroke-miterlimit="10" cx="346.699" cy="120.924" r="6.576"/><circle fill="#BED031" cx="346.699" cy="150.924" r="6.576"/><circle fill="#E0E0DF" stroke="#798F9A" stroke-miterlimit="10" cx="346.699" cy="180.924" r="6.576"/><g fill="#030404"><path d="M302.842 19.758c.087 0 .131.043.131.13v.896c0 .087-.044.13-.131.13h-.766c-.086 0-.129-.043-.129-.13v-.896c0-.087.043-.13.129-.13h.766zm0 5.434c.087 0 .131.043.131.13v.896c0 .087-.044.13-.131.13h-.766c-.086 0-.129-.043-.129-.13v-.896c0-.087.043-.13.129-.13h.766zm11.252-8.955c.128 0 .191.063.191.191v9.352a2.92 2.92 0 0 1-.889 2.146 2.922 2.922 0 0 1-2.146.889 2.913 2.913 0 0 1-2.139-.889 2.923 2.923 0 0 1-.889-2.146v-3.302c0-.123.061-.185.184-.185h.656c.123 0 .186.062.186.185v3.302c0 .556.195 1.03.588 1.422.392.392.863.588 1.414.588.557 0 1.028-.196 1.416-.588.392-.392.588-.866.588-1.422v-9.352c0-.128.063-.191.191-.191h.649zm3.472 9.926c0 .123-.059.185-.178.185h-.662c-.123 0-.186-.062-.186-.185v-9.741c0-.123.062-.185.186-.185h.662c.119 0 .178.062.178.185v9.741zm10.084-.841v1.025h-2.119v.164c0 .747-.273 1.393-.82 1.935-.543.547-1.189.82-1.941.82h-1.443c-.123 0-.184-.062-.184-.185v-.656c0-.123.061-.185.184-.185h1.443c.469 0 .877-.171 1.223-.513.342-.347.514-.752.514-1.217v-.163h-1.928a2.862 2.862 0 0 1-2.092-.861 2.851 2.851 0 0 1-.869-2.092v-1.053c0-.815.29-1.511.869-2.085a2.847 2.847 0 0 1 2.092-.868 2.84 2.84 0 0 1 2.084.868 2.83 2.83 0 0 1 .869 2.085v2.98h2.118v.001zm-3.144-2.98c0-.533-.189-.986-.568-1.36a1.854 1.854 0 0 0-1.359-.567c-.533 0-.989.189-1.367.567a1.839 1.839 0 0 0-.568 1.36v1.053c0 .528.189.982.568 1.36.378.378.834.567 1.367.567h1.928v-2.98h-.001zm-3.166-4.259c-.086 0-.129-.043-.129-.13v-.301c0-.087.043-.13.129-.13h.391v-.813c0-.292.102-.54.307-.745s.454-.308.746-.308c.465 0 .785.214.963.643l.055.13a.145.145 0 0 1 .008.103.127.127 0 0 1-.068.075l-.281.116a.166.166 0 0 1-.061.014c-.051 0-.087-.027-.109-.082l-.062-.137a.444.444 0 0 0-.443-.301c-.137 0-.254.048-.35.144s-.143.212-.143.349v.813h1.436c.086 0 .129.043.129.13v.301c0 .087-.043.13-.129.13l-2.389-.001z"/><path d="M339.545 26.347h-.473c-.609 0-1.102-.185-1.477-.554l-.014-.021a.143.143 0 0 1-.02-.027.702.702 0 0 1-.104.123c-.318.319-.75.479-1.291.479h-.711c-.68 0-1.191-.171-1.539-.513-.004-.005-.006-.009-.006-.014a.092.092 0 0 1-.014-.014.264.264 0 0 0-.055.062h.006c-.318.319-.754.479-1.305.479h-.697c-.684 0-1.197-.171-1.539-.513a.092.092 0 0 0-.014-.014c-.004-.005-.006-.009-.006-.014-.02.027-.035.048-.049.062-.318.319-.752.479-1.299.479h-1.77v-1.025h1.797c.252 0 .434-.062.547-.185.123-.123.186-.316.186-.581v-4.709c0-.123.061-.185.184-.185h.656c.123 0 .186.062.186.185v4.901c0 .155.039.273.115.355.15.146.43.219.834.219h.902c.246 0 .43-.062.547-.185.123-.118.186-.312.186-.581v-4.341c0-.123.061-.185.184-.185h.656c.123 0 .186.062.186.185v4.532c0 .159.039.278.115.355.146.146.424.219.834.219h.883c.25 0 .439-.062.566-.185.123-.123.186-.316.186-.581v-4.708c0-.123.061-.185.184-.185h.656c.123 0 .186.062.186.185v4.71c0 .205.066.374.197.506.174.173.422.26.746.26h.656v1.024h.002z"/><path d="M342.422 16.237c.123 0 .186.063.186.191v8.135c0 .547-.162.982-.486 1.306-.328.319-.76.479-1.299.479h-1.619v-1.025h1.627a.016.016 0 0 0 .014.007c.254-.005.439-.066.553-.185.123-.128.186-.319.186-.574v-8.142c0-.128.061-.191.184-.191h.654v-.001zm3.467 9.926c0 .123-.061.185-.178.185h-.664c-.123 0-.184-.062-.184-.185v-9.741c0-.123.061-.185.184-.185h.664c.117 0 .178.062.178.185v9.741z"/></g><g fill="#030404"><path d="M231.481 83.092c.087 0 .13.043.13.13v.896c0 .087-.043.13-.13.13h-.766c-.087 0-.13-.043-.13-.13v-.896c0-.087.043-.13.13-.13h.766zm0 5.434c.087 0 .13.043.13.13v.896c0 .087-.043.13-.13.13h-.766c-.087 0-.13-.043-.13-.13v-.896c0-.087.043-.13.13-.13h.766zm17.767 1.155h-.479c-.68 0-1.191-.171-1.538-.513a1.226 1.226 0 0 1-.157-.191c-.42.47-1.021.704-1.805.704h-2.871c-.338 0-.6.128-.786.383-.169.224-.253.504-.253.841s.119.627.355.868c.242.237.531.355.868.355h.834c.128 0 .191.063.191.191v.649c0 .123-.063.185-.191.185h-.834c-.62 0-1.151-.219-1.593-.656a2.181 2.181 0 0 1-.656-1.593c0-.651.193-1.189.581-1.613.392-.424.886-.636 1.483-.636h2.871c.465 0 .807-.109 1.025-.328.219-.214.328-.556.328-1.025v-1.347c0-.61-.217-1.13-.649-1.559a2.125 2.125 0 0 0-1.559-.649c-1.012 0-1.759.347-2.242 1.039l-.191.267a.166.166 0 0 1-.123.082h-.034a.181.181 0 0 1-.103-.034l-.533-.369a.2.2 0 0 1-.075-.123v-.034c0-.041.01-.077.027-.109l.191-.267c.688-.984 1.716-1.477 3.083-1.477a3.11 3.11 0 0 1 2.283.95c.634.629.95 1.39.95 2.283v2.126c0 .155.039.273.116.355.146.146.424.219.834.219h.649v1.026h.003z"/><path d="M254.389 89.681h-.479c-.684 0-1.196-.171-1.538-.513a.117.117 0 0 1-.021-.027.136.136 0 0 1-.027.034.235.235 0 0 1-.021.027c-.319.319-.752.479-1.299.479h-2.099v-1.025h2.126c.246 0 .429-.062.547-.185.123-.118.185-.312.185-.581v-4.703c0-.128.062-.191.185-.191h.649c.127 0 .191.063.191.191v4.895c0 .159.039.278.116.355.146.146.424.219.834.219h.649v1.025h.002zm-3.35 1.333c.127 0 .191.063.191.191v.82c0 .123-.064.185-.191.185h-.69c-.123 0-.185-.062-.185-.185v-.82c0-.128.062-.191.185-.191h.69zm1.866 0c.128 0 .191.063.191.191v.82c0 .123-.063.185-.191.185h-.684c-.128 0-.191-.062-.191-.185v-.82c0-.128.063-.191.191-.191h.684z"/><path d="M263.945 89.681h-.485c-.679 0-1.192-.171-1.538-.513a2.036 2.036 0 0 1-.15-.191c-.42.47-1.023.704-1.812.704h-5.913v-1.025h5.913c.47 0 .813-.109 1.032-.328.215-.214.321-.556.321-1.025v-1.347c0-.61-.214-1.13-.643-1.559a2.132 2.132 0 0 0-1.565-.649c-1.002 0-1.75.349-2.242 1.046l-.191.267c-.041.06-.089.089-.144.089a.193.193 0 0 1-.116-.048l-.533-.376a.195.195 0 0 1-.075-.123v-.034c0-.036.009-.07.027-.103l.191-.267c.711-.984 1.739-1.477 3.083-1.477.893 0 1.654.316 2.283.95a3.1 3.1 0 0 1 .95 2.283v2.126c0 .159.041.278.123.355.146.146.421.219.827.219h.656l.001 1.026z"/><path d="M274.896 89.681h-.472c-.606 0-1.097-.185-1.47-.554a2.879 2.879 0 0 1-.178-.205c-.42.506-1.039.759-1.859.759h-7.314v-1.025h2.201v-5.291c0-.123.064-.185.191-.185h.649c.123 0 .185.062.185.185v1.299c1.385-1.294 2.586-1.941 3.603-1.941.87 0 1.565.294 2.085.882.52.583.779 1.367.779 2.352v1.935c0 .214.064.383.191.506.174.173.422.26.745.26h.663v1.023h.001zm-2.625-3.725c0-.497-.094-.93-.28-1.299-.306-.606-.825-.909-1.559-.909-.93 0-2.13.768-3.603 2.304v2.604h4.088c.465 0 .807-.109 1.025-.328.219-.214.328-.556.328-1.025l.001-1.347z"/><path d="M277.774 79.571c.123 0 .185.063.185.191v8.135c0 .547-.162.982-.485 1.306-.328.319-.761.479-1.299.479h-1.62v-1.025h1.627c.004.005.01.007.014.007.256-.005.439-.066.554-.185.123-.128.185-.319.185-.574v-8.142c0-.128.062-.191.185-.191h.654v-.001zm3.466 9.926c0 .123-.059.185-.178.185h-.663c-.123 0-.185-.062-.185-.185v-9.741c0-.123.062-.185.185-.185h.663c.119 0 .178.062.178.185v9.741zm14.766-6.399c.127 0 .191.062.191.185v4.607c0 .542-.164.979-.492 1.312-.324.319-.756.479-1.299.479h-4.895a2.893 2.893 0 0 1-2.133-.889 2.94 2.94 0 0 1-.889-2.146c0-.579.152-1.119.458-1.62.31-.501.72-.884 1.23-1.148l.294-.15a.204.204 0 0 1 .075-.014c.022 0 .046.002.068.007.05.014.085.046.103.096l.301.581a.19.19 0 0 1 .034.103c0 .06-.038.109-.116.15l-.287.144c-.346.173-.622.429-.827.766s-.308.699-.308 1.087c0 .556.195 1.03.588 1.422.393.388.861.581 1.408.581h4.942c.228 0 .403-.06.526-.178.123-.123.185-.316.185-.581v-4.607c0-.123.062-.185.185-.185h.658v-.002zm-3.835 7.821c.123 0 .185.063.185.191v.752c0 .123-.062.185-.185.185h-.69c-.127 0-.191-.062-.191-.185v-.752c0-.128.064-.191.191-.191h.69zm7.307-1.422c0 .123-.059.185-.178.185h-.663c-.123 0-.185-.062-.185-.185v-9.741c0-.123.062-.185.185-.185h.663c.119 0 .178.062.178.185v9.741zm10.083-.841v1.025h-2.119v.164c0 .743-.273 1.388-.82 1.935-.542.547-1.187.82-1.935.82h-1.456c-.118 0-.178-.062-.178-.185v-.656c0-.123.06-.185.178-.185h1.456c.469 0 .875-.171 1.217-.513.342-.347.513-.752.513-1.217v-.164h-1.928a2.865 2.865 0 0 1-2.092-.861 2.85 2.85 0 0 1-.868-2.092v-1.053c0-.815.289-1.511.868-2.085a2.85 2.85 0 0 1 2.092-.868 2.84 2.84 0 0 1 2.085.868c.578.574.868 1.27.868 2.085v2.98h2.119v.002zm-3.144-2.98c0-.533-.188-.986-.567-1.36a1.858 1.858 0 0 0-1.36-.567c-.533 0-.989.189-1.367.567a1.842 1.842 0 0 0-.567 1.36v1.053c0 .528.189.982.567 1.36s.834.567 1.367.567h1.928v-2.98h-.001z"/><path d="M318.975 89.681h-.479c-.684 0-1.199-.173-1.545-.52a1.645 1.645 0 0 1-.15-.185c-.42.47-1.023.704-1.812.704h-5.906v-1.025h5.906c.47-.005.813-.111 1.032-.321.219-.224.328-.567.328-1.032v-1.347c0-.61-.217-1.13-.649-1.559a2.132 2.132 0 0 0-1.565-.649c-.994 0-1.74.349-2.242 1.046l-.191.267c-.041.06-.089.089-.144.089a.193.193 0 0 1-.116-.048l-.533-.376a.195.195 0 0 1-.075-.123v-.034c0-.036.011-.073.034-.109l.191-.267c.701-.979 1.727-1.47 3.076-1.47.893 0 1.656.314 2.29.943.634.634.95 1.396.95 2.29v2.126c0 .164.041.285.123.362.137.137.41.207.82.212h.656v1.026h.001zm-5.264 1.238c.123 0 .185.063.185.191v.82c0 .123-.062.185-.185.185h-.69c-.128 0-.191-.062-.191-.185v-.82c0-.128.063-.191.191-.191h.69z"/><path d="M321.852 79.571c.123 0 .185.063.185.191v8.135c0 .547-.162.982-.485 1.306-.328.319-.761.479-1.299.479h-1.62v-1.025h1.627c.004.005.01.007.014.007.256-.005.439-.066.554-.185.123-.128.185-.319.185-.574v-8.142c0-.128.062-.191.185-.191h.654v-.001zm3.466 9.926c0 .123-.059.185-.178.185h-.663c-.123 0-.185-.062-.185-.185v-9.741c0-.123.062-.185.185-.185h.663c.119 0 .178.062.178.185v9.741zm9.571.184h-2.14v.533c0 .747-.212 1.331-.636 1.75-.424.424-1.008.636-1.75.636h-.704c-.123 0-.185-.062-.185-.185v-.656c0-.123.062-.185.185-.185h.704c.469 0 .811-.109 1.025-.328.219-.219.328-.562.328-1.032v-7.021c0-.128.064-.191.191-.191h.656c.123 0 .185.063.185.191v5.462h2.14l.001 1.026z"/><path d="M339.995 89.681h-.479c-.688 0-1.203-.171-1.545-.513 0-.005-.003-.009-.007-.014s-.007-.009-.007-.014l-.062.062h.007c-.319.319-.749.479-1.292.479h-2.406v-1.025h2.427c.246 0 .429-.062.547-.185.128-.123.191-.316.191-.581v-4.703c0-.128.06-.191.178-.191h.656c.123 0 .185.063.185.191v4.895c0 .159.041.278.123.355.141.146.417.219.827.219h.656v1.025h.001zm-3.397-8.346c-.127 0-.191-.062-.191-.185v-.827c0-.123.064-.185.191-.185h.697c.123 0 .185.062.185.185v.827c0 .123-.062.185-.185.185h-.697zm1.866 0c-.123 0-.185-.062-.185-.185v-.827c0-.123.062-.185.185-.185h.684c.128 0 .191.062.191.185v.827c0 .123-.063.185-.191.185h-.684z"/><path d="M344.712 82.716c.894 0 1.654.316 2.283.95.634.634.95 1.396.95 2.29v1.34c0 .747-.21 1.331-.629 1.75-.419.424-1.002.636-1.75.636h-5.913v-1.025h5.913c.469 0 .813-.109 1.032-.328s.328-.562.328-1.032v-1.34c0-.606-.216-1.126-.649-1.559s-.955-.649-1.565-.649c-1.003 0-1.75.349-2.242 1.046l-.191.26c-.022.046-.063.073-.123.082h-.027a.208.208 0 0 1-.103-.034l-.533-.376a.171.171 0 0 1-.082-.123v-.034c0-.036.012-.07.034-.103l.185-.267c.696-.99 1.723-1.484 3.082-1.484zm-.54-1.381c-.123 0-.185-.062-.185-.185v-.827c0-.123.062-.185.185-.185h.69c.123 0 .185.062.185.185v.827c0 .123-.062.185-.185.185h-.69z"/></g><path fill="#010101" d="M351.182 89.498c0 .123-.06.185-.178.185h-.663c-.123 0-.185-.062-.185-.185v-9.741c0-.123.062-.185.185-.185h.663c.118 0 .178.062.178.185v9.741z"/><path d="M209.407 53.655v1.025h-5.154a2.83 2.83 0 0 1-2.085-.868 2.85 2.85 0 0 1-.868-2.092v-1.046c0-.816.29-1.513.868-2.092.574-.579 1.269-.868 2.085-.868s1.513.29 2.091.868c.574.579.861 1.276.861 2.092v2.98h2.202zm-3.219-2.981a1.86 1.86 0 0 0-.567-1.367c-.378-.374-.833-.561-1.367-.561s-.987.187-1.36.561a1.864 1.864 0 0 0-.567 1.367v1.046c0 .533.189.989.567 1.367.374.378.827.567 1.36.567h1.934v-2.98zm-3.411-4.341c-.123 0-.185-.062-.185-.185v-.827c0-.123.062-.185.185-.185h.69c.127 0 .191.062.191.185v.827c0 .123-.064.185-.191.185h-.69zm1.866 0c-.123 0-.185-.062-.185-.185v-.827c0-.123.062-.185.185-.185h.69c.128 0 .191.062.191.185v.827c0 .123-.063.185-.191.185h-.69z"/><path d="M212.422 47.995c.123 0 .185.062.185.185v4.71c0 .547-.161.984-.485 1.313-.318.319-.752.479-1.299.479h-2.099v-1.025h2.099c.26-.004.451-.064.574-.178.123-.127.185-.321.185-.581v-4.717c0-.123.062-.185.185-.185h.655zm-.909 7.922c.119 0 .178.064.178.191v.82c0 .123-.059.185-.178.185h-.69c-.127 0-.191-.062-.191-.185v-.82c0-.127.064-.191.191-.191h.69zm7.191-1.237h-2.14v.533c0 .748-.212 1.331-.636 1.75-.424.424-1.007.636-1.75.636h-.704c-.123 0-.185-.062-.185-.185v-.656c0-.123.062-.185.185-.185h.704c.47 0 .812-.109 1.025-.328.219-.219.328-.563.328-1.032v-7.021c0-.127.064-.191.191-.191h.656c.123 0 .185.064.185.191v5.462h2.14v1.026z"/><path d="M223.811 54.68h-.479c-.688 0-1.203-.171-1.545-.513 0-.004-.002-.009-.007-.014-.004-.004-.007-.009-.007-.014l-.062.062h.007c-.318.319-.749.479-1.292.479h-2.406v-1.025h2.427c.246 0 .429-.062.547-.185.128-.123.191-.317.191-.581v-4.703c0-.127.06-.191.178-.191h.656c.123 0 .185.064.185.191v4.895c0 .16.041.278.123.355.142.146.417.219.827.219h.656v1.025zm-3.398-8.347c-.127 0-.191-.062-.191-.185v-.827c0-.123.064-.185.191-.185h.697c.123 0 .185.062.185.185v.827c0 .123-.062.185-.185.185h-.697zm1.867 0c-.123 0-.185-.062-.185-.185v-.827c0-.123.062-.185.185-.185h.684c.128 0 .191.062.191.185v.827c0 .123-.063.185-.191.185h-.684z"/><path d="M227.167 47.995c.123 0 .185.062.185.185v4.71c0 .547-.161.984-.485 1.313-.318.319-.752.479-1.299.479h-2.099v-1.025h2.099c.26-.004.451-.064.574-.178.123-.127.185-.321.185-.581v-4.717c0-.123.062-.185.185-.185h.655zm-.909 7.922c.119 0 .178.064.178.191v.82c0 .123-.059.185-.178.185h-.69c-.127 0-.191-.062-.191-.185v-.82c0-.127.064-.191.191-.191h.69zm14.451-2.262v1.025h-5.154c-.815 0-1.511-.29-2.085-.868a2.854 2.854 0 0 1-.868-2.092v-1.046c0-.816.29-1.513.868-2.092a2.829 2.829 0 0 1 2.085-.868c.816 0 1.514.29 2.092.868.574.579.861 1.276.861 2.092v2.98h2.201zm-3.22-2.981a1.86 1.86 0 0 0-.567-1.367c-.378-.374-.834-.561-1.367-.561s-.986.187-1.36.561a1.864 1.864 0 0 0-.567 1.367v1.046c0 .533.189.989.567 1.367.374.378.827.567 1.36.567h1.935v-2.98zm-3.411-4.341c-.123 0-.185-.062-.185-.185v-.827c0-.123.062-.185.185-.185h.69c.128 0 .191.062.191.185v.827c0 .123-.063.185-.191.185h-.69zm1.867 0c-.123 0-.185-.062-.185-.185v-.827c0-.123.062-.185.185-.185h.69c.128 0 .191.062.191.185v.827c0 .123-.063.185-.191.185h-.69z"/><path d="M245.508 54.68h-.479c-.684 0-1.196-.171-1.538-.513a.124.124 0 0 1-.021-.027.164.164 0 0 1-.027.034.125.125 0 0 1-.021.027c-.319.319-.752.479-1.299.479h-2.099v-1.025h2.126c.246 0 .429-.062.547-.185.123-.119.185-.312.185-.581v-4.703c0-.127.062-.191.185-.191h.649c.128 0 .191.064.191.191v4.895c0 .16.039.278.116.355.146.146.424.219.834.219h.649v1.025zm-3.35 1.333c.128 0 .191.064.191.191v.82c0 .123-.063.185-.191.185h-.69c-.123 0-.185-.062-.185-.185v-.82c0-.127.062-.191.185-.191h.69zm1.867 0c.128 0 .191.064.191.191v.82c0 .123-.063.185-.191.185h-.684c-.128 0-.191-.062-.191-.185v-.82c0-.127.063-.191.191-.191h.684z"/><path d="M253.239 53.655c.123 0 .185.062.185.185v.656c0 .123-.062.185-.185.185h-8.073v-1.025h2.748a2.706 2.706 0 0 1-.41-1.449v-1.531c0-.816.287-1.513.861-2.092a2.841 2.841 0 0 1 2.085-.868c.634 0 1.205.18 1.716.54.506.355.82.8.943 1.333l.068.321a.314.314 0 0 1 .007.068c0 .078-.048.127-.144.15l-.643.15a.357.357 0 0 1-.062.007c-.087 0-.139-.05-.157-.15l-.075-.314c-.063-.296-.26-.549-.588-.759a1.924 1.924 0 0 0-1.066-.314c-.528 0-.982.187-1.36.561a1.874 1.874 0 0 0-.561 1.367v1.531c0 .383.101.711.301.984.224.31.518.465.882.465h3.528zm3.466.841c0 .123-.06.185-.178.185h-.663c-.123 0-.185-.062-.185-.185v-9.741c0-.123.062-.185.185-.185h.663c.118 0 .178.062.178.185v9.741zm3.767-6.495c.123 0 .185.062.185.185v7.027c0 .748-.21 1.331-.629 1.75-.424.424-1.01.636-1.757.636h-.697c-.123 0-.185-.064-.185-.191v-.649c0-.127.062-.191.185-.191h.697c.47 0 .813-.107 1.032-.321.219-.219.328-.563.328-1.032v-7.027c0-.123.06-.185.178-.185h.663zm6.289 6.679h-2.146v.533c0 .748-.212 1.331-.636 1.75-.419.424-1.003.636-1.75.636h-.704c-.123 0-.185-.062-.185-.185v-.656c0-.123.062-.185.185-.185h.704c.47 0 .812-.109 1.025-.328.219-.219.328-.563.328-1.032v-7.021c0-.127.062-.191.185-.191h.656c.128 0 .191.064.191.191v5.462h2.146v1.026zm-2.994-8.347c-.123 0-.185-.062-.185-.185v-.827c0-.123.062-.185.185-.185h.69c.123 0 .185.062.185.185v.827c0 .123-.062.185-.185.185h-.69z"/><path d="M269.297 44.57c.123 0 .185.064.185.191v8.135c0 .547-.162.982-.485 1.306-.328.319-.761.479-1.299.479h-1.62v-1.025h1.627c.005.004.009.007.014.007.255-.004.439-.066.554-.185.123-.127.185-.319.185-.574v-8.142c0-.127.062-.191.185-.191h.654zm3.466 9.926c0 .123-.06.185-.178.185h-.663c-.123 0-.185-.062-.185-.185v-9.741c0-.123.062-.185.185-.185h.663c.118 0 .178.062.178.185v9.741zm13.357-.841v1.025h-5.154c-.815 0-1.511-.29-2.085-.868a2.85 2.85 0 0 1-.868-2.092v-1.046c0-.816.289-1.513.868-2.092.574-.579 1.27-.868 2.085-.868s1.513.29 2.092.868c.574.579.861 1.276.861 2.092v2.98h2.201zm-3.219-2.981c0-.533-.189-.989-.567-1.367-.378-.374-.834-.561-1.367-.561s-.986.187-1.36.561a1.864 1.864 0 0 0-.567 1.367v1.046c0 .533.189.989.567 1.367.374.378.827.567 1.36.567h1.935v-2.98zm-3.412-4.341c-.123 0-.185-.062-.185-.185v-.827c0-.123.062-.185.185-.185h.69c.128 0 .191.062.191.185v.827c0 .123-.063.185-.191.185h-.69zm1.867 0c-.123 0-.185-.062-.185-.185v-.827c0-.123.062-.185.185-.185h.69c.128 0 .191.062.191.185v.827c0 .123-.063.185-.191.185h-.69z"/><path d="M290.912 54.68h-.479c-.679 0-1.191-.171-1.538-.513a.124.124 0 0 0-.021-.027l-.041.062c-.323.319-.757.479-1.299.479h-2.099v-1.025h2.119c.246 0 .429-.062.547-.185.123-.119.185-.312.185-.581v-4.703c0-.127.063-.191.191-.191h.649c.128 0 .191.064.191.191v4.895c0 .155.039.273.116.355.146.146.422.219.827.219h.649v1.024zm-3.247-7.745c-.087 0-.13-.043-.13-.13v-.301c0-.086.043-.13.13-.13h.39v-.82c0-.287.103-.533.308-.738s.451-.308.738-.308c.465 0 .786.212.964.636l.062.137a.125.125 0 0 1 .014.055c0 .014-.005.03-.014.048a.121.121 0 0 1-.068.075l-.273.109a.228.228 0 0 1-.068.014c-.046 0-.08-.027-.103-.082l-.062-.137a.457.457 0 0 0-.451-.294c-.132 0-.246.048-.342.144s-.144.209-.144.342v.82h1.429c.087 0 .13.043.13.13v.301c0 .086-.043.13-.13.13h-2.38z"/><path d="M296.053 54.68h-.479c-.684 0-1.196-.171-1.538-.513a.124.124 0 0 1-.021-.027.164.164 0 0 1-.027.034.125.125 0 0 1-.021.027c-.319.319-.752.479-1.299.479h-2.099v-1.025h2.126c.246 0 .429-.062.547-.185.123-.119.185-.312.185-.581v-4.703c0-.127.062-.191.185-.191h.649c.128 0 .191.064.191.191v4.895c0 .16.039.278.116.355.146.146.424.219.834.219h.649v1.025zm-3.35 1.333c.128 0 .191.064.191.191v.82c0 .123-.063.185-.191.185h-.69c-.123 0-.185-.062-.185-.185v-.82c0-.127.062-.191.185-.191h.69zm1.867 0c.128 0 .191.064.191.191v.82c0 .123-.063.185-.191.185h-.684c-.128 0-.191-.062-.191-.185v-.82c0-.127.063-.191.191-.191h.684z"/><path d="M301.118 54.68h-.479c-.684 0-1.196-.173-1.538-.52l-.021-.021-.055.055c-.314.324-.745.485-1.292.485h-2.023v-1.025h2.044c.246-.004.431-.064.554-.178.123-.127.185-.321.185-.581v-4.717c0-.123.062-.185.185-.185h.649c.128 0 .191.062.191.185v4.901c0 .164.041.285.123.362.137.137.41.208.82.212h.656v1.027zm-1.77 1.237c.128 0 .191.064.191.191v.82c0 .123-.063.185-.191.185h-.684c-.128 0-.191-.062-.191-.185v-.82c0-.127.063-.191.191-.191h.684z"/><path d="M303.996 44.57c.123 0 .185.064.185.191v8.135c0 .547-.162.982-.485 1.306-.328.319-.761.479-1.299.479h-1.62v-1.025h1.627c.005.004.009.007.014.007.255-.004.439-.066.554-.185.123-.127.185-.319.185-.574v-8.142c0-.127.062-.191.185-.191h.654zm3.466 9.926c0 .123-.06.185-.178.185h-.663c-.123 0-.185-.062-.185-.185v-9.741c0-.123.062-.185.185-.185h.663c.118 0 .178.062.178.185v9.741zm9.577.184h-2.146v.533c0 .748-.212 1.331-.636 1.75-.419.424-1.003.636-1.75.636h-.704c-.123 0-.185-.062-.185-.185v-.656c0-.123.062-.185.185-.185h.704c.47 0 .812-.109 1.025-.328.219-.219.328-.563.328-1.032v-7.021c0-.127.062-.191.185-.191h.656c.128 0 .191.064.191.191v5.462h2.146v1.026zm-2.994-8.347c-.123 0-.185-.062-.185-.185v-.827c0-.123.062-.185.185-.185h.69c.123 0 .185.062.185.185v.827c0 .123-.062.185-.185.185h-.69z"/><path d="M321.838 54.68h-.479c-.684 0-1.196-.171-1.538-.513a.124.124 0 0 1-.021-.027.164.164 0 0 1-.027.034.125.125 0 0 1-.021.027c-.319.319-.752.479-1.299.479h-2.099v-1.025h2.126c.246 0 .429-.062.547-.185.123-.119.185-.312.185-.581v-4.703c0-.127.062-.191.185-.191h.649c.128 0 .191.064.191.191v4.895c0 .16.039.278.116.355.146.146.424.219.834.219h.649v1.025zm-3.35 1.333c.128 0 .191.064.191.191v.82c0 .123-.063.185-.191.185h-.69c-.123 0-.185-.062-.185-.185v-.82c0-.127.062-.191.185-.191h.69zm1.867 0c.128 0 .191.064.191.191v.82c0 .123-.063.185-.191.185h-.684c-.128 0-.191-.062-.191-.185v-.82c0-.127.063-.191.191-.191h.684z"/><path d="M331.443 54.68h-.854c-.602 0-1.092-.187-1.47-.561a1.753 1.753 0 0 1-.205-.253c-.579.542-1.256.813-2.03.813h-5.387v-1.025h2.434v-2.98c0-.816.289-1.513.868-2.092.574-.579 1.27-.868 2.085-.868s1.511.29 2.085.868a2.85 2.85 0 0 1 .868 2.092v1.046c0 .488-.114.948-.342 1.381a.648.648 0 0 0 .164.294c.173.173.422.26.745.26h1.039v1.025zm-4.56-1.025c.533 0 .989-.189 1.367-.567s.567-.834.567-1.367v-1.046c0-.533-.189-.989-.567-1.367-.378-.374-.834-.561-1.367-.561s-.986.187-1.36.561a1.864 1.864 0 0 0-.567 1.367v2.98h1.927z"/><path d="M336.891 54.68h-.479c-.688 0-1.203-.171-1.545-.513 0-.004-.002-.009-.007-.014s-.007-.009-.007-.014l-.062.062h.007c-.319.319-.75.479-1.292.479H331.1v-1.025h2.427c.246 0 .429-.062.547-.185.128-.123.191-.317.191-.581v-4.703c0-.127.06-.191.178-.191h.656c.123 0 .185.064.185.191v4.895c0 .16.041.278.123.355.142.146.417.219.827.219h.656v1.025zm-3.398-8.347c-.128 0-.191-.062-.191-.185v-.827c0-.123.063-.185.191-.185h.697c.123 0 .185.062.185.185v.827c0 .123-.062.185-.185.185h-.697zm1.867 0c-.123 0-.185-.062-.185-.185v-.827c0-.123.062-.185.185-.185h.684c.128 0 .191.062.191.185v.827c0 .123-.063.185-.191.185h-.684z"/><path d="M340.555 47.995c.118 0 .178.062.178.185v4.717c0 .547-.159.982-.479 1.306-.333.319-.766.479-1.299.479h-2.406v-1.025h2.413c.005.004.009.007.014.007.251-.009.433-.071.547-.185.128-.132.191-.324.191-.574v-4.724c0-.123.06-.185.178-.185h.663zm-1.607-1.662c-.128 0-.191-.062-.191-.185v-.827c0-.123.063-.185.191-.185h.684c.128 0 .191.062.191.185v.827c0 .123-.063.185-.191.185h-.684zm2.55-1.196c.128 0 .191.062.191.185v.827c0 .123-.063.185-.191.185h-.684c-.128 0-.191-.062-.191-.185v-.827c0-.123.063-.185.191-.185h.684zm-42.315 77.518v1.025h-5.154c-.815 0-1.511-.29-2.085-.868a2.85 2.85 0 0 1-.868-2.092v-1.046c0-.816.289-1.513.868-2.092.574-.579 1.27-.868 2.085-.868s1.513.29 2.092.868c.574.579.861 1.276.861 2.092v2.98h2.201zm-3.22-2.981c0-.533-.189-.989-.567-1.367-.378-.374-.834-.561-1.367-.561s-.986.187-1.36.561a1.864 1.864 0 0 0-.567 1.367v1.046c0 .533.189.989.567 1.367.374.378.827.567 1.36.567h1.935v-2.98zm-3.411-4.341c-.123 0-.185-.062-.185-.185v-.827c0-.123.062-.185.185-.185h.69c.128 0 .191.062.191.185v.827c0 .123-.063.185-.191.185h-.69zm1.866 0c-.123 0-.185-.062-.185-.185v-.827c0-.123.062-.185.185-.185h.69c.128 0 .191.062.191.185v.827c0 .123-.063.185-.191.185h-.69z"/><path d="M303.982 123.68h-.479c-.684 0-1.196-.171-1.538-.513a.124.124 0 0 1-.021-.027.164.164 0 0 1-.027.034.125.125 0 0 1-.021.027c-.319.319-.752.479-1.299.479h-2.099v-1.025h2.126c.246 0 .429-.062.547-.185.123-.119.185-.312.185-.581v-4.703c0-.127.062-.191.185-.191h.649c.128 0 .191.064.191.191v4.895c0 .16.039.278.116.355.146.146.424.219.834.219h.649v1.025zm-3.35 1.333c.128 0 .191.064.191.191v.82c0 .123-.063.185-.191.185h-.69c-.123 0-.185-.062-.185-.185v-.82c0-.127.062-.191.185-.191h.69zm1.866 0c.128 0 .191.064.191.191v.82c0 .123-.063.185-.191.185h-.684c-.128 0-.191-.062-.191-.185v-.82c0-.127.063-.191.191-.191h.684z"/><path d="M308.774 123.68h-.54c-.688 0-1.201-.171-1.538-.513l-.027-.027a.504.504 0 0 1-.048.062c-.314.319-.745.479-1.292.479h-1.688v-1.025h1.709c.246 0 .431-.062.554-.185.118-.119.178-.312.178-.581v-8.128c0-.123.063-.185.191-.185h.649c.128 0 .191.062.191.185v8.319c0 .164.039.283.116.355.142.146.417.219.827.219h.718v1.025z"/><path d="M313.613 116.721c.815 0 1.513.29 2.092.868.579.574.868 1.269.868 2.085v1.053c0 .811-.289 1.506-.868 2.085s-1.276.868-2.092.868h-5.25v-1.025h2.297v-2.98c0-.816.287-1.511.861-2.085a2.855 2.855 0 0 1 2.092-.869zm1.935 2.953a1.84 1.84 0 0 0-.567-1.36c-.378-.378-.834-.567-1.367-.567s-.986.189-1.36.567a1.842 1.842 0 0 0-.567 1.36v2.98h1.928c.533 0 .989-.189 1.367-.567s.567-.832.567-1.36v-1.053zm4.792-2.673c.123 0 .185.062.185.185v7.027c0 .748-.21 1.331-.629 1.75-.424.424-1.01.636-1.757.636h-.697c-.123 0-.185-.064-.185-.191v-.649c0-.127.062-.191.185-.191h.697c.47 0 .813-.107 1.032-.321.219-.219.328-.563.328-1.032v-7.027c0-.123.06-.185.178-.185h.663zm-24.253 36.897v1.025h-5.154c-.815 0-1.511-.29-2.085-.868a2.85 2.85 0 0 1-.868-2.092v-1.046c0-.816.289-1.514.868-2.092.574-.579 1.27-.868 2.085-.868s1.513.289 2.092.868a2.86 2.86 0 0 1 .861 2.092v2.98h2.201zm-3.22-2.98c0-.533-.189-.989-.567-1.367-.378-.374-.834-.561-1.367-.561s-.986.187-1.36.561a1.864 1.864 0 0 0-.567 1.367v1.046c0 .533.189.988.567 1.367.374.378.827.567 1.36.567h1.935v-2.98zm-3.411-4.341c-.123 0-.185-.062-.185-.185v-.827c0-.123.062-.185.185-.185h.69c.128 0 .191.062.191.185v.827c0 .123-.063.185-.191.185h-.69zm1.866 0c-.123 0-.185-.062-.185-.185v-.827c0-.123.062-.185.185-.185h.69c.128 0 .191.062.191.185v.827c0 .123-.063.185-.191.185h-.69z"/><path d="M300.886 154.924h-.479c-.684 0-1.196-.171-1.538-.513a.2.2 0 0 1-.021-.027.164.164 0 0 1-.027.034.158.158 0 0 1-.021.027c-.319.318-.752.479-1.299.479h-2.099v-1.025h2.126c.246 0 .429-.062.547-.185.123-.119.185-.313.185-.581v-4.703c0-.128.062-.191.185-.191h.649c.128 0 .191.063.191.191v4.895c0 .159.039.277.116.355.146.146.424.219.834.219h.649v1.025zm-3.35 1.333c.128 0 .191.063.191.191v.82c0 .123-.063.185-.191.185h-.69c-.123 0-.185-.062-.185-.185v-.82c0-.128.062-.191.185-.191h.69zm1.867 0c.128 0 .191.063.191.191v.82c0 .123-.063.185-.191.185h-.684c-.128 0-.191-.062-.191-.185v-.82c0-.128.063-.191.191-.191h.684z"/><path d="M306.027 154.924h-.479c-.684 0-1.196-.171-1.538-.513a.2.2 0 0 1-.021-.027.164.164 0 0 1-.027.034.158.158 0 0 1-.021.027c-.319.318-.752.479-1.299.479h-2.099v-1.025h2.126c.246 0 .429-.062.547-.185.123-.119.185-.313.185-.581v-4.703c0-.128.062-.191.185-.191h.649c.128 0 .191.063.191.191v4.895c0 .159.039.277.116.355.146.146.424.219.834.219h.649v1.025zm-2.461-8.347c-.123 0-.185-.062-.185-.185v-.827c0-.123.062-.185.185-.185h.69c.128 0 .191.062.191.185v.827c0 .123-.063.185-.191.185h-.69z"/><path d="M311.167 154.924h-.479c-.684 0-1.196-.171-1.538-.513a.2.2 0 0 1-.021-.027.164.164 0 0 1-.027.034.158.158 0 0 1-.021.027c-.319.318-.752.479-1.299.479h-2.099v-1.025h2.126c.246 0 .429-.062.547-.185.123-.119.185-.313.185-.581v-4.703c0-.128.062-.191.185-.191h.649c.128 0 .191.063.191.191v4.895c0 .159.039.277.116.355.146.146.424.219.834.219h.649v1.025zm-3.349 1.333c.128 0 .191.063.191.191v.82c0 .123-.063.185-.191.185h-.69c-.123 0-.185-.062-.185-.185v-.82c0-.128.062-.191.185-.191h.69zm1.866 0c.128 0 .191.063.191.191v.82c0 .123-.063.185-.191.185H309c-.128 0-.191-.062-.191-.185v-.82c0-.128.063-.191.191-.191h.684z"/><path d="M317.655 147.965c.87 0 1.567.294 2.092.882.52.583.779 1.367.779 2.352v1.347c0 .742-.212 1.323-.636 1.743-.419.424-1.003.636-1.75.636h-7.314V153.9h2.201v-8.907c0-.123.066-.185.198-.185h.649c.123 0 .185.062.185.185v4.915c1.389-1.297 2.589-1.943 3.596-1.943zm1.845 3.233c0-.497-.094-.93-.28-1.299-.31-.606-.832-.909-1.565-.909-.47 0-1.061.226-1.774.677a7.209 7.209 0 0 0-1.821 1.627v2.604h4.081c.47 0 .813-.109 1.032-.328.219-.215.328-.557.328-1.025v-1.347zm-27.44 31.7c.128 0 .191.062.191.185v.656c0 .123-.063.185-.191.185h-4.396c-.123 0-.185-.062-.185-.185v-.656c0-.123.062-.185.185-.185h.752v-1.463c0-.523.185-.973.554-1.347a1.825 1.825 0 0 1 1.34-.554c.383 0 .733.105 1.053.314.319.21.552.49.697.841l.123.308a.274.274 0 0 1 .021.096c0 .064-.039.112-.116.144l-.602.26a.182.182 0 0 1-.075.014.166.166 0 0 1-.068-.014.19.19 0 0 1-.103-.096l-.123-.308c-.15-.355-.419-.533-.807-.533a.828.828 0 0 0-.615.26.828.828 0 0 0-.26.615v1.463h2.625zm3.479.841c0 .123-.06.185-.178.185h-.663c-.123 0-.185-.062-.185-.185v-9.741c0-.123.062-.185.185-.185h.663c.118 0 .178.062.178.185v9.741zm6.098.185h-2.14v.533c0 .748-.212 1.331-.636 1.75-.424.424-1.007.636-1.75.636h-.704c-.123 0-.185-.062-.185-.185v-.656c0-.123.062-.185.185-.185h.704c.47 0 .812-.109 1.025-.328.219-.219.328-.563.328-1.032v-7.021c0-.127.063-.191.191-.191h.656c.123 0 .185.064.185.191v5.462h2.14v1.026z"/><path d="M311.303 182.898v1.025h-10.35v-1.025h3.035a2.87 2.87 0 0 1-.725-1.928v-1.053c0-.815.289-1.511.868-2.085.579-.578 1.276-.868 2.092-.868s1.513.29 2.092.868c.579.574.868 1.27.868 2.085v2.98h2.12zm-7.007-1.927c0 .529.189.982.567 1.36.378.379.832.567 1.36.567h1.928v-2.98c0-.533-.187-.986-.561-1.36a1.864 1.864 0 0 0-1.367-.567c-.528 0-.982.189-1.36.567a1.842 1.842 0 0 0-.567 1.36v1.053zm1.415-5.394c-.128 0-.191-.062-.191-.185v-.827c0-.123.063-.185.191-.185h.684c.128 0 .191.062.191.185v.827c0 .123-.063.185-.191.185h-.684z"/><path d="M317.654 176.965c.87 0 1.567.294 2.092.882.52.584.779 1.367.779 2.352v1.347c0 .743-.212 1.324-.636 1.743-.419.424-1.003.636-1.75.636h-7.314V182.9h2.201v-5.291c0-.123.066-.185.198-.185h.649c.123 0 .185.062.185.185v1.306c1.389-1.301 2.589-1.95 3.596-1.95zm1.845 3.233c0-.496-.096-.93-.287-1.299-.306-.605-.825-.909-1.559-.909-.47 0-1.061.226-1.774.677a7.228 7.228 0 0 0-1.821 1.627v2.604h4.081c.47 0 .813-.109 1.032-.328.219-.214.328-.556.328-1.025v-1.347z"/></svg>