<svg xmlns="http://www.w3.org/2000/svg" width="409.227" height="269" viewBox="0 0 409.227 269"><path fill="#E5ECF3" d="M409.227 254c0 8.284-6.715 15-15 15H15c-8.284 0-15-6.716-15-15V15C0 6.716 6.716 0 15 0h379.227c8.285 0 15 6.716 15 15v239z"/><path fill="#FDFEFF" stroke="#91A4AD" stroke-miterlimit="10" d="M363.623 183.68c0 8.284-6.716 15-15 15h-276.5c-8.284 0-15-6.716-15-15v-68c0-8.284 6.716-15 15-15h276.5c8.284 0 15 6.716 15 15v68zm0-131.5c0 9.112-7.388 16.5-16.5 16.5h-274c-9.113 0-16.5-7.388-16.5-16.5s7.387-16.5 16.5-16.5h274c9.112 0 16.5 7.388 16.5 16.5z"/><path fill="#E6245E" d="M169.623 231.68c0 8.008-6.492 14.5-14.5 14.5h-32.5c-8.008 0-14.5-6.492-14.5-14.5s6.492-14.5 14.5-14.5h32.5c8.008 0 14.5 6.493 14.5 14.5z"/><path fill="#030404" d="M57.448 235.971v1.309h-9.214c-.431 0-.765.163-1.003.488-.215.291-.323.649-.323 1.073 0 .431.154.8.462 1.108.302.303.672.454 1.108.454h1.545c.157 0 .235.081.235.244v.829c0 .157-.079.235-.235.235h-1.545a2.765 2.765 0 0 1-2.033-.838 2.772 2.772 0 0 1-.847-2.033c0-.831.25-1.518.75-2.059.494-.541 1.123-.812 1.885-.812h1.283l-1.754-3.735a.726.726 0 0 1-.061-.279c0-.028.003-.058.009-.087.128-.884.561-1.673 1.3-2.364.797-.739 1.698-1.108 2.705-1.108 1.012 0 1.914.346 2.705 1.038.791.698 1.225 1.521 1.3 2.47v.061a.684.684 0 0 1-.061.271l-1.745 3.735h3.534zm-6.483 0h1.5l1.929-4.119c-.093-.581-.401-1.085-.925-1.51-.529-.424-1.114-.637-1.754-.637-.628 0-1.207.229-1.736.689-.495.425-.806.916-.934 1.475l1.92 4.102z"/><path fill="#030404" d="M63.46 228.388c1.14 0 2.115.404 2.923 1.213s1.213 1.783 1.213 2.923v1.711c0 .954-.268 1.698-.803 2.233-.541.541-1.286.812-2.234.812h-7.548v-1.309h7.548c.599 0 1.038-.14 1.317-.419.273-.279.41-.719.41-1.317v-1.711c0-.779-.276-1.442-.829-1.989a2.723 2.723 0 0 0-1.998-.829c-1.286 0-2.237.442-2.854 1.326l-.244.341c-.047.081-.105.122-.174.122a.244.244 0 0 1-.148-.062l-.681-.471c-.082-.053-.122-.113-.122-.184a.31.31 0 0 1 .052-.157l.244-.34c.518-.751 1.245-1.286 2.182-1.605a5.417 5.417 0 0 1 1.746-.288zm-.541 10.47c.157 0 .236.082.236.245v1.047c0 .157-.079.235-.236.235h-.873c-.163 0-.244-.078-.244-.235v-1.047c0-.163.081-.245.244-.245h.873zm8.866-1.814c0 .157-.076.235-.227.235h-.846c-.157 0-.236-.078-.236-.235v-12.435c0-.157.079-.236.236-.236h.846c.151 0 .227.079.227.236v12.435zm7.783.235h-2.731v.681c0 .954-.271 1.698-.812 2.233-.541.541-1.286.812-2.234.812h-.899c-.157 0-.235-.078-.235-.235v-.838c0-.156.079-.235.235-.235h.899c.599 0 1.035-.14 1.309-.419.279-.279.418-.719.418-1.317v-8.962c0-.162.082-.244.245-.244h.837c.157 0 .236.082.236.244v6.973h2.731l.001 1.307z"/><path fill="#030404" d="M83.809 228.745c.151 0 .227.079.227.235v6.021c0 .698-.204 1.254-.61 1.667-.425.407-.978.61-1.658.61h-3.071v-1.309h3.08c.006.006.012.009.018.009.32-.012.552-.091.698-.236.163-.168.245-.413.245-.732v-6.03c0-.156.075-.235.227-.235h.844zm-2.051-2.12c-.163 0-.244-.079-.244-.235v-1.057c0-.156.082-.235.244-.235h.873c.163 0 .245.079.245.235v1.057c0 .156-.082.235-.245.235h-.873zm3.255-1.528c.163 0 .244.079.244.235v1.057c0 .156-.082.235-.244.235h-.873c-.163 0-.244-.079-.244-.235v-1.057c0-.156.081-.235.244-.235h.873zm12.426 11.947c0 .157-.076.235-.227.235h-.846c-.157 0-.236-.078-.236-.235v-12.435c0-.157.079-.236.236-.236h.846c.151 0 .227.079.227.236v12.435z"/><path fill="#FFF" d="M126.68 237.279h-.602c-.78 0-1.408-.235-1.885-.707a2.287 2.287 0 0 1-.148-.191c-.523.599-1.338.898-2.443.898h-3.839c-.157 0-.235-.078-.235-.235v-.829c0-.163.079-.244.235-.244h3.839c.681 0 1.149-.131 1.405-.393.221-.216.332-.582.332-1.1v-2.862c0-.523-.189-.975-.567-1.353a1.863 1.863 0 0 0-1.353-.559c-.756 0-1.323.134-1.702.401l-.34.235a.262.262 0 0 1-.14.044h-.035a.209.209 0 0 1-.157-.096l-.48-.681a.178.178 0 0 1-.052-.131v-.044a.241.241 0 0 1 .105-.157l.332-.235c.605-.431 1.428-.646 2.469-.646.884 0 1.644.313 2.277.942.628.628.942 1.387.942 2.277v3.377c0 .262.084.477.253.646.221.222.541.332.959.332h.829l.001 1.311z"/><path fill="#FFF" d="M133.242 237.279h-.611c-.873 0-1.527-.218-1.963-.654a.113.113 0 0 1-.026-.035.183.183 0 0 1-.035.044.39.39 0 0 1-.026.035c-.407.407-.959.61-1.658.61h-2.679v-1.309h2.713c.314 0 .547-.079.698-.236.157-.15.236-.398.236-.741v-6.004c0-.162.078-.244.235-.244h.829c.163 0 .244.082.244.244v6.248c0 .204.049.355.148.454.186.186.541.279 1.064.279h.829v1.309h.002zm-4.276 1.701c.163 0 .245.082.245.245v1.047c0 .157-.082.235-.245.235h-.881c-.157 0-.235-.078-.235-.235v-1.047c0-.163.079-.245.235-.245h.881zm2.382 0c.163 0 .244.082.244.245v1.047c0 .157-.082.235-.244.235h-.873c-.163 0-.244-.078-.244-.235v-1.047c0-.163.081-.245.244-.245h.873z"/><path fill="#FFF" d="M139.891 229.268c1.146 0 2.094.381 2.844 1.144.745.762 1.117 1.728 1.117 2.896v1.693c0 .698-.207 1.254-.62 1.667-.413.407-.966.61-1.658.61h-8.77v-1.309h8.761c.337 0 .582-.079.733-.236.163-.156.244-.401.244-.732v-1.693c0-.814-.244-1.472-.733-1.972s-1.128-.75-1.919-.75h-4.023c-.18 0-.334-.064-.462-.192s-.192-.282-.192-.463c0-1.529.39-2.725 1.169-3.586.785-.861 1.87-1.292 3.254-1.292h1.483c.157 0 .236.079.236.236v.838c0 .156-.079.235-.236.235h-1.483c-1.861 0-2.888.969-3.08 2.905h3.335v.001zm6.126-6.082c-.105 0-.157-.055-.157-.166v-.384c0-.11.052-.165.157-.165h.506v-1.048c0-.366.131-.681.393-.942.262-.261.576-.393.942-.393.594 0 1.006.271 1.239.812l.07.184a.107.107 0 0 1 .018.061.141.141 0 0 1-.018.062c-.012.041-.041.072-.087.096l-.357.14a.152.152 0 0 1-.123.009c-.046-.023-.076-.053-.087-.087l-.079-.184c-.105-.25-.297-.375-.576-.375a.604.604 0 0 0-.445.184.596.596 0 0 0-.183.436v1.048h1.833c.11 0 .166.055.166.165v.384c0 .111-.055.166-.166.166h-3.046v-.003zm3.987 14.093h-.838c-.704 0-1.256-.203-1.658-.61-.419-.419-.628-.978-.628-1.676v-10.375c0-.163.082-.245.244-.245h.829c.163 0 .244.082.244.245v10.375c0 .343.079.591.236.741.151.157.396.236.733.236h.838v1.309z"/><path fill="#FFF" d="M154.681 228.745c.151 0 .227.079.227.235v6.021c0 .698-.204 1.254-.61 1.667-.425.407-.978.61-1.658.61h-3.071v-1.309h3.08c.006.006.012.009.018.009.32-.012.552-.091.698-.236.163-.168.245-.413.245-.732v-6.03c0-.156.075-.235.227-.235h.844zm-2.051-2.12c-.163 0-.244-.079-.244-.235v-1.057c0-.156.082-.235.244-.235h.873c.163 0 .245.079.245.235v1.057c0 .156-.082.235-.245.235h-.873zm3.255-1.528c.163 0 .244.079.244.235v1.057c0 .156-.082.235-.244.235h-.873c-.163 0-.244-.079-.244-.235v-1.057c0-.156.081-.235.244-.235h.873z"/><circle fill="#E0E0DF" stroke="#798F9A" stroke-miterlimit="10" cx="346.699" cy="120.924" r="6.576"/><circle fill="#BED031" cx="346.699" cy="150.924" r="6.576"/><circle fill="#E0E0DF" stroke="#798F9A" stroke-miterlimit="10" cx="346.699" cy="180.924" r="6.576"/><g fill="#030404"><path d="M302.842 19.758c.087 0 .131.043.131.13v.896c0 .087-.044.13-.131.13h-.766c-.086 0-.129-.043-.129-.13v-.896c0-.087.043-.13.129-.13h.766zm0 5.434c.087 0 .131.043.131.13v.896c0 .087-.044.13-.131.13h-.766c-.086 0-.129-.043-.129-.13v-.896c0-.087.043-.13.129-.13h.766zm11.252-8.955c.128 0 .191.063.191.191v9.352a2.92 2.92 0 0 1-.889 2.146 2.922 2.922 0 0 1-2.146.889 2.913 2.913 0 0 1-2.139-.889 2.923 2.923 0 0 1-.889-2.146v-3.302c0-.123.061-.185.184-.185h.656c.123 0 .186.062.186.185v3.302c0 .556.195 1.03.588 1.422.392.392.863.588 1.414.588.557 0 1.028-.196 1.416-.588.392-.392.588-.866.588-1.422v-9.352c0-.128.063-.191.191-.191h.649zm3.472 9.926c0 .123-.059.185-.178.185h-.662c-.123 0-.186-.062-.186-.185v-9.741c0-.123.062-.185.186-.185h.662c.119 0 .178.062.178.185v9.741zm10.084-.841v1.025h-2.119v.164c0 .747-.273 1.393-.82 1.935-.543.547-1.189.82-1.941.82h-1.443c-.123 0-.184-.062-.184-.185v-.656c0-.123.061-.185.184-.185h1.443c.469 0 .877-.171 1.223-.513.342-.347.514-.752.514-1.217v-.163h-1.928a2.862 2.862 0 0 1-2.092-.861 2.851 2.851 0 0 1-.869-2.092v-1.053c0-.815.29-1.511.869-2.085a2.847 2.847 0 0 1 2.092-.868 2.84 2.84 0 0 1 2.084.868 2.83 2.83 0 0 1 .869 2.085v2.98h2.118v.001zm-3.144-2.98c0-.533-.189-.986-.568-1.36a1.854 1.854 0 0 0-1.359-.567c-.533 0-.989.189-1.367.567a1.839 1.839 0 0 0-.568 1.36v1.053c0 .528.189.982.568 1.36.378.378.834.567 1.367.567h1.928v-2.98h-.001zm-3.166-4.259c-.086 0-.129-.043-.129-.13v-.301c0-.087.043-.13.129-.13h.391v-.813c0-.292.102-.54.307-.745s.454-.308.746-.308c.465 0 .785.214.963.643l.055.13a.145.145 0 0 1 .008.103.127.127 0 0 1-.068.075l-.281.116a.166.166 0 0 1-.061.014c-.051 0-.087-.027-.109-.082l-.062-.137a.444.444 0 0 0-.443-.301c-.137 0-.254.048-.35.144s-.143.212-.143.349v.813h1.436c.086 0 .129.043.129.13v.301c0 .087-.043.13-.129.13l-2.389-.001z"/><path d="M339.545 26.347h-.473c-.609 0-1.102-.185-1.477-.554l-.014-.021a.143.143 0 0 1-.02-.027.702.702 0 0 1-.104.123c-.318.319-.75.479-1.291.479h-.711c-.68 0-1.191-.171-1.539-.513-.004-.005-.006-.009-.006-.014a.092.092 0 0 1-.014-.014.264.264 0 0 0-.055.062h.006c-.318.319-.754.479-1.305.479h-.697c-.684 0-1.197-.171-1.539-.513a.092.092 0 0 0-.014-.014c-.004-.005-.006-.009-.006-.014-.02.027-.035.048-.049.062-.318.319-.752.479-1.299.479h-1.77v-1.025h1.797c.252 0 .434-.062.547-.185.123-.123.186-.316.186-.581v-4.709c0-.123.061-.185.184-.185h.656c.123 0 .186.062.186.185v4.901c0 .155.039.273.115.355.15.146.43.219.834.219h.902c.246 0 .43-.062.547-.185.123-.118.186-.312.186-.581v-4.341c0-.123.061-.185.184-.185h.656c.123 0 .186.062.186.185v4.532c0 .159.039.278.115.355.146.146.424.219.834.219h.883c.25 0 .439-.062.566-.185.123-.123.186-.316.186-.581v-4.708c0-.123.061-.185.184-.185h.656c.123 0 .186.062.186.185v4.71c0 .205.066.374.197.506.174.173.422.26.746.26h.656v1.024h.002z"/><path d="M342.422 16.237c.123 0 .186.063.186.191v8.135c0 .547-.162.982-.486 1.306-.328.319-.76.479-1.299.479h-1.619v-1.025h1.627a.016.016 0 0 0 .014.007c.254-.005.439-.066.553-.185.123-.128.186-.319.186-.574v-8.142c0-.128.061-.191.184-.191h.654v-.001zm3.467 9.926c0 .123-.061.185-.178.185h-.664c-.123 0-.184-.062-.184-.185v-9.741c0-.123.061-.185.184-.185h.664c.117 0 .178.062.178.185v9.741z"/></g><g fill="#030404"><path d="M231.481 83.092c.087 0 .13.043.13.13v.896c0 .087-.043.13-.13.13h-.766c-.087 0-.13-.043-.13-.13v-.896c0-.087.043-.13.13-.13h.766zm0 5.434c.087 0 .13.043.13.13v.896c0 .087-.043.13-.13.13h-.766c-.087 0-.13-.043-.13-.13v-.896c0-.087.043-.13.13-.13h.766zm17.767 1.155h-.479c-.68 0-1.191-.171-1.538-.513a1.226 1.226 0 0 1-.157-.191c-.42.47-1.021.704-1.805.704h-2.871c-.338 0-.6.128-.786.383-.169.224-.253.504-.253.841s.119.627.355.868c.242.237.531.355.868.355h.834c.128 0 .191.063.191.191v.649c0 .123-.063.185-.191.185h-.834c-.62 0-1.151-.219-1.593-.656a2.181 2.181 0 0 1-.656-1.593c0-.651.193-1.189.581-1.613.392-.424.886-.636 1.483-.636h2.871c.465 0 .807-.109 1.025-.328.219-.214.328-.556.328-1.025v-1.347c0-.61-.217-1.13-.649-1.559a2.125 2.125 0 0 0-1.559-.649c-1.012 0-1.759.347-2.242 1.039l-.191.267a.166.166 0 0 1-.123.082h-.034a.181.181 0 0 1-.103-.034l-.533-.369a.2.2 0 0 1-.075-.123v-.034c0-.041.01-.077.027-.109l.191-.267c.688-.984 1.716-1.477 3.083-1.477a3.11 3.11 0 0 1 2.283.95c.634.629.95 1.39.95 2.283v2.126c0 .155.039.273.116.355.146.146.424.219.834.219h.649v1.026h.003z"/><path d="M254.389 89.681h-.479c-.684 0-1.196-.171-1.538-.513a.117.117 0 0 1-.021-.027.136.136 0 0 1-.027.034.235.235 0 0 1-.021.027c-.319.319-.752.479-1.299.479h-2.099v-1.025h2.126c.246 0 .429-.062.547-.185.123-.118.185-.312.185-.581v-4.703c0-.128.062-.191.185-.191h.649c.127 0 .191.063.191.191v4.895c0 .159.039.278.116.355.146.146.424.219.834.219h.649v1.025h.002zm-3.35 1.333c.127 0 .191.063.191.191v.82c0 .123-.064.185-.191.185h-.69c-.123 0-.185-.062-.185-.185v-.82c0-.128.062-.191.185-.191h.69zm1.866 0c.128 0 .191.063.191.191v.82c0 .123-.063.185-.191.185h-.684c-.128 0-.191-.062-.191-.185v-.82c0-.128.063-.191.191-.191h.684z"/><path d="M263.945 89.681h-.485c-.679 0-1.192-.171-1.538-.513a2.036 2.036 0 0 1-.15-.191c-.42.47-1.023.704-1.812.704h-5.913v-1.025h5.913c.47 0 .813-.109 1.032-.328.215-.214.321-.556.321-1.025v-1.347c0-.61-.214-1.13-.643-1.559a2.132 2.132 0 0 0-1.565-.649c-1.002 0-1.75.349-2.242 1.046l-.191.267c-.041.06-.089.089-.144.089a.193.193 0 0 1-.116-.048l-.533-.376a.195.195 0 0 1-.075-.123v-.034c0-.036.009-.07.027-.103l.191-.267c.711-.984 1.739-1.477 3.083-1.477.893 0 1.654.316 2.283.95a3.1 3.1 0 0 1 .95 2.283v2.126c0 .159.041.278.123.355.146.146.421.219.827.219h.656l.001 1.026z"/><path d="M274.896 89.681h-.472c-.606 0-1.097-.185-1.47-.554a2.879 2.879 0 0 1-.178-.205c-.42.506-1.039.759-1.859.759h-7.314v-1.025h2.201v-5.291c0-.123.064-.185.191-.185h.649c.123 0 .185.062.185.185v1.299c1.385-1.294 2.586-1.941 3.603-1.941.87 0 1.565.294 2.085.882.52.583.779 1.367.779 2.352v1.935c0 .214.064.383.191.506.174.173.422.26.745.26h.663v1.023h.001zm-2.625-3.725c0-.497-.094-.93-.28-1.299-.306-.606-.825-.909-1.559-.909-.93 0-2.13.768-3.603 2.304v2.604h4.088c.465 0 .807-.109 1.025-.328.219-.214.328-.556.328-1.025l.001-1.347z"/><path d="M277.774 79.571c.123 0 .185.063.185.191v8.135c0 .547-.162.982-.485 1.306-.328.319-.761.479-1.299.479h-1.62v-1.025h1.627c.004.005.01.007.014.007.256-.005.439-.066.554-.185.123-.128.185-.319.185-.574v-8.142c0-.128.062-.191.185-.191h.654v-.001zm3.466 9.926c0 .123-.059.185-.178.185h-.663c-.123 0-.185-.062-.185-.185v-9.741c0-.123.062-.185.185-.185h.663c.119 0 .178.062.178.185v9.741zm14.766-6.399c.127 0 .191.062.191.185v4.607c0 .542-.164.979-.492 1.312-.324.319-.756.479-1.299.479h-4.895a2.893 2.893 0 0 1-2.133-.889 2.94 2.94 0 0 1-.889-2.146c0-.579.152-1.119.458-1.62.31-.501.72-.884 1.23-1.148l.294-.15a.204.204 0 0 1 .075-.014c.022 0 .046.002.068.007.05.014.085.046.103.096l.301.581a.19.19 0 0 1 .034.103c0 .06-.038.109-.116.15l-.287.144c-.346.173-.622.429-.827.766s-.308.699-.308 1.087c0 .556.195 1.03.588 1.422.393.388.861.581 1.408.581h4.942c.228 0 .403-.06.526-.178.123-.123.185-.316.185-.581v-4.607c0-.123.062-.185.185-.185h.658v-.002zm-3.835 7.821c.123 0 .185.063.185.191v.752c0 .123-.062.185-.185.185h-.69c-.127 0-.191-.062-.191-.185v-.752c0-.128.064-.191.191-.191h.69zm7.307-1.422c0 .123-.059.185-.178.185h-.663c-.123 0-.185-.062-.185-.185v-9.741c0-.123.062-.185.185-.185h.663c.119 0 .178.062.178.185v9.741zm10.083-.841v1.025h-2.119v.164c0 .743-.273 1.388-.82 1.935-.542.547-1.187.82-1.935.82h-1.456c-.118 0-.178-.062-.178-.185v-.656c0-.123.06-.185.178-.185h1.456c.469 0 .875-.171 1.217-.513.342-.347.513-.752.513-1.217v-.164h-1.928a2.865 2.865 0 0 1-2.092-.861 2.85 2.85 0 0 1-.868-2.092v-1.053c0-.815.289-1.511.868-2.085a2.85 2.85 0 0 1 2.092-.868 2.84 2.84 0 0 1 2.085.868c.578.574.868 1.27.868 2.085v2.98h2.119v.002zm-3.144-2.98c0-.533-.188-.986-.567-1.36a1.858 1.858 0 0 0-1.36-.567c-.533 0-.989.189-1.367.567a1.842 1.842 0 0 0-.567 1.36v1.053c0 .528.189.982.567 1.36s.834.567 1.367.567h1.928v-2.98h-.001z"/><path d="M318.975 89.681h-.479c-.684 0-1.199-.173-1.545-.52a1.645 1.645 0 0 1-.15-.185c-.42.47-1.023.704-1.812.704h-5.906v-1.025h5.906c.47-.005.813-.111 1.032-.321.219-.224.328-.567.328-1.032v-1.347c0-.61-.217-1.13-.649-1.559a2.132 2.132 0 0 0-1.565-.649c-.994 0-1.74.349-2.242 1.046l-.191.267c-.041.06-.089.089-.144.089a.193.193 0 0 1-.116-.048l-.533-.376a.195.195 0 0 1-.075-.123v-.034c0-.036.011-.073.034-.109l.191-.267c.701-.979 1.727-1.47 3.076-1.47.893 0 1.656.314 2.29.943.634.634.95 1.396.95 2.29v2.126c0 .164.041.285.123.362.137.137.41.207.82.212h.656v1.026h.001zm-5.264 1.238c.123 0 .185.063.185.191v.82c0 .123-.062.185-.185.185h-.69c-.128 0-.191-.062-.191-.185v-.82c0-.128.063-.191.191-.191h.69z"/><path d="M321.852 79.571c.123 0 .185.063.185.191v8.135c0 .547-.162.982-.485 1.306-.328.319-.761.479-1.299.479h-1.62v-1.025h1.627c.004.005.01.007.014.007.256-.005.439-.066.554-.185.123-.128.185-.319.185-.574v-8.142c0-.128.062-.191.185-.191h.654v-.001zm3.466 9.926c0 .123-.059.185-.178.185h-.663c-.123 0-.185-.062-.185-.185v-9.741c0-.123.062-.185.185-.185h.663c.119 0 .178.062.178.185v9.741zm9.571.184h-2.14v.533c0 .747-.212 1.331-.636 1.75-.424.424-1.008.636-1.75.636h-.704c-.123 0-.185-.062-.185-.185v-.656c0-.123.062-.185.185-.185h.704c.469 0 .811-.109 1.025-.328.219-.219.328-.562.328-1.032v-7.021c0-.128.064-.191.191-.191h.656c.123 0 .185.063.185.191v5.462h2.14l.001 1.026z"/><path d="M339.995 89.681h-.479c-.688 0-1.203-.171-1.545-.513 0-.005-.003-.009-.007-.014s-.007-.009-.007-.014l-.062.062h.007c-.319.319-.749.479-1.292.479h-2.406v-1.025h2.427c.246 0 .429-.062.547-.185.128-.123.191-.316.191-.581v-4.703c0-.128.06-.191.178-.191h.656c.123 0 .185.063.185.191v4.895c0 .159.041.278.123.355.141.146.417.219.827.219h.656v1.025h.001zm-3.397-8.346c-.127 0-.191-.062-.191-.185v-.827c0-.123.064-.185.191-.185h.697c.123 0 .185.062.185.185v.827c0 .123-.062.185-.185.185h-.697zm1.866 0c-.123 0-.185-.062-.185-.185v-.827c0-.123.062-.185.185-.185h.684c.128 0 .191.062.191.185v.827c0 .123-.063.185-.191.185h-.684z"/><path d="M344.712 82.716c.894 0 1.654.316 2.283.95.634.634.95 1.396.95 2.29v1.34c0 .747-.21 1.331-.629 1.75-.419.424-1.002.636-1.75.636h-5.913v-1.025h5.913c.469 0 .813-.109 1.032-.328s.328-.562.328-1.032v-1.34c0-.606-.216-1.126-.649-1.559s-.955-.649-1.565-.649c-1.003 0-1.75.349-2.242 1.046l-.191.26c-.022.046-.063.073-.123.082h-.027a.208.208 0 0 1-.103-.034l-.533-.376a.171.171 0 0 1-.082-.123v-.034c0-.036.012-.07.034-.103l.185-.267c.696-.99 1.723-1.484 3.082-1.484zm-.54-1.381c-.123 0-.185-.062-.185-.185v-.827c0-.123.062-.185.185-.185h.69c.123 0 .185.062.185.185v.827c0 .123-.062.185-.185.185h-.69z"/></g><path fill="#010101" d="M351.182 89.498c0 .123-.06.185-.178.185h-.663c-.123 0-.185-.062-.185-.185v-9.741c0-.123.062-.185.185-.185h.663c.118 0 .178.062.178.185v9.741z"/><path d="M135.039 49.214c.697 0 1.294.249 1.791.745.492.492.738 1.087.738 1.784v2.235c0 .82-.262 1.415-.786 1.784-.396.278-.93.417-1.6.417h-3.001c-.123 0-.185-.062-.185-.185v-.656c0-.123.062-.185.185-.185h3.001c.533 0 .902-.103 1.107-.308.168-.173.253-.462.253-.868v-2.235c0-.415-.146-.768-.438-1.06a1.465 1.465 0 0 0-1.066-.438c-.592 0-1.035.103-1.326.308l-.267.191a.194.194 0 0 1-.116.034h-.021a.195.195 0 0 1-.123-.075l-.383-.533a.204.204 0 0 1-.034-.109v-.027a.213.213 0 0 1 .075-.123l.273-.191c.467-.336 1.107-.505 1.923-.505zm7.26.007c.816 0 1.513.29 2.092.868a2.84 2.84 0 0 1 .861 2.085v4.17c0 .748-.271 1.392-.813 1.935-.547.547-1.194.82-1.941.82h-1.449c-.123 0-.185-.062-.185-.185v-.656c0-.123.062-.185.185-.185h1.449c.469 0 .875-.171 1.217-.513s.513-.748.513-1.217v-.163H142.3a2.84 2.84 0 0 1-2.085-.861 2.85 2.85 0 0 1-.868-2.092v-1.053c0-.816.29-1.511.868-2.085a2.827 2.827 0 0 1 2.084-.868zm1.928 2.953a1.84 1.84 0 0 0-.567-1.36c-.374-.378-.827-.567-1.36-.567s-.989.189-1.367.567a1.852 1.852 0 0 0-.561 1.36v1.053c0 .529.187.982.561 1.36.378.378.834.567 1.367.567h1.928v-2.98zm10.042 4.006h-.472c-.611 0-1.103-.185-1.477-.554a1.71 1.71 0 0 1-.116-.15c-.41.469-1.048.704-1.914.704h-3.008c-.123 0-.185-.062-.185-.185v-.649c0-.127.062-.191.185-.191h3.008c.533 0 .9-.103 1.101-.308.173-.168.26-.456.26-.861v-2.242c0-.41-.148-.763-.444-1.06a1.456 1.456 0 0 0-1.06-.438c-.592 0-1.037.105-1.333.314l-.267.185a.204.204 0 0 1-.109.034h-.027a.164.164 0 0 1-.123-.075l-.376-.533a.141.141 0 0 1-.041-.103v-.034a.19.19 0 0 1 .082-.123l.26-.185c.474-.337 1.119-.506 1.935-.506.693 0 1.288.246 1.784.738.492.492.738 1.087.738 1.784v2.646c0 .205.066.374.198.506.173.173.424.26.752.26h.649v1.026z"/><path d="M163.825 56.18h-.485c-.679 0-1.192-.171-1.538-.513a2.036 2.036 0 0 1-.15-.191c-.419.469-1.023.704-1.812.704h-5.913v-1.025h5.913c.469 0 .813-.109 1.032-.328.214-.214.321-.556.321-1.025v-1.347c0-.611-.214-1.13-.643-1.559a2.133 2.133 0 0 0-1.565-.649c-1.002 0-1.75.349-2.242 1.046l-.191.267c-.041.059-.089.089-.144.089a.191.191 0 0 1-.116-.048l-.533-.376a.195.195 0 0 1-.075-.123v-.034c0-.037.009-.071.027-.103l.191-.267c.711-.984 1.739-1.477 3.083-1.477a3.1 3.1 0 0 1 2.283.95 3.1 3.1 0 0 1 .95 2.283v2.126c0 .16.041.278.123.355.146.146.421.219.827.219h.656v1.026z"/><path d="M166.703 46.07c.123 0 .185.064.185.191v8.135c0 .547-.162.982-.485 1.306-.328.319-.761.479-1.299.479h-1.62v-1.025h1.627c.004.004.009.007.014.007.255-.004.44-.066.554-.185.123-.127.185-.319.185-.574v-8.142c0-.127.062-.191.185-.191h.654zm3.466 9.926c0 .123-.059.185-.178.185h-.663c-.123 0-.185-.062-.185-.185v-9.741c0-.123.062-.185.185-.185h.663c.119 0 .178.062.178.185v9.741zm19.072.184h-2.276a.509.509 0 0 1-.512-.512v-4.122c0-.36-.127-.667-.383-.923a1.272 1.272 0 0 0-.923-.376 1.26 1.26 0 0 0-.916.376 1.259 1.259 0 0 0-.383.923v5.756c0 .141-.05.262-.15.362s-.221.15-.362.15h-4.915c-.811 0-1.515-.294-2.112-.882a2.926 2.926 0 0 1-.889-2.146c0-.579.153-1.119.458-1.62.31-.501.72-.884 1.23-1.148l.294-.15c.027-.014.052-.021.075-.021s.045.004.068.014c.05.014.086.043.109.089l.294.581a.236.236 0 0 1 .027.103c0 .064-.037.114-.109.15l-.294.15a2.068 2.068 0 0 0-.82.766c-.205.337-.308.7-.308 1.087 0 .556.196 1.03.588 1.422s.864.588 1.415.588h4.375v-5.25c0-.643.228-1.192.684-1.647.451-.456.998-.684 1.641-.684s1.192.228 1.647.684.684 1.005.684 1.647v3.609h1.764v1.024z"/><path d="M195.742 48.708c.843 0 1.565.301 2.167.902.602.597.902 1.319.902 2.167v1.333c0 .848-.301 1.57-.902 2.167a2.954 2.954 0 0 1-2.167.902h-6.979v-1.025h2.666a2.164 2.164 0 0 1-.355-1.203v-1.148c0-.556.178-1.048.533-1.477a2.25 2.25 0 0 1 1.326-.786c.246-.556.622-1 1.128-1.333a3.021 3.021 0 0 1 1.681-.499zm-1.087 6.447v-2.352c0-.355-.125-.656-.376-.902a1.218 1.218 0 0 0-.902-.376c-.351 0-.652.125-.902.376-.25.246-.376.547-.376.902v1.148c0 .333.119.615.355.848.232.237.515.355.848.355h1.353zm3.131-3.377c0-.561-.201-1.042-.602-1.442s-.882-.602-1.442-.602c-.702 0-1.258.29-1.668.868.474.15.859.424 1.155.82.301.41.451.871.451 1.381v2.352h.062c.565 0 1.046-.201 1.442-.602.401-.396.602-.877.602-1.442v-1.333zm10.596 4.402h-2.14v.533c0 .748-.212 1.331-.636 1.75-.424.424-1.007.636-1.75.636h-.704c-.123 0-.185-.062-.185-.185v-.656c0-.123.062-.185.185-.185h.704c.469 0 .811-.109 1.025-.328.219-.219.328-.563.328-1.032v-7.021c0-.127.064-.191.191-.191h.656c.123 0 .185.064.185.191v5.462h2.14v1.026z"/><path d="M218.991 56.18h-.472c-.605 0-1.096-.185-1.47-.554a2.91 2.91 0 0 1-.178-.205c-.419.506-1.039.759-1.859.759h-7.314v-1.025h2.201v-5.291c0-.123.064-.185.191-.185h.649c.123 0 .185.062.185.185v1.299c1.386-1.294 2.587-1.941 3.603-1.941.871 0 1.565.294 2.085.882.52.583.779 1.367.779 2.352v1.935c0 .214.064.383.191.506.174.173.422.26.745.26h.663v1.023zm-2.625-3.725c0-.497-.093-.93-.28-1.299-.305-.606-.824-.909-1.559-.909-.93 0-2.13.768-3.603 2.304v2.604h4.088c.465 0 .807-.109 1.025-.328.219-.214.328-.556.328-1.025v-1.347z"/><path d="M228.596 56.18h-.854c-.602 0-1.091-.187-1.47-.561a1.753 1.753 0 0 1-.205-.253 2.873 2.873 0 0 1-2.03.813h-5.387v-1.025h2.434v-2.98c0-.816.29-1.513.868-2.092a2.829 2.829 0 0 1 2.085-.868c.816 0 1.511.29 2.085.868a2.85 2.85 0 0 1 .868 2.092v1.046c0 .488-.113.948-.342 1.381a.648.648 0 0 0 .164.294c.174.173.422.26.745.26h1.039v1.025zm-4.56-1.025c.533 0 .989-.189 1.367-.567a1.86 1.86 0 0 0 .567-1.367v-1.046a1.86 1.86 0 0 0-.567-1.367c-.378-.374-.834-.561-1.367-.561s-.986.187-1.36.561a1.864 1.864 0 0 0-.567 1.367v2.98h1.927z"/><path d="M231.474 46.07c.123 0 .185.064.185.191v8.135c0 .547-.161.982-.485 1.306-.328.319-.761.479-1.299.479h-1.62v-1.025h1.627c.005.004.01.007.014.007.256-.004.44-.066.554-.185.123-.127.185-.319.185-.574v-8.142c0-.127.062-.191.185-.191h.654zm13.542 9.085v1.025h-5.154c-.815 0-1.511-.29-2.085-.868a2.854 2.854 0 0 1-.868-2.092v-1.046c0-.816.29-1.513.868-2.092.574-.579 1.27-.868 2.085-.868s1.513.29 2.092.868c.574.579.861 1.276.861 2.092v2.98h2.201zm-3.22-2.981c0-.533-.189-.989-.567-1.367-.378-.374-.834-.561-1.367-.561s-.986.187-1.36.561a1.864 1.864 0 0 0-.567 1.367v1.046c0 .533.189.989.567 1.367.374.378.827.567 1.36.567h1.935v-2.98zm-3.411-4.341c-.123 0-.185-.062-.185-.185v-.827c0-.123.062-.185.185-.185h.69c.128 0 .191.062.191.185v.827c0 .123-.063.185-.191.185h-.69zm1.866 0c-.123 0-.185-.062-.185-.185v-.827c0-.123.062-.185.185-.185h.69c.128 0 .191.062.191.185v.827c0 .123-.063.185-.191.185h-.69z"/><path d="M244.332 56.18v-1.025h2.181c.255-.004.439-.066.554-.185.123-.123.185-.314.185-.574v-4.717c0-.123.063-.185.191-.185h.649c.128 0 .191.062.191.185v4.717c0 .547-.164.982-.492 1.306-.328.319-.759.479-1.292.479h-2.167zm1.627 1.333c.128 0 .191.064.191.191v.82c0 .123-.063.185-.191.185h-.69c-.123 0-.185-.062-.185-.185v-.82c0-.127.062-.191.185-.191h.69zm1.866 0c.128 0 .191.064.191.191v.82c0 .123-.063.185-.191.185h-.69c-.123 0-.185-.062-.185-.185v-.82c0-.127.062-.191.185-.191h.69zm6.556-1.333h-2.14v.533c0 .748-.212 1.331-.636 1.75-.424.424-1.007.636-1.75.636h-.704c-.123 0-.185-.062-.185-.185v-.656c0-.123.062-.185.185-.185h.704c.47 0 .812-.109 1.025-.328.219-.219.328-.563.328-1.032v-7.021c0-.127.063-.191.191-.191h.656c.123 0 .185.064.185.191v5.462h2.14v1.026z"/><path d="M259.105 56.18h-.479c-.684 0-1.196-.173-1.538-.52l-.021-.021-.055.055c-.314.324-.745.485-1.292.485h-2.023v-1.025h2.044c.246-.004.431-.064.554-.178.123-.127.185-.321.185-.581v-4.717c0-.123.062-.185.185-.185h.649c.128 0 .191.062.191.185v4.901c0 .164.041.285.123.362.137.137.41.208.82.212h.656v1.027zm-1.771 1.237c.128 0 .191.064.191.191v.82c0 .123-.063.185-.191.185h-.684c-.128 0-.191-.062-.191-.185v-.82c0-.127.063-.191.191-.191h.684z"/><path d="M261.983 46.07c.123 0 .185.064.185.191v8.135c0 .547-.162.982-.485 1.306-.328.319-.761.479-1.299.479h-1.62v-1.025h1.627c.005.004.009.007.014.007.255-.004.439-.066.554-.185.123-.127.185-.319.185-.574v-8.142c0-.127.062-.191.185-.191h.654zm3.465 9.926c0 .123-.06.185-.178.185h-.663c-.123 0-.185-.062-.185-.185v-9.741c0-.123.062-.185.185-.185h.663c.118 0 .178.062.178.185v9.741zm8.292-6.782c.697 0 1.294.249 1.791.745.492.492.738 1.087.738 1.784v2.235c0 .82-.262 1.415-.786 1.784-.396.278-.93.417-1.6.417h-3.001c-.123 0-.185-.062-.185-.185v-.656c0-.123.062-.185.185-.185h3.001c.533 0 .902-.103 1.107-.308.169-.173.253-.462.253-.868v-2.235c0-.415-.146-.768-.438-1.06a1.463 1.463 0 0 0-1.066-.438c-.593 0-1.034.103-1.326.308l-.267.191a.192.192 0 0 1-.116.034h-.021a.195.195 0 0 1-.123-.075l-.383-.533a.213.213 0 0 1-.034-.109v-.027a.213.213 0 0 1 .075-.123l.273-.191c.467-.336 1.108-.505 1.923-.505zm7.26.007c.815 0 1.513.29 2.092.868a2.84 2.84 0 0 1 .861 2.085v4.17c0 .748-.271 1.392-.813 1.935-.547.547-1.194.82-1.941.82h-1.449c-.123 0-.185-.062-.185-.185v-.656c0-.123.062-.185.185-.185h1.449c.47 0 .875-.171 1.217-.513s.513-.748.513-1.217v-.163H281a2.841 2.841 0 0 1-2.085-.861 2.85 2.85 0 0 1-.868-2.092v-1.053c0-.816.289-1.511.868-2.085a2.832 2.832 0 0 1 2.085-.868zm1.928 2.953a1.84 1.84 0 0 0-.567-1.36c-.374-.378-.827-.567-1.36-.567s-.989.189-1.367.567a1.852 1.852 0 0 0-.561 1.36v1.053c0 .529.187.982.561 1.36.378.378.834.567 1.367.567h1.928v-2.98zm10.042 4.006h-.472c-.61 0-1.103-.185-1.477-.554a2.008 2.008 0 0 1-.116-.15c-.41.469-1.048.704-1.914.704h-3.008c-.123 0-.185-.062-.185-.185v-.649c0-.127.062-.191.185-.191h3.008c.533 0 .9-.103 1.101-.308.173-.168.26-.456.26-.861v-2.242c0-.41-.148-.763-.444-1.06a1.456 1.456 0 0 0-1.06-.438c-.593 0-1.037.105-1.333.314l-.267.185a.202.202 0 0 1-.109.034h-.027a.164.164 0 0 1-.123-.075l-.376-.533a.141.141 0 0 1-.041-.103v-.034a.186.186 0 0 1 .082-.123l.26-.185c.474-.337 1.119-.506 1.935-.506.692 0 1.287.246 1.784.738.492.492.738 1.087.738 1.784v2.646c0 .205.066.374.198.506.173.173.424.26.752.26h.649v1.026z"/><path d="M302.527 56.18h-.485c-.679 0-1.191-.171-1.538-.513a1.883 1.883 0 0 1-.15-.191c-.419.469-1.023.704-1.812.704h-5.913v-1.025h5.913c.47 0 .813-.109 1.032-.328.214-.214.321-.556.321-1.025v-1.347c0-.611-.214-1.13-.643-1.559a2.133 2.133 0 0 0-1.565-.649c-1.003 0-1.75.349-2.242 1.046l-.191.267c-.041.059-.089.089-.144.089a.193.193 0 0 1-.116-.048l-.533-.376a.195.195 0 0 1-.075-.123v-.034c0-.037.009-.071.027-.103l.191-.267c.711-.984 1.738-1.477 3.083-1.477.894 0 1.654.317 2.283.95.634.629.95 1.39.95 2.283v2.126c0 .16.041.278.123.355.146.146.422.219.827.219h.656v1.026z"/><path d="M305.405 46.07c.123 0 .185.064.185.191v8.135c0 .547-.162.982-.485 1.306-.328.319-.761.479-1.299.479h-1.62v-1.025h1.627c.005.004.009.007.014.007.255-.004.439-.066.554-.185.123-.127.185-.319.185-.574v-8.142c0-.127.062-.191.185-.191h.654zm3.465 9.926c0 .123-.06.185-.178.185h-.663c-.123 0-.185-.062-.185-.185v-9.741c0-.123.062-.185.185-.185h.663c.118 0 .178.062.178.185v9.741zm11.122-9.926c.128 0 .191.064.191.191v9.352c0 .838-.296 1.554-.889 2.146s-1.308.889-2.146.889c-.834 0-1.547-.296-2.14-.889s-.889-1.308-.889-2.146v-3.302c0-.123.062-.185.185-.185h.656c.123 0 .185.062.185.185v3.302c0 .556.196 1.03.588 1.422s.863.588 1.415.588c.556 0 1.027-.196 1.415-.588.392-.392.588-.866.588-1.422v-9.352c0-.127.063-.191.191-.191h.65zm10.275 9.085v1.025h-2.119v.164c0 .743-.273 1.388-.82 1.935-.542.547-1.188.82-1.935.82h-1.456c-.118 0-.178-.062-.178-.185v-.656c0-.123.06-.185.178-.185h1.456c.47 0 .875-.171 1.217-.513.342-.346.513-.752.513-1.217v-.163h-1.928a2.865 2.865 0 0 1-2.092-.861 2.85 2.85 0 0 1-.868-2.092v-1.053c0-.816.289-1.511.868-2.085a2.85 2.85 0 0 1 2.092-.868c.812 0 1.506.29 2.085.868.579.574.868 1.269.868 2.085v2.98h2.119zm-3.145-2.981a1.84 1.84 0 0 0-.567-1.36 1.856 1.856 0 0 0-1.36-.567c-.533 0-.989.189-1.367.567a1.842 1.842 0 0 0-.567 1.36v1.053c0 .529.189.982.567 1.36s.834.567 1.367.567h1.928v-2.98z"/><path d="M336.617 49.221c.87 0 1.567.294 2.092.882.52.583.779 1.367.779 2.352v1.347c0 .743-.212 1.324-.636 1.743-.419.424-1.003.636-1.75.636h-7.314v-1.025h2.201v-8.907c0-.123.066-.185.198-.185h.649c.123 0 .185.062.185.185v4.915c1.39-1.296 2.59-1.943 3.596-1.943zm1.846 3.234c0-.497-.094-.93-.28-1.299-.31-.606-.832-.909-1.565-.909-.47 0-1.061.226-1.774.677a7.228 7.228 0 0 0-1.821 1.627v2.604h4.081c.47 0 .813-.109 1.032-.328.219-.214.328-.556.328-1.025v-1.347zm5.312-7.951c.087 0 .13.043.13.13v.301c0 .086-.043.13-.13.13h-2.379c-.087 0-.13-.043-.13-.13v-.301c0-.086.043-.13.13-.13h.39v-.813c0-.287.103-.536.308-.745.205-.205.451-.308.738-.308.465 0 .788.214.971.643l.062.137c.009.014.014.03.014.048a.163.163 0 0 1-.014.055.154.154 0 0 1-.075.068l-.273.116a.118.118 0 0 1-.096.007.124.124 0 0 1-.075-.075l-.055-.137a.47.47 0 0 0-.458-.301c-.132 0-.246.048-.342.144s-.144.212-.144.349v.813h1.428zm-.862 1.566c.123 0 .185.064.185.191v9.728c0 .127-.062.191-.185.191h-.656c-.123 0-.185-.064-.185-.191v-9.728c0-.127.062-.191.185-.191h.656zm-60.334 78.328v1.025h-5.154c-.815 0-1.511-.29-2.085-.868a2.85 2.85 0 0 1-.868-2.092v-1.046c0-.816.289-1.513.868-2.092.574-.579 1.27-.868 2.085-.868s1.513.29 2.092.868c.574.579.861 1.276.861 2.092v2.98h2.201zm-3.219-2.98c0-.533-.189-.989-.567-1.367-.378-.374-.834-.561-1.367-.561s-.986.187-1.36.561a1.864 1.864 0 0 0-.567 1.367v1.046c0 .533.189.989.567 1.367.374.378.827.567 1.36.567h1.935v-2.98zm-3.412-4.341c-.123 0-.185-.062-.185-.185v-.827c0-.123.062-.185.185-.185h.69c.128 0 .191.062.191.185v.827c0 .123-.063.185-.191.185h-.69zm1.867 0c-.123 0-.185-.062-.185-.185v-.827c0-.123.062-.185.185-.185h.69c.128 0 .191.062.191.185v.827c0 .123-.063.185-.191.185h-.69z"/><path d="M287.378 125.424h-.478c-.684 0-1.196-.171-1.538-.513a.124.124 0 0 1-.021-.027.164.164 0 0 1-.027.034.125.125 0 0 1-.021.027c-.319.319-.752.479-1.299.479h-2.099v-1.025h2.126c.246 0 .429-.062.547-.185.123-.119.185-.312.185-.581v-4.703c0-.127.062-.191.185-.191h.649c.128 0 .191.064.191.191v4.895c0 .16.039.278.116.355.146.146.424.219.834.219h.649v1.025zm-3.349 1.333c.128 0 .191.064.191.191v.82c0 .123-.063.185-.191.185h-.69c-.123 0-.185-.062-.185-.185v-.82c0-.127.062-.191.185-.191h.69zm1.866 0c.128 0 .191.064.191.191v.82c0 .123-.063.185-.191.185h-.684c-.128 0-.191-.062-.191-.185v-.82c0-.127.063-.191.191-.191h.684z"/><path d="M290.256 115.313c.123 0 .185.064.185.191v8.135c0 .547-.162.982-.485 1.306-.328.319-.761.479-1.299.479h-1.62v-1.025h1.627c.005.004.009.007.014.007.255-.004.439-.066.554-.185.123-.127.185-.319.185-.574v-8.142c0-.127.062-.191.185-.191h.654zm4.218 10.111c-.542 0-.973-.16-1.292-.479-.323-.319-.485-.754-.485-1.306v-8.135c0-.127.062-.191.185-.191h.649c.128 0 .191.064.191.191v8.135c0 .26.06.451.178.574.128.123.313.185.554.185h.677v1.025h-.657z"/><path d="M304.735 125.424h-.854c-.602 0-1.092-.187-1.47-.561a1.753 1.753 0 0 1-.205-.253c-.579.542-1.256.813-2.03.813h-5.387v-1.025h2.434v-2.98c0-.816.289-1.513.868-2.092.574-.579 1.27-.868 2.085-.868s1.511.29 2.085.868a2.85 2.85 0 0 1 .868 2.092v1.046c0 .488-.114.948-.342 1.381a.648.648 0 0 0 .164.294c.173.173.422.26.745.26h1.039v1.025zm-4.56-1.026c.533 0 .989-.189 1.367-.567s.567-.834.567-1.367v-1.046c0-.533-.189-.989-.567-1.367-.378-.374-.834-.561-1.367-.561s-.986.187-1.36.561a1.864 1.864 0 0 0-.567 1.367v2.98h1.927z"/><path d="M316.766 125.424h-.472c-.61 0-1.103-.185-1.477-.554a.129.129 0 0 1-.027-.048c-.022.032-.06.073-.109.123-.319.319-.754.479-1.306.479h-.697c-.679 0-1.191-.171-1.538-.513a.124.124 0 0 0-.021-.027.405.405 0 0 1-.021.034l-.027.027c-.319.319-.752.479-1.299.479h-.697c-.688 0-1.203-.171-1.545-.513a.082.082 0 0 1-.014-.027l-.055.062c-.319.319-.752.479-1.299.479h-1.771V124.4h1.798c.251 0 .433-.062.547-.185.123-.123.185-.317.185-.581v-4.71c0-.123.062-.185.185-.185h.656c.128 0 .191.062.191.185v4.901c0 .16.039.278.116.355.142.146.417.219.827.219h.902c.246 0 .429-.062.547-.185.123-.119.185-.312.185-.581v-4.341c0-.123.062-.185.185-.185h.656c.123 0 .185.062.185.185v4.532c0 .16.039.278.116.355.15.146.429.219.834.219h.882c.251 0 .439-.062.567-.185.123-.123.185-.317.185-.581v-4.71c0-.123.062-.185.185-.185h.656c.128 0 .191.062.191.185v4.71c0 .209.063.378.191.506.173.173.422.26.745.26h.656v1.026zm-7-8.347c-.123 0-.185-.062-.185-.185v-.827c0-.123.062-.185.185-.185h.69c.128 0 .191.062.191.185v.827c0 .123-.063.185-.191.185h-.69zm.936-1.75c-.123 0-.185-.062-.185-.185v-.82c0-.123.062-.185.185-.185h.69c.123 0 .185.062.185.185v.82c0 .123-.062.185-.185.185h-.69zm.745.745c0-.127.062-.191.185-.191h.697c.128 0 .191.064.191.191v.82c0 .127-.063.191-.191.191h-.697c-.123 0-.185-.064-.185-.191v-.82z"/><path d="M319.644 115.313c.123 0 .185.064.185.191v8.135c0 .547-.162.982-.485 1.306-.328.319-.761.479-1.299.479h-1.62v-1.025h1.627c.005.004.009.007.014.007.255-.004.439-.066.554-.185.123-.127.185-.319.185-.574v-8.142c0-.127.062-.191.185-.191h.654zm3.466 9.926c0 .123-.06.185-.178.185h-.663c-.123 0-.185-.062-.185-.185v-9.741c0-.123.062-.185.185-.185h.663c.118 0 .178.062.178.185v9.741zm-39.32 28.659v1.025h-5.154a2.829 2.829 0 0 1-2.085-.868 2.847 2.847 0 0 1-.868-2.092v-1.046c0-.815.289-1.513.868-2.092.574-.578 1.27-.868 2.085-.868s1.513.29 2.092.868c.574.579.861 1.276.861 2.092v2.98h2.201zm-3.219-2.98c0-.533-.189-.988-.567-1.367-.378-.373-.834-.561-1.367-.561s-.986.188-1.36.561a1.865 1.865 0 0 0-.567 1.367v1.046c0 .533.189.989.567 1.367.374.379.827.567 1.36.567h1.935v-2.98zm-3.412-4.341c-.123 0-.185-.062-.185-.185v-.827c0-.123.062-.185.185-.185h.69c.128 0 .191.062.191.185v.827c0 .123-.063.185-.191.185h-.69zm1.867 0c-.123 0-.185-.062-.185-.185v-.827c0-.123.062-.185.185-.185h.69c.128 0 .191.062.191.185v.827c0 .123-.063.185-.191.185h-.69z"/><path d="M288.589 154.924h-.479c-.684 0-1.196-.171-1.538-.513a.124.124 0 0 1-.021-.027.141.141 0 0 1-.027.034.125.125 0 0 1-.021.027c-.319.319-.752.479-1.299.479h-2.099v-1.025h2.126c.246 0 .429-.062.547-.185.123-.118.185-.312.185-.581v-4.703c0-.127.062-.191.185-.191h.649c.128 0 .191.064.191.191v4.895c0 .16.039.278.116.355.146.146.424.219.834.219h.649v1.025zm-3.35 1.333c.128 0 .191.064.191.191v.82c0 .123-.063.185-.191.185h-.69c-.123 0-.185-.062-.185-.185v-.82c0-.127.062-.191.185-.191h.69zm1.867 0c.128 0 .191.064.191.191v.82c0 .123-.063.185-.191.185h-.684c-.128 0-.191-.062-.191-.185v-.82c0-.127.063-.191.191-.191h.684z"/><path d="M291.946 148.238c.123 0 .185.062.185.185v4.71c0 .547-.162.984-.485 1.313-.319.319-.752.479-1.299.479h-2.099V153.9h2.099c.26-.004.451-.063.574-.178.123-.127.185-.321.185-.581v-4.717c0-.123.062-.185.185-.185h.655zm-.91 7.923c.118 0 .178.064.178.191v.82c0 .123-.06.185-.178.185h-.69c-.128 0-.191-.062-.191-.185v-.82c0-.127.063-.191.191-.191h.69zm11.177-2.263v1.025h-2.119v.164c0 .743-.273 1.388-.82 1.935-.542.547-1.188.82-1.935.82h-1.456c-.118 0-.178-.062-.178-.185v-.656c0-.123.06-.185.178-.185h1.456c.47 0 .875-.171 1.217-.513.342-.346.513-.752.513-1.217v-.164h-1.928a2.865 2.865 0 0 1-2.092-.861 2.847 2.847 0 0 1-.868-2.092v-1.053c0-.815.289-1.511.868-2.085a2.854 2.854 0 0 1 2.092-.868c.812 0 1.506.29 2.085.868.579.574.868 1.27.868 2.085v2.98h2.119zm-3.144-2.98c0-.533-.189-.986-.567-1.36a1.856 1.856 0 0 0-1.36-.567c-.533 0-.989.189-1.367.567a1.842 1.842 0 0 0-.567 1.36v1.053c0 .529.189.982.567 1.36a1.86 1.86 0 0 0 1.367.567h1.928v-2.98z"/><path d="M307.217 154.924h-.479c-.684 0-1.196-.171-1.538-.513a.124.124 0 0 1-.021-.027.141.141 0 0 1-.027.034.125.125 0 0 1-.021.027c-.319.319-.752.479-1.299.479h-2.099v-1.025h2.126c.246 0 .429-.062.547-.185.123-.118.185-.312.185-.581v-4.703c0-.127.062-.191.185-.191h.649c.128 0 .191.064.191.191v4.895c0 .16.039.278.116.355.146.146.424.219.834.219h.649v1.025zm-2.461-8.347c-.123 0-.185-.062-.185-.185v-.827c0-.123.062-.185.185-.185h.69c.128 0 .191.062.191.185v.827c0 .123-.063.185-.191.185h-.69z"/><path d="M316.767 154.924h-.479c-.684 0-1.198-.173-1.545-.52a1.645 1.645 0 0 1-.15-.185c-.419.47-1.023.704-1.812.704h-5.906v-1.025h5.906c.47-.004.813-.111 1.032-.321.219-.223.328-.567.328-1.032v-1.347c0-.61-.217-1.13-.649-1.559a2.133 2.133 0 0 0-1.565-.649c-.993 0-1.741.349-2.242 1.046l-.191.267c-.041.06-.089.089-.144.089a.193.193 0 0 1-.116-.048l-.533-.376a.19.19 0 0 1-.075-.123v-.034c0-.036.012-.072.034-.109l.191-.267c.702-.979 1.728-1.47 3.076-1.47.894 0 1.656.314 2.29.943a3.12 3.12 0 0 1 .95 2.29v2.126c0 .164.041.285.123.362.137.137.41.208.82.212h.656v1.026zm-5.264 1.237c.123 0 .185.064.185.191v.82c0 .123-.062.185-.185.185h-.69c-.128 0-.191-.062-.191-.185v-.82c0-.127.063-.191.191-.191h.69z"/><path d="M319.645 144.813c.123 0 .185.064.185.191v8.135c0 .547-.162.982-.485 1.306-.328.319-.761.479-1.299.479h-1.62v-1.025h1.627c.005.005.009.007.014.007.255-.004.439-.065.554-.185.123-.127.185-.318.185-.574v-8.142c0-.127.062-.191.185-.191h.654zm3.466 9.926c0 .123-.06.185-.178.185h-.663c-.123 0-.185-.062-.185-.185v-9.741c0-.123.062-.185.185-.185h.663c.118 0 .178.062.178.185v9.741zm-36.627 26.659v1.025h-5.154a2.829 2.829 0 0 1-2.085-.868 2.847 2.847 0 0 1-.868-2.092v-1.046c0-.815.289-1.513.868-2.092.574-.578 1.27-.868 2.085-.868s1.513.29 2.092.868c.574.579.861 1.276.861 2.092v2.98h2.201zm-3.22-2.98c0-.533-.189-.988-.567-1.367-.378-.373-.834-.561-1.367-.561s-.986.188-1.36.561a1.865 1.865 0 0 0-.567 1.367v1.046c0 .533.189.989.567 1.367.374.379.827.567 1.36.567h1.935v-2.98zm-3.411-4.341c-.123 0-.185-.062-.185-.185v-.827c0-.123.062-.185.185-.185h.69c.128 0 .191.062.191.185v.827c0 .123-.063.185-.191.185h-.69zm1.866 0c-.123 0-.185-.062-.185-.185v-.827c0-.123.062-.185.185-.185h.69c.128 0 .191.062.191.185v.827c0 .123-.063.185-.191.185h-.69z"/><path d="M291.282 182.424h-.479c-.684 0-1.196-.171-1.538-.513a.124.124 0 0 1-.021-.027.141.141 0 0 1-.027.034.125.125 0 0 1-.021.027c-.319.319-.752.479-1.299.479H285.8v-1.025h2.126c.246 0 .429-.062.547-.185.123-.118.185-.312.185-.581v-4.703c0-.127.062-.191.185-.191h.649c.128 0 .191.064.191.191v4.895c0 .16.039.278.116.355.146.146.424.219.834.219h.649v1.025zm-3.349 1.333c.128 0 .191.064.191.191v.82c0 .123-.063.185-.191.185h-.69c-.123 0-.185-.062-.185-.185v-.82c0-.127.062-.191.185-.191h.69zm1.866 0c.128 0 .191.064.191.191v.82c0 .123-.063.185-.191.185h-.684c-.128 0-.191-.062-.191-.185v-.82c0-.127.063-.191.191-.191h.684z"/><path d="M296.027 175.458c.815 0 1.513.29 2.092.868.574.579.861 1.276.861 2.092v3.493a.49.49 0 0 1-.15.362.492.492 0 0 1-.362.15h-7.526v-1.025h2.844a2.891 2.891 0 0 1-.711-1.935v-1.046c0-.815.287-1.513.861-2.092a2.854 2.854 0 0 1 2.091-.867zm1.934 2.96c0-.533-.189-.988-.567-1.367-.378-.373-.834-.561-1.367-.561s-.989.188-1.367.561a1.875 1.875 0 0 0-.561 1.367v1.046c0 .533.187.989.561 1.367a1.86 1.86 0 0 0 1.367.567h1.935v-2.98zm-3.254-4.341c-.128 0-.191-.062-.191-.185v-.827c0-.123.063-.185.191-.185h.69c.123 0 .185.062.185.185v.827c0 .123-.062.185-.185.185h-.69zm1.866 0c-.128 0-.191-.062-.191-.185v-.827c0-.123.063-.185.191-.185h.684c.128 0 .191.062.191.185v.827c0 .123-.063.185-.191.185h-.684zm8.504 8.347h-2.14v.533c0 .748-.212 1.331-.636 1.75-.424.424-1.007.636-1.75.636h-.704c-.123 0-.185-.062-.185-.185v-.656c0-.123.062-.185.185-.185h.704c.47 0 .812-.109 1.025-.328.219-.219.328-.563.328-1.032v-7.021c0-.127.063-.191.191-.191h.656c.123 0 .185.064.185.191v5.462h2.14v1.026z"/><path d="M316.767 182.424h-.472c-.61 0-1.103-.185-1.477-.554a.12.12 0 0 1-.027-.048c-.022.032-.06.073-.109.123-.319.319-.754.479-1.306.479h-.697c-.679 0-1.191-.171-1.538-.513a.124.124 0 0 0-.021-.027.29.29 0 0 1-.021.034l-.027.027c-.319.319-.752.479-1.299.479h-.697c-.688 0-1.203-.171-1.545-.513-.009-.014-.014-.022-.014-.027l-.055.062c-.319.319-.752.479-1.299.479h-1.771V181.4h1.798c.251 0 .433-.062.547-.185.123-.123.185-.316.185-.581v-4.71c0-.123.062-.185.185-.185h.656c.128 0 .191.062.191.185v4.901c0 .16.039.278.116.355.142.146.417.219.827.219h.902c.246 0 .429-.062.547-.185.123-.118.185-.312.185-.581v-4.341c0-.123.062-.185.185-.185h.656c.123 0 .185.062.185.185v4.532c0 .16.039.278.116.355.15.146.429.219.834.219h.882c.251 0 .439-.062.567-.185.123-.123.185-.316.185-.581v-4.71c0-.123.062-.185.185-.185h.656c.128 0 .191.062.191.185v4.71c0 .21.063.379.191.506.173.174.422.26.745.26h.656v1.026zm-7-8.347c-.123 0-.185-.062-.185-.185v-.827c0-.123.062-.185.185-.185h.69c.128 0 .191.062.191.185v.827c0 .123-.063.185-.191.185h-.69zm.936-1.75c-.123 0-.185-.062-.185-.185v-.82c0-.123.062-.185.185-.185h.69c.123 0 .185.062.185.185v.82c0 .123-.062.185-.185.185h-.69zm.745.745c0-.127.062-.191.185-.191h.697c.128 0 .191.064.191.191v.82c0 .128-.063.191-.191.191h-.697c-.123 0-.185-.063-.185-.191v-.82z"/><path d="M319.645 172.313c.123 0 .185.064.185.191v8.135c0 .547-.162.982-.485 1.306-.328.319-.761.479-1.299.479h-1.62v-1.025h1.627c.005.005.009.007.014.007.255-.004.439-.065.554-.185.123-.127.185-.318.185-.574v-8.142c0-.127.062-.191.185-.191h.654zm3.466 9.926c0 .123-.06.185-.178.185h-.663c-.123 0-.185-.062-.185-.185v-9.741c0-.123.062-.185.185-.185h.663c.118 0 .178.062.178.185v9.741z"/></svg>